<svg xmlns="http://www.w3.org/2000/svg" viewBox="0 0 62 61.57"><defs><style>.cls-1{fill:#b8d200;}</style></defs><title>アートボード 12</title><g id="gnav"><path class="cls-1" d="M19.34,37.3a4.09,4.09,0,0,0,1,2.17,2.75,2.75,0,0,0,2.11.76,2.83,2.83,0,0,0,2.44-1.13,4.65,4.65,0,0,0,.83-2.83,5,5,0,0,0-.78-2.84,2.75,2.75,0,0,0-2.45-1.15,4.19,4.19,0,0,0-1.35.19,2.67,2.67,0,0,0-1.53,1.35l-3.86-.18,1.54-12.12H29.33v3.66H20.38L19.59,30a8.93,8.93,0,0,1,1.56-.87,6.6,6.6,0,0,1,2.28-.34,6.62,6.62,0,0,1,6.77,7.15,8.34,8.34,0,0,1-1.95,5.43,7.11,7.11,0,0,1-5.84,2.39,7.73,7.73,0,0,1-5.13-1.68A6.53,6.53,0,0,1,15,37.3Z"/><path class="cls-1" d="M45.07,24c1.12,2,1.69,4.76,1.69,8.38s-.57,6.41-1.69,8.37S42,43.71,39.19,43.71s-4.75-1-5.87-2.93S31.63,36,31.63,32.41,32.19,26,33.32,24s3.08-3,5.87-3S44,22.06,45.07,24ZM36.65,38.2a2.5,2.5,0,0,0,2.54,2,2.47,2.47,0,0,0,2.52-2,21.38,21.38,0,0,0,.6-5.79,21.1,21.1,0,0,0-.6-5.87,2.44,2.44,0,0,0-2.52-1.9,2.48,2.48,0,0,0-2.54,1.9A20.57,20.57,0,0,0,36,32.41,20.85,20.85,0,0,0,36.65,38.2Z"/><path class="cls-1" d="M28.11,44.65V44h.53v-1h1v1h.6v.7h-.6v2a.54.54,0,0,0,.05.29A.62.62,0,0,0,30,47h.19v.73l-.46,0a1.31,1.31,0,0,1-.95-.24.74.74,0,0,1-.16-.52V44.65Z"/><path class="cls-1" d="M33.54,43.94a1.1,1.1,0,0,1,.46.37,1,1,0,0,1,.19.43,6.09,6.09,0,0,1,0,.72v2.21h-1V45.38a1,1,0,0,0-.1-.48.51.51,0,0,0-.5-.27.7.7,0,0,0-.59.26,1.24,1.24,0,0,0-.2.75v2h-1V42.62h1V44.4a1.22,1.22,0,0,1,.49-.45,1.34,1.34,0,0,1,.59-.13A1.61,1.61,0,0,1,33.54,43.94Z"/><path class="cls-1" d="M8.72,26.46l3,1.19-.11.79-3.24.27.09-.63.82,0,.09-.69-.77-.27Zm1.13,1.05-.07.5.91,0c.15,0,.3,0,.45,0h.21l-.21-.05c-.14,0-.28-.07-.42-.12Z"/><path class="cls-1" d="M11.5,31.15v.59l-3.17,0v-.61l1.13-.45a10.69,10.69,0,0,1,1.27-.4h0l-.9.05-.89,0h-.6v-.59l3.17,0v.61l-1.16.44a9.17,9.17,0,0,1-1.27.4h0l.9,0,.9,0Z"/><path class="cls-1" d="M11.76,34l.09.59L8.71,35l-.09-.62,1.05-.61a10.93,10.93,0,0,1,1.19-.6h0l-.89.19-.87.16-.59.08L8.42,33l3.14-.45.09.6-1.08.62a8.73,8.73,0,0,1-1.19.6h0l.89-.19.88-.15Z"/><path class="cls-1" d="M9,36.2l3.07-.79.15.57-3.07.8Z"/><path class="cls-1" d="M12.9,38.07l.22.59-3.21.47-.28-.74,2.73-1.77.22.6-1.77,1.06-.49.25a1.67,1.67,0,0,1-.23.12h0l.25-.07a5.23,5.23,0,0,1,.54-.12Z"/><path class="cls-1" d="M10.59,40.7l2.81-1.48.77,1.48-.41.21-.5-.95-.71.38.47.87-.41.22-.47-.88-.86.46.5,1-.41.22Z"/><path class="cls-1" d="M13.42,42.85l-1.11.79L12,43.16l2.58-1.84.65.91c.3.42.38.84-.1,1.18-.28.2-.63.34-.9,0h0a.5.5,0,0,1-.2.71c-.11.07-.75.51-.74.68l-.05,0-.38-.53a2.81,2.81,0,0,1,.62-.52c.15-.12.37-.27.3-.47a1.45,1.45,0,0,0-.26-.43Zm.38-.27.27.38c.13.15.32.2.58,0s.25-.36.12-.54l-.26-.36Z"/><path class="cls-1" d="M16.4,45.15c.2-.2.39-.41.17-.64a.28.28,0,0,0-.44,0c-.18.17-.14.34-.1.56a5.32,5.32,0,0,1,.12.88.84.84,0,0,1-.3.65.88.88,0,0,1-1.34-.08.85.85,0,0,1,0-1.36l.17-.16.41.43-.14.13c-.23.2-.33.42-.13.63a.32.32,0,0,0,.52,0,.46.46,0,0,0,.14-.46,5.24,5.24,0,0,1-.11-1.18.88.88,0,0,1,.25-.44.79.79,0,0,1,1.25.09.87.87,0,0,1-.12,1.39Z"/><path class="cls-1" d="M15.91,47.77l2.59-2,.62.5L17.68,49.2l-.49-.4.38-.72L17,47.64l-.62.53Zm1.49-.43.39.32.44-.8a3.52,3.52,0,0,1,.24-.38,1.74,1.74,0,0,0,.11-.18h0c0,.05-.1.1-.14.16l-.33.3Z"/><path class="cls-1" d="M19.74,48.91,19,50.09l-.51-.31,1.63-2.72,1,.57c.44.27.68.62.38,1.12-.18.3-.44.57-.81.41h0a.49.49,0,0,1,.09.72c-.06.12-.48.78-.4.93l0,0-.56-.33a2.92,2.92,0,0,1,.36-.73c.09-.17.23-.39.09-.55a1.69,1.69,0,0,0-.41-.29Zm.24-.4.4.24c.17.09.37.06.53-.21s.09-.43-.1-.55l-.38-.23Z"/><path class="cls-1" d="M23,49.53A2.73,2.73,0,0,1,23,50h0a2.84,2.84,0,0,1,.42-.47l.54-.56.59.26L23,50.61l-.52,1.24L22,51.62l.53-1.24-.05-2,.59.25Z"/><path class="cls-1" d="M42.37,47.93c-.15-.24-.32-.46-.59-.28s-.24.24-.12.42.31.2.53.2a6.4,6.4,0,0,1,.88,0,.86.86,0,0,1,.59.42.88.88,0,0,1-.34,1.3.85.85,0,0,1-1.33-.3l-.12-.19.5-.32.1.15c.15.27.35.41.6.25a.33.33,0,0,0,.11-.51.46.46,0,0,0-.43-.22,4.64,4.64,0,0,1-1.18-.12.84.84,0,0,1-.39-.33.79.79,0,0,1,.33-1.2.86.86,0,0,1,1.34.38Z"/><path class="cls-1" d="M45.08,48.71l-2-2.48.46-.37,2,2.47Z"/><path class="cls-1" d="M45.29,44.24l.41-.42L48,46.05l-.43.44L46.4,46a9.84,9.84,0,0,1-1.19-.58h0l.69.59c.24.21.47.43.65.61l.43.42-.42.42-2.26-2.23.43-.44,1.15.49a10.55,10.55,0,0,1,1.19.58h0c-.22-.18-.46-.39-.68-.59s-.46-.4-.66-.6Z"/><path class="cls-1" d="M49.07,42.8l.14.11c.45.37.69.79.3,1.32-.58.79-1.12.47-1.8,0l-.36-.27c-.64-.5-1.08-.91-.52-1.67A.8.8,0,0,1,48,42.05a1.37,1.37,0,0,1,.2.13l-.35.47c-.18-.1-.47-.34-.64-.11-.28.38.19.68.39.82l.7.52c.21.16.57.4.81.07s-.25-.54-.4-.67Z"/><path class="cls-1" d="M50.64,42.41l-2.78-1.53.8-1.46.41.22-.52.94.7.39.48-.87.41.22-.48.87.86.47.51-.94.41.23Z"/><path class="cls-1" d="M50.66,37l-.22.69-.4-.13a.77.77,0,0,0-.27-1l.13-.42,3,.94-.17.56Z"/><path class="cls-1" d="M52.43,33.61c1,.18,1.21.51,1.11,1.12s-.35.75-.84.65l.09-.54c.11,0,.26,0,.29-.21s-.34-.37-.53-.41l-.2,0a.53.53,0,0,1,.13.49c-.09.5-.46.65-1.1.54s-1.16-.4-1-1.07.61-.8,1.34-.67Zm-1.63.63c0,.31.24.32.64.39.22,0,.55.13.61-.19s-.26-.34-.51-.38S50.82,33.92,50.8,34.24Z"/><path class="cls-1" d="M51.85,32.62c-1,0-1.27-.35-1.24-1,0-.46.25-.79.75-.75l0,.55c-.1,0-.26,0-.26.25s.39.32.58.34h.2a.56.56,0,0,1-.19-.47c0-.5.38-.7,1-.67s1.19.24,1.16.93-.5.87-1.24.83Zm1.54-.83c0-.31-.28-.29-.69-.31-.22,0-.56-.05-.58.27s.3.3.56.31S53.4,32.11,53.39,31.79Z"/><path class="cls-1" d="M52.45,28.16c1-.08,1.31.18,1.36.8,0,.47-.15.82-.65.84l0-.55c.11,0,.26,0,.23-.27s-.43-.27-.62-.26h-.2a.53.53,0,0,1,.25.45c0,.5-.28.74-.93.8-.8.06-1.22-.1-1.28-.79s.39-.92,1.14-1Zm-1.42,1c0,.31.31.25.72.22.22,0,.57,0,.54-.33s-.33-.27-.59-.25S51,28.86,51,29.17Z"/><path class="cls-1" d="M16.14,13.44h3.21v.76H18.23v4.4h-1V14.2H16.14Z"/><path class="cls-1" d="M21.9,15c0-.46,0-.92-.57-.92-.32,0-.52.14-.52.49s.24.54.55.73a8.86,8.86,0,0,1,1.16.85A1.34,1.34,0,0,1,23,17.24a1.41,1.41,0,0,1-1.59,1.48,1.38,1.38,0,0,1-1.57-1.56v-.38h1v.3c0,.5.13.87.61.87a.54.54,0,0,0,.6-.61.78.78,0,0,0-.39-.68,7.33,7.33,0,0,1-1.52-1.19,1.4,1.4,0,0,1-.25-.79c0-.88.5-1.36,1.52-1.36,1.53,0,1.49,1.18,1.5,1.69Z"/><path class="cls-1" d="M26.07,13.44h1V17c0,1.14-.37,1.68-1.63,1.68s-1.64-.54-1.64-1.68v-3.6h1V17c0,.49,0,1,.69,1s.66-.5.66-1Z"/><path class="cls-1" d="M31,16.76c0,.1,0,.2,0,.3,0,.94-.36,1.66-1.43,1.66-1.59,0-1.69-1-1.69-2.38v-.73c0-1.32.14-2.29,1.69-2.29A1.29,1.29,0,0,1,31,14.65c0,.13,0,.26,0,.39H30c0-.33,0-.95-.48-.95-.76,0-.7.91-.7,1.31v1.43c0,.42,0,1.12.7,1.12s.46-.86.48-1.19Z"/><path class="cls-1" d="M31.92,18.6V13.44h1v2h1.35v-2h1V18.6h-1V16.24H32.88V18.6Z"/><path class="cls-1" d="M36.27,18.6V13.44h1V18.6Z"/><path class="cls-1" d="M39.52,14.8a3,3,0,0,1,.23.79h0a4.33,4.33,0,0,1,.32-1l.46-1.17h1.05l-1.36,3V18.6h-1V16.41l-1.34-3h1Z"/><path class="cls-1" d="M41.46,18.6l1.23-5.16H44l1.17,5.16h-1l-.26-1.31H42.74l-.25,1.31Zm1.43-2.06h.83l-.26-1.47c-.05-.24-.07-.47-.1-.71l0-.35h0l0,.35c0,.24-.05.47-.1.71Z"/><path class="cls-1" d="M46.39,4.13a30.78,30.78,0,1,0,11.27,42A30.78,30.78,0,0,0,46.39,4.13ZM59.25,29.06a.76.76,0,0,1-1.51,0v-.05a.75.75,0,0,1,.76-.75A.76.76,0,0,1,59.25,29.06Zm-.44-3.52a.75.75,0,0,1-1.49.23s0,0,0-.06a.75.75,0,1,1,1.5-.17Zm-.88-3.45a.76.76,0,0,1-1.45.42s0,0,0-.06a.75.75,0,0,1,1.46-.36Zm-2.27-3.74a.75.75,0,0,1,.54,1.41.77.77,0,0,1-1-.38.14.14,0,0,0,0-.06A.75.75,0,0,1,55.66,18.35Zm-1.76-3a.76.76,0,1,1-.28,1.07l0-.05A.77.77,0,0,1,53.9,15.36Zm-2.11-2.75a.75.75,0,0,1,.87,1.23.75.75,0,0,1-1-.13l0-.05A.75.75,0,0,1,51.79,12.61Zm-2.44-2.46a.75.75,0,1,1,0,1.1l0,0A.75.75,0,0,1,49.35,10.15ZM46.62,8a.75.75,0,0,1,1.06-.09.76.76,0,0,1-.93,1.19l0,0A.76.76,0,0,1,46.62,8Zm-3-1.78a.75.75,0,0,1,1-.22.76.76,0,0,1,.22,1,.75.75,0,0,1-1,.25l0,0A.76.76,0,0,1,43.64,6.23ZM40.46,4.84a.76.76,0,0,1,1-.35.75.75,0,0,1,.35,1,.75.75,0,0,1-1,.37l0,0A.76.76,0,0,1,40.46,4.84Zm-3.32-1a.75.75,0,0,1,1.43.48.76.76,0,0,1-.91.49h0A.74.74,0,0,1,37.14,3.86ZM33.71,3.3a.77.77,0,0,1,.89-.59.76.76,0,0,1,.59.89.74.74,0,0,1-.83.6H34.3A.75.75,0,0,1,33.71,3.3Zm-2.65-.82a.76.76,0,0,1,.69.81A.75.75,0,0,1,31,4h-.06a.75.75,0,0,1-.69-.81A.76.76,0,0,1,31.06,2.48Zm-3.55.22a.75.75,0,0,1,.13,1.5h-.05a.77.77,0,0,1-.8-.72A.76.76,0,0,1,27.51,2.7ZM24,3.36a.75.75,0,0,1,.32,1.47l-.06,0A.76.76,0,0,1,24,3.36ZM20.63,4.45a.76.76,0,0,1,.95.5.75.75,0,0,1-.44.92l-.06,0a.75.75,0,0,1-.45-1.44ZM17.41,6a.76.76,0,0,1,.68,1.35l-.05,0A.75.75,0,1,1,17.41,6Zm-3,1.9a.75.75,0,0,1,.84,1.25l-.05,0a.75.75,0,1,1-.79-1.28Zm-2.74,2.26a.75.75,0,0,1,1,1.13l0,0a.77.77,0,0,1-1.07-.11A.75.75,0,0,1,11.67,10.12ZM9.23,12.7a.76.76,0,0,1,1.07,0,.75.75,0,0,1,.06,1l0,.05A.76.76,0,0,1,9.23,12.7Zm-2.1,2.87a.76.76,0,0,1,1.06-.15.75.75,0,0,1,.19,1l0,.05a.76.76,0,0,1-1.06.15A.77.77,0,0,1,7.13,15.57ZM5.42,18.68a.75.75,0,0,1,1-.28.77.77,0,0,1,.31,1l0,.05a.75.75,0,0,1-1.31-.75ZM4.1,22a.75.75,0,0,1,1.42.51s0,0,0,.06a.76.76,0,0,1-1,.41A.75.75,0,0,1,4.1,22Zm-.89,3.44a.75.75,0,0,1,1.47.33s0,0,0,.06a.76.76,0,0,1-1.46-.39ZM2.76,29a.75.75,0,0,1,1.5.15.13.13,0,0,1,0,.06A.75.75,0,1,1,2.76,29Zm0,3.56a.76.76,0,0,1,1.51,0v.05a.75.75,0,0,1-.76.75A.76.76,0,0,1,2.75,32.51ZM3.19,36a.75.75,0,0,1,1.49-.23s0,0,0,.06a.75.75,0,1,1-1.5.17Zm.88,3.45a.76.76,0,0,1,1.45-.42s0,0,0,.06a.75.75,0,0,1-1.46.36Zm2.27,3.74a.75.75,0,0,1-.54-1.41.77.77,0,0,1,1,.38.08.08,0,0,0,0,.05A.76.76,0,0,1,6.34,43.22Zm1.76,3a.76.76,0,1,1,.28-1.07l0,0A.77.77,0,0,1,8.1,46.21ZM10.21,49a.75.75,0,0,1-.87-1.23.75.75,0,0,1,1,.13l0,0A.75.75,0,0,1,10.21,49Zm2.44,2.46a.75.75,0,0,1-1-1.11.77.77,0,0,1,1,0l0,0A.75.75,0,0,1,12.65,51.42Zm2.73,2.14a.75.75,0,0,1-1.06.09.76.76,0,0,1,.93-1.19l.05,0A.76.76,0,0,1,15.38,53.56Zm3,1.78a.75.75,0,1,1-.27-1.08l.05,0A.76.76,0,0,1,18.36,55.34Zm-10-33.11,3.39,2a20.37,20.37,0,0,1,3.7-6.51l-3.39-1.95a24.21,24.21,0,0,1,37.64-.26l-3.4,2a20.27,20.27,0,0,1,3.8,6.44l3.38-1.95A24.19,24.19,0,0,1,34.9,54.65V50.73a20.19,20.19,0,0,1-7.48.06V54.7a24.2,24.2,0,0,1-19-32.47Zm13.16,34.5a.76.76,0,1,1-1.36-.66.75.75,0,0,1,1-.37l.05,0A.76.76,0,0,1,21.54,56.73Zm3.32,1a.75.75,0,0,1-1.43-.48.76.76,0,0,1,.91-.49h.05A.74.74,0,0,1,24.86,57.71Zm3.43.56a.77.77,0,0,1-.89.59.76.76,0,0,1-.59-.89.74.74,0,0,1,.83-.6h.06A.75.75,0,0,1,28.29,58.27Zm2.65.82a.76.76,0,0,1-.69-.81.75.75,0,0,1,.75-.7h.06a.75.75,0,0,1,.69.81A.76.76,0,0,1,30.94,59.09Zm3.55-.22a.75.75,0,0,1-.13-1.5h0a.77.77,0,0,1,.8.72A.76.76,0,0,1,34.49,58.87ZM38,58.21a.75.75,0,0,1-.32-1.47l.06,0A.76.76,0,0,1,38,58.21Zm3.39-1.09a.76.76,0,0,1-.95-.5.75.75,0,0,1,.44-.92l.06,0a.74.74,0,0,1,.94.49A.76.76,0,0,1,41.37,57.12Zm3.22-1.51a.76.76,0,0,1-.68-1.35l.05,0a.75.75,0,0,1,1,.37A.76.76,0,0,1,44.59,55.61Zm3-1.9a.75.75,0,0,1-.84-1.25l0,0a.76.76,0,0,1,1,.24A.77.77,0,0,1,47.59,53.71Zm2.74-2.26a.75.75,0,0,1-1-1.13s0,0,0,0a.77.77,0,0,1,1.07.11A.75.75,0,0,1,50.33,51.45Zm2.44-2.58a.76.76,0,0,1-1.13-1s0,0,0,0a.76.76,0,1,1,1.09,1ZM54.87,46a.76.76,0,0,1-1.06.15.75.75,0,0,1-.19-1l0,0a.76.76,0,0,1,1.06-.15A.77.77,0,0,1,54.87,46Zm1.71-3.11a.75.75,0,0,1-1,.28.77.77,0,0,1-.31-1l0,0a.75.75,0,1,1,1.31.75Zm1.32-3.31a.75.75,0,0,1-1.42-.51s0,0,0-.06a.76.76,0,0,1,1-.41A.75.75,0,0,1,57.9,39.58Zm.89-3.44a.75.75,0,0,1-1.47-.33s0,0,0-.06a.76.76,0,0,1,1.46.39Zm.45-3.52a.75.75,0,0,1-1.5-.15.13.13,0,0,1,0-.06.75.75,0,0,1,1.49.21Z"/></g></svg>