<svg xmlns="http://www.w3.org/2000/svg" width="287.256" height="199.35" viewBox="0 0 287.256 199.35"><defs><style>.cls-1{fill:none;}.cls-2{fill:#323232;}</style></defs><title>アートボード 58</title><g id="成長期"><rect class="cls-1" width="287.256" height="199.35"/><path class="cls-2" d="M35.5,3.251A47.876,47.876,0,0,1,46.686,4.485,22.9,22.9,0,0,1,55.536,8.6,18.967,18.967,0,0,1,61.3,16.286a29.965,29.965,0,0,1,2.058,11.8,24.474,24.474,0,0,1-3.7,13.651,18.6,18.6,0,0,1-11.113,7.752v.276a19.428,19.428,0,0,1,13.034,7q4.8,5.9,4.8,15.78a39.3,39.3,0,0,1-1.509,10.975,22.346,22.346,0,0,1-5.145,9.124,25.73,25.73,0,0,1-9.467,6.242,39.147,39.147,0,0,1-14.475,2.333H2.438V3.251Zm-7.684,40.2q8.232,0,12.005-2.95T43.6,30.555q0-7-3.43-9.879T29.33,17.794H22.2V43.45Zm2.058,43.22q7.133,0,11.525-3.156t4.391-11.663a18.582,18.582,0,0,0-1.167-7.065,11.882,11.882,0,0,0-3.155-4.529,11.38,11.38,0,0,0-4.734-2.4,24.879,24.879,0,0,0-6.037-.687H22.2v29.5Z"/><path class="cls-2" d="M117.215,3.251l25.931,97.963h-20.58L118.038,80.5H91.97l-4.528,20.718H66.862L92.793,3.251Zm-2.607,61.056-9.467-44.041h-.275L95.4,64.306Z"/><path class="cls-2" d="M184.314,20.744q-2.54-4.867-9.261-4.869a9.255,9.255,0,0,0-6.105,1.989,13.183,13.183,0,0,0-3.773,6.449,54.88,54.88,0,0,0-1.921,11.663q-.55,7.2-.549,17.631a171.038,171.038,0,0,0,.755,17.973,39.819,39.819,0,0,0,2.332,10.633q1.576,3.776,3.979,5.076a11.435,11.435,0,0,0,5.557,1.3A13.122,13.122,0,0,0,180.2,87.7a8.257,8.257,0,0,0,3.91-3.566,23.226,23.226,0,0,0,2.607-7.547,68.938,68.938,0,0,0,.96-12.828h19.757A88.451,88.451,0,0,1,206.2,78.85a34.181,34.181,0,0,1-4.6,12.486,22.839,22.839,0,0,1-9.467,8.368q-6.106,3.018-15.847,3.019-11.113,0-17.7-3.566A24.082,24.082,0,0,1,148.5,88.866a45.333,45.333,0,0,1-4.527-16.053,188.617,188.617,0,0,1-1.029-20.58,189.152,189.152,0,0,1,1.029-20.511A45.465,45.465,0,0,1,148.5,15.6,25.37,25.37,0,0,1,158.589,5.1q6.586-3.773,17.7-3.773,10.564,0,16.67,3.43a23.353,23.353,0,0,1,9.124,8.711,30.242,30.242,0,0,1,3.773,11.389,93.893,93.893,0,0,1,.755,11.456H186.853Q186.853,25.616,184.314,20.744Z"/><path class="cls-2" d="M236.439,42.491h.274L261.684,3.251h21.4L256.47,45.234l29.635,55.979H263.879l-20.169-40.2-7.272,11.113v29.087H216.681V3.251h19.757Z"/><path class="cls-2" d="M282.175,160.553H12.059l19.747-25.127a3.5,3.5,0,1,0-5.5-4.326L2.1,161.89c-.018.023-.029.05-.046.073a3.472,3.472,0,0,0-.294.463c-.014.027-.033.054-.047.081l-.009.016a3.44,3.44,0,0,0-.206.548c-.017.058-.029.115-.042.174a3.44,3.44,0,0,0-.077.448c-.005.055-.013.109-.017.164a3.515,3.515,0,0,0,.014.6c0,.028.011.056.015.083a3.463,3.463,0,0,0,.111.506c.017.058.035.113.055.169a3.585,3.585,0,0,0,.192.446c.02.038.035.078.057.115a3.415,3.415,0,0,0,.294.444l24.2,30.79a3.5,3.5,0,1,0,5.5-4.326L12.059,167.553H282.175a3.5,3.5,0,0,0,0-7Z"/></g></svg>