<svg xmlns="http://www.w3.org/2000/svg" width="59.794" height="47.301" viewBox="0 0 59.794 47.301"><defs><style>.cls-1{fill:#fff}</style></defs><title>btn_back</title><g id="レイヤー_2" data-name="レイヤー 2"><path class="cls-1" d="M49.615 24.509a11.628 11.628 0 0 0-.065 1.508v8.489a12.513 12.513 0 0 0 .065 1.508h-1.4a12.207 12.207 0 0 0 .078-1.508v-8.488a11.493 11.493 0 0 0-.078-1.508zm3.9 9.178c3 .064 4.537.48 6.278 1.7a5.96 5.96 0 0 0-1.065 1.131c-1.677-1.2-3.056-1.482-7.216-1.482-.507 0-.884.014-1.3.053.039-.4.052-.832.052-1.417v-7.213a8.68 8.68 0 0 0-.052-1.169 9.5 9.5 0 0 0 .962.039h1.392c.455 0 .7-.013 1-.039a9.451 9.451 0 0 0-.052 1.169zm-1.131-7.007H51.4v6.982h.455c.208 0 .377 0 .532.013zm3.716 1.768a4.083 4.083 0 0 0 1.537-1.648 7.428 7.428 0 0 0 .728-2.509 5.848 5.848 0 0 0 1.417.507 7.9 7.9 0 0 1-1.157 2.938 5.42 5.42 0 0 1-1.78 1.69 4.322 4.322 0 0 1 1.664 1.469 8.688 8.688 0 0 1 1.273 2.848 4.862 4.862 0 0 0-1.352.715c-.4-2.146-1.093-3.3-2.327-3.927v1.587a10.887 10.887 0 0 0 .064 1.352h-1.352a9.132 9.132 0 0 0 .064-1.352V30.19a5.371 5.371 0 0 0-.857-.065c-.053 0-.13.014-.273.026v-1.468a2.667 2.667 0 0 0 .56.065c.155.012.272.025.571.064V26a9.619 9.619 0 0 0-.064-1.391h1.365A11.336 11.336 0 0 0 56.1 26zm-2.7-9.255a6.338 6.338 0 0 1-.6-2.73c0-2.223 1.145-3.652 2.926-3.652a3.178 3.178 0 0 1 2.874 1.767 6.436 6.436 0 0 1 .741 3.146 4.393 4.393 0 0 1-.6 2.522 1.856 1.856 0 0 1-1.5.78 2 2 0 0 1-1.858-2.236 2.8 2.8 0 0 1 1.065-2.249 3.512 3.512 0 0 1 1.17-.6c-.4-1.079-.962-1.547-1.885-1.547-1.014 0-1.677 1-1.677 2.574a8.01 8.01 0 0 0 2.184 5.356l-1.4.884a11.647 11.647 0 0 0-1.222-1.833 43.355 43.355 0 0 0-3.38-3.887L50 17.255l-.013.013c.064.494.117 1.326.221 3.679a4.329 4.329 0 0 0 .065.624l-1.561.065A11.8 11.8 0 0 0 48.8 20.1c0-1.1-.064-2.691-.156-3.952a1.909 1.909 0 0 0-.169-.806l1.145-.806a2.773 2.773 0 0 0 .533.676c.6.65 1.442 1.6 1.819 2.041.2.234.9 1.17 1.066 1.43a5.2 5.2 0 0 1 .338.533zm3.237-.39c0 .468.233.767.6.767.52 0 .819-.585.819-1.547a3.467 3.467 0 0 0-.056-.676c-.9.234-1.364.728-1.364 1.453zM39.857 47.3h-16.5v-4.972c0-1.32.088-2.618 1.21-3.5a4.429 4.429 0 0 1 2.971-.814c1.43 0 2.838.309 3.454 1.98h.044c.242-1.738 1.694-2.4 3.828-2.4a7.793 7.793 0 0 1 2.024.221 3.723 3.723 0 0 1 2.971 4.047zm-9.834-3.652c0-.748.044-1.717-.572-2.2a3.156 3.156 0 0 0-1.782-.33c-1.232 0-1.849.265-1.893 1.673v1.431h4.247zm7.414-.088a4.65 4.65 0 0 0-.176-1.849c-.374-.836-1.452-.946-2.288-.946-1.782 0-2.53.352-2.53 2.267v1.188h4.994zm2.42-7.26l-16.5-3.937V28.2l16.5-3.74v3.3l-4.181.814v3.609l4.181.817zm-6.6-4.6v-2.637l-4.687.837c-.77.154-1.518.221-2.288.309-.374.021-.748.065-1.1.109v.045c.353.043.727.088 1.1.109.771.088 1.519.154 2.288.309zm.726-18.7l.946.066c3.015.154 5.324 1.167 5.324 4.6 0 5.061-3.213 5.391-7.613 5.391h-2.353c-4.2-.132-7.327-.462-7.327-5.391.044-2.75 1.452-4.291 4.269-4.511a8.008 8.008 0 0 1 1.255-.066v3.037c-1.056.132-3.036.022-3.036 1.54 0 2.42 2.882 2.223 4.158 2.223h4.576c1.364 0 3.587-.11 3.587-2.223 0-1.694-2.729-1.5-3.785-1.562zm5.875-2.46h-16.5V7.459h7.327v-.044a32.937 32.937 0 0 1-3.961-1.937l-3.366-1.8V.2l7.085 4.071L39.858 0v3.477l-6.514 2.9 1.783 1.078h4.73zM0 24.583l11.192 12.414V12.17L0 24.583z" id="search_page" data-name="search page"/></g></svg>