<svg xmlns="http://www.w3.org/2000/svg" viewBox="0 0 120.29 30"><defs><style>.cls-1,.cls-2{fill:#abcd03;}.cls-2{fill-rule:evenodd;}</style></defs><title>アセット 1</title><g id="レイヤー_2" data-name="レイヤー 2"><g id="レイヤー_1-2" data-name="レイヤー 1"><path class="cls-1" d="M38.2,29.31V.69h8.62c2.29,0,4.54.15,6.07,2.1A7.67,7.67,0,0,1,54.3,7.94c0,2.48-.53,4.92-3.43,6V14c3,.42,4.16,2.94,4.16,6.64a13.79,13.79,0,0,1-.38,3.51c-1.15,3.63-3.21,5.15-7,5.15Zm6.33-17.06c1.3,0,3,.08,3.82-1a5.42,5.42,0,0,0,.57-3.09C48.92,6,48.46,5,46,4.89H43.54v7.36Zm.15,12.86a8.08,8.08,0,0,0,3.21-.3c1.45-.65,1.64-2.52,1.64-4,0-3.09-.61-4.39-3.93-4.39H43.54v8.66Z"/><path class="cls-1" d="M57.29,29.31,64.12.69h7.22l6.49,28.62H72.1l-1.41-7.25H64.43L63,29.31Zm8-11.45h4.58L68.4,9.73c-.27-1.33-.38-2.63-.54-4,0-.64-.11-1.29-.19-1.91H67.6c-.08.62-.16,1.27-.19,1.91-.16,1.34-.27,2.64-.54,4Z"/><path class="cls-1" d="M97.72,19.12c0,.54-.07,1.11-.11,1.64-.27,5.23-2,9.24-8,9.24-8.78,0-9.35-5.57-9.35-13.21V12.71C80.51,5.42,81.08,0,89.63,0c4.77.08,7.44,2.52,7.83,7.41a14.28,14.28,0,0,1,.11,2.17H92.3c-.23-1.83,0-5.27-2.67-5.27-4.2,0-3.85,5-3.85,7.22v7.93c0,2.37.19,6.23,3.85,6.23,2.94,0,2.6-4.74,2.71-6.57Z"/><path class="cls-1" d="M102,29.31V.69h5.34V13.4h.08a56,56,0,0,1,3.36-6.87L113.92.69h6L112.89,13l7.4,16.33h-6l-5-11.29-1.87,3.09v8.2Z"/><polygon class="cls-2" points="25.46 29.31 19.09 29.31 12.73 14.99 19.09 0.67 25.46 0.67 19.09 14.99 25.46 29.31"/><polygon class="cls-2" points="12.73 29.31 6.37 29.31 0 14.99 6.37 0.67 12.73 0.67 6.37 14.99 12.73 29.31"/></g></g></svg>