<svg xmlns="http://www.w3.org/2000/svg" width="1301.9" height="656.527" viewBox="0 0 1301.9 656.527"><defs><style>.cls-1{fill:#fff;}</style></defs><title>アートボード 12</title><g id="column"><path class="cls-1" d="M1301.9,319.048c0-29.508-8.524-56.11-22.174-74.867a141.017,141.017,0,0,0,11.292-55.438c0-79.351-65.5-143.678-146.288-143.678a148.138,148.138,0,0,0-55.9,10.871c-15.811-25.422-43.028-42.209-73.958-42.209-29.271,0-55.216,15.034-71.316,38.191C933.636,38.047,917.9,29.08,900.181,29.08a52.043,52.043,0,0,0-30.037,9.573C845.86,14.679,813.26,0,777.413,0c-42.295,0-80.076,20.426-105,52.455-19.75-21.432-47.342-34.747-77.88-34.747-30.911,0-58.808,13.637-78.6,35.53-9.926-13.855-25.651-22.81-43.359-22.81-21.517,0-40.111,13.218-48.922,32.389-21.155-23.923-51.268-38.881-84.689-38.881-51.484,0-95.121,35.486-110.239,84.58-66.167,9.023-117.12,65-117.12,132.728A132.326,132.326,0,0,0,142.56,326.4c-6.314,11.891-16.48,23.8-32.494,34.113C71.891,385.1,0,387.448,0,387.448s38.838,19.724,96.516,14.772c23.943-2.056,46.69-6.357,66.024-12.953a140.909,140.909,0,0,0-14.429,62.447c0,74.713,57.292,135.28,127.965,135.28,36.875,0,70.1-16.495,93.453-42.878,18.34,51.839,68.967,89.1,128.557,89.1a137.953,137.953,0,0,0,80.837-25.888c24.914,30.152,61.546,49.2,102.392,49.2,48.987,0,91.915-27.4,115.831-68.5,9.015,18.553,27.285,31.255,48.373,31.255,23.985,0,44.328-16.428,51.546-39.216A137.15,137.15,0,0,0,1117.9,574.61a129.526,129.526,0,0,0,23.929,2.222c75.06,0,135.909-64.326,135.909-143.677a152,152,0,0,0-3.482-32.454C1291.062,381.9,1301.9,352.322,1301.9,319.048Z"/></g></svg>