<svg xmlns="http://www.w3.org/2000/svg" width="190.548" height="249.48" viewBox="0 0 190.548 249.48"><defs><style>.cls-1{fill:#323232;}.cls-2{fill:none;stroke:#323232;stroke-linecap:round;stroke-linejoin:round;stroke-width:3.375px;}</style></defs><title>アートボード 14</title><g id="column_hover"><path class="cls-1" d="M30.075,8.626A4.22,4.22,0,0,0,25.96,6.462a4.111,4.111,0,0,0-2.713.884,5.86,5.86,0,0,0-1.676,2.865,24.381,24.381,0,0,0-.854,5.182q-.244,3.2-.244,7.833a76.009,76.009,0,0,0,.335,7.986,17.69,17.69,0,0,0,1.036,4.724,4.317,4.317,0,0,0,1.768,2.256,5.084,5.084,0,0,0,2.469.579,5.824,5.824,0,0,0,2.164-.4,3.665,3.665,0,0,0,1.737-1.585,10.312,10.312,0,0,0,1.158-3.353,30.643,30.643,0,0,0,.427-5.7h8.778a39.287,39.287,0,0,1-.549,6.705,15.194,15.194,0,0,1-2.042,5.548,10.147,10.147,0,0,1-4.206,3.718,15.934,15.934,0,0,1-7.041,1.342,16.574,16.574,0,0,1-7.864-1.585,10.7,10.7,0,0,1-4.481-4.572,20.143,20.143,0,0,1-2.011-7.133,83.778,83.778,0,0,1-.457-9.144,84.027,84.027,0,0,1,.457-9.113A20.207,20.207,0,0,1,14.165,6.34a11.27,11.27,0,0,1,4.481-4.663A15.806,15.806,0,0,1,26.509,0a15.183,15.183,0,0,1,7.407,1.524A10.369,10.369,0,0,1,37.969,5.4a13.425,13.425,0,0,1,1.676,5.06,41.743,41.743,0,0,1,.335,5.09H31.2Q31.2,10.79,30.075,8.626Z"/><path class="cls-1" d="M44.674,20.544a14.321,14.321,0,0,1,2.195-5.4,9.75,9.75,0,0,1,3.993-3.292,14.575,14.575,0,0,1,6.065-1.127,15.435,15.435,0,0,1,6.279,1.006A8.8,8.8,0,0,1,67.168,15a14.562,14.562,0,0,1,2.073,5.426,41.276,41.276,0,0,1,.61,7.559,36.9,36.9,0,0,1-.67,7.438,14.334,14.334,0,0,1-2.195,5.395,9.079,9.079,0,0,1-3.993,3.2,15.68,15.68,0,0,1-6.065,1.037,16.223,16.223,0,0,1-6.279-.945,8.485,8.485,0,0,1-3.962-3.17,14.268,14.268,0,0,1-2.073-5.426A41.285,41.285,0,0,1,44,27.98,36.811,36.811,0,0,1,44.674,20.544Zm7.864,12.069a16,16,0,0,0,.579,3.658,5.219,5.219,0,0,0,1.372,2.377,3.423,3.423,0,0,0,2.438.854,3.564,3.564,0,0,0,3.536-2.682q.974-2.682.975-8.84t-.975-8.839a3.565,3.565,0,0,0-3.536-2.683,3.432,3.432,0,0,0-2.438.854,5.233,5.233,0,0,0-1.372,2.378,16.007,16.007,0,0,0-.579,3.657q-.123,2.134-.122,4.633T52.538,32.613Z"/><path class="cls-1" d="M83.078.854V44.379H74.666V.854Z"/><path class="cls-1" d="M105.693,40.538a7.958,7.958,0,0,1-3.475,3.475,11.02,11.02,0,0,1-4.877,1.037,8.515,8.515,0,0,1-6.187-2.1q-2.165-2.1-2.164-7.041V11.583H97.4V34.2a5.616,5.616,0,0,0,.853,3.566A3.407,3.407,0,0,0,101,38.771q4.449,0,4.45-5.426V11.583h8.412v32.8h-8.047V40.538Z"/><path class="cls-1" d="M127.517,11.583v3.353h.122A9.666,9.666,0,0,1,131.2,11.7a10.6,10.6,0,0,1,4.724-.975,8.561,8.561,0,0,1,4.907,1.341,6.512,6.512,0,0,1,2.652,3.9h.122a7.458,7.458,0,0,1,3.139-3.932,9.75,9.75,0,0,1,5.151-1.311q4.206,0,6.187,2.529t1.981,7.285V44.379h-8.412V21.458a5.537,5.537,0,0,0-.762-3.17,2.861,2.861,0,0,0-2.53-1.1,4.064,4.064,0,0,0-3.2,1.342,6.335,6.335,0,0,0-1.188,4.267v21.58h-8.413V21.458a5.537,5.537,0,0,0-.762-3.17,2.861,2.861,0,0,0-2.53-1.1,4.064,4.064,0,0,0-3.2,1.342,6.335,6.335,0,0,0-1.189,4.267v21.58H119.47v-32.8Z"/><path class="cls-1" d="M173.724,11.583v3.84h.122a8.539,8.539,0,0,1,3.475-3.566,10.287,10.287,0,0,1,4.877-1.127,8.3,8.3,0,0,1,6.188,2.194q2.163,2.194,2.164,7.132V44.379h-8.412V21.763a5.622,5.622,0,0,0-.854-3.566,3.413,3.413,0,0,0-2.743-1.006q-4.451,0-4.45,5.426V44.379h-8.412v-32.8Z"/><path class="cls-2" d="M2.885,132.165a91.709,91.709,0,0,1,6.463-28.847,45.676,45.676,0,0,1,15.92-20.109q10.649-7.541,29.565-7.541,15.558,0,25.734,4.429A35.61,35.61,0,0,1,96.846,94.341q6.1,9.819,8.618,25.5t2.514,38.184q0,17.719-1.2,33.994a91.887,91.887,0,0,1-6.463,28.847A43.437,43.437,0,0,1,84.4,240.61q-10.655,7.182-29.565,7.183-15.323,0-25.615-4.07a33.41,33.41,0,0,1-16.4-13.885q-6.1-9.813-8.618-25.5T1.688,166.159Q1.688,148.446,2.885,132.165ZM37,199.794q.836,10.178,2.992,16.039t5.745,8.021a17.448,17.448,0,0,0,9.1,2.154,14.919,14.919,0,0,0,9.336-2.753q3.591-2.75,5.626-9.337a83.259,83.259,0,0,0,2.873-17.595q.836-11.01.838-27.291V150.6q0-16.036-.838-26.214t-2.992-16.039q-2.155-5.864-5.746-8.02a17.447,17.447,0,0,0-9.1-2.155,14.943,14.943,0,0,0-9.336,2.753q-3.591,2.755-5.626,9.337A82.875,82.875,0,0,0,37,127.856q-.842,11.014-.838,27.291V173.58Q36.16,189.622,37,199.794Z"/><path class="cls-1" d="M155.855,125.462H122.1v-22.5h3.112q17.236,0,27.171-6.464t12.568-20.827h25.375V245.159H155.855Z"/></g></svg>