<svg xmlns="http://www.w3.org/2000/svg" width="225.757" height="249.48" viewBox="0 0 225.757 249.48"><defs><style>.cls-1{fill:#323232;}</style></defs><title>アートボード 23</title><g id="成長期_column_hover"><path class="cls-1" d="M43.075,8.626A4.22,4.22,0,0,0,38.96,6.462a4.11,4.11,0,0,0-2.712.884,5.86,5.86,0,0,0-1.676,2.865,24.366,24.366,0,0,0-.854,5.182q-.245,3.2-.244,7.833a76.076,76.076,0,0,0,.335,7.986,17.7,17.7,0,0,0,1.036,4.724,4.317,4.317,0,0,0,1.768,2.256,5.082,5.082,0,0,0,2.469.579,5.823,5.823,0,0,0,2.164-.4,3.665,3.665,0,0,0,1.737-1.585,10.3,10.3,0,0,0,1.158-3.353,30.643,30.643,0,0,0,.427-5.7h8.778a39.286,39.286,0,0,1-.549,6.705,15.194,15.194,0,0,1-2.042,5.548,10.147,10.147,0,0,1-4.207,3.718,15.933,15.933,0,0,1-7.041,1.342,16.574,16.574,0,0,1-7.864-1.585,10.694,10.694,0,0,1-4.48-4.572,20.143,20.143,0,0,1-2.012-7.133,83.843,83.843,0,0,1-.457-9.144,84.093,84.093,0,0,1,.457-9.113A20.207,20.207,0,0,1,27.165,6.34a11.268,11.268,0,0,1,4.48-4.663A15.807,15.807,0,0,1,39.509,0a15.184,15.184,0,0,1,7.407,1.524A10.371,10.371,0,0,1,50.97,5.4a13.429,13.429,0,0,1,1.676,5.06,41.792,41.792,0,0,1,.335,5.09H44.2Q44.2,10.79,43.075,8.626Z"/><path class="cls-1" d="M57.674,20.544a14.317,14.317,0,0,1,2.195-5.4,9.746,9.746,0,0,1,3.993-3.292,14.574,14.574,0,0,1,6.065-1.127,15.436,15.436,0,0,1,6.279,1.006A8.8,8.8,0,0,1,80.168,15a14.566,14.566,0,0,1,2.072,5.426,41.274,41.274,0,0,1,.61,7.559,36.915,36.915,0,0,1-.67,7.438,14.33,14.33,0,0,1-2.195,5.395,9.077,9.077,0,0,1-3.993,3.2,15.681,15.681,0,0,1-6.065,1.037,16.222,16.222,0,0,1-6.279-.945,8.485,8.485,0,0,1-3.962-3.17,14.272,14.272,0,0,1-2.073-5.426A41.286,41.286,0,0,1,57,27.98,36.812,36.812,0,0,1,57.674,20.544Zm7.864,12.069a16.025,16.025,0,0,0,.579,3.658,5.221,5.221,0,0,0,1.372,2.377,3.424,3.424,0,0,0,2.438.854,3.564,3.564,0,0,0,3.536-2.682q.974-2.682.975-8.84t-.975-8.839a3.565,3.565,0,0,0-3.536-2.683,3.432,3.432,0,0,0-2.438.854,5.235,5.235,0,0,0-1.372,2.378,16.034,16.034,0,0,0-.579,3.657q-.123,2.134-.122,4.633T65.538,32.613Z"/><path class="cls-1" d="M96.078.854V44.379H87.666V.854Z"/><path class="cls-1" d="M118.693,40.538a7.955,7.955,0,0,1-3.475,3.475,11.019,11.019,0,0,1-4.876,1.037,8.515,8.515,0,0,1-6.187-2.1q-2.164-2.1-2.164-7.041V11.583H110.4V34.2a5.618,5.618,0,0,0,.853,3.566A3.408,3.408,0,0,0,114,38.771q4.449,0,4.45-5.426V11.583h8.413v32.8h-8.047V40.538Z"/><path class="cls-1" d="M140.517,11.583v3.353h.122a9.666,9.666,0,0,1,3.566-3.231,10.6,10.6,0,0,1,4.724-.975,8.561,8.561,0,0,1,4.907,1.341,6.511,6.511,0,0,1,2.652,3.9h.122a7.46,7.46,0,0,1,3.14-3.932,9.749,9.749,0,0,1,5.151-1.311q4.206,0,6.188,2.529t1.981,7.285V44.379h-8.412V21.458a5.536,5.536,0,0,0-.762-3.17,2.861,2.861,0,0,0-2.53-1.1,4.064,4.064,0,0,0-3.2,1.342,6.335,6.335,0,0,0-1.188,4.267v21.58h-8.413V21.458a5.536,5.536,0,0,0-.762-3.17,2.861,2.861,0,0,0-2.53-1.1,4.064,4.064,0,0,0-3.2,1.342,6.335,6.335,0,0,0-1.188,4.267v21.58H132.47v-32.8Z"/><path class="cls-1" d="M186.724,11.583v3.84h.122a8.538,8.538,0,0,1,3.475-3.566,10.285,10.285,0,0,1,4.876-1.127,8.3,8.3,0,0,1,6.188,2.194q2.163,2.194,2.164,7.132V44.379h-8.412V21.763a5.624,5.624,0,0,0-.854-3.566,3.413,3.413,0,0,0-2.743-1.006q-4.451,0-4.45,5.426V44.379h-8.412v-32.8Z"/><path class="cls-1" d="M54.832,249.481c-10.378,0-19.205-1.409-26.235-4.188a35.215,35.215,0,0,1-17.211-14.563c-4.169-6.7-7.147-15.49-8.851-26.119A248.924,248.924,0,0,1,0,166.159c0-11.829.4-23.308,1.2-34.118h0a93.8,93.8,0,0,1,6.59-29.375,47.545,47.545,0,0,1,16.5-20.834c7.357-5.209,17.632-7.851,30.54-7.851,10.553,0,19.438,1.537,26.407,4.569a37.427,37.427,0,0,1,17.039,14.9c4.169,6.707,7.147,15.495,8.851,26.12a249,249,0,0,1,2.535,38.451c0,11.779-.4,23.258-1.2,34.118a94,94,0,0,1-6.59,29.375,45.285,45.285,0,0,1-16.533,20.5C77.986,246.967,67.721,249.481,54.832,249.481Zm0-172.125c-12.2,0-21.814,2.433-28.59,7.23A44.219,44.219,0,0,0,10.9,103.97a90.452,90.452,0,0,0-6.337,28.318h0c-.792,10.729-1.193,22.124-1.193,33.87a245.641,245.641,0,0,0,2.492,37.917c1.633,10.184,4.454,18.551,8.385,24.871a31.912,31.912,0,0,0,15.586,13.207c6.634,2.623,15.043,3.952,24.995,3.952,12.205,0,21.834-2.32,28.622-6.895a41.967,41.967,0,0,0,15.307-19A90.644,90.644,0,0,0,105.1,191.89c.792-10.777,1.193-22.173,1.193-33.87A245.712,245.712,0,0,0,103.8,120.1c-1.633-10.18-4.454-18.548-8.385-24.871a34.111,34.111,0,0,0-15.52-13.588C73.351,78.8,64.919,77.356,54.832,77.356ZM2.885,132.165h0ZM54.832,227.7a19.174,19.174,0,0,1-9.965-2.395c-2.723-1.634-4.9-4.624-6.461-8.886-1.484-4.037-2.523-9.582-3.09-16.482-.56-6.766-.844-15.632-.844-26.352V155.148c0-10.875.284-20.1.843-27.419a84.857,84.857,0,0,1,2.943-17.966c1.452-4.7,3.542-8.129,6.21-10.177a16.641,16.641,0,0,1,10.364-3.1,19.162,19.162,0,0,1,9.965,2.4c2.72,1.631,4.895,4.62,6.461,8.884,1.479,4.027,2.518,9.572,3.09,16.482.56,6.812.844,15.678.844,26.353v18.434c0,10.833-.284,20.058-.843,27.419a85.246,85.246,0,0,1-2.943,17.964c-1.458,4.714-3.547,8.139-6.212,10.179A16.62,16.62,0,0,1,54.832,227.7Zm0-127.837a13.379,13.379,0,0,0-8.311,2.406c-2.1,1.612-3.8,4.471-5.039,8.494a81.64,81.64,0,0,0-2.8,17.226c-.553,7.235-.833,16.374-.833,27.163V173.58c0,10.628.28,19.4.832,26.075h0c.542,6.6,1.516,11.844,2.895,15.6,1.292,3.521,2.985,5.928,5.03,7.156a15.9,15.9,0,0,0,8.229,1.914,13.361,13.361,0,0,0,8.31-2.4c2.1-1.607,3.794-4.465,5.04-8.5a82.033,82.033,0,0,0,2.8-17.225c.553-7.275.833-16.415.833-27.163V150.6c0-10.583-.28-19.356-.832-26.076-.547-6.606-1.521-11.854-2.895-15.6C66.8,105.406,65.1,103,63.061,101.774A15.886,15.886,0,0,0,54.832,99.858Z"/><path class="cls-1" d="M121.382,245.159a93.058,93.058,0,0,1,2.274-21.066A77.278,77.278,0,0,1,130.6,205.42a100.74,100.74,0,0,1,11.73-17.356,180.1,180.1,0,0,1,16.4-17.116l13.885-12.928a77.054,77.054,0,0,0,9.216-9.336,39.439,39.439,0,0,0,5.387-8.618,32.307,32.307,0,0,0,2.513-9.337,98.716,98.716,0,0,0,.6-11.49q0-21.063-16.757-21.067-6.464,0-10.174,2.634a17.182,17.182,0,0,0-5.745,7.182,33.9,33.9,0,0,0-2.633,10.533q-.6,5.987-.6,12.688H121.382v-6.464q0-23.7,12.688-36.388t39.978-12.688q25.854,0,38.3,11.97T224.8,121.871a76.231,76.231,0,0,1-1.437,15.2,57.553,57.553,0,0,1-4.548,13.525,62.468,62.468,0,0,1-8.14,12.568,118.4,118.4,0,0,1-12.209,12.568L179.315,193.45a71.764,71.764,0,0,0-11.969,13.525,39.278,39.278,0,0,0-5.506,11.371h63.918v26.813Z"/></g></svg>