<svg xmlns="http://www.w3.org/2000/svg" width="227.193" height="249.48" viewBox="0 0 227.193 249.48"><defs><style>.cls-1{fill:#323232;}</style></defs><title>アートボード 24</title><g id="拡大期_column_hover"><path class="cls-1" d="M40.075,8.626a4.22,4.22,0,0,0-4.114-2.164,4.111,4.111,0,0,0-2.713.884,5.86,5.86,0,0,0-1.676,2.865,24.366,24.366,0,0,0-.854,5.182q-.244,3.2-.244,7.833a76.1,76.1,0,0,0,.335,7.986,17.7,17.7,0,0,0,1.036,4.724,4.317,4.317,0,0,0,1.768,2.256,5.084,5.084,0,0,0,2.469.579,5.825,5.825,0,0,0,2.164-.4,3.669,3.669,0,0,0,1.737-1.585,10.324,10.324,0,0,0,1.158-3.353,30.685,30.685,0,0,0,.427-5.7h8.778a39.337,39.337,0,0,1-.548,6.705,15.2,15.2,0,0,1-2.042,5.548,10.147,10.147,0,0,1-4.207,3.718,15.933,15.933,0,0,1-7.041,1.342,16.577,16.577,0,0,1-7.864-1.585,10.7,10.7,0,0,1-4.48-4.572,20.143,20.143,0,0,1-2.012-7.133,83.843,83.843,0,0,1-.457-9.144,84.093,84.093,0,0,1,.457-9.113A20.207,20.207,0,0,1,24.165,6.34a11.271,11.271,0,0,1,4.48-4.663A15.809,15.809,0,0,1,36.509,0a15.182,15.182,0,0,1,7.407,1.524A10.371,10.371,0,0,1,47.97,5.4a13.42,13.42,0,0,1,1.676,5.06,41.694,41.694,0,0,1,.335,5.09H41.2Q41.2,10.79,40.075,8.626Z"/><path class="cls-1" d="M54.675,20.544a14.309,14.309,0,0,1,2.194-5.4,9.75,9.75,0,0,1,3.993-3.292,14.576,14.576,0,0,1,6.065-1.127,15.436,15.436,0,0,1,6.279,1.006A8.8,8.8,0,0,1,77.168,15a14.574,14.574,0,0,1,2.073,5.426,41.321,41.321,0,0,1,.609,7.559,36.88,36.88,0,0,1-.67,7.438,14.33,14.33,0,0,1-2.195,5.395,9.077,9.077,0,0,1-3.993,3.2,15.681,15.681,0,0,1-6.065,1.037,16.223,16.223,0,0,1-6.279-.945,8.482,8.482,0,0,1-3.962-3.17,14.272,14.272,0,0,1-2.073-5.426A41.33,41.33,0,0,1,54,27.98,36.775,36.775,0,0,1,54.675,20.544Zm7.863,12.069a16.025,16.025,0,0,0,.579,3.658,5.217,5.217,0,0,0,1.372,2.377,3.423,3.423,0,0,0,2.438.854,3.564,3.564,0,0,0,3.536-2.682q.974-2.682.976-8.84t-.976-8.839a3.565,3.565,0,0,0-3.536-2.683,3.431,3.431,0,0,0-2.438.854,5.231,5.231,0,0,0-1.372,2.378,16.034,16.034,0,0,0-.579,3.657q-.123,2.134-.122,4.633T62.538,32.613Z"/><path class="cls-1" d="M93.078.854V44.379H84.666V.854Z"/><path class="cls-1" d="M115.693,40.538a7.955,7.955,0,0,1-3.475,3.475,11.019,11.019,0,0,1-4.876,1.037,8.513,8.513,0,0,1-6.187-2.1q-2.165-2.1-2.164-7.041V11.583H107.4V34.2a5.614,5.614,0,0,0,.854,3.566A3.407,3.407,0,0,0,111,38.771q4.449,0,4.45-5.426V11.583h8.412v32.8h-8.047V40.538Z"/><path class="cls-1" d="M137.517,11.583v3.353h.122a9.666,9.666,0,0,1,3.566-3.231,10.6,10.6,0,0,1,4.725-.975,8.562,8.562,0,0,1,4.907,1.341,6.512,6.512,0,0,1,2.651,3.9h.122a7.457,7.457,0,0,1,3.139-3.932,9.75,9.75,0,0,1,5.151-1.311q4.207,0,6.188,2.529t1.981,7.285V44.379h-8.413V21.458a5.536,5.536,0,0,0-.762-3.17,2.861,2.861,0,0,0-2.529-1.1,4.065,4.065,0,0,0-3.2,1.342,6.335,6.335,0,0,0-1.188,4.267v21.58h-8.413V21.458a5.537,5.537,0,0,0-.762-3.17,2.862,2.862,0,0,0-2.53-1.1,4.065,4.065,0,0,0-3.2,1.342,6.337,6.337,0,0,0-1.188,4.267v21.58h-8.412v-32.8Z"/><path class="cls-1" d="M183.724,11.583v3.84h.122a8.541,8.541,0,0,1,3.475-3.566,10.286,10.286,0,0,1,4.877-1.127,8.305,8.305,0,0,1,6.188,2.194q2.162,2.194,2.164,7.132V44.379h-8.413V21.763a5.621,5.621,0,0,0-.854-3.566,3.413,3.413,0,0,0-2.743-1.006q-4.451,0-4.45,5.426V44.379h-8.413v-32.8Z"/><path class="cls-1" d="M54.833,249.481c-10.378,0-19.205-1.409-26.235-4.188a35.214,35.214,0,0,1-17.211-14.563c-4.169-6.7-7.147-15.491-8.851-26.119A248.924,248.924,0,0,1,0,166.159c0-11.829.4-23.308,1.2-34.118h0a93.81,93.81,0,0,1,6.59-29.375,47.545,47.545,0,0,1,16.5-20.834c7.357-5.209,17.632-7.851,30.541-7.851,10.553,0,19.438,1.537,26.407,4.569a37.423,37.423,0,0,1,17.039,14.9c4.169,6.706,7.147,15.494,8.851,26.119a249,249,0,0,1,2.535,38.451c0,11.779-.4,23.258-1.2,34.118a94,94,0,0,1-6.589,29.375,45.29,45.29,0,0,1-16.533,20.5C77.986,246.967,67.722,249.481,54.833,249.481Zm0-172.125c-12.2,0-21.814,2.433-28.59,7.23A44.219,44.219,0,0,0,10.9,103.97a90.46,90.46,0,0,0-6.337,28.318h0c-.792,10.729-1.193,22.124-1.193,33.87a245.641,245.641,0,0,0,2.492,37.917c1.632,10.183,4.454,18.55,8.385,24.871a31.91,31.91,0,0,0,15.585,13.207c6.634,2.623,15.044,3.952,25,3.952,12.2,0,21.834-2.32,28.621-6.895a41.972,41.972,0,0,0,15.307-19A90.649,90.649,0,0,0,105.1,191.89c.792-10.777,1.193-22.173,1.193-33.87A245.712,245.712,0,0,0,103.8,120.1c-1.633-10.18-4.454-18.548-8.385-24.871a34.11,34.11,0,0,0-15.52-13.588C73.352,78.8,64.92,77.356,54.833,77.356ZM2.885,132.165h0ZM54.833,227.7a19.175,19.175,0,0,1-9.965-2.395c-2.723-1.634-4.9-4.624-6.462-8.886-1.483-4.034-2.523-9.58-3.09-16.481h0c-.56-6.766-.844-15.633-.844-26.353V155.148c0-10.875.284-20.1.843-27.419a84.87,84.87,0,0,1,2.943-17.966c1.452-4.7,3.542-8.129,6.21-10.177a16.645,16.645,0,0,1,10.364-3.1,19.164,19.164,0,0,1,9.965,2.4c2.72,1.631,4.894,4.621,6.461,8.884,1.479,4.029,2.519,9.574,3.09,16.482.56,6.812.844,15.678.844,26.353v18.434c0,10.833-.284,20.058-.843,27.419a85.254,85.254,0,0,1-2.942,17.964c-1.458,4.714-3.548,8.139-6.212,10.179A16.619,16.619,0,0,1,54.833,227.7Zm0-127.837a13.381,13.381,0,0,0-8.312,2.406c-2.1,1.612-3.8,4.471-5.039,8.494a81.69,81.69,0,0,0-2.8,17.226c-.553,7.235-.833,16.374-.833,27.163V173.58c0,10.628.28,19.4.832,26.075h0c.542,6.6,1.516,11.846,2.895,15.6,1.292,3.521,2.985,5.928,5.03,7.156a15.9,15.9,0,0,0,8.229,1.914,13.359,13.359,0,0,0,8.309-2.4c2.1-1.607,3.794-4.465,5.041-8.5a82.035,82.035,0,0,0,2.8-17.225c.553-7.275.833-16.415.833-27.163V150.6c0-10.583-.28-19.356-.832-26.076-.546-6.6-1.52-11.852-2.895-15.6C66.8,105.406,65.1,103,63.062,101.774A15.884,15.884,0,0,0,54.833,99.859Z"/><path class="cls-1" d="M158.848,218.228q3.708,7.781,14.962,7.78,6.222,0,9.935-2.154a15.031,15.031,0,0,0,5.745-5.865,23.957,23.957,0,0,0,2.634-8.738,89.642,89.642,0,0,0,.6-10.533,67.972,67.972,0,0,0-.838-10.893,26.473,26.473,0,0,0-3.232-9.217,17.439,17.439,0,0,0-6.7-6.464q-4.309-2.389-11.491-2.394H158.967v-22.5h11.252a17.331,17.331,0,0,0,9.216-2.274,17.891,17.891,0,0,0,5.985-5.984,27.841,27.841,0,0,0,3.352-8.5,45.693,45.693,0,0,0,1.077-10.055q0-12.208-4.07-17.236t-12.448-5.027a17.6,17.6,0,0,0-8.977,2.035,13.878,13.878,0,0,0-5.387,5.745,25.42,25.42,0,0,0-2.514,8.738,93.37,93.37,0,0,0-.6,11.012h-31.6q0-25.371,12.688-37.7t37.106-12.329q23.217,0,36.028,10.533t12.808,33.037q0,15.322-6.823,25.017a30.128,30.128,0,0,1-19.032,12.328v.479q16.518,2.637,23.341,13.286t6.822,26.692a76.729,76.729,0,0,1-2.154,17.715,39.626,39.626,0,0,1-8.379,16.519q-6.227,7.422-17.116,11.97t-28.607,4.549q-24.659,0-36.866-13.406t-12.209-38.063V195.6H154.9Q155.133,210.451,158.848,218.228Z"/></g></svg>