<svg xmlns="http://www.w3.org/2000/svg" width="542.057" height="175.385" viewBox="0 0 542.057 175.385"><defs><style>.cls-1{fill:#fff;}.cls-2{fill:#323232;}.cls-3,.cls-4{fill:none;stroke-linecap:round;stroke-linejoin:round;stroke-width:3.6px;}.cls-3{stroke:#323232;}.cls-4{stroke:#fff;}</style></defs><title>アートボード 28</title><g id="main"><path class="cls-1" d="M61.286,20.275H22.118v25.8H58.982V64.205H22.118V93.7h40.7v18.125H0V2.151H61.286Z"/><path class="cls-2" d="M138.238,2.151V20.275H99.07v25.8h36.864V64.205H99.07v47.616H76.952V2.151Z"/><path class="cls-3" d="M212.426,2.151V20.275H173.258v25.8h36.864V64.205H173.258v47.616H151.14V2.151Z"/><path class="cls-2" d="M224.176,34.022a50.909,50.909,0,0,1,5.069-18.048,28.392,28.392,0,0,1,11.29-11.75Q247.907,0,260.349,0t19.814,4.225a28.392,28.392,0,0,1,11.29,11.75,50.9,50.9,0,0,1,5.069,18.048,211.822,211.822,0,0,1,1.152,22.964,211.22,211.22,0,0,1-1.152,23.04A50.738,50.738,0,0,1,291.453,98a26.94,26.94,0,0,1-11.29,11.521q-7.373,3.992-19.814,3.993t-19.814-3.993A26.94,26.94,0,0,1,229.245,98a50.748,50.748,0,0,1-5.069-17.971,211.22,211.22,0,0,1-1.152-23.04A211.822,211.822,0,0,1,224.176,34.022ZM245.68,75.8a52.194,52.194,0,0,0,2.15,12.6,13.987,13.987,0,0,0,4.608,7.065,15.159,15.159,0,0,0,15.821,0,13.99,13.99,0,0,0,4.608-7.065,52.314,52.314,0,0,0,2.15-12.6q.536-7.753.538-18.815t-.538-18.739a53.289,53.289,0,0,0-2.15-12.6,14.025,14.025,0,0,0-4.608-7.142,15.159,15.159,0,0,0-15.821,0,14.021,14.021,0,0,0-4.608,7.142,53.164,53.164,0,0,0-2.15,12.6q-.541,7.682-.538,18.739T245.68,75.8Z"/><path class="cls-2" d="M351.587,2.151q13.824,0,21.5,6.988t7.681,21.273q0,11.06-4.455,18.048t-13.823,8.986v.307q8.294,1.232,12.134,5.376t4.762,13.363q.306,3.075.461,6.682t.308,8.064q.3,8.755.921,13.363.921,4.607,3.994,6.3v.922H361.11a11.855,11.855,0,0,1-2.15-5.3,58.937,58.937,0,0,1-.614-6.221l-.614-21.044q-.311-6.451-3.226-10.138t-9.831-3.686H332.848v46.387H310.729V2.151Zm-9.523,47.923q7.985,0,12.288-3.764t4.3-12.672q0-15.207-15.359-15.206H332.848V50.074Z"/><path class="cls-4" d="M460.336,20.275H436.374v91.546H414.256V20.275H390.294V2.151h70.042Z"/><path class="cls-2" d="M487.676,80.794a36.546,36.546,0,0,0,.614,6.989,12.172,12.172,0,0,0,2.3,5.3,11.315,11.315,0,0,0,4.531,3.379,18.019,18.019,0,0,0,7.143,1.229,14.126,14.126,0,0,0,9.139-3.3q4.068-3.3,4.07-10.215a18.33,18.33,0,0,0-1-6.374,12.621,12.621,0,0,0-3.3-4.838,23.432,23.432,0,0,0-6.066-3.917,87.436,87.436,0,0,0-9.293-3.609,79.35,79.35,0,0,1-12.749-5.377,34.281,34.281,0,0,1-8.986-6.835,24.443,24.443,0,0,1-5.3-9.062,38.112,38.112,0,0,1-1.689-11.9q0-16.28,9.063-24.27T501.039,0a54.075,54.075,0,0,1,13.594,1.613,28.505,28.505,0,0,1,10.752,5.223,24.46,24.46,0,0,1,7.066,9.216,32.461,32.461,0,0,1,2.534,13.439v3.072h-21.2q0-7.834-2.765-12.058t-9.216-4.224a15.379,15.379,0,0,0-6.145,1.075,10.35,10.35,0,0,0-3.916,2.842,9.757,9.757,0,0,0-2,4.07,20.791,20.791,0,0,0-.538,4.762,15.834,15.834,0,0,0,2.15,8.524q2.15,3.456,9.217,6.374L517.628,51.3a52.387,52.387,0,0,1,10.292,5.76,28.153,28.153,0,0,1,6.374,6.451,21.538,21.538,0,0,1,3.3,7.6,42.573,42.573,0,0,1,.921,9.216q0,17.36-10.061,25.268t-28.032,7.91q-18.741,0-26.8-8.141t-8.064-23.348V77.568h22.118Z"/><path class="cls-2" d="M284.809,147.771a.985.985,0,0,1-.538.5,38.536,38.536,0,0,1-5.108,8.834c1.882,1.267,5.3,3.8,6.261,4.531l-2.151,3c-1-1.037-2.918-2.8-4.608-4.263v14.939h-3.61V161.79a35.087,35.087,0,0,1-5.262,4.263,15.02,15.02,0,0,0-1.843-3.38,32.769,32.769,0,0,0,11.905-12.789h-10.83v-3.342h6.029v-7.22l4.494.269c-.039.308-.27.538-.884.653v6.3h3.188l.576-.153ZM296.1,170.584h8.757v3.61H282.888v-3.61h9.486V155.26h-7.911v-3.572h7.911v-12.06l4.647.308c-.038.308-.308.538-.922.614v11.138h7.873v3.572H296.1Z"/><path class="cls-2" d="M343.795,145.889v25c0,4.264-2.035,4.456-9.294,4.456a14.57,14.57,0,0,0-1.229-3.649c1.536.077,3.073.077,4.264.077h1.689c.729,0,.96-.23.96-.922V149.422H329.508a29.579,29.579,0,0,1-.537,4.378,110.682,110.682,0,0,1,10.408,10.37l-3.034,2.381a89.926,89.926,0,0,0-8.488-9.179,20.587,20.587,0,0,1-9.141,9.947,14.474,14.474,0,0,0-2.611-2.727c8.065-4.225,9.447-10.255,9.678-15.171h-9.87v25.963h-3.648v-29.5h13.558v-6.567l4.646.23c-.038.346-.307.576-.921.691v5.646Z"/><path class="cls-2" d="M371.863,147.425a1.03,1.03,0,0,1-1.037.614c-1.5,12.6-5.415,21.546-11.867,21.546-3.726,0-6.722-3.418-6.722-9.717,0-9.524,7.489-16.976,17.437-16.976,11.022,0,16.208,6.722,16.208,14.633,0,9.1-4.955,13.635-14.441,15.978a25.284,25.284,0,0,0-2.419-3.265c8.795-1.729,12.789-5.953,12.789-12.6,0-6.26-4.147-11.176-12.175-11.176-.538,0-1.037.038-1.574.076Zm-4.916-.653a13.121,13.121,0,0,0-10.984,12.981c0,3.648,1.345,6.03,3.111,6.03C363.221,165.784,366.14,156.528,366.947,146.772Z"/><path class="cls-2" d="M412.222,144.429h-3.3V175.27h-3.572V167.9c-4.263.807-8.487,1.536-11.33,2a.784.784,0,0,1-.576.614l-1.344-4.071,3.3-.422V144.429h-3.149V141.05h19.972Zm-6.875,4.647v-4.647h-6.49v4.647Zm0,7.988v-4.724h-6.49v4.724Zm-6.49,3.265v5.224c2.073-.269,4.263-.576,6.49-.884v-4.34Zm26-15.785,2.228.769a1.666,1.666,0,0,1-.385.614c-.921,7.758-2.842,14.057-5.722,19.088a21.353,21.353,0,0,0,7.527,7.3,14.922,14.922,0,0,0-2.573,3,23.58,23.58,0,0,1-7.105-6.951,28.362,28.362,0,0,1-7.45,6.951,12.948,12.948,0,0,0-2.42-2.957,22.711,22.711,0,0,0,7.758-7.566,59.637,59.637,0,0,1-4.916-15.67l3.265-.614a54.956,54.956,0,0,0,3.764,12.6,45.188,45.188,0,0,0,3.918-12.866H410.878V144.7h13.365Z"/><path class="cls-2" d="M436.49,162.1a29.655,29.655,0,0,1-1.036-7.8,71.582,71.582,0,0,1,1.19-12.175l4.954.729c-.115.5-.576.614-1.037.691a55.271,55.271,0,0,0-1.344,10.677,12.236,12.236,0,0,0,.076,1.345A53.3,53.3,0,0,1,442.252,150a20.013,20.013,0,0,0,1.843,2.42c-2.228,3.533-3.917,6.413-3.917,8.026a5.31,5.31,0,0,0,.115,1.037Zm21.393-20.97c-.038.461-.346.729-1,.884.307,3.188.652,8.526.652,13.173,0,7.451-2.534,14.287-14.44,19.2a25.272,25.272,0,0,0-2.727-3.072c10.522-4.032,13.02-10.293,13.02-16.054a138.2,138.2,0,0,0-.922-14.364Z"/><path class="cls-2" d="M470.589,162.6c-.115.346-.423.461-.845.422a33.022,33.022,0,0,1-2.381,9.18,20.356,20.356,0,0,0-2.612-1.268c1.037-2.151,1.729-5.8,2.151-9.18Zm8.181-1.69a18.331,18.331,0,0,0-.653-1.882l-3.533.192v16.092h-3.226v-15.9c-1.959.077-3.726.192-5.146.23a.731.731,0,0,1-.653.538l-.768-3.764,2.957-.039c.691-.845,1.421-1.8,2.15-2.8a33.878,33.878,0,0,0-4.877-5.491l1.767-2.458,1,.883a54.311,54.311,0,0,0,3.342-7.182l3.764,1.536a.962.962,0,0,1-.922.384,63.56,63.56,0,0,1-4.109,7.3,28.927,28.927,0,0,1,1.92,2.267,67.541,67.541,0,0,0,4.148-6.99l3.61,1.69a1.08,1.08,0,0,1-.961.384,102.388,102.388,0,0,1-7.45,10.446l5.646-.115c-.614-1.152-1.306-2.3-2-3.341l2.611-1.229a32.262,32.262,0,0,1,4.225,7.835Zm-.423.691a37.626,37.626,0,0,1,2.5,7.221c-.807.269-1.613.576-2.919,1a39.162,39.162,0,0,0-2.343-7.335Zm20.049,9.294h2.727v3.3H478.539v-3.3H482.3V141.166H498.4Zm-3.649-26.423h-8.91v6.49h8.91Zm0,16.361v-6.568h-8.91v6.568Zm-8.91,3.3v6.759h8.91v-6.759Z"/><path class="cls-2" d="M538.869,150.575a1.119,1.119,0,0,1-1.151.729c-.423,2.381-1.037,5.185-1.69,7.566,1.882.807,4.033,1.8,6.03,2.8l-1.651,3.687q-2.881-1.5-5.531-2.765c-1.8,5.223-4.378,9.141-8.219,11.714a18.048,18.048,0,0,0-3.111-2.189c3.765-2.458,6.184-5.991,7.835-11.1a36.272,36.272,0,0,0-8.833-2.535c-2.535,8.8-4.8,11.868-9.909,11.868-4.147,0-5.838-2.957-5.838-6.491,0-6.029,6.3-8.986,12.866-8.986a84.282,84.282,0,0,0,1.844-9.717c-1.8.153-7.259.576-10.178.768a1.654,1.654,0,0,1-.922.576l-.384-4.147c3.726-.115,10.677-.576,12.674-.769a1.894,1.894,0,0,0,.922-.461l3.149,1.69a2.031,2.031,0,0,1-.96.652c-.614,3.8-1.575,8.449-2.381,11.676a37.326,37.326,0,0,1,8.948,2.343,58.819,58.819,0,0,0,1.574-7.988Zm-20.048,7.6c-4.839.077-8.564,2.189-8.564,5.684,0,1.844.883,3.111,2.381,3.111C515.326,166.974,516.786,165.4,518.821,158.179Z"/></g></svg>