<svg xmlns="http://www.w3.org/2000/svg" width="31.1" height="47.3" viewBox="0 0 31.1 47.3">  <title>アセット 5</title>  <g id="レイヤー_2" data-name="レイヤー 2">    <g id="main">      <path d="M.48,14.18A21.21,21.21,0,0,1,2.59,6.66a11.82,11.82,0,0,1,4.7-4.9A16.6,16.6,0,0,1,15.55,0a16.6,16.6,0,0,1,8.26,1.76,11.83,11.83,0,0,1,4.7,4.9,21.19,21.19,0,0,1,2.11,7.52,88.18,88.18,0,0,1,.48,9.57,87.92,87.92,0,0,1-.48,9.6,21.13,21.13,0,0,1-2.11,7.49,11.23,11.23,0,0,1-4.7,4.8,17.39,17.39,0,0,1-8.26,1.66A17.39,17.39,0,0,1,7.3,45.63a11.22,11.22,0,0,1-4.7-4.8A21.15,21.15,0,0,1,.48,33.34,87.94,87.94,0,0,1,0,23.74,88.19,88.19,0,0,1,.48,14.18Zm9,17.41a21.75,21.75,0,0,0,.9,5.25,5.82,5.82,0,0,0,1.92,2.94,5.39,5.39,0,0,0,3.3.93,5.39,5.39,0,0,0,3.3-.93,5.83,5.83,0,0,0,1.92-2.94,21.76,21.76,0,0,0,.9-5.25q.22-3.23.22-7.84t-.22-7.81a22.17,22.17,0,0,0-.9-5.25,5.85,5.85,0,0,0-1.92-3,5.39,5.39,0,0,0-3.3-.93,5.39,5.39,0,0,0-3.3.93,5.84,5.84,0,0,0-1.92,3,22.16,22.16,0,0,0-.9,5.25q-.23,3.2-.22,7.81T9.44,31.58Z" style="fill: #323232"/>    </g>  </g></svg>