<svg xmlns="http://www.w3.org/2000/svg" viewBox="0 0 192.41 38.34"><defs><style>.cls-1{isolation:isolate;}.cls-2{fill:#fff;}</style></defs><title>img_footer</title><g id="レイヤー_2" data-name="レイヤー 2"><g id="bg"><g class="cls-1"><path class="cls-2" d="M42.57,6.58H52.78V9H49.21V23H46.15V9H42.57Z"/><path class="cls-2" d="M60.87,11.57c0-1.46-.11-2.91-1.79-2.91-1,0-1.68.42-1.68,1.53s.79,1.73,1.75,2.34a28.48,28.48,0,0,1,3.72,2.69,4.28,4.28,0,0,1,1.38,3.43c0,3.1-2.05,4.72-5.05,4.72-3.67,0-5-2.05-5-5v-1.2h3.06v1c-.07,1.6.42,2.75,1.92,2.75A1.7,1.7,0,0,0,61.09,19a2.48,2.48,0,0,0-1.23-2.17C58.27,15.58,56.28,14.68,55,13a4.55,4.55,0,0,1-.79-2.51c0-2.8,1.57-4.33,4.81-4.33,4.88,0,4.75,3.76,4.77,5.38Z"/><path class="cls-2" d="M74.12,6.58h3.06V18c0,3.63-1.18,5.36-5.18,5.36S66.77,21.65,66.77,18V6.58h3.06V17.76c0,1.57.11,3.15,2.19,3.15s2.1-1.57,2.1-3.15Z"/><path class="cls-2" d="M89.84,17.15c0,.31,0,.63-.07.94-.15,3-1.16,5.29-4.57,5.29-5,0-5.36-3.19-5.36-7.57V13.48c.13-4.18.46-7.28,5.36-7.28,2.73,0,4.26,1.44,4.48,4.25a8,8,0,0,1,.06,1.25h-3c-.13-1.05,0-3-1.53-3C82.8,8.66,83,11.53,83,12.8v4.55c0,1.35.11,3.56,2.21,3.56,1.68,0,1.49-2.71,1.55-3.76Z"/><path class="cls-2" d="M92.73,23V6.58h3.06v6.5h4.29V6.58h3.06V23h-3.06v-7.5H95.79V23Z"/><path class="cls-2" d="M106.55,23V6.58h3.06V23Z"/><path class="cls-2" d="M116.89,10.9a11,11,0,0,1,.72,2.51h0a14,14,0,0,1,1-3.11l1.46-3.72h3.35L119.15,16v7h-3.06V16l-4.26-9.43h3.35Z"/><path class="cls-2" d="M123,23,127,6.58h4.13L134.8,23h-3.28l-.81-4.15h-3.59L126.32,23Zm4.57-6.56h2.62l-.83-4.66c-.15-.77-.22-1.51-.31-2.28,0-.37-.07-.75-.11-1.1h0c0,.35-.09.72-.11,1.1-.09.77-.15,1.51-.31,2.28Z"/><path class="cls-2" d="M151.32,17.15c0,.31,0,.63-.06.94-.15,3-1.16,5.29-4.57,5.29-5,0-5.36-3.19-5.36-7.56V13.48c.13-4.18.46-7.29,5.36-7.29,2.73,0,4.26,1.44,4.48,4.25a8,8,0,0,1,.07,1.25h-3c-.13-1.05,0-3-1.53-3-2.41,0-2.21,2.87-2.21,4.13v4.55c0,1.36.11,3.56,2.21,3.56,1.68,0,1.49-2.71,1.55-3.76Z"/><path class="cls-2" d="M152.48,23l3.92-16.4h4.13L164.24,23H161l-.81-4.15h-3.59L155.76,23Zm4.57-6.56h2.62l-.83-4.66c-.15-.77-.22-1.51-.31-2.28,0-.37-.07-.75-.11-1.09h0c0,.35-.09.72-.11,1.09-.09.77-.15,1.51-.31,2.28Z"/><path class="cls-2" d="M169,15.92V23h-3.06V6.59h5.79c2.65,0,4.66.92,4.66,3.94,0,1.79-.46,3.67-2.51,4v0c1.81.24,2.36,1.4,2.36,3,0,.68-.09,4.7.66,5.18V23h-3.37a16.49,16.49,0,0,1-.33-4.15c0-1,0-2.38-1-2.69a9.38,9.38,0,0,0-2.6-.22Zm0-2.4h2.4c1-.07,1.79-.72,1.79-2.36,0-1.84-.77-2.14-1.92-2.17H169Z"/><path class="cls-2" d="M177.87,11.51c.94-.13,1.47-.74,1.4-2.08h-1.4V6.59h2.65v2.6c0,1.95-.61,3-2.65,3.32Z"/><path class="cls-2" d="M189,11.57c0-1.46-.11-2.91-1.79-2.91-1,0-1.68.42-1.68,1.53s.79,1.73,1.75,2.34A28.21,28.21,0,0,1,191,15.23a4.28,4.28,0,0,1,1.38,3.43c0,3.1-2.06,4.72-5.05,4.72-3.67,0-5-2.06-5-5v-1.2h3.06v1c-.07,1.6.42,2.75,1.92,2.75a1.7,1.7,0,0,0,1.9-1.92A2.48,2.48,0,0,0,188,16.82c-1.59-1.25-3.59-2.14-4.83-3.78a4.55,4.55,0,0,1-.79-2.51c0-2.8,1.57-4.33,4.81-4.33,4.88,0,4.74,3.76,4.77,5.38Z"/><path class="cls-2" d="M43.13,26.93h3.15v.74h-1.1V32h-.94V27.67H43.13Z"/><path class="cls-2" d="M46.8,29.06c0-1.29.14-2.25,1.65-2.25s1.61,1,1.65,2.25v.72c0,1.35-.1,2.33-1.65,2.33s-1.65-1-1.65-2.33Zm1,1.19c0,.42,0,1.1.68,1.1s.68-.69.68-1.18V28.87c0-.41,0-1.3-.68-1.3s-.68.88-.68,1.27Z"/><path class="cls-2" d="M50.62,26.93h3.15v.74h-1.1V32h-.94V27.67H50.62Z"/><path class="cls-2" d="M53.94,32l1.21-5.06h1.27L57.57,32h-1l-.25-1.28H55.21L55,32Zm1.41-2h.81l-.26-1.44c0-.24-.07-.47-.09-.7s0-.23,0-.34h0c0,.11,0,.22,0,.34s0,.47-.09.7Z"/><path class="cls-2" d="M58.09,32V26.93H59v4.32h1.75V32Z"/><path class="cls-2" d="M66.15,30.19l0,.29c0,.92-.36,1.63-1.41,1.63-1.55,0-1.65-1-1.65-2.33v-.72c0-1.29.14-2.25,1.65-2.25a1.27,1.27,0,0,1,1.38,1.31,2.33,2.33,0,0,1,0,.38h-.93c0-.32,0-.93-.47-.93-.74,0-.68.88-.68,1.27v1.4c0,.42,0,1.1.68,1.1s.46-.84.48-1.16Z"/><path class="cls-2" d="M66.51,32l1.21-5.06H69L70.13,32h-1l-.25-1.28H67.77L67.52,32Zm1.41-2h.81l-.26-1.44c0-.24-.07-.47-.09-.7s0-.23,0-.34h0c0,.11,0,.22,0,.34s0,.47-.09.7Z"/><path class="cls-2" d="M71.59,29.81V32h-.94V26.93h1.79c.82,0,1.44.28,1.44,1.21,0,.55-.14,1.13-.77,1.22h0c.56.07.73.43.73.92,0,.21,0,1.45.2,1.6V32H73a5.12,5.12,0,0,1-.1-1.28c0-.31,0-.73-.32-.83a2.89,2.89,0,0,0-.8-.07Zm0-.74h.74c.31,0,.55-.22.55-.73s-.24-.66-.59-.67h-.7Z"/><path class="cls-2" d="M76.46,32V26.93h.94v4.32h1.75V32Z"/><path class="cls-2" d="M79.84,32V26.93h.94V32Z"/><path class="cls-2" d="M81.75,32V26.93h2.68v.74H82.69V29h1.62v.74H82.69V32Z"/><path class="cls-2" d="M85.06,32V26.93h2.66v.74H86v1.27h1.58v.74H86v1.56h1.71V32Z"/><path class="cls-2" d="M90.17,32V26.93h2a1.17,1.17,0,0,1,1,.57,3.55,3.55,0,0,1,.28,1.75c0,1,0,2.15-.77,2.6a1.39,1.39,0,0,1-.7.14Zm1.36-.74c.84,0,.9-.45.9-1.91,0-1.19-.12-1.67-.69-1.67h-.62v3.57Z"/><path class="cls-2" d="M94.24,32V26.93H96.9v.74H95.18v1.27h1.58v.74H95.18v1.56H96.9V32Z"/><path class="cls-2" d="M97.24,32l1.21-5.06h1.27L100.87,32h-1l-.25-1.28H98.5L98.25,32Zm1.41-2h.81l-.26-1.44c0-.24-.07-.47-.09-.7s0-.23,0-.34h0c0,.11,0,.22,0,.34s0,.47-.09.7Z"/><path class="cls-2" d="M101.39,32V26.93h.94v4.32h1.75V32Z"/><path class="cls-2" d="M104.74,32V26.93h2.66v.74h-1.71v1.27h1.58v.74h-1.58v1.56h1.71V32Z"/><path class="cls-2" d="M109.07,29.81V32h-.94V26.93h1.79c.82,0,1.44.28,1.44,1.21,0,.55-.14,1.13-.78,1.22h0c.56.07.73.43.73.92,0,.21,0,1.45.2,1.6V32h-1a5,5,0,0,1-.1-1.28c0-.31,0-.73-.32-.83a2.9,2.9,0,0,0-.8-.07Zm0-.74h.74c.31,0,.55-.22.55-.73s-.24-.66-.59-.67h-.7Z"/><path class="cls-2" d="M115.88,28.47c0-.45,0-.9-.55-.9-.32,0-.52.13-.52.47s.24.53.54.72a8.57,8.57,0,0,1,1.15.83,1.32,1.32,0,0,1,.42,1.06,1.39,1.39,0,0,1-1.56,1.46,1.36,1.36,0,0,1-1.54-1.54V30.2h.94v.3c0,.49.13.85.59.85a.52.52,0,0,0,.59-.59.77.77,0,0,0-.38-.67,7.42,7.42,0,0,1-1.49-1.17,1.4,1.4,0,0,1-.24-.78c0-.86.49-1.34,1.48-1.34,1.5,0,1.46,1.16,1.47,1.66Z"/><path class="cls-2" d="M117.7,32V26.93h.94V32Z"/><path class="cls-2" d="M121.83,26.93h.94V32h-1l-.74-1.8a17.14,17.14,0,0,1-.67-2h0c0,.42.07.93.1,1.44s0,1,0,1.42v1h-.94V26.93h1l.74,1.84a16.88,16.88,0,0,1,.67,2h0c0-.46-.07-1-.09-1.44s0-1,0-1.42Z"/><path class="cls-2" d="M126.69,30.19l0,.29c0,.92-.36,1.63-1.41,1.63-1.55,0-1.65-1-1.65-2.33v-.72c0-1.29.14-2.25,1.65-2.25a1.27,1.27,0,0,1,1.38,1.31,2.59,2.59,0,0,1,0,.38h-.93c0-.32,0-.93-.47-.93-.74,0-.68.88-.68,1.27v1.4c0,.42,0,1.1.68,1.1s.46-.84.48-1.16Z"/><path class="cls-2" d="M127.42,32V26.93h2.66v.74h-1.71v1.27h1.58v.74h-1.58v1.56h1.71V32Z"/><path class="cls-2" d="M133.48,28.48h-1.14v-.67c.65,0,1.2-.18,1.39-.88h.7V32h-.95Z"/><path class="cls-2" d="M138,30c0,1.61-.46,2-1.46,2-.74,0-1.28-.34-1.25-1.14h.88c0,.17,0,.42.41.4s.48-.64.49-.94v-.32a.87.87,0,0,1-.74.34c-.8,0-1.15-.55-1.15-1.58,0-1.27.31-1.92,1.4-1.92s1.42.73,1.41,1.92Zm-1.43-2.39c-.49,0-.44.47-.44,1.11,0,.36,0,.91.46.91s.47-.49.47-.91C137,28.14,137.05,27.6,136.55,27.65Z"/><path class="cls-2" d="M138.54,29c0-1.61.47-2,1.46-2,.74,0,1.28.34,1.25,1.14h-.88c0-.17,0-.42-.41-.4s-.48.64-.5.94v.32a.86.86,0,0,1,.74-.34c.8,0,1.14.55,1.14,1.59,0,1.27-.3,1.92-1.4,1.92s-1.43-.73-1.42-1.92ZM140,31.35c.49,0,.44-.47.44-1.11,0-.36,0-.91-.46-.91s-.46.49-.46.91C139.48,30.86,139.46,31.4,140,31.35Z"/><path class="cls-2" d="M144.72,30c0,1.61-.46,2-1.46,2-.74,0-1.28-.34-1.25-1.14h.88c0,.17,0,.42.41.4s.48-.64.49-.94v-.32a.87.87,0,0,1-.74.34c-.8,0-1.15-.55-1.15-1.58,0-1.27.31-1.92,1.4-1.92s1.42.73,1.41,1.92Zm-1.43-2.39c-.49,0-.44.47-.44,1.11,0,.36,0,.91.46.91s.47-.49.47-.91C143.79,28.14,143.8,27.6,143.29,27.65Z"/><path class="cls-2" d="M2.57,9.59a19.17,19.17,0,1,0,26.19-7A19.17,19.17,0,0,0,2.57,9.59ZM26.7,6.13a15,15,0,0,1,4.13,3.51L23.7,13.75a7.19,7.19,0,0,0-1-.7,7.07,7.07,0,0,0-8.22.84L7.39,9.8A15.06,15.06,0,0,1,26.7,6.13ZM17,22.94a4.35,4.35,0,1,1,5.94-1.59A4.35,4.35,0,0,1,17,22.94ZM5.09,13.84,12.21,18a7.08,7.08,0,0,0,4.73,7.92v8.19A15.07,15.07,0,0,1,5.09,13.84ZM32.21,26.7A15,15,0,0,1,21.6,34V25.8a7.06,7.06,0,0,0,4.48-8.13l0,.06,7.07-4.08A15,15,0,0,1,32.21,26.7Z"/></g></g></g></svg>