<svg xmlns="http://www.w3.org/2000/svg" xmlns:xlink="http://www.w3.org/1999/xlink" viewBox="0 0 159.8 159.8"><style type="text/css">.st0{fill:#FFFFFF;}</style><g id="logo_header02"><path class="st0" d="M10.7,39.9c-22.1,38.2-9,87,29.2,109.1s87.1,9,109.1-29.2c22.1-38.2,9-87-29.2-109.1C81.7-11.4,32.8,1.7,10.7,39.9z M111.3,25.5c6.8,3.9,12.5,8.9,17.2,14.6L98.8,57.2c-1.3-1.1-2.7-2.1-4.2-2.9c-11.3-6.5-25.1-4.7-34.3,3.5L30.7,40.7C49.8,16.8,84,9.7,111.3,25.5z M70.9,95.5c-8.7-5-11.6-16.1-6.6-24.8c4.9-8.6,16-11.6,24.7-6.6s11.6,16.1,6.6,24.8C90.6,97.5,79.5,100.5,70.9,95.5z M21.2,57.6l29.7,17.1c-2.1,11.8,3.3,24.2,14.3,30.6c1.8,1,3.6,1.8,5.4,2.4v34.1c-7.6-1.1-15.1-3.7-22.1-7.7C21.5,118.5,10.5,85.9,21.2,57.6z M134.3,111.2c-9.8,16.9-26.3,27.6-44.2,30.5v-34.3c6.3-2.3,11.8-6.7,15.4-12.9c3.8-6.6,4.8-14.1,3.3-21l0.2,0.3l29.4-17C145,74,144.2,93.9,134.3,111.2z"/></g></svg>