<svg xmlns="http://www.w3.org/2000/svg" viewBox="0 0 51.72 51.72"><defs><style>.cls-1{fill:#323232}.cls-2{fill:#b8d200}</style></defs><title>アセット 2</title><g id="レイヤー_2" data-name="レイヤー 2"><g id="BLOG_main_No.06"><circle class="cls-1" cx="25.86" cy="25.86" r="25.86"/><path class="cls-2" d="M9.26 16.28a19.17 19.17 0 1 0 26.19-7 19.17 19.17 0 0 0-26.19 7zm24.13-3.46a15 15 0 0 1 4.13 3.51l-7.13 4.12a7.19 7.19 0 0 0-1-.7 7.07 7.07 0 0 0-8.22.84l-7.09-4.09a15.06 15.06 0 0 1 19.31-3.68zm-9.71 16.81A4.35 4.35 0 1 1 29.63 28a4.35 4.35 0 0 1-5.95 1.63zm-11.91-9.1l7.12 4.11a7.08 7.08 0 0 0 4.73 7.92v8.19a15.07 15.07 0 0 1-11.85-20.22zM38.9 33.39a15 15 0 0 1-10.61 7.33v-8.23a7.06 7.06 0 0 0 4.48-8.13v.06l7.07-4.08a15 15 0 0 1-.94 13.05z"/></g></g></svg>