<svg xmlns="http://www.w3.org/2000/svg" width="176.638" height="35.201" viewBox="0 0 176.638 35.201"><defs><style>.cls-1{fill:#fff}</style></defs><title>img_footer_logo</title><g id="レイヤー_2" data-name="レイヤー 2"><path class="cls-1" d="M39.079 6.045h9.374v2.21h-3.272V21.1h-2.81V8.255h-3.292zm16.802 4.579c.019-1.344-.1-2.671-1.646-2.671-.943 0-1.545.381-1.545 1.407 0 1.144.723 1.586 1.605 2.147a26.142 26.142 0 0 1 3.413 2.47 3.931 3.931 0 0 1 1.264 3.151c0 2.85-1.886 4.335-4.637 4.335-3.372 0-4.576-1.886-4.576-4.576v-1.1h2.81v.884c-.06 1.465.381 2.528 1.766 2.528a1.557 1.557 0 0 0 1.747-1.765 2.28 2.28 0 0 0-1.125-1.988c-1.464-1.145-3.291-1.968-4.436-3.474a4.178 4.178 0 0 1-.721-2.31c0-2.572 1.445-3.978 4.416-3.978 4.477 0 4.356 3.455 4.376 4.941zm12.165-4.579h2.811v10.5c0 3.333-1.085 4.918-4.758 4.918-3.714 0-4.8-1.585-4.8-4.918v-10.5h2.81v10.261c0 1.445.1 2.89 2.007 2.89 1.826 0 1.927-1.444 1.927-2.89zm14.434 9.699l-.06.862c-.141 2.751-1.064 4.858-4.2 4.858-4.617 0-4.917-2.931-4.917-6.945v-2.148c.12-3.835.421-6.688 4.917-6.688 2.51.041 3.915 1.326 4.116 3.9a7.326 7.326 0 0 1 .059 1.145h-2.77c-.12-.964-.019-2.771-1.405-2.771-2.208 0-2.027 2.632-2.027 3.8v4.176c0 1.243.1 3.27 2.027 3.27 1.546 0 1.365-2.489 1.425-3.452zm2.65 5.356V6.045h2.81v5.965h3.935V6.045h2.81V21.1h-2.81v-6.882H87.94V21.1zm12.686 0V6.045h2.811V21.1zm9.496-11.1a10.076 10.076 0 0 1 .662 2.309h.041a12.82 12.82 0 0 1 .923-2.851l1.344-3.416h3.072L109.38 14.7v6.4h-2.81v-6.4l-3.915-8.654h3.071zm5.641 11.1l3.593-15.057h3.794l3.413 15.057h-3.012L120 17.29h-3.292l-.742 3.813zm4.195-6.021h2.408l-.762-4.275c-.14-.7-.2-1.386-.281-2.089-.02-.342-.06-.684-.1-1.006h-.039c-.04.321-.08.663-.1 1.006-.079.7-.14 1.385-.28 2.089zm21.77.665l-.059.863c-.141 2.751-1.065 4.858-4.2 4.858-4.618 0-4.919-2.931-4.919-6.945v-2.148c.12-3.836.422-6.688 4.919-6.688 2.509.04 3.914 1.326 4.115 3.9a7.3 7.3 0 0 1 .06 1.144h-2.771c-.12-.964-.02-2.77-1.4-2.77-2.209 0-2.028 2.631-2.028 3.8v4.175c0 1.245.1 3.271 2.028 3.271 1.545 0 1.364-2.489 1.425-3.452zm1.063 5.356l3.594-15.057h3.794l3.413 15.057h-3.012l-.742-3.814h-3.292l-.742 3.814zm4.2-6.021h2.409l-.762-4.275c-.14-.7-.2-1.386-.28-2.089-.021-.342-.06-.684-.1-1.005h-.04a14.8 14.8 0 0 0-.1 1.005c-.079.7-.139 1.385-.28 2.089zm10.959-.46V21.1h-2.811V6.046h5.319c2.429 0 4.276.843 4.276 3.616 0 1.646-.421 3.373-2.309 3.634v.039c1.666.22 2.168 1.284 2.168 2.729 0 .623-.079 4.316.6 4.758v.278h-3.091a15.133 15.133 0 0 1-.3-3.814c-.019-.923 0-2.189-.964-2.469a8.61 8.61 0 0 0-2.388-.2zm0-2.207h2.207c.924-.06 1.646-.662 1.646-2.168 0-1.687-.7-1.969-1.766-1.989h-2.087zm8.15-1.847c.862-.12 1.345-.683 1.284-1.907h-1.284V6.046h2.429v2.391c0 1.787-.562 2.751-2.429 3.052zm10.258.059c.02-1.343-.1-2.669-1.646-2.669-.943 0-1.546.381-1.546 1.406 0 1.144.723 1.586 1.605 2.148a25.9 25.9 0 0 1 3.413 2.469 3.927 3.927 0 0 1 1.265 3.151c0 2.85-1.887 4.336-4.638 4.336-3.372 0-4.574-1.887-4.574-4.576v-1.1h2.809v.883c-.06 1.465.382 2.528 1.765 2.528a1.558 1.558 0 0 0 1.748-1.765 2.28 2.28 0 0 0-1.126-1.988c-1.464-1.145-3.291-1.967-4.435-3.473a4.178 4.178 0 0 1-.723-2.309c0-2.572 1.445-3.978 4.416-3.978 4.476 0 4.356 3.456 4.375 4.94zM39.594 24.723h2.892v.677h-1.01v3.963h-.866V25.4h-1.016zm3.37 1.95c.037-1.182.13-2.062 1.517-2.062s1.48.88 1.516 2.062v.662c0 1.239-.093 2.143-1.516 2.143s-1.517-.9-1.517-2.143zm.891 1.1c0 .384.031 1.01.626 1.01.619 0 .625-.638.625-1.083v-1.193c0-.372.019-1.2-.625-1.2-.681 0-.626.811-.626 1.17zm2.62-3.05h2.892v.677h-1.01v3.963h-.866V25.4h-1.016zm3.048 4.644l1.109-4.644H51.8l1.053 4.644h-.929L51.7 28.19h-1.019l-.231 1.177zm1.293-1.858h.743l-.235-1.319c-.044-.217-.063-.428-.086-.645a4.525 4.525 0 0 0-.032-.308h-.012c-.012.1-.025.2-.031.308-.025.217-.044.429-.086.645zm2.516 1.858v-4.644h.868v3.963h1.61v.682zm7.394-1.654l-.018.267c-.044.849-.329 1.5-1.295 1.5-1.425 0-1.517-.9-1.517-2.143v-.662c.038-1.182.13-2.062 1.517-2.062a1.162 1.162 0 0 1 1.269 1.2 2.145 2.145 0 0 1 .019.353h-.855c-.038-.3-.006-.854-.434-.854-.681 0-.625.811-.625 1.17v1.288c0 .384.031 1.01.625 1.01.477 0 .421-.768.44-1.065zm.329 1.654l1.109-4.644h1.17l1.052 4.644h-.929l-.229-1.177h-1.016l-.229 1.177zm1.294-1.858h.743l-.236-1.319c-.043-.217-.062-.428-.087-.645a6.295 6.295 0 0 0-.031-.308h-.012c-.012.1-.024.2-.03.308-.026.217-.044.429-.087.645zm3.37-.142v2h-.867v-4.644h1.641c.749 0 1.318.26 1.318 1.115 0 .508-.13 1.041-.711 1.12v.012c.514.069.668.4.668.843 0 .192-.025 1.331.186 1.467v.087H67a4.707 4.707 0 0 1-.092-1.177c-.006-.284 0-.675-.3-.762a2.653 2.653 0 0 0-.737-.062zm0-.681h.681c.284-.019.507-.2.507-.668 0-.521-.216-.608-.544-.614h-.644zm4.481 2.681v-4.644h.866v3.963h1.611v.682zm3.1 0v-4.644h.867v4.644zm1.745 0v-4.644H77.5v.677h-1.587v1.18H77.4v.682h-1.487v2.105zm3.041 0v-4.644h2.44v.677h-1.573v1.17H80.4v.681h-1.45v1.43h1.573v.682zm4.696 0v-4.644h1.807a1.074 1.074 0 0 1 .9.526 3.26 3.26 0 0 1 .254 1.6c0 .915 0 1.975-.711 2.39a1.277 1.277 0 0 1-.644.124zm1.244-.682c.774 0 .823-.409.823-1.752 0-1.1-.111-1.529-.631-1.529h-.569v3.281zm2.49.682v-4.644h2.44v.677h-1.574v1.17h1.45v.681h-1.45v1.43h1.574v.682zm2.756 0l1.109-4.644h1.17l1.049 4.644h-.928l-.229-1.177H90.43l-.23 1.177zm1.293-1.858h.744l-.235-1.319c-.043-.217-.062-.428-.086-.645a4.525 4.525 0 0 0-.032-.308h-.012c-.012.1-.024.2-.03.308-.025.217-.044.429-.087.645zm2.516 1.858v-4.644h.867v3.963h1.609v.682zm3.072 0v-4.644h2.441v.677h-1.575v1.17h1.45v.681h-1.45v1.43h1.574v.682zm3.976-2v2h-.867v-4.644h1.638c.749 0 1.319.26 1.319 1.115 0 .508-.13 1.041-.712 1.12v.012c.515.069.669.4.669.843 0 .192-.025 1.331.185 1.467v.087h-.952a4.614 4.614 0 0 1-.094-1.177c-.006-.284 0-.675-.3-.762a2.659 2.659 0 0 0-.737-.062zm0-.681h.682c.284-.019.507-.2.507-.668 0-.521-.216-.608-.545-.614h-.644zm6.248-.551c.006-.415-.031-.823-.508-.823-.291 0-.476.116-.476.433 0 .353.221.489.495.663a7.864 7.864 0 0 1 1.053.762 1.209 1.209 0 0 1 .39.972 1.275 1.275 0 0 1-1.431 1.337 1.25 1.25 0 0 1-1.411-1.412v-.34h.866V28c-.018.453.118.781.545.781a.48.48 0 0 0 .539-.544.7.7 0 0 0-.347-.613 6.812 6.812 0 0 1-1.368-1.072 1.285 1.285 0 0 1-.223-.712c0-.792.446-1.226 1.363-1.226 1.38 0 1.343 1.065 1.35 1.523zm1.68 3.232v-4.644h.867v4.644zm3.79-4.644h.867v4.644h-.9l-.676-1.654a15.744 15.744 0 0 1-.618-1.845h-.02c.032.384.069.855.093 1.326s.044.928.044 1.3v.872h-.866v-4.643h.9l.676 1.691a15.5 15.5 0 0 1 .618 1.845h.013c-.031-.421-.062-.873-.086-1.319s-.044-.892-.044-1.307zm4.453 2.99l-.018.267c-.043.849-.329 1.5-1.3 1.5-1.423 0-1.516-.9-1.516-2.142v-.663c.036-1.182.13-2.062 1.516-2.062a1.163 1.163 0 0 1 1.271 1.2 2.388 2.388 0 0 1 .018.353h-.855c-.036-.3-.005-.854-.434-.854-.68 0-.625.811-.625 1.17v1.288c0 .384.031 1.01.625 1.01.478 0 .422-.768.44-1.065zm.675 1.654v-4.644h2.44v.677h-1.573v1.17h1.448v.681h-1.448v1.43h1.573v.682zm5.566-3.22H121.5v-.619c.6-.006 1.1-.167 1.276-.805h.639v4.644h-.868zm4.127 1.436c0 1.481-.421 1.876-1.337 1.876-.683 0-1.171-.31-1.147-1.046h.805c.006.154.025.384.378.365.489 0 .44-.588.453-.867v-.3a.8.8 0 0 1-.682.309c-.738 0-1.053-.5-1.053-1.455 0-1.164.285-1.765 1.289-1.765 1.035 0 1.307.675 1.295 1.765zm-1.313-2.2c-.453.006-.4.428-.4 1.022 0 .334-.044.837.421.837.429 0 .429-.453.429-.837.003-.574.015-1.063-.451-1.02zm1.827 1.197c0-1.48.428-1.876 1.343-1.876.682 0 1.171.31 1.146 1.046h-.8c-.007-.155-.019-.39-.373-.365-.489.037-.445.588-.458.867v.3a.794.794 0 0 1 .681-.31c.738 0 1.047.5 1.047 1.456 0 1.164-.279 1.764-1.282 1.764-1.034 0-1.312-.674-1.3-1.764zm1.312 2.2c.452-.006.4-.427.4-1.022 0-.335.044-.835-.421-.835-.426 0-.426.452-.426.835-.004.575-.016 1.064.447 1.021zm4.368-1.197c0 1.481-.422 1.876-1.338 1.876-.682 0-1.171-.31-1.146-1.046h.805c.006.154.024.384.377.365.489 0 .44-.588.452-.867v-.3a.8.8 0 0 1-.681.309c-.737 0-1.052-.5-1.052-1.455 0-1.164.286-1.765 1.288-1.765 1.034 0 1.307.675 1.295 1.765zm-1.312-2.2c-.453.006-.4.428-.4 1.022 0 .334-.043.837.421.837.428 0 .428-.453.428-.837.001-.574.013-1.063-.45-1.02zM2.36 8.8A17.6 17.6 0 1 0 26.4 2.36 17.6 17.6 0 0 0 2.36 8.8zm22.154-3.171A13.782 13.782 0 0 1 28.3 8.847l-6.543 3.778a6.594 6.594 0 0 0-.916-.642 6.491 6.491 0 0 0-7.55.768L6.783 8.992a13.827 13.827 0 0 1 17.731-3.363zM15.6 21.06a3.994 3.994 0 1 1 5.461-1.46 4 4 0 0 1-5.461 1.46zM4.671 12.709l6.539 3.775a6.5 6.5 0 0 0 4.345 7.271v7.518A13.831 13.831 0 0 1 4.671 12.709zm24.9 11.8a13.8 13.8 0 0 1-9.742 6.731v-7.55a6.483 6.483 0 0 0 4.109-7.467l.037.059 6.487-3.744a13.8 13.8 0 0 1-.889 11.974z" id="letter"/></g></svg>