<svg xmlns="http://www.w3.org/2000/svg" viewBox="0 0 99.46 18.61"><defs><style>.cls-1{fill:#abcd05}.cls-2{fill:#fff}</style></defs><title>アセット 4</title><g id="レイヤー_2" data-name="レイヤー 2"><g id="search_letter" data-name="search letter"><path class="cls-1" d="M0 0h99.46v18.61H0z"/><path class="cls-2" d="M11.92 3.68H14v11.25h-2.17l-1.63-4a38.09 38.09 0 0 1-1.5-4.47c.07.93.17 2.07.22 3.21S9 11.91 9 12.81v2.11H6.89V3.68h2.18l1.63 4.09a37.52 37.52 0 0 1 1.5 4.47c-.08-1-.15-2.11-.21-3.19s-.1-2.16-.1-3.16zM16 14.93V3.68h5.91v1.65H18.1v2.83h3.51v1.65H18.1v3.46h3.81v1.65zM30.79 9.5c.21 1.13.31 2.56.46 4 0-.27 0-.54.08-.81.07-1 .16-1.92.31-2.88l.84-6.13h2.17L32.6 14.93h-2.52l-.84-4.44c-.24-1.19-.3-2.39-.45-3.59-.15 1.2-.22 2.4-.45 3.58l-.75 4.44H25L22.9 3.68h2.18L26 9.81c.15 1 .24 1.92.31 2.88 0 .27 0 .54.06.81.17-1.44.27-2.88.48-4l1-5.82h1.74zm8.13 5.43L41.6 3.68h2.83L47 14.93h-2.26l-.55-2.85h-2.47l-.56 2.85zm3.14-4.5h1.8l-.57-3.19c-.1-.52-.15-1-.21-1.56 0-.26 0-.51-.08-.75 0 .24-.06.49-.08.75-.06.52-.1 1-.21 1.56zm8.15-.35v4.84h-2.1V3.68h4c1.82 0 3.19.63 3.19 2.7 0 1.23-.31 2.52-1.72 2.71 1.25.17 1.62 1 1.62 2 0 .46-.06 3.22.45 3.55v.21h-2.33A11.4 11.4 0 0 1 53.1 12c0-.69 0-1.63-.72-1.84a6.44 6.44 0 0 0-1.79-.15zm0-1.65h1.65c.69 0 1.23-.5 1.23-1.62s-.53-1.47-1.32-1.48h-1.56zm9.17 1.65v4.84h-2.1V3.68h4c1.81 0 3.19.63 3.19 2.7 0 1.23-.32 2.52-1.73 2.71 1.25.17 1.62 1 1.62 2 0 .46-.06 3.22.45 3.55v.21h-2.33a11.36 11.36 0 0 1-.23-2.85c0-.69 0-1.63-.72-1.84a6.44 6.44 0 0 0-1.79-.15zm0-1.65H61c.69 0 1.23-.5 1.23-1.62s-.52-1.47-1.32-1.48h-1.53zm7.11 6.5V3.68h2.1v11.25zm8.92-11.25h2.25l-2.43 11.25h-2.8L69.94 3.68h2.25l1.32 7.21c.12.63.2 1.27.26 1.92 0 .3.09.61.09.93 0-.31.06-.63.09-.93.06-.65.14-1.29.26-1.92zm2.69 11.25l2.68-11.25h2.83l2.55 11.25h-2.24l-.55-2.85H80.9l-.56 2.85zm3.14-4.5H83l-.57-3.19c-.1-.52-.15-1-.21-1.56 0-.26 0-.51-.08-.75 0 .24-.06.49-.08.75-.06.52-.1 1-.21 1.56zm6.08 4.5V3.68h2.1v9.6h3.9v1.65z"/></g></g></svg>