<svg xmlns="http://www.w3.org/2000/svg" viewBox="0 0 74.05 79.14"><defs><style>.cls-1{fill:#323232}.cls-2,.cls-4{fill:none;stroke-linecap:round;stroke-linejoin:round}.cls-2{stroke:#323232;stroke-width:.4px}.cls-3{fill:#fff}.cls-4{stroke:#fff;stroke-width:1.5px}</style></defs><title>img_message01</title><g id="レイヤー_2" data-name="レイヤー 2"><g id="main"><path class="cls-1" d="M6.38.26l1.9 9.42L10.24.26h4V13.6h-2.48V3L9.35 13.6h-2.1L4.88 3v10.6h-2.5V.26z"/><path class="cls-2" d="M24 2.47h-4.79V5.6h4.48v2.2h-4.48v3.6h5v2.2h-7.69V.26H24z"/><path class="cls-1" d="M28.42 9.83a4.41 4.41 0 0 0 .07.85 1.48 1.48 0 0 0 .28.64 1.38 1.38 0 0 0 .55.41 2.19 2.19 0 0 0 .87.15 1.72 1.72 0 0 0 1.11-.4 1.51 1.51 0 0 0 .5-1.24 2.23 2.23 0 0 0-.12-.78 1.53 1.53 0 0 0-.4-.59 2.87 2.87 0 0 0-.74-.48A10.62 10.62 0 0 0 29.41 8a9.6 9.6 0 0 1-1.55-.65 4.17 4.17 0 0 1-1.09-.83 3 3 0 0 1-.64-1.1 4.64 4.64 0 0 1-.21-1.45A3.73 3.73 0 0 1 27 1a4.42 4.42 0 0 1 3-1 6.6 6.6 0 0 1 1.7.2 3.47 3.47 0 0 1 1.3.63A3 3 0 0 1 33.86 2a3.94 3.94 0 0 1 .31 1.63V4h-2.58a2.68 2.68 0 0 0-.34-1.47A1.24 1.24 0 0 0 30.14 2a1.87 1.87 0 0 0-.75.13 1.27 1.27 0 0 0-.48.35 1.19 1.19 0 0 0-.24.49 2.53 2.53 0 0 0-.07.58 1.92 1.92 0 0 0 .26 1 2.34 2.34 0 0 0 1.14.79l2.07.9a6.38 6.38 0 0 1 1.25.7 3.43 3.43 0 0 1 .78.78 2.62 2.62 0 0 1 .4.92 5.17 5.17 0 0 1 .11 1.12 3.67 3.67 0 0 1-1.22 3.07 5.39 5.39 0 0 1-3.41 1 4.47 4.47 0 0 1-3.26-1 3.86 3.86 0 0 1-1-2.84v-.56h2.69z"/><path class="cls-3" d="M38.49 9.83a4.41 4.41 0 0 0 .07.85 1.48 1.48 0 0 0 .28.64 1.38 1.38 0 0 0 .55.41 2.19 2.19 0 0 0 .87.15 1.72 1.72 0 0 0 1.11-.4 1.51 1.51 0 0 0 .5-1.24 2.23 2.23 0 0 0-.12-.78 1.53 1.53 0 0 0-.4-.59 2.87 2.87 0 0 0-.74-.48A10.62 10.62 0 0 0 39.48 8a9.6 9.6 0 0 1-1.55-.65 4.17 4.17 0 0 1-1.09-.83 3 3 0 0 1-.64-1.1 4.64 4.64 0 0 1-.2-1.5 3.73 3.73 0 0 1 1.1-3 4.42 4.42 0 0 1 3-1 6.6 6.6 0 0 1 1.65.2 3.47 3.47 0 0 1 1.31.64A3 3 0 0 1 43.93 2a3.94 3.94 0 0 1 .31 1.63V4h-2.58a2.68 2.68 0 0 0-.34-1.47A1.24 1.24 0 0 0 40.21 2a1.87 1.87 0 0 0-.75.13 1.27 1.27 0 0 0-.48.35 1.19 1.19 0 0 0-.24.49 2.53 2.53 0 0 0-.07.58 1.92 1.92 0 0 0 .26 1 2.34 2.34 0 0 0 1.12.77l2.07.9a6.38 6.38 0 0 1 1.25.7 3.43 3.43 0 0 1 .78.78 2.62 2.62 0 0 1 .4.92 5.17 5.17 0 0 1 .11 1.12 3.67 3.67 0 0 1-1.22 3.07 5.39 5.39 0 0 1-3.41 1 4.47 4.47 0 0 1-3.26-1 3.86 3.86 0 0 1-1-2.84v-.54h2.69z"/><path class="cls-1" d="M51.94.26l3.53 13.34h-2.8L52 10.78h-3.5l-.62 2.82h-2.8L48.61.26zm-.35 8.31l-1.29-6-1.3 6zm10.27-5.11a2.5 2.5 0 0 0-.27-.72 1.75 1.75 0 0 0-.48-.54 1.14 1.14 0 0 0-.7-.21A1.46 1.46 0 0 0 59 3.06a10.64 10.64 0 0 0-.43 3.59q0 1.2.07 2.17a8.38 8.38 0 0 0 .27 1.65 2.38 2.38 0 0 0 .56 1 1.28 1.28 0 0 0 .94.36 1.31 1.31 0 0 0 .53-.13 1.76 1.76 0 0 0 .54-.39 2.12 2.12 0 0 0 .42-.66 2.43 2.43 0 0 0 .17-.94V8.39h-1.75v-2h4.35v7.21h-2v-1.23a2.84 2.84 0 0 1-1.17 1.11 3.75 3.75 0 0 1-1.63.33 4.12 4.12 0 0 1-2-.43A2.93 2.93 0 0 1 56.63 12 6.79 6.79 0 0 1 56 9.83a27.43 27.43 0 0 1-.15-3.05 17.85 17.85 0 0 1 .21-3 5.9 5.9 0 0 1 .74-2.12A3.37 3.37 0 0 1 58.23.43 4.78 4.78 0 0 1 60.38 0a4.06 4.06 0 0 1 3.18 1.09 4.56 4.56 0 0 1 1 3.13h-2.61a3.65 3.65 0 0 0-.09-.76z"/><path class="cls-3" d="M73.87 2.47H69.1V5.6h4.48v2.2H69.1v3.6h5v2.2h-7.69V.26h7.45z"/><path class="cls-4" d="M1.15 39.65A30.71 30.71 0 0 1 3.32 30a15.3 15.3 0 0 1 5.33-6.74q3.57-2.53 9.9-2.53a21.72 21.72 0 0 1 8.62 1.48A11.93 11.93 0 0 1 32.63 27a23.06 23.06 0 0 1 2.89 8.54 82.46 82.46 0 0 1 .84 12.79q0 5.94-.4 11.39a30.78 30.78 0 0 1-2.17 9.66A14.55 14.55 0 0 1 28.46 76q-3.57 2.41-9.9 2.41A23.49 23.49 0 0 1 10 77a11.19 11.19 0 0 1-5.49-4.65 23 23 0 0 1-2.89-8.54A82.44 82.44 0 0 1 .75 51q0-5.89.4-11.35zm11.43 22.66a21.13 21.13 0 0 0 1 5.37 5 5 0 0 0 1.92 2.69 5.84 5.84 0 0 0 3 .72 5 5 0 0 0 3.13-.92A6.07 6.07 0 0 0 23.57 67a27.89 27.89 0 0 0 1-5.89q.28-3.69.28-9.14v-6.14q0-5.37-.28-8.78a21.22 21.22 0 0 0-1-5.37A5 5 0 0 0 21.6 29a5.85 5.85 0 0 0-3-.72 5 5 0 0 0-3.13.92 6.08 6.08 0 0 0-1.88 3.13 27.73 27.73 0 0 0-1 5.89q-.28 3.69-.28 9.14v6.17q-.01 5.37.27 8.78z"/><path class="cls-1" d="M54 37.41H42.69v-7.54h1q5.77 0 9.1-2.17a10 10 0 0 0 4.21-7h8.5v56.81H54z"/></g></g></svg>