<svg xmlns="http://www.w3.org/2000/svg" viewBox="0 0 69.33 36.51"><defs><style>.cls-1,.cls-3{fill:#fff}.cls-2{fill:#b8d200}.cls-3{stroke:#b8d200;stroke-miterlimit:10;stroke-width:1.14px}</style></defs><title>img_story_car02</title><g id="レイヤー_2" data-name="レイヤー 2"><g id="創業期"><path class="cls-1" d="M13.59 29.54h49.88L58.49 0H17.25l-3.66 29.54z"/><path class="cls-1" d="M3.04 29.54h66.05l-.91-17.63H4.23L3.04 29.54z"/><circle class="cls-1" cx="52.43" cy="28.62" r="6.82"/><path class="cls-2" d="M52.43 22.87a5.75 5.75 0 1 1-5.75 5.75 5.75 5.75 0 0 1 5.75-5.75m0-2.14a7.89 7.89 0 1 0 7.89 7.89 7.9 7.9 0 0 0-7.89-7.89z"/><circle class="cls-1" cx="17.84" cy="28.62" r="6.82"/><path class="cls-2" d="M17.84 22.87a5.75 5.75 0 1 1-5.75 5.75 5.75 5.75 0 0 1 5.75-5.75m0-2.14a7.89 7.89 0 1 0 7.89 7.89 7.84 7.84 0 0 0-7.89-7.89z"/><path class="cls-3" d="M.6 22.49l5.14-2.01v-3.61L.82 15.5.6 22.49zm68.12-.16l-2.8-.85v-4.61l2.47-.84.33 6.3z"/><path class="cls-2" d="M38.71 10.08l.16-5.69H19.65l-.6 5.69h19.66zm18.14 0l-1.09-5.69H41.41l-.1 5.69h15.54z"/></g></g></svg>