<svg xmlns="http://www.w3.org/2000/svg" width="388.873" height="513.428" viewBox="0 0 388.873 513.428"><defs><style>.cls-1{fill:#abcd03}</style></defs><title>shop_info</title><g id="レイヤー_2" data-name="レイヤー 2"><path class="cls-1" d="M45.515 195.864c.434-2.282 1.214-7.85 1.214-9.047s-.989-4.909-.225-4.909a25.475 25.475 0 0 0 5.9-1.953c.755-.562 5.11-5.785 5.11-6.669a12.122 12.122 0 0 0-1.2-4.234c-.426-.443-5.552-5.585-5.552-6.774 0-1.205.755-7.633.1-8.614s-3.487-2.941-4.25-4.25a31.253 31.253 0 0 1-2.394-6.548c0-.763 4.338-4.379 4.338-5.351-.2-2.852-.875-9.256-.875-14.31a59.908 59.908 0 0 1 1.888-15.09c1.261-4.9 1.518-7.987-.394-12.832C47.283 90.471 39.457 75.3 37.416 73.2s-4.539-3.552-5.431-5.432c-.917-1.888-2.941-9.064-4-10.566-1.061-1.518-2.868-2.258-2.868-3.929a16.966 16.966 0 0 0-1.72-6.1c-.843-1.6-1.607-2.579-1.221-3.93.378-1.366.53-13.739-.45-15.234-.988-1.519-8.155-8.252-9.064-10.5S8.531 6.948 8.531 5.06 10.636.777 11.616.086c.98-.675 4.74 2.716 5.881 6.26s3.616 10.4 5.439 12.751 17.87 15.917 19.991 20.674c2.1 4.756 2.853 9.8 4.291 10.71s9.064 6.115 10.63 6.195c1.583.065 5.665-.08 6.042 1.961.369 2.025-1.27 7.24-.964 7.843.29.61 14.631 9.585 16.432 11.691s4.524 4.917 5.657 4.981c1.149.081 7.014-1.735 8.147-.747s3.632 3.841 5.3 4.877c1.632 1.069 5.649 2.8 6.476 3.8.828.964 6.412 5.038 7.995 5.262 1.591.241 3.311-2.627 4.982-2.33 1.655.305 11.386 3.777 12.365 4.965.981 1.214 5.063 10.429 7.175 11.016 2.105.61 3.913.932 5.8.169s13.731-7.545 16.68-7.255c2.941.305 7.842 3.712 9.055 3.632 1.2-.072 12.229-8.75 14.343-8.75s9.256 4.6 12.212 4.227c2.933-.394 7.32-3.544 8.911-5.673 1.567-2.1 7.24-8.372 10.02-9.585s11.466-3.913 13.434-3.913c1.952 0 3.174.675 5.279.153s9.361-3.174 10.494-4.6c1.133-1.446.828-2.949 2.411-2.571s8.895 6.862 11.458 7.93c2.571 1.045 5.062 1.567 3.109 0-1.969-1.607-4.677-4.917-4.756-7.7-.072-2.8-.072-2.652 1.044-2.652 1.149 0 2.427-3.013 3.544-5.954 1.149-2.933 2.426-6.195 3.037-5.889s7.457 7.472 12.808 10.63c5.367 3.173 10.951 6.869 11.642 7.994.659 1.149 1.567 2.724 1.952 2.571a1.036 1.036 0 0 1 1.2.467c.305.442.089 1.052 1.438 1.494a8.383 8.383 0 0 1 3.7 3.166c.827 1.293 8.219 15.925 9.585 16.471 1.35.514 20.207 3.913 24.056 7.995 3.857 4.058 10.2 19.75 12.3 21.719 2.114 1.952 28.227 21.116 29.649 21.188a54.877 54.877 0 0 0 9.666-1.045c.779-.321.916-.627.98-.747.892.16 1.961.361 2.635.442.691.072 2.258.595 2.258 1.35s1.061.916.458 1.221-1.35.819-.981 1.061c.386.217 1.736 1.583 1.278 1.952s-.522 1.366.153 2.635c.683 1.286.763 1.888.152 2.194a2.859 2.859 0 0 0-1.2 2.483c.072 1.061 1.431 1.519.892 1.968-.522.443-1.494.072-1.872.764-.386.675-.908 2.853-.081 4.066s.522 1.285-.916.827-2.338-1.366-3.238-1.422c-.908-.081-2.258.225-2.258-.538s-.088-1.952-.828-1.952c-.763 0-1.366-3.712-3.254-4.082-1.872-.378-9.8.369-16.913 3.326-7.063 2.932-13.941 5.5-15.387 5.648-1.414.169-3.977.305-5.045-.595s-1.888-3.777-4.066-3.849c-2.194-.08-16.447-.144-43.075 22.49-26.644 22.626-47.92 44.955-60.374 75.512-12.438 30.556-8.823 59.53-6.107 60.88s6.8 8.388 5.431 10.863a41.9 41.9 0 0 0-4 10.044c-.6 3.166-1.278 10.477-.675 11.016.61.522 1.205.522 1.438 1.2.217.691-.072 1.133-.072 2.113s-.233 2.258.072 2.885c.305.587.908.587.217 1.655-.675 1.044-2.564 2.932-2.5 3.543.088.6.546.828-.065 1.736a22.972 22.972 0 0 0-2.177 6.412c-.081 1.438.892 3.7.369 4a2.823 2.823 0 0 0-1.5 1.5c-.3.828-1.278 1.431-1.583 2.274-.305.811-2.426 5.262-3.777 5.262-1.366 0-3.848-1.43-5.439-1.277s-2.563.378-3.085 1.743a7.671 7.671 0 0 1-2.347 3.165c-1.061.908-3.47 3.391-3.47 4.894s-1.873 4.676-1.873 6.195a2.7 2.7 0 0 1-1.6 2.868c-1.189.595-1.647-.442-2.249 0s-1.672 2.644-1.672 1.205 1.214-2.338.755-3.777-.6-2.708-3-2.78c-2.426-.088-3.117.828-3.182 1.5s-1.655 1.052-1.655 2.194c0 1.125-.153 2.1.458 2.025s-.089.305-1.133.53c-1.061.225-.764.467-1.519.916s-1.88.057-2.025.378c-.16.281-.386 1.952-1.061 1.278s.819-1.961.369-2.346-1.72-.981-2.177-.531-.531.836-1.366.836.225-1.2-1.2-1.061c-1.438.152-2.04-.522-2.04 0s.675 1.285-.386 1.285-1.494-.45-1.791-.225-1.76.442-.844 1.719c.908 1.294.973 1.214-.225 1.608-1.214.369-3.407.755-3.841 2.04-.458 1.278.972 1.5.3 2.178-.691.675-1.214 1.671-1.969 1.277-.747-.369-3.165-1.349-4-.9s-3.085.378-4.227 1.293c-1.125.892-1.036 1.72-1.952 1.567-.908-.137-.3-.61-1.061-1.5-.755-.908-2.346-1.2-1.5-2.347.828-1.133 0-3.543-.755-3.543a3.27 3.27 0 0 0-2.8 1.735c-.442 1.205-.369 2.347-1.133 1.808-.739-.522-1.044-1.044-1.8-.892s-1.069-.916-2.571-.916-1.888.16-3.471.16-2.411-.378-2.411.434c0 .843-.072 2.129-.98 2.2s-3.326-2.4-4.741-2.355c-1.455.089-5.367 2.732-7.392 4.685-2.05 1.976-3.56 4.547-3.254 5.52s.538 1.285 0 1.88a2.687 2.687 0 0 0-.828 1.446c-.153.594 0 1.791-.981 1.88-.98.064-1.285.819-.305 2.025.981 1.221 1.5 1.671.369 1.968s-3.455 1.671-4.451 1.583c-.98-.064-.522 1.205-1.5 1.438-1 .217-1.285.828-.538 1.286s1.59 1.044.386 1.277c-1.2.217-1.888-.755-1.961.072s-.683 2.8-1.061 2.732a11.044 11.044 0 0 0-11.161 1.414c-5.745 4.154-7.312 6.934-8.147 7.328-.836.369-2.185-.137-2.8.449-.6.6-5.8 4.444-9.432 9.047-3.616 4.612-3.616 10.864-3.769 11.627s-1.968 2.041-1.968 2.564a6.176 6.176 0 0 1-1.35 3.623c-1.213 1.59.37 5.431 1.133 7.7s-.61 4.154-.61 5.046c0 .908-1.052 1.655-1.583 2.426-.522.748-1.213.595-1.655 1.5-.458.908-.217 1.285-.675 1.823-.457.522-.6.137-1.285 1.181-.691 1.061-.45.843-1.816 1.366-1.35.522-.595 1.214-1.286 2.266-.675 1.061-1.43.988-2.258 1.752-.828.739-1.961.739-3.326 1.2-1.35.458-1.655.764-1.655 1.285s-.233.755-1.125.755c-.916 0-1.743-.385-2.113 0s-.081.514-1.43.514c-1.374 0-3.247-.594-4.243-.144-.972.442-1.414 2.113-2.025 1.96s-.908-1.285-1.968-1.133c-1.045.153-3.7.611-4.154 0-.442-.6-.675-1.952-1.808-1.582a33.792 33.792 0 0 1-7.32 1.5c-1.976.216-3.318-1.045-5.11-2.394-1.824-1.374-2.587-2.129-2.129-3.5.458-1.35.305-1.961.611-3.006.305-1.061 1.2-4.234-3.921-7.7-5.142-3.471-11.016-6.034-11.771-6.034s-.61.3-1.808.587c-1.214.321-1.976.779-2.129-.29s0-1.061-.9-1.061-3.165.61-2.708-.3 1.5-.458 0-1.358-1.808-.908-1.808-1.671c0-.739 1.2-.145.442-1.479-.739-1.366-.892-1.366-.305-1.976.61-.61-.305-2.113.764-1.664s1.213 1.511 1.647 1.205c.474-.305 2.129.764 2.868.153.764-.6.305-1.655.916-1.2a2 2 0 0 0 1.808.45c.755-.153 1.816-.908 1.968 0 .137.9 1.045 1.511 2.419 1.358a35.833 35.833 0 0 0 7.087-1.663c1.663-.755 4.974.754 4.974-.755a23.823 23.823 0 0 1 .764-4.387s-.917-1.045.449-.892c1.35.137 4.066.61 4.982-.306.892-.9 0 2.571 1.2 3.021 1.214.442 3.777-1.366 3.93-3.173s1.044-10.711-1.519-13.289c-2.563-2.547-2.105.321-2.868-.29-.74-.595-1.2-1.961-2.556-2.868s-1.968-1.358-2.723-.748-1.5.306-3.158-.61c-1.655-.9-3.174-.755-3.021-1.968s.45-1.937 1.213-1.655c.748.305 1.655 1.655 2.4 1.374.755-.322 0 1.037 1.061.145 1.061-.908 2.869-1.664 2.564-2.732-.305-1.044-.458-1.349 0-1.952s-1.655-.152-1.655-1.2c0-1.069 0-3.632-1.061-4.692-1.061-1.044-1.808-1.2-1.35-1.961.442-.755.137-1.205 1.35-2.113 1.213-.892 6.348-2.563 6.348-4.379s-.764-6.79-1.664-6.79c-.916 0-2.273-.434-3.318-.434-1.061 0-.305-.61-.153-1.671.153-1.044-2.563 0-1.213-1.044 1.366-1.077 2.563.434 1.366-1.077-1.214-1.487-2.716-.6-1.214-1.487 1.5-.916 1.672-1.068 1.672-2.282 0-1.2 1.349.305 1.349-1.045s1.511-1.213 1.061-2.418c-.466-1.214-1.366-1.816-.16-1.664 1.205.169 2.274 1.214 1.511-.305-.755-1.5-1.045-.442-1.045-1.808a6.631 6.631 0 0 0-2.129-4.371c-1.35-1.35.152-2.122-1.5-2.716s-3.013-.153-3.013-1.366c0-1.2 1.952-3.768 1.35-4.66-.595-.924-1.205-1.077-1.35-3.945-.152-2.853 0-2.105-.305-3.311s1.2-2.868 1.5-4.082c.3-1.2 2.427-1.952 2.427-3.607 0-1.672 2.249-1.5 4.371-2.716 2.105-1.214 2.563-1.824 2.868-2.588.306-.739 7.087-.739 7.393-5.866s-1.366-11.61-3.326-14.021c-1.961-2.435-4.066-4.089-4.066-5.3 0-1.2-.457-1.655 0-2.258s1.655-1.961 1.2-2.716a19.293 19.293 0 0 0-11.457-8.452c-7.843-2.266-11.474-3.166-12.672-4.074-1.213-.892-2.1-.892-.457-.892s12.068 1.045 12.068-1.366c0-2.426-.748-1.671 0-2.426a2.579 2.579 0 0 1 1.655-.739l.6.45 6.195-3.761-1.205-2.129-2.426.908-1.952-3.463 4.524-5.9 2.868 4.829L35.838 321l-1.226-3.3-4.524-2.563 2.113-4.218 13.129 5.889 3.021.281.908 1.222 1.349-.458-2.563-3.463-.9-2.258 1.808-.474.61 1.068 1.655-.442.755 1.35 2.114-.908-1.5-2.249-1.977.731-.137-.9 4.965-1.792s2.411.595 1.519 0c-.916-.61-2.266-2.435-1.671-2.435s2.732 2.556 2.563.908c-.137-1.655-.137-1.511-1.808-2.4-1.655-.924-2.105.892-2.868-.924s-.748-1.655-.748-3.158c0-1.519-.305-3.174-.908-3.608-.6-.458-.908-3.037-.74-3.937.137-.908-1.823-2.885-.61-3.166 1.2-.305 2.114.3 2.114-1.5 0-1.824 1.952-1.519 3.157-2.563a36.24 36.24 0 0 0 3.488-2.876c.892-1.045 1.349-.016 2.7-.3 1.35-.313 3.326-.916 3.785-.916s2.868.458 2.868.458l.747-5.889 3.768-1.053 1.222 3.335-2.129.892-1.2-1.976-1.061.474 1.2 3.326 6.347-1.976-3-8.605 5.569-2.25 3.47 7.537-1.061.892.305 1.077 3.166-1.671-.747-1.2-.61.3-1.639-4.837 1.2-1.061 1.358 2.426 1.792-.755-1.2-2.563 2.418-1.511a4.636 4.636 0 0 1 3.921 2.4l1.358-.892-1.655-1.961.3-1.061-1.664-1.052L93.467 259l3.021 1.076.458-1.511-1.824-1.655 3.021-4.387 3.165 1.8.611-2.105-2.259-1.655 3.913-6.2 2.258 1.205 1.214-2.1-1.647-1.214s1.35-1.8 1.952-2.844c.61-1.077 1.655.137 2.419-1.214a8.953 8.953 0 0 1 1.349-1.968l6.187 5.142 2.563 1.125 1.374-1.43-1-1.455-1.2.917-1.583-.981 1.728-1.438-.755-1.214-1.655 1-.755-1.366s1.583-1.438 2.627-2.394c1.069-1 7.023 2.475 7.023 2.475l.6-1.214s-6.412-3.085-7.384-3.615-1.9-1.511 0-1.9 11.6-1.205 11.6-1.205l-.064-.892-14.631.072-1.446-7.922 7.778.29 2.411 6.13 1.213.064-1.358-7.095 2.1-1.189-.916-1.446-2.025 1.278-.755-.305.908-3.174-.587-.587-.691.587.217.764-1.414 2.121-4.09-.313 3.326-3.094-.675-.434 1.285-.764-1.14-.755-1.294.908-3.993-3.849-1.423 1.2 2.941 4.09-.917 2.025S91.66 191.18 90.751 190.5c-.892-.659-1.285-.964-2.563-.217s-6.5 1.133-6.5 1.133l-.29-2.177 5.569-.153v-2.04l-5.713.233-.305-2.8 2.025-.378.081-1.358-2.5-1.133 1.454-5.279-1.671-.827-.378 1.655.683.305-.988 2.5s-1.647-.771-2.1-.61a5.4 5.4 0 0 1-1.518.3c-.458 0-4.066.835-4.066.835l-1.74-3.789-.828.836 1.961 3.986-1.655 2.346-1.671-3.173-5.2 3.1-.819 1.205 5.263-.98.386 1.213s-6.107 1.286-7.32 2.556a19.041 19.041 0 0 0-2.33 3.335l7.152 6.613-10.261 6.581-1.8-2.105.908-1.221-.691-.6-1.133 1.061-.828-.522-.892.892 3.463 3.559-3.921 2.563-1.515-4.311-1.735 1.816-5.046-1.664s.072-2.249.072-3.47 2.644-2.78 3.47-3.841a2.307 2.307 0 0 0 .273-.595l-.016-.016" id="letter"/></g></svg>