<svg xmlns="http://www.w3.org/2000/svg" viewBox="0 0 191.16 147.31"><defs><style>.cls-1{fill:#323232;}</style></defs><title>アートボード 16</title><g id="main"><path class="cls-1" d="M1,49.7A77.42,77.42,0,0,1,6.47,25.34a38.56,38.56,0,0,1,13.44-17Q28.9,2,44.86,2,58,2,66.59,5.74a30.06,30.06,0,0,1,13.74,12q5.15,8.29,7.28,21.52a207.85,207.85,0,0,1,2.12,32.23q0,15-1,28.7a77.58,77.58,0,0,1-5.46,24.35,36.67,36.67,0,0,1-13.44,16.67q-9,6.06-25,6.06-12.94,0-21.62-3.44A28.21,28.21,0,0,1,9.4,132.15q-5.15-8.29-7.28-21.52A207.76,207.76,0,0,1,0,78.39Q0,63.44,1,49.7Zm28.8,57.09a53.24,53.24,0,0,0,2.53,13.54q1.82,5,4.85,6.77a14.72,14.72,0,0,0,7.68,1.82,12.6,12.6,0,0,0,7.88-2.32q3-2.32,4.75-7.88a70.3,70.3,0,0,0,2.43-14.85q.71-9.29.71-23V65.26q0-13.54-.71-22.13a53.45,53.45,0,0,0-2.53-13.54q-1.82-4.95-4.85-6.77A14.73,14.73,0,0,0,44.86,21,12.61,12.61,0,0,0,37,23.32q-3,2.33-4.75,7.88a69.94,69.94,0,0,0-2.43,14.85q-.71,9.3-.71,23V84.66Q29.1,98.2,29.81,106.79Z"/><path class="cls-1" d="M145.51,6c13.41,0,23.36,3,29.56,9s9.28,14.52,9.28,26a60.65,60.65,0,0,1-1.13,12,44.8,44.8,0,0,1-3.52,10.48,48.94,48.94,0,0,1-6.36,9.8,96.44,96.44,0,0,1-9.89,10.18l0,0L147.27,98.47a64.82,64.82,0,0,0-10.77,12.19,36.64,36.64,0,0,0-5.18,10.82,4,4,0,0,0,3.88,5h50v14.63h-80a72,72,0,0,1,1.72-12.88,61.56,61.56,0,0,1,5.5-14.8,81.4,81.4,0,0,1,9.44-14A148.87,148.87,0,0,1,135.3,85.36L147,74.49a69.11,69.11,0,0,0,8.22-8.34A37.42,37.42,0,0,0,160.28,58a31.38,31.38,0,0,0,2.44-9,87.56,87.56,0,0,0,.53-10.17c0-19-11.37-21.79-18.15-21.79-4.47,0-8.14,1-10.9,3A18.51,18.51,0,0,0,128,27.65a32.73,32.73,0,0,0-2.55,10.13c-.23,2.27-.38,4.65-.46,7.11H105V43.43c0-12.18,3.21-21.56,9.54-27.89S131.32,6,145.51,6m0-4q-23,0-33.75,10.71T101,43.43v5.46h27.89q0-5.66.5-10.71a28.64,28.64,0,0,1,2.22-8.89,14.5,14.5,0,0,1,4.85-6.06Q139.64,21,145.1,21q14.14,0,14.15,17.79a83.28,83.28,0,0,1-.51,9.7,27.26,27.26,0,0,1-2.12,7.88,33.26,33.26,0,0,1-4.55,7.28,65,65,0,0,1-7.78,7.88L132.57,82.43a152.09,152.09,0,0,0-13.84,14.45,85,85,0,0,0-9.9,14.65A65.25,65.25,0,0,0,103,127.3,78.58,78.58,0,0,0,101,145.08h88.11V122.45h-54a33.16,33.16,0,0,1,4.65-9.6A60.56,60.56,0,0,1,150,101.43l16.17-15a99.91,99.91,0,0,0,10.31-10.61,52.7,52.7,0,0,0,6.87-10.61,48.61,48.61,0,0,0,3.84-11.42A64.36,64.36,0,0,0,188.35,41q0-18.8-10.51-28.9T145.51,2Z"/></g></svg>