<svg xmlns="http://www.w3.org/2000/svg" viewBox="0 0 165.29 149.31"><defs><style>.cls-1{fill:#323232;}</style></defs><title>アートボード 15</title><g id="main"><path class="cls-1" d="M46.86,6C55,6,61.8,7.15,67,9.41A25.92,25.92,0,0,1,78.94,19.88c3.14,5,5.4,11.79,6.72,20a204.93,204.93,0,0,1,2.07,31.6c0,9.81-.34,19.37-1,28.4A74,74,0,0,1,81.57,123a32.46,32.46,0,0,1-12,14.9c-5.3,3.57-12.94,5.38-22.72,5.38-8.08,0-14.86-1.06-20.15-3.16A24.1,24.1,0,0,1,14.79,130c-3.14-5-5.4-11.79-6.72-20A204.79,204.79,0,0,1,6,78.39C6,68.54,6.34,59,7,50a73.8,73.8,0,0,1,5.16-23.1A34.79,34.79,0,0,1,24.22,11.63C29.49,7.89,37.11,6,46.86,6m0,126.92a16.53,16.53,0,0,0,10.31-3.15c2.72-2.08,4.73-5.31,6.14-9.88a73.38,73.38,0,0,0,2.59-15.73c.48-6.28.72-14.13.72-23.34V65.26c0-9.08-.24-16.64-.72-22.46a56.69,56.69,0,0,0-2.76-14.59c-1.53-4.17-3.73-7.13-6.55-8.82A18.7,18.7,0,0,0,46.86,17a16.55,16.55,0,0,0-10.32,3.15c-2.69,2.06-4.75,5.38-6.14,9.87a73,73,0,0,0-2.59,15.73c-.48,6.24-.72,14.1-.72,23.34V84.66c0,9.12.24,16.68.72,22.46a56.49,56.49,0,0,0,2.76,14.59c1.53,4.16,3.73,7.13,6.55,8.82a18.7,18.7,0,0,0,9.74,2.39M46.86,2q-16,0-25,6.37a38.55,38.55,0,0,0-13.44,17A77.4,77.4,0,0,0,3,49.69Q2,63.44,2,78.39a207.78,207.78,0,0,0,2.12,32.23q2.12,13.24,7.28,21.52a28.21,28.21,0,0,0,13.84,11.72q8.69,3.43,21.62,3.44,16,0,25-6.06a36.67,36.67,0,0,0,13.44-16.67,77.58,77.58,0,0,0,5.46-24.35q1-13.74,1-28.7a207.86,207.86,0,0,0-2.12-32.23q-2.12-13.23-7.28-21.52a30.06,30.06,0,0,0-13.74-12Q60,2,46.86,2Zm0,126.92a14.73,14.73,0,0,1-7.68-1.82q-3-1.82-4.85-6.77a53.25,53.25,0,0,1-2.53-13.54q-.71-8.59-.71-22.13V69.1q0-13.74.71-23A69.94,69.94,0,0,1,34.23,31.2q1.71-5.56,4.75-7.88A12.61,12.61,0,0,1,46.86,21a14.74,14.74,0,0,1,7.68,1.82q3,1.82,4.85,6.77a53.42,53.42,0,0,1,2.53,13.54q.71,8.59.71,22.13V80.82q0,13.75-.71,23a70.26,70.26,0,0,1-2.43,14.85q-1.72,5.56-4.75,7.88a12.59,12.59,0,0,1-7.88,2.32Z"/><path class="cls-1" d="M136.19,44h-28.5V25h2.63q14.55,0,22.94-5.46T143.87,2h21.42V145.08h-29.1Z"/></g></svg>