<svg xmlns="http://www.w3.org/2000/svg" width="32.6" height="48.8" viewBox="0 0 32.6 48.8">  <title>アセット 9</title>  <g id="レイヤー_2" data-name="レイヤー 2">    <g id="main">      <path d="M1.23,14.93A21.2,21.2,0,0,1,3.34,7.41,11.82,11.82,0,0,1,8,2.51,16.6,16.6,0,0,1,16.3.75a16.6,16.6,0,0,1,8.26,1.76,11.82,11.82,0,0,1,4.7,4.9,21.2,21.2,0,0,1,2.11,7.52,88.18,88.18,0,0,1,.48,9.57,87.92,87.92,0,0,1-.48,9.6,21.14,21.14,0,0,1-2.11,7.49,11.22,11.22,0,0,1-4.7,4.8A17.39,17.39,0,0,1,16.3,48,17.39,17.39,0,0,1,8,46.38a11.22,11.22,0,0,1-4.7-4.8,21.14,21.14,0,0,1-2.11-7.49,87.93,87.93,0,0,1-.48-9.6A88.19,88.19,0,0,1,1.23,14.93Zm9,17.41a21.73,21.73,0,0,0,.9,5.25A5.82,5.82,0,0,0,13,40.53a5.39,5.39,0,0,0,3.3.93,5.39,5.39,0,0,0,3.3-.93,5.82,5.82,0,0,0,1.92-2.94,21.78,21.78,0,0,0,.9-5.25q.22-3.23.22-7.84t-.22-7.81a22.19,22.19,0,0,0-.9-5.25,5.84,5.84,0,0,0-1.92-3,5.39,5.39,0,0,0-3.3-.93,5.39,5.39,0,0,0-3.3.93,5.84,5.84,0,0,0-1.92,3,22.14,22.14,0,0,0-.9,5.25Q10,19.89,10,24.49T10.19,32.33Z" style="fill: none;stroke: #323232;stroke-linecap: round;stroke-linejoin: round;stroke-width: 1.5px"/>    </g>  </g></svg>