<svg xmlns="http://www.w3.org/2000/svg" width="30.98" height="45.7" viewBox="0 0 30.98 45.7">  <title>アセット 10</title>  <g id="レイヤー_2" data-name="レイヤー 2">    <g id="main">      <path d="M17,0q5.76,0,9,2.91t3.2,8.86a13.78,13.78,0,0,1-1.86,7.52A8.59,8.59,0,0,1,21.57,23v.13a8.36,8.36,0,0,1,5.06,2.24q1.6,1.73,2,5.57.13,1.28.19,2.78t.13,3.36q.13,3.65.38,5.57A3.58,3.58,0,0,0,31,45.31v.38H21a4.94,4.94,0,0,1-.9-2.21,24.65,24.65,0,0,1-.26-2.59l-.26-8.77a7.22,7.22,0,0,0-1.34-4.22q-1.22-1.54-4.1-1.54H9.22V45.7H0V0Zm-4,20a7.54,7.54,0,0,0,5.12-1.57Q20,16.83,20,13.12q0-6.34-6.4-6.34H9.22V20Z" style="fill: #323232"/>    </g>  </g></svg>