<svg xmlns="http://www.w3.org/2000/svg" width="191.159" height="149.308" viewBox="0 0 191.159 149.308"><defs><style>.cls-1{fill:#323232;}</style></defs><title>アートボード 7</title><g id="main"><path class="cls-1" d="M46.865,6C55.025,6,61.8,7.146,66.992,9.406A25.916,25.916,0,0,1,78.935,19.875c3.137,5.046,5.4,11.79,6.723,20.043a204.939,204.939,0,0,1,2.072,31.6c0,9.814-.336,19.371-1,28.4a73.973,73.973,0,0,1-5.156,23.1,32.462,32.462,0,0,1-11.986,14.9c-5.3,3.57-12.941,5.38-22.723,5.38-8.076,0-14.856-1.062-20.154-3.156a24.1,24.1,0,0,1-11.917-10.115c-3.137-5.043-5.4-11.787-6.722-20.044A204.791,204.791,0,0,1,6,78.393c0-9.85.336-19.407,1-28.405a73.8,73.8,0,0,1,5.157-23.1A34.789,34.789,0,0,1,24.218,11.631C29.494,7.895,37.114,6,46.865,6m0,126.917a16.53,16.53,0,0,0,10.314-3.148c2.72-2.083,4.728-5.314,6.139-9.879a73.381,73.381,0,0,0,2.591-15.73c.478-6.28.719-14.133.719-23.342V65.257c0-9.08-.243-16.636-.721-22.461a56.7,56.7,0,0,0-2.758-14.588c-1.53-4.165-3.732-7.133-6.548-8.823A18.7,18.7,0,0,0,46.865,17a16.548,16.548,0,0,0-10.316,3.151c-2.686,2.061-4.75,5.383-6.136,9.874a73.038,73.038,0,0,0-2.591,15.731C27.344,52,27.1,59.852,27.1,69.1V84.657c0,9.119.243,16.675.721,22.456a56.494,56.494,0,0,0,2.757,14.593c1.529,4.164,3.732,7.132,6.548,8.822a18.7,18.7,0,0,0,9.736,2.389M46.865,2Q30.9,2,21.906,8.366A38.554,38.554,0,0,0,8.467,25.343,77.4,77.4,0,0,0,3.01,49.694Q2,63.44,2,78.393a207.781,207.781,0,0,0,2.122,32.233q2.122,13.239,7.275,21.523A28.207,28.207,0,0,0,25.24,143.872q8.687,3.434,21.624,3.436,15.962,0,24.959-6.063a36.673,36.673,0,0,0,13.439-16.673,77.583,77.583,0,0,0,5.457-24.353q1.009-13.742,1.011-28.7a207.856,207.856,0,0,0-2.122-32.234q-2.123-13.233-7.275-21.522A30.059,30.059,0,0,0,68.59,5.739Q60,2,46.865,2Zm0,126.917a14.729,14.729,0,0,1-7.679-1.819q-3.031-1.819-4.851-6.771a53.247,53.247,0,0,1-2.526-13.541Q31.1,98.2,31.1,84.657V69.1q0-13.742.708-23.039A69.943,69.943,0,0,1,34.234,31.2q1.715-5.556,4.75-7.882A12.612,12.612,0,0,1,46.865,21a14.737,14.737,0,0,1,7.68,1.818q3.031,1.819,4.85,6.771a53.417,53.417,0,0,1,2.526,13.539q.706,8.593.708,22.131V80.817q0,13.746-.708,23.039A70.259,70.259,0,0,1,59.5,118.71q-1.719,5.561-4.749,7.883a12.6,12.6,0,0,1-7.882,2.324Z"/><path class="cls-1" d="M132.552,27.464,129.521,60h.4a22.9,22.9,0,0,1,10.509-8.184A43.443,43.443,0,0,1,156.2,49.29q10.307,0,17.077,3.941A29.96,29.96,0,0,1,183.985,63.64a44.5,44.5,0,0,1,5.558,14.652,85.894,85.894,0,0,1,1.617,16.672,106.488,106.488,0,0,1-2.021,21.625,42.1,42.1,0,0,1-7.174,16.672,31.422,31.422,0,0,1-14.046,10.51q-8.9,3.533-22.635,3.537-13.542,0-21.927-3.639a30.818,30.818,0,0,1-12.833-9.6,33.234,33.234,0,0,1-5.962-12.934,61.552,61.552,0,0,1-1.516-13.035v-3.84h27.889a76.627,76.627,0,0,0,.4,7.68,25.509,25.509,0,0,0,1.92,7.578,15.143,15.143,0,0,0,4.345,5.861,11.4,11.4,0,0,0,7.477,2.324q9.094,0,13.035-6.973t3.941-20.917a111.541,111.541,0,0,0-.809-14.753,26.825,26.825,0,0,0-2.728-9.3,10.869,10.869,0,0,0-5.153-4.85,20.246,20.246,0,0,0-8.084-1.415q-6.267,0-9.6,3.536a16.808,16.808,0,0,0-4.143,9.6h-26.07l5.254-77.807H185.3V27.464Z"/></g></svg>