<svg xmlns="http://www.w3.org/2000/svg" viewBox="0 0 193.58 147.31"><defs><style>.cls-1{fill:#323232;}</style></defs><title>アートボード 18</title><g id="main"><path class="cls-1" d="M1,49.7A77.43,77.43,0,0,1,6.47,25.34a38.56,38.56,0,0,1,13.44-17Q28.9,2,44.86,2,58,2,66.59,5.74a30.06,30.06,0,0,1,13.74,12q5.15,8.29,7.28,21.52a207.85,207.85,0,0,1,2.12,32.23q0,15-1,28.7a77.58,77.58,0,0,1-5.46,24.35,36.67,36.67,0,0,1-13.44,16.67q-9,6.06-25,6.06-12.94,0-21.62-3.44A28.2,28.2,0,0,1,9.4,132.15q-5.15-8.29-7.28-21.52A207.76,207.76,0,0,1,0,78.39Q0,63.44,1,49.7Zm28.8,57.09a53.24,53.24,0,0,0,2.53,13.54q1.82,5,4.85,6.77a14.72,14.72,0,0,0,7.68,1.82,12.59,12.59,0,0,0,7.88-2.32q3-2.32,4.75-7.88a70.32,70.32,0,0,0,2.43-14.85q.71-9.29.71-23V65.26q0-13.54-.71-22.13a53.46,53.46,0,0,0-2.53-13.54q-1.82-4.95-4.85-6.77A14.73,14.73,0,0,0,44.86,21,12.61,12.61,0,0,0,37,23.32q-3,2.32-4.75,7.88a69.94,69.94,0,0,0-2.43,14.85q-.71,9.3-.71,23V84.66Q29.1,98.2,29.81,106.79Z"/><path class="cls-1" d="M173.84,6V92.74a4,4,0,0,0,4,4h9.74v14.63h-9.74a4,4,0,0,0-4,4v25.71H155.17V115.38a4,4,0,0,0-4-4H104.24V92.52L150.14,6h23.71m-51,90.74h28.29a4,4,0,0,0,4-4V38.38a4,4,0,0,0-4-4h-.4a4,4,0,0,0-3.56,2.17L119.31,90.92a4,4,0,0,0,3.56,5.83M177.84,2H147.73L100.24,91.53v23.85h50.93v29.71h26.68V115.38h13.74V92.74H177.84V2Zm-55,90.74,27.89-54.36h.4V92.74Z"/></g></svg>