<svg xmlns="http://www.w3.org/2000/svg" viewBox="0 0 1001 161.2"><defs><style>.cls-1{fill:#323232;}.cls-2{fill:#fff;}</style></defs><title>アートボード 9</title><g id="main"><circle class="cls-1" cx="80.6" cy="80.6" r="80.6"/><path class="cls-2" d="M249.6,4A76.6,76.6,0,1,1,173,80.6,76.69,76.69,0,0,1,249.6,4m0-4a80.6,80.6,0,1,0,80.6,80.6A80.6,80.6,0,0,0,249.6,0Z"/><circle class="cls-1" cx="416" cy="80.6" r="80.6"/><path class="cls-2" d="M585,4a76.6,76.6,0,1,1-76.6,76.6A76.69,76.69,0,0,1,585,4m0-4a80.6,80.6,0,1,0,80.6,80.6A80.6,80.6,0,0,0,585,0Z"/><circle class="cls-1" cx="751.4" cy="80.6" r="80.6"/><path class="cls-2" d="M920.4,4a76.6,76.6,0,1,1-76.6,76.6A76.69,76.69,0,0,1,920.4,4m0-4A80.6,80.6,0,1,0,1001,80.6,80.6,80.6,0,0,0,920.4,0Z"/><path class="cls-2" d="M129.32,104v11.9H85.85v15.73H72.2V115.9H29.5V104H72.2V97.55H41.41V68.94H72.2V63.59H53.09V47.75H31.25V36.61H53.09V28.53l15.29.76c-.11,1.09-.87,1.75-2.84,2.18v5.13H92.63V28.53l16.05.76c-.11,1.09-1,1.75-2.95,2.18v5.13h21.84V47.75H105.73V63.59H85.85v5.35H118V97.55H85.85V104ZM54.08,87.5H72.2V79.1H54.08ZM65.54,47.75V54H92.63V47.75ZM104.42,79.1H85.85V87.5h18.57Z"/><path class="cls-1" d="M230.32,95v1.64c3.49,2.08,13.54,9.39,16.05,11.36L239,117.43c-2-2.18-5.24-5.46-8.63-8.63v22.82H217.66v-21A70.62,70.62,0,0,1,204.33,125a52.77,52.77,0,0,0-8.52-9.28C203,111.09,210.56,103,215.58,95H198.65V84h19V76H197.34V65.23h10.81a53.22,53.22,0,0,0-3.71-12.56l7.1-2.08h-12V39.89h18.13V28.64l15.51.76c-.11,1.09-.87,1.75-2.84,2.08v8.41h17.8v10.7H237.2l8.85,2.29c-.33.76-1.2,1.2-2.73,1.31a88.86,88.86,0,0,1-5.13,11h12.23V76H232.73a3.8,3.8,0,0,1-2.4,1v7h18.46V95ZM227,65.12a133.18,133.18,0,0,0,4.8-14.52H214.93A58.89,58.89,0,0,1,219.19,65l-.66.22h8.85ZM300.11,65V77.13H289.51v54.49H276.74V77.13H265.82c0,16.16-2.4,39.64-17.15,54.71a30.32,30.32,0,0,0-9.28-9c12.78-13.32,14-31.78,14-46.52V38.69l6.77,2c10-3.28,20.42-7.64,26.65-11.9l12.34,9.39c-.66.66-1.75.66-3.06.66-7.64,4-19.11,8.19-30.25,11.36V65Z"/><path class="cls-2" d="M365.29,79.86c6.22-6,18.35-18.78,23.7-24.35,6.66-7,11.58-9.28,17.25-9.28,7.86,0,12.89,3.82,20.53,13.21,7.86,9.83,26.1,29.92,42,44.77l-10.59,12.45c-14.2-13.1-31.67-33.53-38.33-42.15-7.1-9.17-9.94-13.43-13.76-13.43-3.28,0-6.55,3.71-12.78,11.25-3.6,4.26-10.81,12.67-15.18,17.58a3.9,3.9,0,0,1-1.64,3.82Z"/><path class="cls-1" d="M593.42,54.52a3.63,3.63,0,0,1-3.28,1.86c-4.48,37.35-15.4,59-34.18,59-11.9,0-20.53-10-20.53-28.61,0-28,22.28-48.49,50.13-48.49,30.91,0,46.74,18.35,46.74,42,0,25.66-13.21,39-40.73,46a73.13,73.13,0,0,0-8.74-11.58c24.9-4.91,34.84-16.82,34.84-34.18,0-17.58-12.23-29.49-32.33-29.49a45.94,45.94,0,0,0-5.57.44Zm-17.36-2.18a34.81,34.81,0,0,0-27.19,33.85c0,9.17,2.73,15.62,7.54,15.62C567.1,101.81,574.2,77.89,576.05,52.34Z"/><path class="cls-2" d="M742.58,42.29a156.54,156.54,0,0,1,7.86,13.87V28.53l14.85.76c-.11,1-1,1.75-2.84,2V77.68c0,22.5-2.73,41.72-23.92,53.95a47.63,47.63,0,0,0-8.41-9.72c12.12-6.77,17.15-16.05,19.11-27.08-4.26,3.49-8.41,6.88-11.58,9.06a2.42,2.42,0,0,1-1.2,2.51l-7.43-12c5.24-3.06,13-8.19,20.64-13.43l.66,1.64c.11-1.64.11-3.28.11-5V66.21l-6.77,3.93c-1.53-4.91-4.81-11.79-8.19-18v9.83H725.22v15l9.39-3.17,2.18,10.81c-3.82,1.64-7.75,3.28-11.58,4.8v28.28c0,11.47-4.15,14.09-20.09,14.09a44.39,44.39,0,0,0-3.28-12.23c2.4.11,4.7.22,6.55.22,4.26,0,4.7,0,4.7-2.08V94.17l-7.75,2.95a2.74,2.74,0,0,1-1.86,2.18l-3.71-14.2c3.71-1.09,8.3-2.51,13.32-4.15v-19H701.2V49.83h11.9V28.64l14.85.76c-.11,1.09-.87,1.75-2.73,2V49.83h9l-1.31-2.18Zm38.88,70.33c0,4.91.33,5.68,2.29,5.68h5.9c2,0,2.29-2.84,2.62-13a31.85,31.85,0,0,0,11,5.13c-1.2,14.09-4.26,19.66-12.56,19.66h-9.28c-9.61,0-12.45-3.82-12.45-17.58v-84l15.4.87c-.11,1.09-1,1.64-2.95,2.08V61.84a130.91,130.91,0,0,0,8.74-20.31l13,7.32c-.44.66-1.42,1.09-3.17.87a171.35,171.35,0,0,1-11.9,21.51l-6.66-4V79.75l2.95-2.95c7.21,6,15.62,14.09,19.77,19.55l-8.41,9.06a152.23,152.23,0,0,0-14.31-16.16Z"/><path class="cls-1" d="M880.17,31c3.28,5.57,6.44,13.1,7.43,18L876.24,53c-.76-4.91-3.71-12.67-6.77-18.57Zm48.16,82.67H905.51v17.91H893V113.71H869.47V102H893V95.59H873.84v-41h51.55v41H905.51V102h22.82ZM884.76,64.46v6h9v-6Zm0,15.18v6.12h9V79.64Zm15.51-50.89a86.81,86.81,0,0,1,5.35,18.35l-11.47,3.06a96,96,0,0,0-4.8-18.89ZM914,70.47v-6h-9.28v6Zm0,15.29V79.64h-9.28v6.12ZM907.69,50.7A124.74,124.74,0,0,0,917.2,29L932,33.77A3.28,3.28,0,0,1,929,35.08a137.74,137.74,0,0,1-11.25,19.55ZM949.3,70.36c.66,6.66,1.42,13,2.29,18.89a100.44,100.44,0,0,0,7.32-16.82l14.2,4.26c-.33,1-1.31,1.53-2.95,1.42A115.47,115.47,0,0,1,955,106.18c2.07,7.86,4.48,12.67,7,12.67,1.86,0,3.06-5.68,3.39-17.8a32.43,32.43,0,0,0,9.61,7.86c-2,18-5.57,22.61-14.31,22.61-6.44,0-11.14-4.91-15-14.42a86.71,86.71,0,0,1-17.69,14,66.93,66.93,0,0,0-8.08-9.72,75.49,75.49,0,0,0,21.62-17.58,243.58,243.58,0,0,1-4.81-31.89L928,73l-1.42-12.23,9.28-1.09c-.66-10.37-.87-20.86-1-31l16.05,1c0,1.09-1,1.75-3.06,2-.22,8.74,0,17.69.55,26.54L972,55.29l1.31,12ZM961,30.17c4.26,5.68,9.17,13.32,10.92,18.46l-10.48,5.79C959.68,49.28,955.2,41.2,951,35.3Z"/></g></svg>