<svg xmlns="http://www.w3.org/2000/svg" width="884.03" height="177.185" viewBox="0 0 884.03 177.185"><defs><style>.cls-1{fill:#323232;}.cls-2{fill:#fff;}</style></defs><title>アートボード 7</title><g id="main"><path class="cls-1" d="M3.5,146.844a45.191,45.191,0,0,1,3.688,10.178l-3.61,1.113A45.216,45.216,0,0,0,0,148Zm28.344.845a1.1,1.1,0,0,1-1.113.537c-3.994,13.712-10.293,21.623-22.314,27.038a20.314,20.314,0,0,0-2.573-2.957c11.561-4.877,17.59-12.251,21.124-26.231ZM15.67,144.77a65.872,65.872,0,0,1,1.882,10.83l-3.879.538a62.674,62.674,0,0,0-1.844-10.83Z"/><path class="cls-1" d="M70.738,159.518H57.795C56.95,166.547,54.339,172,47.08,176.11a24.264,24.264,0,0,0-3.072-2.5c6.605-3.571,9.141-7.911,9.908-14.095H38.9v-3.533H54.224c.076-2.267.115-4.455.115-7.144a118.781,118.781,0,0,1-12.405,1.882,21.825,21.825,0,0,0-1.037-3.034c12.1-1.306,20.624-3.841,23.543-5.069l2.727,3.033a.859.859,0,0,1-.576.154,1.546,1.546,0,0,1-.422-.039,70.528,70.528,0,0,1-8.449,2.42l1.5.115a.969.969,0,0,1-.96.769c-.038,2.534-.038,4.762-.191,6.913H70.738Z"/><path class="cls-1" d="M110.714,150.416a.908.908,0,0,1-.614.423,38.389,38.389,0,0,1-8.681,13.711,18.714,18.714,0,0,0-3.226-2.266,27.731,27.731,0,0,0,6.645-9.525L92.471,155.14l3.841,20.048-3.918.691-3.8-19.972-10.37,2-.768-3.61,10.446-2-1.882-9.678L91.2,142.2c.038.5-.308.807-.96,1.037l1.536,8.334,15.362-2.919.423-.269Z"/><path class="cls-1" d="M135.557,141.967c-.115.308-.423.5-.961.5-.422,1.152-.96,2.535-1.536,3.841h13.366v30.687h-3.841v-2H123.42v2.112h-3.687v-30.8h9.409a43.376,43.376,0,0,0,1.459-5.262Zm7.028,7.912H123.42v4.954h19.165Zm0,8.334H123.42V163.2h19.165Zm-19.165,13.4h19.165v-5.031H123.42Z"/><path class="cls-1" d="M188.668,150.262l1.92.076c-.038.308-.038.807-.076,1.191-.385,16.438-.769,21.93-1.959,23.581-1.037,1.5-2.189,1.767-4.724,1.767-.769,0-1.613-.038-2.5-.076a9.01,9.01,0,0,0-1-3.38c1.651.153,3.149.153,3.841.153a1.326,1.326,0,0,0,1.306-.653c.845-1.075,1.229-5.914,1.536-19.241h-4.532c-.038,7.682-.922,17.129-7.988,23.5a14.518,14.518,0,0,0-2.727-2.267,13.961,13.961,0,0,0,1.075-1.075c-5.953.769-12.06,1.46-16.016,1.882a.739.739,0,0,1-.576.576l-1.113-3.648c2.188-.153,5.03-.384,8.18-.691v-2.919h-7.066v-2.727h7.066v-2.035h-6.8V152.605h6.8v-2.074h-8.065V147.8h8.065V145.73c-2.3.23-4.686.384-6.874.5a9.551,9.551,0,0,0-.884-2.611c5.723-.346,12.443-1.075,16.208-2.112l2.5,2.65a.58.58,0,0,1-.384.076,1.738,1.738,0,0,1-.423-.038,56.255,56.255,0,0,1-6.145,1.114,3.078,3.078,0,0,1-.653.229V147.8H174.8v2.727h-8.143v2.074h7.182v11.676h-7.182v2.035h7.451v2.727h-7.451v2.65c2.458-.23,4.993-.5,7.489-.729v1.344c4.34-5.646,4.916-12.866,4.916-18.627h-4.109v-3.418h4.109v-8.795l4.3.23c-.039.346-.27.537-.884.652v7.912Zm-29.112,4.8v2.228h3.764v-2.228Zm0,6.76h3.764V159.6h-3.764Zm11.138-6.76h-4.032v2.228h4.032Zm0,6.76V159.6h-4.032v2.228Z"/><path class="cls-1" d="M232.214,168.313v3.3H216.352v5.454h-3.764v-5.454H197.11v-3.3h15.478v-2.65H201.1V150.3h11.483v-2.458H198.108V144.5h14.479v-3.38l4.686.269c-.038.308-.308.538-.922.653V144.5h14.671v3.341H216.352V150.3h11.829v15.362H216.352v2.65ZM204.638,153.3v3.265h7.95V153.3Zm0,9.371h7.95v-3.3h-7.95Zm19.895-9.371h-8.181v3.265h8.181Zm0,9.371v-3.3h-8.181v3.3Z"/><path class="cls-1" d="M247.109,144.079c-.076.423-.461.653-1.229.691a93.177,93.177,0,0,0-2,17.053,43.2,43.2,0,0,0,.346,6.49c.614-1.5,2.188-5.108,2.688-6.414l1.958,2.65c-1.421,3.265-2.688,5.415-3.226,7.182a6.35,6.35,0,0,0-.308,1.806,4.878,4.878,0,0,0,.192,1.306l-3.8.614A42.727,42.727,0,0,1,240,161.976a120.724,120.724,0,0,1,1.883-18.666Zm23.735,28.383c-1.345.076-2.766.114-4.187.114a51.2,51.2,0,0,1-6.951-.384c-5.031-.691-7.221-3.418-7.221-6.605,0-2.688,1.383-4.993,3.457-7.528l3.609,1.307c-1.843,1.843-3.072,3.687-3.072,5.722,0,3.572,4.8,3.8,9.218,3.8a47.46,47.46,0,0,0,5.262-.269ZM253.178,148.3a129.232,129.232,0,0,0,16.477-1.459l.384,3.764a133.6,133.6,0,0,1-16.745,1.383Z"/><path class="cls-1" d="M277.944,151.645c1-.192,2.266-.538,4.186-1.114,6.645-2.074,12.636-3.571,17.015-3.571,6.567,0,12.251,3.188,12.251,11.483,0,9.64-9.025,13.519-22.544,14.824a16.33,16.33,0,0,0-1.536-3.725c12.136-1.076,19.855-4.226,19.855-10.869,0-5.454-3.917-7.8-8.449-7.8-5.031,0-13.788,2.535-18.4,4.608a1.139,1.139,0,0,1-.729.961Z"/><path class="cls-1" d="M325.368,146.422a1.07,1.07,0,0,1-1.037.653,62.088,62.088,0,0,0-.845,10.293c0,10.446,3.418,12.712,5.377,12.712,1.421-.038,3.227-3.917,4.3-7.6a18.592,18.592,0,0,0,3.149,2.343c-2.189,6.837-4.647,9.371-7.644,9.371-5.415,0-8.526-6.721-8.948-13.442-.115-1.459-.153-3.072-.153-4.762a89.416,89.416,0,0,1,.614-10.562Zm23.39,18.205c-1.114-6.8-4.417-11.254-9.371-14.1l2.42-2.88a21.254,21.254,0,0,1,10.945,15.708Z"/><path class="cls-1" d="M358.623,146.038c1.151,0,2.8-.039,3.879-.115,3.917-.308,21.892-1.5,27.652-1.651l.038,4.07c-3.149-.115-5.185.115-8.142,2.112-4.955,3.149-10.332,8.872-10.332,13.52,0,4.839,3.8,7.682,12.751,8.757l-1.843,3.8c-10.946-1.421-15.094-5.8-15.094-12.521,0-5.031,4.8-11.368,11.138-15.555-4.225.23-14.557,1.114-18.742,1.537a1.474,1.474,0,0,1-.922.614Z"/><path class="cls-1" d="M416.3,149.225a1.03,1.03,0,0,1-1.037.614c-1.5,12.6-5.415,21.546-11.867,21.546-3.726,0-6.722-3.418-6.722-9.717,0-9.524,7.489-16.976,17.437-16.976,11.022,0,16.208,6.722,16.208,14.633,0,9.1-4.955,13.635-14.441,15.978a25.284,25.284,0,0,0-2.419-3.265c8.795-1.729,12.789-5.953,12.789-12.6,0-6.26-4.147-11.176-12.175-11.176-.538,0-1.037.038-1.574.076Zm-4.916-.653A13.121,13.121,0,0,0,400.4,161.553c0,3.648,1.345,6.03,3.111,6.03C407.662,167.584,410.581,158.328,411.388,148.572Z"/><path class="cls-1" d="M441.108,149.187c.038,3.61-.576,7.72-2.189,10.216-2.3-1.383-2.458-1.421-2.573-1.5,1.345-2.074,1.921-5.838,1.959-9.141Zm6.49-2.228a38.923,38.923,0,0,1,2.958,5.415l-2.573,1.5a32.116,32.116,0,0,0-2.612-5.339V177.07H441.8V141.122l4.455.23c-.038.346-.308.537-.884.652v6.106Zm14.863,6.913h10.063v2.919H448.751v-2.919h9.832v-2.151H451.67v-2.688h6.913V147h-8.564v-2.766h8.564v-3.11l4.8.269c-.038.346-.307.576-.922.653v2.188h8.795V147h-8.795v2.035h7.183v2.688h-7.183Zm6.875,4.954v14.71c0,3.38-1.729,3.533-6.875,3.533a14.517,14.517,0,0,0-1.037-3c1.575.039,3.188.039,3.688.039s.653-.154.653-.576v-2.343H455.357v5.8h-3.572V158.827Zm-3.571,2.842H455.357v2.189h10.408Zm-10.408,6.952h10.408v-2.228H455.357Z"/><path class="cls-1" d="M488.8,147.766V151.3h7.182v3.11h-17.82V151.3h7.259v-3.533h-5.646v-3.073h5.646v-3.571l4.264.269c-.039.308-.27.538-.884.614v2.688h5.607v3.073Zm.038,12.175a36.641,36.641,0,0,0,2.036-5.377l3.533,1.151c-.115.27-.384.385-.884.385-.576,1.152-1.5,2.919-2.3,4.186h4.109V163.4H488.8v3.648h5.991v3.111H488.8v6.951h-3.38v-6.951h-6.068v-3.111h6.068V163.4h-6.567v-3.111h3.5a24.683,24.683,0,0,0-1.613-4.954l2.611-.768a18.9,18.9,0,0,1,1.768,4.954l-2.42.768h6.951Zm21.969-2.65,2.15.691a1.045,1.045,0,0,1-.307.614,34.256,34.256,0,0,1-3.764,11.637,15.991,15.991,0,0,0,5.262,3.841,12.782,12.782,0,0,0-2.42,3.073,18.275,18.275,0,0,1-4.878-3.918,19.2,19.2,0,0,1-3.841,3.648,10.9,10.9,0,0,0-2.381-2.419,17.243,17.243,0,0,0,4.071-4.11,32.777,32.777,0,0,1-3.8-8.564l2.8-.652a25.27,25.27,0,0,0,2.843,6.106,28.452,28.452,0,0,0,2.188-6.76h-8.449v16.63h-3.38V142.85h15.517v9.1c0,3.418-1.5,3.61-7.067,3.61a14.2,14.2,0,0,0-1-3.149c1.037.039,2.074.077,2.842.077,1.69,0,1.844-.038,1.844-.614v-5.8h-8.757v11.292h9.87Z"/><path class="cls-1" d="M1.758,3.951H23.876v109.67H1.758Z"/><path class="cls-2" d="M115.661,7.551v102.47H96.62l-26.187-74.4a3.6,3.6,0,0,0-3.4-2.4H66.73a3.6,3.6,0,0,0-3.6,3.6v73.2H50.055V7.551H69.413L95.287,80.269a3.6,3.6,0,0,0,3.392,2.393h.308a3.6,3.6,0,0,0,3.6-3.6V7.551h13.075m3.6-3.6H98.986v75.11h-.308L71.953,3.951h-25.5v109.67H66.73v-76.8h.307l27.034,76.8h25.19V3.951Z"/><path class="cls-1" d="M205.122,3.951V22.075H165.954v25.8h36.864V66.005H165.954v47.616H143.836V3.951Z"/><path class="cls-1" d="M259.189,5.4c7.619,0,13.683,1.261,18.024,3.748A24.642,24.642,0,0,1,287.1,19.436a47.586,47.586,0,0,1,4.684,16.778,209.275,209.275,0,0,1,1.13,22.572,208.742,208.742,0,0,1-1.13,22.646,47.436,47.436,0,0,1-4.684,16.7,23.211,23.211,0,0,1-9.81,10.016c-4.362,2.362-10.452,3.559-18.1,3.559s-13.738-1.2-18.1-3.559a23.21,23.21,0,0,1-9.811-10.017,47.433,47.433,0,0,1-4.684-16.7,208.734,208.734,0,0,1-1.13-22.645,209.275,209.275,0,0,1,1.13-22.572,47.591,47.591,0,0,1,4.684-16.777,24.641,24.641,0,0,1,9.885-10.289C245.506,6.661,251.571,5.4,259.189,5.4m0,97.69a16.476,16.476,0,0,0,10.058-2.938,17.523,17.523,0,0,0,5.876-8.817,55.25,55.25,0,0,0,2.327-13.486c.362-5.241.546-11.655.546-19.064s-.184-13.8-.546-18.992a56.252,56.252,0,0,0-2.321-13.466,17.559,17.559,0,0,0-5.882-8.909,18.683,18.683,0,0,0-20.116,0,17.559,17.559,0,0,0-5.88,8.908,56.915,56.915,0,0,0-2.321,13.465c-.362,5.153-.546,11.543-.546,18.992s.184,13.866.546,19.064a55.916,55.916,0,0,0,2.327,13.486,17.523,17.523,0,0,0,5.874,8.815,16.475,16.475,0,0,0,10.059,2.939m0-101.291q-12.442,0-19.814,4.225a28.392,28.392,0,0,0-11.29,11.75,50.909,50.909,0,0,0-5.069,18.048,211.822,211.822,0,0,0-1.152,22.964,211.22,211.22,0,0,0,1.152,23.04A50.748,50.748,0,0,0,228.085,99.8a26.94,26.94,0,0,0,11.29,11.521q7.373,3.992,19.814,3.993T279,111.318A26.94,26.94,0,0,0,290.293,99.8a50.738,50.738,0,0,0,5.069-17.971,211.22,211.22,0,0,0,1.152-23.04,211.822,211.822,0,0,0-1.152-22.964,50.9,50.9,0,0,0-5.069-18.048A28.392,28.392,0,0,0,279,6.025Q271.631,1.8,259.189,1.8Zm0,97.69a12.931,12.931,0,0,1-7.91-2.228,13.987,13.987,0,0,1-4.608-7.065,52.194,52.194,0,0,1-2.15-12.6q-.541-7.753-.538-18.815t.538-18.739a53.164,53.164,0,0,1,2.15-12.6,14.021,14.021,0,0,1,4.608-7.142,15.159,15.159,0,0,1,15.821,0,14.025,14.025,0,0,1,4.608,7.142,53.289,53.289,0,0,1,2.15,12.6q.536,7.682.538,18.739T273.858,77.6a52.314,52.314,0,0,1-2.15,12.6,13.99,13.99,0,0,1-4.608,7.065,12.938,12.938,0,0,1-7.911,2.228Z"/><path class="cls-1" d="M350.427,3.951q13.824,0,21.5,6.988t7.68,21.273q0,11.06-4.455,18.048t-13.824,8.986v.307q8.294,1.232,12.134,5.376t4.762,13.363q.305,3.075.46,6.682T379,93.039q.305,8.755.921,13.363.921,4.607,3.994,6.3v.922H359.951a11.844,11.844,0,0,1-2.15-5.3,59.065,59.065,0,0,1-.615-6.221l-.614-21.044q-.31-6.451-3.226-10.138t-9.831-3.686H331.688v46.387H309.57V3.951ZM340.9,51.874q7.985,0,12.288-3.764t4.3-12.672q0-15.207-15.36-15.206H331.688V51.874Z"/><path class="cls-1" d="M431.374,3.951l15.667,77.414h.308L463.169,3.951h32.717v109.67H475.611V26.07H475.3L455.8,113.621h-17.2L419.086,26.07h-.307v87.552H398.5V3.951Z"/><path class="cls-2" d="M563.469,3.951l29.03,109.67h-23.04l-5.068-23.193H535.206l-5.068,23.193H507.1l29.03-109.67ZM560.551,72.3,549.952,23h-.308L539.047,72.3Z"/><path class="cls-1" d="M661.313,22.075H637.351v91.546H615.232V22.075H591.271V3.951h70.042Z"/><path class="cls-1" d="M678.054,3.951h22.119v109.67H678.054Z"/><path class="cls-1" d="M757.771,5.4c7.618,0,13.682,1.261,18.024,3.748a24.644,24.644,0,0,1,9.886,10.288,47.6,47.6,0,0,1,4.684,16.778,209.325,209.325,0,0,1,1.13,22.572,208.777,208.777,0,0,1-1.129,22.645,47.443,47.443,0,0,1-4.685,16.7,23.209,23.209,0,0,1-9.81,10.016c-4.363,2.362-10.453,3.559-18.1,3.559s-13.739-1.2-18.1-3.559a23.21,23.21,0,0,1-9.811-10.017,47.42,47.42,0,0,1-4.684-16.7,208.563,208.563,0,0,1-1.13-22.645,209.112,209.112,0,0,1,1.131-22.572,47.571,47.571,0,0,1,4.683-16.777,24.64,24.64,0,0,1,9.886-10.289C744.088,6.661,750.153,5.4,757.771,5.4m0,97.69a16.474,16.474,0,0,0,10.057-2.938,17.521,17.521,0,0,0,5.876-8.817,55.217,55.217,0,0,0,2.327-13.485c.363-5.232.547-11.646.547-19.064s-.184-13.806-.547-18.991a56.241,56.241,0,0,0-2.321-13.466,17.552,17.552,0,0,0-5.881-8.909,18.683,18.683,0,0,0-20.117,0,17.56,17.56,0,0,0-5.879,8.908,56.915,56.915,0,0,0-2.321,13.465c-.363,5.158-.547,11.548-.547,18.992s.184,13.861.547,19.064a55.916,55.916,0,0,0,2.327,13.486,17.527,17.527,0,0,0,5.874,8.816,16.478,16.478,0,0,0,10.06,2.939m0-101.291q-12.442,0-19.814,4.225a28.393,28.393,0,0,0-11.29,11.75A50.889,50.889,0,0,0,721.6,35.822a211.691,211.691,0,0,0-1.152,22.964,211.09,211.09,0,0,0,1.152,23.04A50.728,50.728,0,0,0,726.667,99.8a26.941,26.941,0,0,0,11.29,11.521q7.373,3.992,19.814,3.993t19.814-3.993A26.939,26.939,0,0,0,788.875,99.8a50.748,50.748,0,0,0,5.069-17.971,211.349,211.349,0,0,0,1.151-23.04,211.952,211.952,0,0,0-1.151-22.964,50.909,50.909,0,0,0-5.069-18.048,28.391,28.391,0,0,0-11.289-11.75Q770.212,1.8,757.771,1.8Zm0,97.69a12.935,12.935,0,0,1-7.911-2.228,13.993,13.993,0,0,1-4.607-7.065,52.194,52.194,0,0,1-2.15-12.6q-.541-7.753-.538-18.815t.538-18.739a53.164,53.164,0,0,1,2.15-12.6,14.027,14.027,0,0,1,4.607-7.142,15.16,15.16,0,0,1,15.821,0,14.021,14.021,0,0,1,4.607,7.142,53.264,53.264,0,0,1,2.15,12.6q.538,7.682.538,18.739T772.439,77.6a52.29,52.29,0,0,1-2.15,12.6,13.986,13.986,0,0,1-4.607,7.065,12.938,12.938,0,0,1-7.91,2.228Z"/><path class="cls-2" d="M863.448,79.062h.307V3.951H884.03v109.67H858.84l-27.033-76.8H831.5v76.8H811.224V3.951h25.5Z"/></g></svg>