<svg xmlns="http://www.w3.org/2000/svg" viewBox="0 0 192.37 149.31"><defs><style>.cls-1{fill:#323232;}</style></defs><title>アートボード 17</title><g id="main"><path class="cls-1" d="M46.86,6C55,6,61.8,7.15,67,9.41A25.92,25.92,0,0,1,78.94,19.88c3.14,5,5.4,11.79,6.72,20a204.94,204.94,0,0,1,2.07,31.6c0,9.81-.34,19.37-1,28.4A74,74,0,0,1,81.57,123a32.46,32.46,0,0,1-12,14.9c-5.3,3.57-12.94,5.38-22.72,5.38-8.08,0-14.86-1.06-20.15-3.16A24.09,24.09,0,0,1,14.79,130c-3.14-5-5.4-11.79-6.72-20A204.82,204.82,0,0,1,6,78.39C6,68.54,6.34,59,7,50a73.82,73.82,0,0,1,5.16-23.1A34.79,34.79,0,0,1,24.22,11.63C29.49,7.89,37.11,6,46.86,6m0,126.92a16.52,16.52,0,0,0,10.31-3.15c2.72-2.08,4.73-5.31,6.14-9.88a73.43,73.43,0,0,0,2.59-15.73c.48-6.28.72-14.13.72-23.34V65.26c0-9.08-.24-16.63-.72-22.46a56.68,56.68,0,0,0-2.76-14.59c-1.53-4.16-3.73-7.13-6.55-8.82A18.69,18.69,0,0,0,46.86,17a16.54,16.54,0,0,0-10.32,3.15c-2.69,2.06-4.75,5.38-6.14,9.87a73,73,0,0,0-2.59,15.73c-.48,6.25-.72,14.1-.72,23.34V84.66c0,9.12.24,16.68.72,22.46a56.48,56.48,0,0,0,2.76,14.59c1.53,4.16,3.73,7.13,6.55,8.82a18.69,18.69,0,0,0,9.74,2.39M46.86,2q-16,0-25,6.37a38.56,38.56,0,0,0-13.44,17A77.42,77.42,0,0,0,3,49.7Q2,63.44,2,78.39a207.79,207.79,0,0,0,2.12,32.23q2.12,13.24,7.28,21.52a28.2,28.2,0,0,0,13.84,11.72q8.69,3.43,21.62,3.44,16,0,25-6.06a36.67,36.67,0,0,0,13.44-16.67,77.58,77.58,0,0,0,5.46-24.35q1-13.74,1-28.7a207.85,207.85,0,0,0-2.12-32.23q-2.12-13.23-7.28-21.52a30.06,30.06,0,0,0-13.74-12Q60,2,46.86,2Zm0,126.92a14.72,14.72,0,0,1-7.68-1.82q-3-1.82-4.85-6.77a53.24,53.24,0,0,1-2.53-13.54q-.71-8.59-.71-22.13V69.1q0-13.74.71-23A69.94,69.94,0,0,1,34.23,31.2q1.71-5.56,4.75-7.88A12.61,12.61,0,0,1,46.86,21a14.73,14.73,0,0,1,7.68,1.82q3,1.82,4.85,6.77a53.43,53.43,0,0,1,2.53,13.54q.71,8.59.71,22.13V80.82q0,13.75-.71,23a70.3,70.3,0,0,1-2.43,14.85q-1.72,5.56-4.75,7.88a12.59,12.59,0,0,1-7.88,2.32Z"/><path class="cls-1" d="M134.67,122.35q3.13,6.57,12.63,6.57a16.66,16.66,0,0,0,8.39-1.82,12.69,12.69,0,0,0,4.85-5,20.23,20.23,0,0,0,2.22-7.38,75.67,75.67,0,0,0,.51-8.89,57.38,57.38,0,0,0-.71-9.2,22.35,22.35,0,0,0-2.73-7.78,14.71,14.71,0,0,0-5.66-5.46q-3.64-2-9.7-2h-9.7v-19h9.5a14.63,14.63,0,0,0,7.78-1.92,15.1,15.1,0,0,0,5.05-5.05,23.49,23.49,0,0,0,2.83-7.17,38.56,38.56,0,0,0,.91-8.49q0-10.31-3.44-14.55T146.9,21a14.87,14.87,0,0,0-7.58,1.72,11.72,11.72,0,0,0-4.55,4.85,21.46,21.46,0,0,0-2.12,7.38,78.78,78.78,0,0,0-.51,9.3H105.47q0-21.42,10.71-31.83T147.51,2q19.6,0,30.42,8.89t10.81,27.89q0,12.94-5.76,21.12a25.43,25.43,0,0,1-16.07,10.41v.4q13.94,2.23,19.7,11.22t5.76,22.53a64.79,64.79,0,0,1-1.82,15,33.46,33.46,0,0,1-7.07,13.94A37,37,0,0,1,169,143.47q-9.2,3.84-24.15,3.84-20.82,0-31.12-11.32t-10.31-32.13v-.61h27.89Q131.54,115.78,134.67,122.35Z"/></g></svg>