<svg xmlns="http://www.w3.org/2000/svg" width="836" height="165.2" viewBox="0 0 836 165.2"><defs><style>.cls-1{fill:#323232;}.cls-2{fill:#fff;}</style></defs><title>アートボード 7</title><g id="main"><path class="cls-1" d="M82.6,165.2a82.6,82.6,0,1,1,82.6-82.6A82.694,82.694,0,0,1,82.6,165.2ZM82.6,4a78.6,78.6,0,1,0,78.6,78.6A78.689,78.689,0,0,0,82.6,4Z"/><circle class="cls-2" cx="251.6" cy="82.6" r="80.6"/><path class="cls-1" d="M418,165.2a82.6,82.6,0,1,1,82.6-82.6A82.694,82.694,0,0,1,418,165.2ZM418,4a78.6,78.6,0,1,0,78.6,78.6A78.689,78.689,0,0,0,418,4Z"/><circle class="cls-2" cx="587" cy="82.6" r="80.6"/><path class="cls-1" d="M753.4,165.2A82.6,82.6,0,1,1,836,82.6,82.694,82.694,0,0,1,753.4,165.2ZM753.4,4A78.6,78.6,0,1,0,832,82.6,78.689,78.689,0,0,0,753.4,4Z"/><path class="cls-2" d="M125.422,54.931a6.545,6.545,0,0,1-2.46,2.125C110.329,93.614,92.888,115.639,62.7,130.844c-2.348-3.13-6.484-7.938-10.509-10.733,27.95-13.081,44.273-32.758,52.658-57.8H71.981a118.4,118.4,0,0,1-23.814,25.6,75.428,75.428,0,0,0-11.515-9.167c14.534-11.068,28.286-28.733,35.105-47.4l17.776,4.137c-.447,1.341-1.9,2.012-3.689,2.012-1.789,4.025-4.025,7.938-5.926,11.627h31.864l2.012-1.006Z"/><path class="cls-1" d="M234.54,110.608c24.261-7.043,45.056-21.242,56.907-41.814,2.459,3.354,7.491,7.826,10.174,10.286-14.311,23.367-40.7,39.8-73.341,48.187a4.6,4.6,0,0,1-2.348,2.683l-7.826-12.969,1.677-2.795V35.143l18.224.894c-.112,1.342-1.118,2.46-3.466,2.8Z"/><path class="cls-2" d="M444.166,94.844a317.824,317.824,0,0,0-34.994-16.77v51.987H394.191V31.789l18.335.894c-.112,1.342-1.006,2.46-3.354,2.8V67.341l2.795-3.8A350.976,350.976,0,0,1,452.1,81.093Zm-8.944-56.236A96.442,96.442,0,0,1,449.2,53.814l-6.484,5.478a102.278,102.278,0,0,0-13.64-15.429Zm15.317-9.95c4.7,4.024,10.845,10.174,13.975,14.869l-6.485,5.367A94.065,94.065,0,0,0,444.39,33.8Z"/><path class="cls-1" d="M636.477,106.322H600.329c7.863,8.955,20.313,14.088,37.9,15.944a48.169,48.169,0,0,0-7.754,11.467c-20.75-3.276-33.963-10.921-42.591-24.462-6.552,9.829-18.893,18.456-41.608,24.572a53.5,53.5,0,0,0-8.082-10.593c19.221-4.368,29.923-10.266,35.82-16.927H540.047V95.183h39.86a32.739,32.739,0,0,0,.874-5.569H554.026V79.021H581V73.779H550.531V66.243h-8.846v-23.7H581V30.533l16.49.874c-.109,1.092-.874,1.748-2.949,2.075v9.064H634.62v23.7h-8.3v7.536H594.214v5.242h28.394V89.614H594.1a48.4,48.4,0,0,1-.655,5.569h43.027Zm-81.8-43.137H581V55.432l16.163.874c-.109,1.092-.983,1.856-2.949,2.075v4.805H620.97V54.012H554.681Z"/><path class="cls-2" d="M735.517,110.363c4.041-.983,8.19-1.857,12.231-2.839l1.311,10.811c-13.979,3.822-28.612,7.645-38.113,10.047a2.682,2.682,0,0,1-1.747,1.966l-4.805-13.323,4.914-.983V78.912l12.887.764c-.109.874-.765,1.529-2.512,1.748v32.435l4.368-.983V71.048H709.962V34.792H746.11V71.048H735.517v13H747.53V95.4H735.517ZM720.883,45.822v14.2h13.542v-14.2Zm60.5,46.631c.655,3.385,1.42,6.662,2.184,9.61a54.082,54.082,0,0,0,8.737-9.392l13.1,5.351a3.064,3.064,0,0,1-2.839,1.2,71.473,71.473,0,0,1-14.634,14.634c2.293,4.477,4.914,6.989,7.645,6.989,2.621,0,3.931-3.276,4.478-13,2.512,3.058,6.225,6.225,9.282,7.535-2.184,14.415-5.679,18.237-14.087,18.237-3.713,0-11.139-.437-17.91-12.559a135.279,135.279,0,0,1-25.882,11.576,45.462,45.462,0,0,0-7.753-10.92,115.925,115.925,0,0,0,28.831-11.794A139.629,139.629,0,0,1,768.5,93.764L750.26,95.62l-1.2-11.249,17.691-1.747c-.328-2.075-.546-4.15-.764-6.225L753.1,77.71l-1.2-10.92,13-1.311-.328-5.788-14.634,1.42-1.2-11.249,15.289-1.42q-.327-8.845-.328-17.691l16.381.874c-.109,1.092-.982,1.857-3.167,2.185-.109,4.477-.109,8.846,0,13.323l15.289-1.42a113.687,113.687,0,0,0-12.122-7.645l7.208-7.753c4.914,2.4,11.685,6.334,15.07,9.173l-4.914,5.788,5.351-.546,1.092,11.03L777.343,58.38c.109,1.966.218,3.932.437,5.9l22.605-2.293,1.2,10.7-22.824,2.4c.218,2.075.437,4.259.764,6.225l27.083-2.621,1.311,11.03Z"/></g></svg>