<svg xmlns="http://www.w3.org/2000/svg" width="30.4" height="47.3" viewBox="0 0 30.4 47.3">  <title>アセット 5</title>  <g id="レイヤー_2" data-name="レイヤー 2">    <g id="main">      <path d="M9.22,33.66a15.23,15.23,0,0,0,.26,2.91,5.08,5.08,0,0,0,1,2.21,4.72,4.72,0,0,0,1.89,1.41,7.49,7.49,0,0,0,3,.51,5.89,5.89,0,0,0,3.81-1.38,5.16,5.16,0,0,0,1.7-4.26,7.63,7.63,0,0,0-.42-2.66,5.25,5.25,0,0,0-1.38-2,9.79,9.79,0,0,0-2.53-1.63,36.46,36.46,0,0,0-3.87-1.5A33,33,0,0,1,7.3,25a14.28,14.28,0,0,1-3.74-2.85A10.19,10.19,0,0,1,1.34,18.4a15.89,15.89,0,0,1-.7-5q0-6.78,3.78-10.11T14.78,0a22.53,22.53,0,0,1,5.66.67,11.88,11.88,0,0,1,4.48,2.18,10.19,10.19,0,0,1,2.94,3.84,13.53,13.53,0,0,1,1.06,5.6v1.28H20.1a9.17,9.17,0,0,0-1.15-5A4.24,4.24,0,0,0,15.1,6.78a6.41,6.41,0,0,0-2.56.45,4.33,4.33,0,0,0-1.63,1.18,4.07,4.07,0,0,0-.83,1.7,8.66,8.66,0,0,0-.22,2,6.6,6.6,0,0,0,.9,3.55,8,8,0,0,0,3.84,2.66l7.1,3.07A21.79,21.79,0,0,1,26,23.78a11.72,11.72,0,0,1,2.66,2.69A9,9,0,0,1,30,29.63a17.68,17.68,0,0,1,.38,3.84q0,7.23-4.19,10.53T14.53,47.3q-7.81,0-11.17-3.39T0,34.18V32.32H9.22Z" style="fill: #fff"/>    </g>  </g></svg>