<svg xmlns="http://www.w3.org/2000/svg" width="1112.921" height="334.211" viewBox="0 0 1112.921 334.211"><defs><style>.cls-1{fill:#323232;}.cls-2{fill:#fff;}.cls-3{fill:none;stroke:#323232;stroke-linecap:round;stroke-linejoin:round;stroke-width:2.6px;}</style></defs><title>アートボード 9</title><g id="main"><path class="cls-1" d="M47.484,202.166a65.846,65.846,0,0,1-10.96,2.154c0,2.978-.063,6.019-.063,8.679a46.661,46.661,0,0,1,12.1-2.091c10.39,0,18.373,5.259,18.373,15.458,0,9.186-5.2,15.9-16.029,15.9a15.023,15.023,0,0,1-11.847-5.639,45.439,45.439,0,0,0,3.928-6.082c2.344,2.851,5.068,4.308,7.983,4.308,5.132,0,7.856-3.611,7.856-8.49,0-5.068-3.675-8.679-10.454-8.679a43.567,43.567,0,0,0-11.911,2.154v12.544c0,5.829-3.738,10.96-11.53,10.96-5.512,0-11.784-3.1-11.784-10.834,0-4.308,2.915-8.743,7.666-12.227a42.236,42.236,0,0,1,8.046-4.5V204.953c-4.181.253-8.87.317-14,.317l-.126-7.6c5.258,0,9.947-.063,14.128-.253V186.644l10.01.253c0,.76-.634,1.331-1.647,1.457-.19,2.471-.317,5.385-.443,8.3a46.223,46.223,0,0,0,9.693-2.344ZM28.858,223.01c-3.674,2.217-8.489,5.068-8.489,9.313,0,2.6,1.521,4.245,4.308,4.245,2.6,0,4.245-1.457,4.245-4.5C28.921,230.485,28.921,226.747,28.858,223.01Zm35.668-14.7a49.035,49.035,0,0,0-14.254-8.426l3.864-6.589a48.41,48.41,0,0,1,14.889,8.236Z"/><path class="cls-1" d="M122.375,200.962,127.951,204a1.793,1.793,0,0,1-1.077.823,40.81,40.81,0,0,1-10.58,11.087,98.359,98.359,0,0,0,22.617,4.751,35,35,0,0,0-4.815,7.349c-2.217-.317-4.371-.7-6.525-1.077v17.8h-7.856v-1.9H98.364v2.027H90.952V227.318c-2.788.76-5.639,1.394-8.49,1.964a28.455,28.455,0,0,0-3.548-6.716,92.879,92.879,0,0,0,22.491-6.272,47.383,47.383,0,0,1-5.765-4.815,74.146,74.146,0,0,1-7.792,4.245,23.951,23.951,0,0,0-5.068-5.638c8.3-3.168,13.938-7.476,17.3-11.911H89.431v7.032H82.019V191.269h22.808V185.06l9.566.507c-.063.634-.507,1.014-1.71,1.2v4.5H136v13.938H128.2v-7.032H107.17l2.788.507c-.19.633-.76,1.014-1.711,1.014-.38.57-.823,1.077-1.267,1.647h14.128ZM98.364,236.631h21.351v-5.448H98.364Zm21.161-11.721a69.666,69.666,0,0,1-10.9-4.308,81.633,81.633,0,0,1-9.883,4.308Zm-18.056-17.866-.317.253a36.076,36.076,0,0,0,7.54,5.258,37.093,37.093,0,0,0,7.1-5.512Z"/><path class="cls-1" d="M163.055,205.333v2.788c1.71,2.344,6.335,9.44,7.412,11.15-1.2,1.647-2.344,3.358-3.928,5.448-.76-1.9-2.091-4.688-3.484-7.413v27.5h-6.906V220.729a51.994,51.994,0,0,1-5.829,12.734,36.916,36.916,0,0,0-3.358-6.716c3.611-5,6.969-13.811,8.616-21.414H148.42V198.3h7.729V185.06l8.553.507c-.063.57-.507.95-1.647,1.14V198.3h6.4v7.032Zm4.181,30.537c3.738-1.647,9.44-4.625,14.952-7.413l1.71,5.385c-4.435,2.978-9.06,5.955-12.227,7.729a1.416,1.416,0,0,1-.7,1.394Zm24.771-16.916a34.426,34.426,0,0,0,2.6,5.575,51.275,51.275,0,0,0,6.272-6.842l6.4,4.878a1.944,1.944,0,0,1-1.774.38,84.549,84.549,0,0,1-7.729,6.209,26.057,26.057,0,0,0,10.39,7.666,29.054,29.054,0,0,0-4.815,6.209,30.259,30.259,0,0,1-11.341-11.277v5.575c0,6.272-2.217,7.666-11.784,7.666a23.839,23.839,0,0,0-2.027-6.779c2.154.126,4.688.126,5.448.126s1.014-.317,1.014-1.077v-20.4H169.834v-6.209h14.825v-2.978H173.192v-5.892h11.467v-2.914H171.608v-6.209H177.5a42.991,42.991,0,0,0-2.6-5.448l6.019-2.027a32.191,32.191,0,0,1,3.548,7.1l-1.014.38h9.313l-.7-.253A48.07,48.07,0,0,0,195.366,185l8.173,2.534a1.828,1.828,0,0,1-1.71.7c-.7,1.267-1.711,2.914-2.725,4.435h6.716v6.209H192.008v2.914H204.3v5.892H192.008v2.978h14.952v6.209H192.008ZM176.93,229.471a45.279,45.279,0,0,0-6.082-8.173l5.195-3.421a44.482,44.482,0,0,1,6.335,7.792Z"/><path class="cls-1" d="M260.31,210.339a2.158,2.158,0,0,1-.633.063,2.776,2.776,0,0,1-1.457-.38c-19.07,5.132-33.261,11.974-33.2,18.753.063,4.751,5,6.652,13.748,6.652a150.338,150.338,0,0,0,22.491-1.711l.76,8.109c-7.286.95-19.45,1.2-23.061,1.2-12.417,0-22.174-3.041-22.174-13.938,0-6.652,5.956-12.228,15.332-17.3-2.344-4.562-3.041-11.594-2.978-25.278l11.277.887c-.063.95-.7,1.457-2.091,1.647-.063,1.837-.063,3.548-.063,5.132,0,6.272.38,10.96,1.458,14,5.385-2.407,11.467-4.688,17.929-6.906Z"/><path class="cls-1" d="M306.5,200.138a2.1,2.1,0,0,1-1.9,1.077c-2.6,21.667-8.933,34.211-19.83,34.211-6.906,0-11.911-5.829-11.911-16.6,0-16.219,12.924-28.129,29.08-28.129,17.929,0,27.116,10.644,27.116,24.392,0,14.888-7.666,22.618-23.631,26.672a42.4,42.4,0,0,0-5.068-6.716c14.445-2.851,20.21-9.756,20.21-19.83,0-10.2-7.1-17.106-18.753-17.106a26.7,26.7,0,0,0-3.231.253Zm-10.073-1.267a20.2,20.2,0,0,0-15.775,19.64c0,5.322,1.584,9.06,4.372,9.06C291.232,227.571,295.351,213.7,296.428,198.871Z"/><path class="cls-1" d="M354.021,232.829V184.87h21.034v2.6H356.682v45.362Z"/><path class="cls-2" d="M431.7,210.275a64.46,64.46,0,0,0,1.837,7.476,63.614,63.614,0,0,0,5.068-5.2l5.512,6.019a1.81,1.81,0,0,1-1.077.317,3.186,3.186,0,0,1-.76-.127c-1.647,1.267-4.372,3.231-6.716,4.688,2.091,4.751,4.878,8.616,8.553,11.087a27.539,27.539,0,0,0-4.815,5.892c-7.349-5.765-11.023-16.409-13.051-28.826a49.623,49.623,0,0,1-4.942,3.611,22.935,22.935,0,0,1,8.426,17.486c0,5.955-2.471,12.164-9.566,12.164-1.2,0-2.471-.063-3.738-.127a13.716,13.716,0,0,0-1.647-6.4,30.551,30.551,0,0,0,3.928.317,2.883,2.883,0,0,0,2.851-1.331c.824-.823,1.394-2.788,1.394-5.258a71.333,71.333,0,0,1-14.255,9.313,22.86,22.86,0,0,0-4.245-5.068,53.89,53.89,0,0,0,17.105-10.58,18.28,18.28,0,0,0-.95-1.964,61.173,61.173,0,0,1-10.263,6.272,23.915,23.915,0,0,0-3.8-4.942,44.48,44.48,0,0,0,10.96-5.512,15.115,15.115,0,0,0-1.457-1.394c-1.774.823-3.548,1.647-5.322,2.281-.507-.824-1.331-2.218-2.217-3.421h-.063a18.383,18.383,0,0,1,.57,2.154l-5.7,2.534a25.438,25.438,0,0,0-.823-3.1l-3.041.19v5.2l5.448-1.774a64.535,64.535,0,0,1,3.484,10.39l-5.829,2.091a60.364,60.364,0,0,0-3.1-10.517v20.654h-6.589V224.34q-.286.57-1.331.57c-.57,5.2-1.774,11.277-3.421,15.079a37.585,37.585,0,0,0-5.322-2.6c1.521-3.484,2.408-9.5,2.915-14.888l7.159,1.647v-4.878c-2.788.19-5.259.317-7.286.38a1.278,1.278,0,0,1-1.14.95L382.98,213h4.371c1.014-1.267,2.027-2.661,3.1-4.055a56.252,56.252,0,0,0-7.286-8.933l3.738-5.132,1.331,1.267a77.165,77.165,0,0,0,4.751-11.024l7.413,2.851c-.19.443-.76.7-1.647.7a93.911,93.911,0,0,1-6.462,11.784,32.628,32.628,0,0,1,2.027,2.6,105.884,105.884,0,0,0,5.829-10.39l7.159,3.168a1.9,1.9,0,0,1-1.711.7c-2.027,3.358-4.815,7.476-7.666,11.4l5.195-2.281a64.553,64.553,0,0,1,4.815,9.883,49.87,49.87,0,0,0,10.96-5.258H406.295v-6.019h22.871v-2.851h-17.3v-5.448h17.3v-2.851H410.033v-5.829h26.419v16.979h6.842v6.019Zm-31.424,2.534c-.76-1.71-1.583-3.358-2.407-4.878-1.267,1.711-2.6,3.421-3.865,4.942Z"/><path class="cls-1" d="M473.52,196.337v47.9H452.55v-2.6h18.373v-45.3Z"/><path class="cls-1" d="M551.133,215.154a1.491,1.491,0,0,1-.507.126,1.513,1.513,0,0,1-.887-.317c-4.751,1.394-11.024,3.421-15.712,5.2.126,1.267.126,2.724.126,4.245s0,3.168-.126,5.005l-7.983.57a65.158,65.158,0,0,0,.253-6.779c-4.941,2.471-8.553,5.7-8.553,8.109,0,2.788,3.484,3.928,10.644,3.928a142.327,142.327,0,0,0,15.712-.7l.127,7.349c-3.294.38-8.743.444-15.9.444-12.227,0-18.309-2.724-18.309-10.58,0-5.068,6.589-10.833,15.521-15.4-.19-1.837-1.14-3.548-3.041-3.548-4.181,0-8.616,2.154-13.811,8.046-1.521,1.774-3.865,4.245-6.589,6.906l-5.639-5.448a72.119,72.119,0,0,0,7.729-7.349,38.658,38.658,0,0,0,7.1-13.241l-2.408.063c-1.394,0-8.236.063-9.82,0v-7.159c3.548.19,8.109.19,10.9.19l3.358-.063a83.065,83.065,0,0,0,1.33-8.363l9.693.95a1.674,1.674,0,0,1-1.584,1.2c-.316,2.027-.823,3.928-1.33,5.892a70.666,70.666,0,0,0,19.26-3.485l1.267,7.476c-6.082,1.964-14.825,2.724-22.618,3.1a37.968,37.968,0,0,1-3.1,7.412h.063a14.9,14.9,0,0,1,8.68-3.1c3.674,0,6.905,2.6,7.856,7.412,4.878-2.091,10.833-4.245,15.4-6.082Z"/><path class="cls-1" d="M618.676,190.825v6.652H605.625c4.625,3.421,9.82,7.666,12.608,10.9l-6.716,4.308a36.658,36.658,0,0,0-3.548-3.865c-14.888.7-30.347,1.33-40.547,1.584a1.424,1.424,0,0,1-1.14,1.014l-2.915-7.983,8.426-.063c1.394-1.837,2.724-3.928,3.928-5.892H561.15v-6.652h24.708V185.06l9.5.507c-.063.634-.507,1.014-1.647,1.2v4.055Zm-9.566,22.111v24.835c0,6.335-2.851,7.159-15.079,7.032a25.589,25.589,0,0,0-2.281-6.019c1.837.127,4.118.127,5.765.127,3.738,0,3.865,0,3.865-1.267v-2.407H578.255v9.63H570.59V212.936Zm-7.729,6.145H578.255v2.788H601.38Zm-23.125,10.9H601.38v-2.914H578.255Zm21.224-32.5H586.428a1.9,1.9,0,0,1-1.71.7c-1.141,1.521-2.661,3.358-4.182,5.068,6.526-.063,13.685-.19,20.78-.38-1.583-1.267-3.231-2.534-4.751-3.611Z"/><path class="cls-1" d="M628.5,192.853c1.964,0,4.878-.063,6.652-.19,7.286-.507,34.655-2.218,45.362-2.724l.127,8.553c-5.639-.19-8.743.317-13.748,3.865-6.969,4.625-15.585,13.368-15.585,20.59s6.4,11.4,20.273,12.861l-3.928,7.919c-17.993-2.154-25.088-9.757-25.088-20.717,0-7.729,7.1-17.739,16.6-24.392-7.286.443-22.491,1.837-28.32,2.471-.126.507-.95.95-1.521,1.077Z"/><path class="cls-1" d="M711.25,211.606a33.406,33.406,0,0,1,12.1-2.344c9.63,0,16.282,5.892,16.282,15.839,0,11.341-9.883,17.929-23.695,17.929-8.173,0-13.938-3.738-13.938-10.137,0-5.132,5.2-9.313,11.15-9.313a12.775,12.775,0,0,1,12.861,10.01,9.14,9.14,0,0,0,5.259-8.426c0-5.448-4.5-8.933-10.9-8.933-8.616,0-16.6,3.611-21.1,7.856-1.521,1.394-4.055,3.928-5.7,5.765l-5.638-5.639c4.5-4.5,20.463-19.64,28.953-27.5-3.1.444-14.064,1.014-19.133,1.33a2.358,2.358,0,0,1-1.521.95l-.7-8.933c8.109,0,25.975-.7,30.157-1.394l.95-.443,5.132,6.462a3.215,3.215,0,0,1-1.837.7c-3.294,2.407-13.495,11.53-18.689,16.155Zm3.357,24.518a23.474,23.474,0,0,0,3.865-.38,6.357,6.357,0,0,0-5.955-5.765c-2.091,0-3.992,1.077-3.992,2.915C708.525,235.87,712.517,236.124,714.607,236.124Z"/><path class="cls-1" d="M784.239,200.138a2.1,2.1,0,0,1-1.9,1.077c-2.6,21.667-8.933,34.211-19.83,34.211-6.906,0-11.911-5.829-11.911-16.6,0-16.219,12.924-28.129,29.08-28.129,17.929,0,27.116,10.644,27.116,24.392,0,14.888-7.666,22.618-23.631,26.672a42.4,42.4,0,0,0-5.068-6.716c14.445-2.851,20.21-9.756,20.21-19.83,0-10.2-7.1-17.106-18.753-17.106a26.7,26.7,0,0,0-3.231.253Zm-10.073-1.267a20.2,20.2,0,0,0-15.775,19.64c0,5.322,1.584,9.06,4.372,9.06C768.97,227.571,773.088,213.7,774.166,198.871Z"/><path class="cls-1" d="M833.156,190.128c-.127.7-.7,1.14-1.964,1.2a152.057,152.057,0,0,0-3.357,27.876,58.206,58.206,0,0,0,.443,8.933c.76-1.837,3.231-7.222,4.055-9.25l3.738,5.829c-2.091,4.435-4.308,7.919-5.258,10.96a10.893,10.893,0,0,0-.507,3.041,8.5,8.5,0,0,0,.317,2.217l-7.983,1.2c-2.027-6.082-2.914-14.191-2.914-22.617,0-8.616,1.33-20.4,2.978-30.854Zm38.013,47.326c-2.344.126-4.878.19-7.286.19a86.921,86.921,0,0,1-10.77-.57c-8.806-1.2-12.354-5.892-12.354-11.277,0-4.562,2.09-8.49,5.448-12.608l7.6,2.6c-2.851,2.788-4.688,5.7-4.688,8.87,0,4.752,5.7,5.259,13.241,5.259a82.626,82.626,0,0,0,9.06-.444Zm-28.953-40.99a220.024,220.024,0,0,0,26.8-2.344l.7,7.856a235.28,235.28,0,0,1-27.242,2.154Z"/><path class="cls-1" d="M926.039,189.368h14.128v6.589H926.039v2.6h8.616v13.875H889.483V198.554h7.793v-2.6H883.338v-6.589h13.938v-4.245l9.186.444c-.063.634-.57,1.014-1.647,1.267v2.534h13.621v-4.245l9.25.444c-.063.7-.507,1.014-1.647,1.267Zm-42.067,36.746v-11.4h55.5v11.4h-7.476v-5.638H912.038a1.61,1.61,0,0,1-1.33.443c-.57.7-1.267,1.457-1.9,2.154h14.445l1.267-.253,5.132,2.471a1.9,1.9,0,0,1-.824.76c-6.525,11.087-20.78,16.535-36.175,18.943a30.122,30.122,0,0,0-3.421-6.272,74.653,74.653,0,0,0,15.585-3.231,32.211,32.211,0,0,0-5.639-2.978l4.688-3.8a33.964,33.964,0,0,1,7.666,4.055,27.915,27.915,0,0,0,6.652-4.562h-15.4a54.849,54.849,0,0,1-11.911,6.272,23.729,23.729,0,0,0-4.5-5.2c7.159-2.281,12.48-5.448,15.838-8.806H891.131v5.638Zm18.31-18.563v-4.182H896.2v4.182Zm16.155-9v-2.6H904.815v2.6Zm-3.548,9v-4.182h-6.272v4.182Zm12.671,0v-4.182h-6.335v4.182Z"/><path class="cls-1" d="M983.761,196.147h22.744v31.931h-7.982v-3.231H983.761V244.8h-7.983V224.847H961.587v3.548h-7.666V196.147h21.857V185.06l9.757.57c-.063.634-.507,1.014-1.774,1.2Zm-22.174,21.224h14.191V203.623H961.587Zm22.174,0h14.762V203.623H983.761Z"/><path class="cls-1" d="M1018.8,192.853c1.964,0,4.878-.063,6.652-.19,7.286-.507,34.655-2.218,45.362-2.724l.126,8.553c-5.638-.19-8.743.317-13.748,3.865-6.969,4.625-15.585,13.368-15.585,20.59s6.4,11.4,20.273,12.861l-3.928,7.919c-17.993-2.154-25.088-9.757-25.088-20.717,0-7.729,7.1-17.739,16.6-24.392-7.856.7-22.491,1.837-28.319,2.471-.127.507-.95.95-1.521,1.077Zm42.321,15.078a42.406,42.406,0,0,1,7.729,8.553l-3.738,2.978a43.784,43.784,0,0,0-7.476-8.68Zm7.539-5.638a35.89,35.89,0,0,1,7.729,8.49l-3.675,2.914a44.829,44.829,0,0,0-7.539-8.616Z"/><path class="cls-1" d="M1089.132,225.417a131.837,131.837,0,0,1,13.685,13.495l-6.525,5.955a150.247,150.247,0,0,0-13.051-14.255Z"/><path class="cls-1" d="M54.928,287.568l3.8.19c0,.634,0,1.584-.063,2.407-.507,26.926-1.014,36.3-2.978,39.09-1.964,2.851-4.245,3.358-8.87,3.358-1.014,0-2.091,0-3.231-.063a19.577,19.577,0,0,0-1.964-7.032,42.169,42.169,0,0,0,5.639.317,2.147,2.147,0,0,0,2.091-1.14c1.2-1.711,1.774-9.313,2.154-30.03H46c-.633,16.853-3.041,29.9-12.481,38.33a21.377,21.377,0,0,0-4.308-4.751c-9.82.95-19.83,1.837-26.355,2.281a1.279,1.279,0,0,1-1.14.95L0,324.314c3.548-.126,8.109-.38,13.178-.633v-3.738H3.167v-5.322h10.01v-2.914H1.71v-5.512H13.178v-2.851H2.471V288.519H31.36v14.825H20.146v2.851H31.994v5.512H20.146v2.914H30.6v5.322H20.146V323.3l12.1-.76v.76c4.942-6.969,6.4-16.409,6.842-28.636H32.881v-7.032h6.335c.063-4.308.063-9,.063-13.938l8.743.443c-.063.7-.57,1.141-1.71,1.331,0,4.245-.063,8.3-.127,12.164h7.159Zm-48.4-.126V283.7H.19v-5.575H6.525v-5.005l8.553.507c-.063.57-.507.887-1.647,1.141v3.358H19.64v-5.005l8.616.507c-.063.57-.507.95-1.647,1.141v3.358h6.525V283.7H26.609v3.738H19.64V283.7H13.431v3.738Zm2.407,10.833h4.245v-4.688H8.933Zm15.522,0v-4.688H20.146v4.688Z"/><path class="cls-1" d="M88.069,309.869a27.083,27.083,0,0,0-.824-3.231l-2.978.19v26.039H77.742V312.34a1.3,1.3,0,0,1-1.267.57c-.57,5.132-1.774,11.277-3.421,15.079a34.527,34.527,0,0,0-5.322-2.6c1.521-3.484,2.407-9.5,2.851-14.888l7.159,1.647v-4.878c-2.724.19-5.195.317-7.222.38a1.279,1.279,0,0,1-1.141.95L67.922,301h4.372c1.014-1.267,2.027-2.661,3.041-4.118a58.731,58.731,0,0,0-7.223-8.933c1.458-1.837,2.6-3.485,3.738-5.132l1.394,1.331a87.51,87.51,0,0,0,4.625-11.024l7.349,2.978a1.685,1.685,0,0,1-1.71.634,90.8,90.8,0,0,1-6.272,11.657,32.517,32.517,0,0,1,2.027,2.6c2.218-3.548,4.245-7.223,5.766-10.327l7.1,3.231a1.9,1.9,0,0,1-1.711.7c-2.027,3.358-4.751,7.413-7.6,11.277l5.2-2.154a64.2,64.2,0,0,1,4.941,10.644v-7.286h34.592v12.861h-6.906v-6.906h-21.1v6.906H92.947v-2.281Zm-3.041-9.06c-.7-1.71-1.521-3.358-2.281-4.815-1.267,1.71-2.534,3.358-3.8,4.878ZM87.942,324a69.68,69.68,0,0,0-3.167-11.911l5.575-1.711A71.829,71.829,0,0,1,93.771,322.1Zm20.907-17.423c0,.634-.507,1.014-1.394,1.141-.887,12.291-4.815,20.97-14.445,25.088a26.052,26.052,0,0,0-4.625-5.322c8.426-3.231,11.4-10.454,11.657-21.351Zm-2.725-18.626V284.4H92.44v-6.209h13.685V273.06l9.187.444c-.063.633-.507,1.014-1.647,1.267v3.421h14.191V284.4H113.664v3.548h11.594v6.145H95.1v-6.145Zm11.974,35.8c0,1.774.127,2.027,1.014,2.027H121.2c.95,0,1.2-1.014,1.331-7.919a17.278,17.278,0,0,0,6.082,2.788c-.634,9.123-2.344,11.53-6.652,11.53h-4.055c-5.449,0-6.652-2.091-6.652-8.426V306.131l8.49.507c-.063.507-.57.887-1.647,1.077Z"/><path class="cls-1" d="M296.136,312.023v7.412H274.279v13.431h-7.856V319.436H237.6v-7.412h10.137V295.3h18.689v-7.729H252.485a57.853,57.853,0,0,1-9.376,12.038,44.45,44.45,0,0,0-6.082-5.2c5.575-4.815,10.77-13.3,13.621-21.541l9.187,2.851a1.724,1.724,0,0,1-1.774.76c-.507,1.267-1.077,2.471-1.647,3.738h36.176v7.349h-18.31V295.3h16.916v7.1H274.279v9.63Zm-40.8,0h11.087v-9.63H255.336Z"/><path class="cls-1" d="M331.748,275.087a2.183,2.183,0,0,1-1.964,1.33c-.316,2.281-.95,5.385-1.33,7.223a72.45,72.45,0,0,0,15.585-2.915l.95,7.539A127.6,127.6,0,0,1,327,290.99c-2.914,11.594-6.715,21.287-12.227,30.283l-7.856-2.788a82.142,82.142,0,0,0,11.594-27.306h-10.96V284.02h7.032c1.9,0,3.8-.063,5.2-.063A92.855,92.855,0,0,0,321.1,274.2ZM347.9,302.71c.063,3.8.253,7.412.57,11.087a69.506,69.506,0,0,1,12.291,6.462l-3.738,7.413a60.978,60.978,0,0,0-8.553-5.512,10.261,10.261,0,0,1-.444,2.6c-1.33,4.118-4.688,7.1-12.291,7.1-5.765,0-12.8-2.788-12.8-10.263.127-6.525,6.526-10.263,12.8-10.263a27.267,27.267,0,0,1,4.941.507c-.19-3.041-.253-6.209-.253-8.236ZM341.125,318.8a16.524,16.524,0,0,0-5.575-1.014c-3.1,0-5.766,1.394-5.829,3.8,0,2.344,2.344,3.8,5.955,3.8,3.041,0,5.449-1.521,5.449-4.625Zm18.943-20.654a106.31,106.31,0,0,0-22.111,2.6l-1.077-6.906a98.754,98.754,0,0,1,22.681-3.168Z"/><path class="cls-1" d="M369.767,327.545c3.864-11.467,11.911-34.718,14-40.61,1.331-3.611,3.294-9.693,3.8-11.784l10.834,2.6c-.317.95-1.141,1.521-2.725,1.584-2.6,5.955-7.6,19.133-9.883,25.342a17.457,17.457,0,0,1,11.594-5.2c5.258,0,8.236,3.611,8.236,9.313,0,1.14-.253,6.779-.253,8.046,0,3.674,1.457,5.258,4.118,5.258,4.751,0,8.426-5.639,11.214-15.9a46.8,46.8,0,0,0,7.412,4.435c-3.864,12.228-9.756,19.7-18.943,19.7-7.729,0-12.291-4.118-12.291-10.9,0-1.14.253-6.779.253-8.046,0-2.914-.824-4.245-2.534-4.245-5.956,0-12.038,8.743-13.875,14.128-.823,2.534-1.9,5.7-2.851,8.806Z"/><path class="cls-1" d="M435.408,280.853c1.964,0,4.878-.063,6.652-.19,7.286-.507,34.655-2.218,45.362-2.724l.126,8.553c-5.638-.19-8.743.317-13.748,3.865-6.969,4.625-15.585,13.368-15.585,20.59s6.4,11.4,20.273,12.861l-3.928,7.919c-17.993-2.154-25.088-9.757-25.088-20.717,0-7.729,7.1-17.739,16.6-24.392-7.286.443-22.491,1.837-28.319,2.471-.127.507-.95.95-1.521,1.077Z"/><path class="cls-1" d="M502.57,313.417a131.837,131.837,0,0,1,13.685,13.495l-6.525,5.955a150.247,150.247,0,0,0-13.051-14.255Z"/><path class="cls-3" d="M582.781,294.537c-.19.7-.38,1.394-.507,2.091,9.187,2.534,13.241,8.933,13.241,16.029,0,10.137-7.6,16.979-23.885,19.006a29.314,29.314,0,0,0-3.294-6.4c11.4-1.267,18.879-5.068,18.879-12.417,0-2.091-.7-7.032-7.539-9.25A47.061,47.061,0,0,1,567.7,320.069a13.788,13.788,0,0,0,.887,2.154l-6.525,4.181a15.938,15.938,0,0,1-.887-2.091,21.061,21.061,0,0,1-10.2,2.915c-5.575,0-9.25-3.548-9.25-9.44,0-8.743,6.715-15.648,15.712-19.323-.127-2.724-.127-5.512-.127-8.426-4.751.127-9.883.253-12.417.19l-.38-7.413c2.914.063,8.236.063,12.924.063.126-2.724.19-5.892.317-8.553l9.946.76c-.126.634-.633,1.14-1.71,1.267-.19,1.837-.317,4.245-.507,6.272a146.646,146.646,0,0,0,22.618-2.661l.7,7.666a177.006,177.006,0,0,1-23.694,2.154c-.063,2.218-.127,4.371-.127,6.462a35.923,35.923,0,0,1,9.5-.824,14.975,14.975,0,0,0,.507-2.851Zm-23.5,22.808a91.569,91.569,0,0,1-1.458-11.594c-5,2.471-8.426,6.335-8.426,10.58,0,3.611,2.724,3.484,3.548,3.421A12.773,12.773,0,0,0,559.276,317.345Zm12.8-15.015a25.283,25.283,0,0,0-7.032.887,79.611,79.611,0,0,0,.824,8.616A33.344,33.344,0,0,0,572.074,302.33Z"/><path class="cls-1" d="M604.961,297.578a50.637,50.637,0,0,0,6.335-1.521c10.517-2.978,19.07-4.118,22.428-4.118,8.806,0,17.042,4.562,17.042,15.269,0,14.508-13.051,19.576-31.551,20.97a46.42,46.42,0,0,0-2.281-6.906c15.332-.95,25.849-4.815,25.849-13.494,0-6.335-4.435-9.06-9.883-9.06h-.38c-5.068.127-12.038,1.774-19.577,4.435-1.267.443-2.788,1.077-3.991,1.457a2.484,2.484,0,0,1-1.394,1.267Z"/><path class="cls-1" d="M706.84,298.339a2.159,2.159,0,0,1-.634.063,2.777,2.777,0,0,1-1.457-.38c-19.07,5.132-33.261,11.974-33.2,18.753.063,4.751,5,6.652,13.748,6.652a150.332,150.332,0,0,0,22.491-1.711l.76,8.109c-7.286.95-19.45,1.2-23.061,1.2-12.417,0-22.174-3.041-22.174-13.938,0-6.652,5.955-12.228,15.332-17.3-2.344-4.562-3.041-11.594-2.978-25.278l11.277.887c-.063.95-.7,1.457-2.09,1.647-.063,1.837-.063,3.548-.063,5.132,0,6.272.38,10.96,1.457,14,5.385-2.407,11.467-4.688,17.929-6.906Z"/><path class="cls-1" d="M732.377,281.993a1.883,1.883,0,0,1-1.647,1.077,99.194,99.194,0,0,0-1.647,17.422c0,13.938,4.055,18.943,7.6,18.943,2.154,0,4.815-6.335,6.209-11.594a41.381,41.381,0,0,0,6.462,5.068c-3.041,10.39-7.159,15.205-12.988,15.205-9.82,0-14.635-12.227-15.268-22.554-.127-2.281-.253-4.751-.253-7.349a148.019,148.019,0,0,1,1.14-18.119Zm35.415,30.6c-1.9-11.4-7.159-18.183-14.952-22.808l5.005-5.955a35.22,35.22,0,0,1,18.309,25.975Z"/><path class="cls-1" d="M785.855,296.058c9.82-2.661,21.857-5.322,26.925-5.322,8.68,0,16.156,4.371,16.092,15.585-.063,12.291-9.187,20.4-26.672,25.659a43.026,43.026,0,0,0-5.385-6.969C811.831,321.336,820,314.621,820,306.765c0-5.068-2.534-8.3-7.666-8.3-5.448,0-13.875,2.027-22.047,5.2.063.633-.7,1.33-1.331,1.584Zm10.327-21.6c8.87.507,18.563,2.091,25.088,4.181l-2.154,8.046c-6.715-2.344-17.042-4.118-24.961-4.625Z"/><path class="cls-1" d="M867.461,298.655H850.482v34.211h-7.539V275.531h24.518Zm-7.1-17.613h-9.883V284.4h9.883Zm-9.883,12.164h9.883v-3.675h-9.883Zm46.439-17.676v48.276c0,7.793-3.168,9.06-15.079,9.06a28.356,28.356,0,0,0-1.647-5.955h-15.9v3.294h-6.906V302.52h24.645V325.2c1.267,0,2.471.063,3.484.063,3.358,0,3.738,0,3.738-1.521V298.782H871.833V275.531Zm-22.047,32.564h-10.58v3.865h10.58Zm-10.58,13.241h10.58v-3.991h-10.58Zm24.961-40.293h-10.2V284.4h10.2Zm-10.2,12.291h10.2v-3.8h-10.2Z"/><path class="cls-1" d="M908.4,280.853c1.964,0,4.878-.063,6.652-.19,7.286-.507,34.655-2.218,45.362-2.724l.126,8.553c-5.638-.19-8.743.317-13.748,3.865-6.969,4.625-15.585,13.368-15.585,20.59s6.4,11.4,20.273,12.861l-3.928,7.919c-17.993-2.154-25.088-9.757-25.088-20.717,0-7.729,7.1-17.739,16.6-24.392-7.856.7-22.491,1.837-28.319,2.471-.127.507-.95.95-1.521,1.077Zm42.321,15.078a42.406,42.406,0,0,1,7.729,8.553l-3.738,2.978a43.784,43.784,0,0,0-7.476-8.68Zm7.539-5.638a35.89,35.89,0,0,1,7.729,8.49L962.31,301.7a44.829,44.829,0,0,0-7.539-8.616Z"/><path class="cls-1" d="M989.557,276.164c-.126.76-.7,1.267-1.9,1.457-.57,8.426-1.2,23.251-1.2,32.564,0,8.109,4.118,11.911,10.9,11.911,6.272,0,13.241-3.231,20.463-10.454a53.416,53.416,0,0,0,4.625,7.159c-7.919,7.856-16.282,11.531-25.152,11.531-14.065,0-19.513-7.666-19.513-20.147,0-8.49.443-26.862.887-34.528Z"/><path class="cls-1" d="M1067.743,289.849a79.435,79.435,0,0,1-17.359,3.1c-2.471,13.3-6.4,27.686-10.9,38.2l-8.236-2.914c5.005-10.01,8.68-22.047,10.834-34.845-1.014.063-5.512.063-6.716.063-1.331,0-2.6,0-3.674-.063l-.127-7.539c2.027.127,5.322.127,8.363.127,1.014,0,2.154-.063,3.231-.063.507-3.675.951-8.046,1.267-11.721l10.327.887c-.063.76-.824,1.33-1.774,1.521-.317,2.281-.824,5.7-1.267,8.553a64.737,64.737,0,0,0,14.508-3.231Zm16.789,40.167c-1.964.126-4.181.19-6.462.19a63.968,63.968,0,0,1-13.431-1.14c-5.639-1.33-8.426-5.2-8.363-9.63a14.818,14.818,0,0,1,4.055-9.376l6.779,2.471c-1.964,2.091-2.915,3.991-2.915,5.575,0,3.484,3.231,4.371,12.924,4.371,2.534,0,5.2-.127,7.54-.317Zm-23.948-31.931a78.7,78.7,0,0,1,22.617-3.1v7.6a73.836,73.836,0,0,0-20.907,2.344Z"/><path class="cls-1" d="M1112.921,324a8.87,8.87,0,1,1-8.87-8.87A8.9,8.9,0,0,1,1112.921,324Zm-2.851,0a5.987,5.987,0,1,0-6.019,5.955A5.976,5.976,0,0,0,1110.07,324Z"/><path class="cls-2" d="M183.661,333.282H146.828a1.5,1.5,0,0,1-1.5-1.5,34.5,34.5,0,0,1,.842-7.773,28.886,28.886,0,0,1,2.584-6.95,37.192,37.192,0,0,1,4.313-6.384,65.29,65.29,0,0,1,5.923-6.184l4.895-4.558a26.09,26.09,0,0,0,3.107-3.138,12.473,12.473,0,0,0,1.7-2.71,9.953,9.953,0,0,0,.768-2.862,33.508,33.508,0,0,0,.2-3.877c0-5.26-2.359-5.934-4.414-5.934a4.719,4.719,0,0,0-2.722.653A4.549,4.549,0,0,0,161,283.987a10.522,10.522,0,0,0-.806,3.254c-.135,1.35-.2,2.806-.2,4.329a1.5,1.5,0,0,1-1.5,1.5H146.828a1.5,1.5,0,0,1-1.5-1.5v-2.281c0-5.962,1.654-10.639,4.917-13.9s8.366-4.917,15.168-4.917c6.454,0,11.351,1.562,14.556,4.642,3.22,3.1,4.853,7.527,4.853,13.162a28.527,28.527,0,0,1-.537,5.664,21.9,21.9,0,0,1-1.723,5.124A23.63,23.63,0,0,1,179.5,303.8a43.464,43.464,0,0,1-4.463,4.6l-6.743,6.238a24.01,24.01,0,0,0-3.988,4.493,19.288,19.288,0,0,0-1,1.691h20.356a1.5,1.5,0,0,1,1.5,1.5v9.462A1.5,1.5,0,0,1,183.661,333.282Zm-35.3-3h33.8V323.82H161.105a1.5,1.5,0,0,1-1.455-1.864,15.144,15.144,0,0,1,2.143-4.471,26.922,26.922,0,0,1,4.472-5.063l6.747-6.241a40.578,40.578,0,0,0,4.169-4.287,20.629,20.629,0,0,0,2.679-4.133,18.891,18.891,0,0,0,1.487-4.421,25.519,25.519,0,0,0,.477-5.066c0-4.788-1.323-8.489-3.933-11-2.626-2.525-6.824-3.8-12.477-3.8-5.978,0-10.368,1.359-13.047,4.038s-4.038,6.643-4.038,11.78v.781h8.68c.031-1.084.1-2.131.2-3.127a13.5,13.5,0,0,1,1.053-4.18,6.99,6.99,0,0,1,6.987-4.351c2.769,0,7.414,1.161,7.414,8.934a36.445,36.445,0,0,1-.222,4.231,12.954,12.954,0,0,1-1.005,3.727,15.47,15.47,0,0,1-2.1,3.373,28.758,28.758,0,0,1-3.433,3.483l-4.865,4.531a62.333,62.333,0,0,0-5.655,5.9,34.2,34.2,0,0,0-3.966,5.866,25.882,25.882,0,0,0-2.315,6.228A30.4,30.4,0,0,0,148.359,330.282Z"/><path class="cls-2" d="M209.511,334.211a26.307,26.307,0,0,1-9.591-1.541,13.312,13.312,0,0,1-6.509-5.5,25.844,25.844,0,0,1-3.249-9.552,88.759,88.759,0,0,1-.906-13.712c0-4.194.144-8.267.427-12.106h0a34,34,0,0,1,2.394-10.65,17.667,17.667,0,0,1,6.135-7.741c2.752-1.949,6.553-2.937,11.3-2.937a24.435,24.435,0,0,1,9.68,1.687,14.1,14.1,0,0,1,6.42,5.61,25.866,25.866,0,0,1,3.249,9.552,88.77,88.77,0,0,1,.906,13.712c0,4.181-.144,8.254-.427,12.106a34.065,34.065,0,0,1-2.393,10.649,16.869,16.869,0,0,1-6.163,7.634C218.036,333.272,214.243,334.211,209.511,334.211Zm0-60.741c-4.113,0-7.331.8-9.566,2.385a14.712,14.712,0,0,0-5.1,6.451,31.025,31.025,0,0,0-2.168,9.71h0c-.278,3.766-.418,7.765-.418,11.886a85.8,85.8,0,0,0,.868,13.237,22.92,22.92,0,0,0,2.834,8.442,10.238,10.238,0,0,0,5.064,4.3,23.384,23.384,0,0,0,8.488,1.331c4.124,0,7.352-.767,9.595-2.278a13.92,13.92,0,0,0,5.073-6.305,31.1,31.1,0,0,0,2.168-9.71c.277-3.779.418-7.778.418-11.886a85.807,85.807,0,0,0-.868-13.237,22.937,22.937,0,0,0-2.834-8.442,11,11,0,0,0-5.07-4.443A21.524,21.524,0,0,0,209.511,273.47Zm-18.332,18.437h0Zm18.332,34.616a7.645,7.645,0,0,1-3.982-.974,6.691,6.691,0,0,1-2.664-3.6,23.456,23.456,0,0,1-1.143-6.054c-.2-2.412-.3-5.566-.3-9.373v-6.5c0-3.861.1-7.14.3-9.745a30.376,30.376,0,0,1,1.076-6.538,7.853,7.853,0,0,1,2.505-4.042,6.75,6.75,0,0,1,4.208-1.281,7.647,7.647,0,0,1,3.982.974,6.694,6.694,0,0,1,2.664,3.6,23.554,23.554,0,0,1,1.143,6.054c.2,2.429.3,5.582.3,9.374v6.5c0,3.846-.1,7.125-.3,9.745a30.518,30.518,0,0,1-1.076,6.538,7.747,7.747,0,0,1-2.507,4.044A6.739,6.739,0,0,1,209.511,326.523Zm0-45.112a3.852,3.852,0,0,0-2.383.663,5.108,5.108,0,0,0-1.463,2.546,27.963,27.963,0,0,0-.952,5.881c-.193,2.53-.291,5.732-.291,9.517v6.5c0,3.726.1,6.8.291,9.127h0a20.954,20.954,0,0,0,.969,5.266,3.936,3.936,0,0,0,1.391,2.061,4.735,4.735,0,0,0,2.438.547,3.793,3.793,0,0,0,2.382-.662,5.038,5.038,0,0,0,1.465-2.548,28.109,28.109,0,0,0,.951-5.88c.193-2.544.291-5.746.291-9.517v-6.5c0-3.71-.1-6.781-.291-9.128a21.043,21.043,0,0,0-.969-5.266,3.94,3.94,0,0,0-1.391-2.061A4.737,4.737,0,0,0,209.511,281.411Z"/><path class="cls-1" d="M222.31,2.151l15.667,77.414h.308L254.105,2.151h32.717v109.67H266.547V24.27h-.307l-19.507,87.552h-17.2L210.022,24.27h-.307v87.552H189.439V2.151Z"/><path class="cls-1" d="M365.464,113.621H302.641a1.8,1.8,0,0,1-1.8-1.8V2.151a1.8,1.8,0,0,1,1.8-1.8h61.286a1.8,1.8,0,0,1,1.8,1.8V20.275a1.8,1.8,0,0,1-1.8,1.8H326.56v22.2h35.064a1.8,1.8,0,0,1,1.8,1.8V64.205a1.8,1.8,0,0,1-1.8,1.8H326.56V91.9h38.9a1.8,1.8,0,0,1,1.8,1.8v18.125A1.8,1.8,0,0,1,365.464,113.621Zm-61.022-3.6h59.222V95.5h-38.9a1.8,1.8,0,0,1-1.8-1.8V64.205a1.8,1.8,0,0,1,1.8-1.8h35.064V47.88H324.76a1.8,1.8,0,0,1-1.8-1.8v-25.8a1.8,1.8,0,0,1,1.8-1.8h37.368V3.951H304.441Z"/><path class="cls-1" d="M400.483,80.794a36.546,36.546,0,0,0,.614,6.989,12.171,12.171,0,0,0,2.3,5.3,11.315,11.315,0,0,0,4.531,3.379,18.019,18.019,0,0,0,7.143,1.229,14.129,14.129,0,0,0,9.139-3.3q4.068-3.3,4.07-10.215a18.33,18.33,0,0,0-1-6.374,12.625,12.625,0,0,0-3.3-4.838,23.456,23.456,0,0,0-6.067-3.917,87.4,87.4,0,0,0-9.293-3.609,79.344,79.344,0,0,1-12.749-5.377,34.278,34.278,0,0,1-8.986-6.835,24.437,24.437,0,0,1-5.3-9.062,38.1,38.1,0,0,1-1.69-11.9q0-16.28,9.063-24.27T413.846,0A54.086,54.086,0,0,1,427.44,1.613a28.512,28.512,0,0,1,10.752,5.223,24.453,24.453,0,0,1,7.065,9.216,32.461,32.461,0,0,1,2.535,13.439v3.072h-21.2q0-7.834-2.765-12.058t-9.216-4.224a15.375,15.375,0,0,0-6.144,1.075,10.354,10.354,0,0,0-3.917,2.842,9.762,9.762,0,0,0-2,4.07,20.818,20.818,0,0,0-.538,4.762,15.83,15.83,0,0,0,2.15,8.524q2.149,3.456,9.216,6.374l17.05,7.373a52.405,52.405,0,0,1,10.291,5.76,28.146,28.146,0,0,1,6.375,6.451,21.511,21.511,0,0,1,3.3,7.6,42.54,42.54,0,0,1,.922,9.216q0,17.36-10.061,25.268t-28.032,7.91q-18.742,0-26.8-8.141t-8.064-23.348V77.568h22.118Z"/><path class="cls-2" d="M483.272,80.794a36.546,36.546,0,0,0,.614,6.989,12.171,12.171,0,0,0,2.3,5.3,11.315,11.315,0,0,0,4.531,3.379,18.019,18.019,0,0,0,7.143,1.229,14.129,14.129,0,0,0,9.139-3.3q4.068-3.3,4.07-10.215a18.33,18.33,0,0,0-1-6.374,12.625,12.625,0,0,0-3.3-4.838,23.456,23.456,0,0,0-6.067-3.917,87.4,87.4,0,0,0-9.293-3.609,79.344,79.344,0,0,1-12.749-5.377,34.278,34.278,0,0,1-8.986-6.835,24.437,24.437,0,0,1-5.3-9.062,38.1,38.1,0,0,1-1.69-11.9q0-16.28,9.063-24.27T496.635,0a54.086,54.086,0,0,1,13.594,1.613,28.512,28.512,0,0,1,10.752,5.223,24.453,24.453,0,0,1,7.065,9.216,32.461,32.461,0,0,1,2.535,13.439v3.072h-21.2q0-7.834-2.765-12.058T497.4,16.282a15.375,15.375,0,0,0-6.144,1.075,10.354,10.354,0,0,0-3.917,2.842,9.762,9.762,0,0,0-2,4.07,20.818,20.818,0,0,0-.538,4.762,15.83,15.83,0,0,0,2.15,8.524q2.149,3.456,9.216,6.374l17.05,7.373a52.405,52.405,0,0,1,10.291,5.76,28.146,28.146,0,0,1,6.375,6.451,21.511,21.511,0,0,1,3.3,7.6,42.54,42.54,0,0,1,.922,9.216q0,17.36-10.061,25.268t-28.032,7.91q-18.742,0-26.8-8.141t-8.064-23.348V77.568h22.118Z"/><path class="cls-1" d="M600.008,2.151l29.03,109.67H606l-5.069-23.193H571.745l-5.069,23.193h-23.04l29.03-109.67ZM597.089,70.5,586.491,21.2h-.307L575.585,70.5Z"/><path class="cls-1" d="M681.646,28.416a20.516,20.516,0,0,0-2.227-5.913,14.338,14.338,0,0,0-3.917-4.454,9.407,9.407,0,0,0-5.76-1.767q-7.989,0-11.521,8.908t-3.532,29.491q0,9.832.614,17.818a68.865,68.865,0,0,0,2.228,13.594,19.586,19.586,0,0,0,4.607,8.6,10.5,10.5,0,0,0,7.757,3,10.746,10.746,0,0,0,4.378-1.075,14.478,14.478,0,0,0,4.454-3.226,17.454,17.454,0,0,0,3.457-5.453,19.978,19.978,0,0,0,1.381-7.757V68.967H668.974V52.686h35.789v59.136H688.481V101.684h-.307a23.314,23.314,0,0,1-9.6,9.14,30.88,30.88,0,0,1-13.44,2.688q-10.137,0-16.512-3.532a24.143,24.143,0,0,1-9.984-10.906,55.688,55.688,0,0,1-4.838-18.2,225.061,225.061,0,0,1-1.229-25.114,147.107,147.107,0,0,1,1.766-24.269A48.494,48.494,0,0,1,640.4,14.055,27.727,27.727,0,0,1,651.771,3.533Q658.834,0,669.435,0q18.123,0,26.113,8.986t7.986,25.728h-21.2A30.015,30.015,0,0,0,681.646,28.416Z"/><path class="cls-2" d="M780.335,20.275H741.167v25.8H778.03V64.205H741.167V93.7h40.7v18.125H719.048V2.151h61.287Z"/><path class="cls-2" d="M858.975,115.311c-6.751,0-12.5-.921-17.1-2.737a23.294,23.294,0,0,1-11.388-9.632c-2.726-4.382-4.67-10.11-5.778-17.024a160.438,160.438,0,0,1-1.636-24.785c0-7.6.26-14.984.773-21.942h0a60.906,60.906,0,0,1,4.281-19.073A31.217,31.217,0,0,1,838.965,6.442c4.844-3.43,11.576-5.17,20.01-5.17,6.869,0,12.666,1.006,17.23,2.991A24.721,24.721,0,0,1,887.46,14.1c2.726,4.385,4.67,10.113,5.778,17.024a160.471,160.471,0,0,1,1.635,24.784c0,7.574-.26,14.956-.772,21.942a61.034,61.034,0,0,1-4.282,19.072,29.775,29.775,0,0,1-10.868,13.47C874.111,113.657,867.39,115.311,858.975,115.311Zm0-110.438c-7.673,0-13.706,1.517-17.929,4.508a27.671,27.671,0,0,0-9.595,12.129,57.336,57.336,0,0,0-4.011,17.945h0c-.507,6.871-.764,14.164-.764,21.678a156.907,156.907,0,0,0,1.591,24.215c1.032,6.439,2.809,11.719,5.281,15.693a19.507,19.507,0,0,0,9.654,8.185c4.172,1.649,9.479,2.486,15.774,2.486,7.686,0,13.729-1.447,17.964-4.3a26.234,26.234,0,0,0,9.56-11.876,57.466,57.466,0,0,0,4.012-17.945c.506-6.9.763-14.192.763-21.678a156.936,156.936,0,0,0-1.59-24.214C888.652,25.261,886.875,19.981,884.4,16a21.181,21.181,0,0,0-9.636-8.44C870.661,5.778,865.347,4.872,858.975,4.872Zm-33.331,34.45h0Zm33.331,62.011a13,13,0,0,1-6.762-1.638,11.288,11.288,0,0,1-4.451-6.07,42.342,42.342,0,0,1-2.024-10.764c-.361-4.36-.544-10.068-.544-16.967V54.067c0-7,.183-12.934.543-17.647a55.118,55.118,0,0,1,1.918-11.684,13.4,13.4,0,0,1,4.234-6.887,11.367,11.367,0,0,1,7.086-2.139,13,13,0,0,1,6.763,1.639,11.284,11.284,0,0,1,4.449,6.068,41.929,41.929,0,0,1,2.025,10.763c.36,4.391.543,10.1.543,16.968V62.977c0,6.969-.183,12.906-.542,17.647a55.411,55.411,0,0,1-1.919,11.684c-.98,3.17-2.405,5.488-4.235,6.889A11.354,11.354,0,0,1,858.975,101.333Zm0-82.022a7.888,7.888,0,0,0-4.9,1.4,10.007,10.007,0,0,0-2.985,5.092,51.684,51.684,0,0,0-1.768,10.9c-.354,4.623-.533,10.468-.533,17.374V65.895c0,6.8.179,12.409.532,16.671h0a38.95,38.95,0,0,0,1.815,9.817,7.907,7.907,0,0,0,2.923,4.224,9.51,9.51,0,0,0,4.911,1.125,7.877,7.877,0,0,0,4.895-1.395,10.006,10.006,0,0,0,2.985-5.094,51.971,51.971,0,0,0,1.769-10.895c.353-4.649.532-10.495.532-17.373V51.149c0-6.77-.179-12.38-.531-16.672a39.112,39.112,0,0,0-1.817-9.818,7.9,7.9,0,0,0-2.922-4.223A9.5,9.5,0,0,0,858.975,19.311Z"/><path class="cls-1" d="M926.865,35.021H905.208V20.583h2q11.06,0,17.434-4.147T932.7,3.072h16.281V111.821H926.865Z"/></g></svg>