<svg xmlns="http://www.w3.org/2000/svg" width="30.08" height="47.3" viewBox="0 0 30.08 47.3">  <title>アセット 7</title>  <g id="レイヤー_2" data-name="レイヤー 2">    <g id="main">      <path d="M20.45,11.84a8.57,8.57,0,0,0-.93-2.46,6,6,0,0,0-1.63-1.86,3.93,3.93,0,0,0-2.4-.74q-3.33,0-4.8,3.71T9.22,22.78q0,4.1.26,7.42a28.67,28.67,0,0,0,.93,5.66,8.16,8.16,0,0,0,1.92,3.58,4.37,4.37,0,0,0,3.23,1.25,4.47,4.47,0,0,0,1.82-.45,6,6,0,0,0,1.86-1.34,7.27,7.27,0,0,0,1.44-2.27,8.31,8.31,0,0,0,.58-3.23V28.74H15.17V22H30.08V46.59H23.3V42.37h-.13a9.7,9.7,0,0,1-4,3.81,12.86,12.86,0,0,1-5.6,1.12,14.13,14.13,0,0,1-6.88-1.47,10.06,10.06,0,0,1-4.16-4.54,23.21,23.21,0,0,1-2-7.58A93.6,93.6,0,0,1,0,23.23,61.22,61.22,0,0,1,.74,13.12,20.2,20.2,0,0,1,3.26,5.86,11.55,11.55,0,0,1,8,1.47,16.4,16.4,0,0,1,15.36,0q7.55,0,10.88,3.74t3.33,10.72H20.74A12.48,12.48,0,0,0,20.45,11.84Z" style="fill: #323232"/>    </g>  </g></svg>