<svg xmlns="http://www.w3.org/2000/svg" viewBox="0 0 592.43 175.35"><defs><style>.cls-1{fill:#323232;}.cls-2{fill:#fff;}</style></defs><title>アートボード 5</title><g id="main"><path class="cls-1" d="M32.87,2.15,48.54,79.57h.31L64.67,2.15H97.38V111.82H77.11V24.27H76.8L57.29,111.82H40.09L20.58,24.27h-.31v87.55H0V2.15Z"/><path class="cls-2" d="M170.89,5.75V16.68H135.32a3.6,3.6,0,0,0-3.6,3.6v25.8a3.6,3.6,0,0,0,3.6,3.6h33.26V60.61H135.32a3.6,3.6,0,0,0-3.6,3.6V93.7a3.6,3.6,0,0,0,3.6,3.6h37.1v10.93H116.8V5.75h54.09m3.6-3.6H113.2V111.82H176V93.7h-40.7V64.21h36.86V46.08H135.32V20.28h39.17V2.15Z"/><path class="cls-1" d="M211,80.79a36.55,36.55,0,0,0,.61,7,12.17,12.17,0,0,0,2.3,5.3,11.31,11.31,0,0,0,4.53,3.38,18,18,0,0,0,7.14,1.23,14.13,14.13,0,0,0,9.14-3.3q4.07-3.3,4.07-10.21a18.33,18.33,0,0,0-1-6.37,12.62,12.62,0,0,0-3.3-4.84A23.46,23.46,0,0,0,228.48,69a87.39,87.39,0,0,0-9.29-3.61,79.34,79.34,0,0,1-12.75-5.38,34.28,34.28,0,0,1-9-6.83,24.44,24.44,0,0,1-5.3-9.06,38.1,38.1,0,0,1-1.69-11.9Q190.46,16,199.52,8t24.88-8A54.09,54.09,0,0,1,238,1.61a28.51,28.51,0,0,1,10.75,5.22,24.45,24.45,0,0,1,7.07,9.22,32.46,32.46,0,0,1,2.53,13.44v3.07h-21.2q0-7.83-2.76-12.06t-9.22-4.22A15.38,15.38,0,0,0,219,17.36a10.35,10.35,0,0,0-3.92,2.84,9.76,9.76,0,0,0-2,4.07,20.82,20.82,0,0,0-.54,4.76,15.83,15.83,0,0,0,2.15,8.52q2.15,3.46,9.22,6.37l17,7.37a52.41,52.41,0,0,1,10.29,5.76,28.15,28.15,0,0,1,6.37,6.45,21.51,21.51,0,0,1,3.3,7.6,42.54,42.54,0,0,1,.92,9.22q0,17.36-10.06,25.27t-28,7.91q-18.74,0-26.8-8.14T188.93,82V77.57H211Z"/><path class="cls-2" d="M293.83,80.79a36.55,36.55,0,0,0,.61,7,12.17,12.17,0,0,0,2.3,5.3,11.31,11.31,0,0,0,4.53,3.38,18,18,0,0,0,7.14,1.23,14.13,14.13,0,0,0,9.14-3.3q4.07-3.3,4.07-10.21a18.33,18.33,0,0,0-1-6.37,12.62,12.62,0,0,0-3.3-4.84A23.46,23.46,0,0,0,311.27,69,87.39,87.39,0,0,0,302,65.43a79.34,79.34,0,0,1-12.75-5.38,34.28,34.28,0,0,1-9-6.83,24.44,24.44,0,0,1-5.3-9.06,38.1,38.1,0,0,1-1.69-11.9Q273.25,16,282.31,8T307.2,0a54.09,54.09,0,0,1,13.59,1.61,28.51,28.51,0,0,1,10.75,5.22,24.45,24.45,0,0,1,7.07,9.22,32.46,32.46,0,0,1,2.53,13.44v3.07h-21.2q0-7.83-2.76-12.06T308,16.28a15.38,15.38,0,0,0-6.14,1.08,10.35,10.35,0,0,0-3.92,2.84,9.76,9.76,0,0,0-2,4.07,20.82,20.82,0,0,0-.54,4.76,15.83,15.83,0,0,0,2.15,8.52q2.15,3.46,9.22,6.37l17,7.37a52.41,52.41,0,0,1,10.29,5.76,28.15,28.15,0,0,1,6.37,6.45,21.51,21.51,0,0,1,3.3,7.6,42.54,42.54,0,0,1,.92,9.22q0,17.36-10.06,25.27t-28,7.91q-18.74,0-26.8-8.14T271.71,82V77.57h22.12Z"/><path class="cls-1" d="M410.57,2.15l29,109.67h-23l-5.07-23.19H382.31l-5.07,23.19h-23l29-109.67ZM407.65,70.5,397.05,21.2h-.31L386.15,70.5Z"/><path class="cls-1" d="M492.21,28.42A20.52,20.52,0,0,0,490,22.5,14.34,14.34,0,0,0,486.06,18a9.41,9.41,0,0,0-5.76-1.77q-8,0-11.52,8.91t-3.53,29.49q0,9.83.61,17.82a68.86,68.86,0,0,0,2.23,13.59,19.59,19.59,0,0,0,4.61,8.6,10.5,10.5,0,0,0,7.76,3,10.75,10.75,0,0,0,4.38-1.08,14.47,14.47,0,0,0,4.45-3.23,17.45,17.45,0,0,0,3.46-5.45,20,20,0,0,0,1.38-7.76V69H479.53V52.69h35.79v59.14H499V101.68h-.31a23.31,23.31,0,0,1-9.6,9.14,30.88,30.88,0,0,1-13.44,2.69q-10.14,0-16.51-3.53a24.14,24.14,0,0,1-10-10.91,55.69,55.69,0,0,1-4.84-18.2,225.18,225.18,0,0,1-1.23-25.11,147,147,0,0,1,1.77-24.27A48.48,48.48,0,0,1,451,14.05,27.72,27.72,0,0,1,462.33,3.53Q469.4,0,480,0q18.12,0,26.11,9t8,25.73H492.9A30,30,0,0,0,492.21,28.42Z"/><path class="cls-2" d="M590.9,20.28H551.73v25.8h36.86V64.21H551.73V93.7h40.7v18.13H529.61V2.15H590.9Z"/><path class="cls-1" d="M141.14,160.21c-.12.31-.38.54-1,.58-1,6.22-2.8,11.52-11.79,14.52a10.34,10.34,0,0,0-2.19-3.15c8.22-2.34,9.68-6.8,10.33-12.44Zm9.45,9.6c0,1.23.23,1.42,1.57,1.42h4.3c1.31,0,1.54-.77,1.69-5.65a11.2,11.2,0,0,0,3.3,1.5c-.35,6-1.34,7.6-4.69,7.6H151.7c-3.84,0-4.8-1.19-4.8-4.88V159.25H126.74v-3.53H142v-7.18h-7.53a29.62,29.62,0,0,1-3.19,5.68,18.17,18.17,0,0,0-3.19-1.69c2.61-3.23,4.53-8.45,5.42-12.44l4.34,1a.83.83,0,0,1-.88.5c-.31,1-.65,2.23-1.11,3.5H142v-5.72l4.61.27c0,.35-.31.54-.92.65V145h12.41v3.49H145.71v7.18H161v3.53H150.59Z"/><path class="cls-1" d="M202.93,169.35v2.46H187.07v3.46h-3.57v-3.46H167.67v-2.46h15.82v-1.5H173v-8.91h10.49v-1.46H169.44v-2.38h3.92a22.36,22.36,0,0,0-1.5-1.92c3.69-.46,5.68-1.34,6.72-2.46-3.61.35-7,.69-9.37.88a.7.7,0,0,1-.58.5l-.81-2.69c3-.15,7.37-.42,11.75-.69a7,7,0,0,0,.12-1.27h-9.56v-2.19h9.56v-1.54H169.25v-2.19h10.45v-2.27l4.19.23c0,.35-.27.54-.88.62v7.18c0,3.23-1.46,6.11-6.76,7.8h7.26v-2.42l4.19.27V139.32l4.26.27c0,.31-.27.5-.84.61v1.34h10.33v2.19H191.1v1.54h9.64v2.19H191.1V149h11.06v2.23H191.1v2.84h-3.42v-.69a1.29,1.29,0,0,1-.61.23v1.5h14.36v2.38H187.07v1.46h10.68v8.91H187.07v1.5Zm-26.5-8.49v1.61h7.07v-1.61Zm0,5.07h7.07v-1.61h-7.07Zm17.71-5.07h-7.07v1.61h7.07Zm0,5.07v-1.61h-7.07v1.61Z"/><path class="cls-1" d="M225.08,147.77a1,1,0,0,1-.54.5,38.54,38.54,0,0,1-5.11,8.83c1.88,1.27,5.3,3.8,6.26,4.53l-2.15,3c-1-1-2.92-2.8-4.61-4.26v14.94h-3.61V161.79a35.09,35.09,0,0,1-5.26,4.26,15,15,0,0,0-1.84-3.38,32.77,32.77,0,0,0,11.91-12.79H209.3v-3.34h6v-7.22l4.49.27c0,.31-.27.54-.88.65v6.3h3.19l.58-.15Zm11.29,22.81h8.76v3.61h-22v-3.61h9.49V155.26h-7.91v-3.57h7.91V139.63l4.65.31c0,.31-.31.54-.92.61v11.14h7.87v3.57h-7.87Z"/><path class="cls-1" d="M281.49,168.7H274c3.92,1.15,8.64,2.84,11.56,4.07l-3.19,2.57A106.62,106.62,0,0,0,270,170.81l2.88-2.11H261.6l2.88,1.88a1.51,1.51,0,0,1-.77.23,45.46,45.46,0,0,1-11.29,4.49,25.47,25.47,0,0,0-2.73-2.65,43.65,43.65,0,0,0,10.72-4h-6.72V151.77h27.81Zm-2.23-28v9.18H255.84V140.7Zm-22,13.67v2.23h20.43v-2.23Zm0,4.69v2.27h20.43v-2.27Zm0,4.72v2.3h20.43v-2.3ZM275.43,147v-3.38H259.49V147Z"/><path class="cls-1" d="M305.8,141.2c-.12.54-.58.73-1.27.77-.42,2-1,5.49-1.5,7.76,1.38-.15,2.84-.27,3.73-.27,6.11,0,8.07,4.11,8.07,10a31.68,31.68,0,0,1-1.15,8.1c-1.19,4.3-3.73,6.41-7.14,6.41-1.54,0-3.73-.73-7-3.26a15.4,15.4,0,0,0,1.34-3.26c2.84,2.11,4.42,2.57,5.53,2.57,1.84,0,2.92-1.34,3.61-3.65a30.38,30.38,0,0,0,1-7.07c0-4.07-1.34-6.3-4.61-6.26a31.32,31.32,0,0,0-4.15.31c-1.84,7.41-4,14.17-7.49,20.35L291.28,172a66.15,66.15,0,0,0,7.14-18.24l-6.34.88-.31-3.76,7.37-.81c.54-2.8,1.08-6.18,1.46-9.49ZM322,159.95a23.28,23.28,0,0,0-8.1-12.94l2.92-2.15c4,2.92,8.07,8.41,9.1,13.6Z"/><path class="cls-1" d="M339.71,147.89a1.09,1.09,0,0,1-1,.65c-.38,5.49-1,9.41-1.57,10.29h0a25.62,25.62,0,0,1,13.37-4.26c5.68,0,9.6,3.07,9.56,8.6-.08,7.22-5.76,10.6-20.85,11.18a27.53,27.53,0,0,0-1.38-3.5c13.06-.58,18.09-2.57,18.13-7.6,0-3.19-2.27-5.22-6.22-5.22-6,0-12.33,3.61-13.6,6l-3.61-1.61c.81-.69,2.19-7.87,2.27-15.13Zm-.08-7.8c4.88.54,10.95,1.65,14.83,3.19L353.19,147c-3.92-1.61-10-2.76-14.71-3.38Z"/><path class="cls-1" d="M387,147.43a1,1,0,0,1-1,.61c-1.5,12.6-5.42,21.55-11.87,21.55-3.73,0-6.72-3.42-6.72-9.72,0-9.52,7.49-17,17.44-17,11,0,16.21,6.72,16.21,14.63,0,9.1-5,13.63-14.44,16a25.28,25.28,0,0,0-2.42-3.26c8.79-1.73,12.79-6,12.79-12.6,0-6.26-4.15-11.18-12.17-11.18-.54,0-1,0-1.57.08Zm-4.92-.65a13.12,13.12,0,0,0-11,13c0,3.65,1.34,6,3.11,6C378.38,165.78,381.29,156.53,382.1,146.77Z"/><path class="cls-1" d="M414.43,148.42c3.34,1.46,6.91,3.23,10.29,5.11a76.54,76.54,0,0,0,6.64-12.94l5,2.07c-.15.35-.73.58-1.46.54a92.6,92.6,0,0,1-6.72,12.37A70,70,0,0,1,436,161.1l-2.57,3.57a62.94,62.94,0,0,0-7.6-5.72,60.93,60.93,0,0,1-15.55,15,20.06,20.06,0,0,0-3.15-2.76,57.69,57.69,0,0,0,15.36-14.25c-3.3-1.92-6.8-3.76-10.18-5.3Z"/><path class="cls-1" d="M448.38,150.65a48.35,48.35,0,0,1,2.8,8.22l-3,.84a39.28,39.28,0,0,0-2.73-8.18Zm22.62.65a.91.91,0,0,1-.88.42c-3.07,11.25-8.87,18.05-17.9,21.7a17.2,17.2,0,0,0-2.07-2.46c8.64-3.3,14.17-9.52,16.86-20.93ZM457.63,149a49.44,49.44,0,0,1,1.81,8.56l-3.11.65a53.4,53.4,0,0,0-1.84-8.56Z"/><path class="cls-1" d="M510.44,149.31a1,1,0,0,1-.69.54,43.62,43.62,0,0,1-7.68,12.6,19.3,19.3,0,0,0-3.3-1.8,25.78,25.78,0,0,0,5.65-8.37l-12.6,3.26v9.26c0,3.42,1.77,4.57,4.69,4.57h6.18a48.52,48.52,0,0,0,5.76-.46c0,1.15.08,2.69.15,3.76-1.54.19-4.22.31-5.8.31h-6.34c-5.45,0-8.56-2.5-8.56-8v-8.37l-9,2.27-1-3.57,10-2.46V141.43l5,.27c0,.46-.42.69-1,.81v9.33l14.86-3.76.46-.38Z"/><path class="cls-1" d="M518.08,154.76h32.07v3.84H519.61a1.61,1.61,0,0,1-1.23.69Z"/><path class="cls-1" d="M559.09,151.42a57.25,57.25,0,0,1,10.1,3.5l-1.65,3.34a62.28,62.28,0,0,0-10.06-3.65Zm1.69,18.36c12-3.92,20.7-10.41,25.85-21.81a32.22,32.22,0,0,0,3.3,2.46c-5.15,11.14-14.44,18.43-25.69,22.31a.93.93,0,0,1-.54,1Zm2.77-27.84a66,66,0,0,1,10.06,3.76L571.8,149a54.84,54.84,0,0,0-9.95-4Zm17.71-1.27a31,31,0,0,1,4.76,5.49l-2,1.42a34.37,34.37,0,0,0-4.61-5.49Zm5.61-2.23a33.48,33.48,0,0,1,4.76,5.42l-2,1.42a33.56,33.56,0,0,0-4.57-5.42Z"/></g></svg>