<svg xmlns="http://www.w3.org/2000/svg" width="1016.4" height="660" viewBox="0 0 1016.4 660"><defs><style>.cls-1{fill:#323232;}.cls-2{fill:#fff;}.cls-3{fill:none;stroke:#fff;stroke-miterlimit:10;stroke-width:2.2px;}.cls-4{fill:#b8d200;}</style></defs><title>アートボード 9</title><g id="main"><path class="cls-1" d="M0,0V660H1016.4V0ZM35.2,578.6,13.2,22l970.2,6.6,15.4,508.2Z"/><path class="cls-2" d="M497.127,610.541c-.088.154-.264.221-.55.221a22.734,22.734,0,0,1-1.87,2.311h3.366v4.488h-2v-2.707H481.262v2.707h-1.914v-4.488h3.015a16.724,16.724,0,0,0-1.871-2.486l1.76-.814a12.056,12.056,0,0,1,2.134,2.707l-1.188.594h4.73a15.092,15.092,0,0,0-1.672-3.037l1.8-.638a15.325,15.325,0,0,1,1.826,3.059l-1.628.616h4.181l-.044-.022a21.82,21.82,0,0,0,2.311-3.433Zm-2.6,10.98h-5.1a16.635,16.635,0,0,1-.594,1.628h7.657v6.864H494.42v-.7H483.089v.727h-2v-6.888h5.743c.154-.507.308-1.1.418-1.628h-4.378V616.2H494.53Zm-.11,5.963v-2.509H483.089v2.509Zm-9.616-9.7v2.156h7.7v-2.156Z"/><path class="cls-2" d="M522.185,624.843h-7.041a21.044,21.044,0,0,0,7.613,3.059,8.951,8.951,0,0,0-1.386,1.87,19.716,19.716,0,0,1-8.031-4.225v4.511h-2.046V625.7a22.32,22.32,0,0,1-7.965,4.027,9.422,9.422,0,0,0-1.364-1.76,22.051,22.051,0,0,0,7.569-3.125H502.58v-1.76h8.713v-1.365H504.67v-1.562h6.623v-1.342H503.57v-1.672h4.6a10.642,10.642,0,0,0-.946-2.047l.528-.088v-.021l-5.083.021v-1.738h3.322a17.181,17.181,0,0,0-1.628-3.036l1.8-.616a14.986,14.986,0,0,1,1.8,3.213l-1.188.439h2.509v-3.85l2.486.153c-.022.2-.2.353-.528.4v3.3h2.222v-3.85l2.509.153c-.022.22-.2.353-.528.4v3.3h2.333l-.814-.308a23,23,0,0,0,1.628-3.3l2.376.77c-.066.154-.242.242-.528.22a24.688,24.688,0,0,1-1.606,2.618h3.278v1.738H517.63l.418.133c-.066.154-.242.22-.528.22a15.713,15.713,0,0,1-1.056,1.782h4.819v1.672h-7.943v1.342H520.2v1.563h-6.865v1.365h8.845Zm-7.811-7.768a22.537,22.537,0,0,0,1.034-2.068h-6.029a8.717,8.717,0,0,1,.968,2l-.66.133h4.885Z"/><path class="cls-2" d="M544.229,612.169a.72.72,0,0,1-.374.286,21.037,21.037,0,0,1-4.929,7.041,13.519,13.519,0,0,0-1.914-1.21,12.645,12.645,0,0,0,3.784-4.842H525.834v-2.09h16.194l.286-.176Zm-8.493,4.137c-.044.22-.242.374-.572.418-.594,4.994-2.4,9.967-6.865,12.607a15.978,15.978,0,0,0-1.87-1.408c4.313-2.332,5.984-6.82,6.4-11.9Z"/><path class="cls-2" d="M547.857,616.284a32.77,32.77,0,0,1,5.787,2L552.7,620.2a35.646,35.646,0,0,0-5.765-2.09Zm.968,10.518c6.931-2.267,11.859-5.94,14.808-12.5a19.614,19.614,0,0,0,1.914,1.408c-2.97,6.381-8.229,10.518-14.764,12.783a.516.516,0,0,1-.286.572Zm1.584-15.952a37.744,37.744,0,0,1,5.765,2.156l-1.034,1.87a31.406,31.406,0,0,0-5.7-2.267Z"/><path class="cls-2" d="M584,612.478a.652.652,0,0,1-.374.307,34.179,34.179,0,0,1-4.247,7.416,83.618,83.618,0,0,1,7.7,7.107l-1.937,1.672a67.775,67.775,0,0,0-7.173-7.063,34.869,34.869,0,0,1-8.119,7.063,12.8,12.8,0,0,0-1.606-1.694,30.09,30.09,0,0,0,12.388-13.554H570.3v-2.091h11.552l.4-.132Z"/><path class="cls-2" d="M606.621,613.886a.548.548,0,0,1-.33.33,28.819,28.819,0,0,1-3.146,7.084c.858.506,1.914,1.166,2.618,1.7l-1.254,2.09a31.5,31.5,0,0,0-2.685-1.826,21,21,0,0,1-7.657,6.271,6.844,6.844,0,0,0-1.716-1.65,20.536,20.536,0,0,0,7.481-5.765,28.335,28.335,0,0,0-4.291-2.068l1.21-1.717a33.994,33.994,0,0,1,4.356,1.938,20.672,20.672,0,0,0,2.354-5.039h-6.755a23.437,23.437,0,0,1-4.907,5.787,12.764,12.764,0,0,0-1.782-1.387,21.521,21.521,0,0,0,6.821-9.726l2.838.66c-.088.22-.308.308-.66.308-.264.66-.727,1.607-1.1,2.333h6.557l.4-.11Z"/><path class="cls-2" d="M612.295,611.707a27.2,27.2,0,0,1,6.491,2.928l-1.145,1.979a30.082,30.082,0,0,0-6.381-3.036Zm-.418,15.051c7.591-2.332,12.74-6.689,15.336-12.762a14.731,14.731,0,0,0,2.024,1.276c-2.728,6.007-8.053,10.716-15.424,13.245a.708.708,0,0,1-.353.529Z"/><path class="cls-2" d="M645.253,622.136a65.458,65.458,0,0,0-7.283-3.454v10.649h-2.31V610.08l2.948.176c-.022.242-.22.418-.638.506v6.293l.44-.616A77.249,77.249,0,0,1,646.485,620Z"/><path class="cls-2" d="M703.608,614.054H684.88a31.78,31.78,0,0,1-2.64,4.189h19.044v12.918H697.8v-1.373H681.994v1.479H678.65v-8.94a28.951,28.951,0,0,1-5.879,4.435,18.874,18.874,0,0,0-2.077-2.675,26.59,26.59,0,0,0,10.279-10.032h-9.187v-3.168h31.822Zm-1.549-14.011c-.035.282-.282.493-.845.563v7.428H674.426v-8.272l4.189.281c-.035.282-.282.493-.845.563v4.365H685.9v-6.76l4.224.282c-.035.282-.246.493-.81.563v5.914h8.378v-5.21ZM697.8,626.8v-5.562H681.994V626.8Z"/><path class="cls-2" d="M726.312,626.128h15.454v3.379h-32.14v-3.379h13.1V598.742l4.436.246c-.035.316-.282.527-.845.633v9.787H739.3v3.344H726.312Z"/><path class="cls-2" d="M762.743,619.581c-.07.247-.317.388-.739.388a32.3,32.3,0,0,1-2.112,8.413,16.211,16.211,0,0,0-2.358-1.161,32.426,32.426,0,0,0,1.9-8.414Zm6.442-1.372c-.141-.564-.352-1.2-.6-1.9l-2.288.141v14.784h-2.921V616.624c-1.725.106-3.309.212-4.542.247a.635.635,0,0,1-.563.492l-.7-3.449,2.429-.035c.633-.811,1.337-1.761,2.042-2.711a33.446,33.446,0,0,0-4.259-5.1l1.689-2.218c.317.281.634.563.951.881a47.252,47.252,0,0,0,2.921-6.479l3.379,1.338a.948.948,0,0,1-.845.317,54.663,54.663,0,0,1-3.661,6.724c.563.669,1.126,1.338,1.549,1.936a66.1,66.1,0,0,0,3.555-6.2l3.274,1.443a.948.948,0,0,1-.88.352,89.323,89.323,0,0,1-6.724,9.682l4.506-.105c-.493-1.057-1.056-2.113-1.619-3.062l2.358-1.021a32.718,32.718,0,0,1,2.816,5.386,7.563,7.563,0,0,0,4.576-5.315h-4.963v-2.781H778.9v-2.711h-6.794v-2.78H778.9v-3.239l4.083.247c-.035.282-.282.493-.845.563v2.429h7.181v2.78H782.14v2.711h8.835v2.781H784.92v2.57c0,.7.105.809.774.809h1.971c.6,0,.739-.246.81-2.111a8.2,8.2,0,0,0,2.6.985c-.281,2.922-1.056,3.7-2.992,3.7H785.2c-2.746,0-3.344-.774-3.344-3.344v-2.605h-5l2.394.422c-.07.282-.282.423-.7.458a9.949,9.949,0,0,1-5.949,6.724c-.282-.387-.739-.985-1.2-1.514h-.035c.141.457.282.846.387,1.232Zm17.39-.846,2.112.951c-.07.211-.211.281-.352.422a17.033,17.033,0,0,1-5,6.9,26.73,26.73,0,0,0,8.061,2.957,12.539,12.539,0,0,0-1.971,2.675,25.07,25.07,0,0,1-8.66-3.766,31.222,31.222,0,0,1-9.293,3.73,11.09,11.09,0,0,0-1.831-2.5,29.773,29.773,0,0,0,8.73-3.2,20,20,0,0,1-2.746-3.2,19.983,19.983,0,0,1-3.1,2.429,13.3,13.3,0,0,0-1.654-1.971,24.985,24.985,0,0,1,.668,2.534l-2.6.915a37.113,37.113,0,0,0-2.042-6.759l2.429-.774a39.1,39.1,0,0,1,1.443,3.731,17.578,17.578,0,0,0,7.041-8.448L781.294,615c-.07.212-.352.388-.774.388a16.734,16.734,0,0,1-1.091,2.076h6.583Zm-8.906,2.711-.071.105a15.294,15.294,0,0,0,3.239,3.7,13.972,13.972,0,0,0,3.344-3.8Z"/><path class="cls-2" d="M828.146,620.039H816.706a34.877,34.877,0,0,0,12.5,7.5,14.3,14.3,0,0,0-2.359,2.887,37.757,37.757,0,0,1-12.778-8.941v9.75h-3.379V621.8a35.841,35.841,0,0,1-12.672,8.59,17.833,17.833,0,0,0-2.324-2.852,32.839,32.839,0,0,0,12.462-7.5H796.711v-3.062h13.975v-2.57H800.2V599.938h24.677v14.468H814.065v2.57h14.081ZM803.47,602.753v3.063h7.216v-3.063Zm0,8.8h7.216v-3.1H803.47Zm18.023-5.737v-3.063h-7.428v3.063Zm0,5.737v-3.1h-7.428v3.1Z"/><path class="cls-2" d="M234.535,622.775c-.044.221-.242.264-.462.242a18.856,18.856,0,0,1-1.386,5.258,10.637,10.637,0,0,0-1.5-.726,19.224,19.224,0,0,0,1.254-5.259Zm4.225-.836a9.65,9.65,0,0,0-.4-1.211l-1.584.11v9.22h-1.848v-9.109c-1.1.044-2.09.109-2.882.132a.417.417,0,0,1-.374.308l-.44-2.156,1.54-.021c.418-.506.858-1.1,1.276-1.717a19.491,19.491,0,0,0-2.684-3.124l1.034-1.386c.2.176.4.352.594.55a31.512,31.512,0,0,0,1.848-4.093l2.112.881a.6.6,0,0,1-.528.2,32.924,32.924,0,0,1-2.31,4.181,11.732,11.732,0,0,1,1.012,1.21c.858-1.342,1.65-2.729,2.244-3.895l2.046.946a.69.69,0,0,1-.572.2,55.5,55.5,0,0,1-4.181,6.029l2.992-.066c-.33-.66-.682-1.32-1.034-1.914l1.518-.639a18.818,18.818,0,0,1,2.244,4.621Zm.044.264a25.54,25.54,0,0,1,1.474,4.291c-.462.176-.924.33-1.672.594a22.158,22.158,0,0,0-1.386-4.379Zm7.987,2.156v3.19h5.281v1.893H239.6v-1.893h5.149v-3.19h-3.983v-1.87h3.983v-2.97l2.574.153c-.022.177-.176.308-.528.353v2.464h4.225v1.87Zm3.1-13.906,1.408.617a.633.633,0,0,1-.242.285,13.656,13.656,0,0,1-3.741,5.678,14.793,14.793,0,0,0,4.973,1.957,8.249,8.249,0,0,0-1.276,1.738,14.975,14.975,0,0,1-5.325-2.42,18.877,18.877,0,0,1-4.907,2.42,7.173,7.173,0,0,0-1.144-1.693,16.444,16.444,0,0,0,4.51-2.047,13.527,13.527,0,0,1-2.794-4.18l1.364-.4H240.1v-1.871h9.417Zm-6.667,1.959a10.111,10.111,0,0,0,2.464,3.389,11.736,11.736,0,0,0,2.662-3.389Z"/><path class="cls-2" d="M260.143,623.875l2.75-.748c.022.088.044.176.264,1.783-2.6.813-5.347,1.65-7.107,2.134a.46.46,0,0,1-.308.374l-.7-2.223c.858-.2,1.914-.462,3.081-.77v-5.369h-2.552v-1.914h2.552V612.7h-2.75v-1.936h7.437V612.7h-2.662v4.445h2.464v1.914h-2.464Zm9.968,3.631h5.875v1.914h-14.1v-1.914h6.293v-2.883h-4.863v-1.869h4.863v-2.223H263.4v-9.924h11.684v9.924h-4.973v2.223H275.3v1.869h-5.193Zm-4.841-15.094v2.311h2.9v-2.311Zm0,6.314h2.9v-2.332h-2.9Zm7.855-4v-2.311h-3.014v2.311Zm0,4v-2.332h-3.014v2.332Z"/><path class="cls-2" d="M316.7,626.339h-6.055v2.816H307.9V619.017a18.152,18.152,0,0,1-1.267,2.148,23.293,23.293,0,0,0-1.584-2.922c2.147-3.345,3.379-9.224,4.154-15.278h-3.661v-3.027h12.109v3.027H312.26c-.387,2.64-.88,5.28-1.479,7.78H316.7Zm-2.781-2.922v-9.75h-3.274v9.75Zm16.193-4.154a39.383,39.383,0,0,0,1.056,4.049,14.779,14.779,0,0,0,2.323-3.625l3.379,1.02c-.105.247-.387.388-.81.353a19.518,19.518,0,0,1-3.7,5.034c.845,1.549,1.725,2.323,2.781,2.323.88,0,1.267-.95,1.479-3.907a6.418,6.418,0,0,0,2.077,1.619c-.563,3.978-1.408,5.1-3.8,5.1-1.9-.035-3.45-1.2-4.717-3.238a24.752,24.752,0,0,1-5.456,3.168,12.842,12.842,0,0,0-1.8-2.182,21.213,21.213,0,0,0,6.055-3.485,38.148,38.148,0,0,1-1.76-6.231H322.68l-.211,2.043a23.337,23.337,0,0,1,3.978,3.906l-2.042,1.62a22.562,22.562,0,0,0-2.464-2.781c-.81,3.134-2.183,5.667-4.436,7.252a14.663,14.663,0,0,0-1.971-1.937c2.781-1.9,3.943-5.526,4.295-10.1h-2.323v-2.568H326.8a126.665,126.665,0,0,1-1.232-18.411l3.7.211c0,.317-.246.493-.774.563a107.39,107.39,0,0,0,1.162,17.637h4.224a16.575,16.575,0,0,0-2.429-1.69l1.126-.985c-.739.141-1.443.246-2.007.316a.644.644,0,0,1-.493.493l-.986-2.781,1.267-.105a38.042,38.042,0,0,0,2.006-3.274,22.687,22.687,0,0,0-3.344-3.906l1.267-1.866.563.528a47.675,47.675,0,0,0,1.936-4.964l2.992.95c-.106.246-.352.353-.774.388a47.23,47.23,0,0,1-2.6,5.14c.458.492.845.95,1.2,1.408.634-1.2,1.162-2.359,1.584-3.38l2.816,1.091c-.105.247-.352.353-.774.353a79.028,79.028,0,0,1-4.33,7.321l2.816-.281c-.246-.633-.493-1.232-.774-1.795l1.9-.739a20.207,20.207,0,0,1,1.866,5.034l-2.007.809c-.07-.387-.176-.844-.317-1.337l-2.746.458a12.419,12.419,0,0,1,2.6,1.83l-1.091.986h3.274v2.568ZM318.315,612.4c.634-.986,1.3-2.148,1.936-3.38a22.508,22.508,0,0,0-3.309-3.872l1.338-1.795.493.457a45.026,45.026,0,0,0,1.69-5.245l2.957.915a.788.788,0,0,1-.774.353,51.531,51.531,0,0,1-2.359,5.491,12.4,12.4,0,0,1,1.126,1.3c.528-1.162,1.021-2.253,1.408-3.238l2.746,1.056c-.105.247-.352.353-.774.353a74.926,74.926,0,0,1-4.048,7.393l2.675-.282c-.247-.7-.528-1.408-.81-2.042l1.76-.633a21.38,21.38,0,0,1,1.76,5.244l-1.866.67c-.07-.389-.141-.811-.246-1.268-2.218.387-4.224.7-5.667.879a.639.639,0,0,1-.493.529l-.986-2.781Z"/><path class="cls-2" d="M353.128,608.915v2.71c1.2,1.2,4.611,5.035,5.421,6.02l-2.077,2.816a45.368,45.368,0,0,0-3.344-4.822V631.2h-3.239V615.181a35.24,35.24,0,0,1-5.139,9.715,16.14,16.14,0,0,0-1.725-3.168c2.6-2.957,5.139-8.132,6.442-12.813H343.94v-3.169h5.949v-7.5l4.048.212c-.035.317-.246.493-.81.6v6.688h5.1v3.169Zm23.48-3.239v3.2h-3.767v17.988c0,3.7-1.267,4.4-8.378,4.329a16.045,16.045,0,0,0-1.2-3.52c1.408.07,2.746.07,3.8.07,2.288,0,2.394,0,2.394-.88V608.879H359.253v-3.2h10.209v-7.392l4.224.211c-.035.317-.246.493-.845.6v6.582Zm-14.046,6.442a32.352,32.352,0,0,1,4.541,8.343l-3.027,1.549a32.033,32.033,0,0,0-4.295-8.589Z"/><path class="cls-2" d="M400.577,608.844v2.64c1.056,1.338,3.872,5.387,4.506,6.407l-1.936,2.5c-.493-1.162-1.584-3.1-2.57-4.822V631.2h-3.1V615.849a34.274,34.274,0,0,1-4.083,8.871,15.319,15.319,0,0,0-1.619-2.992c2.218-2.957,4.33-8.272,5.421-12.884h-4.576v-3.1h4.858v-7.5l3.907.212c-.035.282-.281.493-.81.563v6.723H404.8v3.1Zm24.677,6.829h-8.836v4.26h8.237v3.1h-8.237v8.2h-3.344v-8.2h-7.956v-3.1h7.956v-4.26h-8.941v-3.133h5.351a28.276,28.276,0,0,0-1.655-6.02l2.852-.775a25.974,25.974,0,0,1,1.83,5.984l-2.675.811h8.73l-2.007-.811a40.1,40.1,0,0,0,2.183-6.09H405.329v-3.1h7.744v-4.295l4.189.212c-.035.317-.282.493-.845.6v3.484h7.991v3.1h-4.752l2.922.986c-.106.246-.422.387-.88.387a45.275,45.275,0,0,1-2.5,5.527h6.055Z"/><line class="cls-3" x1="445.909" y1="632.5" x2="461.309" y2="602.275"/><path class="cls-4" d="M42.078,583.4a65.739,65.739,0,0,1,4.633-20.678,32.737,32.737,0,0,1,11.411-14.414q7.633-5.405,21.193-5.405,11.153,0,18.447,3.175a25.518,25.518,0,0,1,11.669,10.21q4.376,7.039,6.177,18.275a176.441,176.441,0,0,1,1.8,27.37q0,12.7-.858,24.367a65.869,65.869,0,0,1-4.633,20.678,31.145,31.145,0,0,1-11.411,14.157q-7.638,5.147-21.193,5.147-10.984,0-18.361-2.917A23.952,23.952,0,0,1,49.2,653.417q-4.376-7.034-6.177-18.275a176.444,176.444,0,0,1-1.8-27.371Q41.22,595.074,42.078,583.4Zm24.453,48.478a45.194,45.194,0,0,0,2.145,11.5q1.544,4.207,4.118,5.748a12.5,12.5,0,0,0,6.521,1.545,10.691,10.691,0,0,0,6.692-1.973q2.574-1.972,4.032-6.693A59.677,59.677,0,0,0,92.1,629.393q.6-7.891.6-19.562V596.617q0-11.493-.6-18.789a45.4,45.4,0,0,0-2.145-11.5q-1.544-4.2-4.118-5.748a12.512,12.512,0,0,0-6.521-1.545,10.709,10.709,0,0,0-6.692,1.974q-2.574,1.976-4.033,6.692a59.384,59.384,0,0,0-2.059,12.613q-.6,7.894-.6,19.563v13.213Q65.93,624.59,66.531,631.881Z"/><path class="cls-4" d="M150.442,645.094q2.659,5.58,10.725,5.577a14.142,14.142,0,0,0,7.121-1.545,10.771,10.771,0,0,0,4.118-4.2,17.18,17.18,0,0,0,1.888-6.264,64.267,64.267,0,0,0,.429-7.551,48.713,48.713,0,0,0-.6-7.808,18.968,18.968,0,0,0-2.317-6.606,12.494,12.494,0,0,0-4.8-4.633,16.974,16.974,0,0,0-8.237-1.717h-8.237V594.214h8.065a12.429,12.429,0,0,0,6.607-1.629,12.819,12.819,0,0,0,4.29-4.291,19.929,19.929,0,0,0,2.4-6.092,32.746,32.746,0,0,0,.772-7.207q0-8.751-2.917-12.355t-8.923-3.6a12.617,12.617,0,0,0-6.435,1.459,9.937,9.937,0,0,0-3.861,4.119,18.211,18.211,0,0,0-1.8,6.263,66.881,66.881,0,0,0-.429,7.894H125.646q0-18.187,9.095-27.027t26.6-8.837q16.642,0,25.826,7.55t9.181,23.682q0,10.983-4.891,17.932a21.6,21.6,0,0,1-13.642,8.838v.343q11.84,1.891,16.731,9.524t4.891,19.133a55.021,55.021,0,0,1-1.544,12.7,28.409,28.409,0,0,1-6.006,11.84,31.452,31.452,0,0,1-12.269,8.58q-7.811,3.258-20.506,3.26-17.676,0-26.427-9.609t-8.752-27.284v-.515h23.681Q147.78,639.519,150.442,645.094Z"/></g></svg>