<?xml version="1.0" encoding="utf-8"?>
<!-- Generator: Adobe Illustrator 24.1.0, SVG Export Plug-In . SVG Version: 6.00 Build 0)  -->
<svg version="1.1" id="レイヤー_1" xmlns="http://www.w3.org/2000/svg" xmlns:xlink="http://www.w3.org/1999/xlink" x="0px"
	 y="0px" viewBox="0 0 1016 660" style="enable-background:new 0 0 1016 660;" xml:space="preserve">
<style type="text/css">
	.st0{fill:#323232;}
	.st1{fill:#FFFFFF;}
	.st2{fill:#B8D200;}
	.st3{fill:none;}
</style>
<path class="st0" d="M-0.3,0v660h1016.4V0H-0.3z M967.9,535L30.6,573.8l7.2-534.3l940.7-8.6L967.9,535z"/>
<path class="st1" d="M235.2,614.7c1.9,0.8,4,1.8,5.9,2.9c1.5-2.3,2.8-4.8,3.8-7.4l2.9,1.2c-0.2,0.2-0.5,0.4-0.8,0.3
	c-1.1,2.5-2.4,4.8-3.9,7.1c1.6,1,3.1,2,4.5,3.2l-1.5,2c-1.4-1.2-2.8-2.3-4.4-3.3c-2.4,3.4-5.5,6.3-8.9,8.6c-0.5-0.6-1.2-1.1-1.8-1.6
	c3.4-2.2,6.4-4.9,8.8-8.2c-1.9-1.1-3.9-2.2-5.8-3L235.2,614.7z"/>
<path class="st1" d="M269.8,615.3c0,0.1-0.1,0.2-0.2,0.3c-0.3,6.5-1,10.5-1.8,12c-0.6,1.1-1.8,1.7-3.1,1.7c-1.3,0-2.6-0.2-3.9-0.5
	c0-0.7,0-1.5-0.1-2.2c1.2,0.3,2.4,0.5,3.6,0.5c0.7,0.1,1.3-0.3,1.6-1c0.6-1.2,1.1-4.7,1.3-9.2H261c-1.1,4.9-3.1,9.2-7.1,12.3
	c-0.5-0.5-1.1-1-1.8-1.3c3.7-2.8,5.6-6.6,6.5-11H253v-2h6.1c0.2-1.5,0.4-3.1,0.4-4.6l2.9,0.3c0,0.2-0.2,0.4-0.6,0.4
	c-0.1,1.5-0.2,2.6-0.4,3.9h6.4l0.4-0.2L269.8,615.3z"/>
<path class="st1" d="M292.9,624.9v2.1h-18.2v-2.1H292.9z M290.7,613.2v2.1H277v-2.1H290.7z"/>
<path class="st1" d="M299.3,616c0.7,1.5,1.2,3.1,1.6,4.7l-1.7,0.5c-0.3-1.6-0.9-3.2-1.6-4.7L299.3,616z M312.3,616.4
	c-0.1,0.2-0.3,0.3-0.5,0.2c-1.8,6.4-5.1,10.3-10.3,12.4c-0.4-0.5-0.8-1-1.2-1.4c5-1.9,8.1-5.5,9.7-12L312.3,616.4z M304.6,615
	c0.5,1.6,0.8,3.2,1,4.9l-1.8,0.4c-0.2-1.7-0.6-3.3-1.1-4.9L304.6,615z"/>
<path class="st1" d="M332.4,614.5c-0.1,0.2-0.2,0.3-0.4,0.4c-2.4,7.2-5.9,11.6-11.9,14.7c-0.5-0.6-1-1.2-1.6-1.7
	c5.2-2.3,9.1-6.7,10.7-12.2h-7.1c-1.3,2-2.9,3.7-4.8,5.2c-0.5-0.5-1.1-1-1.8-1.4c3.1-2.5,5.6-5.7,7-9.4l2.8,0.7
	c-0.1,0.2-0.4,0.3-0.7,0.3c-0.4,0.9-0.9,1.7-1.3,2.5h7l0.3-0.1L332.4,614.5z"/>
<path class="st1" d="M387.1,606.7c0.1,3.7,0.5,7.4,1,11.1c1.2-2.5,2-5.1,2.6-7.8l3.5,0.8c-0.1,0.3-0.4,0.4-0.8,0.4
	c-0.9,3.9-2.5,7.6-4.5,11c0.7,3.1,1.6,5,2.6,5c0.6,0,1-1.7,1.1-5.5c0.6,0.8,1.4,1.4,2.3,1.8c-0.5,5.3-1.4,6.7-3.8,6.7
	c-1.9,0-3.3-1.9-4.4-5c-1.5,1.8-3.3,3.4-5.3,4.7c-0.6-0.7-1.3-1.4-2.1-2c2.5-1.6,4.7-3.7,6.4-6.2c-0.9-4.9-1.5-10-1.7-15h-8v4.2h5.4
	l1.5,0.1v0.9c-0.1,7.6-0.3,10.4-0.9,11.3s-1.6,1.2-4.9,1.1c-0.1-0.9-0.3-1.8-0.7-2.7c0.8,0.1,1.6,0.1,2.4,0.1c0.3,0,0.6-0.1,0.8-0.4
	c0.3-0.5,0.5-2.4,0.5-7.8h-4.1c0,4-0.2,11.8-4.5,16.6c-0.7-0.8-1.5-1.4-2.4-2c1.9-2.3,3.1-5.1,3.4-8c-3.1,1.5-6.4,3-8.5,3.9
	c0,0.3-0.2,0.5-0.4,0.7l-1.5-3.6c1.1-0.4,2.5-0.9,4.1-1.5v-10.5H363v-3.1h3.4v-7.6l3.7,0.2c0,0.3-0.2,0.4-0.8,0.5v6.8h3.1v3.1h-3.1
	v9.3l3-1.2l0.5,2.4c0.3-1.9,0.4-3.9,0.3-5.8v-10.2H384c-0.1-1.8-0.1-3.7-0.1-5.5l3.9,0.2c0,0.3-0.3,0.5-0.9,0.5c0,1.6,0,3.1,0,4.7
	h4.8c-1.1-1.5-2.4-2.9-3.8-4.2l2.2-1.3c1.5,1.2,2.9,2.5,4,4.1l-2.1,1.4h2.1v2.9H387.1z"/>
<path class="st1" d="M424.4,604.3l2.6,1.6c-0.1,0.2-0.3,0.4-0.6,0.4c-4.5,7.1-10.3,13.4-17.1,18.5c3.4,1.7,7.8,1.7,12.5,1.7
	c2.2,0,5.5,0,6.7,0c-0.5,1-0.9,2-1.1,3.1h-7.9c-7.4,0-12.7-1.1-16.1-6.2c-1.1,2-2.3,3.9-3.6,5.8c0.1,0.1,0.1,0.3,0.1,0.4
	c0,0.2-0.1,0.4-0.2,0.6l-3.3-2.2c2.8-3.2,5-6.9,6.6-10.8l3,1.3c-0.3,0.6-0.6,1.3-1,1.9c0.4,0.9,1,1.7,1.7,2.5
	c5.7-4.2,10.7-9.3,14.7-15.2h-22.9v-3.2h12.3v-6.2l4.1,0.2c0,0.3-0.2,0.5-0.8,0.5v5.4h9.7L424.4,604.3z"/>
<path class="st1" d="M460.5,604.1v22.2c0,3.8-1.8,4-8.2,4c-0.2-1.1-0.6-2.2-1.1-3.2c1.4,0.1,2.7,0.1,3.8,0.1h1.5
	c0.6,0,0.9-0.2,0.9-0.8v-19h-9.5c-0.1,1.3-0.2,2.6-0.5,3.9c3.3,2.9,6.4,5.9,9.2,9.2l-2.7,2.1c-2.3-2.9-4.8-5.6-7.5-8.1
	c-1.6,3.8-4.5,6.9-8.1,8.8c-0.7-0.9-1.4-1.7-2.3-2.4c7.1-3.8,8.4-9.1,8.6-13.5h-8.8v23h-3.2v-26.1h12v-5.8l4.1,0.2
	c0,0.3-0.3,0.5-0.8,0.6v5H460.5z"/>
<path class="st1" d="M503.6,607.9v2.5h-30.9v-2.5h13.8v-1.6h-9.1v-6.2h9.1v-1.9l4,0.2c0,0.3-0.2,0.5-0.8,0.6v1.1h9.7v6.2h-9.7v1.6
	L503.6,607.9z M486.1,626.6c-0.2,0.2-0.4,0.2-0.9,0.2c-3.3,1.4-6.8,2.6-10.4,3.4c-0.7-0.8-1.4-1.5-2.1-2.2c3.4-0.6,6.8-1.6,10-3
	L486.1,626.6z M499.8,624.9h-22.6v-13.1h22.6V624.9z M480.2,613.8v1.8h16.2v-1.8H480.2z M480.2,617.5v1.8h16.2v-1.8H480.2z
	 M480.2,621.2v1.8h16.2v-1.8L480.2,621.2z M480.4,604.3h6.1v-2.2h-6.1V604.3z M496.2,602.2h-6.5v2.2h6.5V602.2z M499.9,630.2
	c-3-1.4-6.1-2.6-9.3-3.5l2.8-1.6c3.7,1.1,7.9,2.5,10.3,3.5L499.9,630.2z"/>
<path class="st1" d="M512.5,605.9v5.9c0,5.3-0.5,13.2-3.8,18.3c-0.8-0.7-1.8-1.3-2.8-1.8c3-4.8,3.3-11.7,3.3-16.5v-9h12.3v-4.6
	l4.1,0.2c0,0.3-0.2,0.5-0.8,0.6v3.8h13v3.1L512.5,605.9z M530.8,616.1c3,3.9,6.3,9.1,7.7,12.6l-3.3,1.5c-0.4-1-0.8-2-1.3-3
	c-7.2,0.5-14.7,1-19.5,1.3c-0.1,0.3-0.3,0.5-0.6,0.5l-1.4-3.7c1.2,0,2.5-0.1,4-0.1c2.2-5.6,3.9-11.4,5.1-17.2l4.3,1.1
	c-0.1,0.3-0.5,0.5-1,0.5c-1.4,5.3-3,10.4-5,15.5l12.6-0.6c-1.4-2.4-2.9-4.8-4.6-7L530.8,616.1z"/>
<path class="st2" d="M41.8,583.4c0.4-7.1,2-14.1,4.6-20.7c2.3-5.8,6.3-10.8,11.4-14.4c5.1-3.6,12.2-5.4,21.2-5.4
	c7.4,0,13.6,1.1,18.5,3.2c4.9,2.1,8.9,5.7,11.7,10.2c2.9,4.7,5,10.8,6.2,18.3c1.3,9.1,1.9,18.2,1.8,27.4c0,8.5-0.3,16.6-0.9,24.4
	c-0.4,7.1-2,14.1-4.6,20.7c-2.3,5.7-6.3,10.7-11.4,14.2c-5.1,3.4-12.2,5.2-21.2,5.2c-7.3,0-13.5-1-18.4-2.9c-4.9-1.9-9-5.4-11.8-10
	c-2.9-4.7-5-10.8-6.2-18.3c-1.3-9.1-1.9-18.2-1.8-27.4C40.9,599.3,41.2,591.2,41.8,583.4z M66.2,631.9c0.2,3.9,0.9,7.8,2.1,11.5
	c1,2.8,2.4,4.7,4.1,5.8c2,1.1,4.2,1.6,6.5,1.5c2.4,0.1,4.8-0.6,6.7-2c1.7-1.3,3.1-3.5,4-6.7c1.1-4.1,1.8-8.4,2.1-12.6
	c0.4-5.3,0.6-11.8,0.6-19.6v-13.2c0-7.7-0.2-13.9-0.6-18.8c-0.2-3.9-0.9-7.8-2.2-11.5c-1-2.8-2.4-4.7-4.1-5.8
	c-2-1.1-4.2-1.6-6.5-1.5c-2.4-0.1-4.7,0.6-6.7,2c-1.7,1.3-3.1,3.6-4,6.7c-1.1,4.1-1.8,8.4-2.1,12.6c-0.4,5.3-0.6,11.8-0.6,19.6v13.2
	C65.6,620.8,65.8,627.1,66.2,631.9L66.2,631.9z"/>
<path class="st2" d="M123.3,664.4c0-5.1,0.5-10.1,1.6-15.1c1.1-4.7,2.8-9.2,5-13.4c2.4-4.4,5.2-8.6,8.4-12.5
	c3.6-4.3,7.6-8.4,11.8-12.3l9.9-9.2c2.4-2,4.6-4.3,6.6-6.7c1.6-1.9,2.9-4,3.9-6.2c0.9-2.1,1.5-4.4,1.8-6.7c0.3-2.7,0.4-5.5,0.4-8.2
	c0-10.1-4-15.1-12-15.1c-4.9-0.4-9.6,2.4-11.4,7c-1,2.4-1.7,4.9-1.9,7.5c-0.3,3-0.4,6.1-0.4,9.1h-23.7v-4.6c0-11.3,3-20,9.1-26.1
	c6.1-6.1,15.6-9.1,28.6-9.1c12.4,0,21.5,2.9,27.4,8.6c5.9,5.7,8.9,13.9,8.9,24.5c0,3.7-0.3,7.3-1,10.9c-0.7,3.4-1.8,6.6-3.3,9.7
	c-1.6,3.2-3.5,6.2-5.8,9c-2.7,3.2-5.6,6.2-8.8,9l-13.7,12.7c-3.3,2.9-6.1,6.1-8.6,9.7c-1.7,2.5-3.1,5.2-3.9,8.2h45.8v19.2
	L123.3,664.4z"/>
<rect class="st3" width="1016" height="660"/>
</svg>
