<svg xmlns="http://www.w3.org/2000/svg" viewBox="0 0 1016.4 660"><defs><style>.cls-1{fill:#323232;}.cls-2{fill:#fff;}.cls-3{fill:#b8d200;}</style></defs><title>アートボード 23</title><g id="main"><path class="cls-1" d="M0,0V660H1016.4V0ZM35.2,578.6,13.2,22l970.2,6.6,15.4,508.2Z"/><path class="cls-2" d="M227,615.23a.62.62,0,0,1-.22.31c-.33,6.54-1,10.52-1.8,12a3.37,3.37,0,0,1-3.06,1.69,22.46,22.46,0,0,1-3.94-.48,15,15,0,0,0-.13-2.2,23.21,23.21,0,0,0,3.65.53,1.5,1.5,0,0,0,1.56-1c.59-1.14,1.12-4.64,1.32-9.18h-6.18c-1.06,4.86-3.06,9.18-7.06,12.34a10.48,10.48,0,0,0-1.78-1.34c3.72-2.84,5.59-6.62,6.53-11h-5.72v-2h6.12c.24-1.54.33-2.84.44-4.62l2.93.26c0,.24-.24.37-.62.44-.13,1.5-.22,2.6-.44,3.92H225l.42-.15Z"/><path class="cls-2" d="M232,618.29h18.37v2.2H232.84a.92.92,0,0,1-.7.4Z"/><path class="cls-2" d="M271.72,617.27a.71.71,0,0,1-.37.29c-1.89,6.69-5.41,9.92-12,11.77a9,9,0,0,0-1.32-1.76c5.74-1.41,9.44-4.47,10.65-8.93H254.73v-2h14.85l.26-.18ZM269.43,613H256.89v-2h12.54Z"/><path class="cls-2" d="M293.32,611.84a.66.66,0,0,1-.48.2.83.83,0,0,1-.22,0,54.44,54.44,0,0,1-6.07,5.13l.59.24a.6.6,0,0,1-.53.37v11.62H284.3v-10.8a65.18,65.18,0,0,1-7.81,4.51,9.73,9.73,0,0,0-1.32-1.69c5.87-2.66,12.45-7.28,15.91-11.22Z"/><path class="cls-2" d="M313.89,613a.67.67,0,0,1-.37.31c-1.83,8.3-6,13.16-13.18,15.82a11.73,11.73,0,0,0-1.47-1.8c6.73-2.2,10.65-7,11.9-12.92H297v-2.09h14.61l.4-.26Z"/><path class="cls-2" d="M336.09,612.17a.72.72,0,0,1-.37.29,21,21,0,0,1-4.93,7,13.51,13.51,0,0,0-1.91-1.21,12.64,12.64,0,0,0,3.78-4.84h-15v-2.09h16.19l.29-.18Zm-8.49,4.14c0,.22-.24.37-.57.42-.59,5-2.4,10-6.86,12.61a15.87,15.87,0,0,0-1.87-1.41c4.31-2.33,6-6.82,6.4-11.9Z"/><path class="cls-2" d="M352.19,622.18a65.31,65.31,0,0,0-7.28-3.43v10.58H342.6V610.08l2.95.18c0,.24-.22.42-.64.51v6.34l.44-.62a73,73,0,0,1,8.08,3.59Zm-2-10.74a18.4,18.4,0,0,1,2.88,3.1l-1.06.9a18.64,18.64,0,0,0-2.82-3.12Zm3-1.94a18,18,0,0,1,2.88,3.08l-1.06.86a21.59,21.59,0,0,0-2.84-3.08Z"/><path class="cls-2" d="M366.6,613.71c0,.2-.26.33-.59.37-.84,5.24-2.64,10.76-5.19,14.06a11.19,11.19,0,0,0-2.09-1.12c2.44-3.06,4.27-8.41,4.93-13.91ZM376.68,628A83.43,83.43,0,0,0,371,614l2.07-1A77.58,77.58,0,0,1,379,627Zm-2.51-18.06a17.27,17.27,0,0,1,2.53,3.15l-1.1.79a18,18,0,0,0-2.51-3.19Zm3-.95a16.39,16.39,0,0,1,2.55,3.12l-1.1.79a19.65,19.65,0,0,0-2.51-3.15Z"/><path class="cls-2" d="M400.46,611.84a.66.66,0,0,1-.48.2.83.83,0,0,1-.22,0,54.44,54.44,0,0,1-6.07,5.13l.59.24a.6.6,0,0,1-.53.37v11.62h-2.31v-10.8a65.16,65.16,0,0,1-7.81,4.51,9.74,9.74,0,0,0-1.32-1.69c5.87-2.66,12.45-7.28,15.91-11.22Z"/><path class="cls-2" d="M423.08,617.16h-4.53v1.12c0,4.42-1.43,8.56-7,11.13a12,12,0,0,0-1.61-1.54c5.3-2.33,6.38-6,6.38-9.55v-1.17h-6.16v5.13H408v-5.13h-4v-2.11h4v-4.64l2.77.18c0,.22-.22.44-.59.51v4h6.16v-4.91l2.79.15c0,.22-.2.4-.59.46v4.29h4.53Zm-3.23-6.27a13.92,13.92,0,0,1,2.4,2.88l-1,.77a16.66,16.66,0,0,0-2.4-2.9ZM422,609a14.91,14.91,0,0,1,2.46,2.9l-1,.77a14.27,14.27,0,0,0-2.42-2.9Z"/><path class="cls-2" d="M427.54,618.29h18.37v2.2H428.42a.92.92,0,0,1-.7.4Z"/><path class="cls-2" d="M459.49,631.09A16.63,16.63,0,0,1,456.41,621a17,17,0,0,1,3.08-10.19h1.91A17.45,17.45,0,0,0,458.52,621a17.71,17.71,0,0,0,2.88,10.1Z"/><path class="cls-2" d="M483.29,610.54c-.09.15-.26.22-.55.22a22.68,22.68,0,0,1-1.87,2.31h3.37v4.49h-2v-2.71H467.43v2.71h-1.91v-4.49h3a16.72,16.72,0,0,0-1.87-2.49l1.76-.81a12.07,12.07,0,0,1,2.13,2.71l-1.19.59h4.73a15.09,15.09,0,0,0-1.67-3l1.8-.64a15.33,15.33,0,0,1,1.83,3.06l-1.63.62h4.18l0,0a21.84,21.84,0,0,0,2.31-3.43Zm-2.6,11h-5.1a16.69,16.69,0,0,1-.59,1.63h7.66V630h-2.07v-.7H469.26V630h-2v-6.89H473c.15-.51.31-1.1.42-1.63H469V616.2H480.7Zm-.11,6V625H469.26v2.51Zm-9.62-9.7v2.16h7.7v-2.16Z"/><path class="cls-2" d="M508.35,624.84h-7a21,21,0,0,0,7.61,3.06,9,9,0,0,0-1.39,1.87,19.72,19.72,0,0,1-8-4.22v4.51h-2V625.7a22.33,22.33,0,0,1-8,4,9.44,9.44,0,0,0-1.36-1.76,22.06,22.06,0,0,0,7.57-3.12h-7v-1.76h8.71v-1.36h-6.62v-1.56h6.62v-1.34h-7.72v-1.67h4.6a10.61,10.61,0,0,0-.95-2l.53-.09v0l-5.08,0v-1.74h3.32a17.15,17.15,0,0,0-1.63-3l1.8-.62a15,15,0,0,1,1.8,3.21l-1.19.44h2.51v-3.85l2.49.15c0,.2-.2.35-.53.4v3.3h2.22v-3.85l2.51.15q0,.33-.53.4v3.3H504l-.81-.31a23,23,0,0,0,1.63-3.3l2.38.77c-.07.15-.24.24-.53.22a24.74,24.74,0,0,1-1.61,2.62h3.28V615H503.8l.42.13c-.07.15-.24.22-.53.22a15.76,15.76,0,0,1-1.06,1.78h4.82v1.67h-7.94v1.34h6.87v1.56h-6.87v1.36h8.85Zm-7.81-7.77a22.66,22.66,0,0,0,1-2.07h-6a8.7,8.7,0,0,1,1,2l-.66.13h4.88Z"/><path class="cls-2" d="M513.78,610.78a16.51,16.51,0,0,1,3.06,10.14,16.94,16.94,0,0,1-3.06,10.17h-1.91a17.73,17.73,0,0,0,2.88-10.17,17.54,17.54,0,0,0-2.88-10.14Z"/><path class="cls-2" d="M552.8,607.89a.74.74,0,0,1-.84.46c-1,4.54-3.06,11.05-6.12,15a17.87,17.87,0,0,0-3.2-1.76c3-3.73,4.93-9.89,5.77-14.64Zm4.89-9.15,4.51.25c0,.32-.25.53-.88.63V626.8c0,3.73-1.34,4.47-9.12,4.4a15.76,15.76,0,0,0-1.34-3.48c1.55.07,3.17.11,4.33.11,2.18,0,2.5,0,2.5-1ZM572.79,624c-.77-4.26-3.59-10.95-6.51-16.09l3.24-1.23c3,5,6,11.51,6.9,15.88Z"/><path class="cls-2" d="M591.3,618.7l.56,2.92c-3.38,1.41-6.9,2.85-9.19,3.73a.78.78,0,0,1-.49.63l-1.55-3.73c1.23-.35,2.75-.84,4.4-1.41V610h-3.66v-3.17H585V598.6l3.87.25c0,.28-.25.46-.77.53v7.46h3.34V610h-3.34v9.79Zm21.33-9.54H596.06v2.71c0,5.81-.7,13.9-5.32,18.9a12.45,12.45,0,0,0-2.43-2.08c4.22-4.68,4.58-11.51,4.58-16.83V599.52h19.75Zm-3.2-6.76H596.06v3.87h13.38Zm.39,18.48,3.7.21c0,.28-.21.49-.74.56v9.47h-3v-1.51H599.75v1.58h-2.89V620.88l3.63.21c0,.28-.21.46-.74.56v5.17h3.48v-7.6h-5.7V611.1l3.45.21c0,.28-.28.46-.77.53v4.75h3v-6.86l3.7.21c0,.28-.21.49-.74.56v6.09h3.2V611.1l3.56.21c0,.28-.25.46-.77.53v7.39h-6v7.6h3.63Z"/><path class="cls-2" d="M639.67,609.76c1.41.7,5.42,3.06,6.41,3.73l-2.32,2.22c-1.09-.92-3.41-2.6-5.14-3.8a15.34,15.34,0,0,1-6.86,5.49,11.57,11.57,0,0,0-2.11-2.25c4.15-1.62,6-3.66,6.86-5.67H630V606.8h7.18c0-.39,0-.77,0-1.13v-1.79H634.6a14,14,0,0,1-2,2.89,15,15,0,0,0-2.43-1.51,17.15,17.15,0,0,0,3.7-7.18l3.48.92c-.07.25-.32.39-.74.35a19.13,19.13,0,0,1-.67,1.83h9.4v2.71h-5v1.83c0,.35,0,.7,0,1.09h5.84v2.68h-6.37Zm-4.29,21.47V616.38h21.68v14.78h-3.45v-1.23h-15v1.3Zm18.23-12.18h-15v2.78h15Zm-15,8.17h15v-2.89h-15Zm8.94-26h13.2V615h-3.31v-1.51h-6.76v1.65h-3.13Zm3.13,9.4h6.76v-6.44h-6.76Z"/><path class="cls-2" d="M694.05,604.9c-.11.25-.39.35-.84.35a35.12,35.12,0,0,1-2.11,3.84h9v3.13h-8.24l2.22,1a.86.86,0,0,1-.81.32c-3.52,2-9.82,3.77-15.35,4.65a11.92,11.92,0,0,0-1.76-2.39c4.72-.56,10.35-1.87,13.69-3.56H674.2v2.43c0,4.79-.7,11.9-4.26,16.58A13.19,13.19,0,0,0,667.3,629c3.2-4.26,3.59-10.21,3.59-14.4v-5.53h6.51a20.62,20.62,0,0,0-1.65-4.4l1.27-.32h-6.79v-2.92h12.14v-3.17l4.15.21c0,.32-.25.49-.81.6v2.36h13v2.92H692.3ZM700,622.54c-.14.25-.46.35-.92.35-4.61,4.54-13.1,7.15-22.81,8.41a10.21,10.21,0,0,0-1.62-3c9.12-.92,17.5-3.17,21.58-7.32Zm-3.38-4.75a.88.88,0,0,1-.84.35c-3.84,2.85-10.74,5-17.35,6.13a13.88,13.88,0,0,0-1.76-2.46c6.23-.88,13.06-2.78,16.51-5.46Zm-8.84-8.94a37.33,37.33,0,0,0,2-4.47H679.06a17.78,17.78,0,0,1,1.73,4.36l-1.37.35h9Z"/><path class="cls-3" d="M42.08,583.4a65.73,65.73,0,0,1,4.63-20.68,32.74,32.74,0,0,1,11.41-14.41q7.63-5.41,21.19-5.41,11.15,0,18.45,3.17a25.52,25.52,0,0,1,11.67,10.21q4.38,7,6.18,18.28a176.44,176.44,0,0,1,1.8,27.37q0,12.7-.86,24.37A65.87,65.87,0,0,1,111.92,647a31.14,31.14,0,0,1-11.41,14.16q-7.64,5.15-21.19,5.15-11,0-18.36-2.92a24,24,0,0,1-11.75-10q-4.38-7-6.18-18.28a176.43,176.43,0,0,1-1.8-27.37Q41.22,595.07,42.08,583.4Zm24.45,48.48a45.2,45.2,0,0,0,2.15,11.5q1.54,4.21,4.12,5.75a12.5,12.5,0,0,0,6.52,1.54,10.69,10.69,0,0,0,6.69-2q2.57-2,4-6.69a59.68,59.68,0,0,0,2.06-12.61q.6-7.89.6-19.56V596.62q0-11.49-.6-18.79A45.39,45.39,0,0,0,90,566.33q-1.54-4.2-4.12-5.75A12.51,12.51,0,0,0,79.32,559a10.71,10.71,0,0,0-6.69,2q-2.57,2-4,6.69a59.37,59.37,0,0,0-2.06,12.61q-.6,7.89-.6,19.56v13.21Q65.93,624.59,66.53,631.88Z"/><path class="cls-3" d="M151.73,578.6h-24.2V562.47h2.23q12.36,0,19.48-4.63t9-14.93h18.19V664.4H151.73Z"/></g></svg>