<svg xmlns="http://www.w3.org/2000/svg" width="287.256" height="199.35" viewBox="0 0 287.256 199.35"><defs><style>.cls-1{fill:none;}.cls-2{fill:#323232;}</style></defs><title>アートボード 59</title><g id="成長期"><rect class="cls-1" width="287.256" height="199.35"/><path class="cls-2" d="M52.7,70.369h.276V2.908h18.21v98.5H48.563L24.283,32.431h-.276v68.977H5.8V2.908H28.7Z"/><path class="cls-2" d="M140.025,19.186H104.847V42.364h33.109V58.642H104.847V85.13H141.4v16.278H84.981V2.908h55.043Z"/><path class="cls-2" d="M169.132,2.908l12.692,31.867L194.377,2.908h21.659l-22.9,48.7,24.556,49.8H195.343L181.134,68.022l-14.072,33.386h-21.8l24.556-49.8L147.2,2.908Z"/><path class="cls-2" d="M283.079,19.186H261.559v82.222H241.693V19.186H220.173V2.908h62.907Z"/><path class="cls-2" d="M286.148,164.413c.005-.055.014-.109.017-.164a3.567,3.567,0,0,0-.014-.6c0-.028-.011-.056-.015-.085a3.543,3.543,0,0,0-.11-.5c-.017-.057-.035-.111-.055-.168a3.513,3.513,0,0,0-.192-.446c-.02-.038-.035-.078-.057-.115a3.466,3.466,0,0,0-.294-.444l-24.2-30.79a3.5,3.5,0,0,0-5.5,4.326l19.748,25.127H5.356a3.5,3.5,0,0,0,0,7H275.473L255.726,192.68a3.5,3.5,0,0,0,5.5,4.326l24.2-30.79c.018-.023.029-.05.046-.073a3.472,3.472,0,0,0,.294-.463c.015-.027.033-.054.047-.081l.009-.016a3.44,3.44,0,0,0,.206-.548c.017-.058.029-.115.042-.174A3.44,3.44,0,0,0,286.148,164.413Z"/></g></svg>