<svg xmlns="http://www.w3.org/2000/svg" width="242.88" height="70.419" viewBox="0 0 242.88 70.419"><defs><style>.cls-1{fill:#323232;}</style></defs><title>アートボード 23</title><g id="main"><path class="cls-1" d="M106.274,46.943h.192V0h12.672V68.544H103.394l-16.9-48h-.192v48H73.634V0H89.57Z"/><path class="cls-1" d="M139.681,48.863a28.868,28.868,0,0,0,.336,4.465,14.531,14.531,0,0,0,1.1,3.84,7.244,7.244,0,0,0,2.016,2.688,4.73,4.73,0,0,0,3.072,1.008,5.383,5.383,0,0,0,4.9-2.4,17.715,17.715,0,0,0,2.112-7.3h11.9q-.385,9.025-4.8,13.729T146.4,69.6q-7.2,0-11.232-2.4a14.883,14.883,0,0,1-5.952-6.336,24.955,24.955,0,0,1-2.352-8.832q-.432-4.9-.432-9.791a67.207,67.207,0,0,1,.72-9.984,24.063,24.063,0,0,1,2.88-8.544,15.635,15.635,0,0,1,6.192-5.952q4.032-2.206,10.752-2.208a20.9,20.9,0,0,1,9.456,1.872,14.287,14.287,0,0,1,5.808,5.28,22.136,22.136,0,0,1,2.88,8.256,69.412,69.412,0,0,1,.768,10.8v2.977H139.681Zm13.152-17.231a13.423,13.423,0,0,0-1.008-3.84,5.369,5.369,0,0,0-2.016-2.4,6.13,6.13,0,0,0-3.312-.816,5.628,5.628,0,0,0-3.312.912,6.563,6.563,0,0,0-2.064,2.4,11.8,11.8,0,0,0-1.1,3.311,20.021,20.021,0,0,0-.336,3.648v2.016h13.536Q153.12,33.89,152.833,31.632Z"/><path class="cls-1" d="M211.489,16.9l-13.44,25.056,14.016,26.592H198.241l-7.68-16.9-7.68,16.9H169.057l14.016-26.592L169.633,16.9h13.824l7.1,15.551,7.1-15.551Z"/><path class="cls-1" d="M235.2,2.111V16.9h7.68V25.92H235.2V53.855a7.852,7.852,0,0,0,.912,4.369q.911,1.295,3.792,1.295c.511,0,1.023-.015,1.536-.047s.992-.08,1.44-.145v9.216q-2.21,0-4.272.144t-4.368.145a30.809,30.809,0,0,1-6.288-.528,6.374,6.374,0,0,1-3.744-2.112,9.079,9.079,0,0,1-1.776-4.176,36.72,36.72,0,0,1-.48-6.527V25.92h-6.72V16.9h6.72V2.111Z"/><path class="cls-1" d="M27.073,70.419a1.875,1.875,0,0,1-1.55-2.927L47.157,35.586,25.523,3.681a1.875,1.875,0,1,1,3.1-2.1L50.974,34.534a1.875,1.875,0,0,1,0,2.1L28.627,69.6A1.873,1.873,0,0,1,27.073,70.419Z"/><path class="cls-1" d="M1.873,70.419a1.875,1.875,0,0,1-1.55-2.927L21.957,35.586.323,3.681a1.875,1.875,0,1,1,3.1-2.1L25.774,34.534a1.875,1.875,0,0,1,0,2.1L3.427,69.6A1.873,1.873,0,0,1,1.873,70.419Z"/></g></svg>