<svg xmlns="http://www.w3.org/2000/svg" viewBox="0 0 257.73 122.5"><defs><style>.cls-1{fill:#fbb03b}</style></defs><title>num_1977</title><g id="レイヤー_2" data-name="レイヤー 2"><path class="cls-1" d="M25.56 46.74L.94 48.32 0 33.75c14.12-1.05 25.68-5.6 28.8-20.87l15-1 7 109.27-20.4 1.31zm96.29 27.76c2.24 34.82-7.07 44.78-28.63 46.17-16 1-28-5.52-28.54-22.89l18.94-1.22c.38 3.63 1.16 9 9.44 8 11.51-.74 9.46-14.5 9.33-21.08l-.45-7c-3.13 3.71-6.09 7.71-15.56 8.31C69 85.94 60.85 74.61 59.41 52.18c-1.76-27.39 4-42 27.64-43.47 24.33-1.56 31.76 13.91 33.12 39.57zM87.64 24.76c-10.63.83-8.82 10.66-7.93 24.65.5 7.87.24 19.73 11.17 19 10.05-.65 9.37-11.28 8.79-20.31-.72-13.53-1.17-25.1-12.03-23.34zm37.72-16.32l61.48-3.95.95 14.72c-8.52 17.66-13.64 35.84-17 54.2a195.37 195.37 0 0 0-3.85 40.33l-21 1.35c.12-23.12 6-45.88 13.05-67.84 2-6 6.46-17.82 10.94-25.57l-43.56 2.8zm69.94-4.49L256.78 0l.95 14.72c-8.52 17.66-13.64 35.84-17 54.2a195.33 195.33 0 0 0-3.85 40.33l-21 1.35c.12-23.12 6-45.88 13.05-67.84 2-6 6.46-17.82 10.94-25.57L196.33 20z" id="history"/></g></svg>