<svg xmlns="http://www.w3.org/2000/svg" viewBox="0 0 278.99 125"><defs><style>.cls-1{fill:#b8d200}</style></defs><title>num_2004</title><g id="レイヤー_2" data-name="レイヤー 2"><path class="cls-1" d="M0 107.8a159.78 159.78 0 0 1 2.94-18.39c1.8-7.49 7.83-17.05 21.21-29.5l10.58-9.85c7-6.72 10.74-10 11.4-20.33.64-9.91-3.1-13.22-8.93-13.59-4.23-.27-8.1.8-9.82 4.78-2.38 4.66-2.11 10.24-2.58 15.33L5.71 35l.2-3C6.53 22.34 7.66-2.16 39.11.15 56.3 1.41 67.71 12.82 66.58 30.3c-.78 12.09-5.89 21-14.89 29L34.6 74.91C30.09 79 23.36 85.75 22.74 93.17l38 2.45-1 16zm77.31-73.73C78.8 10.9 90.4 3.45 108.9 4.65s28.91 10.05 27.41 33.22L133.16 87c-1.49 23.17-13.1 30.76-31.6 29.57s-28.9-10.2-27.4-33.36zm17.24 50.41c-1.37 12.2 2.65 15.68 7.89 16s10.11-2.57 10.32-14.84l3.16-49.1C117.28 24.5 113 21 107.58 20.65s-9.68 2.6-9.87 14.73zm55.61-45.72c1.49-23.17 13.09-30.61 31.59-29.42s28.91 10.05 27.41 33.22L206 91.65c-1.49 23.17-13.1 30.76-31.6 29.57S145.51 111 147 87.85zm17.24 50.41c-1.37 12.2 2.65 15.68 7.89 16s10.11-2.57 10.32-14.84l3.16-49.1c1.36-12.06-2.95-15.55-8.34-15.9s-9.68 2.6-9.87 14.73zm106.73-71.69l-4.46 69.35 9.32.6-1 16-9.32-.6-1.46 22.17-20.4-1.31 1.43-22.15-35.4-2.28 1-16L251.4 16zm-24.86 68l2.85-44.29h-.29l-23 43z" id="history"/></g></svg>