<svg xmlns="http://www.w3.org/2000/svg" viewBox="0 0 257.2 124.34"><defs><style>.cls-1{fill:#b8d200}</style></defs><title>num_1986</title><g id="レイヤー_2" data-name="レイヤー 2"><path class="cls-1" d="M24.62 33.16L0 31.58.94 17c14.14.76 26.19-2.26 31.23-17l15 1-7 109.27-20.4-1.31zM116.57 73c-2.24 34.82-12.75 43.51-34.31 42.12-16-1-27.07-9.06-25.37-26.36L75.83 90c-.09 3.65 0 9.07 8.33 9.17C95.67 99.91 95.4 86 96.11 79.46l.45-7c-3.58 3.28-7 6.86-16.5 6.25-17.34-1.12-24-13.4-22.56-35.83 1.76-27.39 9.38-41.09 33-39.57 24.33 1.57 29.72 17.86 27.78 43.48zM89 19.31c-10.65-.54-10.12 9.44-11 23.43-.51 7.87-2.29 19.6 8.64 20.31 10.05.65 10.74-10 11.32-19C99 30.49 100 19 89 19.31zm41.82 11.91C131.57 19.57 140 6.5 160.7 7.83c20.25 1.3 27.21 11.41 26 29.91-.74 11.51-3.79 18-15.3 21.84v.29c12.36 3.43 15.6 12.71 14.54 28.59-1.56 24.19-13.5 32.49-32 31.3-23.17-1.49-30.47-13.08-29-35.08 1-16.17 5.73-23 17.12-27.28-8.5-5.23-12.24-10.74-11.24-26.18zm23.72 72.48c10-.09 10.49-8.4 11.08-17.57.67-10.34.8-19.26-9-19.89C146 65.7 146 74.63 145.25 86.57c-.59 9.18-.75 16.19 9.28 17.13zm13.24-67c.53-8.3-2.71-12.46-8-12.8-7.87-.51-9.87 5.66-10.35 13.09-.42 6.56 0 14.19 8.27 14.72 8.78.53 9.65-8.48 10.07-15.04zm29.42 17.81c2.24-34.82 12.9-43.51 34.46-42.11 16 1 27.07 9.06 25.37 26.36l-18.94-1.22c.09-3.65.15-9.21-8.19-9.16-11.57.13-11.38 13.17-12.09 19.7l-.45 7c3.58-3.28 7-6.86 16.5-6.25 17.34 1.12 23.86 13.39 22.42 35.82-1.76 27.39-9.23 41.1-32.83 39.58-24.33-1.57-29.86-17.87-27.92-43.49zm27.56 53.71c10.65.54 10.12-9.44 11-23.43.51-7.87 2.29-19.6-8.64-20.31-10.05-.65-10.74 10-11.32 19-1 13.52-2.03 25.06 8.96 24.74z" id="history"/></g></svg>