<svg xmlns="http://www.w3.org/2000/svg" width="263.62" height="124.57" viewBox="0 0 263.62 124.57"><title>num_2017_1</title><path d="M4.12 124.57A159.83 159.83 0 0 1 4.68 106c.83-7.7 5.58-18 17.26-32l9.23-11.13c6.1-7.56 9.37-11.28 8.71-21.63-.64-9.91-4.77-12.71-10.59-12.34-4.23.27-7.93 1.83-9.12 6-1.73 4.94-.79 10.44-.61 15.55L.46 51.66.27 48.6C-.35 39-2.36 14.53 29.13 12.8c17.2-1 30 8.9 31.1 26.38.78 12.09-3.15 21.56-11 30.7l-15 17.64c-3.94 4.64-9.75 12.18-9.42 19.62l38-2.44 1 16zm70.15-83.21c-1.49-23.17 9.06-32 27.56-33.22s30 6.27 31.44 29.43l3.15 49.1c1.49 23.17-9.05 32.18-27.56 33.37s-30-6.42-31.45-29.58zm23.55 47.79c.2 12.28 4.63 15.21 9.88 14.87s9.7-3.84 8.33-16l-3.15-49.1c-.19-12.13-4.92-15-10.31-14.7S93.3 28 94.66 40zm70.59-51.2l-24.62 1.58-.94-14.53c14.12-1.05 25.68-5.6 28.8-20.87l15-1 7 109.27-20.4 1.31zm32.78-34L262.68 0l.95 14.72c-8.52 17.66-13.64 35.84-17 54.2a195.36 195.36 0 0 0-3.85 40.33l-21 1.35c.12-23.12 6-45.88 13.05-67.84 2-6 6.46-17.82 10.94-25.57L202.22 20z" fill="#fbb03b" data-name="レイヤー 2"/></svg>