<svg xmlns="http://www.w3.org/2000/svg" viewBox="0 0 262.19 122.97"><defs><style>.cls-1{fill:#fbb03b}</style></defs><title>num_1996</title><g id="レイヤー_2" data-name="レイヤー 2"><path class="cls-1" d="M25.56 47.21L.94 48.79 0 34.22c14.12-1.05 25.68-5.6 28.8-20.87l15-1 7 109.27L30.42 123zM121.85 75c2.24 34.82-7.07 44.78-28.63 46.17-16 1-28-5.52-28.54-22.89L83.62 97c.38 3.63 1.16 9 9.44 8 11.51-.74 9.46-14.51 9.33-21.08l-.45-7c-3.13 3.71-6.09 7.71-15.56 8.31C69 86.4 60.85 75.08 59.41 52.64c-1.76-27.39 4-42 27.64-43.47 24.33-1.56 31.76 13.91 33.12 39.57zM87.64 25.23c-10.63.83-8.82 10.66-7.93 24.65.5 7.87.24 19.73 11.17 19 10.05-.65 9.37-11.28 8.79-20.31C98.95 35 98.5 23.5 87.64 25.23zm104.15 45.24c2.24 34.82-7.07 44.78-28.63 46.17-16 1-28-5.52-28.54-22.89l18.94-1.22c.38 3.63 1.16 9 9.44 8 11.51-.74 9.46-14.5 9.33-21.08l-.45-7c-3.13 3.71-6.09 7.71-15.56 8.31-17.34 1.11-25.53-10.21-27-32.65-1.76-27.39 4-42 27.64-43.47 24.33-1.56 31.76 13.91 33.12 39.57zm-34.21-49.74c-10.63.83-8.82 10.66-7.93 24.65.5 7.87.24 19.73 11.17 19 10.05-.65 9.37-11.28 8.79-20.31-.72-13.53-1.17-25.07-12.03-23.34zm41.87 25.55C197.21 11.46 206.67 1.49 228.23.1c16-1 28 5.52 28.53 22.89l-18.94 1.22c-.38-3.63-1-9.15-9.29-8-11.45 1.61-9.6 14.51-9.47 21.09l.45 7c3.13-3.71 6.09-7.71 15.56-8.31 17.34-1.11 25.38 10.22 26.82 32.66 1.76 27.35-3.89 41.9-27.49 43.41-24.33 1.56-31.91-13.9-33.26-39.56zM233.66 96c10.63-.83 8.82-10.66 7.93-24.65-.51-7.87-.24-19.73-11.17-19-10.05.65-9.37 11.28-8.79 20.31.72 13.55 1.17 25.08 12.03 23.34z" id="history"/></g></svg>