<svg xmlns="http://www.w3.org/2000/svg" viewBox="0 0 258.49 124.29"><defs><style>.cls-1{fill:#b8d200}</style></defs><title>num_1969</title><g id="レイヤー_2" data-name="レイヤー 2"><path class="cls-1" d="M24.62 33.16L0 31.58.94 17c14.14.76 26.19-2.26 31.23-17l15 1-7 109.27-20.4-1.31zM116.56 73c-2.24 34.82-12.75 43.51-34.31 42.12-16-1-27.07-9.06-25.37-26.36L75.82 90c-.09 3.65 0 9.07 8.33 9.17 11.52.75 11.24-13.17 11.96-19.71l.45-7c-3.58 3.28-7 6.86-16.5 6.25-17.34-1.12-24-13.4-22.56-35.83 1.76-27.39 9.38-41.09 33-39.57 24.33 1.57 29.72 17.86 27.77 43.48zM89 19.32c-10.65-.54-10.12 9.44-11 23.43-.51 7.87-2.29 19.6 8.64 20.31 10.05.65 10.74-10 11.32-19C99 30.49 100 19 89 19.32zm41.18 30.88c2.24-34.82 12.9-43.5 34.46-42.11 16 1 27.07 9.06 25.37 26.36l-18.94-1.22c.09-3.65.15-9.21-8.19-9.16-11.57.13-11.38 13.17-12.1 19.7l-.45 7c3.58-3.28 7-6.86 16.5-6.25 17.34 1.12 23.86 13.39 22.42 35.82-1.76 27.39-9.23 41.1-32.83 39.58-24.33-1.57-29.86-17.87-27.92-43.49zm27.56 53.71c10.65.54 10.12-9.44 11-23.43.51-7.87 2.29-19.6-8.64-20.31-10.05-.65-10.74 10-11.32 19-1.01 13.57-2.04 25.06 8.95 24.74zM256.43 82c-2.24 34.82-12.75 43.51-34.31 42.12-16-1-27.07-9.06-25.37-26.36L215.69 99c-.09 3.65 0 9.07 8.33 9.17 11.51.74 11.24-13.17 11.95-19.71l.45-7c-3.58 3.28-7 6.86-16.5 6.25-17.34-1.12-24-13.4-22.56-35.83 1.76-27.39 9.38-41.09 33-39.57 24.33 1.57 29.72 17.86 27.77 43.48zm-27.55-53.67c-10.65-.54-10.12 9.44-11 23.43-.51 7.87-2.29 19.6 8.64 20.31 10.05.65 10.74-10 11.32-19 1-13.57 2.03-25.07-8.96-24.74z" id="history"/></g></svg>