<svg xmlns="http://www.w3.org/2000/svg" width="419.502" height="613.697" viewBox="0 0 419.502 613.697"><defs><style>.cls-1{fill:#c6db33}.cls-2{fill:#d4e466}.cls-3{fill:#dfeb8c}.cls-4{fill:#e2ed99}</style></defs><title>アートボード 7</title><g id="創業期"><path class="cls-1" transform="rotate(-125 249.612 389.523)" d="M177.715 346.385h143.794v86.276H177.715z"/><path class="cls-1" transform="rotate(-125.03 303.908 467.24)" d="M289.668 425.564h28.759v83.401h-28.759z"/><path class="cls-1" d="M25.909 528.608l16.495 23.558 189.994-134.79-14.846-21.202L25.909 528.608z"/><path class="cls-1" transform="rotate(-125.03 21.094 549.37)" d="M6.82 542.27h28.759v14.379H6.82z"/><path class="cls-1" transform="rotate(-125.03 195.086 311.765)" d="M180.798 270.082h28.759v83.401h-28.759z"/><path class="cls-2" transform="rotate(-135 215.644 246.427)" d="M143.747 203.289h143.794v86.276H143.747z"/><path class="cls-2" transform="rotate(-135 282.751 313.534)" d="M268.372 271.834h28.759v83.401h-28.759z"/><path class="cls-2" d="M19.491 422.244l20.335 20.336 163.702-165.735-18.302-18.302L19.491 422.244z"/><path class="cls-2" transform="rotate(-135 18.474 443.597)" d="M4.095 436.407h28.759v14.379H4.095z"/><path class="cls-2" transform="rotate(-135 148.537 179.32)" d="M134.157 137.619h28.759v83.401h-28.759z"/><path class="cls-3" transform="rotate(-180 322.298 571.422)" d="M233.145 560.781H411.45v21.282H233.145z"/><path class="cls-3" transform="rotate(-180 322.298 602.193)" d="M225.093 590.69h194.41v23.007h-194.41z"/><path class="cls-4" transform="rotate(-145 175.839 96.841)" d="M103.942 53.703h143.794v86.276H103.942z"/><path class="cls-4" transform="rotate(-145 253.58 151.276)" d="M239.2 109.576h28.759v83.401H239.2z"/><path class="cls-4" d="M13.196 304.05l23.558 16.495 132.435-191.643-21.202-14.846L13.196 304.05z"/><path class="cls-4" transform="rotate(-145 15.903 325.254)" d="M1.523 318.064h28.759v14.379H1.523z"/><path class="cls-4" transform="rotate(-145 98.098 42.407)" d="M83.719.706h28.759v83.401H83.719z"/></g></svg>