<svg xmlns="http://www.w3.org/2000/svg" width="1038.159" height="319.355" viewBox="0 0 1038.159 319.355"><defs><style>.cls-1{fill:#323232}</style></defs><title>アートボード 28</title><path class="cls-1" d="M497.561 54.479H460.63v-24.62h3.4q18.858 0 29.728-7.072T507.514 0h27.764v185.439h-37.717zm110.398 104.114q3.794 5.893 13.227 5.893 7.594 0 12.049-3.536a23.043 23.043 0 0 0 6.94-9.822 54 54 0 0 0 3.274-14.929q.785-8.644.785-18.858v-8.905h-.523a33.577 33.577 0 0 1-13.489 11.394q-8.778 4.321-21.346 4.322-12.314 0-20.954-4.322a36.767 36.767 0 0 1-14.013-12.048 52.907 52.907 0 0 1-7.857-18.334 101.305 101.305 0 0 1-2.488-23.18q0-32.216 14.274-49.241T623.543 0q19.38 0 30.906 7.2a48.4 48.4 0 0 1 17.68 19.12 80.073 80.073 0 0 1 7.989 27.632 283.138 283.138 0 0 1 1.833 32.74q0 19.908-1.179 38.371t-7.072 32.613a48.187 48.187 0 0 1-18.6 22.395q-12.708 8.25-35.49 8.25a92.822 92.822 0 0 1-19.251-1.965 40.507 40.507 0 0 1-16.37-7.333 38.545 38.545 0 0 1-11.389-14.406q-4.321-9.036-4.583-22.394h36.145q-.001 10.477 3.797 16.37zm-1.965-70.326q4.715 8.122 15.715 8.12 11.259 0 15.977-8.12T642.4 61.29a128.169 128.169 0 0 0-.786-14.667 38.6 38.6 0 0 0-3.014-11.657 18.047 18.047 0 0 0-6.286-7.6q-4.063-2.75-10.608-2.75-6.814 0-10.87 2.75a17.034 17.034 0 0 0-6.155 7.727 39.928 39.928 0 0 0-2.75 11.655q-.656 6.679-.655 14.537.004 18.862 4.718 26.982zM756.335 188.44h-39.55a3 3 0 0 1-2.977-3.372c1.4-11.221 3.534-23.172 6.337-35.521a317.41 317.41 0 0 1 11.238-37.947 337.382 337.382 0 0 1 17.045-38.849 284.736 284.736 0 0 1 20.4-33.608h-72.211a3 3 0 0 1-3-3V3.667a3 3 0 0 1 3-3h114.2a3 3 0 0 1 3 3v28.811a3 3 0 0 1-.553 1.736 243.477 243.477 0 0 0-20.309 34.41 348.415 348.415 0 0 0-26.877 77.514c-2.931 13.35-5.206 26.693-6.762 39.658a3 3 0 0 1-2.981 2.644zm-36.132-6h33.48c1.564-12.322 3.759-24.953 6.532-37.586A354.41 354.41 0 0 1 787.556 66a249.882 249.882 0 0 1 20.259-34.477V6.667h-108.2v26.478h75.055a3 3 0 0 1 2.42 4.772 281.683 281.683 0 0 0-23.325 37.576 331.4 331.4 0 0 0-16.742 38.155A311.428 311.428 0 0 0 726 150.875c-2.484 10.925-4.429 21.525-5.8 31.565zm90.611-149.962zm20.953 152.961a101.806 101.806 0 0 1 2.488-23.049 84.583 84.583 0 0 1 7.6-20.43 110.173 110.173 0 0 1 12.834-18.989 197.039 197.039 0 0 1 17.941-18.728L887.818 90.1A84.223 84.223 0 0 0 897.9 79.886a43.142 43.142 0 0 0 5.893-9.429 35.336 35.336 0 0 0 2.75-10.215 107.941 107.941 0 0 0 .655-12.572q0-23.045-18.335-23.049-7.071 0-11.131 2.881a18.793 18.793 0 0 0-6.286 7.857 37.076 37.076 0 0 0-2.881 11.524q-.657 6.55-.655 13.882h-36.143v-7.071q0-25.93 13.881-39.812T889.39 0q28.287 0 41.91 13.1t13.62 37.455a83.379 83.379 0 0 1-1.572 16.632 62.929 62.929 0 0 1-4.977 14.8 68.277 68.277 0 0 1-8.905 13.751 129.521 129.521 0 0 1-13.357 13.751l-20.954 19.382a78.54 78.54 0 0 0-13.1 14.8q-4.715 7.207-6.024 12.441h69.933v29.335zm206.392-67.157H964.3V98.193h73.861zM61.248 277.2H41.8l.283 29.7c.142 10.042-6.153 10.042-19.944 10.042a43.67 43.67 0 0 0-2.263-8.133c1.839.071 3.89.071 5.729.071 6.719 0 7.779 0 7.638-2.122l-.212-22.844a97 97 0 0 1-26.737 23.63A31.212 31.212 0 0 0 0 300.825 89.745 89.745 0 0 0 27.865 277.2H3.466v-8.416h29.35l-.142-14.216 10.892.432c-.071.778-.566 1.344-1.98 1.485l.142 12.306h19.52zm12.471 3.045h53.143v8.911h-50.47a3.023 3.023 0 0 1-2.164 1.344zM157 318.233a1 1 0 0 1-.8-.4 32.311 32.311 0 0 0-6.418-6.568 1 1 0 0 1 .147-1.727c16.106-7.538 26.694-18.883 32.331-34.659h-18.853a76.585 76.585 0 0 1-14.978 15.979 1 1 0 0 1-1.328-.076 46.543 46.543 0 0 0-7.1-5.656 1 1 0 0 1-.08-1.646 69.077 69.077 0 0 0 21.875-29.535 1 1 0 0 1 1.166-.631l11.245 2.617a1 1 0 0 1 .722 1.291 2.978 2.978 0 0 1-2.619 1.914c-.749 1.625-1.592 3.207-2.41 4.742l-.349.656h18.267l1.062-.531a1 1 0 0 1 .953.032l7.355 4.314a1 1 0 0 1 .389 1.31 4.24 4.24 0 0 1-1.621 1.557c-8.145 23.388-19.673 37.427-38.5 46.911a1 1 0 0 1-.456.106zm-4.75-7.592a37.421 37.421 0 0 1 5.036 5.324c18.2-9.376 28.924-22.689 36.889-45.737a1 1 0 0 1 .415-.521c.15-.094.307-.192.458-.292l-5.765-3.382-.788.394a1 1 0 0 1-.447.106h-20.155a1 1 0 0 1-.889-1.458c.361-.7.741-1.414 1.127-2.138.893-1.677 1.817-3.412 2.6-5.166a1 1 0 0 1 .465-.488l-7.834-1.823a70.485 70.485 0 0 1-21.121 28.744 52.735 52.735 0 0 1 5.629 4.538 73.809 73.809 0 0 0 14.168-15.414 1 1 0 0 1 .835-.45h20.793a1 1 0 0 1 .948 1.317c-5.531 16.517-16.125 28.453-32.362 36.447zm57.298-36.479a101.384 101.384 0 0 1 18.105 6.577l-3.819 7.709a105.2 105.2 0 0 0-18.105-6.931zm1.98 32.958c21.712-6.719 37.484-18.247 47.173-39.181a95.474 95.474 0 0 0 7.709 5.8c-9.619 20.156-26.875 33.594-47.173 40.455a1.74 1.74 0 0 1-1.131 1.909zm6.506-50.356a109.138 109.138 0 0 1 18.247 7l-4.385 7.5a97.842 97.842 0 0 0-17.822-7.5zm97.455 16.125V316.6h-7.072v-2.9h-30.129v-6.58h30.129v-10.538H281.33V290h27.087v-10.534h-28.5v-6.577zm21.921-13.65c7.073 2.192 15.56 5.941 20.723 9.335l-4.668 8.063a103.257 103.257 0 0 0-20.228-9.689zm-2.4 47.88c23.834-7.355 40.242-21.217 48.446-40.667a53.5 53.5 0 0 0 8.274 5.233c-8.77 19.308-25.673 34.373-49.083 42.647a2.471 2.471 0 0 1-1.2 1.839zm132.247-14.144v6.436h-7.5v12.448h-8.628v-2.971h-12.8c0 8.558-.5 10.4-16.408 10.4a26.388 26.388 0 0 0-2.758-6.719c3.4.142 7.639.142 8.77.142 1.344-.071 1.768-.5 1.768-1.7v-2.122h-21.64v-6.153H429.7v-3.324h-28.217v-6.436H429.7v-3.041h-21.074v-5.8H429.7v-2.829h-19.305v-14.853H429.7v-2.687h-26.59v-6.719h26.59v-4.668l10.538.424c-.071.778-.566 1.273-1.91 1.485v2.758h27.3v6.719h-27.3v2.688h20.3v14.852h-20.3v2.829h21.432v8.84zm-48.73-17.045H429.7v-4.1h-11.173zm31.4-4.1h-11.6v4.1h11.6zm-11.6 18.105v3.041h12.8v-3.041zm12.8 12.8v-3.324h-12.8v3.324zm91.373.141h-20.578c6.012 3.677 14.287 6.436 22.561 7.779a35.783 35.783 0 0 0-5.729 7.709 60.89 60.89 0 0 1-23.976-12.023v12.8h-8.416v-12.375a69.477 69.477 0 0 1-23.905 11.528 40.1 40.1 0 0 0-5.446-7.073c7.992-1.626 16.408-4.6 22.561-8.345h-20.438v-7h27.229v-3.183h-20.581v-6.153h20.581v-3.183h-24.117v-6.648h13.579a32.465 32.465 0 0 0-2.4-5.587l.849-.142v-.071l-14.923.071v-6.931h9.548a57.578 57.578 0 0 0-4.456-8.84l7.285-2.476a50.642 50.642 0 0 1 5.446 10.043l-3.466 1.273h6.507v-11.67l9.76.5c-.07.707-.636 1.2-1.839 1.344v9.831h5.234v-11.675l9.972.5c-.071.778-.707 1.2-1.91 1.415v9.76h6.012l-2.475-.919a57.694 57.694 0 0 0 4.738-10.184l9.548 2.97c-.212.566-.849.849-1.839.778-1.2 2.192-2.9 5.021-4.526 7.355h9.406v6.931h-12.947l.636.212a1.755 1.755 0 0 1-1.838.707 50.844 50.844 0 0 1-2.759 4.809h14.145v6.648h-24.754v3.183h21.43v6.153h-21.43v3.183H542.5zm-25.814-26.168a157.477 157.477 0 0 0 2.617-5.729H502.4a38.513 38.513 0 0 1 2.4 5.517l-1.2.212v.071zm66.904-20.722c-.142.99-1.061 1.344-2.334 1.485-.637 3.465-1.7 9.548-2.476 13.65 1.839-.212 4.385-.424 5.8-.424 11.67-.071 15.277 8.133 15.277 19.166v.071c-.283 15.63-4.668 26.734-15.489 26.734-2.829 0-7.073-1.344-12.73-5.8a42.846 42.846 0 0 0 2.97-7.638c4.81 3.395 7.568 4.243 9.477 4.243 2.971 0 4.385-2.4 5.517-6.436a53.765 53.765 0 0 0 1.485-11.6c-.071-7-2.192-10.538-7.214-10.538a54.414 54.414 0 0 0-6.79.495c-3.183 12.943-7.072 25.532-13.084 36.918l-8.2-4.031a122.991 122.991 0 0 0 12.235-31.9c-2.546.424-7.638 1.132-10.75 1.7l-.777-8.77 13.154-1.485c.919-5.163 1.839-11.1 2.476-17.044zm17.893 10.4a36 36 0 0 0-8.2-9.831l4.173-2.9a41.023 41.023 0 0 1 8.416 9.76zm9.335 28.29c-1.7-9.053-6.294-18.318-11.74-23.269l7.5-4.668a47.706 47.706 0 0 1 13.508 24.683zm1.768-31.189a39.37 39.37 0 0 0-8.133-9.831l4.1-2.829a37.1 37.1 0 0 1 8.417 9.76zm74.541.279c4.314 5.8 8.911 13.438 10.538 18.813l-7.355 3.89a39.513 39.513 0 0 0-1.485-4.314 1493.84 1493.84 0 0 1-26.8 2.192 1.345 1.345 0 0 1-1.273 1.061l-2.971-8.982a83.9 83.9 0 0 1-5.233 22.278 53.248 53.248 0 0 1 7.78 7.5l-5.092 6.86a55.2 55.2 0 0 0-6.436-6.79 38.825 38.825 0 0 1-12.942 13.084 28.076 28.076 0 0 0-5.092-6.719 30.027 30.027 0 0 0 11.669-11.74c-1.273-1.061-2.617-1.98-3.89-2.971l-.566 2.264-6.931-3.607c1.627-5.87 3.4-13.862 5.092-22.137h-5.587v-7.85h7.072c.919-4.951 1.768-9.76 2.475-14.145l9.619.99c-.071.636-.636 1.061-1.839 1.131-.707 3.678-1.485 7.78-2.334 12.023h7.426l1.415-.212 4.526 1.061-.424 1.415c-.142 2.617-.424 5.092-.708 7.5l5.8-.142a163.35 163.35 0 0 0 6.719-23.834l10.467 2.4c-.212.636-.99 1.061-2.051 1.131a172.449 172.449 0 0 1-7 19.944c4.385-.141 9.053-.354 13.72-.566a99.562 99.562 0 0 0-5.021-8.133zm-43.213 10.679c-1.131 5.3-2.334 10.68-3.465 15.63 1.7 1.061 3.536 2.263 5.375 3.536a85.5 85.5 0 0 0 4.243-19.167zm18.671 44.7V289.3h31.331v29.56H685.5v-2.546h-14.852v2.829zm22.915-22.139h-14.852v11.6H685.5zm22.84-34.655c4.314.283 11.1.283 16.408.283 2.263 0 4.6-.07 6.719-.141-.071-3.041-.142-6.507-.142-8.628l11.033.5c-.071.778-.708 1.273-1.839 1.485v6.365a149.317 149.317 0 0 0 21.43-2.4l.849 8.2a188.123 188.123 0 0 1-22.278 2.122c0 3.324.071 6.577.142 9.831a143.91 143.91 0 0 0 17.822-2.4l.708 7.85a133.33 133.33 0 0 1-18.389 2.051c.071 3.465.283 6.648.424 9.194a69.669 69.669 0 0 1 19.1 9.972l-5.375 7.709a58.714 58.714 0 0 0-13.437-9.124v2.051c-.142 5.8-4.88 9.76-14.782 9.76-9.406 0-15.771-4.6-15.771-11.316 0-7.143 7.568-11.387 16.125-11.387a28.687 28.687 0 0 1 5.446.425c0-2.122-.142-4.526-.212-7.073-1.91.071-3.89.071-5.517.071-9.618-.142-15.63-1.556-15.559-6.79 0-2.97 2.192-5.658 7.355-8.77l6.012 3.112c-2.546 1.132-4.314 2.4-4.314 3.466 0 1.131.919 1.7 7.992 1.7 1.2 0 2.476 0 3.819-.071l-.425-10.043c-2.192.071-4.667.071-6.931.071-4.88 0-12.023-.141-16.408-.141zm24.4 39.606a25.791 25.791 0 0 0-6.294-.99c-4.385 0-7.709 1.839-7.709 4.6 0 2.829 3.465 4.314 8.063 4.314 4.173 0 6.012-1.768 6.012-5.163zm65.489-19.944a37.289 37.289 0 0 1 13.508-2.617c10.75 0 18.176 6.578 18.176 17.681 0 12.66-11.033 20.015-26.451 20.015-9.124 0-15.56-4.173-15.56-11.316 0-5.729 5.8-10.4 12.448-10.4 7.5 0 13.155 5.021 14.357 11.174a10.2 10.2 0 0 0 5.87-9.406c0-6.082-5.021-9.972-12.165-9.972-9.619 0-18.53 4.031-23.551 8.77-1.7 1.556-4.526 4.385-6.365 6.436l-6.294-6.294c5.021-5.021 22.844-21.925 32.321-30.695-3.465.5-15.7 1.132-21.358 1.485a2.635 2.635 0 0 1-1.7 1.061l-.778-9.972c9.053 0 29-.778 33.665-1.556l1.061-.5 5.729 7.214a3.587 3.587 0 0 1-2.051.778c-3.678 2.688-15.064 12.872-20.864 18.035zm3.749 27.37a26.2 26.2 0 0 0 4.314-.424c-.5-3.749-3.466-6.436-6.648-6.436-2.334 0-4.456 1.2-4.456 3.253 0 3.324 4.455 3.607 6.789 3.607zm58.622-.141a9.9 9.9 0 1 1-9.9-9.9 9.931 9.931 0 0 1 9.9 9.9zm-3.183 0a6.684 6.684 0 1 0-6.719 6.648 6.672 6.672 0 0 0 6.722-6.648z" id="成長期"/></svg>