<svg xmlns="http://www.w3.org/2000/svg" width="724.255" height="69.691" viewBox="0 0 724.255 69.691"><defs><style>.cls-1{fill:#323232}</style></defs><title>アートボード 51</title><path class="cls-1" d="M61.247 26.252H41.8l.283 29.7C42.223 66 35.928 66 22.137 66a43.639 43.639 0 0 0-2.264-8.134c1.839.071 3.891.071 5.729.071 6.719 0 7.779 0 7.638-2.122l-.212-22.844A97.007 97.007 0 0 1 6.294 56.593 31.186 31.186 0 0 0 0 49.874a89.751 89.751 0 0 0 27.865-23.622h-24.4v-8.417h29.351L32.675 3.62l10.892.424c-.071.778-.566 1.344-1.98 1.485l.142 12.306h19.52zm12.939 3.041h59.054V38.2H77.156a3.422 3.422 0 0 1-2.405 1.344zM200.355 18.26a4.139 4.139 0 0 1-1.555 1.34c-7.992 23.127-19.025 37.06-38.12 46.678a33.319 33.319 0 0 0-6.648-6.789c17.681-8.274 28.007-20.723 33.312-36.564H166.55a74.9 74.9 0 0 1-15.064 16.2 47.691 47.691 0 0 0-7.285-5.8 69.671 69.671 0 0 0 22.207-29.988l11.245 2.617a2.247 2.247 0 0 1-2.334 1.272c-1.132 2.546-2.546 5.021-3.748 7.355h20.156l1.273-.636zm12.871 4.95a101.382 101.382 0 0 1 18.105 6.578l-3.819 7.712a105.214 105.214 0 0 0-18.105-6.932zm1.979 32.958c21.713-6.719 37.484-18.247 47.174-39.182a95.168 95.168 0 0 0 7.709 5.8c-9.619 20.156-26.875 33.594-47.174 40.454a1.74 1.74 0 0 1-1.131 1.91zm6.507-50.355a109.139 109.139 0 0 1 18.247 7l-4.385 7.5a97.891 97.891 0 0 0-17.822-7.5zm97.455 16.125v43.708h-7.072v-2.9h-30.128v-6.578h30.128V45.63h-27.087v-6.577h27.087V28.515h-28.5v-6.577zm21.922-13.651c7.072 2.193 15.56 5.941 20.722 9.336l-4.668 8.063A103.316 103.316 0 0 0 336.916 16zm-2.405 47.881c23.835-7.355 40.242-21.217 48.446-40.666a53.62 53.62 0 0 0 8.275 5.233c-8.771 19.308-25.673 34.372-49.083 42.646a2.471 2.471 0 0 1-1.2 1.839zM443.5 18.26a2.35 2.35 0 0 1-2.122 1.2c-2.9 24.188-9.972 38.191-22.137 38.191-7.709 0-13.3-6.507-13.3-18.53 0-18.105 14.428-31.4 32.463-31.4 20.015 0 30.27 11.882 30.27 27.229 0 16.62-8.558 25.248-26.38 29.774a47.36 47.36 0 0 0-5.658-7.5C452.76 54.046 459.2 46.337 459.2 35.092c0-11.387-7.922-19.1-20.935-19.1a29.781 29.781 0 0 0-3.607.283zm-11.25-1.414a22.543 22.543 0 0 0-17.61 21.924c0 5.941 1.768 10.114 4.88 10.114 6.93 0 11.528-15.489 12.73-32.038zm53.181 52.845a1.5 1.5 0 0 1-1.367-.883 26.114 26.114 0 0 0-4.815-6.942 1.5 1.5 0 0 1 .605-2.542c13.552-3.892 15.862-10.479 16.975-18.7h-15.5a1.5 1.5 0 0 1-1.5-1.5v-8.275a1.5 1.5 0 0 1 1.5-1.5h7.2a49.347 49.347 0 0 0-5.684-2.685 1.5 1.5 0 0 1-.642-2.336c4.7-5.915 7.924-15.624 9.252-22.14a1.5 1.5 0 0 1 1.792-1.165l9.972 2.192a1.5 1.5 0 0 1 1.1 1.938 2.819 2.819 0 0 1-2.074 1.877 85.052 85.052 0 0 1-.758 2.585h5.713V1.5a1.5 1.5 0 0 1 .464-1.085A1.569 1.569 0 0 1 508.769 0l10.608.5a1.5 1.5 0 0 1 1.423 1.63 2.772 2.772 0 0 1-1.974 2.434v5.052h20.284a1.5 1.5 0 0 1 1.5 1.5v8.134a1.5 1.5 0 0 1-1.5 1.5h-20.283v8.6h25.941a1.5 1.5 0 0 1 1.5 1.5v8.274a1.5 1.5 0 0 1-1.5 1.5H527.6V56.38a6.725 6.725 0 0 0 .064 1.135 6.179 6.179 0 0 0 .983.053h6.224a1.039 1.039 0 0 0 .4-.044c.67-.565.852-5.962.929-8.267a1.5 1.5 0 0 1 2.46-1.1 22.219 22.219 0 0 0 7.112 3.092 1.5 1.5 0 0 1 1.132 1.567c-.783 10.442-2.739 15.745-11.257 15.745h-8.277c-9.579 0-11.331-4.1-11.331-12.18V40.623h-5.685a1.5 1.5 0 0 1-.02.884 3.087 3.087 0 0 1-2.056 1.973c-2.273 10.889-5.822 20.335-22.352 26.128a1.515 1.515 0 0 1-.495.083zm-2.464-8.2a32.419 32.419 0 0 1 3.209 4.832c14.362-5.432 17.214-13.822 19.313-24.174l-5.753-.661c-1.159 8.093-3.808 15.587-16.769 20.004zm-.139-23.869h34.711a1.5 1.5 0 0 1 1.5 1.5V56.38c0 7.55 1.479 9.18 8.331 9.18h8.274c4.779 0 7.21-1.189 8.164-11.749a31.5 31.5 0 0 1-4.708-1.867c-.246 5.743-.769 8.624-4.234 8.624h-6.224c-3.026 0-4.047-1.057-4.047-4.187V39.123a1.5 1.5 0 0 1 1.5-1.5h17.172v-5.274h-25.94a1.5 1.5 0 0 1-1.5-1.5V19.25a1.5 1.5 0 0 1 1.5-1.5h20.283v-5.134h-20.283a1.5 1.5 0 0 1-1.5-1.5V3.332l-5.63-.263v8.047a1.5 1.5 0 0 1-1.5 1.5h-9.266a1.5 1.5 0 0 1-1.423-1.975 86.893 86.893 0 0 0 1.549-5.159l-5.485-1.206c-1.425 6.19-4.291 14.464-8.349 20.336 1.55.688 3.332 1.572 4.752 2.392a49.042 49.042 0 0 0 4.467-8.348 1.5 1.5 0 0 1 1.377-.906H508.7a1.5 1.5 0 0 1 1.5 1.5v11.6a1.5 1.5 0 0 1-1.5 1.5h-25.872zM527.7 57.651zm-35.2-28.3h14.7v-8.6h-9.9a48.338 48.338 0 0 1-4.806 8.598zm71.007 18.33c-.425 6.578-1.132 13.226-4.1 17.187l-4.385-2.334c2.617-3.606 3.536-9.689 3.819-15.7zm18.671-11.245l1.622-.136 3.89.424a21.21 21.21 0 0 1-.142 2.122c-.777 17.61-1.626 24.4-3.395 26.592-1.839 2.405-3.748 2.9-10.68 2.688a17.811 17.811 0 0 0-1.768-6.647 40.482 40.482 0 0 0 4.455.212 1.991 1.991 0 0 0 1.91-.849c.565-.707 1.061-2.617 1.485-6.436l-2.264.849a39.387 39.387 0 0 0-3.253-9.266l3.395-1.131a51.2 51.2 0 0 1 2.4 5.729h.071c.142-2.122.283-4.6.424-7.567h-14v1.556h-7.144V4.044h27.3V10.9h-8.77V15h7.567v6.436h-7.567v4.243h7.567v6.365h-7.567v4.385zm-17.4 24.188c.07-.92.07-1.98.07-3.041a81.1 81.1 0 0 0-.637-10.185l3.678-.354a70.8 70.8 0 0 1 .778 13.084zm6.082-49.72h-4.526v4.1h4.526zm0 14.781v-4.243h-4.526v4.243zm-4.526 6.365v4.385h4.526v-4.384zm5.023 26.45a58.233 58.233 0 0 0-2.192-11.6l3.606-.637a57.332 57.332 0 0 1 2.405 11.457zm45.264-7.284a77.867 77.867 0 0 0-5.729-9.336 52.912 52.912 0 0 1-9.053 13.579 42.326 42.326 0 0 0-4.739-4.526v6.082h25.6v7.709h-25.6v3.607h-7.92V4.186h32.6v7.639H597.1v10.608c4.314-3.395 4.456-3.466 4.526-3.607 2.334 2.334 4.739 4.951 7.073 7.639a120.786 120.786 0 0 0 2.9-12.8l9.194 1.979c-.142.566-.849.99-1.839.99a135.164 135.164 0 0 1-4.526 16.762 100.528 100.528 0 0 1 8.486 12.448zM597.1 49.308a48.2 48.2 0 0 0 8.629-14.428c-2.758-3.536-5.729-7.072-8.629-10.18zm51.909-41.586a2.21 2.21 0 0 1-1.91 1.415c-1.909 7.991-3.748 20.722-3.748 27.229 0 3.041.07 6.365.354 9.265 1.2-2.616 3.678-7.567 5.446-10.82l5.162 6.577a78.79 78.79 0 0 0-7 12.306 8.777 8.777 0 0 0-.849 3.749 12.267 12.267 0 0 0 .282 2.616l-8.7 1.415c-1.909-6.012-3.253-14.923-3.253-24.824a190.169 190.169 0 0 1 3.041-30.412zm7.921 14.5c3.89 0 12.165-.142 16.691-.5-.354-8.2-.849-16.338-1.2-18.318l11.74.354a2.556 2.556 0 0 1-2.121 1.98c.07 3.324.283 9.548.5 15.489a77.13 77.13 0 0 0 12.094-1.98l.778 8.7a102.267 102.267 0 0 1-12.59 1.626c.071.778.071 3.891.071 4.668 0 14.781-3.678 25.744-16.691 32.887a51.164 51.164 0 0 0-7.143-6.082C671.429 54.754 673.9 46.2 673.9 35.092L673.833 30c-4.314.283-11.175.425-16.691.425zm67.325 36.068a9.9 9.9 0 1 1-9.9-9.9 9.931 9.931 0 0 1 9.9 9.9zm-3.183 0a6.684 6.684 0 1 0-6.719 6.647 6.671 6.671 0 0 0 6.719-6.647z" id="創業期"/></svg>