<svg xmlns="http://www.w3.org/2000/svg" width="267.72" height="60.72" viewBox="0 0 267.72 60.72"><defs><style>.cls-1{fill:#fff;}.cls-2{fill:#323232;}</style></defs><title>アートボード 15</title><g id="main"><path class="cls-1" d="M13.32,60.72H1.8A1.8,1.8,0,0,1,0,58.92V1.8A1.8,1.8,0,0,1,1.8,0H21.96a18.47,18.47,0,0,1,8.2,1.666,15.357,15.357,0,0,1,5.472,4.4,17.04,17.04,0,0,1,2.954,6.122,26.853,26.853,0,0,1,.858,6.733,22.356,22.356,0,0,1-1.45,8.352,15.779,15.779,0,0,1-4.16,6.038,17.244,17.244,0,0,1-6.379,3.49,26.991,26.991,0,0,1-7.972,1.12H15.12v21A1.8,1.8,0,0,1,13.32,60.72ZM3.6,57.12h7.92v-21a1.8,1.8,0,0,1,1.8-1.8h6.16a23.413,23.413,0,0,0,6.908-.959,13.677,13.677,0,0,0,5.062-2.751,12.22,12.22,0,0,0,3.2-4.682,18.807,18.807,0,0,0,1.19-7.008,23.245,23.245,0,0,0-.742-5.829,13.458,13.458,0,0,0-2.326-4.836,11.8,11.8,0,0,0-4.208-3.361A14.958,14.958,0,0,0,21.96,3.6H3.6ZM18.44,29.44H13.32a1.8,1.8,0,0,1-1.8-1.8V10.281a1.8,1.8,0,0,1,1.8-1.8h4.8c3.429,0,5.97.974,7.55,2.9,1.493,1.82,2.25,4.411,2.25,7.7,0,3.421-.895,6.033-2.659,7.764A9.367,9.367,0,0,1,18.44,29.44Zm-3.32-3.6h3.32a5.822,5.822,0,0,0,4.3-1.565c1.049-1.029,1.58-2.777,1.58-5.195,0-2.438-.482-4.261-1.431-5.419-.863-1.049-2.468-1.581-4.769-1.581h-3Z"/><path class="cls-2" d="M64.6,1.8q7.2,0,11.2,3.64t4,11.08a17.231,17.231,0,0,1-2.32,9.4,10.741,10.741,0,0,1-7.2,4.68v.16q4.32.642,6.32,2.8t2.48,6.96q.16,1.6.24,3.48t.16,4.2q.159,4.56.48,6.96a4.47,4.47,0,0,0,2.08,3.279v.48H69.56a6.16,6.16,0,0,1-1.12-2.76,30.8,30.8,0,0,1-.32-3.24L67.8,41.96a9.024,9.024,0,0,0-1.68-5.28Q64.6,34.761,61,34.76H54.84V58.92H43.32V1.8Zm-4.96,24.96a9.422,9.422,0,0,0,6.4-1.96q2.238-1.958,2.24-6.6,0-7.92-8-7.92H54.84V26.76Z"/><path class="cls-1" d="M87.2,18.4A26.505,26.505,0,0,1,89.84,9a14.788,14.788,0,0,1,5.88-6.12q3.84-2.2,10.32-2.2t10.32,2.2A14.788,14.788,0,0,1,122.24,9a26.505,26.505,0,0,1,2.64,9.4,110.339,110.339,0,0,1,.6,11.96,110.055,110.055,0,0,1-.6,12,26.429,26.429,0,0,1-2.64,9.359,14.022,14.022,0,0,1-5.88,6q-3.84,2.08-10.32,2.08T95.72,57.72a14.022,14.022,0,0,1-5.88-6,26.429,26.429,0,0,1-2.64-9.359,110.055,110.055,0,0,1-.6-12A110.339,110.339,0,0,1,87.2,18.4Zm11.2,21.76a27.168,27.168,0,0,0,1.12,6.56,7.286,7.286,0,0,0,2.4,3.681,7.9,7.9,0,0,0,8.24,0,7.286,7.286,0,0,0,2.4-3.681,27.241,27.241,0,0,0,1.12-6.56q.28-4.039.28-9.8t-.28-9.761a27.746,27.746,0,0,0-1.12-6.56,7.3,7.3,0,0,0-2.4-3.72,7.9,7.9,0,0,0-8.24,0,7.3,7.3,0,0,0-2.4,3.72A27.671,27.671,0,0,0,98.4,20.6q-.281,4-.28,9.761T98.4,40.161Z"/><path class="cls-2" d="M164.2,1.8v9.44H143.8V24.68H163v9.44H143.8v24.8H132.28V1.8Z"/><path class="cls-2" d="M186.2,60.72h-11.52a1.8,1.8,0,0,1-1.8-1.8V1.8a1.8,1.8,0,0,1,1.8-1.8H186.2A1.8,1.8,0,0,1,188,1.8V58.92A1.8,1.8,0,0,1,186.2,60.72Zm-9.72-3.6h7.92V3.6h-7.92Z"/><path class="cls-2" d="M196.359,1.8h11.52V49.48h20.4v9.44h-31.92Z"/><path class="cls-1" d="M266.919,11.241h-20.4V24.68h19.2v9.44h-19.2V49.48h21.2v9.44H235V1.8h31.92Z"/></g></svg>