<svg xmlns="http://www.w3.org/2000/svg" width="289.033" height="176.222" viewBox="0 0 289.033 176.222"><defs><style>.cls-1{fill:#323232;}.cls-2{fill:none;stroke:#323232;stroke-linecap:round;stroke-linejoin:round;stroke-width:3.6px;}.cls-3{fill:#fff;}</style></defs><title>アートボード 18</title><g id="main"><path class="cls-1" d="M51.6,165.706a52.017,52.017,0,0,1,5.262,5.069l-2.112,2.189a46.817,46.817,0,0,0-4.186-4.34,15.822,15.822,0,0,1-6.223,6.683,12.15,12.15,0,0,0-2.381-2.266,12.247,12.247,0,0,0,6.414-7.95h-6.8V162.25h7.22c.039-.461.039-.922.039-1.345v-2.727H46.376a18.321,18.321,0,0,1-2.112,3.879,17.056,17.056,0,0,0-2.5-1.767c1.422-1.959,2.5-5.262,3.149-8.449-1.421-.5-1.843-1.575-1.843-3.648v-8.8l4.07.23c-.038.308-.269.538-.845.615v3.609a48.417,48.417,0,0,0,8.219-3.187l2.382,2.458c-.154.115-.23.115-.807.115a77.96,77.96,0,0,1-9.794,3.149v1.767c0,1.114.308,1.306,2.074,1.306h5.914c1.345,0,1.613-.461,1.768-3.341a9.715,9.715,0,0,0,2.842,1.113c-.346,3.956-1.306,4.955-4.3,4.955H48.027a12.33,12.33,0,0,1-2.65-.23l3.38.883c-.115.346-.422.461-.845.423a21.482,21.482,0,0,1-.576,2.112H57.13v2.8H52.137v2.765c0,.423,0,.846-.038,1.307h6.029v2.842H51.753ZM69,171.428a14.463,14.463,0,0,0,3.688.423c.768,0,3.764,0,4.8-.039a11.676,11.676,0,0,0-.961,3.034h-4.07c-4.494,0-8.22-1.152-10.716-6.029a15.4,15.4,0,0,1-3.3,6.529,15.99,15.99,0,0,0-2.727-1.806c3.033-3,3.955-8.68,4.186-15.285l4.033.46c-.039.308-.27.5-.807.576-.077,1.844-.269,3.61-.5,5.3a10.822,10.822,0,0,0,3.11,5.146V155.913h-7.45v-3H69.957a50.842,50.842,0,0,0-8.642-5.185L63.5,145.5a34.927,34.927,0,0,1,3.418,1.689,23.772,23.772,0,0,0,4.3-3.726H59.088v-2.842H73.875l.576-.153,2.5,1.5a.9.9,0,0,1-.653.385,29.56,29.56,0,0,1-6.49,6.452,25.4,25.4,0,0,1,3.034,2.112l-1.92,2h4.416l1.844.115a35.508,35.508,0,0,1-2.611,7.412l-2.65-.807a29.067,29.067,0,0,0,1.345-3.725H69v6.067H75.68v2.958H69Z"/><path class="cls-1" d="M99.255,154.914H88.463v20.394h-3.61V140.9h14.4ZM95.8,143.776H88.463v2.765H95.8Zm-7.336,8.3H95.8v-2.958H88.463Zm19.664,17.743H96.721v2.267h-3.38V158.063h14.786Zm-3.418-8.718H96.721v5.684h7.988Zm12.405-20.2v29.766c0,4.416-2.036,4.608-9.18,4.608a12.61,12.61,0,0,0-1.267-3.726c1.459.077,3,.077,4.147.077,2.458,0,2.611,0,2.611-1v-15.67H102.366V140.9Zm-3.687,2.842h-7.565v2.8h7.565Zm-7.565,8.373h7.565v-3h-7.565Z"/><path class="cls-1" d="M157.088,156.718a.478.478,0,0,1-.23.039,1.291,1.291,0,0,1-.652-.192c-2.881.884-6.875,2.266-9.909,3.5q.116,1.267.115,2.881,0,1.554-.115,3.456l-3.879.269a39.5,39.5,0,0,0,.153-5.107c-3.61,1.8-6.452,4.032-6.452,5.914,0,1.921,2.381,2.843,7.182,2.843a85.541,85.541,0,0,0,9.6-.461l.039,3.571c-2.151.23-5.492.308-9.679.308-7.374,0-10.869-1.69-10.869-6.068,0-3.227,4.225-6.606,9.794-9.448-.192-1.729-.96-2.842-2.3-2.842-2.688,0-5.492,1.459-8.757,5.146-1,1.113-2.458,2.611-4.147,4.187l-2.65-2.612a44.73,44.73,0,0,0,5.07-4.992,26.492,26.492,0,0,0,4.225-8.3l-1.767.038c-1.537,0-4.264,0-6.184-.038V145.35c2.266.077,4.992.115,6.605.115l2.343-.038c.346-1.651.653-3.265.922-5.3l4.839.537c-.076.385-.422.614-.921.691-.27,1.383-.576,2.65-.922,3.918a47.185,47.185,0,0,0,12.405-2.189l.652,3.648a58.814,58.814,0,0,1-14.057,1.959,21.965,21.965,0,0,1-2.3,5.453h.039a9.586,9.586,0,0,1,5.723-2.15c2.381,0,4.186,1.689,4.724,4.724,3.111-1.382,6.913-2.8,9.87-3.955Z"/><path class="cls-1" d="M179.436,149.268v22.353c0,3.341-1.651,3.687-6.567,3.687a10.7,10.7,0,0,0-1.075-3.11c1.075.038,2.035.076,2.8.076,1.612,0,1.8,0,1.8-.691v-6.528h-8.3c-.346,3.687-1.19,7.527-3.034,10.369a11.807,11.807,0,0,0-2.573-1.651c2.65-4.071,2.881-9.832,2.881-14.21v-6.529l-.461.537a15.765,15.765,0,0,0-2.458-2.035c2.5-2.766,4.647-7.489,5.838-12.213l3.879,1.075c-.077.269-.384.461-.845.423-.192.69-.423,1.344-.653,2.035H174.9l.5-.153,2.42,1.459a1.232,1.232,0,0,1-.652.384,41.969,41.969,0,0,1-2.382,4.725Zm-7.873,0a23.778,23.778,0,0,0,1.689-3.572H169.6c-.538,1.229-1.114,2.458-1.729,3.572Zm-3.227,9.179c0,2.228,0,2.881-.038,3.841h2.765v-3.841Zm0-6.414v3.688h2.727v-3.687Zm5.262,0v3.688h2.8v-3.687Zm0,10.255h2.8v-3.841h-2.8Zm24.234-20.854c0,.269-.038.652-.038,1-.5,10.639-.884,11.062-5.607,11.062-.653,0-1.345,0-2.074-.039a8.349,8.349,0,0,0-.845-3c1.421.153,2.688.192,3.226.192a1.249,1.249,0,0,0,1.076-.385c.384-.5.652-2.035.845-5.914h-5.53c-.73,4.186-2.267,8.1-7.413,10.369a9.4,9.4,0,0,0-1.958-2.5c3.955-1.651,5.415-4.455,6.067-7.873h-4.839v-3.073H195.3l.73-.038Zm.922,24.042v3.188h-7.221v6.645h-3.5v-6.645h-7.565v-3.187h7.565v-4.147h-3.725a13.856,13.856,0,0,1-1.768,3.265,18.244,18.244,0,0,0-2.343-1.729c1.422-1.882,2.382-5.185,2.881-8.411l3.61.845c-.038.27-.308.423-.769.423-.153.807-.346,1.651-.576,2.5h2.688v-4.378l4.379.269c-.039.346-.308.538-.884.614v3.5h5.876v3.111h-5.876v4.147Z"/><path class="cls-1" d="M206.121,150.036a31.471,31.471,0,0,1,7.182,3.8l-2.112,3.072a30.378,30.378,0,0,0-7.066-4.147Zm-.884,22.392A116.753,116.753,0,0,0,212,159.907l2.765,2.3a129.336,129.336,0,0,1-5.952,11.638,1.021,1.021,0,0,1,.23.614.92.92,0,0,1-.192.538Zm3.034-32.838a29.672,29.672,0,0,1,7.028,4.032l-2.112,2.958a28.5,28.5,0,0,0-6.913-4.34Zm31.916,21.124h-10.1c1.882,5.3,5.416,9.447,10.523,11.444a14.694,14.694,0,0,0-2.534,3.188c-5.492-2.5-9.1-7.183-11.254-13.4-1.229,5.146-4.147,9.909-10.868,13.442A16.14,16.14,0,0,0,213,172.773c6.414-3.265,9.18-7.489,10.332-12.06h-8.45v-3.419H223.9a46.029,46.029,0,0,0,.192-4.608v-3.61H217.1V145.62h6.99v-6.261l4.494.269c-.039.346-.27.538-.884.615v5.377h9.141v11.675h3.342Zm-12.482-11.638v3.648c0,1.536-.038,3.034-.153,4.57h5.723v-8.219Z"/><path class="cls-1" d="M51.917,111.821a55.535,55.535,0,0,1-14.592,1.69q-12.442,0-19.814-3.994A26.938,26.938,0,0,1,6.221,98,50.754,50.754,0,0,1,1.152,80.026,211.21,211.21,0,0,1,0,56.986,211.808,211.808,0,0,1,1.152,34.022,50.908,50.908,0,0,1,6.221,15.974,28.391,28.391,0,0,1,17.51,4.224Q24.884,0,37.325,0T57.139,4.224a28.391,28.391,0,0,1,11.29,11.75A50.9,50.9,0,0,1,73.5,34.022a211.808,211.808,0,0,1,1.152,22.963A190.6,190.6,0,0,1,73.114,82.33a43.8,43.8,0,0,1-6.912,19.2l11.827,11.52L64.973,124.877ZM22.656,75.8a52.187,52.187,0,0,0,2.15,12.6,13.987,13.987,0,0,0,4.608,7.066,12.929,12.929,0,0,0,7.91,2.227,12.937,12.937,0,0,0,7.911-2.227A13.99,13.99,0,0,0,49.843,88.4a52.308,52.308,0,0,0,2.15-12.6q.536-7.754.538-18.816t-.538-18.739a53.287,53.287,0,0,0-2.15-12.6,14.026,14.026,0,0,0-4.608-7.142,12.953,12.953,0,0,0-7.911-2.227,12.945,12.945,0,0,0-7.91,2.227,14.023,14.023,0,0,0-4.608,7.142,53.162,53.162,0,0,0-2.15,12.6q-.541,7.682-.538,18.739T22.656,75.8Z"/><path class="cls-2" d="M158.821,78.528a28.85,28.85,0,0,0,.806-6.221h14.285a35.614,35.614,0,0,1-2.362,12.845A53.543,53.543,0,0,1,165.5,96.615l10.829,15.206H158.706l-4.608-6.336a19.644,19.644,0,0,1-8.352,5.645,32.526,32.526,0,0,1-11.462,1.958,30.82,30.82,0,0,1-12.672-2.246,19.9,19.9,0,0,1-7.718-5.818,20.717,20.717,0,0,1-3.8-7.718,31.544,31.544,0,0,1-1.037-7.6,21.024,21.024,0,0,1,4.435-13.075,45.259,45.259,0,0,1,12.154-10.656l-2.88-4.262q-1.729-2.532-2.822-4.493a21.529,21.529,0,0,1-1.67-3.687,18.933,18.933,0,0,1-.807-3.341,23.423,23.423,0,0,1-.23-3.341,15.649,15.649,0,0,1,5.875-12.614,19.721,19.721,0,0,1,6.624-3.456,31.288,31.288,0,0,1,17.625.115,17.662,17.662,0,0,1,6.394,3.686,14.707,14.707,0,0,1,3.744,5.472,18.282,18.282,0,0,1,1.209,6.682,18.851,18.851,0,0,1-3.514,11.174,45.5,45.5,0,0,1-10.771,10.138l12.326,16.7A29.546,29.546,0,0,0,158.821,78.528Zm-32.083,4.147a14.261,14.261,0,0,0-1.786,7.027,10.581,10.581,0,0,0,.749,3.8,10.765,10.765,0,0,0,2.189,3.514,10.941,10.941,0,0,0,3.628,2.534,12,12,0,0,0,4.954.979,13.1,13.1,0,0,0,10.714-5.184L133.362,75.763A24.176,24.176,0,0,0,126.738,82.675Zm8.237-27.3,1.958,2.765,3-2.534a16.118,16.118,0,0,0,3.975-4.551,9.3,9.3,0,0,0,1.209-4.435,6.494,6.494,0,0,0-2.016-5.126,7.617,7.617,0,0,0-5.241-1.786,7.426,7.426,0,0,0-5.011,1.728,6.166,6.166,0,0,0-2.016,4.954Q130.828,49.843,134.975,55.373Z"/><path class="cls-3" d="M260,2.15l29.03,109.67h-23.04l-5.069-23.194H231.74l-5.069,23.194h-23.04L232.662,2.15ZM257.084,70.5,246.486,21.2h-.307L235.58,70.5Z"/></g></svg>