<svg xmlns="http://www.w3.org/2000/svg" width="44.382" height="69.228" viewBox="0 0 44.382 69.228"><defs><style>.cls-1{fill:none;stroke:#323232;stroke-linecap:round;stroke-linejoin:round;stroke-width:3px;}</style></defs><title>アートボード 16</title><g id="main"><path class="cls-1" d="M29.033,60.8a29.461,29.461,0,0,1-7.739.9q-6.6,0-10.508-2.118A14.286,14.286,0,0,1,4.8,53.472a26.908,26.908,0,0,1-2.688-9.531A111.919,111.919,0,0,1,1.5,31.722a112.245,112.245,0,0,1,.611-12.179A26.989,26.989,0,0,1,4.8,9.972,15.048,15.048,0,0,1,10.786,3.74Q14.7,1.5,21.295,1.5T31.8,3.74A15.048,15.048,0,0,1,37.79,9.972a26.989,26.989,0,0,1,2.688,9.571,112.237,112.237,0,0,1,.612,12.179,101.126,101.126,0,0,1-.815,13.44A23.235,23.235,0,0,1,36.61,55.345l6.272,6.109-6.924,6.273ZM13.515,41.7a27.657,27.657,0,0,0,1.14,6.68A7.411,7.411,0,0,0,17.1,52.127a6.856,6.856,0,0,0,4.2,1.182,6.858,6.858,0,0,0,4.2-1.182,7.411,7.411,0,0,0,2.444-3.746,27.718,27.718,0,0,0,1.14-6.68q.285-4.113.285-9.979t-.285-9.939a28.246,28.246,0,0,0-1.14-6.68,7.439,7.439,0,0,0-2.444-3.787,6.866,6.866,0,0,0-4.2-1.181,6.863,6.863,0,0,0-4.2,1.181A7.439,7.439,0,0,0,14.656,15.1a28.182,28.182,0,0,0-1.14,6.68q-.287,4.074-.285,9.939T13.515,41.7Z"/></g></svg>