<svg xmlns="http://www.w3.org/2000/svg" width="203.145" height="358.427" viewBox="0 0 203.145 358.427"><defs><style>.cls-1{fill:#dfeb8c;}</style></defs><title>アートボード 19</title><g id="main"><path class="cls-1" d="M110.49,2.5v5c19.446,0,35.8,4.545,48.6,13.509,18.437,12.909,30.157,32.9,34.833,59.427a102.354,102.354,0,0,1,.13,36.588c-2.157,11.574-7.684,24.942-16.43,39.735l-15.273,24.793c-6.876,11.055-11.59,21.067-14.009,29.752-2.507,8.964-2.635,19.993-.38,32.781l.395,2.236-49.349,8.7-2.415-13.694c-2.682-15.211-2.838-28.535-.464-39.6,2.382-11.135,7.823-23.6,16.187-37.087l14.5-23.694a70.164,70.164,0,0,0,10.625-28.081,94.664,94.664,0,0,0-.728-29.231c-2.308-13.09-7.266-23.4-14.739-30.652A31.635,31.635,0,0,0,99.193,44a45.626,45.626,0,0,0-7.89.722C77.32,47.188,68.127,54.755,63.977,67.215,60.189,78.6,59.73,92.661,62.612,109l1.236,7.011-53.166,9.375-1.068-6.056A123.634,123.634,0,0,1,8.62,80.239,81.694,81.694,0,0,1,20.092,48.046,77.78,77.78,0,0,1,44.565,24.093C55.028,17.44,67.873,12.738,82.741,10.116A161.086,161.086,0,0,1,110.489,7.5l0-5m48.5,284.588,9.375,53.167-56.031,9.88-9.375-53.167,56.031-9.88M110.488,2.5A165.313,165.313,0,0,0,81.872,5.192q-23.4,4.125-39.99,14.681T15.862,45.381A86.253,86.253,0,0,0,3.671,79.526,127.989,127.989,0,0,0,4.69,120.2l1.936,10.98L69.64,120.07l-2.1-11.935q-4.124-23.384,1.185-39.342t23.45-19.147A40.426,40.426,0,0,1,99.193,49a26.682,26.682,0,0,1,19.3,7.572q10.091,9.791,13.293,27.928a89.29,89.29,0,0,1,.7,27.688,64.921,64.921,0,0,1-9.916,26.114L108.05,162.028q-13.035,21.011-16.812,38.651t.429,41.518l3.283,18.618,59.2-10.438-1.263-7.161q-3.2-18.137.271-30.566t13.44-28.458l15.308-24.85q13.652-23.08,17.065-41.4a106.836,106.836,0,0,0-.121-38.372q-7.406-42-36.89-62.654Q141.372,2.5,110.488,2.5Zm52.555,278.8L97.165,292.912l11.111,63.015,65.879-11.616L163.043,281.3Z"/></g></svg>