<svg xmlns="http://www.w3.org/2000/svg" viewBox="0 0 1047.189 727.364"><defs><style>.cls-1{fill:#323232;}.cls-2,.cls-4{fill:#b8d200;}.cls-3{fill:#f8ea21;}.cls-4{stroke:#323232;stroke-linecap:round;stroke-linejoin:round;stroke-width:8px;}.cls-5{fill:#fff;}</style></defs><title></title><g id="main"><path class="cls-1" d="M969.2,519.214v0l-95.468-8.352a272.016,272.016,0,0,1-82.426,20.4c-.2.018-.409.033-.612.048-.146.016-.291.031-.437.044l-67.837,5.935a85.835,85.835,0,0,0,60.479,137.921c.118.01.236.017.354.026v0L895,685.016c.912,2.517,2.715,8.271,4.059,10.988,14.911,30.132,41.906,31.36,41.906,31.36s-17.641-8.37-21.411-37.722c-.109-.849-.222-2.5-.222-2.5l34.9,3.053v0A85.817,85.817,0,0,0,969.2,519.214Z"/><circle class="cls-2" cx="834.783" cy="597.569" r="7.488" transform="translate(166.732 1377.094) rotate(-85)"/><circle class="cls-3" cx="875.523" cy="601.134" r="7.488" transform="translate(200.37 1420.933) rotate(-85)"/><circle class="cls-2" cx="916.264" cy="604.698" r="7.488" transform="translate(234.009 1464.772) rotate(-85)"/><path class="cls-2" d="M745.262,4.986c-.352.031-.7.073-1.052.105V5.078L235.867,49.553v.013C96.029,62.373-7.264,185.846,4.986,325.869S140.4,569.551,280.34,557.882v.013l103.753-9.077s-.334,4.9-.658,7.422c-11.209,87.262-63.653,112.146-63.653,112.146s80.255-3.65,124.585-93.231c4-8.075,9.355-25.183,12.067-32.666l332.248-29.068v-.013c.352-.029.7-.048,1.054-.079C930.112,501.047,1033.952,377.3,1021.671,236.92S885.637-7.295,745.262,4.986Z"/><path class="cls-4" d="M745.262,4.986c-.352.031-.7.073-1.052.105V5.078L235.867,49.553v.013C96.029,62.373-7.264,185.846,4.986,325.869S140.4,569.551,280.34,557.882v.013l103.753-9.077s-.334,4.9-.658,7.422c-11.209,87.262-63.653,112.146-63.653,112.146s80.255-3.65,124.585-93.231c4-8.075,9.355-25.183,12.067-32.666l332.248-29.068v-.013c.352-.029.7-.048,1.054-.079C930.112,501.047,1033.952,377.3,1021.671,236.92S885.637-7.295,745.262,4.986Z"/><path class="cls-5" d="M257.958,277.311q-2.481-3.886-8.1-3.4a7.769,7.769,0,0,0-4.961,2.111,11.064,11.064,0,0,0-2.684,5.669,46.049,46.049,0,0,0-.753,9.9q.067,6.066.831,14.787a143.621,143.621,0,0,0,1.947,14.979,33.442,33.442,0,0,0,2.729,8.723,8.159,8.159,0,0,0,3.7,3.955,9.6,9.6,0,0,0,4.743.684,11.032,11.032,0,0,0,4.008-1.1,6.926,6.926,0,0,0,3.01-3.27,19.487,19.487,0,0,0,1.628-6.5,57.856,57.856,0,0,0-.136-10.8l16.526-1.446a74.239,74.239,0,0,1,.071,12.714,28.694,28.694,0,0,1-2.931,10.78,19.176,19.176,0,0,1-7.306,7.693q-4.887,2.97-13.034,3.684-9.3.813-15.065-1.688a20.2,20.2,0,0,1-9.188-7.869,38.051,38.051,0,0,1-4.961-13.1,172.6,172.6,0,0,1-3.007-34.371,38.171,38.171,0,0,1,2.607-13.816,21.3,21.3,0,0,1,7.667-9.517q5.232-3.637,14.528-4.451,8.835-.773,14.194,1.649a19.613,19.613,0,0,1,8.269,6.62,25.4,25.4,0,0,1,3.989,9.249,78.894,78.894,0,0,1,1.47,9.528l-16.525,1.446Q260.437,281.2,257.958,277.311Z"/><path class="cls-1" d="M318.245,257.292q10.329-.9,16.523,3.816T341.9,276.5q.723,8.263-2.148,13.776t-9.741,7.617l.02.229q6.278.378,9.417,3.224t4.431,9.673q.43,2.277.781,4.962t.757,6q.8,6.521,1.562,9.924a6.439,6.439,0,0,0,3.4,4.444l.06.689-17.9,1.566a8.893,8.893,0,0,1-1.953-3.819,44.49,44.49,0,0,1-.866-4.608L327.876,314.5a12.991,12.991,0,0,0-3.073-7.363q-2.422-2.563-7.585-2.112l-8.836.773,3.032,34.658L294.888,341.9l-7.169-81.939Zm-3.982,36.428q5.966-.522,8.935-3.615t2.385-9.749q-.994-11.362-12.47-10.357l-7.8.683,2.068,23.64Z"/><path class="cls-5" d="M381.694,252.994a23.493,23.493,0,0,1,9.8,1.8,18.483,18.483,0,0,1,8.06,7.041,35.7,35.7,0,0,1,4.6,12.23,170.055,170.055,0,0,1,2.956,33.784,35.576,35.576,0,0,1-2.408,12.786,17.4,17.4,0,0,1-6.675,8.125c-3.1,2.049-7.575,3.342-13.291,3.842-1.435.125-2.819.189-4.113.189a24.446,24.446,0,0,1-9.644-1.665,17.409,17.409,0,0,1-7.985-6.843A35.571,35.571,0,0,1,358.4,312.11a170,170,0,0,1-2.956-33.783,35.685,35.685,0,0,1,2.4-12.842,18.481,18.481,0,0,1,6.713-8.333c3.082-2.142,7.531-3.481,13.223-3.979,1.36-.119,2.674-.179,3.908-.179m.963,73.235c.489,0,1-.023,1.515-.068a12.35,12.35,0,0,0,7.322-2.852,13.143,13.143,0,0,0,3.814-6.972,41.456,41.456,0,0,0,.857-10.227c-.072-3.943-.354-8.747-.838-14.279s-1.04-10.3-1.65-14.154a42.181,42.181,0,0,0-2.614-9.909,13.168,13.168,0,0,0-4.977-6.272,11.64,11.64,0,0,0-6.2-1.605c-.488,0-1,.023-1.511.068a12.367,12.367,0,0,0-7.324,2.853,13.167,13.167,0,0,0-3.81,7.04,42.675,42.675,0,0,0-.854,10.212c.066,3.875.347,8.661.833,14.225s1.044,10.347,1.654,14.208a41.336,41.336,0,0,0,2.62,9.923,13.139,13.139,0,0,0,4.965,6.2,11.617,11.617,0,0,0,6.193,1.607m-.963-75.935q-1.976,0-4.143.19-9.3.813-14.528,4.451a21.3,21.3,0,0,0-7.667,9.517,38.171,38.171,0,0,0-2.607,13.816,172.6,172.6,0,0,0,3.007,34.371,38.051,38.051,0,0,0,4.961,13.1,20.2,20.2,0,0,0,9.188,7.869,26.949,26.949,0,0,0,10.717,1.888q2.068,0,4.348-.2,9.3-.813,14.543-4.279a20.2,20.2,0,0,0,7.682-9.345,38.059,38.059,0,0,0,2.612-13.758,172.661,172.661,0,0,0-3.007-34.371,38.182,38.182,0,0,0-4.967-13.153,21.294,21.294,0,0,0-9.2-8.041,26.008,26.008,0,0,0-10.937-2.05Zm.963,73.235a8.933,8.933,0,0,1-4.776-1.2,10.49,10.49,0,0,1-3.9-4.978,39.155,39.155,0,0,1-2.43-9.27q-.91-5.758-1.631-14.023t-.824-14.036a39.861,39.861,0,0,1,.784-9.551,10.516,10.516,0,0,1,2.976-5.637,9.71,9.71,0,0,1,5.765-2.181q.658-.057,1.275-.058a8.957,8.957,0,0,1,4.781,1.2,10.519,10.519,0,0,1,3.91,5.035,39.972,39.972,0,0,1,2.43,9.27q.9,5.7,1.626,13.966t.829,14.093a39.258,39.258,0,0,1-.783,9.551,10.492,10.492,0,0,1-2.981,5.58,9.7,9.7,0,0,1-5.765,2.181q-.661.058-1.279.058Z"/><path class="cls-1" d="M436.081,306.189a27.421,27.421,0,0,0,.916,5.181,9.131,9.131,0,0,0,2.068,3.809,8.5,8.5,0,0,0,3.606,2.229,13.517,13.517,0,0,0,5.417.451,10.6,10.6,0,0,0,6.612-3.065q2.823-2.733,2.373-7.9a13.74,13.74,0,0,0-1.163-4.7,9.47,9.47,0,0,0-2.783-3.4,17.629,17.629,0,0,0-4.789-2.53,65.611,65.611,0,0,0-7.179-2.089A59.507,59.507,0,0,1,431.283,291a25.72,25.72,0,0,1-7.16-4.52,18.333,18.333,0,0,1-4.552-6.424,28.583,28.583,0,0,1-2.041-8.784q-1.064-12.163,5.184-18.724t18.069-7.594a40.551,40.551,0,0,1,10.262.317,21.386,21.386,0,0,1,8.375,3.2,18.346,18.346,0,0,1,5.881,6.424,24.355,24.355,0,0,1,2.772,9.876l.2,2.3-15.837,1.386q-.512-5.853-2.854-8.828t-7.162-2.553a11.535,11.535,0,0,0-4.52,1.2,7.772,7.772,0,0,0-2.741,2.379,7.329,7.329,0,0,0-1.226,3.172,15.618,15.618,0,0,0-.09,3.593,11.872,11.872,0,0,0,2.164,6.229q1.832,2.442,7.3,4.16l13.22,4.394a39.249,39.249,0,0,1,8.066,3.631,21.1,21.1,0,0,1,5.184,4.4,16.127,16.127,0,0,1,2.964,5.465,31.918,31.918,0,0,1,1.291,6.825q1.135,12.97-5.865,19.536T447.745,329.8q-14,1.225-20.558-4.33t-7.551-16.916l-.291-3.328,16.525-1.446Z"/><path class="cls-1" d="M495.641,300.978a27.377,27.377,0,0,0,.916,5.181,9.126,9.126,0,0,0,2.068,3.809,8.49,8.49,0,0,0,3.606,2.229,13.515,13.515,0,0,0,5.417.451,10.593,10.593,0,0,0,6.612-3.065q2.823-2.733,2.374-7.9a13.753,13.753,0,0,0-1.163-4.7,9.467,9.467,0,0,0-2.784-3.4,17.622,17.622,0,0,0-4.789-2.53,65.572,65.572,0,0,0-7.179-2.089,59.492,59.492,0,0,1-9.876-3.183,25.723,25.723,0,0,1-7.161-4.52,18.333,18.333,0,0,1-4.552-6.424,28.6,28.6,0,0,1-2.041-8.783q-1.064-12.163,5.185-18.725t18.069-7.594a40.55,40.55,0,0,1,10.262.317,21.383,21.383,0,0,1,8.375,3.2,18.336,18.336,0,0,1,5.881,6.424,24.341,24.341,0,0,1,2.772,9.876l.2,2.3L512,263.237q-.512-5.853-2.854-8.828t-7.162-2.553a11.544,11.544,0,0,0-4.52,1.2,7.764,7.764,0,0,0-2.74,2.379,7.317,7.317,0,0,0-1.226,3.171,15.618,15.618,0,0,0-.09,3.593,11.868,11.868,0,0,0,2.164,6.229q1.831,2.442,7.3,4.16l13.22,4.394a39.269,39.269,0,0,1,8.065,3.631,21.1,21.1,0,0,1,5.184,4.4,16.137,16.137,0,0,1,2.965,5.465,31.979,31.979,0,0,1,1.291,6.825q1.135,12.97-5.865,19.536t-20.427,7.743q-14,1.225-20.558-4.33T479.2,303.342l-.291-3.328,16.525-1.446Z"/><path class="cls-5" d="M613.445,245.109l-17.9,1.566,5.984,68.4L585,316.519l-5.984-68.4-17.9,1.566-1.185-13.542,52.331-4.579Z"/><path class="cls-1" d="M655.754,227.762,684.613,307.8,667.4,309.31l-5.3-17-21.8,1.908-2.271,17.66-17.214,1.506,14.521-83.837Zm2.288,51.259L646.9,242.876l-.229.02-4.7,37.531Z"/><path class="cls-1" d="M685.477,225.162,702,223.716l5.984,68.4,29.264-2.56,1.185,13.542-45.79,4.006Z"/><path class="cls-1" d="M760.3,251.688l.23-.02,18.015-34.649,17.9-1.566-19.191,37.064,28.885,44.654L787.553,298.8l-19.812-32.149-5.27,9.828,2.129,24.329-16.525,1.446-7.169-81.939,16.525-1.446Z"/><path class="cls-1" d="M258.5,392.517c.08.918.265,1.047,1.269.959l3.213-.281c.975-.085,1.1-.674.893-4.327a8.39,8.39,0,0,0,2.564.9c.133,4.5-.507,5.767-3,5.985l-3.786.331c-2.869.251-3.663-.575-3.9-3.329l-.69-7.888-15.059,1.318-.231-2.639,11.416-1-.469-5.364-5.622.492a22.222,22.222,0,0,1-2.009,4.454,13.577,13.577,0,0,0-2.491-1.054,24.612,24.612,0,0,0,3.231-9.647l3.3.434c-.066.237-.254.4-.627.43-.162.795-.342,1.707-.6,2.683l4.59-.4-.374-4.274,3.459-.1c-.006.26-.194.422-.646.548l.314,3.585,9.265-.811.229,2.61-9.265.811.47,5.364,11.445-1,.231,2.639-7.8.683Zm-7.684-6.553c-.065.237-.251.427-.679.493-.368,4.715-1.341,8.788-7.857,11.613a7.749,7.749,0,0,0-1.841-2.209c5.985-2.287,6.784-5.71,6.9-9.969Z"/><path class="cls-1" d="M297.569,388.752l.161,1.836-11.846,1.036.226,2.581-2.668.233-.226-2.581L271.4,392.891l-.161-1.836,11.818-1.034-.1-1.119-7.831.685-.582-6.655,7.831-.685-.1-1.09-10.5.919-.155-1.779,2.926-.256a16.9,16.9,0,0,0-1.244-1.336c2.723-.585,4.157-1.375,4.859-2.275-2.674.494-5.2.976-6.941,1.272a.526.526,0,0,1-.4.41l-.778-1.955c2.256-.313,5.479-.8,8.732-1.284a5.324,5.324,0,0,0,0-.954l-7.142.625-.143-1.635,7.142-.625-.1-1.147-7.8.683-.143-1.635,7.8-.683-.148-1.692,3.142-.1c-.006.26-.166.419-.62.517l.469,5.364c.211,2.409-.691,4.656-4.539,6.264l5.421-.474-.158-1.807,3.145-.073-.891-10.183,3.2-.078c-.008.232-.168.39-.591.514l.088,1,7.716-.675.143,1.635-7.716.675.1,1.147,7.2-.63.143,1.635-7.2.63.1,1.147,8.261-.723.146,1.664-8.261.723.186,2.123-2.553.223-.045-.516a.97.97,0,0,1-.444.212l.1,1.118,10.728-.938.155,1.779-10.728.938.1,1.09,7.974-.7.583,6.655-7.974.7.1,1.119Zm-20.346-4.607.105,1.2,5.278-.462-.105-1.2Zm.332,3.786,5.278-.462-.105-1.2-5.278.462Zm12.892-4.943-5.278.462.105,1.2,5.278-.462Zm.332,3.786-.105-1.2-5.278.462.105,1.2Z"/><path class="cls-1" d="M312.717,371.183a.735.735,0,0,1-.369.408,28.869,28.869,0,0,1-3.238,6.931c1.488.824,4.207,2.494,4.972,2.976l-1.41,2.378c-.814-.709-2.363-1.9-3.721-2.883l.976,11.158-2.7.236-.883-10.1a26.326,26.326,0,0,1-3.651,3.528,11.261,11.261,0,0,0-1.6-2.4,24.58,24.58,0,0,0,8.056-10.33l-8.089.708-.218-2.5,4.5-.394-.472-5.393,3.374-.093c-.008.232-.166.419-.617.545l.411,4.7,2.381-.208.42-.152Zm9.924,16.3,6.54-.572.236,2.7-16.407,1.436-.236-2.7,7.084-.62-1-11.445-5.909.517-.233-2.668,5.909-.517-.788-9.007,3.491-.074c-.009.232-.194.422-.648.519l.728,8.318,5.88-.514.233,2.668-5.88.514Z"/><path class="cls-1" d="M356.228,383.128l-5.564.487c3,.6,6.639,1.558,8.9,2.285l-2.212,2.13a80.036,80.036,0,0,0-9.532-2.576l2.013-1.766-8.461.74,2.274,1.217a1.131,1.131,0,0,1-.559.223,34.118,34.118,0,0,1-8.139,4.094,19.136,19.136,0,0,0-2.21-1.8,32.69,32.69,0,0,0,7.744-3.655l-5.02.439L334.354,372.3l20.767-1.817Zm-3.493-20.765.6,6.855-17.5,1.531-.6-6.855ZM337.221,374.01l.146,1.664,15.26-1.335-.146-1.664Zm.306,3.5.148,1.692,15.26-1.335-.148-1.692Zm.309,3.528.151,1.721,15.26-1.335L353.1,379.7Zm12.439-13.748-.221-2.524-11.9,1.042.221,2.524Z"/><path class="cls-1" d="M373.546,367.248c-.038.234-.2.393-.567.454a20.787,20.787,0,0,1-.362,3.125,28.528,28.528,0,0,1,3.523,3.276l-1.443,2a24.1,24.1,0,0,0-2.733-2.824,10.464,10.464,0,0,1-2.477,4.061,15.773,15.773,0,0,0-1.937-1.333c.016,3.814-.4,8.041-2.053,11.221a11.6,11.6,0,0,0-2.48-1.257c2.2-4.239,1.96-9.97,1.6-14.129l-.7-8.031,10.039-.878-.3-3.442,3.488-.1c-.006.26-.166.419-.617.545l.241,2.754,10.67-.934.216,2.467-20.824,1.822.487,5.565c.115,1.32.215,2.785.235,4.344,2.061-1.885,2.906-5.11,3.012-8.848Zm5.861,12.147.3,3.471,9.7-.848.2,2.323-21.857,1.912-.2-2.323,9.523-.833-.3-3.47-7.2.63-.2-2.323,7.2-.63-.979-11.187L378.9,366c-.006.26-.166.419-.617.545l.69,7.888c1.917-1.874,2.756-4.837,2.857-8.314l3.023.2c-.04.206-.228.366-.57.426a19.666,19.666,0,0,1-.4,3.041,42.814,42.814,0,0,1,4.793,3.916l-1.562,1.958a37.624,37.624,0,0,0-3.919-3.5,10.152,10.152,0,0,1-2.683,4.021,10.142,10.142,0,0,0-1.487-1.142l.178,2.037,7.458-.653.2,2.323Z"/><path class="cls-1" d="M403.076,361.774l.191,2.18-10.871.951-.191-2.18Zm-1.369-3.753.186,2.123-8.375.733-.186-2.123Zm.771,7.823.186,2.123-8.576.75-.186-2.123Zm-8.049,6.774-.186-2.123,8.577-.75.186,2.123Zm8.766,1.083.753,8.6-6.311.552.108,1.233-2.323.2-.861-9.838Zm-2.162,2.386-3.958.346.369,4.217,3.958-.346Zm11.8-19.762c-.008.232-.223.425-.62.517a28.267,28.267,0,0,1-.313,5.664,57.609,57.609,0,0,1,7.647,4.158l-1.6,2.221a52.914,52.914,0,0,0-6.738-4.006c-.938,2.163-2.691,3.935-5.892,5.343a7.768,7.768,0,0,0-1.734-1.987c5.86-2.391,6.222-5.862,5.955-11.88Zm-9.224,7.224a8.735,8.735,0,0,0,1.818-4.986l2.277.263a9.381,9.381,0,0,1-1.917,5.515Zm5.021,7.827a10.379,10.379,0,0,1-2.3,6.069l-2.314-1.011A8.883,8.883,0,0,0,406.2,371.1Zm5.25-3.09c-.006.261-.247.484-.669.608l.318,3.643c.153,1.75,1.617,5.928,7.513,7.58a24.157,24.157,0,0,0-1.4,2.464,11.261,11.261,0,0,1-7.173-6.338,11.874,11.874,0,0,1-6.709,7.553,12.381,12.381,0,0,0-1.742-2.073c6.06-2.756,6.888-7.164,6.732-8.942l-.379-4.331Zm4.828-9.9a.729.729,0,0,1-.666.318,37.839,37.839,0,0,1-2.213,4.442c-.031-.026-2.057-.716-2.057-.716a27.645,27.645,0,0,0,1.912-4.907Zm1.407,12.45c-.1.21-.319.317-.692.349a32.013,32.013,0,0,1-2.417,4.75l-2.117-.74a33.156,33.156,0,0,0,2.143-5.245Z"/><path class="cls-1" d="M430.333,366.008l-.183-2.094a35.269,35.269,0,0,1-4.809,3.513,11.573,11.573,0,0,0-1.8-2.1c4.819-2.734,9.266-7.4,11.159-11.208l3.775-.128a.778.778,0,0,1-.617.545,29.8,29.8,0,0,0,12.95,7.943,14.826,14.826,0,0,0-1.534,2.62,37.393,37.393,0,0,1-5.429-2.589l.2,2.295Zm-4.53,6.032-.223-2.553,24.008-2.1.224,2.553-13.653,1.195.648.146q-.142.359-.744.412a56.627,56.627,0,0,1-2.324,5.811c3.32-.377,7.039-.818,10.7-1.254a39.507,39.507,0,0,0-3.878-3.36l2.242-1.468a38.056,38.056,0,0,1,7.429,6.951l-2.36,1.767a22.9,22.9,0,0,0-1.461-1.837c-6.68.96-13.708,1.893-18.165,2.485a.585.585,0,0,1-.45.473l-1.244-2.984c1.2-.134,2.636-.26,4.209-.455a49.869,49.869,0,0,0,2.271-6.413Zm17.705-9.729a30.066,30.066,0,0,1-7.14-5.618,27.579,27.579,0,0,1-5.653,6.738Z"/></g></svg>