<svg xmlns="http://www.w3.org/2000/svg" width="435.164" height="71.763" viewBox="0 0 435.164 71.763"><defs><style>.cls-1{fill:#323232;}.cls-2{fill:#fff;}</style></defs><title>アートボード 19</title><g id="main"><path class="cls-1" d="M84.77,50.5a22.818,22.818,0,0,0,.384,4.368,7.6,7.6,0,0,0,1.44,3.312,7.071,7.071,0,0,0,2.832,2.112,11.263,11.263,0,0,0,4.464.768A8.83,8.83,0,0,0,99.6,58.992q2.542-2.063,2.544-6.384a11.461,11.461,0,0,0-.624-3.984A7.894,7.894,0,0,0,99.458,45.6a14.676,14.676,0,0,0-3.792-2.448A54.587,54.587,0,0,0,89.858,40.9a49.605,49.605,0,0,1-7.968-3.36,21.436,21.436,0,0,1-5.616-4.272A15.278,15.278,0,0,1,72.962,27.6a23.825,23.825,0,0,1-1.056-7.44q0-10.175,5.664-15.168T93.122,0a33.806,33.806,0,0,1,8.5,1.008,17.819,17.819,0,0,1,6.72,3.264,15.287,15.287,0,0,1,4.416,5.76,20.283,20.283,0,0,1,1.584,8.4v1.92H101.09q0-4.9-1.728-7.536t-5.76-2.64a9.62,9.62,0,0,0-3.84.672,6.477,6.477,0,0,0-2.448,1.776,6.109,6.109,0,0,0-1.248,2.544,13.017,13.017,0,0,0-.336,2.976,9.894,9.894,0,0,0,1.344,5.328q1.343,2.16,5.76,3.984l10.656,4.608a32.714,32.714,0,0,1,6.432,3.6,17.584,17.584,0,0,1,3.984,4.032,13.442,13.442,0,0,1,2.064,4.752,26.6,26.6,0,0,1,.576,5.76q0,10.85-6.288,15.792t-17.52,4.944q-11.714,0-16.752-5.088t-5.04-14.592V48.48H84.77Z"/><path class="cls-2" d="M136.322,50.208a28.876,28.876,0,0,0,.336,4.464,14.535,14.535,0,0,0,1.1,3.84,7.242,7.242,0,0,0,2.016,2.688,4.73,4.73,0,0,0,3.072,1.008,5.383,5.383,0,0,0,4.9-2.4,17.718,17.718,0,0,0,2.112-7.3h11.9q-.385,9.025-4.8,13.728t-13.92,4.7q-7.2,0-11.232-2.4a14.886,14.886,0,0,1-5.952-6.336,24.955,24.955,0,0,1-2.352-8.832q-.432-4.9-.432-9.792a67.271,67.271,0,0,1,.72-9.984,24.082,24.082,0,0,1,2.88-8.544,15.642,15.642,0,0,1,6.192-5.952Q136.9,16.9,143.618,16.9a20.9,20.9,0,0,1,9.456,1.872,14.281,14.281,0,0,1,5.808,5.28,22.135,22.135,0,0,1,2.88,8.256,69.435,69.435,0,0,1,.768,10.8V46.08H136.322Zm13.152-17.232a13.411,13.411,0,0,0-1.008-3.84,5.365,5.365,0,0,0-2.016-2.4,6.13,6.13,0,0,0-3.312-.816,5.628,5.628,0,0,0-3.312.912,6.562,6.562,0,0,0-2.064,2.4,11.824,11.824,0,0,0-1.1,3.312,20.017,20.017,0,0,0-.336,3.648v2.016h13.536Q149.761,35.234,149.474,32.976Z"/><path class="cls-1" d="M182.978,54.72a8.015,8.015,0,0,0,1.776,5.424,6.4,6.4,0,0,0,5.136,2.064,7.353,7.353,0,0,0,4.9-1.536,5.685,5.685,0,0,0,1.824-4.608,4.841,4.841,0,0,0-1.44-3.792,11.209,11.209,0,0,0-3.36-2.064l-9.312-3.36a17.68,17.68,0,0,1-8.256-5.424,13.98,13.98,0,0,1-2.784-8.976,17.017,17.017,0,0,1,1.056-6,12.614,12.614,0,0,1,3.36-4.944,16.726,16.726,0,0,1,5.9-3.36,26.68,26.68,0,0,1,8.688-1.248q9.022,0,13.344,3.84t4.32,10.848V33.7h-11.9q0-4.032-1.3-5.9t-4.56-1.872A7.126,7.126,0,0,0,186,27.312a4.872,4.872,0,0,0-1.872,4.176,5.461,5.461,0,0,0,1.2,3.456,9.219,9.219,0,0,0,4.56,2.592l7.968,2.688q6.24,2.113,8.832,5.52t2.592,9.264a16.486,16.486,0,0,1-1.44,7.152,14.036,14.036,0,0,1-3.984,5.04,15.619,15.619,0,0,1-6.048,2.88,32.278,32.278,0,0,1-7.728.864,34.334,34.334,0,0,1-9.264-1.056,13.5,13.5,0,0,1-5.856-3.168,11.437,11.437,0,0,1-3.024-5.136,24.618,24.618,0,0,1-.864-6.768V52.992h11.9Z"/><path class="cls-1" d="M227.52,54.72a8.015,8.015,0,0,0,1.776,5.424,6.4,6.4,0,0,0,5.136,2.064,7.353,7.353,0,0,0,4.9-1.536,5.685,5.685,0,0,0,1.824-4.608,4.841,4.841,0,0,0-1.44-3.792,11.209,11.209,0,0,0-3.36-2.064l-9.312-3.36a17.68,17.68,0,0,1-8.256-5.424A13.98,13.98,0,0,1,216,32.448a17.017,17.017,0,0,1,1.056-6,12.614,12.614,0,0,1,3.36-4.944,16.726,16.726,0,0,1,5.9-3.36,26.68,26.68,0,0,1,8.688-1.248q9.022,0,13.344,3.84t4.32,10.848V33.7h-11.9q0-4.032-1.3-5.9t-4.56-1.872a7.126,7.126,0,0,0-4.368,1.392,4.872,4.872,0,0,0-1.872,4.176,5.461,5.461,0,0,0,1.2,3.456,9.219,9.219,0,0,0,4.56,2.592l7.968,2.688q6.24,2.113,8.832,5.52t2.592,9.264a16.486,16.486,0,0,1-1.44,7.152A14.036,14.036,0,0,1,248.4,67.2a15.619,15.619,0,0,1-6.048,2.88,32.278,32.278,0,0,1-7.728.864,34.334,34.334,0,0,1-9.264-1.056A13.5,13.5,0,0,1,219.5,66.72a11.437,11.437,0,0,1-3.024-5.136,24.618,24.618,0,0,1-.864-6.768V52.992h11.9Z"/><path class="cls-1" d="M274.415,4.176V8.3h-6.048V4.176h6.048m0,17.664V66.288h-6.048V21.84h6.048m3.6-21.264H264.767V11.9h13.248V.576Zm0,17.664H264.767V69.888h13.248V18.24Z"/><path class="cls-1" d="M290.494,32.352a22.559,22.559,0,0,1,3.456-8.5,15.339,15.339,0,0,1,6.288-5.184A22.935,22.935,0,0,1,309.79,16.9a24.324,24.324,0,0,1,9.888,1.584,13.865,13.865,0,0,1,6.24,5.136,22.923,22.923,0,0,1,3.264,8.544,64.991,64.991,0,0,1,.96,11.9,58.082,58.082,0,0,1-1.056,11.712,22.576,22.576,0,0,1-3.456,8.5,14.3,14.3,0,0,1-6.288,5.04,24.713,24.713,0,0,1-9.552,1.632,25.555,25.555,0,0,1-9.888-1.488,13.359,13.359,0,0,1-6.24-4.992A22.466,22.466,0,0,1,290.4,55.92a65.054,65.054,0,0,1-.96-11.856A58,58,0,0,1,290.494,32.352ZM302.878,51.36a25.23,25.23,0,0,0,.912,5.76,8.22,8.22,0,0,0,2.16,3.744,5.4,5.4,0,0,0,3.84,1.344q4.032,0,5.568-4.224t1.536-13.92q0-9.7-1.536-13.92T309.79,25.92a5.4,5.4,0,0,0-3.84,1.344,8.236,8.236,0,0,0-2.16,3.744,25.257,25.257,0,0,0-.912,5.76q-.193,3.362-.192,7.3T302.878,51.36Z"/><path class="cls-1" d="M349.917,18.24v6.048h.192a13.442,13.442,0,0,1,5.472-5.616,16.189,16.189,0,0,1,7.68-1.776q6.336,0,9.744,3.456t3.408,11.232v38.3H363.165V34.272q0-4.032-1.344-5.616a5.371,5.371,0,0,0-4.32-1.584q-7.009,0-7.008,8.544V69.888H337.246V18.24Z"/><path class="cls-2" d="M431.264,5.82V65.988H425.24v-44.1a3.9,3.9,0,0,0-3.9-3.9H411.7V16.67a21.737,21.737,0,0,0,10.372-3.129,14.777,14.777,0,0,0,5.909-7.72h3.28m3.9-3.9H424.989q-1.058,5.76-5.04,8.352t-10.9,2.592H407.8v9.024h13.536v48h13.824V1.92Z"/><path class="cls-1" d="M27.073,71.763a1.875,1.875,0,0,1-1.55-2.927L47.157,36.93,25.523,5.025a1.875,1.875,0,0,1,3.1-2.1L50.974,35.878a1.875,1.875,0,0,1,0,2.1L28.627,70.94A1.873,1.873,0,0,1,27.073,71.763Z"/><path class="cls-1" d="M1.873,71.763a1.875,1.875,0,0,1-1.55-2.927L21.957,36.93.323,5.025a1.875,1.875,0,0,1,3.1-2.1L25.774,35.878a1.875,1.875,0,0,1,0,2.1L3.427,70.94A1.873,1.873,0,0,1,1.873,71.763Z"/></g></svg>