<svg xmlns="http://www.w3.org/2000/svg" width="1198.303" height="1682.553" viewBox="0 0 1198.303 1682.553"><defs><style>.cls-1{fill:#fff;}</style></defs><title>アートボード 11</title><g id="column"><path class="cls-1" d="M1166.129,1259.813a141.852,141.852,0,0,0-35.231-160.508,103.093,103.093,0,0,0,1.689-80.082c26.145-24.769,42.6-60.735,42.6-100.77a139.48,139.48,0,0,0-29.311-86.162,132.767,132.767,0,0,0,14.7-198.4,132.532,132.532,0,0,0-12.354-133.224,149.589,149.589,0,0,0,15.916-67.508,152,152,0,0,0-3.482-32.454c16.806-18.8,27.645-48.379,27.645-81.653,0-29.508-8.524-56.11-22.174-74.867a141.017,141.017,0,0,0,11.292-55.438c0-79.351-65.5-143.678-146.288-143.678a148.138,148.138,0,0,0-55.9,10.871c-15.811-25.422-43.028-42.209-73.958-42.209-29.271,0-55.216,15.034-71.316,38.191C820.039,38.047,804.3,29.08,786.584,29.08a52.042,52.042,0,0,0-30.037,9.573C732.263,14.679,699.663,0,663.815,0c-42.3,0-80.076,20.426-105,52.455-19.75-21.431-47.342-34.747-77.88-34.747-30.911,0-58.808,13.637-78.6,35.53-9.926-13.855-25.651-22.81-43.359-22.81-22.536,0-41.867,14.5-50.109,35.149-20.78-32.938-56.241-54.641-96.5-54.641-49.521,0-91.781,32.832-108.386,79.025C44.323,105.145,0,161.9,0,229.607c0,47.349,21.679,89.342,55.114,115.51-29.932,24.761-49.171,63.3-49.171,106.6,0,48.923,24.567,91.777,61.369,115.536A141.884,141.884,0,0,0,30.174,729.48C16.523,748.237,8,774.839,8,804.347c0,35.85,12.581,67.41,31.652,85.822a107.655,107.655,0,0,0,11.056,121.925c-24.432,22.467-39.878,55.571-39.878,92.492a126.4,126.4,0,0,0,25.779,77.042,132.568,132.568,0,0,0,11.646,165.1C30.54,1376.6,20.1,1413.215,20.1,1452.779c0,100.593,67.427,182.14,150.6,182.14a128.528,128.528,0,0,0,62.194-16.211c23.8,38.263,67.025,63.845,116.4,63.845,48.234,0,90.6-24.41,114.717-61.2,24.93,31.079,62.129,50.81,103.693,50.81,48.987,0,91.915-27.4,115.831-68.5,9.016,18.554,27.285,31.255,48.373,31.255,23.985,0,44.328-16.428,51.547-39.216a137.15,137.15,0,0,0,220.836-5.461,129.527,129.527,0,0,0,23.929,2.222c75.06,0,135.909-64.326,135.909-143.677a152,152,0,0,0-3.482-32.454c16.806-18.8,27.645-48.379,27.645-81.652C1188.3,1305.172,1179.779,1278.57,1166.129,1259.813ZM248.954,511c.041.536.09,1.068.138,1.6-.436.281-.867.568-1.3.857C248.189,512.65,248.573,511.828,248.954,511Z"/></g></svg>