<svg xmlns="http://www.w3.org/2000/svg" width="753.075" height="633.211" viewBox="0 0 753.075 633.211"><defs><style>.cls-1{fill:#fff;}</style></defs><title>アートボード 9</title><g id="column"><path class="cls-1" d="M753.075,319.048c0-29.508-8.524-56.11-22.174-74.867a141.017,141.017,0,0,0,11.292-55.438c0-79.351-65.5-143.678-146.288-143.678a148.134,148.134,0,0,0-55.9,10.871C524.2,30.514,496.981,13.726,466.051,13.726c-29.271,0-55.216,15.034-71.316,38.191-9.925-13.871-25.66-22.838-43.379-22.838a52.043,52.043,0,0,0-30.037,9.573C297.034,14.679,264.435,0,228.587,0,153.527,0,92.679,64.326,92.679,143.677c0,.1,0,.206,0,.31C38.815,163.078,0,216.865,0,280.239c0,51.573,25.709,96.792,64.313,122.136a150.563,150.563,0,0,0-9.151,51.915c0,79.351,60.848,143.677,135.909,143.677a129.26,129.26,0,0,0,55.984-12.718c8.485,20.056,27.51,34.039,49.637,34.039,23.985,0,44.328-16.428,51.546-39.216a137.15,137.15,0,0,0,220.836-5.461A129.527,129.527,0,0,0,593,576.832c75.06,0,135.909-64.326,135.909-143.677A152,152,0,0,0,725.43,400.7C742.236,381.9,753.075,352.322,753.075,319.048Z"/></g></svg>