<svg xmlns="http://www.w3.org/2000/svg" width="644.184" height="303.058" viewBox="0 0 644.184 303.058"><defs><style>.cls-1{fill:#323232;}.cls-2{fill:#f8ea21;}</style></defs><title>アートボード 18</title><g id="成熟期"><circle class="cls-1" cx="100.027" cy="136.581" r="100" transform="translate(-40.681 42.448) rotate(-20)"/><path class="cls-1" d="M322.444,206a103,103,0,1,1,103-103A103.117,103.117,0,0,1,322.444,206Zm0-200a97,97,0,1,0,97,97A97.11,97.11,0,0,0,322.444,6Z"/><circle class="cls-1" cx="544.157" cy="136.581" r="100" transform="translate(229.7 601.208) rotate(-70)"/><rect class="cls-1" x="320.092" y="227" width="4" height="52.914"/><rect class="cls-1" x="464.201" y="275.512" width="52.914" height="4" transform="translate(62.061 643.658) rotate(-69.999)"/><rect class="cls-1" x="151.525" y="251.055" width="4" height="52.914" transform="translate(-85.656 69.245) rotate(-20)"/><path class="cls-2" d="M109.056,112.567a238.773,238.773,0,0,0,15.1,27.5,110.959,110.959,0,0,0,1.5-27.058l15.56-1.148c.13.995-.669,1.98-2.341,2.473a129.312,129.312,0,0,1-4.684,38.985c5.682,6.384,10.832,9.719,14.41,8.417,2.557-.931,2.016-6.87-2.1-20.077A31.545,31.545,0,0,0,158.952,145c4.877,19.76,2.564,25.812-6.943,29.272-7.194,2.5-14.919-.591-22.646-7.5a91.5,91.5,0,0,1-12.347,20.472,82.379,82.379,0,0,0-11.574-6.67,78.123,78.123,0,0,0,14.409-24.348C111.687,145.88,103.838,131.949,96.89,117L66.016,128.233l3.758,10.326,19.834-7.219,6.412-2.1,1.34,3.68c8,23.254,10.736,32.678,9.538,36.7-1.588,4.861-4.32,6.9-17.313,11.28-1.609-3.467-4.584-7.825-7.5-10.121,3.895-1.07,7.408-2.232,9.043-2.828a3.913,3.913,0,0,0,2.621-2.343c.6-1.84-.922-7.306-5.564-21.015L73.868,149.8c5.023,15.075,9.779,35.458,4.876,51.251a51.693,51.693,0,0,0-12.55-4.579c4.541-15.2-1.144-33.043-5.98-46.333L49.571,120.9l42.223-15.368c-2.279-5.307-4.493-10.752-6.465-16.171l15.734-4.8c.308,1.162-.389,2.11-2.221,3.124,1.535,4.536,3.275,9,5.117,13.42l17.175-6.251a112.6,112.6,0,0,0-16.026-4.587l5.063-9.947c6.433,1.133,15.161,3.165,19.9,5.376l-3.418,7.149,8.895-3.237,4.279,11.757Z"/><path class="cls-1" d="M297.2,132.52c-2.937,7.507-7.834,15.667-13.057,20.889-3.807-1.632-7.832-3.155-12.4-5,4.9-4.243,9.9-11.858,12.838-19.148Zm7.506-18.169v5c0,8.7-3.48,9.792-19.256,9.792a36.024,36.024,0,0,0-3.373-8.812c2.285.109,4.569.217,6.311.217,4.025,0,4.46,0,4.46-1.523V114.9c-6.2.327-11.858.544-16.428.653a1.964,1.964,0,0,1-1.85,1.523l-2.067-10.335c5.658,0,12.621-.109,20.345-.326v-4.352l3.591.109c1.522-.762,3.046-1.632,4.46-2.5h-24.7V91.94H311.89l1.632-.544,7.834,5.113a2.936,2.936,0,0,1-2.176.979,134.05,134.05,0,0,1-13.817,8.7l18.06-.435-.326,7.616ZM324.946,58.1V66.7h-52V58.1h19.691v-7.4l15.014.87c-.108,1.088-.87,1.632-2.828,1.958V58.1Zm-6.2,30.571H278.925V69.963h39.819ZM289.588,76.817v5.113h17.951V76.817Zm15.775,75.612a132.8,132.8,0,0,0-1.741-19.474l12.186-1.2a111.656,111.656,0,0,1,2.611,19.039Zm40.8-85.3h17.3c-.109,10.227-.218,18.822-.218,25.894,0,15.667.544,23.5,3.046,23.5,1.2,0,1.633-5.983,1.741-13.382a47.663,47.663,0,0,0,7.181,7.507c-.979,11.968-2.829,16.972-9.9,16.972-8.486,0-11.642-7.507-12.838-22.847l-6.093,9.465a65.381,65.381,0,0,0-6.2-6.636c-3.373,8.812-8.378,16.21-16.319,21.977a28.806,28.806,0,0,0-7.615-8.269c7.615-5.548,12.076-12.729,14.688-21.542-3.482-2.72-6.963-5.331-10.228-7.507l6.093-8.921c2.066,1.305,4.352,2.829,6.637,4.352.436-3.046.652-6.31.87-9.683H324.294V67.134h10.443c.109-5.222.219-10.662.219-16.428l14.36.87c-.108,1.088-1.088,1.85-2.829,1.958Zm-15.449,85.187a98.683,98.683,0,0,0-5.222-19.475l12.294-1.958a96.2,96.2,0,0,1,5.983,18.93Zm14.905-74.307A161.451,161.451,0,0,1,343.549,95.2a73.9,73.9,0,0,1,8.813,8.051c-.436-6.854-.543-15.34-.543-25.24Zm14.361,75.5c-2.285-5.44-7.833-14.47-12.62-20.889l12.62-3.808c4.678,6.2,10.661,14.688,13.49,20.454Z"/><path class="cls-2" d="M512.54,159.2a2.5,2.5,0,0,1-2.891-.01,76.351,76.351,0,0,1-21.113,13.155,83.26,83.26,0,0,0-6.605-10.161c6.461-2.164,13.927-7.088,19.059-12.283Zm31.67-6.534L540.3,163.4,488.47,144.531l3.907-10.734,9.3,3.387,13.954-38.338-8.076-2.939,3.907-10.734,8.076,2.939,3.981-10.939,13.3,5.767c-.437.883-1.34,1.133-3.189.808l-3.051,8.383,12.882,4.688,3.981-10.939,13.5,5.842c-.437.883-1.377,1.235-3.189.808l-3.051,8.383,6.952,2.53-3.907,10.734-6.951-2.53-13.955,38.337Zm-28.958-18.413-2.53,6.952L525.6,145.89l2.53-6.952Zm91.182-23.08-28.577,78.516c-4.094,11.245-9.243,12.034-26.14,5.652a47.6,47.6,0,0,0,.767-12.919c2.584,1.171,5.446,2.213,7.593,3,4.806,1.749,5.316,1.935,6.1-.212l7.517-20.651-16.256-5.917c-5.868,11.989-13.764,23.819-24.063,30.49a48.552,48.552,0,0,0-6.234-9.91l-5.949,1.077c-.658-4.871-3.11-13.4-5.45-19.7l11.164-1.726a139.783,139.783,0,0,1,5.266,15.115c10.915-10.268,17.408-26.2,22.059-38.977l13.769-37.826ZM521.019,118.4l-2.344,6.441,12.882,4.688,2.344-6.441Zm18.538-10.851-12.882-4.688L524.443,109l12.882,4.688Zm26.119,31.62c-1,2.761-2.121,5.827-3.442,8.819l15.438,5.619,4.54-12.473-15.232-5.544Zm24.943-21.139-15.232-5.544-4.465,12.268,15.232,5.544Z"/></g></svg>