<svg xmlns="http://www.w3.org/2000/svg" width="644.184" height="303.058" viewBox="0 0 644.184 303.058"><defs><style>.cls-1{fill:#323232;}.cls-2{fill:#f8ea21;}</style></defs><title>アートボード 17</title><g id="拡大期"><circle class="cls-1" cx="100.027" cy="136.581" r="100" transform="translate(-40.681 42.448) rotate(-20)"/><path class="cls-1" d="M322.444,206a103,103,0,1,1,103-103A103.117,103.117,0,0,1,322.444,206Zm0-200a97,97,0,1,0,97,97A97.11,97.11,0,0,0,322.444,6Z"/><circle class="cls-1" cx="544.157" cy="136.581" r="100" transform="translate(229.7 601.208) rotate(-70)"/><rect class="cls-1" x="320.092" y="227" width="4" height="52.914"/><rect class="cls-1" x="464.201" y="275.512" width="52.914" height="4" transform="translate(62.061 643.658) rotate(-69.999)"/><rect class="cls-1" x="151.525" y="251.055" width="4" height="52.914" transform="translate(-85.656 69.245) rotate(-20)"/><path class="cls-2" d="M83.178,140.4l5.19,9.8c-3.234,2.566-6.57,5.17-9.739,7.6l9.117,25.047c3.684,10.121,1.222,14.49-13.676,19.681a49.339,49.339,0,0,0-7.3-10.194c2.184-.679,4.368-1.358,6-1.954,3.885-1.414,4.294-1.562,3.624-3.4l-7.814-21.469-6.542,4.928a2.571,2.571,0,0,1-1.17,2.51l-7.942-12.276c3.215-1.981,7.035-4.529,11.226-7.328l-6.772-18.606-10.939,3.981-4.13-11.348,10.939-3.981-7.219-19.833L60.2,99.207c.27,1.06-.223,1.933-1.886,2.771L64.6,119.254,74.926,115.5l4.13,11.348L68.73,130.6l5.73,15.744Zm9.567-22.7,2.307,6.338c6.289,17.278,14.319,45.384,10.365,66.968a48.066,48.066,0,0,0-12.53-2.618c3.991-20.208-3.8-44.466-9.527-60.21l-6.325-17.38,23.1-8.409-5.991-16.46,15.326-4.652c.307,1.162-.139,2.482-1.97,3.5l4.8,13.188,23.207-8.447,4.056,11.143Zm44.016,13.734c10.841,10.063,22.78,23.779,28.416,33.537l-10.036,8.052a101.779,101.779,0,0,0-6.324-9.739c-12.184,6.287-24.4,12.472-32.723,16.657a2.491,2.491,0,0,1-1.143,2.269l-8.4-11.3,7.751-3.516a334.954,334.954,0,0,0-7.627-49.9l15.67-2.115c.029,1.032-.938,2.193-2.434,2.854a394.285,394.285,0,0,1,5.813,43.964c5.27-2.381,10.809-4.977,16.45-7.608a210.484,210.484,0,0,0-14.756-16.048Z"/><path class="cls-1" d="M371.184,93.681H332.126c6.419,22.521,19.039,39.6,41.451,47.108a56.561,56.561,0,0,0-9.465,12.512c-20.889-8.16-33.291-23.173-41.233-44.171-5.983,17.842-17.733,33.835-41.451,44.28a40.927,40.927,0,0,0-9.574-11.424c26.546-10.771,36.773-28.4,40.581-48.3H273.921V80.19h40.363c.762-9.683.653-19.583.762-29.375l17.3,1.088c-.217,1.2-1.2,1.958-3.046,2.285-.108,8.377-.217,17.189-.979,26h42.865Z"/><path class="cls-2" d="M512.539,159.2a2.5,2.5,0,0,1-2.891-.01,76.356,76.356,0,0,1-21.113,13.155,83.434,83.434,0,0,0-6.605-10.161c6.46-2.164,13.926-7.088,19.058-12.283Zm31.67-6.534L540.3,163.4,488.47,144.531l3.907-10.734,9.3,3.387,13.954-38.338-8.076-2.939,3.907-10.734,8.076,2.939,3.981-10.939,13.3,5.767c-.437.883-1.339,1.133-3.189.808l-3.051,8.383,12.882,4.688,3.981-10.939,13.5,5.842c-.437.883-1.376,1.235-3.189.808l-3.051,8.383,6.952,2.53-3.907,10.734-6.952-2.53-13.954,38.337Zm-28.958-18.413-2.53,6.952L525.6,145.89l2.53-6.952Zm91.182-23.08-28.578,78.516c-4.093,11.245-9.243,12.034-26.139,5.652a47.6,47.6,0,0,0,.767-12.919c2.584,1.171,5.446,2.213,7.593,3,4.806,1.749,5.316,1.935,6.1-.212l7.516-20.651-16.255-5.917c-5.869,11.989-13.764,23.819-24.064,30.49a48.552,48.552,0,0,0-6.234-9.91l-5.949,1.077c-.658-4.871-3.11-13.4-5.45-19.7l11.164-1.726a139.681,139.681,0,0,1,5.266,15.115c10.915-10.268,17.408-26.2,22.059-38.977l13.768-37.826ZM521.019,118.4l-2.344,6.441,12.882,4.688,2.344-6.441Zm18.538-10.851-12.882-4.688L524.443,109l12.882,4.688Zm26.119,31.62c-1,2.761-2.121,5.827-3.442,8.819l15.438,5.619,4.54-12.473-15.232-5.544Zm24.944-21.139-15.232-5.544-4.465,12.268,15.232,5.544Z"/></g></svg>