<svg xmlns="http://www.w3.org/2000/svg" width="644.184" height="303.058" viewBox="0 0 644.184 303.058"><defs><style>.cls-1{fill:#323232;}.cls-2{fill:#f8ea21;}</style></defs><title>アートボード 16</title><g id="成長期"><circle class="cls-1" cx="100.027" cy="136.581" r="100" transform="translate(-40.681 42.448) rotate(-20)"/><path class="cls-1" d="M322.444,206a103,103,0,1,1,103-103A103.117,103.117,0,0,1,322.444,206Zm0-200a97,97,0,1,0,97,97A97.11,97.11,0,0,0,322.444,6Z"/><circle class="cls-1" cx="544.157" cy="136.581" r="100" transform="translate(229.7 601.208) rotate(-70)"/><rect class="cls-1" x="320.092" y="227" width="4" height="52.914"/><rect class="cls-1" x="464.202" y="275.512" width="52.914" height="4" transform="translate(62.061 643.658) rotate(-69.999)"/><rect class="cls-1" x="151.525" y="251.055" width="4" height="52.914" transform="translate(-85.656 69.245) rotate(-20)"/><path class="cls-2" d="M109.057,112.567a238.7,238.7,0,0,0,15.1,27.5,110.984,110.984,0,0,0,1.5-27.058l15.559-1.148c.13.995-.668,1.98-2.341,2.473a129.312,129.312,0,0,1-4.683,38.985c5.681,6.384,10.832,9.719,14.41,8.417,2.556-.931,2.015-6.87-2.1-20.077A31.543,31.543,0,0,0,158.952,145c4.876,19.76,2.564,25.812-6.944,29.272-7.194,2.5-14.918-.591-22.645-7.5a91.516,91.516,0,0,1-12.347,20.472,82.351,82.351,0,0,0-11.574-6.67,78.123,78.123,0,0,0,14.409-24.348C111.687,145.88,103.838,131.949,96.891,117L66.017,128.233l3.758,10.326,19.833-7.219,6.413-2.1,1.34,3.68c8,23.254,10.736,32.678,9.538,36.7-1.588,4.861-4.32,6.9-17.313,11.28-1.609-3.467-4.585-7.825-7.5-10.121,3.895-1.07,7.408-2.232,9.043-2.828a3.914,3.914,0,0,0,2.621-2.343c.6-1.84-.922-7.306-5.565-21.015L73.868,149.8c5.024,15.075,9.779,35.458,4.876,51.251a51.7,51.7,0,0,0-12.55-4.579c4.541-15.2-1.144-33.043-5.981-46.333L49.571,120.9l42.223-15.368c-2.279-5.307-4.493-10.752-6.465-16.171l15.735-4.8c.307,1.162-.39,2.11-2.221,3.124,1.535,4.536,3.275,9,5.116,13.42l17.175-6.251a112.607,112.607,0,0,0-16.026-4.587l5.063-9.947c6.433,1.133,15.161,3.165,19.9,5.376l-3.418,7.149,8.895-3.237,4.279,11.757Z"/><path class="cls-1" d="M360.087,114.025l9.683,7.289c-.544.653-1.85.871-3.264.653a180.877,180.877,0,0,1-17.842,10.444c6.963,4.352,15.449,7.507,25.458,9.356a54.615,54.615,0,0,0-8.269,11.75c-24.7-5.658-39.384-18.822-48.522-39.493H304.6v23.282c7.507-.979,15.449-1.958,23.064-3.046l.544,10.662c-16.1,2.829-33.074,5.549-44.062,7.181a2.316,2.316,0,0,1-1.85,1.85l-4.787-13.382,13.6-1.523V114.025H272.942V102.384H291.22V54.514h69.52V65.176H304.6v5.766h52.983V81.06H304.6v5.549h52.983V96.727H304.6v5.658h67.453v11.641Zm-29.157,0a49.015,49.015,0,0,0,8.7,11.314,153.27,153.27,0,0,0,16.646-11.314Z"/><path class="cls-2" d="M512.54,159.2a2.5,2.5,0,0,1-2.891-.01,76.356,76.356,0,0,1-21.113,13.155,83.434,83.434,0,0,0-6.605-10.161c6.46-2.164,13.926-7.088,19.058-12.283Zm31.67-6.534L540.3,163.4l-51.833-18.866,3.907-10.734,9.3,3.387,13.954-38.338-8.076-2.939,3.907-10.734,8.076,2.939,3.981-10.939,13.3,5.767c-.437.883-1.339,1.133-3.189.808l-3.051,8.383,12.882,4.688,3.981-10.939,13.5,5.842c-.437.883-1.376,1.235-3.189.808l-3.051,8.383,6.952,2.53-3.907,10.734-6.952-2.53-13.954,38.337Zm-28.958-18.413-2.53,6.952L525.6,145.89l2.53-6.952Zm91.182-23.08-28.578,78.516c-4.093,11.245-9.243,12.034-26.139,5.652a47.6,47.6,0,0,0,.767-12.919c2.584,1.171,5.446,2.213,7.593,3,4.806,1.749,5.316,1.935,6.1-.212l7.516-20.651-16.255-5.917c-5.869,11.989-13.764,23.819-24.064,30.49a48.552,48.552,0,0,0-6.234-9.91l-5.949,1.077c-.658-4.871-3.11-13.4-5.45-19.7l11.164-1.726a139.681,139.681,0,0,1,5.266,15.115c10.915-10.268,17.408-26.2,22.059-38.977l13.768-37.826ZM521.019,118.4l-2.344,6.441,12.882,4.688,2.344-6.441Zm18.538-10.851-12.882-4.688L524.443,109l12.882,4.688Zm26.119,31.62c-1,2.761-2.121,5.827-3.442,8.819l15.438,5.619,4.54-12.473-15.232-5.544Zm24.944-21.139-15.232-5.544-4.465,12.268,15.232,5.544Z"/></g></svg>