<svg xmlns="http://www.w3.org/2000/svg" width="296.934" height="195.449" viewBox="0 0 296.934 195.449"><defs><style>.cls-1{fill:#fff;}</style></defs><title>アートボード 21</title><g id="成長期_column"><path class="cls-1" d="M49.7,113.073,39.377,124.239,82.039,163.7,72.507,174,29.844,134.549,19.517,145.714,11.071,137.9l30.187-32.642Z"/><path class="cls-1" d="M60.2,115a32.314,32.314,0,0,1-4.861-10.861,18.022,18.022,0,0,1,.731-10.318q1.88-5.054,7.947-10.111t11.38-5.989a18.008,18.008,0,0,1,10.28,1.144,32.3,32.3,0,0,1,9.805,6.741,134.331,134.331,0,0,1,9.892,10.731,133.983,133.983,0,0,1,8.8,11.7A32.22,32.22,0,0,1,119,118.866a17.091,17.091,0,0,1-.826,10.2q-1.972,4.944-8.041,10t-11.286,6.1a17.092,17.092,0,0,1-10.186-1.03,32.2,32.2,0,0,1-9.774-6.705,134.035,134.035,0,0,1-9.923-10.769A134.456,134.456,0,0,1,60.2,115ZM87.66,126.639a33.111,33.111,0,0,0,6.167,5.27,8.884,8.884,0,0,0,5.118,1.574,9.622,9.622,0,0,0,7.716-6.429,8.878,8.878,0,0,0-.624-5.317,33.185,33.185,0,0,0-4.069-7.018q-2.889-4-7.383-9.395T86.708,96.4a33.877,33.877,0,0,0-6.166-5.27,8.915,8.915,0,0,0-5.149-1.611,9.629,9.629,0,0,0-7.716,6.429,8.909,8.909,0,0,0,.655,5.356,33.787,33.787,0,0,0,4.069,7.016q2.859,3.967,7.352,9.357T87.66,126.639Z"/><path class="cls-1" d="M132.885,95.158a31.433,31.433,0,0,0,2.744,3.985,10.894,10.894,0,0,0,3.022,2.632,6.771,6.771,0,0,0,3.471.9,9.415,9.415,0,0,0,7.014-4.133,6.911,6.911,0,0,0,.855-3.447,10.963,10.963,0,0,0-.838-3.919A31.669,31.669,0,0,0,147,86.842L122.345,45.011l12.1-7.129,24.652,41.833a28.09,28.09,0,0,1,3.973,10.39,17.5,17.5,0,0,1-.794,8.447,16.851,16.851,0,0,1-4.4,6.553,38.576,38.576,0,0,1-6.694,4.964,43.26,43.26,0,0,1-7.536,3.536,16.821,16.821,0,0,1-7.741.883,16.23,16.23,0,0,1-7.724-3.312,29.672,29.672,0,0,1-7.388-8.888L96.137,60.455l12.1-7.129Z"/><path class="cls-1" d="M180.914,31.82q-2.935-2.572-7.388-.846a6.571,6.571,0,0,0-3.534,2.888,9.37,9.37,0,0,0-.842,5.241,39.025,39.025,0,0,0,1.726,8.221q1.488,4.913,4.169,11.821a121.553,121.553,0,0,0,5.121,11.713,28.3,28.3,0,0,0,4.28,6.445,6.918,6.918,0,0,0,3.941,2.341,8.139,8.139,0,0,0,4.016-.566,9.333,9.333,0,0,0,3-1.843,5.864,5.864,0,0,0,1.673-3.368,16.506,16.506,0,0,0-.213-5.67,49,49,0,0,0-2.662-8.746l13.089-5.079a62.837,62.837,0,0,1,3.062,10.315,24.3,24.3,0,0,1,.166,9.454,16.237,16.237,0,0,1-4.12,7.979,25.5,25.5,0,0,1-9.723,6.073q-7.362,2.859-12.643,2.188a17.09,17.09,0,0,1-9.326-4.225,32.2,32.2,0,0,1-7.127-9.47A134.166,134.166,0,0,1,161.6,63.317a134.579,134.579,0,0,1-4.592-13.855,32.333,32.333,0,0,1-1.145-11.844,18.025,18.025,0,0,1,3.982-9.547q3.394-4.191,10.756-7.05,7-2.716,11.926-2.014a16.6,16.6,0,0,1,8.284,3.427,21.487,21.487,0,0,1,5.428,6.574,66.63,66.63,0,0,1,3.445,7.4L186.6,41.484Q183.847,34.393,180.914,31.82Z"/><path class="cls-1" d="M220.718,6.673l5.838,25.97,15.981-3.594L236.7,3.08,250.4,0l15.271,67.92L251.969,71l-6.78-30.154-15.981,3.593,6.78,30.155-13.7,3.079L207.02,9.753Z"/><rect class="cls-1" x="27.329" y="152.27" width="6" height="61.778" transform="translate(-153.342 156.106) rotate(-72.219)"/><rect class="cls-1" x="257.689" y="32.458" width="61.778" height="6" transform="translate(203.219 313.393) rotate(-79.932)"/></g></svg>