<svg xmlns="http://www.w3.org/2000/svg" width="336.475" height="66.565" viewBox="0 0 336.475 66.565"><defs><style>.cls-1{fill:#abcd03}</style></defs><title>img_shop-info</title><g id="レイヤー_2" data-name="レイヤー 2"><path class="cls-1" d="M128.725 44a8.609 8.609 0 0 0-.131-1.586h3.121a6.554 6.554 0 0 0-.131 1.612v.936h6.449a24.231 24.231 0 0 0 3.275-.155v2.886c-.779-.078-1.949-.13-3.225-.13h-15.392c.027 11.024-.6 14.95-2.99 18.851a11.232 11.232 0 0 0-2.312-2.236 13.145 13.145 0 0 0 1.949-5.277 59.76 59.76 0 0 0 .547-10.115c0-2.21-.027-3.042-.105-3.952.91.078 1.9.13 3.068.13h5.877zm.988 6.786a14.718 14.718 0 0 0-.131-2.573h2.965a18.7 18.7 0 0 0-.1 2.573v.313h5.453a16.807 16.807 0 0 0 2.756-.156V53.8a19.579 19.579 0 0 0-2.652-.156h-5.562v2.73h4.758a17.184 17.184 0 0 0 2.287-.1 25.639 25.639 0 0 0-.1 2.627v4.237a22.259 22.259 0 0 0 .156 3.381h-2.965V65.4h-9.619v1.092h-2.939a23.858 23.858 0 0 0 .156-3.2v-4.735a19.085 19.085 0 0 0-.1-2.288 17.919 17.919 0 0 0 2.314.1h3.328zm-2.756 12.039h9.619v-3.852h-9.619zm20.227-10.795a13.865 13.865 0 0 0-1.689.078V50c-.391.338-.6.494-1.2.962a10.2 10.2 0 0 0-1.119-2.7 11.358 11.358 0 0 0 2.965-2.652 15.789 15.789 0 0 0 2-2.912h2.781a12.618 12.618 0 0 0 3.459 3.563v-1.225a14.246 14.246 0 0 0 2.393.131h2.912v-.572a11.464 11.464 0 0 0-.156-2.106h2.807a9.192 9.192 0 0 0-.154 2.106v.572h3.2a11.11 11.11 0 0 0-2.471-1.639l1.457-1.4a10.7 10.7 0 0 1 2.7 1.664l-1.2 1.379a10.328 10.328 0 0 0 1.793-.131v2.782a12.617 12.617 0 0 0-2.156-.13h-3.328V49.4h2.65c1.223 0 1.717-.025 2.367-.077a21.961 21.961 0 0 0-.1 2.651v12.173c0 1.508-.678 2.027-2.627 2.027-.26 0-.391 0-1.273-.052a8.7 8.7 0 0 0-.521-2.47 9.059 9.059 0 0 0 1.482.13c.365 0 .469-.13.469-.6v-2.6h-2.443v3.172a18.03 18.03 0 0 0 .1 2.393h-2.705a18.782 18.782 0 0 0 .105-2.366v-3.2h-2.332V63.6a23.935 23.935 0 0 0 .105 2.859h-2.68a19.707 19.707 0 0 0 .131-2.834v-11.7c0-1.378-.025-1.846-.078-2.6.676.052 1.223.077 2.6.077h2.264v-1.714h-2.912a20.1 20.1 0 0 0-2.393.1c-.287.546-.365.7-.676 1.378a15.955 15.955 0 0 1-4.109-4.16 19.933 19.933 0 0 1-3.848 4.758c.416.026.807.052 1.4.052h1.223v-.182a15.638 15.638 0 0 0-.105-2.21h2.783a11.528 11.528 0 0 0-.131 2.184v.208h1.17a8.5 8.5 0 0 0 1.639-.077v2.365a10.954 10.954 0 0 0-1.586-.078h-1.223V53.9h1.352a19.9 19.9 0 0 0 2.08-.078v2.5a12.441 12.441 0 0 0-2.027-.1h-6.344a12.336 12.336 0 0 0-2.133.13V53.8a15.87 15.87 0 0 0 2.133.1h2.393v-1.87zM150.9 66.2v-.884h-3.225v1.144H144.9a13.966 13.966 0 0 0 .129-2.288v-4.393a16.73 16.73 0 0 0-.1-2.106 14.444 14.444 0 0 0 2.027.1h4.76a11.472 11.472 0 0 0 1.871-.1 33.626 33.626 0 0 0-.053 1.977v4.68a11.885 11.885 0 0 0 .105 1.872zm-3.225-3.172h3.225v-3.093h-3.225zm9.672-11.284V53.9h2.342v-2.155zm2.342 4.394h-2.339v2.21h2.342zm2.5-2.235h2.443v-2.158h-2.443zm2.443 4.445v-2.21h-2.443v2.21zm4.626-3.925a22.7 22.7 0 0 0 .857-6.864l2.055.468a31.986 31.986 0 0 1-.832 7.255zm6.162 8.918a28.2 28.2 0 0 0 .156 3.225h-3.043a24.045 24.045 0 0 0 .184-3.3V45.271a17.711 17.711 0 0 0-.184-2.782h3.043a17.386 17.386 0 0 0-.156 2.782v2.158l1.535-.6a17.259 17.259 0 0 1 1.324 3.38l-.7.312c.65.053 1.17.078 2.184.078h3.85v-1.04h-2.965a17.214 17.214 0 0 0-2.184.1v-2.308a16.651 16.651 0 0 0 2.209.1h2.939v-.962h-3.355a15.543 15.543 0 0 0-2.574.13v-2.5a14.129 14.129 0 0 0 2.705.156h3.225a7.259 7.259 0 0 0-.156-1.768h2.99a7.163 7.163 0 0 0-.156 1.768h3.979a13.948 13.948 0 0 0 2.7-.156v2.5a18.1 18.1 0 0 0-2.652-.13h-4.029v.962h3.666a14.9 14.9 0 0 0 2.158-.1v2.314a16.173 16.173 0 0 0-2.211-.1h-3.613V50.6h4.549a16.4 16.4 0 0 0 2.574-.13v2.548a18.266 18.266 0 0 0-2.574-.156h-11.076a13.912 13.912 0 0 0-2.625.156V50.73l-.807.364a19.56 19.56 0 0 0-.91-2.886zm5.643.208a22.39 22.39 0 0 0 .156 2.965h-2.99a21.729 21.729 0 0 0 .129-2.965v-7.488c0-.987-.025-1.481-.078-2.21.625.053 1.172.078 2.08.078h9.152a16.925 16.925 0 0 0 2.342-.1 22.356 22.356 0 0 0-.105 2.678v7.332c0 1.977-.7 2.5-3.328 2.5-.572 0-1.064-.025-2.34-.1a10.045 10.045 0 0 0-.6-2.5 18.289 18.289 0 0 0 2.549.233c.832 0 .988-.1.988-.624v-.884h-7.957zm7.957-6.4v-1.062h-7.957v1.066zm0 3.172v-1.062h-7.957v1.066zm16.015-10.864a13.424 13.424 0 0 0 2.262-.13v2.756a11.625 11.625 0 0 0-1.457-.1 16.893 16.893 0 0 1-.857 2.887h.313a10.416 10.416 0 0 0 2-.13v2.756a18.325 18.325 0 0 0-2.262-.1h-2.029v2.08h1.768a16.294 16.294 0 0 0 2.158-.1v2.729a16.808 16.808 0 0 0-2.158-.1h-1.768v1.9c0 .857.053 1.819.131 2.651h-2.861a20.525 20.525 0 0 0 .156-2.651v-1.9h-1.871a17.081 17.081 0 0 0-2.158.1v-2.742a16.312 16.312 0 0 0 2.158.1h1.871v-2.08h-2.314a18.882 18.882 0 0 0-2.262.1v-2.748a12.335 12.335 0 0 0 2.262.13h.287a16.492 16.492 0 0 0-.676-2.887 12.555 12.555 0 0 0-1.873.1v-2.751a13.609 13.609 0 0 0 2.262.13h2.342v-2h-1.77a17.34 17.34 0 0 0-2.158.1v-2.7a15.6 15.6 0 0 0 2.158.1h1.77v-.467a9.771 9.771 0 0 0-.156-1.976h2.807a14.357 14.357 0 0 0-.1 1.976v.468h1.535a15.6 15.6 0 0 0 2.158-.1v2.7a17.34 17.34 0 0 0-2.158-.1h-1.535v2zm-2.5 5.408a16.684 16.684 0 0 0 .779-2.887H200.2a18.673 18.673 0 0 1 .65 2.887zm16.484-1.847a5.388 5.388 0 0 0-.312 1.145 29.221 29.221 0 0 1-2.211 6.448 12.473 12.473 0 0 0 3.588 3.016 15.962 15.962 0 0 0-1.508 2.757A21.967 21.967 0 0 1 215.045 63a17.681 17.681 0 0 1-3.094 3.354 16.9 16.9 0 0 0-1.457-2.263 22.329 22.329 0 0 0 .182 2.444h-2.963a18.663 18.663 0 0 0 .182-3.094v-17.39a26.147 26.147 0 0 0-.131-2.652 17.271 17.271 0 0 0 2.445.13h6.4a15.9 15.9 0 0 0 2.418-.13 22.842 22.842 0 0 0-.131 1.69c-.312 4.784-.676 5.33-3.535 5.33a23.162 23.162 0 0 1-2.342-.13 9.392 9.392 0 0 0-.57-2.444 18.829 18.829 0 0 0 2.678.312c.8 0 .936-.26 1.039-2.184h-5.668v5.694h4.889a18.105 18.105 0 0 0 2.471-.1zm-8.529 10.713a13.185 13.185 0 0 0 2.887-3.017 20.344 20.344 0 0 1-2.471-6.578h-.416zm2.783-9.595a14.775 14.775 0 0 0 1.559 4.134 18.175 18.175 0 0 0 1.275-4.134zM12.2 9.838c.038-2.679-.2-5.318-3.282-5.318-1.879 0-3.078.76-3.078 2.8 0 2.28 1.439 3.16 3.2 4.279a51.606 51.606 0 0 1 6.8 4.92 7.825 7.825 0 0 1 2.52 6.278c0 5.68-3.76 8.639-9.238 8.639C2.4 31.435 0 27.676 0 22.316v-2.2h5.6v1.76c-.121 2.92.76 5.039 3.52 5.039 2.359 0 3.479-1.239 3.479-3.519a4.544 4.544 0 0 0-2.238-3.96c-2.92-2.279-6.561-3.919-8.84-6.919A8.328 8.328 0 0 1 .08 7.919C.08 2.8 2.959 0 8.879 0 17.8 0 17.557 6.879 17.6 9.838zM23 30.715V.72h5.6V12.6h7.838V.72h5.6v30h-5.6V17H28.6v13.715zm24.16-17.397C47.4 5.68 48 0 56.959 0s9.557 5.679 9.8 13.317V17.6c0 8-.6 13.838-9.8 13.838S47.16 25.6 47.16 17.6zm5.758 7.082c0 2.479.2 6.519 4.041 6.519 4 0 4.039-4.119 4.039-7v-7.68c0-2.4.119-7.719-4.039-7.719-4.4 0-4.041 5.239-4.041 7.559zm18.961 10.316v-30h11.437c5.359 0 7 4.32 7 8.52 0 2.56-.68 5.439-2.8 7.119a9.794 9.794 0 0 1-6.277 1.8h-3.76v12.561zm5.6-16.957h3c2.439 0 4.078-1.04 4.078-4.68 0-3.439-1.359-3.959-4.52-3.959h-2.558zm26.681 16.958v-30h5.6v30zM128.637.722h5.6v30H128.4l-4.359-10.678a101.217 101.217 0 0 1-4-11.919h-.08c.2 2.48.439 5.52.6 8.559.16 3 .279 6 .279 8.4v5.639h-5.6v-30h5.8l4.36 10.917a100.592 100.592 0 0 1 4 11.918h.08c-.2-2.719-.4-5.639-.559-8.519s-.281-5.759-.281-8.438zm11.242 29.996v-30h15.877v4.4h-10.277v7.6h9.639v4.4h-9.639v13.6zM159.4 13.32c.24-7.639.84-13.317 9.8-13.317s9.559 5.679 9.8 13.317v4.28c0 8-.6 13.838-9.8 13.838s-9.8-5.838-9.8-13.838zm5.76 7.079c0 2.479.2 6.519 4.039 6.519 4 0 4.039-4.119 4.039-7v-7.677c0-2.4.121-7.719-4.039-7.719-4.4 0-4.039 5.239-4.039 7.559zm24.477-2.599v12.919h-5.6v-30h10.6c4.84 0 8.518 1.68 8.518 7.2 0 3.279-.84 6.719-4.6 7.238v.08c3.318.44 4.318 2.56 4.318 5.439 0 1.239-.16 8.6 1.2 9.479v.56h-6.158c-.68-1.92-.561-5.6-.6-7.6-.041-1.84 0-4.359-1.92-4.919a17.15 17.15 0 0 0-4.76-.4zm0-4.4h4.4c1.84-.12 3.279-1.319 3.279-4.319 0-3.359-1.4-3.919-3.52-3.959h-4.16zm24.48 17.319h-5.6v-30h8.918l3 13.918a67.017 67.017 0 0 1 1.041 6.919h.08a65.2 65.2 0 0 1 .879-6.919l3-13.918h8.879v30h-5.6V21.28c0-5.959.119-11.918.48-17.877h-.08l-6 27.315h-3.4L213.838 3.4h-.2c.359 5.959.48 11.918.48 17.877zm23.201.001l7.158-30h7.559l6.8 30h-6l-1.48-7.6H244.8l-1.479 7.6zm8.359-12h4.8l-1.52-8.519c-.281-1.4-.4-2.76-.561-4.159a29.49 29.49 0 0 0-.2-2h-.08c-.08.641-.16 1.32-.2 2-.16 1.4-.279 2.76-.559 4.159zM259.879.725h18.676v4.4h-6.518v25.6h-5.6V5.124h-6.559zm22.08 29.996v-30h5.6v30zm10.799-17.398c.24-7.639.84-13.317 9.8-13.317s9.559 5.679 9.8 13.317V17.6c0 8-.6 13.838-9.8 13.838s-9.8-5.839-9.8-13.838zm5.76 7.079c0 2.479.2 6.519 4.039 6.519 4 0 4.039-4.119 4.039-7v-7.677c0-2.4.121-7.719-4.039-7.719-4.4 0-4.039 5.239-4.039 7.559zM330.875.727h5.6v30h-5.84l-4.359-10.679a101.217 101.217 0 0 1-4-11.919h-.08c.2 2.48.439 5.52.6 8.559.16 3 .279 6 .279 8.4v5.639h-5.6v-30h5.8l4.359 10.918a100.613 100.613 0 0 1 4 11.919h.08c-.2-2.719-.4-5.639-.559-8.519s-.281-5.759-.281-8.438z" id="letter"/></g></svg>