<svg xmlns="http://www.w3.org/2000/svg" width="339.478" height="174.667" viewBox="0 0 339.478 174.667"><defs><style>.cls-1{fill:#fff;}</style></defs><title>アートボード 10</title><g id="column"><polygon class="cls-1" points="0.872 81.598 0 108.585 19.829 100.789 19.829 86.901 0.872 81.598"/><polygon class="cls-1" points="326.443 105.619 334.54 108.086 333.313 84.456 326.443 86.782 326.443 105.619"/><circle class="cls-1" cx="256.144" cy="143.466" r="28.726"/><circle class="cls-1" cx="83.214" cy="143.466" r="28.726"/><path class="cls-1" d="M111.573,148.041a28.726,28.726,0,1,0-56.719,0h56.719Z"/><path class="cls-1" d="M284.87,143.466a28.726,28.726,0,1,0-57.085,4.575H284.5A28.951,28.951,0,0,0,284.87,143.466Z"/><path class="cls-1" d="M337.749,114.737l-16.024-4.881V82.682l14.112-4.78-.934-17.99H296.489L286.449.365H80.251L72.872,59.911H15.136L13.794,79.775l11.753,3.288v22.123l-13.838,5.44L9.181,148.041H44.039a39.449,39.449,0,1,1,78.35,0h94.58a39.449,39.449,0,1,1,78.35,0h44.159ZM187.559,50.762H89.252l2.995-28.45H188.37Zm12.988,0,.48-28.45h71.753l5.486,28.45Z"/></g></svg>