<svg xmlns="http://www.w3.org/2000/svg" viewBox="0 0 169.56 43.18"><defs><style>.cls-1{fill:#323232;}.cls-2{fill:#fff;}</style></defs><title>アートボード 14</title><g id="main"><path class="cls-1" d="M27.58,7.14H18.14v36H9.43v-36H0V0H27.58Z"/><path class="cls-2" d="M42.45,0V16.51H52.61V0h8.71V43.18H52.61V24H42.45V43.18H33.74V0Z"/><path class="cls-1" d="M91.49,7.14H76.07V17.29H90.59v7.14H76.07V36h16v7.14H67.37V0H91.49Z"/><path class="cls-2" d="M112,0l6.17,30.48h.12L124.51,0h12.88V43.18h-8V8.71h-.12l-7.68,34.47h-6.77L107.16,8.71H107V43.18h-8V0Z"/><path class="cls-1" d="M169,7.14H153.54V17.29H168v7.14H153.54V36h16v7.14H144.83V0H169Z"/></g></svg>