<svg xmlns="http://www.w3.org/2000/svg" viewBox="0 0 586.06 90.85"><defs><style>.cls-1{fill:#323232}.cls-2,.cls-3{fill:none}.cls-2{stroke:#323232;stroke-linecap:round;stroke-linejoin:round}.cls-4{fill:#fff}</style></defs><title>tit_story_1976</title><g id="レイヤー_2" data-name="レイヤー 2"><g id="成長期"><path class="cls-1" d="M207.39 7.92v28.8c0 4.56-1.94 5.28-8.74 5.28a15.49 15.49 0 0 0-1.52-4.52c1.29.08 2.62.11 3.61.11 1.94 0 2.17 0 2.17-.91V12.26h-23.64V42h-4.41V8zm-6.8 7v3.84h-19.08v-3.84zm-1.9 19.45h-11.21V37h-4.18V21.53h15.39zm-4.22-9.08h-7v5.32h7zm54.68 7.94h-11.06a34.89 34.89 0 0 0 12.12 4.18 19.23 19.23 0 0 0-3.08 4.14 32.71 32.71 0 0 1-12.88-6.46V42h-4.52v-6.68a37.31 37.31 0 0 1-12.84 6.19 21.63 21.63 0 0 0-2.93-3.8 39.67 39.67 0 0 0 12.12-4.48h-11v-3.76h14.63v-1.71h-11.03v-3.3h11.06v-1.72h-13v-3.57h7.29a17.4 17.4 0 0 0-1.29-3l.46-.08h-8v-3.72h5.13A31 31 0 0 0 218 7.62l3.91-1.33a27.23 27.23 0 0 1 2.93 5.4l-1.86.68h3.5V6.1l5.24.27c0 .38-.34.65-1 .72v5.28h2.81V6.1l5.36.27c0 .42-.38.65-1 .76v5.24h3.23l-1.33-.49a31 31 0 0 0 2.55-5.47L247.4 8c-.11.3-.46.46-1 .42-.65 1.18-1.56 2.7-2.43 4H249v3.72h-7l.34.11a.94.94 0 0 1-1 .38 27.46 27.46 0 0 1-1.34 2.54h7.6v3.57h-13.3v1.71h11.51v3.3h-11.55v1.71h14.89zm-13.87-14.06c.42-.87 1-2 1.41-3.08h-9.08a20.65 20.65 0 0 1 1.29 3l-.65.11zm55.29 2.66h-14.1c-1.44 1.06-2.93 2.09-4.48 3h13.34v16.99h-4.56v-1h-12.58V42h-4.37V29.32c-2.09.95-4.26 1.86-6.42 2.66a23.19 23.19 0 0 0-2.51-3.53 72.86 72.86 0 0 0 14.17-6.61h-13.41V18h12.58v-3.54h-8.93V10.7h8.93V6.1l5.51.3c0 .38-.34.61-1 .76v3.54h8.36v1.56a45.5 45.5 0 0 0 3.9-4.75l4.45 2.55a.86.86 0 0 1-.76.34 1.9 1.9 0 0 1-.46-.08 54.19 54.19 0 0 1-7.08 7.68h9.42zm-9.8 9.17v-2.37h-12.58V31zm-12.58 6h12.58v-2.52h-12.58zm4.56-22.57V18h1.94q2.22-1.71 4.22-3.53zM317 28.4a72 72 0 0 1-8 .42c-.08.84-.11 1.56-.11 2.28 0 4.45 2.85 5.13 6.12 5.13a16.69 16.69 0 0 0 4.75-.68 3.46 3.46 0 0 0 2.62-3.61 10.54 10.54 0 0 0-2.74-6.31 38.12 38.12 0 0 0 4.45-1.52c2.28 3.19 3.38 6.16 3.38 8.66 0 7.94-10.11 7.94-12.46 7.94-7.41 0-10.79-2.7-10.79-9.8a17.34 17.34 0 0 1 .11-2.24c-2.81-.23-7.94-.61-7.94-5 0-1.67.87-3.5 3.08-5.24l3.72 1.57c-1.44.91-2.36 2.05-2.36 2.89 0 1.37 2.28 1.48 3.84 1.56.23-2.09.42-4.41.68-6.84a24.35 24.35 0 0 1-7.35-1.78l1-4.41a23.39 23.39 0 0 0 6.88 1.82c.27-2.13.53-4.33.72-6.23l6.38.76c-.08.49-.57.8-1.37.91-.27 1.33-.57 3.12-.84 4.94.72 0 1.63.08 2.54.08 1.41 0 3-.08 4.22-.15l-.24 4.45c-1 .08-2.28.11-3.57.11s-2.54 0-3.61-.08c-.3 2.28-.53 4.52-.76 6.61A60.6 60.6 0 0 0 317 24zm30.8-13.79a1.06 1.06 0 0 1-.61.53 39.47 39.47 0 0 1-4.33 8.32c1.56 1.18 4.26 3.38 5 4l-2.62 3.8a34.72 34.72 0 0 0-2.74-3.12V42H338V29.28a25.75 25.75 0 0 1-3.57 3 17.09 17.09 0 0 0-2.09-4.25 28 28 0 0 0 9.54-10.83h-8.48v-4.03h4.6v-7l5.43.3c0 .38-.3.61-1 .72v6h1.75l.68-.19zm8.09 16.26c-.08.27-.42.49-.91.57-.84 3.91-2.2 8-7.94 10.6a12.24 12.24 0 0 0-2.62-3.5c4.79-1.79 5.85-4.86 6.35-8.25zm5.74 5.24c0 1.06.08 1.18.72 1.18H364c.65 0 .8-.49.91-4.07a12 12 0 0 0 3.88 1.71c-.42 5.17-1.52 6.46-4.29 6.46h-2.93c-3.65 0-4.41-1.33-4.41-5.28v-6.68h-8.43V7.7h17.33v21.73h-3.86a1.5 1.5 0 0 1-.57.15zM353 11.34v2.55h8.7v-2.55zm0 5.93v2.55h8.7v-2.55zm0 6v2.58h8.7v-2.61z"/><path class="cls-2" d="M407 16.43a.9.9 0 0 1-.68.46 29.31 29.31 0 0 1-4.32 6.23 24.28 24.28 0 0 0 7.71 3.08 15.92 15.92 0 0 0-2.54 3.61 23.2 23.2 0 0 1-2.47-.8v3.65h-10.77v5.21c0 3.8-1.71 4.1-7.94 4.1a16.79 16.79 0 0 0-1.25-3.76c1.6.08 3.53.08 4.07.08s.68-.15.68-.57v-5.06h-11v-2.85c-.91.38-1.82.76-2.74 1.06a14 14 0 0 0-2.09-3.12 26.53 26.53 0 0 0 5.78-2.43 17.44 17.44 0 0 0-2.13-2l2.28-1.9a19.73 19.73 0 0 1 2.55 2.09 15.46 15.46 0 0 0 1.22-1 22.78 22.78 0 0 0-2.2-1.79l2-1.9a22.53 22.53 0 0 1 2.28 1.6 15.54 15.54 0 0 0 1.63-2.28h-4.18a25.25 25.25 0 0 1-6.46 4.64 10.14 10.14 0 0 0-2.36-2.7 17.93 17.93 0 0 0 8.47-7.1l4.33.72c-.08.3-.34.53-.87.53-.19.3-.42.65-.65.95h3.8l.65-.15 1.52.68-.69-1.71 3.5-.87a21.61 21.61 0 0 0 1.94 4V15h7.37v-2.4h-23.6v3h-4.1V8.91h13.6v-3l5.58.3c0 .42-.3.61-1 .76v1.9h13.79v6.73h-2.11zM387.82 34.6a.93.93 0 0 1-1 .34 32.26 32.26 0 0 1-9.57 6.19 29.54 29.54 0 0 0-2.77-3 23 23 0 0 0 8.74-5.32zm-2.43-9a28.44 28.44 0 0 1-5.05 3.34h24.2a21.91 21.91 0 0 1-6.27-3.57v1.44h-12.89zm10.56-2.39a25.55 25.55 0 0 1-4.14-6.31 20.83 20.83 0 0 1-4 6.31zm8.89 18a58.22 58.22 0 0 0-9.31-5.85l3.08-2.74a66.76 66.76 0 0 1 9.5 5.51zM397 18.49a18.62 18.62 0 0 0 2.17 2.39 18.62 18.62 0 0 0 1.79-2.39z"/><path class="cls-1" d="M424.71 9.14c-.08.42-.42.68-1.18.72a91.12 91.12 0 0 0-2 16.72 35 35 0 0 0 .27 5.36c.46-1.1 1.94-4.33 2.43-5.55l2.24 3.5c-1.25 2.66-2.58 4.75-3.15 6.57a6.55 6.55 0 0 0-.3 1.82 5.1 5.1 0 0 0 .19 1.33l-4.79.72a45 45 0 0 1-1.75-13.56 131.2 131.2 0 0 1 1.79-18.5zm22.8 28.38c-1.41.08-2.93.11-4.37.11a52.25 52.25 0 0 1-6.46-.34c-5.28-.72-7.41-3.53-7.41-6.76 0-2.74 1.25-5.09 3.27-7.56l4.56 1.56c-1.71 1.67-2.81 3.42-2.81 5.32 0 2.85 3.42 3.15 7.94 3.15a49.44 49.44 0 0 0 5.43-.27zm-17.36-24.58a132 132 0 0 0 16.07-1.41l.42 4.71a141.22 141.22 0 0 1-16.34 1.29zm38.27-.49v3.61H453.9v-3.61zm21.47 4.64h-11a121.7 121.7 0 0 1-.34 4.83H486l2.55.19c0 .42 0 1-.08 1.41-.38 10.94-.84 15.12-2 16.57-1 1.29-2.09 1.82-5.93 1.82h-2.2a10.14 10.14 0 0 0-1.34-4.43c1.75.15 3.34.19 4.14.19a1.57 1.57 0 0 0 1.37-.53c.65-.76 1-3.72 1.33-11h-5.7c-.91 5.93-2.81 11.82-7.45 15.92a15.38 15.38 0 0 0-3.15-3.34V40h-8v1.48h-3.88V28.33h11.84v10c5.93-5.05 6.5-13.53 6.76-21.28H469v-4.3h8.17V6.18l5.7.34c0 .34-.3.61-1 .68v5.55h8zm-22.34.72v3.46h-11.83V17.8zm-11.82 8.66V23h11.82v3.42zm11.73-19.15v3.46h-11.58V7.32zm-3.91 29v-4.38h-4.07v4.41zm33.1-22.13a54.92 54.92 0 0 0 6.8-.42c0-.61.23-6.61.23-6.76l6.19.42c-.08.38-.38.68-1.06.8-.19 1.6-.38 3.42-.49 4.83l1.63.68a28.93 28.93 0 0 0-2.13 4.79c4-3.69 7.83-5.47 10.56-5.47 3.84 0 6 2.62 6 7.29 0 .46 0 .91-.08 1.37a97.88 97.88 0 0 0-.61 9.84c0 1.94.19 2.89 1.41 2.89 1 0 3.27-1.29 4.71-2.55 0 1.25.3 4.33.46 5.32a12.06 12.06 0 0 1-6 2.28c-4.1 0-5.47-2.28-5.47-7.1 0-.49 0-3.72.57-9.84 0-.42.08-.84.08-1.18 0-2.32-.84-3.38-2.24-3.38-2.24 0-6 2.2-9.5 6.08v16.6H503V28.22a34.08 34.08 0 0 1-5.93 7l-2.2-4.52c2.66-2.17 6.65-6.54 8.21-9.92 0-.84 0-1.67.08-2.58a46.09 46.09 0 0 1-6.5.65zm61.25 1.98A47.61 47.61 0 0 1 547.49 18 116.29 116.29 0 0 1 541 40.94l-5-1.75a75.3 75.3 0 0 0 6.5-20.9h-6.2l-.08-4.52c1.22.08 3.19.08 5 .08h1.94c.3-2.2.57-4.83.76-7l6.19.53c0 .46-.49.8-1.06.91-.19 1.37-.49 3.42-.76 5.13a38.85 38.85 0 0 0 8.7-1.94zM568 40.26c-1.18.08-2.51.11-3.88.11a38.35 38.35 0 0 1-8.05-.68c-3.38-.8-5.05-3.12-5-5.78a8.88 8.88 0 0 1 2.43-5.62l4.07 1.48a5.29 5.29 0 0 0-1.75 3.34c0 2.09 1.94 2.62 7.75 2.62 1.52 0 3.12-.08 4.52-.19zm-14.39-19.15a47.23 47.23 0 0 1 13.56-1.86v4.56a44.24 44.24 0 0 0-12.54 1.41zm24.25 9.19a79.06 79.06 0 0 1 8.21 8.09L582.15 42a90.14 90.14 0 0 0-7.83-8.55z"/><path class="cls-3" d="M181.44 86.47V62.76h-.08l-4.94 2.58-1.22-4 7-3.57h4.71v28.7zm34.96 0h-18V83l3.19-3.42c5.43-5.62 8.63-9.31 8.63-13.18 0-2.51-1.33-4.6-4.48-4.6a9.42 9.42 0 0 0-5.36 2.09l-1.56-4a13.72 13.72 0 0 1 8.05-2.58c6.16 0 9 3.91 9 8.59 0 5.09-3.46 9.27-7.64 13.49l-2.39 2.36v.08h10.56zm6.5-14.28c0-8.74 3.23-14.89 9.69-14.89C239.35 57.29 242 64 242 72c0 9.5-3.53 14.93-9.58 14.93-6.71-.04-9.52-6.73-9.52-14.74zm9.57 10.26c2.58 0 3.88-3.65 3.88-10.37 0-6.5-1.18-10.33-3.84-10.33-2.43 0-4 3.5-4 10.33s1.41 10.37 3.91 10.37zm15.2-10.26c0-8.74 3.23-14.89 9.69-14.89 6.76 0 9.38 6.69 9.38 14.67 0 9.5-3.53 14.93-9.58 14.93-6.68-.01-9.49-6.7-9.49-14.71zm9.57 10.26c2.58 0 3.88-3.65 3.88-10.37 0-6.5-1.18-10.33-3.84-10.33-2.43 0-4 3.5-4 10.33s1.41 10.37 3.91 10.37z"/><path class="cls-1" d="M308.09 72.3v4.29h-9.42V90h-4.57V76.59h-8.66L286 80c-4.18 1.63-8.62 3.27-11.55 4.25a.82.82 0 0 1-.61.72l-2-5.05c1.37-.34 3-.8 4.9-1.33V67.55h-4.07v-4.29h4.07v-8.78l5.4.3c0 .38-.3.61-1 .72v7.75H285v4.29h-3.84v9.73l3.34-1v-4h9.57V60.1h-8.36v-4.25h21.39v4.25h-8.47v12.2zm-19.45-.72a34.8 34.8 0 0 0-2.43-8.89l3.8-1.14a33.36 33.36 0 0 1 2.7 8.78zm19-8.51c-.15.27-.49.38-1.06.38a60.83 60.83 0 0 1-3.19 8.24L300 70.32a59.94 59.94 0 0 0 2.66-9zm26.48.07a1.26 1.26 0 0 1-1.14.65c-1.56 13-5.36 20.52-11.89 20.52-4.14 0-7.14-3.5-7.14-10 0-9.73 7.75-16.87 17.44-16.87 10.75 0 16.26 6.38 16.26 14.63 0 8.93-4.6 13.56-14.17 16a25.43 25.43 0 0 0-3-4c8.66-1.71 12.12-5.85 12.12-11.89s-4.25-10.26-11.25-10.26a16 16 0 0 0-1.94.15zm-6-.76a12.11 12.11 0 0 0-9.46 11.78c0 3.19 1 5.43 2.62 5.43 3.72 0 6.15-8.32 6.8-17.21zM384.66 79l3.34 2.34a.77.77 0 0 1-.68.27 1.29 1.29 0 0 1-.38 0c-1.06.65-2.7 1.6-4.22 2.36a20.78 20.78 0 0 0 6.65 2.32 14.75 14.75 0 0 0-2.7 3.76 20 20 0 0 1-10.07-5.7l.15 2.7c-4.67.87-9.5 1.71-12.65 2.2a.77.77 0 0 1-.61.65l-1.67-4.6q1.71-.17 3.88-.46V79h-4.18v-3.21c-.53 5.05-1.67 10.37-4.18 14.29a19.6 19.6 0 0 0-4.07-2.36c3.8-5.89 4.1-14.51 4.1-20.63V55.77h29.45v10.34h-4.18c-.15.23-.42.34-.91.42v2.09H387v3.84h-5.36v2.7h7.18V79zM361.9 66.11c0 2.39 0 5.32-.34 9h6v-2.7h-4.86v-3.8h4.83v-2.5zm20.25-6.5H361.9v2.62h20.25zM369.84 79v5.32c2-.27 4-.53 6-.84a19.75 19.75 0 0 1-2.73-4.48zm7.6-10.37v-2.52h-4.83a1.36 1.36 0 0 1-.91.42v2.09zm0 6.54v-2.7h-5.74v2.7zm0 3.84a14.23 14.23 0 0 0 2.13 2.66c1.37-.84 2.85-1.82 4-2.66zm28.5-3.9a1 1 0 0 1-1 .42 38.15 38.15 0 0 1-7.14 11.09 26.42 26.42 0 0 0-4-2.62 29.18 29.18 0 0 0 6.65-10.64zm23.71-4.48h-14.82v14.25c0 4.25-1.44 5.17-9.73 5.17a18.3 18.3 0 0 0-1.6-4.6c1.67 0 3.53.08 4.67.08 1.52 0 1.94 0 1.94-.72V70.63h-14.58v-4.56h34.12zm-3.53-14.1v4.52h-27.06v-4.52zm-.49 30.09c-.87-3.15-3.53-8.05-6-11.7l4.37-1.86c2.55 3.5 5.39 8.17 6.46 11.44zm45.78-13.26h-15.46c-.34.65-.68 1.25-1.06 1.86h12.54l.91-.08 2.43.38a11.11 11.11 0 0 1-.19 1.1c-.53 7.67-1.18 10.75-2.2 11.89s-2.2 1.41-4.83 1.41h-1.6a8.74 8.74 0 0 0-.95-3.46 19.79 19.79 0 0 1-3.19 3.88 14.87 14.87 0 0 0-3.27-2.58c2.62-1.86 4.86-5.32 6.27-8.89h-2.17a30.22 30.22 0 0 1-8.62 10 15.78 15.78 0 0 0-3-2.7 22.85 22.85 0 0 0 7.56-7.26h-2.39a24.13 24.13 0 0 1-4.75 4.09 26.73 26.73 0 0 0-2.85-2.62 6 6 0 0 0 .68-.38c-2.85 1.33-5.58 2.55-7.56 3.42a.82.82 0 0 1-.57.76l-1.82-5c1.29-.42 2.93-1 4.71-1.67v-11.1h-3.91v-4.29H440v-8l5.21.3c0 .38-.3.57-1 .68v7h3.5v4.29h-3.5v9.38l3.19-1.25c0 .08 0 .15.68 3.08a20.17 20.17 0 0 0 3.34-4.26H447v-3.81h24.43zm-2.66-18.31V68h-18.16V55zm-4.22 5V58.2h-9.88V60zm0 4.83V63h-9.88v1.82zm0 14a32.56 32.56 0 0 1-3.46 7.48 25.79 25.79 0 0 0 2.62.11 1.2 1.2 0 0 0 1.1-.46c.53-.57 1-2.51 1.41-7.14zm22.73 5.77a5.32 5.32 0 1 1-5.32-5.32 5.33 5.33 0 0 1 5.32 5.32zm-1.71 0a3.59 3.59 0 1 0-3.61 3.57 3.58 3.58 0 0 0 3.61-3.57z"/><path class="cls-2" d="M9.52 13.81H.5v-6h.83A13.21 13.21 0 0 0 8.6 6.07 8 8 0 0 0 12 .5h6.78v45.31H9.52z"/><path class="cls-1" d="M36.5 39.25a3.54 3.54 0 0 0 3.23 1.44 4.61 4.61 0 0 0 2.94-.86 5.64 5.64 0 0 0 1.7-2.4 13.19 13.19 0 0 0 .8-3.65q.19-2.11.19-4.61V27h-.13a8.2 8.2 0 0 1-3.3 2.78 11.71 11.71 0 0 1-5.22 1.06 11.33 11.33 0 0 1-5.12-1.06 9 9 0 0 1-3.42-2.94 12.93 12.93 0 0 1-1.92-4.48 24.76 24.76 0 0 1-.61-5.66q0-7.87 3.49-12T40.31.5a14.15 14.15 0 0 1 7.55 1.76 11.82 11.82 0 0 1 4.32 4.67 19.56 19.56 0 0 1 2 6.75 69.23 69.23 0 0 1 .45 8q0 4.87-.29 9.38a24.72 24.72 0 0 1-1.73 8A11.77 11.77 0 0 1 48 44.5q-3.11 2-8.67 2a22.67 22.67 0 0 1-4.7-.48 9.87 9.87 0 0 1-4-1.79 9.44 9.44 0 0 1-2.78-3.52 13.25 13.25 0 0 1-1.12-5.47h8.83a7.34 7.34 0 0 0 .94 4.01zM36 22.07a4.09 4.09 0 0 0 3.84 2 4.15 4.15 0 0 0 3.9-2q1.15-2 1.15-6.59a31.23 31.23 0 0 0-.19-3.58A9.41 9.41 0 0 0 44 9a4.42 4.42 0 0 0-1.54-1.86 4.55 4.55 0 0 0-2.59-.67 4.67 4.67 0 0 0-2.66.67 4.17 4.17 0 0 0-1.5 1.89 9.76 9.76 0 0 0-.71 2.89q-.16 1.63-.16 3.55.03 4.61 1.16 6.6z"/><path class="cls-4" d="M86.07 8.44a60 60 0 0 0-5 8.51 85.92 85.92 0 0 0-6.62 19.11q-1.09 5-1.66 9.76h-9.7q.51-4.1 1.54-8.61A76.54 76.54 0 0 1 67.35 28a81.47 81.47 0 0 1 4.13-9.41 69.22 69.22 0 0 1 5.76-9.28H58.16V1.4h27.9z"/><path class="cls-1" d="M107.73 7.92a3.58 3.58 0 0 0-3.23-1.41 4.63 4.63 0 0 0-2.91.87 5.48 5.48 0 0 0-1.73 2.4 13.17 13.17 0 0 0-.8 3.65q-.19 2.11-.19 4.61v2.24H99a8 8 0 0 1 3.3-2.85 11.73 11.73 0 0 1 5.22-1.06 11.37 11.37 0 0 1 5.12 1.06 9 9 0 0 1 3.42 2.94 13 13 0 0 1 1.94 4.48 24.81 24.81 0 0 1 .61 5.66q0 7.87-3.49 11.94t-11.17 4.06a14.78 14.78 0 0 1-7.55-1.66 11.14 11.14 0 0 1-4.32-4.58 19.5 19.5 0 0 1-2-6.75 68.85 68.85 0 0 1-.45-8q0-4.8.29-9.31a25 25 0 0 1 1.73-8 12.38 12.38 0 0 1 4.51-5.6Q99.25.5 104.88.5a19 19 0 0 1 4.7.58 10.73 10.73 0 0 1 4 1.92 9.72 9.72 0 0 1 2.78 3.55 13.26 13.26 0 0 1 1.13 5.45h-8.83a7.47 7.47 0 0 0-.93-4.08zm-8.22 27.4a9.4 9.4 0 0 0 .74 2.85 4.39 4.39 0 0 0 1.53 1.83 4.53 4.53 0 0 0 2.59.67A4.66 4.66 0 0 0 107 40a4.16 4.16 0 0 0 1.5-1.89 9.83 9.83 0 0 0 .67-2.85q.16-1.63.16-3.55 0-4.61-1.15-6.59a4.09 4.09 0 0 0-3.84-2 4.15 4.15 0 0 0-3.9 2q-1.15 2-1.15 6.59a31.37 31.37 0 0 0 .22 3.61zm43.39-7.23h-18v-7.55h18z"/><path class="cls-4" d="M178.48 64.28h-7.33v-4.89h.68a10.74 10.74 0 0 0 5.9-1.4 6.48 6.48 0 0 0 2.73-4.52H186v36.81h-7.49zm13.31 26a20.26 20.26 0 0 1 .49-4.58 16.77 16.77 0 0 1 1.51-4.06 21.86 21.86 0 0 1 2.55-3.77 39.17 39.17 0 0 1 3.56-3.72l3-2.81a16.76 16.76 0 0 0 2-2 8.59 8.59 0 0 0 1.17-1.87 7 7 0 0 0 .55-2 21.47 21.47 0 0 0 .13-2.5q0-4.58-3.64-4.58a3.38 3.38 0 0 0-3.46 2.13 7.36 7.36 0 0 0-.57 2.29q-.13 1.3-.13 2.76h-7.18v-1.4q0-5.15 2.76-7.9t8.68-2.76q5.62 0 8.32 2.6t2.7 7.44a16.56 16.56 0 0 1-.31 3.3 12.49 12.49 0 0 1-1 2.94 13.56 13.56 0 0 1-1.77 2.73 25.74 25.74 0 0 1-2.65 2.73L204.38 79a15.6 15.6 0 0 0-2.6 2.94 8.56 8.56 0 0 0-1.2 2.47h13.88v5.82zm26.26-24.55a19.91 19.91 0 0 1 1.4-6.27 9.92 9.92 0 0 1 3.46-4.37 11 11 0 0 1 6.42-1.64 14.07 14.07 0 0 1 5.59 1 7.74 7.74 0 0 1 3.54 3.09 14.94 14.94 0 0 1 1.87 5.54 53.42 53.42 0 0 1 .55 8.29q0 3.85-.26 7.38a20 20 0 0 1-1.4 6.27 9.44 9.44 0 0 1-3.46 4.29 11.39 11.39 0 0 1-6.42 1.56 15.23 15.23 0 0 1-5.56-.88 7.27 7.27 0 0 1-3.56-3 14.93 14.93 0 0 1-1.87-5.54 53.41 53.41 0 0 1-.55-8.29q-.01-3.89.25-7.43zm7.41 14.69a13.72 13.72 0 0 0 .65 3.48 3.24 3.24 0 0 0 1.25 1.74 3.79 3.79 0 0 0 2 .47 3.24 3.24 0 0 0 2-.6 3.94 3.94 0 0 0 1.22-2 18 18 0 0 0 .62-3.82q.18-2.39.18-5.93v-4q0-3.48-.18-5.69a13.74 13.74 0 0 0-.65-3.48 3.23 3.23 0 0 0-1.25-1.74 3.79 3.79 0 0 0-2-.47 3.24 3.24 0 0 0-2 .6 3.94 3.94 0 0 0-1.22 2 18 18 0 0 0-.62 3.82q-.18 2.39-.18 5.93v4q0 3.48.18 5.69zm18.59-14.69a19.91 19.91 0 0 1 1.4-6.27 9.92 9.92 0 0 1 3.46-4.37 11 11 0 0 1 6.42-1.64 14.07 14.07 0 0 1 5.59 1 7.74 7.74 0 0 1 3.54 3.09 14.94 14.94 0 0 1 1.87 5.54 53.42 53.42 0 0 1 .55 8.29q0 3.85-.26 7.38a20 20 0 0 1-1.4 6.27 9.44 9.44 0 0 1-3.46 4.29 11.39 11.39 0 0 1-6.42 1.56 15.23 15.23 0 0 1-5.56-.88 7.27 7.27 0 0 1-3.56-3 14.93 14.93 0 0 1-1.87-5.54 53.41 53.41 0 0 1-.55-8.29q-.01-3.89.25-7.43zm7.41 14.69a13.72 13.72 0 0 0 .65 3.48 3.24 3.24 0 0 0 1.25 1.74 3.79 3.79 0 0 0 2 .47 3.24 3.24 0 0 0 2-.6 3.94 3.94 0 0 0 1.22-2 18 18 0 0 0 .62-3.82q.18-2.39.18-5.93v-4q0-3.48-.18-5.69a13.74 13.74 0 0 0-.65-3.48 3.23 3.23 0 0 0-1.25-1.74 3.79 3.79 0 0 0-2-.47 3.24 3.24 0 0 0-2 .6 3.94 3.94 0 0 0-1.22 2 18 18 0 0 0-.62 3.82q-.18 2.39-.18 5.93v4q0 3.48.18 5.69z"/></g></g></svg>