<svg xmlns="http://www.w3.org/2000/svg" viewBox="0 0 90.1 14.18"><defs><style>.cls-1{fill:#b8d200}.cls-2{fill:none;stroke:#b8d200;stroke-linecap:round;stroke-linejoin:round;stroke-width:1.2px}</style></defs><title>tit_company</title><g id="レイヤー_2" data-name="レイヤー 2"><g id="main"><path class="cls-1" d="M19.83 2.72a1.33 1.33 0 0 0-1.3-.72 1.29 1.29 0 0 0-.85.28 1.84 1.84 0 0 0-.53.9 7.63 7.63 0 0 0-.27 1.63q-.08 1-.08 2.47a24 24 0 0 0 .11 2.51 5.56 5.56 0 0 0 .33 1.49 1.35 1.35 0 0 0 .56.71 1.6 1.6 0 0 0 .78.18 1.84 1.84 0 0 0 .68-.12 1.16 1.16 0 0 0 .55-.5 3.24 3.24 0 0 0 .36-1.06 9.64 9.64 0 0 0 .13-1.79h2.76a12.35 12.35 0 0 1-.17 2.11 4.78 4.78 0 0 1-.64 1.75 3.2 3.2 0 0 1-1.32 1.17 5 5 0 0 1-2.22.42 5.22 5.22 0 0 1-2.48-.5 3.37 3.37 0 0 1-1.41-1.44 6.34 6.34 0 0 1-.63-2.21A26.44 26.44 0 0 1 14 7.12a26.52 26.52 0 0 1 .14-2.87A6.36 6.36 0 0 1 14.82 2 3.55 3.55 0 0 1 16.23.53 5 5 0 0 1 18.71 0 4.78 4.78 0 0 1 21 .48a3.27 3.27 0 0 1 1.31 1.22 4.23 4.23 0 0 1 .53 1.59 13.2 13.2 0 0 1 .11 1.6h-2.77a5 5 0 0 0-.35-2.17zm4.66 1.53A6.36 6.36 0 0 1 25.12 2 3.55 3.55 0 0 1 26.53.53 5 5 0 0 1 29 0a5 5 0 0 1 2.48.53A3.55 3.55 0 0 1 32.89 2a6.35 6.35 0 0 1 .63 2.25 26.39 26.39 0 0 1 .14 2.87 26.32 26.32 0 0 1-.13 2.88 6.33 6.33 0 0 1-.63 2.25 3.36 3.36 0 0 1-1.41 1.44 5.22 5.22 0 0 1-2.48.5 5.22 5.22 0 0 1-2.48-.5 3.37 3.37 0 0 1-1.41-1.44 6.34 6.34 0 0 1-.63-2.25 26.44 26.44 0 0 1-.14-2.88 26.52 26.52 0 0 1 .14-2.87zm2.69 5.22a6.51 6.51 0 0 0 .27 1.53 1.75 1.75 0 0 0 .58.88 1.89 1.89 0 0 0 2 0 1.75 1.75 0 0 0 .58-.88 6.53 6.53 0 0 0 .27-1.57q.07-1 .07-2.35t-.07-2.34a6.66 6.66 0 0 0-.27-1.57 1.75 1.75 0 0 0-.61-.86 1.89 1.89 0 0 0-2 0 1.75 1.75 0 0 0-.58.89 6.63 6.63 0 0 0-.27 1.57q-.07 1-.07 2.34t.1 2.36zM39.47.27l2 9.67 2-9.67h4.09V14H45V3l-2.48 11h-2.15L37.93 3v11h-2.57V.27zm15.25 0a4 4 0 0 1 1.78.35 3.24 3.24 0 0 1 1.16.93 3.64 3.64 0 0 1 .63 1.31 6 6 0 0 1 .19 1.51 4.92 4.92 0 0 1-.32 1.84 3.34 3.34 0 0 1-.88 1.29 3.69 3.69 0 0 1-1.37.75 6 6 0 0 1-1.78.25h-1.48V14h-2.76V.27zm-.84 6.2A1.82 1.82 0 0 0 55.21 6a2.1 2.1 0 0 0 .51-1.55 2.43 2.43 0 0 0-.44-1.57 1.81 1.81 0 0 0-1.48-.58h-1.15v4.17zM65.16.27L68.79 14h-2.88l-.63-2.9h-3.65L61 14h-2.88L61.74.27zm-.36 8.54l-1.33-6.16-1.36 6.16zm11.85.84V.27h2.53V14h-3.1L72.7 4.38V14h-2.57V.27h3.19zm8.5-4.09L87.11.27h3l-3.55 8.31V14h-2.77V8.58L80.24.27h3.11z"/><path class="cls-2" d="M4.63 12.35l3.58-5.27L4.63 1.8M.6 12.35l3.57-5.27L.6 1.8"/></g></g></svg>