<svg xmlns="http://www.w3.org/2000/svg" viewBox="0 0 460.99 46.81"><defs><style>.cls-1{fill:#323232}.cls-2,.cls-4{fill:none;stroke-linecap:round;stroke-linejoin:round}.cls-2{stroke:#323232}.cls-3{fill:#fff}.cls-4{stroke:#fff;stroke-width:1.5px}</style></defs><title>tit_story_1986</title><g id="レイヤー_2" data-name="レイヤー 2"><g id="拡大期"><path class="cls-1" d="M209.2 17.48h-2.7a41.94 41.94 0 0 1-4.64 14.44 19.14 19.14 0 0 0 7.75 6.19 18.56 18.56 0 0 0-3.19 4.1 21.79 21.79 0 0 1-7.48-6.21 25.23 25.23 0 0 1-9 6.31 24.85 24.85 0 0 0-2.28-4h-8.43v2.28H175v-17h5v-5.96h-6.69v-4.25H180v-7l5.4.3c0 .38-.3.61-1 .72v6h6.46v4.25h-6.46v5.93h4.6c-.3-.27-.65-.49-.91-.68 3.08-3.5 5.17-10 6.16-16.53l5.51 1.14c-.08.38-.42.57-1 .57-.34 1.71-.72 3.46-1.22 5.13h11.66zM185.3 34v-6.18h-6.12V34zm4.33 3.27a19.18 19.18 0 0 0 6.69-5.4 40.56 40.56 0 0 1-3.12-8.17 23.56 23.56 0 0 1-1.56 2.13c-.46-.46-1.25-1.18-2-1.79zm6.5-19.64a41.76 41.76 0 0 0 3 9.54 37.42 37.42 0 0 0 2.62-9.69h-5.55zm51.67-9.57l2.55.76a.82.82 0 0 1-.27.61c-.76 3.42-1.86 7.6-3.12 12 2.39 4 3.31 6.61 3.31 9 0 6.92-3.72 6.92-6.84 6.8a8.8 8.8 0 0 0-1.22-4.07c.84.08 1.6.08 2.09.08 1.44 0 1.79-.87 1.79-3S245.3 26 243 22.12c.87-3.61 1.6-7 2.13-10h-2.89v30h-4v-2.79L235 40.55a28.8 28.8 0 0 0-.61-3.34c-2.93 1.1-5.81 2.17-7.83 2.85a.81.81 0 0 1-.61.68l-1.52-4.56 2-.53v-8.33C224.78 33.9 221.78 39 216.54 42a18.23 18.23 0 0 0-2.24-3.23 15.48 15.48 0 0 0 7-8.28c-2.17.38-4.18.68-5.62.91a.81.81 0 0 1-.68.6l-1.25-4.6 1.94-.15c1.06-1.52 2.17-3.38 3.27-5.32a45.9 45.9 0 0 0-4.9-4.9l1.86-3.53.91.72a63.69 63.69 0 0 0 3.08-7.79l4.56 1.71c-.15.3-.53.46-1.06.46a64.31 64.31 0 0 1-4 7.94c.53.53 1.06 1.06 1.52 1.56.68-1.41 1.29-2.77 1.79-4l3.65 1.52V8.25h10.26V25.5h-6.34v9.08l3.08-.91a42.35 42.35 0 0 0-1.75-4.83l3.61-1.22a51.51 51.51 0 0 1 3 8.28V8.21h8.66zm-25.26 18.47c.27-1.22.49-2.51.68-3.84l3.19.49v-7a1.4 1.4 0 0 1-.42.08 96 96 0 0 1-6.16 10.49zm10.41-14.44h-2.62V15h2.62zm-2.62 9.57h2.62v-3h-2.62zm35.03-12.27c-.08.42-.42.68-1.18.72a91.12 91.12 0 0 0-2 16.72 35 35 0 0 0 .27 5.36c.46-1.1 1.94-4.33 2.43-5.55l2.24 3.5c-1.25 2.66-2.58 4.75-3.15 6.57a6.55 6.55 0 0 0-.3 1.82 5.1 5.1 0 0 0 .19 1.33l-4.79.72A45.08 45.08 0 0 1 257.31 27a131.2 131.2 0 0 1 1.79-18.5zm22.8 28.38c-1.41.08-2.93.11-4.37.11a52.25 52.25 0 0 1-6.46-.34c-5.28-.72-7.41-3.53-7.41-6.76 0-2.74 1.25-5.09 3.27-7.56l4.56 1.56c-1.71 1.67-2.81 3.42-2.81 5.32 0 2.85 3.42 3.15 7.94 3.15a49.44 49.44 0 0 0 5.43-.27zM270.8 13.19a132 132 0 0 0 16.07-1.41l.42 4.71a141.22 141.22 0 0 1-16.34 1.29z"/><path class="cls-2" d="M304.54 26.53v8.4c1.79-.27 3.61-.49 5.39-.76l.23 3.8c-5 .91-10.26 1.75-13.6 2.28a.91.91 0 0 1-.68.65l-1.29-4.71c1.67-.19 3.69-.46 5.93-.72v-8.94h-5.28v-3.84h5.28v-2.85h-3.27v-.34l-.08.08a13 13 0 0 0-3.08-3 33.56 33.56 0 0 0 6.69-10.18l5 .87c-.08.34-.34.53-.91.57l-.08.15a43.08 43.08 0 0 1 6.31 5.32L308.61 17l-.34-.42v3.27h-3.72v2.85h4.9v3.84zm-7.49 8.4a36.47 36.47 0 0 0-1.48-6.65l3-.84a35 35 0 0 1 1.6 6.56zM307.77 16a52.3 52.3 0 0 0-4.9-4.45C302 13 301.08 14.56 300 16zm2.51 12.46a1 1 0 0 1-1 .42 47.08 47.08 0 0 1-1.79 5.4l-2.7-1a45 45 0 0 0 1.44-6zm19.15-2.28v9c0 3.42-1.22 4.22-5.51 4.22a13 13 0 0 0-1.22-3.91h2.2c.3 0 .42-.08.42-.42v-5H322v12.15h-4.2V30.13h-3v9.27h-4.07V26.22h7v-2.58h-6.42V10.15h5.7a33 33 0 0 0 1-3.8l5.24 1.06c-.08.3-.42.46-.95.46-.27.68-.61 1.48-1 2.28h7.49v13.49h-6a1.2 1.2 0 0 1-.79.36v2.2zm-13.94-12.61v1.75h9.12v-1.75zm0 4.9v1.79h9.12v-1.79z"/><path class="cls-1" d="M368.3 24.4a.9.9 0 0 1-.3.08.91.91 0 0 1-.53-.19c-2.85.84-6.61 2.05-9.42 3.12.08.76.08 1.63.08 2.55s0 1.9-.08 3l-4.79.34a39.06 39.06 0 0 0 .15-4.07c-3 1.48-5.13 3.42-5.13 4.86 0 1.67 2.09 2.36 6.38 2.36a85.41 85.41 0 0 0 9.42-.42l.08 4.41c-2 .23-5.24.27-9.54.27-7.33 0-11-1.63-11-6.34 0-3 4-6.5 9.31-9.23-.11-1.1-.68-2.13-1.82-2.13-2.51 0-5.17 1.29-8.28 4.83-.91 1.06-2.32 2.55-4 4.14l-3.38-3.27a43.31 43.31 0 0 0 4.63-4.41 23.18 23.18 0 0 0 4.26-7.94h-7.33v-4.27c2.13.11 4.86.11 6.54.11h2a50.05 50.05 0 0 0 .8-5l5.81.57a1 1 0 0 1-1 .72c-.19 1.22-.49 2.36-.8 3.53A42.37 42.37 0 0 0 362 9.88l.76 4.48c-3.65 1.18-8.89 1.63-13.56 1.86a22.83 22.83 0 0 1-1.86 4.45 8.94 8.94 0 0 1 5.21-1.86c2.2 0 4.14 1.56 4.71 4.45 2.93-1.25 6.5-2.55 9.23-3.65z"/><path class="cls-3" d="M409.38 15.92h-7.75v3.84h6.73v12.66c0 2.74-.57 4.1-4.86 4.1a13.29 13.29 0 0 0-1.14-3.8h1.37c.19 0 .38-.11.38-.42v-8.47h-2.47v18.39h-4.29V23.83H395v12.73h-4V22l-.08.08a23.61 23.61 0 0 0-2.09-2.89v10.72h-8.85v5.62l3.84-.8c-.61-1-1.22-1.9-1.82-2.77l3.46-1.75a37.54 37.54 0 0 1 5 8.63l-3.72 2a17.31 17.31 0 0 0-1.1-2.66c-3.61 1-7.22 1.86-9.76 2.43a.69.69 0 0 1-.57.65l-1.79-4.52c.72-.11 1.52-.27 2.39-.42V18.39A14.54 14.54 0 0 0 373.1 16a28.92 28.92 0 0 0 7.26-9.65l4.9.8a.91.91 0 0 1-.91.61 40.67 40.67 0 0 1 6.12 5.55l-3.15 2.77a30.9 30.9 0 0 0-4.86-5c-.57.87-1.18 1.79-1.82 2.7l4.6.27c0 .34-.3.57-.91.65v2.13h4.48v1c2-2.74 3.46-7.11 4.29-11.44l5.09 1.33c-.11.3-.46.49-1 .49-.3 1.22-.65 2.43-1 3.61h13.22zm-28.84.91v-3a28.61 28.61 0 0 1-2.43 3zm4.18 4.94V20.1h-4.79v1.67zm-4.79 4.9h4.79v-1.74h-4.79zm17.4-6.92v-3.83h-2.73a28.17 28.17 0 0 1-2 3.84z"/><path class="cls-1" d="M427.47 22.27a20 20 0 0 1 7.26-1.41c5.78 0 9.76 3.53 9.76 9.5 0 6.8-5.93 10.75-14.21 10.75-4.9 0-8.36-2.24-8.36-6.08 0-3.08 3.12-5.58 6.69-5.58a7.66 7.66 0 0 1 7.71 6 5.48 5.48 0 0 0 3.15-5.05c0-3.27-2.7-5.36-6.54-5.36a19.21 19.21 0 0 0-12.65 4.71c-.91.84-2.43 2.36-3.42 3.46l-3.38-3.38c2.7-2.7 12.27-11.78 17.36-16.49-1.86.27-8.43.61-11.47.8a1.42 1.42 0 0 1-.91.57L418 9.35c4.86 0 15.58-.42 18.09-.83l.57-.27 3.08 3.88a1.93 1.93 0 0 1-1.1.42c-2 1.44-8.09 6.92-11.21 9.69zm2 14.7a14.06 14.06 0 0 0 2.32-.23 3.81 3.81 0 0 0-3.57-3.46c-1.25 0-2.39.65-2.39 1.75.01 1.79 2.4 1.97 3.66 1.97zM461 36.9a5.32 5.32 0 1 1-5.32-5.32A5.33 5.33 0 0 1 461 36.9zm-1.71 0a3.59 3.59 0 1 0-3.61 3.57 3.58 3.58 0 0 0 3.6-3.57z"/><path class="cls-4" d="M9.77 14.06h-9V8h.83a13.21 13.21 0 0 0 7.25-1.68A8 8 0 0 0 12.21.75H19v45.31H9.77z"/><path class="cls-1" d="M36.75 39.5A3.54 3.54 0 0 0 40 40.94a4.61 4.61 0 0 0 2.94-.86 5.63 5.63 0 0 0 1.7-2.4 13.2 13.2 0 0 0 .8-3.65q.19-2.11.19-4.61v-2.17h-.13A8.2 8.2 0 0 1 42.19 30 11.72 11.72 0 0 1 37 31.09 11.35 11.35 0 0 1 31.85 30a9 9 0 0 1-3.42-2.94 12.94 12.94 0 0 1-1.92-4.48 24.77 24.77 0 0 1-.61-5.66q0-7.87 3.49-12T40.56.75a14.14 14.14 0 0 1 7.55 1.76 11.82 11.82 0 0 1 4.32 4.67 19.56 19.56 0 0 1 2 6.75 69.21 69.21 0 0 1 .45 8q0 4.86-.29 9.38a24.74 24.74 0 0 1-1.73 8 11.78 11.78 0 0 1-4.54 5.47q-3.11 2-8.67 2a22.67 22.67 0 0 1-4.7-.48 9.89 9.89 0 0 1-4-1.79A9.42 9.42 0 0 1 28.11 41 13.24 13.24 0 0 1 27 35.5h8.83a7.34 7.34 0 0 0 .92 4zm-.48-17.18a4.08 4.08 0 0 0 3.84 2 4.14 4.14 0 0 0 3.9-2q1.15-2 1.15-6.59a31.25 31.25 0 0 0-.16-3.59 9.42 9.42 0 0 0-.74-2.85 4.41 4.41 0 0 0-1.56-1.85 4.54 4.54 0 0 0-2.59-.67 4.66 4.66 0 0 0-2.66.67 4.17 4.17 0 0 0-1.5 1.89 9.77 9.77 0 0 0-.67 2.85q-.16 1.63-.16 3.55 0 4.6 1.15 6.59z"/><path class="cls-3" d="M61.1 25.9a8.4 8.4 0 0 1 5.76-3.84v-.13a8.15 8.15 0 0 1-3.1-1.41 8.36 8.36 0 0 1-3.1-4.74 11 11 0 0 1-.32-2.56q0-6.65 3.55-9.57t9.76-2.9q6.21 0 9.76 2.91T87 13.23a10.12 10.12 0 0 1-.35 2.56 9.09 9.09 0 0 1-1.12 2.56 8.42 8.42 0 0 1-2 2.18 8.17 8.17 0 0 1-3 1.41v.13a8.4 8.4 0 0 1 5.76 3.84 13.61 13.61 0 0 1 1.92 7.36 22 22 0 0 1-.48 4.35 10.91 10.91 0 0 1-2 4.42 11.44 11.44 0 0 1-4.38 3.39 18 18 0 0 1-7.58 1.34 18 18 0 0 1-7.58-1.34A11.43 11.43 0 0 1 61.68 42a10.9 10.9 0 0 1-2-4.42 22 22 0 0 1-.48-4.35 13.61 13.61 0 0 1 1.9-7.33zm7.52 10.27a7.16 7.16 0 0 0 .83 2.5 4.53 4.53 0 0 0 1.63 1.66 5.7 5.7 0 0 0 5.12 0 4.54 4.54 0 0 0 1.63-1.66 7.19 7.19 0 0 0 .83-2.5 20.95 20.95 0 0 0 0-6.11 7.16 7.16 0 0 0-.83-2.46 4.54 4.54 0 0 0-1.63-1.66 5.69 5.69 0 0 0-5.12 0 4.53 4.53 0 0 0-1.63 1.66 7.13 7.13 0 0 0-.83 2.46 20.95 20.95 0 0 0 0 6.11zm1.76-18.4a4.24 4.24 0 0 0 6.53 0A7.71 7.71 0 0 0 78.13 13q0-6.21-4.48-6.21T69.17 13a7.7 7.7 0 0 0 1.21 4.77z"/><path class="cls-1" d="M110.54 8.17a3.58 3.58 0 0 0-3.23-1.41 4.63 4.63 0 0 0-2.91.86 5.49 5.49 0 0 0-1.73 2.4 13.17 13.17 0 0 0-.8 3.65q-.19 2.11-.19 4.61v2.24h.13a8 8 0 0 1 3.3-2.85 11.72 11.72 0 0 1 5.22-1.06 11.35 11.35 0 0 1 5.12 1.06 9 9 0 0 1 3.42 2.94 13 13 0 0 1 1.92 4.48 24.79 24.79 0 0 1 .61 5.66q0 7.87-3.49 11.94t-11.17 4.06a14.78 14.78 0 0 1-7.55-1.66 11.15 11.15 0 0 1-4.32-4.58 19.51 19.51 0 0 1-2-6.75 68.88 68.88 0 0 1-.45-8q0-4.8.29-9.31a25.06 25.06 0 0 1 1.73-8A12.39 12.39 0 0 1 99 2.86q3.07-2.11 8.7-2.11a19.08 19.08 0 0 1 4.7.58 10.74 10.74 0 0 1 4 1.92 9.72 9.72 0 0 1 2.78 3.55 13.26 13.26 0 0 1 1.12 5.47h-8.83a7.47 7.47 0 0 0-.93-4.1zm-8.22 27.39a9.38 9.38 0 0 0 .74 2.85 4.39 4.39 0 0 0 1.54 1.86 4.54 4.54 0 0 0 2.59.67 4.66 4.66 0 0 0 2.66-.67 4.17 4.17 0 0 0 1.5-1.89 9.83 9.83 0 0 0 .67-2.85q.16-1.63.16-3.55 0-4.61-1.15-6.59a4.09 4.09 0 0 0-3.84-2 4.15 4.15 0 0 0-3.9 2q-1.15 2-1.15 6.59a31.36 31.36 0 0 0 .18 3.59zm43.39-7.22h-18v-7.55h18z"/></g></g></svg>