<svg xmlns="http://www.w3.org/2000/svg" viewBox="0 0 364.86 34.94"><defs><style>.cls-1{fill:#323232}.cls-2{fill:none;stroke:#323232;stroke-linecap:round;stroke-linejoin:round}.cls-3{fill:#fff}</style></defs><title>tit_story_auction</title><g id="レイヤー_2" data-name="レイヤー 2"><g id="創業期"><path class="cls-1" d="M31.17 13.1h-9.9l.14 15.12c.07 5.11-3.13 5.11-10.15 5.11a22.21 22.21 0 0 0-1.15-4.14h2.92c3.42 0 4 0 3.89-1.08l-.11-11.63a49.36 49.36 0 0 1-13.61 12A15.88 15.88 0 0 0 0 25.12a45.67 45.67 0 0 0 14.18-12H1.76V8.81H16.7l-.07-7.24 5.54.22c0 .4-.29.68-1 .76l.07 6.26h9.94zm6.36 1.55h27v4.54H38.89a1.54 1.54 0 0 1-1.1.68zM98.17 9a2.11 2.11 0 0 1-.79.68C93.31 21.49 87.69 28.58 78 33.47A17 17 0 0 0 74.59 30c9-4.21 14.25-10.55 17-18.61H81a38.09 38.09 0 0 1-7.67 8.24 24.23 24.23 0 0 0-3.71-3A35.45 35.45 0 0 0 80.89 1.44l5.72 1.33a1.14 1.14 0 0 1-1.19.65c-.58 1.3-1.3 2.56-1.91 3.74h10.27l.65-.32zm6.55 2.55a51.59 51.59 0 0 1 9.21 3.35L112 18.82a53.58 53.58 0 0 0-9.21-3.53zm1 16.77c11.05-3.42 19.08-9.29 24-19.94a48.39 48.39 0 0 0 3.92 3c-4.9 10.26-13.68 17.1-24 20.59a.88.88 0 0 1-.58 1zM109 2.7a55.51 55.51 0 0 1 9.29 3.56l-2.23 3.82A49.79 49.79 0 0 0 107 6.26zm49.65 8.2v22.25h-3.6v-1.48h-15.33v-3.35h15.33V23h-13.79v-3.39h13.79v-5.36h-14.51V10.9zM169.81 4a46.69 46.69 0 0 1 10.55 4.75L178 12.81a52.5 52.5 0 0 0-10.29-4.93zm-1.22 24.37c12.13-3.74 20.48-10.8 24.66-20.7a27.16 27.16 0 0 0 4.21 2.66c-4.46 9.83-13.07 17.49-25 21.71a1.26 1.26 0 0 1-.61.94zM221.94 9a1.19 1.19 0 0 1-1.08.61c-1.48 12.31-5.08 19.44-11.27 19.44-3.92 0-6.77-3.31-6.77-9.43 0-9.21 7.34-16 16.52-16 10.19 0 15.41 6 15.41 13.86 0 8.46-4.36 12.85-13.43 15.15a24.14 24.14 0 0 0-2.88-3.82c8.21-1.62 11.48-5.54 11.48-11.27s-4-9.72-10.65-9.72a15.29 15.29 0 0 0-1.84.14zm-5.72-.72a11.47 11.47 0 0 0-9 11.16c0 3 .9 5.15 2.48 5.15 3.57.03 5.91-7.86 6.52-16.28z"/><path class="cls-2" d="M255.24 20.62c-.11.32-.4.54-1 .61-1.08 5.36-2.56 10.26-11 13.21a14 14 0 0 0-2.63-3.78c7.52-2.16 8.67-6 9.25-10.66zm8.76 7.81c0 1.19.18 1.37 1.29 1.37h3.17c1.08 0 1.3-.68 1.44-5a12.09 12.09 0 0 0 3.92 1.73c-.43 5.76-1.58 7.31-5 7.31h-4.21c-4.07 0-5-1.33-5-5.43v-8.76H241.2v-4.21h13.93V9.53h-6.3a24.18 24.18 0 0 1-2.77 5 23.72 23.72 0 0 0-3.82-1.91c2.38-3 4.1-7.88 4.86-11.59l5.08 1.12c-.11.32-.4.5-.94.5-.22.83-.5 1.8-.83 2.77h4.71V.5l5.4.25c0 .4-.32.61-1 .72V5.4h11.09v4.13h-11.09v5.9h14v4.21H264z"/><path class="cls-1" d="M283 24c-.22 3.35-.58 6.73-2.09 8.75l-2.23-1.19c1.33-1.84 1.8-4.93 1.94-8zm9.5-5.72l.83-.07 2 .22c0 .32 0 .76-.07 1.08-.4 9-.83 12.42-1.73 13.54s-1.91 1.48-5.44 1.37a9.08 9.08 0 0 0-.9-3.38 20.5 20.5 0 0 0 2.27.11 1 1 0 0 0 1-.43 7.91 7.91 0 0 0 .76-3.28l-1.15.43a20.09 20.09 0 0 0-1.66-4.72l1.73-.58a26.35 26.35 0 0 1 1.22 2.92c.07-1.08.14-2.34.22-3.85h-7.13v.79h-3.63V1.8h13.89v3.49h-4.46v2.09h3.85v3.28h-3.85v2.16h3.85V16h-3.85v2.23zm-8.86 12.31v-1.55a41.36 41.36 0 0 0-.32-5.18l1.87-.18a36.06 36.06 0 0 1 .4 6.66zm3.1-25.3h-2.3v2.09h2.3zm0 7.52v-2.16h-2.3v2.16zM284.47 16v2.23h2.3V16zM287 29.51a29.58 29.58 0 0 0-1.12-5.9l1.84-.32a29.22 29.22 0 0 1 1.28 5.83zm23-3.71a39.68 39.68 0 0 0-2.92-4.75 26.9 26.9 0 0 1-4.54 6.95 21.63 21.63 0 0 0-2.41-2.3v3.1h13v3.92h-13v1.84h-4V1.87h16.59v3.88h-12.59v5.4a29.06 29.06 0 0 0 2.3-1.84c1.19 1.19 2.41 2.52 3.6 3.89a61.17 61.17 0 0 0 1.48-6.52l4.68 1c-.07.29-.43.5-.94.5a69 69 0 0 1-2.3 8.53 51.16 51.16 0 0 1 4.32 6.34zm-9.93-1a24.54 24.54 0 0 0 4.39-7.34c-1.4-1.8-2.92-3.6-4.39-5.18z"/><path class="cls-3" d="M326.56 3.67a1.12 1.12 0 0 1-1 .72 75.9 75.9 0 0 0-1.91 13.86c0 1.55 0 3.24.18 4.72.61-1.33 1.87-3.85 2.77-5.51l2.63 3.35a40 40 0 0 0-3.56 6.26 4.48 4.48 0 0 0-.43 1.91 6.21 6.21 0 0 0 .14 1.33L321 31a44 44 0 0 1-1.66-12.63 96.77 96.77 0 0 1 1.55-15.48zm4 7.38c2 0 6.19-.07 8.5-.25-.18-4.17-.43-8.31-.61-9.32l6 .18a1.3 1.3 0 0 1-1.08 1c0 1.69.14 4.86.25 7.88a39.09 39.09 0 0 0 6.16-1l.4 4.43a51.9 51.9 0 0 1-6.41.83v2.38c0 7.52-1.87 13.1-8.5 16.74a26.12 26.12 0 0 0-3.64-3.1c6.3-3.2 7.56-7.56 7.56-13.21v-2.59c-2.2.14-5.69.22-8.5.22z"/><path class="cls-1" d="M364.86 29.4a5 5 0 1 1-5-5 5.05 5.05 0 0 1 5 5zm-1.62 0a3.4 3.4 0 1 0-3.42 3.38 3.4 3.4 0 0 0 3.42-3.38z"/></g></g></svg>