<svg xmlns="http://www.w3.org/2000/svg" viewBox="0 0 454.54 47.02"><defs><style>.cls-1{fill:#fff}.cls-2{fill:#323232}.cls-3{fill:none;stroke:#323232;stroke-linecap:round;stroke-linejoin:round}</style></defs><title>tit_story_1987</title><g id="レイヤー_2" data-name="レイヤー 2"><g id="拡大期"><path class="cls-1" d="M172.47 35.28a108 108 0 0 0 7.6-11.59l3.5 3c-2.13 3.88-4.56 7.87-6.5 10.68a1.44 1.44 0 0 1 .23.72.93.93 0 0 1-.23.61zm3.12-27.13a39.52 39.52 0 0 1 7.79 4.45l-2.85 4.18a40.54 40.54 0 0 0-7.67-4.9zm32.87 12.77v4.45h-5v11.16c0 4.29-1.25 5.43-8.74 5.43a17.39 17.39 0 0 0-1.44-4.67c1.22 0 2.43.08 3.38.08 2.2 0 2.32 0 2.32-.84v-9.8a38.72 38.72 0 0 1-14.32 13.34 22 22 0 0 0-3.12-3.65A34.77 34.77 0 0 0 195 25.36h-11.21v-4.44h4.79v-9h-3.5V7.66h22.07v4.22h-3.72v9zm-15.5-9v9h6v-9z"/><path class="cls-2" d="M229.12 27.19a9 9 0 0 1 3.15-.65 3.41 3.41 0 0 1 3.46 3.61c0 1.1-.08 2.43-.08 3.08 0 2.89 1.6 2.89 3.57 2.89a32.92 32.92 0 0 0 5.36-.46v1.75a29.61 29.61 0 0 0 .11 3c-1.6.11-3.57.23-5.39.23a26.76 26.76 0 0 1-3.31-.15c-3.15-.34-4.9-2.24-4.94-4.83 0-.91.08-2.43.08-3.38 0-1.18-.53-1.9-1.56-1.9-1.75 0-4 1-6.27 3.08-1.94 1.94-5.81 5.78-6.88 7.07a42.51 42.51 0 0 0-3.61-3.72c3.84-3.61 14.13-13.15 17.21-16.11-2.47.23-9.08.61-13 .87-.23.34-.3.46-.61.46l-.38-5.13c5.17-.15 14.7-.49 18.73-.84l.68-.42 3.67 3.36a1.34 1.34 0 0 1-1 .3c-2.43 2-5.93 5-9 7.83zm7.18-13.3a87.32 87.32 0 0 0-15.58-2.43L221.86 7a83.45 83.45 0 0 1 15.65 2.28zm12.62.27a50.73 50.73 0 0 0 7.29-.53c0-.8.15-5.81.15-6.54l6 .46c-.11.42-.38.72-1.1.8-.15 1.79-.23 3.08-.34 4.64l1.9.87a24.81 24.81 0 0 0-2.36 5.7 19.85 19.85 0 0 1 11-3.91c6.34 0 10.6 4.29 10.6 11.25 0 8.32-6.34 12-16.07 12.84a25.93 25.93 0 0 0-1.79-4.26c8.51-.91 13-3.08 13-8.47 0-3.76-2-7-6.19-7-3.27 0-7.41 1.67-10.64 4.48v6.73c0 3.61 0 7.22.08 9.54h-4.63V28a29.38 29.38 0 0 1-5.78 6.5l-2.2-4.18a43.66 43.66 0 0 0 5.89-6.12 28.47 28.47 0 0 0 2.17-3.53L256 18a60 60 0 0 1-6.92.72zm61.86 2.01A47.61 47.61 0 0 1 300.37 18a116.29 116.29 0 0 1-6.54 22.91l-4.94-1.75a75.3 75.3 0 0 0 6.5-20.9h-6.2l-.08-4.52c1.22.08 3.19.08 5 .08h1.94c.3-2.2.57-4.83.76-7l6.19.53c0 .46-.49.8-1.06.91-.19 1.37-.49 3.42-.76 5.13a38.85 38.85 0 0 0 8.7-1.94zm10.07 24.09c-1.18.08-2.51.11-3.88.11a38.35 38.35 0 0 1-8.05-.68c-3.38-.8-5.05-3.12-5-5.78a8.89 8.89 0 0 1 2.43-5.62l4.07 1.48a5.29 5.29 0 0 0-1.75 3.34c0 2.09 1.94 2.62 7.75 2.62 1.52 0 3.12-.08 4.52-.19zm-14.36-19.15a47.23 47.23 0 0 1 13.56-1.86v4.56a44.24 44.24 0 0 0-12.54 1.41z"/><path class="cls-3" d="M340.08 22a20 20 0 0 1 7.26-1.41c5.78 0 9.76 3.53 9.76 9.5 0 6.8-5.93 10.75-14.21 10.75-4.9 0-8.36-2.24-8.36-6.08 0-3.08 3.12-5.58 6.69-5.58a7.66 7.66 0 0 1 7.71 6 5.48 5.48 0 0 0 3.15-5.05c0-3.27-2.7-5.36-6.54-5.36a19.21 19.21 0 0 0-12.64 4.73c-.91.84-2.43 2.36-3.42 3.46l-3.38-3.38c2.7-2.7 12.27-11.78 17.36-16.49-1.86.27-8.43.61-11.47.8a1.42 1.42 0 0 1-.91.57l-.42-5.36c4.86 0 15.58-.42 18.09-.83l.57-.27 3.08 3.88a1.93 1.93 0 0 1-1.1.42c-2 1.44-8.09 6.92-11.21 9.69zm2 14.7a14 14 0 0 0 2.32-.23 3.81 3.81 0 0 0-3.56-3.47c-1.25 0-2.39.65-2.39 1.75 0 1.82 2.39 1.97 3.65 1.97z"/><path class="cls-2" d="M376.56 12.45v3.61H363v-3.61zm-1.18 15.88V38c5.28-2.36 5.89-6.38 6.16-12.12l5.28.46c-.08.34-.38.61-1 .68-.49 6.27-1.41 11.67-7.79 14.89a13.7 13.7 0 0 0-2.7-3.69v1.67h-7.11v1.56h-3.72V28.33zm-.08-10.52v3.46h-10.63V17.8zm-10.64 8.66V23h10.64v3.42zM375.2 7.32v3.46h-10.3V7.32zm-3.53 29V31.9h-3.38v4.41zm9.33-12.1V28h-4v-7.46h21.09V28h-4.22v-3.8zm4.14-9.16v-2.23h-7.9V9.1h7.9v-3l5.55.27c0 .38-.3.61-1 .76v2h8.4v3.72h-8.4v2.24h7.11v3.69h-18.2v-3.71zm7.1 21.28c0 1.14.08 1.25.65 1.25h1.48c.65 0 .8-.61.87-4.86a12.3 12.3 0 0 0 3.8 1.67c-.38 5.66-1.41 7.14-4.22 7.14h-2.66c-3.42 0-4.14-1.29-4.14-5.17V26l5.17.3c0 .34-.27.57-1 .68zm43.9-18.92a1.08 1.08 0 0 1-1.14.72c-.42 2.09-1.06 4.9-1.71 7.22 1.75.76 3.8 1.71 5.66 2.66l-2.09 4.6c-1.75-.95-3.38-1.82-5-2.62-1.75 4.86-4.22 8.7-7.79 11.09a26.58 26.58 0 0 0-4-2.66c3.5-2.28 5.77-5.74 7.37-10.41a35.92 35.92 0 0 0-7.44-2.24c-2.62 9.2-5.43 11.44-10 11.44-5.05 0-6.12-4-6.12-6.84 0-6 6.34-9.12 12.5-9.08a71 71 0 0 0 1.63-8.62c-1.82.19-6.57.61-9.46.76a1.59 1.59 0 0 1-1 .61l-.49-5c4.14-.15 10.75-.61 12.54-.76a2.08 2.08 0 0 0 1-.53l3.8 1.94a2.29 2.29 0 0 1-1 .76c-.57 3.34-1.56 8.13-2.39 11.21a37.71 37.71 0 0 1 7.67 2 60.8 60.8 0 0 0 1.52-7.52zm-20.75 8c-4.14 0-7.22 2-7.22 5 0 1.56.72 2.58 2 2.58 1.83 0 3.33-.87 5.23-7.6zm39.15 11.23a5.32 5.32 0 1 1-5.32-5.32 5.33 5.33 0 0 1 5.32 5.32zm-1.71 0a3.59 3.59 0 1 0-3.61 3.57 3.58 3.58 0 0 0 3.61-3.57z"/><path class="cls-1" d="M9 13.81H0v-6h.83A13.21 13.21 0 0 0 8.1 6.07 8 8 0 0 0 11.46.5h6.78v45.31H9z"/><path class="cls-2" d="M36 39.25a3.54 3.54 0 0 0 3.23 1.44 4.61 4.61 0 0 0 2.94-.86 5.64 5.64 0 0 0 1.7-2.4 13.19 13.19 0 0 0 .8-3.65q.19-2.11.19-4.61V27h-.13a8.2 8.2 0 0 1-3.3 2.78 11.71 11.71 0 0 1-5.22 1.06 11.33 11.33 0 0 1-5.12-1.06 9 9 0 0 1-3.42-2.94 12.93 12.93 0 0 1-1.92-4.48 24.76 24.76 0 0 1-.61-5.66q0-7.87 3.49-12T39.81.5a14.15 14.15 0 0 1 7.55 1.76 11.82 11.82 0 0 1 4.32 4.67 19.56 19.56 0 0 1 2 6.75 69.23 69.23 0 0 1 .45 8q0 4.87-.29 9.38a24.72 24.72 0 0 1-1.73 8 11.77 11.77 0 0 1-4.54 5.47q-3.11 2-8.67 2a22.67 22.67 0 0 1-4.7-.48 9.87 9.87 0 0 1-4-1.79 9.44 9.44 0 0 1-2.78-3.52 13.25 13.25 0 0 1-1.12-5.47h8.83a7.34 7.34 0 0 0 .87 3.98zm-.48-17.18a4.09 4.09 0 0 0 3.84 2 4.15 4.15 0 0 0 3.9-2q1.15-2 1.15-6.59a31.23 31.23 0 0 0-.19-3.58 9.41 9.41 0 0 0-.73-2.9A4.42 4.42 0 0 0 42 7.19a4.55 4.55 0 0 0-2.59-.67 4.67 4.67 0 0 0-2.66.67 4.17 4.17 0 0 0-1.5 1.89 9.76 9.76 0 0 0-.67 2.85q-.16 1.63-.16 3.55-.05 4.6 1.1 6.59z"/><path class="cls-3" d="M60.35 25.65a8.4 8.4 0 0 1 5.76-3.84v-.13a8.12 8.12 0 0 1-3.11-1.4 8.36 8.36 0 0 1-3.1-4.74 11 11 0 0 1-.32-2.54q0-6.66 3.55-9.57T72.9.5q6.21 0 9.76 2.91T86.21 13a10.1 10.1 0 0 1-.35 2.56 9.09 9.09 0 0 1-1.12 2.56 8.41 8.41 0 0 1-2 2.18 8.14 8.14 0 0 1-3 1.41v.13a8.4 8.4 0 0 1 5.76 3.84A13.6 13.6 0 0 1 87.36 33a22 22 0 0 1-.48 4.35 10.91 10.91 0 0 1-2 4.42 11.43 11.43 0 0 1-4.38 3.39 18 18 0 0 1-7.58 1.34 18 18 0 0 1-7.58-1.34 11.42 11.42 0 0 1-4.38-3.39 10.9 10.9 0 0 1-2-4.42 22 22 0 0 1-.53-4.35 13.61 13.61 0 0 1 1.92-7.35zm7.52 10.27a7.14 7.14 0 0 0 .83 2.5 4.52 4.52 0 0 0 1.63 1.66 5.7 5.7 0 0 0 5.12 0 4.53 4.53 0 0 0 1.63-1.66 7.17 7.17 0 0 0 .83-2.5 20.94 20.94 0 0 0 0-6.11 7.17 7.17 0 0 0-.83-2.46 4.54 4.54 0 0 0-1.63-1.66 5.7 5.7 0 0 0-5.12 0 4.54 4.54 0 0 0-1.63 1.66 7.14 7.14 0 0 0-.83 2.46 20.94 20.94 0 0 0 0 6.11zm1.76-18.4a4.23 4.23 0 0 0 6.53 0 7.71 7.71 0 0 0 1.22-4.8q0-6.21-4.48-6.21t-4.48 6.21a7.7 7.7 0 0 0 1.21 4.8z"/><path class="cls-2" d="M118.85 8.44a60 60 0 0 0-5 8.51 85.92 85.92 0 0 0-6.62 19.11q-1.09 5-1.66 9.76h-9.7q.51-4.1 1.54-8.61a76.54 76.54 0 0 1 2.72-9.21 81.47 81.47 0 0 1 4.13-9.41A69.22 69.22 0 0 1 110 9.33H90.94V1.4h27.9zm22.27 19.65h-18v-7.55h18z"/></g></g></svg>