<svg xmlns="http://www.w3.org/2000/svg" viewBox="0 0 119.77 26.6"><defs><style>.cls-1{fill:#fff}</style></defs><title>tit_company_service</title><g id="レイヤー_2" data-name="レイヤー 2"><path class="cls-1" d="M5.18 18.94a8.57 8.57 0 0 0 .14 1.64 2.85 2.85 0 0 0 .54 1.24 2.66 2.66 0 0 0 1.06.79 4.22 4.22 0 0 0 1.67.29 3.31 3.31 0 0 0 2.14-.77 2.9 2.9 0 0 0 1-2.39 4.28 4.28 0 0 0-.23-1.49 3 3 0 0 0-.77-1.13 5.53 5.53 0 0 0-1.42-.92 20.55 20.55 0 0 0-2.18-.85 18.63 18.63 0 0 1-3-1.26A8 8 0 0 1 2 12.47a5.72 5.72 0 0 1-1.24-2.12 8.94 8.94 0 0 1-.4-2.79q0-3.81 2.12-5.69A8.51 8.51 0 0 1 8.32 0a12.68 12.68 0 0 1 3.18.38A6.69 6.69 0 0 1 14 1.6a5.72 5.72 0 0 1 1.65 2.16 7.6 7.6 0 0 1 .6 3.15v.72h-5a5.16 5.16 0 0 0-.65-2.83 2.39 2.39 0 0 0-2.16-1A3.6 3.6 0 0 0 7 4.05a2.41 2.41 0 0 0-.92.67 2.28 2.28 0 0 0-.47 1 4.86 4.86 0 0 0-.07 1.08 3.71 3.71 0 0 0 .5 2 4.51 4.51 0 0 0 2.17 1.5l4 1.73a12.32 12.32 0 0 1 2.41 1.35 6.62 6.62 0 0 1 1.49 1.51 5.06 5.06 0 0 1 .77 1.78 10 10 0 0 1 .21 2.16q0 4.07-2.36 5.92a10.38 10.38 0 0 1-6.56 1.85q-4.39 0-6.28-1.91A7.45 7.45 0 0 1 0 19.22v-1h5.18zM33.34 4.75h-9.18v6h8.64V15h-8.64v7h9.54v4.25H19V.5h14.34zM46.58.5a7.22 7.22 0 0 1 5 1.64 6.42 6.42 0 0 1 1.8 5 7.75 7.75 0 0 1-1 4.23 4.83 4.83 0 0 1-3.24 2.11v.07A4.7 4.7 0 0 1 52 14.8a5.34 5.34 0 0 1 1.12 3.13q.07.72.11 1.57t.07 1.89q.07 2.05.22 3.13a2 2 0 0 0 .91 1.48v.22h-5.61a2.78 2.78 0 0 1-.5-1.24 14 14 0 0 1-.14-1.46L48 18.58a4.06 4.06 0 0 0-.76-2.38 2.77 2.77 0 0 0-2.3-.86h-2.75v10.87H37V.5zm-2.23 11.24a4.24 4.24 0 0 0 2.88-.88 3.78 3.78 0 0 0 1-3q0-3.56-3.6-3.56h-2.44v7.42zm20.16 7.77h.11L68.44.5h5.36l-5.9 25.7h-6.66L55.33.5h5.54zM76.68.5h5.18v25.7h-5.18zM96 5.09a2.49 2.49 0 0 0-2.4-1.27 2.43 2.43 0 0 0-1.6.52A3.47 3.47 0 0 0 91 6a14.4 14.4 0 0 0-.5 3.06q-.14 1.89-.14 4.63a45 45 0 0 0 .2 4.72 10.44 10.44 0 0 0 .61 2.79 2.55 2.55 0 0 0 1 1.33 3 3 0 0 0 1.46.34 3.45 3.45 0 0 0 1.28-.23 2.16 2.16 0 0 0 1-.94 6.08 6.08 0 0 0 .68-2 18.06 18.06 0 0 0 .25-3.37h5.18a23.22 23.22 0 0 1-.32 4 9 9 0 0 1-1.21 3.28 6 6 0 0 1-2.48 2.2 9.4 9.4 0 0 1-4.16.79 9.78 9.78 0 0 1-4.64-.94A6.31 6.31 0 0 1 86.63 23a11.9 11.9 0 0 1-1.19-4.21 49.33 49.33 0 0 1-.27-5.4A49.49 49.49 0 0 1 85.45 8a11.93 11.93 0 0 1 1.19-4.23A6.65 6.65 0 0 1 89.28 1a9.33 9.33 0 0 1 4.64-1 9 9 0 0 1 4.38.9 6.13 6.13 0 0 1 2.39 2.29 7.94 7.94 0 0 1 1 3 24.62 24.62 0 0 1 .2 3H96.7a9.34 9.34 0 0 0-.7-4.1zm23.41-.34h-9.18v6h8.64V15h-8.64v7h9.54v4.25H105V.5h14.36z" id="service-01"/></g></svg>