<svg xmlns="http://www.w3.org/2000/svg" viewBox="0 0 86.18 15.09"><defs><style>.cls-1{fill:#fff}.cls-2{fill:none;stroke:#fff;stroke-linecap:round;stroke-linejoin:round;stroke-width:1.2px}</style></defs><title>tit_contact</title><g id="レイヤー_2" data-name="レイヤー 2"><g id="form01"><path class="cls-1" d="M23.2 9.62l-.06.83c-.13 2.63-1 4.65-4 4.65-4.42 0-4.7-2.8-4.7-6.64V6.39c.12-3.67.4-6.39 4.7-6.39 2.4 0 3.74 1.27 3.94 3.72a7 7 0 0 1 .06 1.09h-2.67c-.12-.92 0-2.65-1.34-2.65-2.11 0-1.94 2.51-1.94 3.63v4c0 1.19.1 3.13 1.94 3.13 1.48 0 1.31-2.38 1.36-3.3zm1.63-3.23c.12-3.67.4-6.39 4.7-6.39s4.59 2.73 4.7 6.39v2.06c0 3.84-.29 6.64-4.7 6.64s-4.7-2.8-4.7-6.64zm2.76 3.4c0 1.19.1 3.13 1.94 3.13s1.94-2 1.94-3.36V5.87c0-1.15.06-3.71-1.94-3.71s-1.94 2.52-1.94 3.64zM42.73.35h2.69v14.4h-2.8l-2.1-5.13a48.37 48.37 0 0 1-1.91-5.72c.1 1.19.21 2.65.29 4.11s.13 2.88.13 4v2.71H36.3V.35h2.78l2.09 5.24a48.32 48.32 0 0 1 1.92 5.72C43 10 42.94 8.6 42.87 7.22s-.13-2.76-.13-4.05zm4.27 0h9v2.11h-3.12v12.28H50.2V2.46H47zm8.72 14.39L59.16.35h3.63L66 14.74h-2.83l-.71-3.65h-3.15l-.71 3.65zm4-5.76H62l-.69-4.08c-.13-.67-.19-1.32-.27-2 0-.33-.06-.65-.1-1 0 .31-.08.63-.1 1-.08.67-.13 1.32-.27 2zM76 9.62l-.06.83c-.13 2.63-1 4.65-4 4.65-4.42 0-4.7-2.8-4.7-6.64V6.39C67.39 2.73 67.68 0 72 0c2.4 0 3.74 1.27 3.94 3.72a7 7 0 0 1 .06 1.1h-2.68c-.12-.92 0-2.65-1.34-2.65C69.86 2.17 70 4.68 70 5.8v4c0 1.19.1 3.13 1.94 3.13 1.48 0 1.31-2.38 1.36-3.3zM77.21.35h9v2.11H83v12.28h-2.64V2.46h-3.15z"/><path class="cls-2" d="M4.63 13.12l3.58-5.27-3.58-5.27M.6 13.12l3.57-5.27L.6 2.58"/></g></g></svg>