<svg xmlns="http://www.w3.org/2000/svg" viewBox="0 0 453.42 46.52"><defs><style>.cls-1{fill:#323232}.cls-2,.cls-4{fill:none;stroke-linecap:round;stroke-linejoin:round}.cls-2{stroke:#fff;stroke-width:1.5px}.cls-3{fill:#fff}.cls-4{stroke:#323232}</style></defs><title>tit_story_1989</title><g id="レイヤー_2" data-name="レイヤー 2"><g id="拡大期"><path class="cls-1" d="M204.55 11.8a41 41 0 0 1 3.65 10l-4.56 1.44a41.55 41.55 0 0 0-3.5-10zm27.66 1.14a1.17 1.17 0 0 1-1.22.57c-3.91 13.72-10.18 21.24-22 26.71a21 21 0 0 0-3.27-3.72C217 31.75 223 24.79 226.2 11zm-15.66-3.12a64.88 64.88 0 0 1 1.71 10.6l-4.86.68a61.33 61.33 0 0 0-1.67-10.64z"/><path class="cls-2" d="M268.88 25h-12.39c-.8 6.69-3.46 12-10.45 16a33.87 33.87 0 0 0-4-3.12c6.27-3.38 8.85-7.26 9.54-12.88h-14.24v-4.39H252c.08-2 .08-3.8.08-6-3.34.61-7.67 1.25-11.55 1.6a24.53 24.53 0 0 0-1.29-3.76c9.23-.91 18.77-3 23.14-4.83l3.31 3.69c-.23.19-.49.19-1.1.19a73.91 73.91 0 0 1-8.25 2.24l1.67.11c-.08.42-.34.76-1 .91 0 2.17 0 4.07-.11 5.89h12z"/><path class="cls-1" d="M308.66 15.64a1.18 1.18 0 0 1-.72.53 38.27 38.27 0 0 1-8.74 13.68 23 23 0 0 0-4-2.77 27 27 0 0 0 6.16-8.55l-10.45 2 3.8 19.38-4.94.84L286 21.53l-9.65 1.86-.91-4.52 9.7-1.87-1.82-9.3 6.27-.49c0 .53-.42.84-1 1.06l1.41 7.82 14.17-2.7.49-.27zm18.4 6.46a22.44 22.44 0 0 0 4.41 7.07 21.23 21.23 0 0 0 4.48-7.29l5.51 1.79a1.11 1.11 0 0 1-1.14.49 27.93 27.93 0 0 1-5.32 8.08 33.17 33.17 0 0 0 14.44 5.4 19.48 19.48 0 0 0-3 4.33c-6.31-1.22-11.25-3.34-15.16-6.5a40.78 40.78 0 0 1-15 6.54 27.18 27.18 0 0 0-2.66-4.14A36.61 36.61 0 0 0 328 32.2a32 32 0 0 1-5.32-8.81zm1.86-4.56a1 1 0 0 1-1.1.34 45.78 45.78 0 0 1-10.22 8.59 26.6 26.6 0 0 0-3.5-3.34 30.3 30.3 0 0 0 9.57-7.83zm15.92 8.66c-1.94-2.47-6.31-6-9.76-8.55l3.64-2.65h-24.2v-4.45H329V6.06l5.7.3c0 .38-.3.61-1 .72v3.46h14.63V15H339a61.56 61.56 0 0 1 10 8.05z"/><path class="cls-3" d="M374.75 22.51h14.93v4h-22.53c-1.6 6.42-4.67 12-9.19 15.39a25.49 25.49 0 0 0-3.57-3c3.8-2.51 6.46-7 7.86-12.35h-7v-4H370v-2h-10.68v-3.81H370V14.8h-12.84v-3.91h6.69a18.77 18.77 0 0 0-1.9-3.15l4-1.52a15.34 15.34 0 0 1 2.62 4.29l-.87.38h9.3l-.72-.27a28.86 28.86 0 0 0 2.36-4.56l5.32 1.71a1.1 1.1 0 0 1-1 .42c-.53.8-1.22 1.79-1.94 2.7h7v3.91h-13.27v1.94h11.09v3.76h-11.09zm3.3 9.92v4.63h10.37v4h-25.6v-4h10.56v-4.63h-6.65v-3.91h18.5v3.91z"/><path class="cls-1" d="M404.27 33.46a22.77 22.77 0 0 1-5.35 8.54l-4.29-2.24a19.21 19.21 0 0 0 5.17-7.49zm21.81-16.19V30.8h-26.55V17.27h10.71V6.06l5.7.3c0 .38-.34.61-1.06.72v2.59h13.72v4.26h-13.72v3.34zm-4.63 9.27v-5.05h-17.56v5.05zm-14.29 15.12a54.82 54.82 0 0 0-.8-8.05l4.33-.42a46.47 46.47 0 0 1 1.06 7.87zm9.19-.15a46.55 46.55 0 0 0-2.66-7.83l4.18-.91a44 44 0 0 1 2.93 7.6zm10.26.46a46.39 46.39 0 0 0-5.55-8.43l4.18-1.75A49.23 49.23 0 0 1 431.1 40zM174.37 14.08c0-3.27.84-4.48 3.91-5.7l1.37 2c-2.32.65-2.85 1.33-2.89 3.69H180v5.55h-5.58zm7.67 0c0-3.27.84-4.48 3.91-5.7l1.37 2c-2.32.65-2.85 1.33-2.89 3.69h3.19v5.55H182zm263.7.15c0 3.27-.83 4.48-3.91 5.7l-1.37-2c2.32-.65 2.85-1.33 2.89-3.69h-3.19V8.68h5.58zm7.68 0c0 3.27-.84 4.48-3.91 5.7l-1.37-2c2.32-.65 2.85-1.33 2.89-3.69h-3.19V8.68h5.59z"/><path class="cls-4" d="M9.52 13.81H.5v-6h.83A13.21 13.21 0 0 0 8.6 6.07 8 8 0 0 0 12 .5h6.78v45.31H9.52z"/><path class="cls-1" d="M36.5 39.25a3.54 3.54 0 0 0 3.23 1.44 4.61 4.61 0 0 0 2.94-.86 5.63 5.63 0 0 0 1.7-2.4 13.2 13.2 0 0 0 .8-3.65q.19-2.11.19-4.61V27h-.13a8.2 8.2 0 0 1-3.3 2.78 11.72 11.72 0 0 1-5.22 1.06 11.35 11.35 0 0 1-5.12-1.06 9 9 0 0 1-3.42-2.94 12.94 12.94 0 0 1-1.92-4.48 24.77 24.77 0 0 1-.61-5.66q0-7.87 3.49-12T40.31.5a14.14 14.14 0 0 1 7.55 1.76 11.82 11.82 0 0 1 4.32 4.67 19.56 19.56 0 0 1 2 6.75 69.21 69.21 0 0 1 .45 8q0 4.86-.29 9.38a24.74 24.74 0 0 1-1.73 8A11.78 11.78 0 0 1 48 44.5q-3.11 2-8.67 2a22.67 22.67 0 0 1-4.7-.48 9.89 9.89 0 0 1-4-1.79 9.42 9.42 0 0 1-2.78-3.52 13.24 13.24 0 0 1-1.12-5.47h8.83a7.34 7.34 0 0 0 .94 4.01zM36 22.07a4.08 4.08 0 0 0 3.84 2 4.14 4.14 0 0 0 3.9-2q1.15-2 1.15-6.59a31.25 31.25 0 0 0-.19-3.58A9.42 9.42 0 0 0 44 9a4.41 4.41 0 0 0-1.54-1.86 4.54 4.54 0 0 0-2.59-.67 4.66 4.66 0 0 0-2.66.67 4.17 4.17 0 0 0-1.5 1.89 9.77 9.77 0 0 0-.71 2.89q-.16 1.63-.16 3.55.03 4.61 1.16 6.6z"/><path class="cls-3" d="M60.85 25.65a8.4 8.4 0 0 1 5.76-3.84v-.13a8.15 8.15 0 0 1-3.1-1.41 8.36 8.36 0 0 1-3.1-4.74 11 11 0 0 1-.33-2.53q0-6.65 3.55-9.57T73.4.5q6.21 0 9.76 2.91T86.71 13a10.12 10.12 0 0 1-.35 2.56 9.09 9.09 0 0 1-1.12 2.56 8.42 8.42 0 0 1-2 2.18 8.17 8.17 0 0 1-3 1.41v.13A8.4 8.4 0 0 1 86 25.68 13.61 13.61 0 0 1 87.86 33a22 22 0 0 1-.48 4.35 10.91 10.91 0 0 1-2 4.42 11.44 11.44 0 0 1-4.38 3.4 18 18 0 0 1-7.58 1.34 18 18 0 0 1-7.58-1.34 11.43 11.43 0 0 1-4.38-3.39 10.9 10.9 0 0 1-2-4.42 22 22 0 0 1-.53-4.36 13.61 13.61 0 0 1 1.92-7.35zm7.52 10.27a7.16 7.16 0 0 0 .83 2.5 4.53 4.53 0 0 0 1.63 1.66 5.7 5.7 0 0 0 5.12 0 4.54 4.54 0 0 0 1.63-1.66 7.19 7.19 0 0 0 .83-2.5 20.95 20.95 0 0 0 0-6.11 7.16 7.16 0 0 0-.83-2.46A4.54 4.54 0 0 0 76 25.68a5.69 5.69 0 0 0-5.12 0 4.53 4.53 0 0 0-1.63 1.66 7.13 7.13 0 0 0-.83 2.46 20.95 20.95 0 0 0 0 6.11zm1.76-18.4a4.24 4.24 0 0 0 6.53 0 7.71 7.71 0 0 0 1.22-4.8q0-6.21-4.48-6.21t-4.48 6.21a7.7 7.7 0 0 0 1.21 4.8z"/><path class="cls-1" d="M103.06 39.25a3.54 3.54 0 0 0 3.23 1.44 4.61 4.61 0 0 0 2.94-.86 5.63 5.63 0 0 0 1.7-2.4 13.2 13.2 0 0 0 .8-3.65q.19-2.11.19-4.61V27h-.13a8.2 8.2 0 0 1-3.3 2.78 11.72 11.72 0 0 1-5.22 1.06 11.35 11.35 0 0 1-5.12-1.06 9 9 0 0 1-3.42-2.94 12.94 12.94 0 0 1-1.92-4.48 24.77 24.77 0 0 1-.61-5.66q0-7.87 3.49-12T106.87.5a14.14 14.14 0 0 1 7.55 1.76 11.82 11.82 0 0 1 4.32 4.67 19.56 19.56 0 0 1 2 6.75 69.21 69.21 0 0 1 .45 8q0 4.86-.29 9.38a24.74 24.74 0 0 1-1.73 8 11.78 11.78 0 0 1-4.54 5.47q-3.11 2-8.67 2a22.67 22.67 0 0 1-4.7-.48 9.89 9.89 0 0 1-4-1.79 9.42 9.42 0 0 1-2.78-3.52 13.24 13.24 0 0 1-1.12-5.47h8.83a7.34 7.34 0 0 0 .87 3.98zm-.48-17.18a4.08 4.08 0 0 0 3.84 2 4.14 4.14 0 0 0 3.9-2q1.15-2 1.15-6.59a31.25 31.25 0 0 0-.19-3.58 9.42 9.42 0 0 0-.73-2.9A4.41 4.41 0 0 0 109 7.19a4.54 4.54 0 0 0-2.59-.67 4.66 4.66 0 0 0-2.66.67 4.17 4.17 0 0 0-1.5 1.89 9.77 9.77 0 0 0-.67 2.85q-.16 1.63-.16 3.55.01 4.6 1.16 6.59zm42.88 6.02h-18v-7.55h18z"/></g></g></svg>