<svg xmlns="http://www.w3.org/2000/svg" viewBox="0 0 540.98 47.52"><defs><style>.cls-1{fill:#323232}.cls-2,.cls-4{fill:none;stroke-linecap:round;stroke-linejoin:round}.cls-2{stroke:#fff;stroke-width:1.5px}.cls-3{fill:#fff}.cls-4{stroke:#323232}</style></defs><title>tit_story_1969</title><g id="レイヤー_2" data-name="レイヤー 2"><g id="創業期"><path class="cls-1" d="M9 14.06H0V8h.83A13.21 13.21 0 0 0 8.1 6.32 8 8 0 0 0 11.46.75h6.78v45.31H9z"/><path class="cls-2" d="M36 39.5a3.54 3.54 0 0 0 3.23 1.44 4.61 4.61 0 0 0 2.94-.86 5.63 5.63 0 0 0 1.7-2.4 13.2 13.2 0 0 0 .8-3.65q.19-2.11.19-4.61v-2.17h-.13A8.2 8.2 0 0 1 41.44 30a11.72 11.72 0 0 1-5.22 1.06A11.35 11.35 0 0 1 31.1 30a9 9 0 0 1-3.42-2.94 12.94 12.94 0 0 1-1.92-4.48 24.77 24.77 0 0 1-.61-5.66q0-7.87 3.49-12T39.81.75a14.14 14.14 0 0 1 7.55 1.76 11.82 11.82 0 0 1 4.32 4.67 19.56 19.56 0 0 1 2 6.75 69.21 69.21 0 0 1 .45 8q0 4.86-.29 9.38a24.74 24.74 0 0 1-1.73 8 11.78 11.78 0 0 1-4.54 5.47q-3.11 2-8.67 2a22.67 22.67 0 0 1-4.7-.48 9.89 9.89 0 0 1-4-1.79A9.42 9.42 0 0 1 27.36 41a13.24 13.24 0 0 1-1.12-5.47h8.83A7.34 7.34 0 0 0 36 39.5zm-.48-17.18a4.08 4.08 0 0 0 3.84 2 4.14 4.14 0 0 0 3.9-2q1.15-2 1.15-6.59a31.25 31.25 0 0 0-.19-3.58 9.42 9.42 0 0 0-.74-2.85A4.41 4.41 0 0 0 42 7.44a4.54 4.54 0 0 0-2.59-.67 4.66 4.66 0 0 0-2.66.67 4.17 4.17 0 0 0-1.5 1.89 9.77 9.77 0 0 0-.67 2.85q-.16 1.63-.16 3.55-.05 4.6 1.1 6.59z"/><path class="cls-3" d="M77.79 8.17a3.58 3.58 0 0 0-3.23-1.41 4.63 4.63 0 0 0-2.91.86A5.49 5.49 0 0 0 69.92 10a13.17 13.17 0 0 0-.8 3.65q-.19 2.11-.19 4.61v2.24h.13a8 8 0 0 1 3.3-2.85 11.72 11.72 0 0 1 5.22-1.06 11.35 11.35 0 0 1 5.12 1.06 9 9 0 0 1 3.42 2.94A13 13 0 0 1 88 25.1a24.79 24.79 0 0 1 .61 5.66q0 7.87-3.49 11.94T74 46.77a14.78 14.78 0 0 1-7.55-1.66 11.15 11.15 0 0 1-4.32-4.58 19.51 19.51 0 0 1-2-6.75 68.88 68.88 0 0 1-.45-8q0-4.8.29-9.31a25.06 25.06 0 0 1 1.73-8 12.39 12.39 0 0 1 4.51-5.6Q69.31.75 74.94.75a19.08 19.08 0 0 1 4.7.58 10.74 10.74 0 0 1 4 1.92 9.72 9.72 0 0 1 2.79 3.55 13.26 13.26 0 0 1 1.12 5.47h-8.83a7.47 7.47 0 0 0-.93-4.1zm-8.22 27.4a9.38 9.38 0 0 0 .74 2.85 4.39 4.39 0 0 0 1.54 1.86 4.54 4.54 0 0 0 2.59.67 4.66 4.66 0 0 0 2.66-.67 4.17 4.17 0 0 0 1.5-1.89 9.83 9.83 0 0 0 .67-2.85q.16-1.63.16-3.55 0-4.61-1.15-6.59a4.09 4.09 0 0 0-3.84-2 4.15 4.15 0 0 0-3.9 2q-1.15 2-1.15 6.59a31.36 31.36 0 0 0 .18 3.58z"/><path class="cls-1" d="M103.84 39.5a3.54 3.54 0 0 0 3.23 1.44 4.61 4.61 0 0 0 2.94-.86 5.63 5.63 0 0 0 1.7-2.4 13.2 13.2 0 0 0 .8-3.65q.19-2.11.19-4.61v-2.17h-.13a8.2 8.2 0 0 1-3.3 2.78 11.72 11.72 0 0 1-5.22 1.06A11.35 11.35 0 0 1 98.94 30a9 9 0 0 1-3.42-2.94 12.94 12.94 0 0 1-1.92-4.48 24.77 24.77 0 0 1-.6-5.64q0-7.87 3.49-12T107.65.75a14.14 14.14 0 0 1 7.55 1.76 11.82 11.82 0 0 1 4.32 4.67 19.56 19.56 0 0 1 2 6.75 69.21 69.21 0 0 1 .45 8q0 4.86-.29 9.38a24.74 24.74 0 0 1-1.73 8 11.78 11.78 0 0 1-4.54 5.47q-3.11 2-8.67 2a22.67 22.67 0 0 1-4.7-.48 9.89 9.89 0 0 1-4-1.79A9.42 9.42 0 0 1 95.2 41a13.24 13.24 0 0 1-1.12-5.47h8.83a7.34 7.34 0 0 0 .93 3.97zm-.48-17.18a4.08 4.08 0 0 0 3.84 2 4.14 4.14 0 0 0 3.9-2q1.15-2 1.15-6.59a31.25 31.25 0 0 0-.19-3.58 9.42 9.42 0 0 0-.74-2.85 4.41 4.41 0 0 0-1.54-1.86 4.54 4.54 0 0 0-2.59-.67 4.66 4.66 0 0 0-2.66.67A4.17 4.17 0 0 0 103 9.33a9.77 9.77 0 0 0-.67 2.85q-.16 1.63-.16 3.55.04 4.6 1.19 6.59zm45.44 6.02h-18v-7.55h18zM203.63 12a41 41 0 0 1 3.65 10l-4.56 1.44a41.55 41.55 0 0 0-3.5-10zm27.66 1.14a1.17 1.17 0 0 1-1.22.57C226.16 27.48 219.89 35 208 40.47a21 21 0 0 0-3.27-3.72C216.06 32 222.06 25 225.29 11.21zm-15.65-3.12a64.88 64.88 0 0 1 1.71 10.6l-4.86.68a61.33 61.33 0 0 0-1.67-10.64z"/><path class="cls-3" d="M269.48 25.27H257.1c-.8 6.69-3.46 12-10.45 16a33.87 33.87 0 0 0-4-3.12c6.27-3.38 8.85-7.26 9.54-12.88h-14.24v-4.41h14.67c.08-2 .08-3.8.08-6-3.34.61-7.67 1.25-11.55 1.6a24.53 24.53 0 0 0-1.29-3.76c9.23-.91 18.77-3 23.14-4.83l3.31 3.69c-.23.19-.49.19-1.1.19a73.91 73.91 0 0 1-8.25 2.24l1.67.11c-.08.42-.34.76-1 .91 0 2.17 0 4.07-.11 5.89h12z"/><path class="cls-1" d="M308.51 15.89a1.18 1.18 0 0 1-.72.53A38.27 38.27 0 0 1 299 30.1a23 23 0 0 0-4-2.77 27 27 0 0 0 6.16-8.55l-10.45 2 3.8 19.38-4.94.84-3.72-19.22-9.65 1.86-.91-4.52 9.71-1.87-1.82-9.31 6.27-.49c0 .53-.42.84-1 1.06l1.41 7.83L304 13.65l.49-.27zm23.96-6.79a1.1 1.1 0 0 1-1 .5c-.36 1-.79 2.09-1.3 3.17h12V42h-4.61v-1.8h-16.47V42h-4.36V12.77h8.67A43.46 43.46 0 0 0 326.6 8zm5.07 7.9h-16.45v3.67h16.45zm0 7.67h-16.45v3.74h16.45zm-16.45 11.5h16.45v-3.78h-16.45zm60.12-19.59l2.23.14c0 .32 0 .86-.07 1.33-.32 15-.61 20.23-1.73 21.81-1.26 1.83-2.56 2-6.87 1.91a11 11 0 0 0-1.15-4 30.21 30.21 0 0 0 3.24.14 1.23 1.23 0 0 0 1.15-.61c.72-1 1-5.18 1.26-16.67h-3.2c0 7.05-1 15.91-7.27 21.49a20 20 0 0 0-3.24-2.74l.07-.07c-5.18.65-10.33 1.19-13.82 1.55a.69.69 0 0 1-.58.54L350 37.25c2-.11 4.54-.29 7.38-.5v-2.2H351v-3.1h6.37V30h-6V18.85h6v-1.4h-7.16v-3.13h7.16v-1.4c-2 .18-4 .29-5.94.36a11.85 11.85 0 0 0-1-3c5.26-.29 11.34-.94 14.9-1.94l2.81 3.06a.81.81 0 0 1-.47.11 1.38 1.38 0 0 1-.36 0 43.36 43.36 0 0 1-5.4 1 1.38 1.38 0 0 1-.65.22v1.69h7.24v3.13h-7.24v1.4h6.37V30h-6.37v1.4h6.59v3.1h-6.59v1.87c2.2-.18 4.43-.4 6.62-.58v.94c3.53-4.86 4.07-11.2 4.1-16.16h-3.2v-4H372V8.38l5 .29c0 .36-.29.54-.94.68v7.27h4.25zm-26.38 5v1.51h2.52v-1.47zm0 5.65h2.52v-1.5h-2.52zm9.17-5.61h-2.7v1.51h2.7zm0 5.65v-1.54h-2.7v1.55z"/><path class="cls-4" d="M422.47 33.25v3.92H408V42h-4.5v-4.83h-14.08v-3.92h14.08v-1.91h-10.44V16.73h10.44V15h-13.21v-4h13.21V8l5.47.32c0 .36-.32.58-1 .68v2h13.46v4H408v1.76h10.76v14.58H408v1.91zM397.2 20.18v2.2h6.3v-2.2zm0 7.7h6.3v-2.26h-6.3zm17.13-7.7H408v2.2h6.37zm0 7.7v-2.26H408v2.27z"/><path class="cls-1" d="M431.08 31a74.92 74.92 0 0 1 7.78 7.67L435.14 42a85.16 85.16 0 0 0-7.42-8.1zm37.58-13h-8.42v-1.34a32 32 0 0 1-3.06 2.7h14.29v11.3h-11.7l-.22 1.34h12.6v9.79h-3.78v-1h-6.12V42h-3.63v-6.19a17.33 17.33 0 0 1-2.81 5.51 15 15 0 0 0-2.88-2.59c3.2-4.18 3.56-10 3.56-14.11v-4.76c-.43.32-.9.65-1.37 1a12.48 12.48 0 0 0-2.3-3.28A26.11 26.11 0 0 0 462 8.09l4.75.86a.87.87 0 0 1-.9.58v.07a51.41 51.41 0 0 1 7.49 5.25L471 18.1a23 23 0 0 0-2.3-2zm-8.53 8.24c0 .47 0 .94-.07 1.4h7.56v-1.4zm7.49-3.92h-7.45v1.33h7.45zm-.25-7.24c-1.15-.86-2.41-1.73-3.6-2.48-.61.83-1.3 1.66-2 2.48zm1 20h-6.12v2.59h6.12zm10.33-22.31c0 .36-.29.54-.94.68v19.48h-4.06V12.48zm2.92-4l5.15.22c-.07.36-.29.61-.94.72v27.1c0 4.14-1.37 5.15-8.67 5.15a17.78 17.78 0 0 0-1.4-4.39c2.16.07 4.28.07 5 .07s.9-.22.9-.86zm43.59 24.98h-10.47a33 33 0 0 0 11.48 4 18.18 18.18 0 0 0-2.92 3.92 31 31 0 0 1-12.2-6.12V42h-4.28v-6.3a35.38 35.38 0 0 1-12.17 5.87 20.43 20.43 0 0 0-2.77-3.6 37.57 37.57 0 0 0 11.48-4.25H493v-3.53h13.86v-1.62h-10.52v-3.13h10.47v-1.62h-12.27v-3.38h6.91a16.53 16.53 0 0 0-1.22-2.84l.43-.07h-7.59V14h4.86a29.27 29.27 0 0 0-2.27-4.5l3.71-1.26a25.77 25.77 0 0 1 2.77 5.11l-1.76.65h3.31V8.05l5 .25c0 .36-.32.61-.94.68v5h2.66V8.05l5.08.25c0 .4-.36.61-1 .72v5h3.06l-1.26-.47a29.31 29.31 0 0 0 2.41-5.18l4.86 1.51c-.11.29-.43.43-.94.4-.61 1.12-1.48 2.56-2.3 3.74h4.79v3.53h-6.59l.32.11a.89.89 0 0 1-.94.36 25.88 25.88 0 0 1-1.4 2.45h7.2v3.38h-12.6v1.62H522v3.13h-10.9v1.62h14.11zm-13.14-13.31c.4-.83.9-1.91 1.33-2.92h-8.6a19.59 19.59 0 0 1 1.2 2.81l-.61.11zM541 37a5 5 0 1 1-5-5 5.05 5.05 0 0 1 5 5zm-1.62 0a3.4 3.4 0 1 0-3.42 3.38 3.4 3.4 0 0 0 3.4-3.38z"/></g></g></svg>