<svg xmlns="http://www.w3.org/2000/svg" viewBox="0 0 546.12 47.52"><defs><style>.cls-1{fill:#323232}.cls-2{fill:#fff}.cls-3,.cls-4{fill:none;stroke-linecap:round;stroke-linejoin:round}.cls-3{stroke:#fff;stroke-width:1.5px}.cls-4{stroke:#323232}</style></defs><title>tit_story_1970</title><g id="レイヤー_2" data-name="レイヤー 2"><g id="成長期"><path class="cls-1" d="M9 14.06H0V8h.83A13.21 13.21 0 0 0 8.1 6.32 8 8 0 0 0 11.46.75h6.78v45.31H9z"/><path class="cls-2" d="M36 39.5a3.54 3.54 0 0 0 3.23 1.44 4.61 4.61 0 0 0 2.94-.86 5.63 5.63 0 0 0 1.7-2.4 13.2 13.2 0 0 0 .8-3.65q.19-2.11.19-4.61v-2.17h-.13A8.2 8.2 0 0 1 41.44 30a11.72 11.72 0 0 1-5.22 1.06A11.35 11.35 0 0 1 31.1 30a9 9 0 0 1-3.42-2.94 12.94 12.94 0 0 1-1.92-4.48 24.77 24.77 0 0 1-.61-5.66q0-7.87 3.49-12T39.81.75a14.14 14.14 0 0 1 7.55 1.76 11.82 11.82 0 0 1 4.32 4.67 19.56 19.56 0 0 1 2 6.75 69.21 69.21 0 0 1 .45 8q0 4.86-.29 9.38a24.74 24.74 0 0 1-1.73 8 11.78 11.78 0 0 1-4.54 5.47q-3.11 2-8.67 2a22.67 22.67 0 0 1-4.7-.48 9.89 9.89 0 0 1-4-1.79A9.42 9.42 0 0 1 27.36 41a13.24 13.24 0 0 1-1.12-5.47h8.83A7.34 7.34 0 0 0 36 39.5zm-.48-17.18a4.08 4.08 0 0 0 3.84 2 4.14 4.14 0 0 0 3.9-2q1.15-2 1.15-6.59a31.25 31.25 0 0 0-.19-3.58 9.42 9.42 0 0 0-.74-2.85A4.41 4.41 0 0 0 42 7.44a4.54 4.54 0 0 0-2.59-.67 4.66 4.66 0 0 0-2.66.67 4.17 4.17 0 0 0-1.5 1.89 9.77 9.77 0 0 0-.67 2.85q-.16 1.63-.16 3.55-.05 4.6 1.1 6.59z"/><path class="cls-1" d="M88.13 8.69a59.91 59.91 0 0 0-5 8.51 85.89 85.89 0 0 0-6.62 19.1q-1.09 5-1.66 9.76h-9.7q.51-4.1 1.54-8.61a76.54 76.54 0 0 1 2.72-9.18 81.39 81.39 0 0 1 4.13-9.41 69.23 69.23 0 0 1 5.76-9.28H60.22V1.65h27.9z"/><path class="cls-3" d="M92.29 15.85A24.51 24.51 0 0 1 94 8.14a12.21 12.21 0 0 1 4.26-5.38q2.85-2 7.9-2a17.33 17.33 0 0 1 6.88 1.18 9.52 9.52 0 0 1 4.35 3.81 18.39 18.39 0 0 1 2.3 6.82 65.79 65.79 0 0 1 .67 10.21q0 4.74-.32 9.09a24.56 24.56 0 0 1-1.73 7.71 11.61 11.61 0 0 1-4.26 5.28q-2.85 1.92-7.9 1.92a18.74 18.74 0 0 1-6.85-1.09A8.93 8.93 0 0 1 94.94 42a18.39 18.39 0 0 1-2.3-6.82A65.77 65.77 0 0 1 92 24.94q0-4.73.29-9.09zm9.12 18.08a16.87 16.87 0 0 0 .8 4.29 4 4 0 0 0 1.54 2.14 4.65 4.65 0 0 0 2.43.58 4 4 0 0 0 2.5-.74 4.84 4.84 0 0 0 1.5-2.5 22.24 22.24 0 0 0 .77-4.7q.22-2.94.22-7.3v-4.92q0-4.29-.22-7a16.94 16.94 0 0 0-.8-4.29 4 4 0 0 0-1.54-2.14 4.67 4.67 0 0 0-2.43-.58 4 4 0 0 0-2.5.74 4.85 4.85 0 0 0-1.5 2.5 22.2 22.2 0 0 0-.77 4.7q-.22 2.94-.22 7.3v4.93q-.01 4.27.22 6.99z"/><path class="cls-1" d="M145 28.34h-18v-7.55h18zm62.61 5.14h-11.06a34.89 34.89 0 0 0 12.12 4.18 19.23 19.23 0 0 0-3.08 4.14 32.71 32.71 0 0 1-12.88-6.46v6.88h-4.51v-6.65a37.31 37.31 0 0 1-12.84 6.19 21.63 21.63 0 0 0-2.93-3.8 39.67 39.67 0 0 0 12.12-4.48h-11v-3.76h14.65V28h-11.06v-3.3h11.06V23h-13v-3.58h7.29a17.4 17.4 0 0 0-1.29-3l.46-.08h-8v-3.72h5.13a31 31 0 0 0-2.39-4.75l3.91-1.33a27.23 27.23 0 0 1 2.93 5.4l-1.86.68h3.5V6.35l5.24.27c0 .38-.34.65-1 .72v5.28H192V6.35l5.36.27c0 .42-.38.65-1 .76v5.24h3.23l-1.33-.49a31 31 0 0 0 2.55-5.47l5.13 1.6c-.11.3-.46.46-1 .42-.65 1.18-1.56 2.7-2.43 4h5.05v3.72h-7l.34.11a.94.94 0 0 1-1 .38 27.46 27.46 0 0 1-1.48 2.58H206V23h-13.3v1.7h11.51V28h-11.49v1.71h14.89zm-13.87-14.06c.42-.87 1-2 1.41-3.08h-9.08a20.65 20.65 0 0 1 1.29 3l-.65.11z"/><path class="cls-2" d="M245.46 24.13h-6.12a24.51 24.51 0 0 0 10.26 5.66 18.48 18.48 0 0 0-3 3.84 25.06 25.06 0 0 1-7.26-4v12.62h-4.52V27.89l2.7.15a24.92 24.92 0 0 1-3.34-3.91h-5a28.83 28.83 0 0 1-3.38 3.8l3.65.19c0 .38-.3.61-1 .72v1.75c0 3.87-1 9-8.62 12a15.25 15.25 0 0 0-3-3.5C224 36.52 224 32.6 224 29.41a29.62 29.62 0 0 1-7.52 4.29 20.79 20.79 0 0 0-3-3.65 26.74 26.74 0 0 0 10.22-5.93H218V7.64h27.47zm-23-12.8v2.81h6.8v-2.81zm0 6.23v2.89h6.8v-2.89zm18.39-3.42v-2.81h-7.14v2.81zm0 6.31v-2.89h-7.14v2.89z"/><path class="cls-1" d="M256.29 8H289v34.18h-4.75v-1.6h-23.44v1.6h-4.52zm4.52 28.19h23.44v-23.8h-23.44zm22.27-18.59v3.88h-4.41v9.46c0 3.5-1.18 4.41-7.83 4.33a14.93 14.93 0 0 0-1.22-3.84c1.67.08 3.57.08 4.1.08s.72-.15.72-.65v-9.39h-12.2V17.6h12.2v-4.26l5.17.19c0 .38-.27.61-1 .72v3.35zm-15 12.88a23.17 23.17 0 0 0-4-6.42l3.15-1.75a24.77 24.77 0 0 1 4.26 6.27z"/><path class="cls-4" d="M331.19 18.93H323c2.17 5.32 5.62 10.56 9.27 13.64a17.63 17.63 0 0 0-3.34 3.57 26.49 26.49 0 0 1-3.23-4v3.34h-5.05v6.72h-4.45v-6.67h-4.94V32a28.48 28.48 0 0 1-3.57 4.22 20.23 20.23 0 0 0-2.74-3v9h-4.41V22.73a39.19 39.19 0 0 1-3.3 4.26 38.88 38.88 0 0 0-2.17-4.6c3.34-3.53 6.72-9.8 8.74-15.88l5.05 1.75a1 1 0 0 1-1.06.46 77.25 77.25 0 0 1-3.29 7.28l1.41.38c-.08.34-.34.61-1 .65v15.35c3.57-3.12 6.88-8.25 8.93-13.45h-7.41V14.6h9.73V6.84l5.43.3c0 .34-.3.61-1 .68v6.78h10.56zm-15 3.84a50.26 50.26 0 0 1-4.52 8.66h4.52zm4.45 8.66h4.56a51.79 51.79 0 0 1-4.56-8.93z"/><path class="cls-1" d="M357.64 15.39a1.26 1.26 0 0 1-1.14.65c-1.56 13-5.36 20.52-11.89 20.52-4.14 0-7.14-3.5-7.14-10 0-9.73 7.75-16.87 17.44-16.87 10.75 0 16.26 6.38 16.26 14.63 0 8.93-4.6 13.56-14.17 16a25.43 25.43 0 0 0-3-4c8.66-1.71 12.12-5.85 12.12-11.89s-4.25-10.26-11.25-10.26a16 16 0 0 0-1.94.15zm-6-.76a12.11 12.11 0 0 0-9.46 11.78c0 3.19 1 5.43 2.62 5.43 3.68 0 6.15-8.32 6.8-17.21zm25.99 21.51h34.73v4.6h-34.73zm33.63-23.06v4.48h-32.38v-4.48h13.6V6.39l5.85.3c0 .38-.34.61-1.06.76v5.62zM388 18.93a65.41 65.41 0 0 1 3 14.78c-.11 0-.19 0-4.75 1.18a63.84 63.84 0 0 0-2.7-14.82zm19.76 1.22a1.38 1.38 0 0 1-1.22.65 92.41 92.41 0 0 1-4.71 14.78l-4.25-1.25a88.9 88.9 0 0 0 4-15.58zm38.07-4.3a86.53 86.53 0 0 1-15 2 36.76 36.76 0 0 1-1.41 7.29 18.22 18.22 0 0 1 9.46-3.14c5.24 0 9.12 2.66 9.12 8.47 0 7.83-7.26 10.64-20.25 10.9a24.07 24.07 0 0 0-1.41-4.33c10.75-.27 16.76-2 16.76-6.46 0-2.74-1.67-4.29-5.05-4.29-3 0-7.94 1.67-10.37 5.39l-4.63-2c1.14-1.25 2.54-6 3-11.78h-8.17v-4.6c1.75.08 5.81.08 8.55.08.15-2 .19-4.29.15-6.42l6.16.53c-.11.65-.57.84-1.14.91-.08 1.63-.19 3.38-.3 4.86a71.74 71.74 0 0 0 13.75-2.2zm27.86 19.87H490v4.6h-35v-4.6h13.75V6.84l6 .34c0 .38-.34.65-1.1.76v9.88h13.56v4.63h-13.52zm24.93 2.89a46.51 46.51 0 0 1-1.75-13.34 102.13 102.13 0 0 1 1.63-16.34l6 .8c0 .38-.53.68-1 .76a80.11 80.11 0 0 0-2 14.63c0 1.63 0 3.42.19 5 .65-1.41 2-4.07 2.93-5.81l2.77 3.53c-1.41 2-4.22 6.46-4.22 8.66a6.06 6.06 0 0 0 .15 1.37zm26.75-23.29a22.88 22.88 0 0 0-3.69-4.71c0 1.86.15 4.26.23 6.54a42 42 0 0 0 6.5-1.1l.38 4.71a61 61 0 0 1-6.73.87v2.55c0 7.9-2 13.56-9 17.48a25.6 25.6 0 0 0-3.84-3.31c6.69-3.42 8.09-7.79 8.09-13.72 0-.38-.08-2.36-.08-2.81-2.32.19-6 .27-9 .27l-.08-4.41c2.09 0 6.54-.08 9-.27-.23-4.41-.49-8.89-.68-10l6.31.19a1.37 1.37 0 0 1-1.14 1.06v1.82L523.77 9a19.91 19.91 0 0 1 4 4.83zm4.1-2.93a21.08 21.08 0 0 0-3.8-4.83L527.76 6a21 21 0 0 1 4 4.79zm16.65 24.51a5.32 5.32 0 1 1-5.32-5.32 5.33 5.33 0 0 1 5.32 5.32zm-1.71 0a3.59 3.59 0 1 0-3.61 3.57 3.58 3.58 0 0 0 3.61-3.57z"/></g></g></svg>