<svg xmlns="http://www.w3.org/2000/svg" viewBox="0 0 615.72 47.52"><defs><style>.cls-1{fill:#fff}.cls-2{fill:#323232}.cls-3,.cls-4{fill:none;stroke-linecap:round;stroke-linejoin:round}.cls-3{stroke:#fff;stroke-width:1.5px}.cls-4{stroke:#323232}</style></defs><title>tit_story_1962</title><g id="レイヤー_2" data-name="レイヤー 2"><g id="創業期"><path class="cls-1" d="M9 14.06H0V8h.83A13.21 13.21 0 0 0 8.1 6.32 8 8 0 0 0 11.46.75h6.78v45.31H9z"/><path class="cls-2" d="M36 39.5a3.54 3.54 0 0 0 3.23 1.44 4.61 4.61 0 0 0 2.94-.86 5.63 5.63 0 0 0 1.7-2.4 13.2 13.2 0 0 0 .8-3.65q.19-2.11.19-4.61v-2.17h-.13A8.2 8.2 0 0 1 41.44 30a11.72 11.72 0 0 1-5.22 1.06A11.35 11.35 0 0 1 31.1 30a9 9 0 0 1-3.42-2.94 12.94 12.94 0 0 1-1.92-4.48 24.77 24.77 0 0 1-.61-5.66q0-7.87 3.49-12T39.81.75a14.14 14.14 0 0 1 7.55 1.76 11.82 11.82 0 0 1 4.32 4.67 19.56 19.56 0 0 1 2 6.75 69.21 69.21 0 0 1 .45 8q0 4.86-.29 9.38a24.74 24.74 0 0 1-1.73 8 11.78 11.78 0 0 1-4.54 5.47q-3.11 2-8.67 2a22.67 22.67 0 0 1-4.7-.48 9.89 9.89 0 0 1-4-1.79A9.42 9.42 0 0 1 27.36 41a13.24 13.24 0 0 1-1.12-5.47h8.83A7.34 7.34 0 0 0 36 39.5zm-.48-17.18a4.08 4.08 0 0 0 3.84 2 4.14 4.14 0 0 0 3.9-2q1.15-2 1.15-6.59a31.25 31.25 0 0 0-.19-3.58 9.42 9.42 0 0 0-.74-2.85A4.41 4.41 0 0 0 42 7.44a4.54 4.54 0 0 0-2.59-.67 4.66 4.66 0 0 0-2.66.67 4.17 4.17 0 0 0-1.5 1.89 9.77 9.77 0 0 0-.67 2.85q-.16 1.63-.16 3.55-.05 4.6 1.1 6.59z"/><path class="cls-3" d="M77.79 8.17a3.58 3.58 0 0 0-3.23-1.41 4.63 4.63 0 0 0-2.91.86A5.49 5.49 0 0 0 69.92 10a13.17 13.17 0 0 0-.8 3.65q-.19 2.11-.19 4.61v2.24h.13a8 8 0 0 1 3.3-2.85 11.72 11.72 0 0 1 5.22-1.06 11.35 11.35 0 0 1 5.12 1.06 9 9 0 0 1 3.42 2.94A13 13 0 0 1 88 25.1a24.79 24.79 0 0 1 .61 5.66q0 7.87-3.49 11.94T74 46.77a14.78 14.78 0 0 1-7.55-1.66 11.15 11.15 0 0 1-4.32-4.58 19.51 19.51 0 0 1-2-6.75 68.88 68.88 0 0 1-.45-8q0-4.8.29-9.31a25.06 25.06 0 0 1 1.73-8 12.39 12.39 0 0 1 4.51-5.6Q69.31.75 74.94.75a19.08 19.08 0 0 1 4.7.58 10.74 10.74 0 0 1 4 1.92 9.72 9.72 0 0 1 2.79 3.55 13.26 13.26 0 0 1 1.12 5.47h-8.83a7.47 7.47 0 0 0-.93-4.1zm-8.22 27.4a9.38 9.38 0 0 0 .74 2.85 4.39 4.39 0 0 0 1.54 1.86 4.54 4.54 0 0 0 2.59.67 4.66 4.66 0 0 0 2.66-.67 4.17 4.17 0 0 0 1.5-1.89 9.83 9.83 0 0 0 .67-2.85q.16-1.63.16-3.55 0-4.61-1.15-6.59a4.09 4.09 0 0 0-3.84-2 4.15 4.15 0 0 0-3.9 2q-1.15 2-1.15 6.59a31.36 31.36 0 0 0 .18 3.58z"/><path class="cls-2" d="M93.25 46.06a24.89 24.89 0 0 1 .61-5.63 20.68 20.68 0 0 1 1.86-5 26.92 26.92 0 0 1 3.14-4.64 48.07 48.07 0 0 1 4.38-4.58l3.71-3.46a20.66 20.66 0 0 0 2.46-2.5 10.52 10.52 0 0 0 1.44-2.3 8.65 8.65 0 0 0 .67-2.5 26.41 26.41 0 0 0 .16-3.07q0-5.63-4.48-5.63a4.63 4.63 0 0 0-2.72.7 4.59 4.59 0 0 0-1.54 1.92 9.05 9.05 0 0 0-.7 2.82q-.16 1.6-.16 3.39h-8.83v-1.71q0-6.34 3.39-9.73T107.33.75q6.91 0 10.24 3.2t3.33 9.15a20.38 20.38 0 0 1-.38 4.06 15.37 15.37 0 0 1-1.22 3.62 16.69 16.69 0 0 1-2.18 3.36 31.67 31.67 0 0 1-3.26 3.36l-5.12 4.74a19.2 19.2 0 0 0-3.2 3.62 10.5 10.5 0 0 0-1.47 3h17.09v7.17zm54.27-17.72h-18v-7.55h18zm51.14 6.85V7.95h12v1.47h-10.49v25.77zm35.79-20.84h12.92v18.14h-4.54v-1.83h-8.39V42h-4.54V30.66h-8.06v2h-4.36V14.35h12.42v-6.3l5.54.32c0 .36-.29.58-1 .68zm-12.6 12.06h8.06V18.6h-8.06zm12.6 0h8.39V18.6h-8.39z"/><path class="cls-4" d="M287.79 18.46H273.5V25H284v16.85h-4.46v-1.51h-16.15V42h-4.25V25H269v-6.54h-14.21v-4.21H269v-6.2l5.58.29c0 .36-.32.58-1 .72v5.18h14.29zm-8.28 17.78v-7.16h-16.12v7.16z"/><path class="cls-2" d="M326.75 33.25v3.92h-14.51V42h-4.46v-4.83H293.7v-3.92h14.07v-1.91h-10.43V16.73h10.44V15h-13.21v-4h13.21V8l5.47.32c0 .36-.32.58-1 .68v2h13.45v4h-13.46v1.76H323v14.58h-10.76v1.91zm-25.27-13.07v2.2h6.3v-2.2zm0 7.7h6.3v-2.26h-6.3zm17.13-7.7h-6.37v2.2h6.37zm0 7.7v-2.26h-6.37v2.27zM362.5 19l2.38.61a1.2 1.2 0 0 1-.29.65c-.61 5.8-2 10.4-4.14 14a17.4 17.4 0 0 0 6 4.25 14.57 14.57 0 0 0-2.84 3.49 19 19 0 0 1-5.61-4.32 20.73 20.73 0 0 1-5.83 4.39 14.65 14.65 0 0 0-2.34-3.46 17.82 17.82 0 0 1-1.83 3.5 14.35 14.35 0 0 0-3.46-2.27 14.91 14.91 0 0 0 1.08-1.8l-2.92 1.4a27 27 0 0 0-2.7-4.93.91.91 0 0 1-.83.29 22.28 22.28 0 0 1-4.32 7.27 25.26 25.26 0 0 0-3.13-2.2 16.8 16.8 0 0 0 3.82-6.77l4.5 1.3 3.24-1.4a27.56 27.56 0 0 1 2.72 4.25c1.84-4.25 2-9.62 2-13.9V9.53h17.6v3.92H352v5.65h9.79zm-17-9.5v23.32h-11.69V9.49zm-4 6.73v-3.32h-3.89v3.31zm0 6.59v-3.39h-3.89v3.38zm0 6.55V26h-3.89v3.38zm10.4-3.17a39.47 39.47 0 0 1-2.05 12.24 15.35 15.35 0 0 0 5.51-4.25 33.63 33.63 0 0 1-3.42-8zm3-2.66a27.54 27.54 0 0 0 2.84 7.09 28 28 0 0 0 2.48-7.74H352v1.3zm31.28 4.78c-.07.36-.4.61-.94.65-.94 6-2.34 10.55-11.84 13.07a12.4 12.4 0 0 0-2.4-3.71c8.42-1.87 9.39-5.22 9.9-10.51zm-.68-10.87v-2.2h-13.71v-4h13.71v-3.2l5.47.29c0 .36-.32.58-1 .72v2.23h14.15v4H390v2.2h10.62v3.78h-25.23v-3.82zm18 13.39h-4.36v-3.92h-22.57v3.92h-4.17v-7.78h31.06zm-9.29 5.58c0 1.15.22 1.3 1.51 1.3h3.64c1.22 0 1.44-.61 1.58-4.32a12.13 12.13 0 0 0 3.85 1.6c-.47 5.22-1.62 6.59-5 6.59h-4.68c-4.21 0-5.26-1.26-5.26-5.15v-8.6l5.29.29c0 .36-.29.58-.94.72zm27.87-21.96v27.21h-11.92V40.2h10.44V14.46zm38.34 7.96a1.22 1.22 0 0 1-.36 0 1.57 1.57 0 0 1-.83-.22c-10.83 2.92-18.9 6.8-18.86 10.66 0 2.7 2.84 3.78 7.81 3.78a85.46 85.46 0 0 0 12.78-1l.43 4.61c-4.14.54-11.05.68-13.1.68-7.06 0-12.6-1.73-12.6-7.92 0-3.78 3.38-6.95 8.71-9.83-1.33-2.59-1.73-6.59-1.69-14.36l6.41.5c0 .54-.4.83-1.19.94v2.92a26.14 26.14 0 0 0 .83 8c3.06-1.37 6.52-2.66 10.19-3.92zm26.24-5.8a1.19 1.19 0 0 1-1.08.61c-1.48 12.31-5.08 19.44-11.27 19.44-3.92 0-6.77-3.31-6.77-9.43 0-9.21 7.34-16 16.52-16 10.19 0 15.41 6 15.41 13.86 0 8.46-4.36 12.85-13.43 15.15a24.14 24.14 0 0 0-2.88-3.82c8.21-1.62 11.48-5.54 11.48-11.27s-4-9.72-10.65-9.72a15.29 15.29 0 0 0-1.84.14zm-5.72-.72a11.47 11.47 0 0 0-9 11.16c0 3 .9 5.15 2.48 5.15 3.58 0 5.91-7.89 6.52-16.31z"/><path class="cls-1" d="M532.13 26.63l5.47.32c0 .32-.29.58-1 .68V42h-4.5v-2.09H512v2.16h-4.39V26.63l5.4.29c0 .36-.32.61-1 .68v8.06h7.59v-11H509V11.47l5.33.32c0 .36-.32.58-1 .68v8h6.23v-12l5.47.29c0 .36-.32.58-1 .72v11h6.59v-9l5.54.29c0 .36-.29.58-1 .72v12.2H524v11h8.1z"/><path class="cls-2" d="M552.44 23v-2.71a44.11 44.11 0 0 1-6.19 3.6 16.34 16.34 0 0 0-2.52-3.53c6.26-2.77 12.17-8 14.83-12.31l5.83.29a1.07 1.07 0 0 1-.94.72c3.35 4.5 9.39 8.57 14.87 10.55a19.19 19.19 0 0 0-2.81 4 44.69 44.69 0 0 1-6.16-3.61v3zM546 30v-4h30v4h-16.87l1.08.36q-.22.43-1.08.43a60.89 60.89 0 0 1-2.88 5.72c3.56-.07 7.45-.18 11.34-.29a49.46 49.46 0 0 0-3.78-3.92l3.82-2a47 47 0 0 1 8.32 9.32l-4 2.45a26.42 26.42 0 0 0-1.55-2.38c-8.14.5-16.49.94-22 1.19a.77.77 0 0 1-.68.58l-1.51-4.75c1.51 0 3.31 0 5.33-.11a60.28 60.28 0 0 0 2.84-6.6zm21.88-11a34.07 34.07 0 0 1-7-6.73 32.7 32.7 0 0 1-6.7 6.73zm22.97-5.87a1.07 1.07 0 0 1-.94.61 56.36 56.36 0 0 0-.94 9.9c0 7.92 2.3 10.76 4.32 10.76 1.22 0 2.74-3.6 3.53-6.59a23.52 23.52 0 0 0 3.67 2.88c-1.73 5.9-4.07 8.64-7.38 8.64-5.58 0-8.31-6.95-8.67-12.81-.07-1.3-.14-2.7-.14-4.18a84.17 84.17 0 0 1 .64-10.34zM611 30.51c-1.08-6.48-4.07-10.33-8.5-13l2.84-3.38a20 20 0 0 1 10.4 14.76z"/></g></g></svg>