<svg xmlns="http://www.w3.org/2000/svg" width="150.869" height="28.319" viewBox="0 0 150.869 28.319"><defs><style>.cls-1{fill:#abcd03}</style></defs><title>tit_detail</title><g id="レイヤー_2" data-name="レイヤー 2"><path class="cls-1" d="M19.71 14.1L0 28.319V.03zm13.44-8.789a13.309 13.309 0 0 0 2.4.149h6.03a15.8 15.8 0 0 0 2.4-.12V8.4a19.091 19.091 0 0 0-2.28-.09h-6.149a17.959 17.959 0 0 0-2.4.12zm.78 22.769a22.267 22.267 0 0 0 .18-2.91V20.7a15 15 0 0 0-.149-2.37 18.384 18.384 0 0 0 2.31.12h5.16a11.233 11.233 0 0 0 2.04-.09 18.812 18.812 0 0 0-.091 2.16v4.83a18.767 18.767 0 0 0 .12 2.34h-2.97v-1.021h-3.45v1.41zm.18-27a14.473 14.473 0 0 0 2.521.15h4.229a14.454 14.454 0 0 0 2.52-.15v3a19.338 19.338 0 0 0-2.52-.12h-4.229a19.654 19.654 0 0 0-2.521.12zm.12 8.88a16.974 16.974 0 0 0 1.98.09h5.28a11.164 11.164 0 0 0 1.92-.09v2.729a11.916 11.916 0 0 0-1.92-.09h-5.279a12.539 12.539 0 0 0-1.98.09zm0 4.17a16.974 16.974 0 0 0 1.98.09h5.28a11.164 11.164 0 0 0 1.92-.09v2.729a17.319 17.319 0 0 0-1.979-.09h-5.25a12.131 12.131 0 0 0-1.95.09zm2.76 9.9h3.54v-3h-3.54zM52.77 6.12A31.444 31.444 0 0 0 55.38.271l3.24 1.17A52.254 52.254 0 0 1 56.1 6.12h1.32a15.487 15.487 0 0 0 2.7-.15v3.24a18.264 18.264 0 0 0-2.97-.15h-3.57v3h2.94a16.442 16.442 0 0 0 2.851-.149v3.119a16.8 16.8 0 0 0-2.82-.149H53.58v3.359h3.9a24.4 24.4 0 0 0 3.12-.149v3.3a22.354 22.354 0 0 0-3.06-.181h-3.96v3.15a31.986 31.986 0 0 0 .18 3.6h-3.63a30.337 30.337 0 0 0 .18-3.569v-3.182h-2.789a22.205 22.205 0 0 0-3.12.15V18.09a22.172 22.172 0 0 0 3.149.149h2.76V14.88h-2.28a16.237 16.237 0 0 0-2.73.149V11.91a16.8 16.8 0 0 0 2.73.149h2.28v-3h-2.82a17.7 17.7 0 0 0-2.88.15V5.97a14.391 14.391 0 0 0 2.58.15zM48 6.06a21.484 21.484 0 0 0-2.25-4.47L48.51.3a23.362 23.362 0 0 1 2.37 4.44zm18.6 11.37a41.2 41.2 0 0 1-1.02 9l-2.73-1.141a18.091 18.091 0 0 0 .87-4.229 24.416 24.416 0 0 0 .24-3.33v-.6zm-3.66-4.47a9.637 9.637 0 0 0 1.351.09h1.05c.779-1.02.9-1.2 1.59-2.16a38.98 38.98 0 0 0-3.96-4.5l1.56-2.64 1.051 1.17A19.029 19.029 0 0 0 67.771.061l2.939 1.08c-.27.449-.359.659-.869 1.649-.811 1.53-1.59 2.91-2.431 4.2.57.689.57.689 1.17 1.439a25.827 25.827 0 0 0 2.73-4.89l2.82 1.441a16.8 16.8 0 0 0-1.2 1.739c-1.141 1.74-3.12 4.561-4.38 6.18 1.59-.09 1.59-.09 3.359-.239-.24-.66-.39-1.051-.84-2.13l2.31-.99a37.93 37.93 0 0 1 1.71 4.8V5.1c0-1.439-.06-2.489-.119-3.479 1.02.09 1.829.12 3.479.12h7.619a33.576 33.576 0 0 0 3.69-.12c-.09 1.021-.12 2.01-.12 3.78v18.628a23.716 23.716 0 0 0 .18 3.72H86.49v-1.68h-8.43v1.71h-3.15a30.343 30.343 0 0 0 .18-3.57V15.6l-2.189.93a12.451 12.451 0 0 0-.24-1.29c-1.05.12-1.38.181-2.16.24v9.359a17.474 17.474 0 0 0 .181 3.15H67.41a22.436 22.436 0 0 0 .181-3.18v-9.12c-1.53.09-1.92.12-2.79.15a7.925 7.925 0 0 0-1.53.18zm10.5 4.05a42.72 42.72 0 0 1 1.02 7.17l-2.43.659a46.19 46.19 0 0 0-.87-7.26zm4.529-4.83h2.851V4.71h-2.85zm0 10.979h2.851V15.12h-2.85zM83.7 12.21h2.88V4.74H83.7zm0 10.949h2.88v-8.01H83.7zm13.2-5.43a32.329 32.329 0 0 1-1.29 8.79l-2.7-1.261c.81-2.159 1.14-4.05 1.289-8.009zm-3.93-4.8c.81.061 1.2.09 1.979.09h.57c.75-.989.87-1.17 1.41-1.92a35.107 35.107 0 0 0-3.96-4.409l1.65-2.49.9.96A18.934 18.934 0 0 0 97.891 0l2.97 1.17a5.755 5.755 0 0 0-.63 1.11A38.246 38.246 0 0 1 97.41 7.2c.511.569.63.72 1.17 1.38a28.37 28.37 0 0 0 2.761-4.98l2.729 1.53c-.39.54-.57.78-1.05 1.561-1.83 2.85-3 4.56-4.32 6.27 1.471-.09 2.04-.12 3.3-.24a15.825 15.825 0 0 0-.869-2.189l2.22-.9a31.12 31.12 0 0 1 2.159 6.06l-2.369.96c-.15-.63-.21-.87-.33-1.29-.931.09-.931.09-2.1.181v9.3a18.075 18.075 0 0 0 .181 3.15h-3.33a18.669 18.669 0 0 0 .18-3.18v-9.03l-4.439.3zm10.89 4.17a54.659 54.659 0 0 1 .99 7.26l-2.55.479a42.372 42.372 0 0 0-.78-7.2zm4.08-9.93a23.738 23.738 0 0 0-3.271.18V4.11a23.762 23.762 0 0 0 3.3.18h2.761V2.7a13.256 13.256 0 0 0-.18-2.28h3.51a13.249 13.249 0 0 0-.18 2.34v1.53h3.42a24.249 24.249 0 0 0 3.33-.18v3.24a26.318 26.318 0 0 0-3.33-.18h-3.42v3.45h2.76a31.4 31.4 0 0 0 3.24-.15v3.24a25.1 25.1 0 0 0-3.21-.181h-7.98c-1.08 0-2.25.061-3.181.15V10.47a31.838 31.838 0 0 0 3.24.15h1.98V7.17zm1.05 20.759h-3.27a20.467 20.467 0 0 0 .15-2.939v-6.33a22.95 22.95 0 0 0-.12-2.88 21.761 21.761 0 0 0 2.67.12h8.16a19.187 19.187 0 0 0 2.64-.12 22.357 22.357 0 0 0-.12 2.88v6.061c0 1.17.06 2.31.15 3.18h-3.3v-1.47h-6.96zm0-4.379h6.96v-4.8h-6.96zm20.76-9.989a30.254 30.254 0 0 0-3.63.15 23.324 23.324 0 0 0 .15-3.42V4.41a20.851 20.851 0 0 0-.15-3.18 26.629 26.629 0 0 0 3.57.149h14.22a27.7 27.7 0 0 0 3.6-.149 22.063 22.063 0 0 0-.15 3.42v5.64a22.319 22.319 0 0 0 .15 3.42 29.644 29.644 0 0 0-3.63-.15h-5.7v1.68h8.64a23.067 23.067 0 0 0 3.42-.18v3.33a27.484 27.484 0 0 0-3.39-.18h-6.57a15.94 15.94 0 0 0 4.109 3.27 23.682 23.682 0 0 0 6.479 2.609 15.692 15.692 0 0 0-1.739 3.181 24.09 24.09 0 0 1-11.01-7.35c0 .39 0 .39.03.989.029.45.029.84.029 1.17v2.61a20.432 20.432 0 0 0 .21 3.27h-3.658a16.368 16.368 0 0 0 .21-3.239v-2.61c.03-1.17.03-1.17.09-2.07a25.014 25.014 0 0 1-4.74 4.29 29.46 29.46 0 0 1-5.76 3.09 13.208 13.208 0 0 0-1.8-3.09 24.439 24.439 0 0 0 5.88-2.609 15.83 15.83 0 0 0 4.08-3.51h-6.03a25.982 25.982 0 0 0-3.359.18V15.06a18.922 18.922 0 0 0 3.359.18h8.28v-1.68zm-.239-9.36v2.04h5.43V4.2zm0 4.62v2.039h5.43V8.82zm8.669-2.58h5.97V4.2h-5.97zm0 4.619h5.97V8.82h-5.97z" id="letter"/></g></svg>