<svg xmlns="http://www.w3.org/2000/svg" viewBox="0 0 526.74 47.52"><defs><style>.cls-1{fill:#323232}.cls-2,.cls-3{fill:none;stroke-linecap:round;stroke-linejoin:round}.cls-2{stroke:#fff;stroke-width:1.5px}.cls-3{stroke:#323232}.cls-4{fill:#fff}</style></defs><title>tit_story_1983</title><g id="レイヤー_2" data-name="レイヤー 2"><g id="拡大期"><path class="cls-1" d="M9 14.06H0V8h.83A13.21 13.21 0 0 0 8.1 6.32 8 8 0 0 0 11.46.75h6.78v45.31H9z"/><path class="cls-2" d="M36 39.5a3.54 3.54 0 0 0 3.23 1.44 4.61 4.61 0 0 0 2.94-.86 5.63 5.63 0 0 0 1.7-2.4 13.2 13.2 0 0 0 .8-3.65q.19-2.11.19-4.61v-2.17h-.13A8.2 8.2 0 0 1 41.44 30a11.72 11.72 0 0 1-5.22 1.06A11.35 11.35 0 0 1 31.1 30a9 9 0 0 1-3.42-2.94 12.94 12.94 0 0 1-1.92-4.48 24.77 24.77 0 0 1-.61-5.66q0-7.87 3.49-12T39.81.75a14.14 14.14 0 0 1 7.55 1.76 11.82 11.82 0 0 1 4.32 4.67 19.56 19.56 0 0 1 2 6.75 69.21 69.21 0 0 1 .45 8q0 4.86-.29 9.38a24.74 24.74 0 0 1-1.73 8 11.78 11.78 0 0 1-4.54 5.47q-3.11 2-8.67 2a22.67 22.67 0 0 1-4.7-.48 9.89 9.89 0 0 1-4-1.79A9.42 9.42 0 0 1 27.36 41a13.24 13.24 0 0 1-1.12-5.47h8.83A7.34 7.34 0 0 0 36 39.5zm-.48-17.18a4.08 4.08 0 0 0 3.84 2 4.14 4.14 0 0 0 3.9-2q1.15-2 1.15-6.59a31.25 31.25 0 0 0-.19-3.58 9.42 9.42 0 0 0-.74-2.85A4.41 4.41 0 0 0 42 7.44a4.54 4.54 0 0 0-2.59-.67 4.66 4.66 0 0 0-2.66.67 4.17 4.17 0 0 0-1.5 1.89 9.77 9.77 0 0 0-.67 2.85q-.16 1.63-.16 3.55-.05 4.6 1.1 6.59z"/><path class="cls-1" d="M61.63 25.9a8.4 8.4 0 0 1 5.76-3.84v-.13a8.15 8.15 0 0 1-3.1-1.41 8.36 8.36 0 0 1-3.1-4.74 11 11 0 0 1-.32-2.56q0-6.65 3.55-9.57t9.76-2.9q6.21 0 9.76 2.91t3.55 9.57a10.12 10.12 0 0 1-.35 2.56A9.09 9.09 0 0 1 86 18.35a8.42 8.42 0 0 1-2 2.18 8.17 8.17 0 0 1-3 1.41v.13a8.4 8.4 0 0 1 5.76 3.84 13.61 13.61 0 0 1 1.92 7.36 22 22 0 0 1-.48 4.35 10.91 10.91 0 0 1-2 4.42 11.44 11.44 0 0 1-4.38 3.39 18 18 0 0 1-7.58 1.34 18 18 0 0 1-7.58-1.34A11.43 11.43 0 0 1 62.21 42a10.9 10.9 0 0 1-2-4.42 22 22 0 0 1-.48-4.35 13.61 13.61 0 0 1 1.9-7.33zm7.52 10.27a7.16 7.16 0 0 0 .83 2.5 4.53 4.53 0 0 0 1.63 1.66 5.7 5.7 0 0 0 5.12 0 4.54 4.54 0 0 0 1.63-1.66 7.19 7.19 0 0 0 .83-2.5 20.95 20.95 0 0 0 0-6.11 7.16 7.16 0 0 0-.83-2.46 4.54 4.54 0 0 0-1.63-1.66 5.69 5.69 0 0 0-5.12 0A4.53 4.53 0 0 0 70 27.6a7.13 7.13 0 0 0-.83 2.46 20.95 20.95 0 0 0 0 6.11zm1.76-18.4a4.24 4.24 0 0 0 6.53 0A7.71 7.71 0 0 0 78.66 13q0-6.21-4.48-6.21T69.7 13a7.7 7.7 0 0 0 1.21 4.77z"/><path class="cls-3" d="M100.7 38.86q1 2.08 4 2.08a5.27 5.27 0 0 0 2.66-.58 4 4 0 0 0 1.54-1.57 6.4 6.4 0 0 0 .7-2.34 24 24 0 0 0 .16-2.82 18.17 18.17 0 0 0-.22-2.91 7.08 7.08 0 0 0-.86-2.46 4.67 4.67 0 0 0-1.79-1.73 6.32 6.32 0 0 0-3.07-.64h-3.07v-6h3a4.63 4.63 0 0 0 2.46-.61 4.78 4.78 0 0 0 1.6-1.6 7.44 7.44 0 0 0 .9-2.27 12.21 12.21 0 0 0 .29-2.69q0-3.26-1.09-4.61a4 4 0 0 0-3.33-1.34 4.7 4.7 0 0 0-2.4.54 3.71 3.71 0 0 0-1.44 1.54 6.79 6.79 0 0 0-.67 2.34 25 25 0 0 0-.16 2.94h-8.45q0-6.78 3.39-10.08t9.92-3.3q6.21 0 9.63 2.82t3.42 8.83a11.36 11.36 0 0 1-1.82 6.69 8.06 8.06 0 0 1-5.09 3.3v.13q4.42.7 6.24 3.55A13 13 0 0 1 119 33.2a20.5 20.5 0 0 1-.58 4.74 10.59 10.59 0 0 1-2.24 4.42 11.73 11.73 0 0 1-4.58 3.2 20.16 20.16 0 0 1-7.65 1.22q-6.59 0-9.86-3.58T90.81 33v-.19h8.83a15 15 0 0 0 1.06 6.05z"/><path class="cls-1" d="M142.4 28.34h-18v-7.55h18zM201.19 26l5.78.34c0 .34-.3.61-1 .72v15.2h-4.75V40h-21.31v2.28h-4.63V26l5.7.3c0 .38-.34.65-1.06.72v8.51h8V23.9H176.8V10l5.62.34c0 .38-.34.61-1.06.72v8.44h6.57V6.77l5.77.3c0 .38-.34.61-1.06.76v11.63h7V10l5.85.3c0 .38-.3.61-1 .76V23.9h-11.85v11.59h8.55z"/><path class="cls-3" d="M235.12 10.83h14v4.33h-27.86v5.32c0 6.19-.57 15.65-4 21.66a21.37 21.37 0 0 0-4-2.58c3.15-5.47 3.42-13.53 3.42-19.07v-9.66h13.68V6.39l5.78.3c0 .38-.3.61-1 .76zm2.51 5.17c0 .42-.34.65-1 .76v2.55h12v4.07h-12v4.14h9.73v14.66h-4.67v-1.37H228v1.41h-4.45V27.55H232V15.74zm4 20.78v-5.2H228v5.24z"/><path class="cls-1" d="M284.75 20a1.26 1.26 0 0 1-.72.57c-3.42 11.59-9.23 17.17-20.71 20.4a18.94 18.94 0 0 0-2.89-3.8C270 34.92 276.28 29.72 278.1 23h-23v-4.45h25.08l.53-.38zm-4.22-6.76H258.8V8.9h21.73zm14.64 4.36a44.57 44.57 0 0 1 2.7 8.05l-3.69 1a44.09 44.09 0 0 0-2.58-8.05zm22.11.87a.88.88 0 0 1-1 .49c-3.12 11.21-9 17.82-17.67 21.31a16.75 16.75 0 0 0-2.58-3c8.13-3 13.83-9.08 16.38-20.37zm-13-2.47a49 49 0 0 1 1.82 8.36l-3.87.8a49.53 49.53 0 0 0-1.86-8.4zm21.21 2.05a54.47 54.47 0 0 1 9.73 3.53l-2.05 4.14a56.5 56.5 0 0 0-9.73-3.72zm1.06 17.71c11.66-3.61 20.14-9.8 25.34-21a51.58 51.58 0 0 0 4.11 3.07c-5.17 10.83-14.44 18-25.34 21.73a.93.93 0 0 1-.61 1zm3.5-27.05a58.61 58.61 0 0 1 9.8 3.76l-2.36 4a52.47 52.47 0 0 0-9.57-4zm57.34 25.72v3.76h-26v-3.76h14.74c.57-3.46 1.33-9.35 1.71-12.77h-13.6V17.9h14.86l.72-.23 3.09 1.33a1.12 1.12 0 0 1-.61.57c-.49 3.61-1.63 11.17-2.2 14.82zm27.25-19.04a1.26 1.26 0 0 1-1.14.65c-1.56 13-5.36 20.52-11.89 20.52-4.14 0-7.14-3.5-7.14-10 0-9.73 7.75-16.87 17.44-16.87 10.75 0 16.26 6.38 16.26 14.63 0 8.93-4.6 13.56-14.17 16a25.43 25.43 0 0 0-3-4c8.66-1.71 12.12-5.85 12.12-11.89s-4.25-10.26-11.25-10.26a16 16 0 0 0-1.94.15zm-6-.76a12.11 12.11 0 0 0-9.46 11.78c0 3.19 1 5.43 2.62 5.43 3.68 0 6.2-8.32 6.8-17.21z"/><path class="cls-4" d="M437.29 6.46a23.31 23.31 0 0 1 3.88 3.88 29.49 29.49 0 0 0 2.24-3.65L448 8.93a1.07 1.07 0 0 1-1 .38 35.11 35.11 0 0 1-3.42 4.94c2 4.1 2.32 8.47 2.32 13 0 5.4-.42 10.6-2.2 13-.95 1.33-2.54 2.13-7.56 1.94a9 9 0 0 0-1.14-4.42q1.48.11 2.51.11c1.9 0 2.39 0 3-.8.83-1.06 1.18-4.79 1.22-9.27a36.31 36.31 0 0 1-5 5.17 16.21 16.21 0 0 0-3-3.42 25.72 25.72 0 0 0 7.71-8.17 20 20 0 0 0-.87-3.61 36.3 36.3 0 0 1-3.81 3.22 21.06 21.06 0 0 0-3.12-3 30.42 30.42 0 0 0 4.86-4.37 21.87 21.87 0 0 0-4.37-4.75zM460 27.32a22.26 22.26 0 0 0 1.75 4.1 38.49 38.49 0 0 0 4.75-3.5l3.34 3.38a.86.86 0 0 1-.61.23 1.9 1.9 0 0 1-.46-.08c-1.18.8-3.19 2.05-4.83 3a14.59 14.59 0 0 0 6.23 3.91 16.31 16.31 0 0 0-2.89 3.91 16.52 16.52 0 0 1-8.28-6.88l.27 4c-4.22.8-8.51 1.56-11.32 2a.77.77 0 0 1-.68.65L446 37.13l3-.38V10.42h6.73v-4l5.7.34c0 .34-.3.61-1 .68v3h6.92v16.88zm2.81-13h-9.5v2.55h9.5zm-9.5 9.08h9.5v-2.7h-9.5zm0 3.88v8.81c1.82-.27 3.76-.53 5.66-.84a29.18 29.18 0 0 1-3.23-8z"/><path class="cls-1" d="M501.92 37.58h9v3.92h-23.05v-3.92h9.73v-3.87h-7.26v-3.84h7.26v-3.5H490V15.13a57.12 57.12 0 0 1-3.12 6.87l-2.09-1c0 2.28-.15 4.56-.42 6.84 1.44 1.63 4.64 5.78 5.43 6.8l-3.15 3.12a57.94 57.94 0 0 0-3.27-5.17 21.5 21.5 0 0 1-5.55 9.65 14.46 14.46 0 0 0-3-3.27c5.24-5.32 5.81-12.61 5.81-19.34V6.43c1.94.11 3.53.19 5.09.3 0 .34-.3.53-1 .68v11.82a55.72 55.72 0 0 0 2.05-6.54l4.22 1.79h4v-3h-6.12V7.57h22.08v3.91h-6.27v3h5.21v11.89h-7a1.36 1.36 0 0 1-.91.42v3.08h7.41v3.84h-7.41zM474.83 23.9c1.18-2.17 1.67-6.12 1.67-9.46l3.15.42c.11 3.57-.34 7.75-1.71 10.41zm19.07-5.66v4.37h1.86v-4.37zm4.9-6.76v3h1.94v-3zm1.94 6.76h-1.94v4.37h1.94zm5 4.37v-4.37h-1.94v4.37zm21 14.29a5.32 5.32 0 1 1-5.32-5.32 5.33 5.33 0 0 1 5.32 5.32zm-1.71 0a3.59 3.59 0 1 0-3.61 3.57A3.58 3.58 0 0 0 525 36.9z"/></g></g></svg>