<svg xmlns="http://www.w3.org/2000/svg" viewBox="0 0 565.31 47.02"><defs><style>.cls-1{fill:#323232}.cls-2,.cls-4{fill:none;stroke-linecap:round;stroke-linejoin:round}.cls-2{stroke:#fff;stroke-width:1.5px}.cls-3{fill:#fff}.cls-4{stroke:#323232}</style></defs><title>tit_story_1977</title><g id="レイヤー_2" data-name="レイヤー 2"><g id="成長期"><path class="cls-1" d="M204.68 19.44h-10.44l.15 16c.08 5.39-3.31 5.39-10.71 5.39a23.41 23.41 0 0 0-1.22-4.37h3.08c3.61 0 4.18 0 4.1-1.14L189.53 23a52.11 52.11 0 0 1-14.36 12.69 16.78 16.78 0 0 0-3.38-3.61 48.22 48.22 0 0 0 15-12.69h-13.15v-4.47h15.77l-.08-7.64 5.85.23c0 .42-.3.72-1.06.8l.08 6.61h10.49z"/><path class="cls-2" d="M241.92 10.81a1.29 1.29 0 0 1-1.22.42 101.51 101.51 0 0 1-10.26 8.62c.42.11.84.3 1.22.42a1.2 1.2 0 0 1-1.1.72v19.84h-5.05V23a112 112 0 0 1-12.61 7.11 17.62 17.62 0 0 0-2.9-3.72c9.92-4.41 21.31-12.31 27.13-19.07z"/><path class="cls-1" d="M258.15 13.17a1 1 0 0 1-1 .84c-.19 10.9-1.22 19.72-6.42 26.75a53.63 53.63 0 0 0-4.25-2.47c5.05-5.89 5.74-15.77 5.74-25.49zm9.76 19.76c5.09-2.81 8.21-7.94 9.92-13.83a27.53 27.53 0 0 0 4.29 2.62c-2.74 7.87-7.18 13.41-15.24 17.4a2.65 2.65 0 0 1-.87 1l-3.57-4.18.61-.8v-27l5.93.3a1.11 1.11 0 0 1-1.06.91zm32.61-10.83a22.44 22.44 0 0 0 4.41 7.07 21.23 21.23 0 0 0 4.48-7.29l5.51 1.79a1.11 1.11 0 0 1-1.14.49 27.93 27.93 0 0 1-5.32 8.09 33.17 33.17 0 0 0 14.44 5.4 19.45 19.45 0 0 0-3 4.33c-6.31-1.22-11.25-3.34-15.16-6.5a40.78 40.78 0 0 1-15 6.54 27.18 27.18 0 0 0-2.66-4.14 36.61 36.61 0 0 0 14.36-5.66 32 32 0 0 1-5.32-8.81zm1.86-4.56a1 1 0 0 1-1.1.34 45.81 45.81 0 0 1-10.22 8.59 26.6 26.6 0 0 0-3.5-3.34 30.3 30.3 0 0 0 9.57-7.83zm15.92 8.66c-1.94-2.47-6.31-6-9.76-8.55l3.65-2.65H288v-4.45h14.48V6.06l5.7.3c0 .38-.3.61-1 .72v3.46h14.62V15h-9.38a61.56 61.56 0 0 1 10 8.05zm21.44-3.42l.57 3.8-3.76 1.25v9.31c0 3.76-1.33 4.9-6.84 4.83a17.23 17.23 0 0 0-1.18-4.22c.8 0 1.6.08 2.2.08 1.44 0 1.6 0 1.6-.68v-8l-2.73.85a.9.9 0 0 1-.68.68l-1.14-5c1.25-.27 2.85-.65 4.56-1.06v-6.89h-4.07v-4.22h4.07V6.14l5.17.27c0 .38-.3.61-1 .68v6.42h3v1.75a21 21 0 0 0 5.93-9.16l4.79.65c-.08.38-.34.57-.83.61-.19.49-.38 1-.61 1.48H354l.65-.23 3.19 1.94a1.19 1.19 0 0 1-.8.46 45.89 45.89 0 0 1-2.2 4.1h6.92v13h-3.87v-3.32a2.87 2.87 0 0 1-.57 0h-1.94c-2.66 0-3.23-.8-3.23-3.57v-2.54h-1.6c-.27 2.89-1 5.62-4.22 7.26a10.13 10.13 0 0 0-1.06-1.52v3.68h-3.76v-9.23l-.11.11a11.93 11.93 0 0 0-1.82-1.86v.61h-3v5.85zm23.59 10h-8.43c1.67 2.85 4.52 4.6 9.08 5.24a12.83 12.83 0 0 0-2.55 3.8c-5-1.06-8.05-3.34-10-7-1.6 3.19-4.56 5.58-10.6 7.1a11.63 11.63 0 0 0-2.2-3.46c5.4-1.18 8-3 9.27-5.74h-8.36V29H349c.15-1 .23-2.05.3-3.19l5 .42c0 .34-.34.57-1 .68l-.22 2.09h10.26zm-12.8-17.71c.46-.84.91-1.82 1.33-2.77H347a25.62 25.62 0 0 1-1.9 2.77zm-5.28 3.57V23a5.41 5.41 0 0 0 2.05-4.33zM356.8 22c.46 0 .57-.15.65-.87a3.9 3.9 0 0 0 .42.27v-2.72h-2.43v2.58c0 .68.08.76.46.76zm44.95 2.15a.9.9 0 0 1-.3.08.91.91 0 0 1-.53-.19c-2.85.84-6.61 2.05-9.42 3.12.08.76.08 1.63.08 2.55s0 1.9-.08 3l-4.79.34a39.06 39.06 0 0 0 .15-4.07c-3 1.48-5.13 3.42-5.13 4.86 0 1.67 2.09 2.36 6.38 2.36a85.41 85.41 0 0 0 9.42-.42l.08 4.41c-2 .23-5.24.27-9.54.27-7.33 0-11-1.63-11-6.34 0-3 4-6.5 9.31-9.23-.11-1.1-.68-2.13-1.82-2.13-2.51 0-5.17 1.29-8.28 4.83-.91 1.06-2.32 2.55-4 4.14L369 28.44a43.31 43.31 0 0 0 4.6-4.44 23.18 23.18 0 0 0 4.26-7.94h-7.33v-4.22c2.13.11 4.86.11 6.54.11h2a50.05 50.05 0 0 0 .8-5l5.81.57a1 1 0 0 1-1 .72c-.19 1.22-.49 2.36-.8 3.53a42.37 42.37 0 0 0 11.55-2.09l.76 4.48c-3.65 1.18-8.89 1.63-13.56 1.86a22.83 22.83 0 0 1-1.86 4.45 8.94 8.94 0 0 1 5.21-1.86c2.2 0 4.14 1.56 4.71 4.45 2.93-1.25 6.5-2.55 9.23-3.65zm8.79 6.15a79.06 79.06 0 0 1 8.21 8.09L414.83 42a90.14 90.14 0 0 0-7.83-8.58z"/><path class="cls-3" d="M439.72 19.06v-2.93a29.52 29.52 0 0 1-2.39 2.09 27.82 27.82 0 0 0-3.46-2.81 24.87 24.87 0 0 0 7.79-9.31l5.05 1.75c-.11.3-.46.46-1 .42-.34.61-.72 1.25-1.14 1.86h23.06v4H464v4.9h5v4.07h-5V28h4.45v4.07h-33.29V28h4.56v-4.88h-5.17v-4.06zM442.91 34a21.71 21.71 0 0 1-4.37 8l-4.37-1.79a18.49 18.49 0 0 0 4.29-7.33zm.84-19.79v4.9h2.77v-4.9zm0 9V28h2.77v-4.88zm2.32 18.43a49.17 49.17 0 0 0-.72-7.33l4.22-.49a45.57 45.57 0 0 1 1 7.18zm7.07-27.39h-2.81v4.9h2.81zm0 9h-2.81V28h2.81zm1.79 18.46a38.41 38.41 0 0 0-2-7.29l4.29-.72a39.15 39.15 0 0 1 2.24 7.14zm4.94-22.53v-4.9h-2.93v4.9zm0 8.93v-4.99h-2.93V28zm5.24 14a48.61 48.61 0 0 0-4.56-7.86l4.37-1.41a53.21 53.21 0 0 1 4.86 7.71z"/><path class="cls-1" d="M485.74 24.15c1.29 1 5 4.52 5.85 5.36L489 33.19c-.72-1.1-2-2.77-3.27-4.29v13h-4.37V30a32.75 32.75 0 0 1-4.63 7.64 27 27 0 0 0-2.16-4.64 32.68 32.68 0 0 0 5.89-9.58h-5.09v-4.29h6V6.1l5.36.3c0 .38-.3.57-1 .68v12h5.51v4.25h-5.51zm-7-15.62a35.58 35.58 0 0 1 2.2 8.43l-3.72 1a35.7 35.7 0 0 0-2-8.55zM493 9.79c-.11.27-.46.46-1 .46a53.55 53.55 0 0 1-3.15 7.9c-1-.34-2.17-.8-3.15-1.14a51.13 51.13 0 0 0 2.54-8.59zm17.82 21.66l-4.79.91V42h-4.48v-8.81L492 35l-.76-4.33 10.3-1.9V6.29l5.47.3c0 .34-.3.61-1 .72v20.64l4.07-.76zm-15.74-12.89a31.84 31.84 0 0 1 5.74 5.85c-3.3 2.51-3.38 2.58-3.42 2.62a34.35 34.35 0 0 0-5.51-6.12zM496.22 9a26.58 26.58 0 0 1 5 5.62L497.71 17a27.73 27.73 0 0 0-4.71-5.81zM516 10.77c1.18 0 2.93 0 4-.11 4.37-.3 20.78-1.33 27.2-1.63l.08 5.13c-3.38-.11-5.24.19-8.24 2.32-4.18 2.77-9.35 8-9.35 12.35s3.84 6.84 12.16 7.71l-2.36 4.75c-10.79-1.29-15-5.85-15-12.42 0-4.64 4.25-10.64 10-14.63-4.71.42-13.49 1.1-17 1.48-.08.3-.57.57-.91.65zm25.38 9a25.41 25.41 0 0 1 4.62 5.18l-2.24 1.79a26.26 26.26 0 0 0-4.48-5.21zm4.52-3.38a21.53 21.53 0 0 1 4.63 5.09l-2.2 1.75a26.89 26.89 0 0 0-4.52-5.17zm19.41 20.26a5.32 5.32 0 1 1-5.31-5.32 5.33 5.33 0 0 1 5.31 5.32zm-1.71 0a3.59 3.59 0 1 0-3.6 3.57 3.58 3.58 0 0 0 3.6-3.57zM9 13.81H0v-6h.83A13.21 13.21 0 0 0 8.1 6.07 8 8 0 0 0 11.46.5h6.78v45.31H9z"/><path class="cls-4" d="M36 39.25a3.54 3.54 0 0 0 3.23 1.44 4.61 4.61 0 0 0 2.94-.86 5.63 5.63 0 0 0 1.7-2.4 13.2 13.2 0 0 0 .8-3.65q.19-2.11.19-4.61V27h-.13a8.2 8.2 0 0 1-3.3 2.78 11.72 11.72 0 0 1-5.22 1.06 11.35 11.35 0 0 1-5.12-1.06 9 9 0 0 1-3.42-2.94 12.94 12.94 0 0 1-1.92-4.48 24.77 24.77 0 0 1-.61-5.66q0-7.87 3.49-12T39.81.5a14.14 14.14 0 0 1 7.55 1.76 11.82 11.82 0 0 1 4.32 4.67 19.56 19.56 0 0 1 2 6.75 69.21 69.21 0 0 1 .45 8q0 4.86-.29 9.38a24.74 24.74 0 0 1-1.73 8 11.78 11.78 0 0 1-4.54 5.47q-3.11 2-8.67 2a22.67 22.67 0 0 1-4.7-.48 9.89 9.89 0 0 1-4-1.79 9.42 9.42 0 0 1-2.78-3.52 13.24 13.24 0 0 1-1.12-5.47h8.83a7.34 7.34 0 0 0 .87 3.98zm-.48-17.18a4.08 4.08 0 0 0 3.84 2 4.14 4.14 0 0 0 3.9-2q1.15-2 1.15-6.59a31.25 31.25 0 0 0-.19-3.58 9.42 9.42 0 0 0-.73-2.9A4.41 4.41 0 0 0 42 7.19a4.54 4.54 0 0 0-2.59-.67 4.66 4.66 0 0 0-2.66.67 4.17 4.17 0 0 0-1.5 1.89 9.77 9.77 0 0 0-.67 2.85q-.16 1.63-.16 3.55-.05 4.6 1.1 6.59z"/><path class="cls-3" d="M85.57 8.44a59.91 59.91 0 0 0-5 8.51 85.89 85.89 0 0 0-6.62 19.1q-1.09 5-1.66 9.76h-9.7q.51-4.1 1.54-8.61a76.54 76.54 0 0 1 2.72-9.2A81.39 81.39 0 0 1 71 18.61a69.23 69.23 0 0 1 5.76-9.28h-19.1V1.4h27.9z"/><path class="cls-1" d="M118.85 8.44a59.91 59.91 0 0 0-5 8.51 85.89 85.89 0 0 0-6.62 19.1q-1.09 5-1.66 9.76h-9.7q.51-4.1 1.54-8.61a76.54 76.54 0 0 1 2.72-9.2 81.39 81.39 0 0 1 4.13-9.41A69.23 69.23 0 0 1 110 9.33H90.94V1.4h27.9zm22.27 19.65h-18v-7.55h18z"/></g></g></svg>