<svg xmlns="http://www.w3.org/2000/svg" viewBox="0 0 305.11 179.73">
  <defs>
    <style>
      .cls-1 {
        fill: #abcd03;
      }
    </style>
  </defs>
  <title>tit_mystock_1</title>
  <g id="レイヤー_2" data-name="レイヤー 2">
    <g id="letter">
      <g>
        <path class="cls-1" d="M16.34,77.57H1.86V0H24.93l7.76,36a173.75,173.75,0,0,1,2.69,17.89h.21A169.36,169.36,0,0,1,37.85,36L45.61,0h23V77.57H54.09V53.16c0-15.41.31-30.82,1.24-46.23h-.21L39.61,77.57H30.82L15.62,6.93H15.1c.93,15.41,1.24,30.82,1.24,46.23Z"/>
        <path class="cls-1" d="M100.63,20.37A52.27,52.27,0,0,1,104,32.27h.21c1-6,3-10.34,4.76-14.69L115.94,0h15.82L111.29,44.58v33H96.81v-33L76.64,0H92.46Z"/>
        <path class="cls-1" d="M31.54,123.58c.1-6.93-.52-13.76-8.48-13.76-4.86,0-8,2-8,7.24,0,5.89,3.72,8.17,8.27,11.07,4.76,3,13.55,8.79,17.58,12.72,5,4.86,6.52,9.51,6.52,16.24,0,14.69-9.72,22.34-23.89,22.34C6.21,179.43,0,169.71,0,155.85v-5.69H14.48v4.55c-.31,7.55,2,13,9.1,13,6.1,0,9-3.21,9-9.1,0-4.55-2.07-7.65-5.79-10.24-7.55-5.9-17-10.14-22.86-17.89A21.54,21.54,0,0,1,.21,118.62C.21,105.38,7.65,98.14,23,98.14c23.06,0,22.44,17.79,22.55,25.44Z"/>
        <path class="cls-1" d="M54.2,100h48.3v11.38H85.64v66.19H71.16V111.38h-17Z"/>
        <path class="cls-1" d="M244,150c-.1,1.45-.21,3-.31,4.45-.72,14.17-5.48,25-21.62,25-23.79,0-25.34-15.1-25.34-35.78V132.58c.62-19.75,2.17-34.44,25.34-34.44,12.93.21,20.17,6.83,21.2,20.06a37.51,37.51,0,0,1,.31,5.9H229.3c-.62-5-.1-14.27-7.24-14.27-11.38,0-10.45,13.55-10.45,19.55v21.51c0,6.41.52,16.86,10.45,16.86,8,0,7-12.83,7.34-17.79Z"/>
        <path class="cls-1" d="M255.57,177.57V100H270v34.44h.21c2.27-6.1,6-12.93,9.1-18.62L287.83,100h16.34L285,133.3l20.06,44.27H288.77L275.11,147,270,155.33v22.24Z"/>
      </g>
      <path class="cls-1" d="M110.34,117.92a41.21,41.21,0,1,0,56.29-15.08A41.21,41.21,0,0,0,110.34,117.92Zm51.87-7.43a32.27,32.27,0,0,1,8.87,7.54l-15.32,8.85a15.44,15.44,0,0,0-2.15-1.5,15.2,15.2,0,0,0-17.68,1.8l-15.25-8.8A32.38,32.38,0,0,1,162.21,110.49Zm-20.86,36.13a9.35,9.35,0,1,1,12.78-3.43A9.36,9.36,0,0,1,141.35,146.62Zm-25.6-19.55,15.31,8.84a15.21,15.21,0,0,0,10.17,17v17.61a32.39,32.39,0,0,1-25.49-43.47Zm58.31,27.64a32.31,32.31,0,0,1-22.81,15.76V152.78a15.18,15.18,0,0,0,9.62-17.49l.09.14,15.19-8.77A32.31,32.31,0,0,1,174.06,154.7Z"/>
      <g>
        <path class="cls-1" d="M143.45,46.12a7.44,7.44,0,0,1-.2,2.13,2.2,2.2,0,0,1-2.3,1.45,7.78,7.78,0,0,1-4.72-1.77,3.67,3.67,0,0,1-1.37-2.82,5.34,5.34,0,0,1,2.15-3.7,13.37,13.37,0,0,1,3.65-2.12l0-3.85-1,0c-.37,0-.73,0-1.35,0l-1.37,0c-.32,0-.55,0-.62,0a4.79,4.79,0,0,0-.52,0l0-2.8a15.38,15.38,0,0,0,3,.22c.25,0,.52,0,.88,0,.6,0,.72,0,1,0V31.2a17.12,17.12,0,0,0-.15-2.87h3.12a15.33,15.33,0,0,0-.15,2.72v1.6a27.9,27.9,0,0,0,4.82-.95l.1,2.8-2.65.45c-.83.15-1.32.22-2.27.33v3.25a17.33,17.33,0,0,1,5.1-.7c4.17,0,7.15,2.55,7.15,6.1a5.55,5.55,0,0,1-5.67,5.7,4,4,0,0,1-4.1-2.77,8.36,8.36,0,0,1-.42-3.2,10.56,10.56,0,0,0,2.77-1.1,8.63,8.63,0,0,0-.05,1.1,4.82,4.82,0,0,0,.35,2.2,1.73,1.73,0,0,0,1.57.85,2.57,2.57,0,0,0,2.52-2.77c0-2.15-1.75-3.55-4.42-3.55a16,16,0,0,0-4.8.82Zm-2.82-4c-1.87,1-3,2.1-3,3,0,.42.25.8.82,1.15a3,3,0,0,0,1.6.55c.42,0,.55-.22.55-1Zm13.85-5a21.35,21.35,0,0,0-5-5.4l2.35-1.57a21.19,21.19,0,0,1,4.95,5.12Z"/>
        <path class="cls-1" d="M164.22,32.25a23.37,23.37,0,0,1-3.72,4.35,10.27,10.27,0,0,0-1.95-1.95A18.18,18.18,0,0,0,163.08,29a4.59,4.59,0,0,0,.55-1.58l3,.45c-.23.42-.23.42-.87,1.75h11.52a20.23,20.23,0,0,0,3.12-.17V32.4a26.08,26.08,0,0,0-3.12-.15Zm8.37,18a54.74,54.74,0,0,0-4.35-3.85,30.59,30.59,0,0,1-7.22,4.5,9.58,9.58,0,0,0-1.87-2.35,28,28,0,0,0,6.92-3.8,43.83,43.83,0,0,0-4.35-2.85l1.82-1.67c1.82,1,2.65,1.58,4.42,2.77a9.14,9.14,0,0,0,2.17-3.2l2.67,1.27c-.25.28-.52.65-1.07,1.4a20.71,20.71,0,0,1-1.62,2.07c1.52,1.2,2.77,2.22,4.35,3.62Zm-9.7-10.72a21.15,21.15,0,0,0-2.87.15V37a12.38,12.38,0,0,0,2.15.13h12.7a25.51,25.51,0,0,0,2.92-.1,17.09,17.09,0,0,0-.12,2.27,24.6,24.6,0,0,0,.7,6.42,3.22,3.22,0,0,0,.88,1.7c.35-.47.52-1.65.6-3.7a7.46,7.46,0,0,0,2.15,1.5c-.4,3.92-1.17,5.52-2.7,5.52-1.12,0-2.4-1.3-3.1-3.2A23.15,23.15,0,0,1,175,39.52Zm.6-6.15a15.54,15.54,0,0,0,1.87.1h10.47a20.87,20.87,0,0,0,2.65-.12v2.47a18.56,18.56,0,0,0-2.65-.12h-10a20.73,20.73,0,0,0-2.37.1Z"/>
        <path class="cls-1" d="M185.73,49.62c0-.45-.05-.6-.12-1.17A43.58,43.58,0,0,1,185,41a48,48,0,0,1,1-9.77,16.4,16.4,0,0,0,.38-2.32l3.3.35a34.47,34.47,0,0,0-1.57,7.47,41.8,41.8,0,0,0-.37,5.52c0,.55,0,.75-.05,1.37a25.54,25.54,0,0,1,1.3-3.3l2,.9a20.52,20.52,0,0,0-2.22,7.57c0,.15,0,.35,0,.67Zm10.65-9.87c-1.25,1.45-1.77,2.52-1.77,3.6,0,1.42,1.38,2.17,4,2.17a17.55,17.55,0,0,0,5.95-1l.25,3.17a8.28,8.28,0,0,0-1,.15,30.8,30.8,0,0,1-5.17.48c-3.1,0-5.1-.7-6.2-2.17a4.19,4.19,0,0,1-.75-2.45,8.16,8.16,0,0,1,2.3-5.15Zm-4.12-8.27a18,18,0,0,0,4.62.4,27.59,27.59,0,0,0,6.8-.67l.15,3-1.77.22a44.72,44.72,0,0,1-5.35.3,29.73,29.73,0,0,1-4.5-.27Z"/>
        <path class="cls-1" d="M214.12,31.72c-.67,0-1.42,0-2.4.13v-3a15.27,15.27,0,0,0,2.35.13h4a13.66,13.66,0,0,0,2.27-.12,11.76,11.76,0,0,0-.08,1.57,19.36,19.36,0,0,0,2.67,9.9,20.24,20.24,0,0,0,4,4.8,17.93,17.93,0,0,0,3.7,2.7,10.6,10.6,0,0,0-2.12,2.82,25.19,25.19,0,0,1-6.07-5.87,19,19,0,0,1-2.2-3.7,16.13,16.13,0,0,1-1.27-3.55,21,21,0,0,1-3.57,7.55,25,25,0,0,1-6.2,5.65,7,7,0,0,0-2-2.62,19.72,19.72,0,0,0,5-3.92,18.5,18.5,0,0,0,4.27-7.4,19.75,19.75,0,0,0,.83-5Z"/>
        <path class="cls-1" d="M238.47,28.42a24.46,24.46,0,0,0-.9,4.82c-.18,1-.27,1.9-.33,2.5h.08a5.67,5.67,0,0,0,.15-.55,10.11,10.11,0,0,1,1.57-3,6,6,0,0,1,4.75-2.55,5.24,5.24,0,0,1,4.27,2.25c1.25,1.67,1.8,3.7,1.8,6.65,0,4.82-2.25,8.42-6.45,10.27a21.27,21.27,0,0,1-4.9,1.4A9.56,9.56,0,0,0,237,47.29a14.57,14.57,0,0,0,5.47-1.42c2.9-1.47,4.22-3.85,4.22-7.65,0-3.6-1.2-5.6-3.35-5.6a3.72,3.72,0,0,0-2.7,1.32A12,12,0,0,0,237.55,42v.52l-3,.05a2,2,0,0,0,0-.33v-.47c0-.73-.07-2.58-.07-3.07,0-2,.15-4.8.35-6.52l.38-3.1a5.84,5.84,0,0,0,.08-.85Z"/>
      </g>
    </g>
  </g>
</svg>
