<svg xmlns="http://www.w3.org/2000/svg" viewBox="0 0 632.15 46.52"><defs><style>.cls-1{fill:#323232}.cls-2{fill:#fff}.cls-3{fill:none;stroke:#323232;stroke-linecap:round;stroke-linejoin:round}</style></defs><title>tit_story_1972</title><g id="レイヤー_2" data-name="レイヤー 2"><g id="成長期"><path class="cls-1" d="M204.68 19.44h-10.44l.15 16c.08 5.39-3.31 5.39-10.71 5.39a23.41 23.41 0 0 0-1.22-4.37h3.08c3.61 0 4.18 0 4.1-1.14L189.53 23a52.11 52.11 0 0 1-14.36 12.69 16.78 16.78 0 0 0-3.38-3.61 48.22 48.22 0 0 0 15-12.69h-13.15v-4.47h15.77l-.08-7.64 5.85.23c0 .42-.3.72-1.06.8l.08 6.61h10.49zm6.71 1.63h28.55v4.79h-27.11a1.62 1.62 0 0 1-1.16.72zm64.01-5.93a2.23 2.23 0 0 1-.84.72c-4.29 12.42-10.22 19.91-20.48 25.08a17.9 17.9 0 0 0-3.57-3.65c9.5-4.45 15-11.13 17.9-19.64h-11.17a40.21 40.21 0 0 1-8.09 8.7 25.56 25.56 0 0 0-3.91-3.12 37.42 37.42 0 0 0 11.93-16.1l6 1.41a1.21 1.21 0 0 1-1.25.68c-.61 1.37-1.37 2.7-2 4h10.83l.68-.34zm6.93 2.66a54.47 54.47 0 0 1 9.73 3.53L290 25.48a56.5 56.5 0 0 0-9.73-3.72zm1.06 17.71c11.66-3.61 20.14-9.8 25.34-21a51.58 51.58 0 0 0 4.14 3.12c-5.17 10.83-14.44 18-25.34 21.73a.93.93 0 0 1-.61 1zm3.5-27.05a58.61 58.61 0 0 1 9.8 3.76l-2.36 4a52.47 52.47 0 0 0-9.57-4zm52.36 8.66V40.6h-3.8V39h-16.19v-3.49h16.19v-5.66h-14.56v-3.54h14.55v-5.66h-15.31v-3.53zM351 9.79a49.33 49.33 0 0 1 11.13 5l-2.51 4.33a55.4 55.4 0 0 0-10.87-5.21zm-1.29 25.72c12.8-4 21.62-11.4 26-21.85a28.81 28.81 0 0 0 4.45 2.81c-4.71 10.37-13.79 18.47-26.37 22.91a1.33 1.33 0 0 1-.65 1zm71.08-7.6v3.46h-4v6.69h-4.63v-1.6h-6.88c0 4.6-.27 5.58-8.81 5.58a14.2 14.2 0 0 0-1.47-3.61c1.82.08 4.1.08 4.71.08s.95-.27.95-.91v-1.14H389v-3.31h11.63v-1.78h-15.17v-3.46h15.16v-1.63h-11.33v-3.12h11.32v-1.52h-10.36v-8h10.37v-1.42h-14.29V8.61h14.29V6.1l5.66.23c0 .42-.3.68-1 .8v1.48h14.67v3.61h-14.7v1.44h10.9v8h-10.9v1.52h11.51v4.75zm-26.18-9.16h6v-2.2h-6zm16.87-2.2h-6.23v2.2h6.23zm-6.23 9.73v1.63h6.88v-1.63zm6.88 6.88v-1.79h-6.88v1.79z"/><path class="cls-2" d="M461.22 33.23h-11.05a34.89 34.89 0 0 0 12.12 4.18 19.23 19.23 0 0 0-3.08 4.14 32.71 32.71 0 0 1-12.88-6.46V42h-4.52v-6.68A37.31 37.31 0 0 1 429 41.51a21.63 21.63 0 0 0-2.93-3.8 39.67 39.67 0 0 0 12.12-4.48h-11v-3.76h14.63v-1.71h-11.07v-3.3h11.06v-1.72h-13v-3.57h7.29a17.4 17.4 0 0 0-1.29-3l.46-.08h-8v-3.72h5.13a31 31 0 0 0-2.4-4.75l3.91-1.33a27.23 27.23 0 0 1 2.93 5.4l-1.86.68h3.5V6.1l5.24.27c0 .38-.34.65-1 .72v5.28h2.81V6.1l5.36.27c0 .42-.38.65-1 .76v5.24h3.23l-1.33-.49a31 31 0 0 0 2.55-5.47L459.48 8c-.11.3-.46.46-1 .42-.65 1.18-1.56 2.7-2.43 4h5.05v3.72h-7l.34.11a.94.94 0 0 1-1 .38 27.46 27.46 0 0 1-1.44 2.54h7.6v3.57h-13.3v1.71h11.51v3.3h-11.48v1.71h14.89zm-13.86-14.06c.42-.87 1-2 1.41-3.08h-9.08a20.65 20.65 0 0 1 1.29 3l-.65.11z"/><path class="cls-1" d="M483.31 8c-.08.53-.57.72-1.25.8-.34 1.86-.91 5.13-1.33 7.33 1-.11 2.36-.23 3.12-.23 6.27 0 8.21 4.37 8.21 10.3-.15 8.4-2.51 14.36-8.32 14.36-1.52 0-3.8-.72-6.84-3.12a23 23 0 0 0 1.6-4.1c2.58 1.82 4.07 2.28 5.09 2.28 1.6 0 2.36-1.29 3-3.46a28.86 28.86 0 0 0 .8-6.23c0-3.76-1.18-5.66-3.88-5.66a29.33 29.33 0 0 0-3.65.27 86.5 86.5 0 0 1-7 19.83l-4.41-2.17a66.07 66.07 0 0 0 6.57-17.13c-1.37.23-4.1.61-5.77.91l-.42-4.71 7.07-.8c.49-2.77 1-6 1.33-9.16zm9.61 5.58a19.34 19.34 0 0 0-4.41-5.28l2.24-1.56a22.05 22.05 0 0 1 4.52 5.26zm5 15.2C497 24 494.55 19 491.63 16.32l4-2.51a25.62 25.62 0 0 1 7.26 13.26zm.95-16.76a21.16 21.16 0 0 0-4.37-5.28l2.2-1.52a19.93 19.93 0 0 1 4.52 5.24z"/><path class="cls-3" d="M538.94 12.22c2.32 3.12 4.79 7.22 5.66 10.11l-4 2.09a20.88 20.88 0 0 0-.8-2.32c-5.39.49-10.75.91-14.4 1.18a.72.72 0 0 1-.68.57L523.17 19a45.11 45.11 0 0 1-2.81 12 28.63 28.63 0 0 1 4.18 4l-2.74 3.7a29.7 29.7 0 0 0-3.46-3.65 20.86 20.86 0 0 1-7 7 15.09 15.09 0 0 0-2.74-3.61 16.13 16.13 0 0 0 6.27-6.31c-.68-.57-1.41-1.06-2.09-1.6l-.3 1.21-3.72-1.94c.87-3.15 1.82-7.45 2.74-11.89h-3v-4.17h3.8c.49-2.66 1-5.24 1.33-7.6l5.17.53c0 .34-.34.57-1 .61-.38 2-.8 4.18-1.25 6.46h4l.76-.11 2.43.57-.23.76c-.08 1.41-.23 2.74-.38 4l3.12-.08a87.81 87.81 0 0 0 3.61-12.8l5.62 1.29c-.11.34-.53.57-1.1.61a92.63 92.63 0 0 1-3.76 10.71c2.36-.08 4.86-.19 7.37-.3-.84-1.52-1.79-3-2.7-4.37zM515.72 18c-.61 2.85-1.25 5.74-1.86 8.4.91.57 1.9 1.22 2.89 1.9A45.9 45.9 0 0 0 519 18zm10 24V26h16.83v15.82h-4.52v-1.37h-8V42zm12.31-11.89h-8v6.23h8z"/><path class="cls-1" d="M550.34 11.46c2.32.15 6 .15 8.81.15 1.22 0 2.47 0 3.61-.08 0-1.63-.08-3.5-.08-4.63l5.93.27c0 .42-.38.68-1 .8v3.42a80.31 80.31 0 0 0 11.51-1.29l.46 4.41a100.84 100.84 0 0 1-12 1.14c0 1.79 0 3.53.08 5.28a77.14 77.14 0 0 0 9.58-1.29l.38 4.22a71.49 71.49 0 0 1-9.88 1.1c0 1.86.15 3.57.23 4.94a37.43 37.43 0 0 1 10.26 5.36l-2.89 4.14a31.52 31.52 0 0 0-7.22-4.9v1.1c-.08 3.12-2.62 5.24-7.94 5.24-5.05 0-8.47-2.47-8.47-6.08 0-3.84 4.07-6.12 8.66-6.12a15.39 15.39 0 0 1 2.93.23c0-1.14-.08-2.43-.11-3.8h-3c-5.17-.08-8.4-.84-8.36-3.65 0-1.6 1.18-3 4-4.71l3.23 1.67c-1.37.61-2.32 1.29-2.32 1.86s.49.91 4.29.91h2.05l-.23-5.4h-3.72c-2.62 0-6.46-.08-8.81-.08zm13.11 21.28a13.87 13.87 0 0 0-3.38-.53c-2.36 0-4.14 1-4.14 2.47s1.86 2.32 4.33 2.32c2.24 0 3.23-1 3.23-2.77zM598.64 22a20 20 0 0 1 7.26-1.41c5.78 0 9.76 3.53 9.76 9.5 0 6.8-5.93 10.75-14.21 10.75-4.9 0-8.36-2.24-8.36-6.08 0-3.08 3.12-5.58 6.69-5.58a7.66 7.66 0 0 1 7.71 6 5.48 5.48 0 0 0 3.15-5.05c0-3.27-2.7-5.36-6.54-5.36a19.21 19.21 0 0 0-12.65 4.71c-.91.84-2.43 2.36-3.42 3.46l-3.38-3.38c2.7-2.7 12.27-11.78 17.36-16.49-1.86.27-8.43.61-11.47.8a1.42 1.42 0 0 1-.91.57l-.42-5.36c4.86 0 15.58-.42 18.09-.83l.57-.27 3.08 3.88a1.93 1.93 0 0 1-1.1.42c-2 1.44-8.09 6.92-11.21 9.69zm2 14.7a14.06 14.06 0 0 0 2.36-.2 3.81 3.81 0 0 0-3.6-3.5c-1.25 0-2.39.65-2.39 1.75-.01 1.82 2.39 1.97 3.64 1.97zm31.51-.05a5.32 5.32 0 1 1-5.32-5.32 5.33 5.33 0 0 1 5.32 5.32zm-1.71 0a3.59 3.59 0 1 0-3.61 3.57 3.58 3.58 0 0 0 3.61-3.57z"/><path class="cls-2" d="M9 13.81H0v-6h.83A13.21 13.21 0 0 0 8.1 6.07 8 8 0 0 0 11.46.5h6.78v45.31H9z"/><path class="cls-1" d="M36 39.25a3.54 3.54 0 0 0 3.23 1.44 4.61 4.61 0 0 0 2.94-.86 5.63 5.63 0 0 0 1.7-2.4 13.2 13.2 0 0 0 .8-3.65q.19-2.11.19-4.61V27h-.13a8.2 8.2 0 0 1-3.3 2.78 11.72 11.72 0 0 1-5.22 1.06 11.35 11.35 0 0 1-5.12-1.06 9 9 0 0 1-3.42-2.94 12.94 12.94 0 0 1-1.92-4.48 24.77 24.77 0 0 1-.61-5.66q0-7.87 3.49-12T39.81.5a14.14 14.14 0 0 1 7.55 1.76 11.82 11.82 0 0 1 4.32 4.67 19.56 19.56 0 0 1 2 6.75 69.21 69.21 0 0 1 .45 8q0 4.86-.29 9.38a24.74 24.74 0 0 1-1.73 8 11.78 11.78 0 0 1-4.54 5.47q-3.11 2-8.67 2a22.67 22.67 0 0 1-4.7-.48 9.89 9.89 0 0 1-4-1.79 9.42 9.42 0 0 1-2.78-3.52 13.24 13.24 0 0 1-1.12-5.47h8.83a7.34 7.34 0 0 0 .87 3.98zm-.48-17.18a4.08 4.08 0 0 0 3.84 2 4.14 4.14 0 0 0 3.9-2q1.15-2 1.15-6.59a31.25 31.25 0 0 0-.19-3.58 9.42 9.42 0 0 0-.73-2.9A4.41 4.41 0 0 0 42 7.19a4.54 4.54 0 0 0-2.59-.67 4.66 4.66 0 0 0-2.66.67 4.17 4.17 0 0 0-1.5 1.89 9.77 9.77 0 0 0-.67 2.85q-.16 1.63-.16 3.55-.05 4.6 1.1 6.59zM85.57 8.44a59.91 59.91 0 0 0-5 8.51 85.89 85.89 0 0 0-6.62 19.1q-1.09 5-1.66 9.76h-9.7q.51-4.1 1.54-8.61a76.54 76.54 0 0 1 2.72-9.2A81.39 81.39 0 0 1 71 18.61a69.23 69.23 0 0 1 5.76-9.28h-19.1V1.4h27.9z"/><path class="cls-3" d="M89.41 45.81a24.89 24.89 0 0 1 .59-5.63 20.68 20.68 0 0 1 1.86-5A26.92 26.92 0 0 1 95 30.55 48.07 48.07 0 0 1 99.39 26l3.71-3.46a20.66 20.66 0 0 0 2.46-2.5 10.52 10.52 0 0 0 1.44-2.3 8.65 8.65 0 0 0 .67-2.5 26.41 26.41 0 0 0 .16-3.07q0-5.63-4.48-5.63a4.63 4.63 0 0 0-2.72.7 4.59 4.59 0 0 0-1.53 1.9 9.05 9.05 0 0 0-.7 2.86q-.16 1.6-.16 3.39h-8.83v-1.77q0-6.34 3.39-9.73T103.49.5q6.91 0 10.24 3.2t3.33 9.15a20.38 20.38 0 0 1-.38 4.06 15.37 15.37 0 0 1-1.22 3.62 16.69 16.69 0 0 1-2.18 3.36 31.67 31.67 0 0 1-3.28 3.36L104.9 32a19.2 19.2 0 0 0-3.2 3.62 10.5 10.5 0 0 0-1.47 3h17.09v7.17z"/><path class="cls-1" d="M142.4 28.09h-18v-7.55h18z"/></g></g></svg>