<svg xmlns="http://www.w3.org/2000/svg" width="598.698" height="82.46" viewBox="0 0 598.698 82.46"><defs><style>.cls-1{fill:#fff}</style></defs><title>アセット 19</title><g id="レイヤー_2" data-name="レイヤー 2"><path class="cls-1" d="M14.48 79.43H0V1.862h23.064l7.757 35.991a173.466 173.466 0 0 1 2.689 17.893h.207a169.474 169.474 0 0 1 2.275-17.893l7.757-35.991h22.96V79.43H52.23V55.021c0-15.41.31-30.82 1.24-46.23h-.207L37.75 79.43h-8.791L13.756 8.791h-.518c.932 15.41 1.242 30.82 1.242 46.23zm84.292-57.194a52.256 52.256 0 0 1 3.413 11.894h.207c1.034-6 3-10.342 4.758-14.686l6.929-17.582H129.9l-20.474 44.576V79.43H94.945V46.438L74.778 1.862H90.6zm94.74 3.206c.1-6.93-.518-13.755-8.481-13.755-4.86 0-7.964 1.965-7.964 7.24 0 5.9 3.724 8.17 8.273 11.066 4.758 3 13.549 8.791 17.583 12.721 4.964 4.861 6.516 9.515 6.516 16.237 0 14.686-9.722 22.34-23.892 22.34-17.375 0-23.58-9.722-23.58-23.581v-5.688h14.479v4.55c-.311 7.55 1.965 13.032 9.1 13.032 6.1 0 9-3.206 9-9.1 0-4.55-2.068-7.653-5.791-10.239-7.551-5.9-16.962-10.136-22.857-17.893a21.542 21.542 0 0 1-3.723-11.894C162.174 7.24 169.62 0 184.927 0c23.063 0 22.443 17.789 22.546 25.442zm22.65-23.58h48.3v11.376H247.6V79.43h-14.476V13.238h-16.962zm189.786 49.953c-.1 1.448-.207 3-.31 4.447-.725 14.169-5.482 25.029-21.616 25.029-23.788 0-25.339-15.1-25.339-35.785V34.44C359.3 14.686 360.855 0 384.022 0c12.928.207 20.167 6.826 21.2 20.064a37.511 37.511 0 0 1 .311 5.9h-14.271c-.62-4.964-.1-14.272-7.239-14.272-11.377 0-10.446 13.548-10.446 19.547v21.507c0 6.413.518 16.858 10.446 16.858 7.964 0 7.032-12.825 7.343-17.789zm11.585 27.615V1.862h14.479V36.3h.207c2.275-6.1 6-12.928 9.1-18.616L449.8 1.862h16.341l-19.133 33.3 20.065 44.268h-16.341L437.08 48.816l-5.067 8.377V79.43zm74.742-33.964a7.431 7.431 0 0 1-.2 2.125 2.2 2.2 0 0 1-2.3 1.449 7.79 7.79 0 0 1-4.725-1.774 3.673 3.673 0 0 1-1.374-2.824 5.332 5.332 0 0 1 2.149-3.7 13.35 13.35 0 0 1 3.649-2.125l-.025-3.849c-.2 0-.2 0-1.024.05-.375.025-.726.025-1.35.025-.375 0-1.075-.025-1.375-.025-.325-.024-.55-.024-.625-.024a4.789 4.789 0 0 0-.524.024l-.025-2.8a15.377 15.377 0 0 0 3.024.225c.25 0 .524 0 .875-.025.6-.024.725-.024 1-.024v-1.649a17.143 17.143 0 0 0-.149-2.875h3.124a15.339 15.339 0 0 0-.15 2.725v1.6a27.784 27.784 0 0 0 4.824-.95l.1 2.8c-.449.075-.925.15-2.648.45-.825.149-1.325.225-2.275.324v3.25a17.333 17.333 0 0 1 5.1-.7c4.174 0 7.147 2.549 7.147 6.1a5.552 5.552 0 0 1-5.673 5.7 4.036 4.036 0 0 1-4.1-2.774 8.364 8.364 0 0 1-.425-3.2 10.519 10.519 0 0 0 2.774-1.1 8.7 8.7 0 0 0-.05 1.1 4.821 4.821 0 0 0 .35 2.2 1.73 1.73 0 0 0 1.575.85 2.568 2.568 0 0 0 2.524-2.774c0-2.149-1.75-3.55-4.425-3.55a16.008 16.008 0 0 0-4.8.825zm-2.824-4.024c-1.875 1-2.975 2.1-2.975 3 0 .425.25.8.825 1.149a3.008 3.008 0 0 0 1.6.55c.425 0 .55-.225.55-1.05zm13.849-5.048a21.355 21.355 0 0 0-5-5.4l2.35-1.574a21.2 21.2 0 0 1 4.949 5.124zm9.752-4.794a23.359 23.359 0 0 1-3.725 4.349A10.26 10.26 0 0 0 507.378 34a18.171 18.171 0 0 0 4.524-5.649 4.6 4.6 0 0 0 .55-1.574l3 .45c-.226.425-.226.425-.875 1.749H526.1a20.231 20.231 0 0 0 3.124-.175v2.949a26.09 26.09 0 0 0-3.124-.15zm8.373 18a54.831 54.831 0 0 0-4.35-3.849 30.588 30.588 0 0 1-7.223 4.5 9.585 9.585 0 0 0-1.875-2.349 27.933 27.933 0 0 0 6.924-3.8 44.024 44.024 0 0 0-4.35-2.849l1.825-1.675c1.824 1.05 2.649 1.574 4.424 2.774a9.142 9.142 0 0 0 2.175-3.2l2.674 1.274c-.25.275-.524.65-1.074 1.4a20.69 20.69 0 0 1-1.625 2.075 88.265 88.265 0 0 1 4.349 3.624zm-9.7-10.723a20.968 20.968 0 0 0-2.874.15v-2.633a12.405 12.405 0 0 0 2.149.124h12.7a25.569 25.569 0 0 0 2.924-.1 17.176 17.176 0 0 0-.125 2.274 24.575 24.575 0 0 0 .7 6.424 3.223 3.223 0 0 0 .875 1.7c.35-.475.524-1.649.6-3.7a7.477 7.477 0 0 0 2.149 1.5c-.4 3.924-1.175 5.523-2.7 5.523-1.125 0-2.4-1.3-3.1-3.2a23.156 23.156 0 0 1-1.149-8.073zm.6-6.148a15.735 15.735 0 0 0 1.874.1h10.473a21.062 21.062 0 0 0 2.649-.125v2.474a18.706 18.706 0 0 0-2.649-.125H514.7a20.7 20.7 0 0 0-2.374.1zm22.228 16.236c-.025-.45-.051-.6-.125-1.175a43.525 43.525 0 0 1-.65-7.473 47.922 47.922 0 0 1 1.025-9.772 16.583 16.583 0 0 0 .375-2.325l3.3.351a34.49 34.49 0 0 0-1.575 7.473 41.8 41.8 0 0 0-.374 5.523c0 .55-.025.75-.051 1.375a25.565 25.565 0 0 1 1.3-3.3l2 .9a20.515 20.515 0 0 0-2.225 7.573c0 .15 0 .35.025.675zm10.647-9.872c-1.25 1.449-1.775 2.524-1.775 3.6 0 1.425 1.375 2.175 3.975 2.175a17.568 17.568 0 0 0 5.948-.95l.25 3.175a8.273 8.273 0 0 0-1.024.149 30.8 30.8 0 0 1-5.174.475c-3.1 0-5.1-.7-6.2-2.174a4.183 4.183 0 0 1-.75-2.449 8.169 8.169 0 0 1 2.3-5.149zm-4.124-8.273a18.015 18.015 0 0 0 4.623.4 27.6 27.6 0 0 0 6.8-.675l.15 3.023c-.2.025-.575.075-1.775.226a44.718 44.718 0 0 1-5.349.3 29.626 29.626 0 0 1-4.5-.275zm21.875.25c-.675 0-1.425.05-2.4.125v-3a15.274 15.274 0 0 0 2.35.125h3.975a13.663 13.663 0 0 0 2.274-.125 11.753 11.753 0 0 0-.075 1.574 19.352 19.352 0 0 0 2.674 9.9 20.216 20.216 0 0 0 4 4.8 17.886 17.886 0 0 0 3.7 2.7 10.6 10.6 0 0 0-2.124 2.825 25.192 25.192 0 0 1-6.074-5.874 19.026 19.026 0 0 1-2.2-3.7 16.151 16.151 0 0 1-1.274-3.549 20.956 20.956 0 0 1-3.574 7.548 24.978 24.978 0 0 1-6.2 5.648 7.009 7.009 0 0 0-2.05-2.624 19.729 19.729 0 0 0 5.023-3.924 18.5 18.5 0 0 0 4.274-7.4 19.774 19.774 0 0 0 .825-5.049zm24.349-3.299a24.383 24.383 0 0 0-.9 4.823c-.175 1.05-.274 1.9-.325 2.5h.075c.05-.15.05-.15.15-.55a10.106 10.106 0 0 1 1.574-2.975 5.969 5.969 0 0 1 4.749-2.55 5.235 5.235 0 0 1 4.274 2.25c1.249 1.675 1.8 3.7 1.8 6.648 0 4.823-2.249 8.423-6.448 10.272a21.362 21.362 0 0 1-4.9 1.4 9.573 9.573 0 0 0-1.475-2.949 14.588 14.588 0 0 0 5.474-1.425c2.9-1.475 4.224-3.849 4.224-7.648 0-3.6-1.2-5.6-3.349-5.6a3.723 3.723 0 0 0-2.7 1.325 11.984 11.984 0 0 0-3.148 8.073v.524l-3 .05a1.9 1.9 0 0 0 .025-.324v-.476c-.025-.725-.075-2.574-.075-3.074 0-2.024.15-4.8.35-6.523l.375-3.1a5.772 5.772 0 0 0 .075-.85zm-314.039-7.128A41.208 41.208 0 1 0 329.552 5.56a41.205 41.205 0 0 0-56.291 15.083zm51.874-7.429a32.273 32.273 0 0 1 8.875 7.536l-15.32 8.85a15.441 15.441 0 0 0-2.146-1.5 15.2 15.2 0 0 0-17.68 1.8l-15.247-8.8a32.378 32.378 0 0 1 41.518-7.886zm-20.862 36.134a9.353 9.353 0 1 1 12.778-3.428 9.361 9.361 0 0 1-12.778 3.428zm-25.6-19.554l15.313 8.839a15.209 15.209 0 0 0 10.173 17.027v17.604a32.388 32.388 0 0 1-25.486-43.47zm58.31 27.636a32.312 32.312 0 0 1-22.813 15.76V55.505a15.181 15.181 0 0 0 9.621-17.485l.088.139 15.19-8.767a32.31 32.31 0 0 1-2.086 28.038z" id="search_letter" data-name="search letter"/></g></svg>