<svg xmlns="http://www.w3.org/2000/svg" viewBox="0 0 30 18.25"><defs><style>.cls-1{fill:#b89bc7}</style></defs><title>アセット 3</title><g id="レイヤー_2" data-name="レイヤー 2"><path class="cls-1" d="M30 7.58l-.76.26L29.12 6h-4.59l-.74-6H.46L0 14.77h1.12a3.93 3.93 0 0 0 7.8 0H20a3.92 3.92 0 0 0 7.79 0h1.9l-.22-3.35.51.17zM7.84 14.77a2.46 2.46 0 0 1-.11.45v.06c0 .06-.11.26-.17.38l-.06.1a2.11 2.11 0 0 1-.21.31l-.1.12a1.75 1.75 0 0 1-.23.24l-.17.14-.23.17c-.08.05-.16.08-.24.12a1.51 1.51 0 0 1-.22.11 1.7 1.7 0 0 1-.32.1l-.19.06a3.31 3.31 0 0 1-.55.05 3.21 3.21 0 0 1-.55-.05l-.2-.06A1.86 1.86 0 0 1 4 17l-.23-.11a1.67 1.67 0 0 1-.23-.12 2.07 2.07 0 0 1-.24-.17l-.16-.14a1.81 1.81 0 0 1-.24-.24l-.1-.12a2.11 2.11 0 0 1-.21-.31.47.47 0 0 1 0-.1 2.64 2.64 0 0 1-.18-.38.14.14 0 0 0 0-.06 3 3 0 0 1-.16-.91 2.88 2.88 0 0 1 5.75 0 2.31 2.31 0 0 1 0 .46zM2.31 5l.06-2.85h8.16L10.58 5zm9.57 0l-.09-2.85h7.54L19.71 5zm10.74-2.81L23 5h-1.75l-.42-2.85zm4.12 12.58a2.46 2.46 0 0 1-.11.45.14.14 0 0 0 0 .06c-.05.13-.11.26-.17.38l-.06.1a2.11 2.11 0 0 1-.21.31l-.1.12a2.66 2.66 0 0 1-.23.24l-.17.14-.23.17-.24.12A1.51 1.51 0 0 1 25 17a2 2 0 0 1-.32.1l-.19.06a3.11 3.11 0 0 1-1.11 0l-.19-.06a2 2 0 0 1-.32-.1 1.51 1.51 0 0 1-.22-.11c-.08 0-.16-.07-.24-.12l-.23-.17-.18-.17a2.66 2.66 0 0 1-.23-.24l-.1-.12a2.11 2.11 0 0 1-.21-.31l-.06-.1c-.06-.12-.12-.25-.17-.38a.14.14 0 0 0 0-.06 3 3 0 0 1-.16-.91 2.88 2.88 0 0 1 5.75 0 2.31 2.31 0 0 1-.05.46zm2.69-4l-.78-.27V8.64l.78-.26z" id="main_NEWS"/></g></svg>