<svg xmlns="http://www.w3.org/2000/svg" viewBox="0 0 60.35 133.97"><defs><style>.cls-1{fill:#ff2d78;}.cls-2{fill:#fff;}</style></defs><title>アートボード 7</title><g id="car"><path class="cls-1" d="M30.17,0C9.23,0,5.05,4.42,4.51,10.36,1.53,43,2.72,118.07,2.72,123.83c0,4,4.7,6.69,11.28,8.41A68.13,68.13,0,0,0,30.17,134a68.13,68.13,0,0,0,16.17-1.73c6.58-1.72,11.28-4.39,11.28-8.41,0-5.77,1.19-80.88-1.79-113.47C55.29,4.42,51.12,0,30.17,0Z"/><path class="cls-2" d="M52.72,88.87l-5.46-13.7V43.85l5.46-12.9s.9,21.14.9,31.9S52.72,88.87,52.72,88.87Z"/><rect class="cls-1" x="46.35" y="60.96" width="8.17" height="3.28" transform="matrix(-1, 0, 0, -1, 100.87, 125.2)"/><ellipse class="cls-2" cx="48.86" cy="125.19" rx="4.07" ry="2.04" transform="translate(-39.87 24.26) rotate(-20)"/><path class="cls-2" d="M7.63,88.87l5.46-13.7V43.85L7.63,30.94s-.9,21.14-.9,31.9S7.63,88.87,7.63,88.87Z"/><path class="cls-2" d="M30.17,126.2a54.72,54.72,0,0,1-11-1v4s3.4,1.3,11,1.3,11-1.3,11-1.3v-4A54.72,54.72,0,0,1,30.17,126.2Z"/><path class="cls-2" d="M30.17,78.12a108.22,108.22,0,0,1-12.77-.85l-7.28,18a40.27,40.27,0,0,0,5.34,2,48.09,48.09,0,0,0,14.71,2.07,48.09,48.09,0,0,0,14.71-2.07,40.27,40.27,0,0,0,5.34-2l-7.28-18A108.22,108.22,0,0,1,30.17,78.12Z"/><path class="cls-2" d="M30.17,18.59a49.82,49.82,0,0,0-13.53,1.54,24.76,24.76,0,0,0-5.58,2.67L15.26,34a80.64,80.64,0,0,1,14.91-1.34A80.64,80.64,0,0,1,45.08,34l4.2-11.16a24.76,24.76,0,0,0-5.58-2.67A49.82,49.82,0,0,0,30.17,18.59Z"/><rect class="cls-1" x="5.83" y="60.96" width="8.17" height="3.28"/><ellipse class="cls-2" cx="11.49" cy="125.19" rx="2.04" ry="4.07" transform="translate(-110.08 93.17) rotate(-70)"/><path class="cls-1" d="M56.33,92.53s4.48-4.15,4-5.47-4,1-4,1Z"/><path class="cls-1" d="M4,92.53s-4.48-4.15-4-5.47,4,1,4,1Z"/></g></svg>