<svg xmlns="http://www.w3.org/2000/svg" width="31.58" height="48.8" viewBox="0 0 31.58 48.8">  <title>アセット 8</title>  <g id="レイヤー_2" data-name="レイヤー 2">    <g id="main">      <path d="M21.2,12.59a8.54,8.54,0,0,0-.93-2.46,6,6,0,0,0-1.63-1.86,3.93,3.93,0,0,0-2.4-.74q-3.33,0-4.8,3.71T10,23.53q0,4.1.26,7.42a28.74,28.74,0,0,0,.93,5.66,8.17,8.17,0,0,0,1.92,3.58,4.37,4.37,0,0,0,3.23,1.25A4.48,4.48,0,0,0,18.13,41,6,6,0,0,0,20,39.66a7.27,7.27,0,0,0,1.44-2.27A8.33,8.33,0,0,0,22,34.16V29.49H15.92V22.7H30.83V47.34H24V43.12h-.13a9.72,9.72,0,0,1-4,3.81A12.86,12.86,0,0,1,14.32,48a14.13,14.13,0,0,1-6.88-1.47A10.07,10.07,0,0,1,3.28,42a23.21,23.21,0,0,1-2-7.58A93.86,93.86,0,0,1,.75,24a61.34,61.34,0,0,1,.74-10.11A20.2,20.2,0,0,1,4,6.61,11.56,11.56,0,0,1,8.75,2.22,16.39,16.39,0,0,1,16.11.75Q23.66.75,27,4.49t3.33,10.72H21.49A12.54,12.54,0,0,0,21.2,12.59Z" style="fill: none;stroke: #323232;stroke-linecap: round;stroke-linejoin: round;stroke-width: 1.5px"/>    </g>  </g></svg>