<svg xmlns="http://www.w3.org/2000/svg" viewBox="0 0 60.35 111.57"><defs><style>.cls-1{fill:#64c864;}.cls-2{fill:#fff;}</style></defs><title>アートボード 8</title><g id="car"><path class="cls-1" d="M30.17,0C9.23,0,5.05,4.42,4.51,10.36,1.53,43,2.72,95.67,2.72,101.43c0,4,4.7,6.69,11.28,8.41a68.13,68.13,0,0,0,16.17,1.73,68.13,68.13,0,0,0,16.17-1.73c6.58-1.72,11.28-4.39,11.28-8.41,0-5.77,1.19-58.48-1.79-91.07C55.29,4.42,51.12,0,30.17,0Z"/><path class="cls-2" d="M52.72,70.05l-5.46-13.7V30.15L52.72,19s.9,14.23.9,25S52.72,70.05,52.72,70.05Z"/><rect class="cls-1" x="46.35" y="43.04" width="8.17" height="3.28" transform="translate(100.87 89.36) rotate(180)"/><ellipse class="cls-2" cx="48.86" cy="102.79" rx="4.07" ry="2.04" transform="translate(-32.21 22.91) rotate(-20)"/><path class="cls-2" d="M7.63,70.05l5.46-13.7V30.15L7.63,19s-.9,14.23-.9,25S7.63,70.05,7.63,70.05Z"/><path class="cls-2" d="M30.17,103.8a54.72,54.72,0,0,1-11-1v4s3.4,1.3,11,1.3,11-1.3,11-1.3v-4A54.72,54.72,0,0,1,30.17,103.8Z"/><path class="cls-2" d="M30.17,60.2a108.21,108.21,0,0,1-12.77-.85l-7.28,18a40.27,40.27,0,0,0,5.34,2,48.09,48.09,0,0,0,14.71,2.07,48.09,48.09,0,0,0,14.71-2.07,40.27,40.27,0,0,0,5.34-2l-7.28-18A108.21,108.21,0,0,1,30.17,60.2Z"/><path class="cls-2" d="M30.17,9.63a49.82,49.82,0,0,0-13.53,1.54,24.76,24.76,0,0,0-5.58,2.67l4.2,8.47A80.64,80.64,0,0,1,30.17,21a80.64,80.64,0,0,1,14.91,1.34l4.2-8.47a24.76,24.76,0,0,0-5.58-2.67A49.82,49.82,0,0,0,30.17,9.63Z"/><rect class="cls-1" x="5.83" y="43.04" width="8.17" height="3.28"/><ellipse class="cls-2" cx="11.49" cy="102.79" rx="2.04" ry="4.07" transform="translate(-89.03 78.43) rotate(-70)"/><path class="cls-1" d="M56.33,74.61s4.48-4.15,4-5.47-4,1-4,1Z"/><path class="cls-1" d="M4,74.61s-4.48-4.15-4-5.47,4,1,4,1Z"/></g></svg>