<svg xmlns="http://www.w3.org/2000/svg" viewBox="0 0 60.35 139.35"><defs><style>.cls-1{fill:#0082c8;}.cls-2{fill:#fff;}</style></defs><title>アートボード 9</title><g id="car"><path class="cls-1" d="M30.17,0C9.23,0,5.05,4.42,4.51,10.36,1.53,43,2.72,123.44,2.72,129.21c0,4,4.7,6.69,11.28,8.41a68.13,68.13,0,0,0,16.17,1.73,68.13,68.13,0,0,0,16.17-1.73c6.58-1.72,11.28-4.39,11.28-8.41,0-5.77,1.19-86.26-1.79-118.85C55.29,4.42,51.12,0,30.17,0Z"/><path class="cls-2" d="M52.72,83.49l-5.46-13.7V38.47l5.46-12.9s.9,21.14.9,31.9S52.72,83.49,52.72,83.49Z"/><rect class="cls-1" x="46.35" y="55.58" width="8.17" height="3.28" transform="translate(100.87 114.45) rotate(180)"/><ellipse class="cls-2" cx="48.86" cy="130.57" rx="4.07" ry="2.04" transform="translate(-41.71 24.58) rotate(-20)"/><path class="cls-2" d="M7.63,83.49l5.46-13.7V38.47L7.63,25.57s-.9,21.14-.9,31.9S7.63,83.49,7.63,83.49Z"/><path class="cls-2" d="M30.17,131.58a54.72,54.72,0,0,1-11-1v4s3.4,1.3,11,1.3,11-1.3,11-1.3v-4A54.72,54.72,0,0,1,30.17,131.58Z"/><path class="cls-2" d="M30.17,72.75a108.21,108.21,0,0,1-12.77-.85l-7.28,18a40.27,40.27,0,0,0,5.34,2,48.09,48.09,0,0,0,14.71,2.07,48.09,48.09,0,0,0,14.71-2.07,40.27,40.27,0,0,0,5.34-2l-7.28-18A108.21,108.21,0,0,1,30.17,72.75Z"/><path class="cls-2" d="M30.17,13.21a49.82,49.82,0,0,0-13.53,1.54,24.76,24.76,0,0,0-5.58,2.67l4.2,11.16a80.64,80.64,0,0,1,14.91-1.34,80.64,80.64,0,0,1,14.91,1.34l4.2-11.16a24.76,24.76,0,0,0-5.58-2.67A49.82,49.82,0,0,0,30.17,13.21Z"/><rect class="cls-1" x="5.83" y="55.58" width="8.17" height="3.28"/><ellipse class="cls-2" cx="11.49" cy="130.57" rx="2.04" ry="4.07" transform="translate(-115.13 96.71) rotate(-70)"/><path class="cls-1" d="M56.33,70.13s4.48-4.15,4-5.47-4,1-4,1Z"/><path class="cls-1" d="M4,70.13S-.46,66,0,64.66s4,1,4,1Z"/></g></svg>