<svg xmlns="http://www.w3.org/2000/svg" viewBox="0 0 600.37 177.19"><defs><style>.cls-1{fill:#323232;}.cls-2{fill:none;stroke:#323232;stroke-linecap:round;stroke-linejoin:round;stroke-width:3.6px;}.cls-3{fill:#fff;}</style></defs><title>アートボード 5</title><g id="main"><path class="cls-1" d="M56.69,151.68H54.23c-.84,6-2.23,11-4.49,15.09A18.7,18.7,0,0,0,57,174a14.68,14.68,0,0,0-2.57,3.15,21,21,0,0,1-7-6.91,23.84,23.84,0,0,1-8.83,6.91,17.56,17.56,0,0,0-2-3.11,19.65,19.65,0,0,0,8.83-7.34,51.56,51.56,0,0,1-3-9.1,22.21,22.21,0,0,1-2,3.42A17.54,17.54,0,0,0,38,158.75a1.59,1.59,0,0,1-.19,0,36.32,36.32,0,0,1-5.68,5.34v1.23c2.61-.27,5.38-.58,8-.88l0,2.92c-2.69.38-5.45.77-8.07,1.11v5c0,3.19-1.27,3.61-7.07,3.61A10.69,10.69,0,0,0,24,174c4.69.12,4.69,0,4.69-.58V169c-2.38.31-4.57.58-6.3.77a.82.82,0,0,1-.65.61l-1.19-3.84c2.19-.19,5-.46,8.14-.81v-3.42l1.42.08a25.74,25.74,0,0,0,2.61-2.42H28.81a39.35,39.35,0,0,1-6.15,4.57,28.94,28.94,0,0,0-2.34-2.65A32.16,32.16,0,0,0,24,159.48V157h3q1.21-1.1,2.3-2.3H20.66v-3.19h6.41v-3.34H22.39v-3.11h4.69v-4l4.26.23c0,.31-.27.54-.88.61v3.11h4.46V147A44.58,44.58,0,0,0,37.26,142l4,1.34a.88.88,0,0,1-1,.42,49.92,49.92,0,0,1-4.22,7.72h3.84v3.19H33.72q-1,1.21-2,2.3h3.8l.54-.15,2,1.31c2.65-3.88,4.42-10.52,5.38-17.09l4.42.92c-.12.31-.38.5-.92.5-.35,1.92-.73,3.88-1.23,5.76H56.69Zm-26.23-.15H32c.77-1.08,1.54-2.19,2.23-3.34H30.46Zm14.36.15,0,.19a52.84,52.84,0,0,0,2.92,10.79,42.85,42.85,0,0,0,2.8-11Z"/><path class="cls-1" d="M97.55,144.81V148H88.21a56.61,56.61,0,0,1,8.91,7.26L94,157.41a27.42,27.42,0,0,0-2.38-2.46c-9.26.46-18.93.77-25.16.92a.77.77,0,0,1-.65.58l-1.46-4,5.15,0a50.13,50.13,0,0,0,3-4.42h-9.6v-3.23H78.23v-3.73l4.65.27c0,.35-.31.54-.92.65v2.8Zm-5.8,13.1v15.55c0,3.3-1.46,3.69-8.49,3.61a12.6,12.6,0,0,0-1.11-3c1,0,2.15.08,3.07.08,2.65,0,2.84,0,2.84-.77V171H72.31v6.14H68.67V157.9Zm-3.69,3H72.31v2.42H88.06Zm-15.75,7.45H88.06v-2.46H72.31ZM77.5,148l.23.08c-.15.27-.46.38-1,.38-.84,1.15-2,2.57-3.19,3.92,4.53-.08,9.68-.15,14.71-.27-1.27-1-2.57-2-3.76-2.84l2-1.27Z"/><path class="cls-1" d="M116.32,149.92v4H125v3.34h-8.64v3.07h7.49v10.37c0,3.11-1.34,3.46-5.72,3.46a12.82,12.82,0,0,0-.92-3.07c.65,0,1.27,0,1.77,0,1.42,0,1.58,0,1.58-.5v-7h-4.19v13.44h-3.5V163.63h-4.07v10.45h-3.26V160.32h7.34v-3.07h-9.18v-3.34h2.88a19.49,19.49,0,0,0-2.42-1.15A43.63,43.63,0,0,0,106.76,142l4.11,1c-.12.27-.38.42-.88.42-.15,1-.35,2.07-.58,3.11h3.42v-5.49l4.38.27c0,.31-.31.5-.88.61v4.61h7.3v3.3Zm-7.76,0a30,30,0,0,1-1.38,4h5.65v-4Zm22.31-3.84c0,.31-.27.5-.84.61v20.78h-3.42V145.81Zm3.76-4.19,4.38.19c-.08.35-.31.58-.88.65v30c0,4-1.73,4.42-8.18,4.42a16.89,16.89,0,0,0-1.11-3.61c1.11,0,2.15,0,3,0h1.84c.65,0,.92-.19.92-.85Z"/><path class="cls-1" d="M151.73,148.19V156c0,6.14-.54,15.25-4,21.2a15.89,15.89,0,0,0-3-2c3.19-5.53,3.46-13.48,3.46-19.16V144.92h14.13v-3.8l4.69.27c0,.35-.27.54-.88.65v2.88h14.59v3.26Zm23.81,14.94,2.42,1.11a1,1,0,0,1-.46.42,19,19,0,0,1-7.11,7.26A50.91,50.91,0,0,0,181.11,174a14.6,14.6,0,0,0-2.11,3.15,45.32,45.32,0,0,1-12.48-3.3,52.15,52.15,0,0,1-13.33,3.26,13.21,13.21,0,0,0-1.54-3,53.67,53.67,0,0,0,11.25-2.23,19.86,19.86,0,0,1-5.38-5l1.88-.69H153.3v-2.92h21.58ZM174.08,161H158.79v-6.07H153V152h5.76v-3.15l4.34.27c0,.31-.31.54-.88.65V152h8.22v-3.15l4.49.27c0,.31-.27.54-.88.65V152h6.41v2.92h-6.41ZM161,166.16a17.43,17.43,0,0,0,5.65,4.22,18.05,18.05,0,0,0,5.72-4.22Zm9.49-11.25h-8.22v3.3h8.22Z"/><path class="cls-1" d="M70,22.08h-24v91.55H24V22.08H0V4H70Z"/><path class="cls-1" d="M123.49,4q13.82,0,21.5,7t7.68,21.27q0,11.06-4.45,18t-13.82,9v.31q8.29,1.23,12.13,5.38t4.76,13.36q.31,3.07.46,6.68t.31,8.06q.31,8.76.92,13.36.92,4.61,4,6.3v.92H133a11.84,11.84,0,0,1-2.15-5.3,59.06,59.06,0,0,1-.61-6.22l-.61-21q-.31-6.45-3.23-10.14t-9.83-3.69H104.75v46.39H82.64V4ZM114,51.87q8,0,12.29-3.76t4.3-12.67q0-15.21-15.36-15.21H104.75V51.87Z"/><path class="cls-2" d="M222.87,4l29,109.67h-23l-5.07-23.19H194.61l-5.07,23.19h-23L195.53,4ZM220,72.3,209.36,23H209L198.45,72.3Z"/><path class="cls-1" d="M266.8,4h22.12V113.62H266.8Z"/><path class="cls-3" d="M360.65,79.06H361V4h20.27V113.62H356l-27-76.8h-.31v76.8H308.43V4h25.5Z"/><path class="cls-1" d="M400.74,4h22.12V113.62H400.74Z"/><path class="cls-1" d="M494.59,79.06h.31V4h20.28V113.62H490l-27-76.8h-.31v76.8H442.36V4h25.5Z"/><path class="cls-2" d="M575.46,30.22a20.54,20.54,0,0,0-2.23-5.91,14.36,14.36,0,0,0-3.92-4.45,9.41,9.41,0,0,0-5.76-1.77q-8,0-11.52,8.91T548.5,56.48q0,9.83.61,17.82a68.8,68.8,0,0,0,2.23,13.59,19.59,19.59,0,0,0,4.61,8.6,10.5,10.5,0,0,0,7.76,3,10.75,10.75,0,0,0,4.38-1.08,14.49,14.49,0,0,0,4.45-3.23A17.47,17.47,0,0,0,576,89.74,20,20,0,0,0,577.38,82V70.77H562.78V54.49h35.79v59.14H582.29V103.48H582a23.32,23.32,0,0,1-9.6,9.14,30.88,30.88,0,0,1-13.44,2.69q-10.14,0-16.51-3.53a24.14,24.14,0,0,1-10-10.91,55.69,55.69,0,0,1-4.84-18.2,225,225,0,0,1-1.23-25.11,147,147,0,0,1,1.77-24.27,48.48,48.48,0,0,1,6.07-17.43A27.72,27.72,0,0,1,545.58,5.33q7.06-3.53,17.66-3.53,18.12,0,26.11,9t8,25.73h-21.2A30,30,0,0,0,575.46,30.22Z"/></g></svg>