<svg xmlns="http://www.w3.org/2000/svg" width="515.331" height="525.789" viewBox="0 0 515.331 525.789"><defs><style>.cls-1,.cls-4{fill:#b8d200;}.cls-1,.cls-3{isolation:isolate;}.cls-2{fill:#d0e259;}</style></defs><title>アートボード 5</title><g id="BLOG"><polygon class="cls-1" points="515.331 525.789 0 505.789 0 8.755 515.331 0 515.331 525.789"/><path class="cls-2" d="M340.908,258.091H174.423v135.75h.3a83.219,83.219,0,0,0,165.893,0h.3Z"/><g class="cls-3"><path class="cls-4" d="M257.666,448.407a1.8,1.8,0,0,1-1.01-.31l-15.82-10.727a1.8,1.8,0,0,1,2.021-2.98l14.809,10.042,14.809-10.042a1.8,1.8,0,0,1,2.021,2.98L258.676,448.1A1.8,1.8,0,0,1,257.666,448.407Z"/><path class="cls-4" d="M257.666,436.311a1.8,1.8,0,0,1-1.01-.31l-15.82-10.727a1.8,1.8,0,0,1,2.021-2.98l14.809,10.042,14.809-10.042a1.8,1.8,0,0,1,2.021,2.98L258.676,436A1.8,1.8,0,0,1,257.666,436.311Z"/></g></g></svg>