<svg xmlns="http://www.w3.org/2000/svg" width="1075.19" height="176.109" viewBox="0 0 1075.19 176.109"><defs><style>.cls-1{fill:#323232;}.cls-2{fill:#fff;}</style></defs><title>アートボード 5</title><g id="main"><path class="cls-1" d="M70.042,22.075H46.08v91.546H23.961V22.075H0V3.951H70.042Z"/><path class="cls-1" d="M103.526,82.594a36.518,36.518,0,0,0,.615,6.989,12.169,12.169,0,0,0,2.3,5.3,11.317,11.317,0,0,0,4.531,3.379,18.028,18.028,0,0,0,7.142,1.229,14.128,14.128,0,0,0,9.139-3.3q4.068-3.3,4.071-10.214a18.335,18.335,0,0,0-1-6.375,12.628,12.628,0,0,0-3.3-4.838,23.484,23.484,0,0,0-6.067-3.917,87.405,87.405,0,0,0-9.293-3.61,79.35,79.35,0,0,1-12.749-5.376,34.3,34.3,0,0,1-8.986-6.835,24.445,24.445,0,0,1-5.3-9.062,38.113,38.113,0,0,1-1.689-11.9q0-16.279,9.062-24.269T116.889,1.8a54.083,54.083,0,0,1,13.594,1.613,28.514,28.514,0,0,1,10.752,5.222,24.456,24.456,0,0,1,7.066,9.216,32.457,32.457,0,0,1,2.534,13.44v3.072h-21.2q0-7.834-2.765-12.058t-9.216-4.224a15.387,15.387,0,0,0-6.144,1.075A10.359,10.359,0,0,0,107.6,22a9.761,9.761,0,0,0-2,4.07,20.8,20.8,0,0,0-.538,4.761,15.829,15.829,0,0,0,2.15,8.525q2.149,3.456,9.216,6.375l17.05,7.373a52.316,52.316,0,0,1,10.291,5.76,28.132,28.132,0,0,1,6.375,6.451,21.5,21.5,0,0,1,3.3,7.6,42.558,42.558,0,0,1,.922,9.216q0,17.359-10.061,25.267t-28.032,7.91q-18.742,0-26.8-8.141T81.407,83.823V79.368h22.118Z"/><path class="cls-2" d="M208.281,117.111a70.184,70.184,0,0,1-13.4-1.262,28.4,28.4,0,0,1-11.963-5.33,27.461,27.461,0,0,1-8.4-11.4c-2.03-4.807-3.06-11.089-3.06-18.671V3.95a1.8,1.8,0,0,1,1.8-1.8h22.118a1.8,1.8,0,0,1,1.8,1.8V80.443a47.881,47.881,0,0,0,.516,7.325,15.472,15.472,0,0,0,1.778,5.369A8.814,8.814,0,0,0,202.8,96.47a13.093,13.093,0,0,0,11.008.013,9.023,9.023,0,0,0,3.277-3.346,15.561,15.561,0,0,0,1.778-5.369,48.163,48.163,0,0,0,.516-7.325V3.95a1.8,1.8,0,0,1,1.8-1.8H243.3a1.8,1.8,0,0,1,1.8,1.8V80.443c0,7.173-1.031,13.224-3.063,17.986a29.47,29.47,0,0,1-8.354,11.519,28.457,28.457,0,0,1-11.962,5.737A62.827,62.827,0,0,1,208.281,117.111ZM175.06,5.75V80.443c0,7.1.934,12.909,2.777,17.271a23.931,23.931,0,0,0,7.269,9.946,24.83,24.83,0,0,0,10.463,4.655,64.42,64.42,0,0,0,25.382-.145,24.892,24.892,0,0,0,10.463-5.015,25.924,25.924,0,0,0,7.314-10.139c1.84-4.312,2.773-9.889,2.773-16.573V5.75H222.983V80.443a51.755,51.755,0,0,1-.559,7.879,19.132,19.132,0,0,1-2.215,6.612,12.709,12.709,0,0,1-4.558,4.644,16.567,16.567,0,0,1-14.644.012,12.486,12.486,0,0,1-4.655-4.656,19.031,19.031,0,0,1-2.215-6.612,51.475,51.475,0,0,1-.559-7.879V5.75Z"/><path class="cls-1" d="M307.428,23.534q-2.844-5.45-10.368-5.453a10.361,10.361,0,0,0-6.835,2.227q-2.689,2.228-4.224,7.219a61.438,61.438,0,0,0-2.15,13.056q-.616,8.064-.615,19.738a191.541,191.541,0,0,0,.845,20.122,44.59,44.59,0,0,0,2.611,11.9q1.764,4.226,4.454,5.683a12.809,12.809,0,0,0,6.221,1.459,14.715,14.715,0,0,0,5.453-1A9.24,9.24,0,0,0,307.2,94.5a26,26,0,0,0,2.918-8.448,77.2,77.2,0,0,0,1.075-14.362H333.31a99,99,0,0,1-1.383,16.9,38.264,38.264,0,0,1-5.146,13.978,25.57,25.57,0,0,1-10.6,9.369q-6.836,3.377-17.741,3.379-12.441,0-19.814-3.994a26.937,26.937,0,0,1-11.29-11.52,50.744,50.744,0,0,1-5.069-17.971,211.206,211.206,0,0,1-1.152-23.04,211.8,211.8,0,0,1,1.152-22.963,50.9,50.9,0,0,1,5.069-18.048,28.39,28.39,0,0,1,11.29-11.75Q286,1.8,298.443,1.8q11.826,0,18.663,3.84a26.146,26.146,0,0,1,10.214,9.753,33.849,33.849,0,0,1,4.224,12.749,105.171,105.171,0,0,1,.845,12.826H310.27Q310.27,28.988,307.428,23.534Z"/><path class="cls-1" d="M374.166,3.951V45.883h25.8V3.951h22.118v109.67H399.97V64.93h-25.8v48.691H352.047V3.951Z"/><path class="cls-2" d="M444.668,3.951h22.118v109.67H444.668Z"/><path class="cls-1" d="M518.4,46.344h.307l15.36-42.394h23.961L529.608,70.459v43.162H507.49V70.459L479.074,3.951h24.883Z"/><path class="cls-1" d="M605.639,3.951l29.03,109.67h-23.04l-5.068-23.194H577.376l-5.069,23.194h-23.04L578.3,3.951ZM602.72,72.3,592.122,23h-.307L581.216,72.3Z"/><path class="cls-2" d="M709.778,117.111c-12.934,0-22.382-2.918-28.082-8.674s-8.585-14.031-8.585-24.614V79.368a1.8,1.8,0,0,1,1.8-1.8h22.118a1.8,1.8,0,0,1,1.8,1.8v3.226a34.906,34.906,0,0,0,.581,6.643,10.46,10.46,0,0,0,1.952,4.531,9.473,9.473,0,0,0,3.83,2.84,16.374,16.374,0,0,0,6.429,1.082,12.274,12.274,0,0,0,8-2.9c2.291-1.859,3.4-4.743,3.4-8.817a16.647,16.647,0,0,0-.886-5.749,10.907,10.907,0,0,0-2.844-4.149,21.839,21.839,0,0,0-5.6-3.6,86,86,0,0,0-9.1-3.531,81.5,81.5,0,0,1-13.039-5.5,36.24,36.24,0,0,1-9.451-7.2,26.347,26.347,0,0,1-5.685-9.721,40.06,40.06,0,0,1-1.78-12.465c0-11.344,3.254-19.963,9.672-25.619C690.672,2.839,699.444,0,710.392,0a56.132,56.132,0,0,1,14.045,1.67,30.438,30.438,0,0,1,11.421,5.556,26.35,26.35,0,0,1,7.585,9.883,34.381,34.381,0,0,1,2.695,14.181v3.072a1.8,1.8,0,0,1-1.8,1.8h-21.2a1.8,1.8,0,0,1-1.8-1.8c0-4.841-.831-8.566-2.471-11.072-1.5-2.294-4.024-3.409-7.709-3.409a13.7,13.7,0,0,0-5.423.925,8.632,8.632,0,0,0-3.25,2.339,7.921,7.921,0,0,0-1.631,3.332,19.1,19.1,0,0,0-.491,4.354,14.151,14.151,0,0,0,1.878,7.573c1.225,1.97,4.042,3.874,8.375,5.662L727.7,51.45a54.381,54.381,0,0,1,10.656,5.972,30.05,30.05,0,0,1,6.777,6.87,23.391,23.391,0,0,1,3.578,8.235,44.531,44.531,0,0,1,.965,9.606c0,12.1-3.616,21.074-10.749,26.682C731.923,114.32,722.117,117.111,709.778,117.111ZM676.711,81.168v2.654c0,9.6,2.538,17.028,7.543,22.08s13.587,7.608,25.524,7.608c11.512,0,20.569-2.532,26.919-7.525,6.22-4.891,9.374-12.916,9.374-23.853a40.951,40.951,0,0,0-.879-8.825,19.814,19.814,0,0,0-3.028-6.973,26.481,26.481,0,0,0-5.972-6.032,50.8,50.8,0,0,0-9.935-5.552l-17.041-7.369c-5.087-2.1-8.377-4.417-10.03-7.076a17.662,17.662,0,0,1-2.422-9.475,22.692,22.692,0,0,1,.585-5.172,11.592,11.592,0,0,1,2.362-4.807,12.183,12.183,0,0,1,4.582-3.344,17.206,17.206,0,0,1,6.866-1.226c4.926,0,8.533,1.7,10.722,5.038,1.805,2.76,2.819,6.536,3.021,11.244h17.635V31.291a30.849,30.849,0,0,0-2.375-12.7,22.781,22.781,0,0,0-6.547-8.55,26.865,26.865,0,0,0-10.082-4.887A52.544,52.544,0,0,0,710.392,3.6c-10.046,0-18.017,2.536-23.693,7.538-5.609,4.943-8.452,12.654-8.452,22.918a36.507,36.507,0,0,0,1.6,11.341,22.777,22.777,0,0,0,4.913,8.405,32.666,32.666,0,0,0,8.52,6.473,77.928,77.928,0,0,0,12.459,5.25,89.518,89.518,0,0,1,9.488,3.688,25.374,25.374,0,0,1,6.531,4.23,14.471,14.471,0,0,1,3.761,5.526,20.193,20.193,0,0,1,1.112,7c0,5.155-1.594,9.062-4.736,11.612a15.952,15.952,0,0,1-10.273,3.7,19.872,19.872,0,0,1-7.858-1.377,13.145,13.145,0,0,1-5.232-3.92,14,14,0,0,1-2.655-6.066,38.495,38.495,0,0,1-.647-7.332V81.168Z"/><path class="cls-1" d="M826.206,22.075H802.245v91.546H780.126V22.075H756.165V3.951h70.042Z"/><path class="cls-1" d="M834.577,35.823a50.908,50.908,0,0,1,5.069-18.048,28.391,28.391,0,0,1,11.29-11.75Q858.308,1.8,870.75,1.8t19.814,4.224a28.391,28.391,0,0,1,11.29,11.75,50.9,50.9,0,0,1,5.069,18.048,211.808,211.808,0,0,1,1.152,22.963,211.21,211.21,0,0,1-1.152,23.04A50.743,50.743,0,0,1,901.854,99.8a26.938,26.938,0,0,1-11.29,11.52q-7.373,3.992-19.814,3.994t-19.814-3.994a26.938,26.938,0,0,1-11.29-11.52,50.754,50.754,0,0,1-5.069-17.971,211.21,211.21,0,0,1-1.152-23.04A211.808,211.808,0,0,1,834.577,35.823Zm21.5,41.779a52.187,52.187,0,0,0,2.15,12.6,13.987,13.987,0,0,0,4.608,7.066,15.161,15.161,0,0,0,15.821,0,13.99,13.99,0,0,0,4.608-7.066,52.308,52.308,0,0,0,2.15-12.6q.536-7.754.538-18.816t-.538-18.739a53.287,53.287,0,0,0-2.15-12.6,14.026,14.026,0,0,0-4.608-7.142,15.161,15.161,0,0,0-15.821,0,14.023,14.023,0,0,0-4.608,7.142,53.162,53.162,0,0,0-2.15,12.6q-.541,7.682-.538,18.739T856.081,77.6Z"/><path class="cls-2" d="M961.988,3.951q13.824,0,21.5,6.989t7.68,21.274q0,11.059-4.455,18.048t-13.824,8.986v.307q8.294,1.231,12.134,5.376t4.762,13.363q.305,3.075.46,6.682t.308,8.064q.305,8.755.921,13.363.921,4.608,3.994,6.3v.922H971.511a11.841,11.841,0,0,1-2.15-5.3,59.052,59.052,0,0,1-.615-6.221l-.614-21.043q-.31-6.451-3.226-10.137t-9.831-3.687H943.249v46.387H921.13V3.951Zm-9.523,47.923q7.985,0,12.288-3.763t4.3-12.672q0-15.207-15.36-15.207H943.249V51.874Z"/><path class="cls-1" d="M1035.562,46.344h.308l15.36-42.394h23.961l-28.416,66.509v43.162h-22.118V70.459L996.24,3.951h24.883Z"/><path class="cls-1" d="M763.257,146.844a45.2,45.2,0,0,1,3.687,10.177l-3.61,1.114A45.178,45.178,0,0,0,759.762,148Zm28.344.845a1.106,1.106,0,0,1-1.114.538c-3.994,13.711-10.292,21.623-22.314,27.038a20.248,20.248,0,0,0-2.573-2.957c11.561-4.878,17.59-12.252,21.124-26.232Zm-16.169-2.919a65.9,65.9,0,0,1,1.882,10.831l-3.879.538a62.586,62.586,0,0,0-1.844-10.831Z"/><path class="cls-1" d="M830.5,159.518H817.557c-.845,7.028-3.457,12.482-10.715,16.592a24.244,24.244,0,0,0-3.073-2.5c6.606-3.572,9.141-7.912,9.909-14.095H798.661v-3.533h15.324c.077-2.266.115-4.455.115-7.144a118.5,118.5,0,0,1-12.405,1.882,21.878,21.878,0,0,0-1.037-3.034c12.1-1.306,20.624-3.841,23.543-5.07l2.727,3.034a.859.859,0,0,1-.576.154,1.576,1.576,0,0,1-.422-.038,70.56,70.56,0,0,1-8.45,2.419l1.5.115a.97.97,0,0,1-.96.768c-.039,2.535-.039,4.762-.192,6.913H830.5Z"/><path class="cls-1" d="M870.475,150.416a.907.907,0,0,1-.615.422,38.394,38.394,0,0,1-8.68,13.711,18.775,18.775,0,0,0-3.226-2.266,27.711,27.711,0,0,0,6.644-9.525l-12.367,2.381,3.84,20.048-3.917.691-3.8-19.971-10.37,2-.768-3.61,10.447-2-1.882-9.678,5.185-.422c.039.5-.307.806-.96,1.037l1.536,8.334,15.363-2.919.422-.269Z"/><path class="cls-1" d="M902.422,146.421a1.14,1.14,0,0,1-.653.538,59.639,59.639,0,0,1-7.412,12.943A146.081,146.081,0,0,1,907.8,172.307l-3.379,2.919A118.317,118.317,0,0,0,891.9,162.9a60.891,60.891,0,0,1-14.172,12.328,22.4,22.4,0,0,0-2.8-2.957,52.518,52.518,0,0,0,21.623-23.658H878.5v-3.649h20.163l.691-.23Z"/><path class="cls-1" d="M935.985,163.282a114.038,114.038,0,0,0-12.713-6.03v18.589h-4.033V142.235l5.146.307c-.038.422-.384.729-1.114.883V154.41l.768-1.075a134.633,134.633,0,0,1,14.1,6.222Z"/><path class="cls-1" d="M946.54,156.561h32.069V160.4H948.076a1.61,1.61,0,0,1-1.229.691Z"/><path class="cls-1" d="M989.012,163.627V144.885l4.916.269c-.039.346-.384.653-1.037.73v17.744Zm22.122-20.355c-.039.384-.346.653-1,.73v12.1c0,8.1-2.727,15.593-13.634,19.933a22.432,22.432,0,0,0-2.881-2.842c10.37-3.917,12.559-10.37,12.559-17.091V143Z"/><path class="cls-1" d="M1020.269,156.561h32.069V160.4h-30.533a1.61,1.61,0,0,1-1.229.691Z"/></g></svg>