<svg xmlns="http://www.w3.org/2000/svg" width="515.331" height="517.034" viewBox="0 0 515.331 517.034"><defs><style>.cls-1,.cls-4{fill:#dbe87f;}.cls-1,.cls-2,.cls-3{isolation:isolate;}.cls-2{fill:#b8d200;}</style></defs><title>アートボード 6</title><g id="BLOG"><polygon class="cls-1" points="515.331 505.484 0 517.034 0 0 515.331 7.714 515.331 505.484"/><path class="cls-2" d="M340.908,244.835H174.423v135.75h.057a83.215,83.215,0,0,0,166.371,0h.057Z"/><g class="cls-3"><path class="cls-4" d="M257.666,439.652a1.8,1.8,0,0,1-1.01-.31l-15.82-10.727a1.8,1.8,0,0,1,2.021-2.98l14.809,10.042,14.809-10.042a1.8,1.8,0,0,1,2.021,2.98l-15.82,10.727A1.8,1.8,0,0,1,257.666,439.652Z"/><path class="cls-4" d="M257.666,427.556a1.8,1.8,0,0,1-1.01-.31l-15.82-10.727a1.8,1.8,0,0,1,2.021-2.98l14.809,10.042,14.809-10.042a1.8,1.8,0,0,1,2.021,2.98l-15.82,10.727A1.8,1.8,0,0,1,257.666,427.556Z"/></g></g></svg>