<svg xmlns="http://www.w3.org/2000/svg" viewBox="0 0 339.71 47.3"><defs><style>.cls-1{fill:#9163a7}.cls-2{fill:none;stroke:#9163a7;stroke-miterlimit:10;stroke-width:1.43px}.cls-3{fill:#fff}</style></defs><title>アセット 1</title><g id="レイヤー_2" data-name="レイヤー 2"><g id="gnav"><path class="cls-1" d="M62.12 4.66h25.5v6h-8.9v34.95h-7.64V10.67h-9z"/><path class="cls-2" d="M91.83 21.86C92.15 11.43 93 3.68 105.2 3.68s13 7.75 13.38 18.18v5.84c0 10.92-.82 18.89-13.38 18.89s-13.37-8-13.37-18.89zm7.86 9.66c0 3.39.27 8.9 5.51 8.9 5.46 0 5.52-5.62 5.52-9.55V20.38c0-3.27.16-10.53-5.52-10.53-6 0-5.51 7.15-5.51 10.32z"/><path class="cls-1" d="M125.57 45.61V4.66h15.61c7.32 0 9.56 5.9 9.56 11.63 0 3.49-.93 7.42-3.83 9.72a13.33 13.33 0 0 1-8.57 2.45h-5.13v17.15zm7.64-23.15h4.1c3.33 0 5.56-1.42 5.56-6.39 0-4.69-1.85-5.4-6.16-5.4h-3.5z"/><path class="cls-2" d="M156 45.61V4.66h7.64v41z"/><path class="cls-1" d="M195.34 31c-.05.76-.11 1.58-.16 2.35-.38 7.48-2.89 13.21-11.41 13.21-12.56 0-13.38-8-13.38-18.89v-5.81c.33-10.43 1.15-18.18 13.38-18.18 6.82.11 10.65 3.6 11.19 10.59a20.27 20.27 0 0 1 .17 3.11h-7.54c-.33-2.62-.05-7.53-3.82-7.53-6 0-5.51 7.15-5.51 10.32v11.35c0 3.39.27 8.9 5.51 8.9 4.2 0 3.71-6.77 3.88-9.39z"/><path class="cls-2" d="M217.08 17.11c0-3.66-.28-7.26-4.48-7.26-2.57 0-4.21 1-4.21 3.82 0 3.11 2 4.31 4.37 5.84a69.81 69.81 0 0 1 9.24 6.72 10.68 10.68 0 0 1 3.44 8.57c0 7.75-5.13 11.79-12.61 11.79-9.17 0-12.45-5.13-12.45-12.45v-3h7.65v2.4c-.17 4 1 6.88 4.8 6.88 3.22 0 4.75-1.69 4.75-4.8a6.2 6.2 0 0 0-3.06-5.41c-4-3.11-8.95-5.35-12.06-9.44a11.37 11.37 0 0 1-2-6.28c0-7 3.93-10.81 12-10.81 12.18 0 11.85 9.39 11.91 13.43z"/><path class="cls-1" d="M243.45 45.61V4.66h7.64V39.6h14.2v6z"/><path class="cls-2" d="M270.8 45.61V4.66h7.65v41z"/><path class="cls-1" d="M301.54 17.11c.06-3.66-.27-7.26-4.48-7.26-2.56 0-4.2 1-4.2 3.82 0 3.11 2 4.31 4.37 5.84a69.81 69.81 0 0 1 9.28 6.72A10.68 10.68 0 0 1 310 34.8c0 7.75-5.13 11.79-12.61 11.79-9.17 0-12.45-5.13-12.45-12.45v-3h7.64v2.4c-.16 4 1 6.88 4.81 6.88 3.22 0 4.75-1.69 4.75-4.8a6.22 6.22 0 0 0-3.14-5.41c-4-3.11-8.95-5.35-12.07-9.44a11.44 11.44 0 0 1-2-6.28c0-7 3.93-10.81 12-10.81 12.17 0 11.85 9.39 11.9 13.43z"/><path class="cls-2" d="M313.5 4.66H339v6h-8.9v34.95h-7.65V10.67h-8.95z"/><path class="cls-1" d="M46.56 23.28A23.28 23.28 0 1 1 23.28 0a23.28 23.28 0 0 1 23.28 23.28z"/><path class="cls-3" d="M23.28 9.31a14 14 0 0 0-11 22.7l-1.17 5.63 5.23-2.12a14 14 0 1 0 7-26.21zm-7 16.41a2.24 2.24 0 1 1 2.24-2.24 2.24 2.24 0 0 1-2.2 2.24zm7 0a2.24 2.24 0 1 1 2.24-2.24 2.24 2.24 0 0 1-2.24 2.24zm7 0a2.24 2.24 0 1 1 2.24-2.24 2.24 2.24 0 0 1-2.28 2.24z"/></g></g></svg>