<svg xmlns="http://www.w3.org/2000/svg" viewBox="0 0 312.41 47.3"><defs><style>.cls-1{fill:#ff7900}.cls-2,.cls-4{fill:none;stroke-miterlimit:10}.cls-2{stroke:#ff7900;stroke-width:1.43px}.cls-3{fill:#fff}.cls-4{stroke:#fff;stroke-linecap:round;stroke-width:2.6px}</style></defs><title>アセット 1</title><g id="レイヤー_2" data-name="レイヤー 2"><g id="gnav"><path class="cls-1" d="M83.2 4.66h7.64v41h-8L76.92 31a137.63 137.63 0 0 1-5.46-16.27h-.11c.27 3.38.6 7.53.82 11.68s.38 8.19.38 11.47v7.7h-7.64V4.66h7.91l6 14.9a135.4 135.4 0 0 1 5.46 16.27h.11c-.27-3.71-.54-7.69-.76-11.62s-.38-7.87-.38-11.52z"/><path class="cls-2" d="M98.05 45.61V4.66h21.51v6h-13.87V21h12.78v6h-12.78v12.6h13.87v6z"/><path class="cls-1" d="M154.07 25.84c.76 4.1 1.14 9.34 1.69 14.58h.11c.11-1 .16-2 .27-3 .27-3.49.6-7 1.15-10.48l3.06-22.33h7.91l-7.59 41h-9.17l-3.06-16.16c-.82-4.32-1.09-8.68-1.63-13h-.11c-.55 4.37-.82 8.73-1.64 13.05l-2.73 16.16h-9.17l-7.81-41h7.92L136.71 27c.54 3.49.87 7 1.14 10.48.11 1 .17 2 .22 3h.11c.6-5.24 1-10.48 1.75-14.58l3.71-21.18H150z"/><path class="cls-2" d="M188.85 17.11c.05-3.66-.28-7.26-4.48-7.26-2.57 0-4.2 1-4.2 3.82 0 3.11 2 4.31 4.36 5.84a69.27 69.27 0 0 1 9.29 6.72 10.68 10.68 0 0 1 3.44 8.57c0 7.75-5.14 11.79-12.62 11.79-9.17 0-12.44-5.13-12.44-12.45v-3h7.64v2.4c-.16 4 1 6.88 4.8 6.88 3.22 0 4.75-1.69 4.75-4.8a6.21 6.21 0 0 0-3-5.41c-4-3.11-9-5.35-12.07-9.44a11.37 11.37 0 0 1-2-6.28c0-7 3.94-10.81 12-10.81 12.17 0 11.84 9.39 11.9 13.43z"/><path class="cls-1" d="M216.15 45.61V4.66h7.64V39.6H238v6z"/><path class="cls-2" d="M243.5 45.61V4.66h7.65v41z"/><path class="cls-1" d="M274.24 17.11c.06-3.66-.27-7.26-4.48-7.26-2.56 0-4.2 1-4.2 3.82 0 3.11 2 4.31 4.37 5.84a69.81 69.81 0 0 1 9.28 6.72 10.68 10.68 0 0 1 3.44 8.57c0 7.75-5.13 11.79-12.61 11.79-9.17 0-12.45-5.13-12.45-12.45v-3h7.64v2.4c-.16 4 1 6.88 4.81 6.88 3.22 0 4.75-1.69 4.75-4.8a6.22 6.22 0 0 0-3.06-5.41c-4-3.11-9-5.35-12.07-9.44a11.44 11.44 0 0 1-2-6.28c0-7 3.93-10.81 12-10.81 12.17 0 11.85 9.39 11.9 13.43z"/><path class="cls-2" d="M286.2 4.66h25.5v6h-8.9v34.95h-7.65V10.67h-8.95z"/><path class="cls-1" d="M46.56 23.28A23.28 23.28 0 1 1 23.28 0a23.28 23.28 0 0 1 23.28 23.28z"/><path class="cls-3" d="M39 25.62l-5.07.91-10.29-13.15-9.54 17.51 16.56 1.86 2.2 4.69a12.3 12.3 0 0 0 4-4.89C39 28.25 39 25.62 39 25.62z"/><path class="cls-4" d="M5.83 24.1l7.29.28m-6.18-8.53l8.35 4.54m-2.03-9.95l4.21 5.95"/></g></g></svg>