<svg xmlns="http://www.w3.org/2000/svg" width="638.59" height="289.713" viewBox="0 0 638.59 289.713"><defs><style>.cls-1{fill:#323232}.cls-2{fill:#fff}</style></defs><title>アートボード 17</title><g id="main"><path class="cls-1" d="M44.875 12.752a1.264 1.264 0 0 1-.451.631c-.676 13.383-1.982 21.538-3.695 24.512a6.9 6.9 0 0 1-6.263 3.469 46 46 0 0 1-8.066-.991 30.6 30.6 0 0 0-.27-4.506 47.446 47.446 0 0 0 7.48 1.081 3.063 3.063 0 0 0 3.2-1.983c1.217-2.343 2.3-9.507 2.7-18.79H26.851c-2.163 9.958-6.263 18.79-14.464 25.278a21.448 21.448 0 0 0-3.65-2.749c7.615-5.813 11.445-13.563 13.383-22.575H10.4v-4.19h12.531c.5-3.154.676-5.813.9-9.462l5.993.541c-.09.5-.5.766-1.262.9-.27 3.064-.45 5.317-.9 8.021h13.067l.856-.315zm10.187 6.263h37.625v4.506H56.865a1.889 1.889 0 0 1-1.442.811zm81.427-2.073a1.467 1.467 0 0 1-.766.586c-3.875 13.7-11.084 20.322-24.6 24.107a18.375 18.375 0 0 0-2.7-3.6c11.76-2.884 19.331-9.147 21.809-18.294H101.7v-4.19h30.415l.541-.361zM131.8 8.2h-25.681V4.055H131.8zm48.941-2.387a1.347 1.347 0 0 1-.991.406 1.7 1.7 0 0 1-.451-.045 111.4 111.4 0 0 1-12.436 10.5c.405.18.946.406 1.216.5a1.23 1.23 0 0 1-1.082.766v23.785h-4.731V19.6a133.349 133.349 0 0 1-16 9.237 19.959 19.959 0 0 0-2.7-3.47c12.031-5.452 25.5-14.915 32.578-22.98zm42.135 2.478a1.366 1.366 0 0 1-.766.631c-3.74 16.987-12.211 26.946-26.991 32.4a23.992 23.992 0 0 0-3.019-3.7c13.788-4.506 21.809-14.284 24.377-26.45h-28.252V6.894h29.919l.811-.541zm45.468-1.802a1.468 1.468 0 0 1-.766.586 43.084 43.084 0 0 1-10.093 14.419 27.758 27.758 0 0 0-3.92-2.478 25.878 25.878 0 0 0 7.75-9.913h-30.64V4.821h33.164l.586-.361zm-17.393 8.471c-.09.451-.5.766-1.172.856-1.216 10.229-4.911 20.412-14.058 25.819a32.685 32.685 0 0 0-3.83-2.884c8.832-4.776 12.256-13.969 13.112-24.377zm50.381 12.03a133.57 133.57 0 0 0-14.915-7.029v21.674h-4.731V2.208l6.038.361c-.045.5-.451.856-1.307 1.036v12.977l.9-1.262a149.192 149.192 0 0 1 16.537 7.345zM297.187 5a37.673 37.673 0 0 1 5.9 6.354l-2.16 1.846a38.158 38.158 0 0 0-5.768-6.4zm6.128-3.965a36.8 36.8 0 0 1 5.9 6.308L307.054 9.1a44.183 44.183 0 0 0-5.812-6.308zm27.535 8.608c-.09.406-.541.676-1.216.766C327.922 21.133 324.227 32.443 319 39.2a22.893 22.893 0 0 0-4.28-2.3c5-6.263 8.741-17.212 10.093-28.477zm20.637 29.289a170.789 170.789 0 0 0-11.535-28.748l4.236-2.028a158.822 158.822 0 0 1 11.985 28.793zm-5.136-36.994a35.33 35.33 0 0 1 5.182 6.443L349.28 10a36.786 36.786 0 0 0-5.137-6.534zM352.434 0a33.616 33.616 0 0 1 5.227 6.4l-2.253 1.622a40.293 40.293 0 0 0-5.137-6.444zM400.2 5.813a1.348 1.348 0 0 1-.991.406 1.7 1.7 0 0 1-.451-.045 111.448 111.448 0 0 1-12.437 10.5c.406.18.946.406 1.217.5a1.231 1.231 0 0 1-1.082.766v23.785h-4.731V19.6a133.342 133.342 0 0 1-16 9.237 19.982 19.982 0 0 0-2.7-3.47c12.031-5.452 25.5-14.915 32.578-22.98zm46.327 10.904h-9.282v2.3c0 9.057-2.929 17.528-14.284 22.8a24.466 24.466 0 0 0-3.289-3.154c10.859-4.776 13.067-12.211 13.067-19.556v-2.39h-12.617v10.5h-4.461v-10.5h-8.291v-4.326h8.291V2.884l5.677.36c-.045.451-.451.9-1.216 1.036v8.111h12.616V2.343l5.723.315c-.045.451-.405.811-1.217.946v8.786h9.282zM439.9 3.875a28.5 28.5 0 0 1 4.912 5.9l-1.983 1.577a34.117 34.117 0 0 0-4.911-5.948zM444.409.09a30.544 30.544 0 0 1 5.047 5.948l-1.983 1.577a29.2 29.2 0 0 0-4.957-5.948zm11.27 18.925H493.3v4.506h-35.818a1.89 1.89 0 0 1-1.442.811zm65.432 26.224c-3.019-4.1-6.309-10.769-6.309-20.727.045-10.048 3.29-16.717 6.309-20.863h3.92c-3.379 4.866-5.9 11.625-5.9 20.907a36.262 36.262 0 0 0 5.9 20.682zm48.754-42.085c-.18.315-.541.451-1.126.451a46.519 46.519 0 0 1-3.83 4.731h6.891v9.192h-4.1v-5.542h-30.322v5.542h-3.92V8.336h6.173a34.2 34.2 0 0 0-3.83-5.092l3.6-1.667a24.757 24.757 0 0 1 4.371 5.542l-2.433 1.217h9.688a30.87 30.87 0 0 0-3.424-6.218L551.3.811a31.386 31.386 0 0 1 3.74 6.263l-3.334 1.262h8.562l-.09-.045a44.665 44.665 0 0 0 4.731-7.029zm-5.317 22.485h-10.454a34.13 34.13 0 0 1-1.216 3.334h15.681v14.058h-4.236V41.59h-23.206v1.487h-4.1v-14.1h11.76c.315-1.036.631-2.253.856-3.334h-8.966v-10.9h23.881zm-.226 12.211v-5.137h-23.205v5.137zm-19.69-19.871v4.416H560.4v-4.416zm76.56 14.464h-14.419a43.109 43.109 0 0 0 15.591 6.263 18.356 18.356 0 0 0-2.839 3.83 40.373 40.373 0 0 1-16.447-8.651v9.237h-4.19V34.2a45.729 45.729 0 0 1-16.312 8.246 19.332 19.332 0 0 0-2.793-3.6 45.18 45.18 0 0 0 15.5-6.4h-14.238v-3.6h17.843v-2.802h-13.563v-3.2h13.563V20.1h-15.816v-3.428h9.417a21.733 21.733 0 0 0-1.937-4.19l1.082-.18v-.045l-10.409.045V8.741h6.8a35.092 35.092 0 0 0-3.334-6.218l3.695-1.261a30.679 30.679 0 0 1 3.695 6.579l-2.434.9h5.137V.856l5.091.315c-.045.406-.405.721-1.081.811v6.759h4.551V.856l5.137.315q-.067.676-1.082.811v6.759h4.776l-1.667-.631a47.071 47.071 0 0 0 3.334-6.759l4.866 1.577c-.135.315-.5.5-1.082.451a50.716 50.716 0 0 1-3.289 5.362h6.713V12.3h-9.192l.856.271c-.135.315-.5.45-1.081.45a32.185 32.185 0 0 1-2.163 3.65h9.868V20.1h-16.261v2.749h14.059v3.2h-14.059v2.794h18.114zm-16-15.906a46.358 46.358 0 0 0 2.118-4.236h-12.342a17.776 17.776 0 0 1 1.982 4.1l-1.352.271h10zM632.327 3.65c3.019 4.055 6.263 10.679 6.263 20.772-.045 10.048-3.244 16.627-6.263 20.817h-3.92c3.289-4.866 5.9-11.625 5.9-20.817s-2.568-15.861-5.9-20.772zM50.136 242.621H38.42v44.763H27.6v-44.763H15.888v-8.863h34.248z"/><path class="cls-2" d="M52.464 258.018a17.644 17.644 0 0 1 2.7-6.647 12 12 0 0 1 4.919-4.056 17.947 17.947 0 0 1 7.473-1.389 19.024 19.024 0 0 1 7.736 1.239 10.848 10.848 0 0 1 4.882 4.018 17.939 17.939 0 0 1 2.554 6.684 50.876 50.876 0 0 1 .751 9.313 45.454 45.454 0 0 1-.826 9.163 17.663 17.663 0 0 1-2.7 6.647 11.189 11.189 0 0 1-4.919 3.943 19.339 19.339 0 0 1-7.473 1.277 20 20 0 0 1-7.736-1.164 10.454 10.454 0 0 1-4.882-3.906 17.575 17.575 0 0 1-2.554-6.685 50.9 50.9 0 0 1-.751-9.276 45.352 45.352 0 0 1 .826-9.161zm9.688 14.871a19.735 19.735 0 0 0 .714 4.506 6.43 6.43 0 0 0 1.69 2.929 4.222 4.222 0 0 0 3 1.052q3.154 0 4.356-3.3t1.2-10.89q0-7.585-1.2-10.89t-4.356-3.3a4.227 4.227 0 0 0-3 1.052 6.443 6.443 0 0 0-1.69 2.929 19.755 19.755 0 0 0-.714 4.506Q62 264.1 62 267.181t.153 5.708z"/><path class="cls-1" d="M101.959 246.978v4.131h.15a11.9 11.9 0 0 1 4.394-3.981 13.063 13.063 0 0 1 5.821-1.2 10.548 10.548 0 0 1 6.046 1.652 8.023 8.023 0 0 1 3.267 4.807h.15a9.19 9.19 0 0 1 3.868-4.844 12.021 12.021 0 0 1 6.345-1.617q5.182 0 7.623 3.117t2.441 8.975v29.366H131.7v-28.24a6.822 6.822 0 0 0-.939-3.906 3.525 3.525 0 0 0-3.117-1.352 5.007 5.007 0 0 0-3.943 1.652q-1.464 1.653-1.465 5.257v26.588h-10.363v-28.24a6.822 6.822 0 0 0-.939-3.906 3.525 3.525 0 0 0-3.117-1.352 5.007 5.007 0 0 0-3.943 1.652q-1.464 1.653-1.465 5.257v26.588H92.045v-40.404zm47.992 11.04a17.644 17.644 0 0 1 2.7-6.647 12 12 0 0 1 4.919-4.056 17.948 17.948 0 0 1 7.473-1.389 19.023 19.023 0 0 1 7.735 1.239 10.844 10.844 0 0 1 4.882 4.018 17.926 17.926 0 0 1 2.554 6.684 50.854 50.854 0 0 1 .751 9.313 45.418 45.418 0 0 1-.826 9.163 17.667 17.667 0 0 1-2.7 6.647 11.192 11.192 0 0 1-4.92 3.943 19.338 19.338 0 0 1-7.473 1.277 20 20 0 0 1-7.736-1.164 10.454 10.454 0 0 1-4.882-3.906 17.575 17.575 0 0 1-2.554-6.685 50.9 50.9 0 0 1-.751-9.276 45.352 45.352 0 0 1 .828-9.161zm9.688 14.871a19.735 19.735 0 0 0 .714 4.506 6.432 6.432 0 0 0 1.689 2.929 4.222 4.222 0 0 0 3 1.052q3.154 0 4.355-3.3t1.2-10.89q0-7.585-1.2-10.89t-4.355-3.3a4.227 4.227 0 0 0-3 1.052 6.445 6.445 0 0 0-1.689 2.929 19.755 19.755 0 0 0-.714 4.506q-.151 2.63-.15 5.708t.15 5.698zm38.754-39.13v17.35h.15q3-5.182 9.839-5.182 4.957 0 7.623 2.7t2.667 8.787v29.968h-10.365V259.52q0-3.155-1.052-4.394a4.2 4.2 0 0 0-3.379-1.239q-5.484 0-5.483 6.684v26.813h-10.364v-53.625zm42.435-.601v8.863h-10.364v-8.863zm0 13.82v40.407h-10.364v-40.407z"/><path class="cls-2" d="M264.861 262.074h.15l10.439-15.1h11.416L275.225 262.9l13.369 24.485h-11.416l-8.637-16.6-3.68 4.807v11.792H254.5v-53.625h10.364z"/><path class="cls-1" d="M292.65 258.018a17.644 17.644 0 0 1 2.7-6.647 12 12 0 0 1 4.919-4.056 17.947 17.947 0 0 1 7.473-1.389 19.024 19.024 0 0 1 7.736 1.239 10.849 10.849 0 0 1 4.882 4.018 17.935 17.935 0 0 1 2.554 6.684 50.854 50.854 0 0 1 .751 9.313 45.454 45.454 0 0 1-.826 9.163 17.667 17.667 0 0 1-2.7 6.647 11.191 11.191 0 0 1-4.919 3.943 19.341 19.341 0 0 1-7.473 1.277 20 20 0 0 1-7.736-1.164 10.454 10.454 0 0 1-4.882-3.906 17.579 17.579 0 0 1-2.554-6.685 50.9 50.9 0 0 1-.751-9.276 45.352 45.352 0 0 1 .826-9.161zm9.688 14.871a19.723 19.723 0 0 0 .713 4.506 6.43 6.43 0 0 0 1.69 2.929 4.221 4.221 0 0 0 3 1.052q3.155 0 4.356-3.3t1.2-10.89q0-7.585-1.2-10.89t-4.356-3.3a4.227 4.227 0 0 0-3 1.052 6.443 6.443 0 0 0-1.69 2.929 19.743 19.743 0 0 0-.713 4.506q-.152 2.63-.15 5.708t.151 5.698zm56.028-17.65h.15l13.669-21.48H383.9l-14.57 22.983 16.223 30.643h-12.166l-11.041-22.006-3.981 6.083v15.923h-10.814v-53.626h10.815zm28.689 2.779a17.644 17.644 0 0 1 2.7-6.647 12 12 0 0 1 4.919-4.056 17.947 17.947 0 0 1 7.473-1.389 19.024 19.024 0 0 1 7.736 1.239 10.849 10.849 0 0 1 4.882 4.018 17.935 17.935 0 0 1 2.554 6.684 50.854 50.854 0 0 1 .751 9.313 45.454 45.454 0 0 1-.826 9.163 17.667 17.667 0 0 1-2.7 6.647 11.191 11.191 0 0 1-4.919 3.943 19.341 19.341 0 0 1-7.473 1.277 20 20 0 0 1-7.736-1.164 10.454 10.454 0 0 1-4.882-3.906 17.579 17.579 0 0 1-2.554-6.685 50.9 50.9 0 0 1-.751-9.276 45.352 45.352 0 0 1 .826-9.161zm9.688 14.871a19.723 19.723 0 0 0 .713 4.506 6.43 6.43 0 0 0 1.69 2.929 4.221 4.221 0 0 0 3 1.052q3.155 0 4.356-3.3t1.2-10.89q0-7.585-1.2-10.89t-4.356-3.3a4.227 4.227 0 0 0-3 1.052 6.443 6.443 0 0 0-1.69 2.929 19.743 19.743 0 0 0-.713 4.506q-.152 2.63-.15 5.708t.151 5.698zm50.621 16.824a12.79 12.79 0 0 1-5.995-1.3 9.182 9.182 0 0 1-1.816-1.271v.242a1.5 1.5 0 0 1-1.5 1.5h-9.914a1.5 1.5 0 0 1-1.5-1.5v-53.625a1.5 1.5 0 0 1 1.5-1.5H438.5a1.5 1.5 0 0 1 1.5 1.5v13.212a10.577 10.577 0 0 1 7.36-2.547c4.8 0 8.391 1.925 10.676 5.722 2.166 3.6 3.219 9.176 3.219 17.035s-1.055 13.406-3.227 16.935c-2.281 3.714-5.87 5.597-10.664 5.597zm-9.313-8.111h.15a1.5 1.5 0 0 1 1.285.725 8.982 8.982 0 0 0 3.282 3.429 9.86 9.86 0 0 0 4.6.954c3.731 0 6.384-1.363 8.109-4.167 1.845-3 2.781-8.168 2.781-15.361s-.938-12.408-2.789-15.487c-1.728-2.871-4.377-4.266-8.1-4.266a8.351 8.351 0 0 0-4.239 1 10.335 10.335 0 0 0-3.235 3.157 1.5 1.5 0 0 1-1.238.651h-.15a1.5 1.5 0 0 1-1.5-1.5v-15.476h-7.36v50.622h6.909V283.1a1.5 1.5 0 0 1 1.495-1.5zm5.934.375a5.8 5.8 0 0 1-5.906-4.408A37.562 37.562 0 0 1 437 267.181a37.58 37.58 0 0 1 1.079-10.388 6.111 6.111 0 0 1 11.737 0 37.6 37.6 0 0 1 1.079 10.388 37.586 37.586 0 0 1-1.079 10.388 5.751 5.751 0 0 1-5.831 4.408zm0-26.588a2.8 2.8 0 0 0-3.031 2.276 48.162 48.162 0 0 0 0 19.031 2.8 2.8 0 0 0 3.031 2.276 2.757 2.757 0 0 0 2.956-2.276 48.159 48.159 0 0 0 0-19.031 2.757 2.757 0 0 0-2.956-2.275zm22.682 2.629a17.644 17.644 0 0 1 2.7-6.647 12 12 0 0 1 4.919-4.056 17.947 17.947 0 0 1 7.473-1.389 19.024 19.024 0 0 1 7.736 1.239 10.849 10.849 0 0 1 4.882 4.018 17.935 17.935 0 0 1 2.554 6.684 50.854 50.854 0 0 1 .751 9.313 45.454 45.454 0 0 1-.826 9.163 17.667 17.667 0 0 1-2.7 6.647 11.191 11.191 0 0 1-4.919 3.943 19.341 19.341 0 0 1-7.473 1.277 20 20 0 0 1-7.736-1.164 10.454 10.454 0 0 1-4.882-3.906 17.579 17.579 0 0 1-2.554-6.685 50.9 50.9 0 0 1-.751-9.276 45.352 45.352 0 0 1 .826-9.161zm9.688 14.871a19.723 19.723 0 0 0 .713 4.506 6.43 6.43 0 0 0 1.69 2.929 4.221 4.221 0 0 0 3 1.052q3.155 0 4.356-3.3t1.2-10.89q0-7.585-1.2-10.89t-4.356-3.3a4.227 4.227 0 0 0-3 1.052 6.443 6.443 0 0 0-1.69 2.929 19.743 19.743 0 0 0-.713 4.506q-.152 2.63-.15 5.708t.15 5.698zm39.805-25.911v5.408h.15a14.7 14.7 0 0 1 3.831-4.694 8.621 8.621 0 0 1 5.482-1.765q.45 0 .939.038t.939.113v9.914q-.828-.074-1.615-.113t-1.615-.038a10.078 10.078 0 0 0-2.7.375 7.24 7.24 0 0 0-2.479 1.239 6.2 6.2 0 0 0-1.8 2.253 7.773 7.773 0 0 0-.676 3.417v24.259h-10.369v-40.406z"/><path class="cls-2" d="M546.5 233.158v8.863h-10.362v-8.863zm0 13.82v40.407h-10.362v-40.407zM41.91 110.731c-.406 1.352-1.622 2.163-3.515 2.028-4.056 17.3-11.356 42.721-22.577 57.727A105.124 105.124 0 0 0 0 161.969c10.95-13.79 17.845-37.583 20.684-55.429zm14.465-35.285l21.5.946c-.135 1.487-1.082 2.434-3.785 2.839v101.395c0 16.9-6.084 20.279-37.313 20.279a68.081 68.081 0 0 0-6.489-16.9c6.489.135 13.655.27 18.251.27 6.219 0 7.841 0 7.841-3.65zm56.511 97.745C110.047 156.7 99.772 131.01 88.957 111l15.953-5.948c11.09 19.334 22.307 44.074 25.69 61.108z"/><path class="cls-1" d="M269.842 117.356h-61.783v8.382c0 22.577-2.7 54.618-20.82 73.815a61.319 61.319 0 0 0-11.9-10.275 59.339 59.339 0 0 0 12.843-23.118c-12.167 5-24.875 10.14-33.257 13.384a3.067 3.067 0 0 1-2.163 2.569l-6.9-17.845c4.326-1.217 9.869-2.974 15.817-4.867v-38.125h-12.835v-15.412h12.843V74.905l18.251.947c-.135 1.217-1.082 2.163-3.38 2.433v27.579h11.626v15.412h-11.625v33.393l10.545-3.515 2.163 11.356c3.245-12.3 3.65-25.416 3.65-36.772V77.879h76.924zM254.43 91.939h-46.371V103.3h46.371zm2.163 69.083l17.3 1.082c-.135 1.082-.946 2.028-3.245 2.3v36.5h-14.06v-5.543h-33.253v5.539H209.41v-39.877l17.17 1.077c-.135 1.082-.946 1.893-3.245 2.3v17.575h9.329V155.75h-20.685v-31.905l16.088.946c-.135 1.217-1.082 1.893-3.38 2.3v16.088h7.977v-24.47l17.44 1.082c-.135 1.217-1.082 2.028-3.38 2.3v21.09h8.517v-19.336l16.628.946c-.135 1.217-1.081 1.893-3.244 2.3v28.659h-21.9v26.227h9.869zm114.232 41.52h-15.953a1.5 1.5 0 0 1-1.5-1.5v-56.864a84.089 84.089 0 0 1-9.612 5.357 1.5 1.5 0 0 1-1.936-.583 46.524 46.524 0 0 0-9.767-10.533 1.5 1.5 0 0 1 .384-2.6c10.643-4.03 18.119-9.32 22.269-15.75h-20.387a1.5 1.5 0 0 1-1.5-1.5v-12.705a1.5 1.5 0 0 1 1.5-1.5h5.553a70.516 70.516 0 0 0-6.336-3.5 1.5 1.5 0 0 1-.391-2.44c5.755-5.509 10.982-15.542 13.642-26.182a1.5 1.5 0 0 1 1.827-1.092l16.494 4.191a1.5 1.5 0 0 1 1.055 1.931 3.792 3.792 0 0 1-3.422 2.51 86.178 86.178 0 0 1-.922 2.659l-.1.289h31.953a1.5 1.5 0 0 1 1.5 1.5v12.982a1.5 1.5 0 0 1-1.5 1.5H377.6v4.311c0 .439 0 .885-.013 1.337h19.2a1.5 1.5 0 0 1 1.5 1.5v12.708a1.5 1.5 0 0 1-1.5 1.5h-15.993c6.422 3.516 14.663 8.306 17.465 10.07a1.5 1.5 0 0 1 .208 2.384l-10.246 9.282H439.5a1.5 1.5 0 0 1 1.5 1.5V200.9a1.5 1.5 0 0 1-1.5 1.5h-16.626a1.5 1.5 0 0 1-1.5-1.5v-2.959h-49.046v3.095a1.5 1.5 0 0 1-1.503 1.506zm-14.451-3h12.949v-3.095a1.5 1.5 0 0 1 1.5-1.5h52.049a1.5 1.5 0 0 1 1.5 1.5v2.953H438v-54.585h-81.626zm-20.492-61.847a51.963 51.963 0 0 1 7.766 8.556c10.266-5.089 18.082-11.41 23.242-18.8a1.5 1.5 0 0 1 2.09-.373c5.9 4.1 12.822 9.4 16.941 12.768l9.043-8.192c-4.991-3.006-15.708-9.142-20.89-11.733a1.5 1.5 0 0 1 .672-2.846h20.534v-9.7h-19.317a1.5 1.5 0 0 1-1.487-1.715 18.667 18.667 0 0 0 .12-2.627v-5.821a1.5 1.5 0 0 1 1.5-1.5h16.074v-9.976H359.6a1.5 1.5 0 0 1-1.425-1.977c.26-.779.539-1.559.816-2.33.448-1.249.871-2.428 1.193-3.556a1.5 1.5 0 0 1 .332-.6l-11.2-2.845c-2.677 9.858-7.282 18.833-12.627 24.659a64.989 64.989 0 0 1 8.954 5.586 1.513 1.513 0 0 1 .162.145 53.233 53.233 0 0 0 6-8.366 1.5 1.5 0 0 1 1.3-.745h7.571a1.5 1.5 0 0 1 1.5 1.5v5.543a26.116 26.116 0 0 1-.147 3.3 1.5 1.5 0 0 1-1.49 1.316H346.9a1.5 1.5 0 0 0-2.163 0h-8.908v9.7h21.481a1.5 1.5 0 0 1 1.338 2.185c-3.874 7.589-11.525 13.784-22.766 18.44zm20.906 4.119h26.793c-3.819-3.1-9.766-7.65-15.11-11.424a55.73 55.73 0 0 1-11.682 11.421zm-6.688-37.452h9.066c.021-.555.021-1.1.021-1.607v-4.041h-5.217a58.083 58.083 0 0 1-3.87 5.648zm72.778 80.6h-52.053a1.5 1.5 0 0 1-1.5-1.5v-7.976a1.5 1.5 0 0 1 1.5-1.5h52.049a1.5 1.5 0 0 1 1.5 1.5v7.976a1.5 1.5 0 0 1-1.5 1.505zm-50.547-3h49.044v-4.972h-49.047zm50.547-16.734h-52.053a1.5 1.5 0 0 1-1.5-1.5v-7.706a1.5 1.5 0 0 1 1.5-1.5h52.049a1.5 1.5 0 0 1 1.5 1.5v7.706a1.5 1.5 0 0 1-1.5 1.501zm-50.547-3h49.044v-4.7h-49.047zm45-21.466h-15.276a1.5 1.5 0 0 1-1.5-1.5V84.1a1.5 1.5 0 0 1 1.5-1.5h52.184a1.5 1.5 0 0 1 1.5 1.5v54.618a1.5 1.5 0 0 1-1.5 1.5h-15.953a1.5 1.5 0 0 1-1.5-1.5V134.4h-17.953v4.852a1.5 1.5 0 0 1-1.502 1.507zm-13.774-3h12.272V132.9a1.5 1.5 0 0 1 1.5-1.5h20.955a1.5 1.5 0 0 1 1.5 1.5v4.311h12.948V85.6h-49.18zm34.729-17h-20.955a1.5 1.5 0 0 1-1.5-1.5V98.429a1.5 1.5 0 0 1 1.5-1.5h20.955a1.5 1.5 0 0 1 1.5 1.5v20.82a1.5 1.5 0 0 1-1.5 1.501zm-19.453-3h17.951V99.931h-17.951zM582.669 132.5c-.406.946-1.623 1.487-3.515 1.487-13.384 7.706-37.313 14.06-58.268 17.3a54.176 54.176 0 0 0-8.517-11.356c15.953-1.893 34.879-5.813 47.588-11.086H507.1v6.624c0 18.927-2.7 47.453-16.764 65.569a61.354 61.354 0 0 0-12.843-10.951c12.438-15.953 13.519-38.8 13.519-54.753v-21.5h23.929a78.448 78.448 0 0 0-5.137-14.6l2.7-.676h-23.118V84.639h44.884V73.553l19.874 1.082c-.135 1.487-1.217 2.163-3.65 2.7v7.3h48.669v13.929H576.72l5.678 1.622c-.541 1.217-1.758 1.623-3.65 1.623a136.087 136.087 0 0 1-6.625 12.032h32.447v15.007h-30.013zm22.442 35.556c-.676 1.217-1.893 1.758-4.056 1.758-18.116 17.44-49.346 26.633-85.577 31.5a53.793 53.793 0 0 0-7.841-14.06c32.987-3.11 64.082-10.951 79.223-26.228zM592.538 149.8c-.406 1.082-1.623 1.487-3.515 1.487-14.872 10.951-40.829 18.927-66.245 23.388a60.7 60.7 0 0 0-8.247-11.9c23.118-2.974 48.8-10 61.513-19.873zm-37.448-36.23a138.8 138.8 0 0 0 6.083-15.006h-35.015c2.434 4.867 4.6 10.41 5.272 14.33l-3.515.946H555.9z"/></g></svg>