<svg xmlns="http://www.w3.org/2000/svg" viewBox="0 0 1159.83 164.71"><defs><style>.cls-1{fill:#b8d200}.cls-2{fill:#fff}.cls-3{fill:none}</style></defs><title>txt_eventhead</title><g id="contents"><path class="cls-1" d="M0 164.71V0h86.53v24.16H30.75v41.51h51.39v24.15H30.75v50.74h55.78v24.15zM180.53 0h32.94l-35.58 164.71h-41.07L100.36 0h33l19.32 105.64c1.76 9.22 2.86 18.66 3.74 28.11.44 4.39 1.31 9 1.31 13.61h.44c0-4.61.88-9.22 1.32-13.61.88-9.45 2-18.89 3.73-28.11zm51.38 164.71V0h86.53v24.16h-55.78v41.51h51.39v24.15h-51.39v50.74h55.78v24.15zM416.17 0h30.75v164.71h-32.07l-23.93-58.63c-8.13-19.55-14.72-39.54-22-65.45h-.44c1.1 13.62 2.42 30.31 3.3 47 .88 16.47 1.54 32.94 1.54 46.12v31H342.6V0h31.84l23.94 60c7.91 19.1 14.5 38.65 22 65.44h.44c-1.09-14.93-2.19-31-3.07-46.78s-1.58-31.66-1.58-46.38zm49.41 0h102.56v24.16h-35.79v140.55H501.6V24.16h-36zm153.25 25.51h541V142.3h-541z"/><path class="cls-2" d="M729.11 60a2.38 2.38 0 0 1-2.24.77A187.05 187.05 0 0 1 708 76.69c.77.21 1.54.56 2.24.77a2.2 2.2 0 0 1-2 1.33v36.55h-9.31v-32.9a206.55 206.55 0 0 1-23.24 13.09 32.48 32.48 0 0 0-5.32-6.79c18.27-8.12 39.27-22.69 50-35.15zm8.68 27.48c5.11-5.18 14.7-16.11 19.25-21.15 2.31-2.45 4.76-3.57 7.07-3.57s4.9 1.47 7.49 3.71c8.33 7.35 23.17 23.32 32.48 35.08l-7.49 7.21a316.9 316.9 0 0 0-29.05-34.17c-1.47-1.33-2.31-2.1-3.15-2.1s-1.61.84-2.87 2.17c-2.38 2.8-10.85 13.1-15.26 18.14a2.75 2.75 0 0 1-.91 2.45zm48.3-28.92a58.48 58.48 0 0 1 8.4 9.59l-4.13 3.36a59.66 59.66 0 0 0-8.19-9.8zm8.61-6.3a55.22 55.22 0 0 1 8.47 9.45L799 65.07a69.21 69.21 0 0 0-8.19-9.59zm23.1 5.88a90.82 90.82 0 0 1 20.51 9.24l-4.62 8a102.21 102.21 0 0 0-20-9.59zm-2.38 47.4c23.59-7.28 39.83-21 48-40.26a53 53 0 0 0 8.19 5.18c-8.68 19.12-25.41 34-48.58 42.22a2.45 2.45 0 0 1-1.19 1.82zM930.57 92.8a199 199 0 0 0-21.91-10.5v32.76h-9.38V53.52l11.48.56c-.07.84-.63 1.54-2.1 1.75v19.74l1.75-2.38a219.77 219.77 0 0 1 25.13 11zM975.51 63v6.65h-27.65V63zm-2.59 29.27v21.42h-14.77v2.73H951V92.31zm-21.7-13v-6.36H973v6.37zm0 9.6v-6.3H973v6.3zm21.63-35.29V60H951.5v-6.41zM965.64 99h-7.49v8.12h7.49zm48.44-5.18v7.63h-15.4v16h-8.33v-16H974.6v-7.67h15.75v-7.14h-12v-7.57h12v-6.79h-13.44v-7.63h6.37A50.41 50.41 0 0 0 979 54.22l6.79-2.52a45.33 45.33 0 0 1 5 11.62l-3.36 1.33h13.23l-2.87-1.19a72.85 72.85 0 0 0 5.21-12.25l9 3.15a1.82 1.82 0 0 1-1.89.77 94.71 94.71 0 0 1-4.9 9.52h7.79v7.63h-14.32v6.79h12.53v7.57h-12.53v7.14zm32.97-36.73h33.81v59.23h-7.77v-2.94h-18.55V117h-7.49v-11c-2 .7-4 1.4-6.44 2.31a85 85 0 0 0-4.2-13.86l6.3-2.1a100.91 100.91 0 0 1 4.34 12.67V89.16l-5.46 2.52a27.73 27.73 0 0 0-1-3.29l-4.55.28v28.77h-7.42V94.76c-.21.42-.7.7-1.54.63-.7 5.74-2 12.46-4.06 16.73a51.18 51.18 0 0 0-5.88-2.94c1.75-3.85 2.87-10.5 3.43-16.45l8.05 1.89v-5.46c-3.15.21-6 .35-8.33.42a1.47 1.47 0 0 1-1.26 1l-1.68-8.4h5.32c1.12-1.4 2.24-2.88 3.36-4.42a59.87 59.87 0 0 0-8.47-9.59l4-5.74 1.54 1.33a81.13 81.13 0 0 0 5.39-12.39l8.4 3.43a1.93 1.93 0 0 1-1.89.7 125.38 125.38 0 0 1-7.21 13 30.23 30.23 0 0 1 2.52 3c2.52-4.06 4.9-8.19 6.65-11.76l8 3.64a2.39 2.39 0 0 1-2 .77 165.66 165.66 0 0 1-12.74 17.93L1038 82a55.85 55.85 0 0 0-2.8-5.4l6.09-2.73a70.86 70.86 0 0 1 5.81 11.49zm13 7.77h-5.46v16.53h5.41zM1054.54 89v16.73h5.46V89zm18.55-7.63V64.86h-5.74v16.53zm-5.74 24.36h5.74V89h-5.74z"/><path class="cls-3" d="M0 0h1159.83v164.71H0z"/></g></svg>