<svg xmlns="http://www.w3.org/2000/svg" viewBox="0 0 632.34 84.75"><defs><style>.cls-1{fill:#323232}.cls-2{fill:#fff}.cls-3,.cls-4{fill:none;stroke-linecap:round;stroke-linejoin:round}.cls-3{stroke:#323232}.cls-4{stroke:#fff;stroke-width:1.5px}</style></defs><title>txt_message01-1</title><g id="レイヤー_2" data-name="レイヤー 2"><g id="main"><path class="cls-1" d="M20.23 9.83A37.41 37.41 0 0 1 14 11.05v4.93a26.52 26.52 0 0 1 6.88-1.19c5.9 0 10.44 3 10.44 8.78 0 5.22-3 9-9.11 9a8.54 8.54 0 0 1-6.73-3.2A25.8 25.8 0 0 0 17.67 26a5.88 5.88 0 0 0 4.54 2.45c2.92 0 4.46-2.05 4.46-4.82s-2.09-4.93-5.94-4.93A24.76 24.76 0 0 0 14 19.87V27c0 3.31-2.12 6.23-6.55 6.23-3.13 0-6.7-1.76-6.7-6.16 0-2.45 1.66-5 4.36-6.95a23.94 23.94 0 0 1 4.57-2.56v-6.15c-2.38.14-5 .18-8 .18l-.06-4.32c3 0 5.65 0 8-.14V1l5.69.14c0 .43-.36.76-.94.83-.11 1.4-.18 3.06-.25 4.72a26.24 26.24 0 0 0 5.51-1.33zM9.65 21.67C7.56 22.93 4.82 24.55 4.82 27a2.22 2.22 0 0 0 2.45 2.41 2.24 2.24 0 0 0 2.41-2.56c0-.93 0-3.06-.03-5.18zm20.26-8.35a27.86 27.86 0 0 0-8.1-4.79L24 4.79a27.49 27.49 0 0 1 8.46 4.68zm32.87-4.18l3.17 1.73a1 1 0 0 1-.61.47 23.17 23.17 0 0 1-6 6.3 55.87 55.87 0 0 0 12.85 2.7 19.9 19.9 0 0 0-2.74 4.17c-1.26-.18-2.48-.4-3.71-.61V34h-4.47v-1.06H49.14v1.15h-4.21v-10c-1.58.43-3.2.79-4.82 1.12a16.11 16.11 0 0 0-2-3.82 52.76 52.76 0 0 0 12.78-3.56 26.89 26.89 0 0 1-3.28-2.74 42.18 42.18 0 0 1-4.43 2.41 13.64 13.64 0 0 0-2.88-3.2c4.71-1.8 7.92-4.25 9.83-6.77h-6v4h-4.28V3.64h13V.11l5.4.29c0 .36-.29.58-1 .68v2.56h13.27v7.92h-4.43v-4h-12l1.58.29c-.11.36-.43.58-1 .58-.22.32-.47.61-.72.94h8zM49.14 29.41h12.13v-3.1H49.14zm12-6.66A39.62 39.62 0 0 1 55 20.3a46.36 46.36 0 0 1-5.62 2.45zM50.9 12.6l-.18.14a20.5 20.5 0 0 0 4.28 3 21.06 21.06 0 0 0 4-3.13zm34.99-.97v1.58c1 1.33 3.6 5.36 4.21 6.33-.68.94-1.33 1.91-2.23 3.1-.43-1.08-1.19-2.66-2-4.21v15.62H82V20.37a29.54 29.54 0 0 1-3.31 7.23 21 21 0 0 0-1.91-3.82c2.05-2.84 4-7.85 4.9-12.17h-4.1v-4H82V.11l4.83.29c0 .32-.29.54-.94.65v6.58h3.64v4zM88.27 29c2.12-.94 5.36-2.63 8.5-4.21l1 3.06c-2.52 1.69-5.15 3.38-6.95 4.39a.8.8 0 0 1-.4.79zm14.07-9.61a19.66 19.66 0 0 0 1.48 3.17 29.1 29.1 0 0 0 3.56-3.89l3.62 2.75a1.11 1.11 0 0 1-1 .22 48 48 0 0 1-4.39 3.53 14.81 14.81 0 0 0 5.9 4.36 16.56 16.56 0 0 0-2.72 3.47 17.19 17.19 0 0 1-6.44-6.41v3.21c0 3.56-1.26 4.36-6.7 4.36a13.52 13.52 0 0 0-1.15-3.85c1.22.07 2.66.07 3.1.07s.58-.18.58-.61V18.18h-8.43v-3.53h8.42V13h-6.52V9.61h6.52V8h-7.42V4.43h3.35a24.29 24.29 0 0 0-1.48-3.1L96 .18a18.28 18.28 0 0 1 2 4l-.58.22h5.29l-.4-.14a27.37 27.37 0 0 0 1.94-4.19l4.64 1.44a1 1 0 0 1-1 .4c-.4.72-1 1.66-1.55 2.52h3.82V8h-7.85v1.61h7V13h-7v1.69h8.5v3.53h-8.5zm-8.57 6a25.76 25.76 0 0 0-3.46-4.64l3-1.94a25.35 25.35 0 0 1 3.6 4.43zm47.38-10.92a1.22 1.22 0 0 1-.36 0 1.57 1.57 0 0 1-.83-.22c-10.83 2.92-18.9 6.8-18.86 10.66 0 2.7 2.84 3.78 7.81 3.78a85.46 85.46 0 0 0 12.78-1l.43 4.61c-4.12.6-11.05.7-13.12.7-7.06 0-12.6-1.73-12.6-7.92 0-3.78 3.38-6.95 8.71-9.83-1.33-2.59-1.73-6.59-1.69-14.36l6.41.5c0 .54-.4.83-1.19.94v2.92a26.14 26.14 0 0 0 .83 8c3.06-1.37 6.52-2.66 10.19-3.92zm26.25-5.8a1.19 1.19 0 0 1-1.08.61c-1.48 12.31-5.08 19.44-11.27 19.44-3.92 0-6.77-3.31-6.77-9.43 0-9.21 7.34-16 16.52-16 10.19 0 15.41 6 15.41 13.86 0 8.46-4.36 12.85-13.43 15.15a24.14 24.14 0 0 0-2.88-3.82c8.21-1.62 11.48-5.54 11.48-11.27s-4-9.72-10.65-9.72a15.31 15.31 0 0 0-1.84.14zM161.68 8a11.47 11.47 0 0 0-9 11.16c0 3 .9 5.15 2.48 5.15 3.56-.05 5.9-7.93 6.52-16.31zm32.72 19.25V0h12v1.48h-10.49v25.77z"/><path class="cls-2" d="M238.53 14.43a36.73 36.73 0 0 0 1 4.25 36.17 36.17 0 0 0 2.88-3l3.13 3.42a1 1 0 0 1-.61.18 1.79 1.79 0 0 1-.43-.07c-.94.72-2.48 1.84-3.82 2.66a14.3 14.3 0 0 0 4.86 6.3 15.66 15.66 0 0 0-2.74 3.35c-4.18-3.28-6.26-9.32-7.42-16.38a28.24 28.24 0 0 1-2.81 2.05 13 13 0 0 1 4.79 9.93c0 3.38-1.4 6.91-5.43 6.91-.68 0-1.4 0-2.12-.07a7.79 7.79 0 0 0-.94-3.63 17.46 17.46 0 0 0 2.23.18 1.64 1.64 0 0 0 1.62-.76 4.58 4.58 0 0 0 .79-3 40.51 40.51 0 0 1-8.1 5.29 13 13 0 0 0-2.41-2.88 30.64 30.64 0 0 0 9.72-6 10.48 10.48 0 0 0-.54-1.12 34.75 34.75 0 0 1-5.83 3.56 13.55 13.55 0 0 0-2.16-2.81 25.3 25.3 0 0 0 6.23-3.13 8.58 8.58 0 0 0-.83-.79c-1 .47-2 .94-3 1.3-.29-.47-.76-1.26-1.26-1.94a10.32 10.32 0 0 1 .32 1.22l-3.24 1.44a14.57 14.57 0 0 0-.47-1.76l-1.73.11v3l3.1-1a36.79 36.79 0 0 1 2 5.9L222 28.33a34.29 34.29 0 0 0-1.76-6v11.76h-3.74V22.43q-.16.32-.76.32a33.4 33.4 0 0 1-1.94 8.57 21.35 21.35 0 0 0-3-1.48 32 32 0 0 0 1.66-8.46l4.07.94v-2.77c-1.58.11-3 .18-4.14.22a.73.73 0 0 1-.65.54l-.89-4.31h2.48c.58-.72 1.15-1.51 1.76-2.3A31.94 31.94 0 0 0 211 8.6l2.12-2.92.76.72a44 44 0 0 0 2.7-6.26l4.21 1.62c-.11.25-.43.4-.94.4a53.49 53.49 0 0 1-3.67 6.7 18.68 18.68 0 0 1 1.15 1.48 60.23 60.23 0 0 0 3.31-5.9l4.07 1.8a1.08 1.08 0 0 1-1 .4c-1.15 1.91-2.74 4.25-4.36 6.48l3-1.3a36.73 36.73 0 0 1 2.65 5.6 28.33 28.33 0 0 0 6.23-3h-7.13V11h13V9.4h-9.83V6.3h9.83V4.68h-10.88V1.37h15V11h3.89v3.42zm-17.85 1.44c-.43-1-.9-1.91-1.37-2.77-.72 1-1.48 1.94-2.2 2.81z"/><path class="cls-1" d="M262.3 6.52v27.21h-11.92v-1.48h10.44V6.52zm44.09 10.69a.84.84 0 0 1-.29.07.86.86 0 0 1-.5-.18c-2.7.79-6.26 1.94-8.93 3 .07.72.07 1.55.07 2.41s0 1.8-.07 2.84l-4.54.32a36.94 36.94 0 0 0 .14-3.85c-2.81 1.4-4.86 3.24-4.86 4.61 0 1.58 2 2.23 6 2.23a80.85 80.85 0 0 0 8.93-.4l.07 4.18c-1.87.22-5 .25-9 .25-6.95 0-10.4-1.55-10.4-6 0-2.88 3.74-6.16 8.82-8.75-.11-1-.65-2-1.73-2-2.38 0-4.9 1.22-7.85 4.57-.86 1-2.2 2.41-3.74 3.92l-3.2-3.1a41 41 0 0 0 4.39-4.18 22 22 0 0 0 4-7.52h-6.95V5.54c2 .11 4.61.11 6.19.11h1.91a47 47 0 0 0 .76-4.75l5.51.54a1 1 0 0 1-.9.68c-.18 1.15-.47 2.23-.76 3.35a40.16 40.16 0 0 0 10.94-2l.72 4.25c-3.46 1.12-8.42 1.55-12.85 1.76a21.6 21.6 0 0 1-1.76 4.21 8.47 8.47 0 0 1 4.93-1.76c2.09 0 3.92 1.48 4.46 4.21 2.77-1.19 6.16-2.41 8.75-3.46zm38.38-13.83v3.78h-7.42a49.68 49.68 0 0 1 7.16 6.19l-3.81 2.45a20.89 20.89 0 0 0-2-2.2c-8.46.4-17.24.76-23 .9a.81.81 0 0 1-.65.58l-1.66-4.54h4.79c.79-1 1.55-2.23 2.23-3.35h-8.28V3.38h14V.11l5.4.29c0 .36-.29.58-.94.68v2.3zm-5.44 12.56v14.12c0 3.6-1.62 4.07-8.57 4a14.54 14.54 0 0 0-1.3-3.42c1 .07 2.34.07 3.28.07 2.12 0 2.2 0 2.2-.72v-1.37H321.8v5.47h-4.36V15.95zm-4.39 3.49H321.8V21h13.14zm-13.14 6.2h13.14V24H321.8zm12.06-18.47h-7.42a1.08 1.08 0 0 1-1 .4c-.65.86-1.51 1.91-2.38 2.88 3.71 0 7.78-.11 11.81-.22-.9-.72-1.84-1.44-2.7-2.05zm16.49-2.62c1.12 0 2.77 0 3.78-.11 4.14-.29 19.69-1.26 25.77-1.55l.1 4.86c-3.2-.11-5 .18-7.81 2.2-4 2.63-8.86 7.6-8.86 11.7s3.64 6.48 11.52 7.31l-2.23 4.5c-10.22-1.22-14.25-5.54-14.25-11.77 0-4.39 4-10.08 9.43-13.86-4.14.25-12.78 1-16.09 1.4-.07.29-.54.54-.86.61zm47.02 10.65a19 19 0 0 1 6.88-1.33c5.47 0 9.25 3.35 9.25 9C413.49 29.3 407.88 33 400 33c-4.64 0-7.92-2.12-7.92-5.76 0-2.92 3-5.29 6.33-5.29a7.26 7.26 0 0 1 7.31 5.69 5.19 5.19 0 0 0 3-4.79c0-3.1-2.56-5.08-6.19-5.08a18.2 18.2 0 0 0-12 4.46c-.86.79-2.3 2.23-3.24 3.28l-3.2-3.2c2.56-2.56 11.63-11.16 16.45-15.62-1.76.25-8 .58-10.87.76a1.34 1.34 0 0 1-.86.54L388.44 3c4.61 0 14.76-.4 17.13-.79l.54-.25L409 5.58a1.82 1.82 0 0 1-1 .4c-1.87 1.37-7.67 6.55-10.62 9.18zm1.91 13.93a13.3 13.3 0 0 0 2.2-.22 3.61 3.61 0 0 0-3.38-3.28c-1.19 0-2.27.61-2.27 1.66-.01 1.72 2.26 1.84 3.45 1.84zm39.56-20.45a1.19 1.19 0 0 1-1.08.61c-1.48 12.31-5.08 19.44-11.27 19.44-3.92 0-6.77-3.31-6.77-9.43 0-9.21 7.34-16 16.52-16 10.19 0 15.41 6 15.41 13.86 0 8.46-4.36 12.85-13.43 15.15a24.14 24.14 0 0 0-2.88-3.82c8.21-1.62 11.48-5.54 11.48-11.27s-4-9.72-10.65-9.72a15.31 15.31 0 0 0-1.84.14zM433.12 8a11.47 11.47 0 0 0-9 11.16c0 3 .9 5.15 2.48 5.15 3.57-.05 5.91-7.93 6.52-16.31zm33.51-5c-.07.4-.4.65-1.12.68a86.36 86.36 0 0 0-1.91 15.84 33.1 33.1 0 0 0 .25 5.08c.43-1 1.84-4.1 2.3-5.25l2.12 3.31a65 65 0 0 0-3 6.23 6.17 6.17 0 0 0-.27 1.71 4.83 4.83 0 0 0 .18 1.26l-4.54.68A42.66 42.66 0 0 1 459 19.69a124.14 124.14 0 0 1 1.69-17.53zm21.6 26.89c-1.33.07-2.77.11-4.14.11a49.25 49.25 0 0 1-6.12-.32c-5-.68-7-3.35-7-6.41 0-2.59 1.19-4.82 3.09-7.16l4.32 1.48c-1.62 1.58-2.66 3.24-2.66 5 0 2.7 3.24 3 7.52 3a46.76 46.76 0 0 0 5.15-.25zm-16.45-23.3A124.88 124.88 0 0 0 487 5.26l.4 4.46a133.39 133.39 0 0 1-15.48 1.22zm47.63-4.03h8V6.3h-8v1.48h4.9v7.88h-25.67V7.78h4.43V6.3h-7.92V2.56h7.92V.14l5.22.25c0 .36-.32.58-.94.72v1.45h7.74V.14l5.25.25c0 .4-.29.58-.94.72zm-23.9 20.88V17H527v6.48h-4.25v-3.2h-11.3a.91.91 0 0 1-.76.25c-.32.4-.72.83-1.08 1.22h8.21l.72-.14 2.92 1.4a1.08 1.08 0 0 1-.47.43c-3.71 6.3-11.81 9.39-20.55 10.76a17.11 17.11 0 0 0-1.94-3.56 42.44 42.44 0 0 0 8.85-1.84 18.33 18.33 0 0 0-3.2-1.69l2.66-2.16a19.28 19.28 0 0 1 4.36 2.3 15.87 15.87 0 0 0 3.78-2.59h-8.75a31.18 31.18 0 0 1-6.77 3.56 13.47 13.47 0 0 0-2.56-3 22.31 22.31 0 0 0 9-5h-6.3v3.2zm10.4-10.55v-2.38h-3.46v2.38zm9.18-5.11V6.3h-7.74v1.48zm-2 5.11v-2.38h-3.56v2.38zm7.2 0v-2.38h-3.6v2.38zm31.91-6.48h12.92v18.14h-4.54v-1.84h-8.38v11.34h-4.54V22.71h-8.06v2h-4.36V6.41h12.42V.11l5.54.32c0 .36-.29.58-1 .68zm-12.6 12.06h8.06v-7.81h-8.06zm12.6 0h8.39v-7.81h-8.39zm19.91-13.93c1.12 0 2.77 0 3.78-.11 4.14-.29 19.69-1.26 25.77-1.55l.07 4.86c-3.2-.11-5 .18-7.81 2.2-4 2.63-8.86 7.6-8.86 11.7s3.64 6.48 11.52 7.31l-2.23 4.5c-10.22-1.22-14.25-5.54-14.25-11.77 0-4.39 4-10.08 9.43-13.86-4.46.4-12.78 1-16.09 1.4-.07.29-.54.54-.86.61zm24 8.57a24.11 24.11 0 0 1 4.44 4.89l-2.12 1.69a24.91 24.91 0 0 0-4.25-4.93zm4.28-3.2a20.35 20.35 0 0 1 4.39 4.82l-2.09 1.66a25.51 25.51 0 0 0-4.28-4.9zM612.07 23a74.92 74.92 0 0 1 7.78 7.67l-3.71 3.38a85.16 85.16 0 0 0-7.42-8.1zM31.21 58.35l2.16.11v1.37C33 75.13 32.76 80.45 31.64 82s-2.41 1.91-5 1.91H24.8a11.12 11.12 0 0 0-1.12-4 23.85 23.85 0 0 0 3.2.18 1.22 1.22 0 0 0 1.12-.65c.68-1 1-5.29 1.22-17.06h-3.09c-.36 9.57-1.73 17-7.09 21.78a12.15 12.15 0 0 0-2.45-2.7c-5.58.54-11.27 1-15 1.3a.73.73 0 0 1-.59.54l-1-4.07c2-.07 4.61-.22 7.49-.36v-2.12H1.8v-3h5.69v-1.68H1v-3.14h6.49v-1.62H1.4v-8.42h16.42v8.42h-6.37v1.62h6.73v3.13h-6.73v1.66h5.94v3h-5.94v1.91l6.88-.43v.43c2.81-4 3.64-9.32 3.89-16.27h-3.54v-4h3.6v-7.92l5 .25c0 .4-.32.65-1 .76 0 2.41 0 4.72-.07 6.91h4.07zm-27.5-.07v-2.12H.11V53h3.6v-2.86l4.86.29c0 .32-.29.5-.94.65V53h3.53v-2.86l4.9.29c0 .32-.29.54-.94.65V53h3.71v3.17h-3.71v2.12h-4v-2.13H7.63v2.12zm1.37 6.16h2.41v-2.67H5.08zm8.82 0v-2.67h-2.45v2.66zM50 71a15.26 15.26 0 0 0-.47-1.84l-1.69.11v14.82h-3.67V72.43a.74.74 0 0 1-.72.32 33.75 33.75 0 0 1-1.94 8.57 19.6 19.6 0 0 0-3-1.48 30.72 30.72 0 0 0 1.62-8.46l4.07.94v-2.77c-1.55.11-3 .18-4.1.22a.73.73 0 0 1-.65.54L38.59 66h2.48c.58-.72 1.15-1.51 1.73-2.34a33.36 33.36 0 0 0-4.1-5.08c.83-1 1.48-2 2.12-2.92l.79.76a49.8 49.8 0 0 0 2.63-6.26l4.18 1.69a1 1 0 0 1-1 .36 51.72 51.72 0 0 1-3.56 6.62A18.68 18.68 0 0 1 45 60.29c1.26-2 2.41-4.1 3.28-5.87l4 1.84a1.08 1.08 0 0 1-1 .4c-1.15 1.91-2.7 4.21-4.32 6.41l3-1.22a36.61 36.61 0 0 1 2.81 6v-4.1h19.69v7.31h-3.92v-3.93h-12v3.92h-3.73v-1.3zm-1.73-5.15c-.4-1-.86-1.91-1.3-2.74-.72 1-1.44 1.91-2.16 2.77zM50 79a39.59 39.59 0 0 0-1.8-6.77l3.17-1A40.81 40.81 0 0 1 53.28 78zm11.88-9.9c0 .36-.29.58-.79.65-.5 7-2.74 11.91-8.21 14.25a14.79 14.79 0 0 0-2.63-3c4.75-1.81 6.45-5.91 6.59-12.1zM60.3 58.57v-2h-7.78V53h7.78v-2.89l5.22.25c0 .36-.29.58-.94.72V53h8.06v3.53h-8.06v2h6.59v3.49H54v-3.45zm6.8 20.33c0 1 .07 1.15.58 1.15h1.19c.54 0 .68-.58.76-4.5a9.81 9.81 0 0 0 3.46 1.58c-.36 5.18-1.33 6.55-3.78 6.55H67c-3.1 0-3.78-1.19-3.78-4.79v-10l4.82.29c0 .29-.32.5-.94.61zm101.16-6.65v4.21h-12.42v7.63h-4.46v-7.63H135v-4.21h5.76v-9.5h10.62v-4.4h-7.92a32.88 32.88 0 0 1-5.33 6.84 25.22 25.22 0 0 0-3.46-3c3.17-2.74 6.12-7.56 7.74-12.24l5.22 1.62a1 1 0 0 1-1 .43c-.29.72-.61 1.4-.94 2.12h20.55v4.18h-10.4v4.39h9.61v4h-9.61v5.47zm-23.18 0h6.3v-5.48h-6.3zm43.41-20.99a1.24 1.24 0 0 1-1.12.76c-.18 1.3-.54 3.06-.76 4.1a41.16 41.16 0 0 0 8.85-1.66l.54 4.28a72.53 72.53 0 0 1-10.22 1.55 60 60 0 0 1-6.95 17.21l-4.46-1.58A46.67 46.67 0 0 0 181 60.4h-6.23v-4.07h7a52.62 52.62 0 0 0 .76-5.54zM197.67 67c0 2.16.14 4.21.32 6.3a39.46 39.46 0 0 1 7 3.67l-2.12 4.21A34.65 34.65 0 0 0 198 78a5.87 5.87 0 0 1-.25 1.48c-.76 2.34-2.66 4-7 4-3.28 0-7.27-1.58-7.27-5.83.07-3.71 3.71-5.83 7.27-5.83a15.43 15.43 0 0 1 2.81.29c-.11-1.73-.14-3.53-.14-4.68zm-3.85 9.14a9.39 9.39 0 0 0-3.17-.58c-1.76 0-3.28.79-3.31 2.16s1.33 2.16 3.38 2.16c1.73 0 3.1-.86 3.1-2.63zm10.76-11.73A60.42 60.42 0 0 0 192 65.84l-.61-3.92a56.1 56.1 0 0 1 12.89-1.8zm5.51 16.65c2.2-6.52 6.77-19.73 8-23.07.76-2.05 1.87-5.51 2.16-6.7l6.16 1.48c-.18.54-.65.86-1.55.9-1.48 3.38-4.32 10.87-5.62 14.4a9.92 9.92 0 0 1 6.59-3c3 0 4.68 2.05 4.68 5.29 0 .65-.14 3.85-.14 4.57 0 2.09.83 3 2.34 3 2.7 0 4.79-3.2 6.37-9a26.53 26.53 0 0 0 4.21 2.52c-2.2 6.95-5.54 11.2-10.76 11.2-4.39 0-7-2.34-7-6.19 0-.65.14-3.85.14-4.57 0-1.66-.47-2.41-1.44-2.41-3.38 0-6.84 5-7.88 8-.47 1.44-1.08 3.24-1.62 5zm37.3-26.52c1.12 0 2.77 0 3.78-.11 4.14-.29 19.69-1.26 25.77-1.55l.07 4.86c-3.2-.11-5 .18-7.81 2.2-4 2.63-8.86 7.6-8.86 11.7s3.64 6.48 11.52 7.31l-2.23 4.5c-10.22-1.22-14.25-5.54-14.25-11.77 0-4.39 4-10.08 9.43-13.86-4.14.25-12.78 1-16.09 1.4-.07.29-.54.54-.86.61zM285.55 73a74.92 74.92 0 0 1 7.78 7.67l-3.71 3.38A85.16 85.16 0 0 0 282.2 76z"/><path class="cls-3" d="M331.12 62.31c-.11.4-.22.79-.29 1.19 5.22 1.44 7.52 5.08 7.52 9.11 0 5.76-4.32 9.65-13.57 10.8a16.65 16.65 0 0 0-1.87-3.64c6.48-.72 10.73-2.88 10.73-7.05 0-1.19-.4-4-4.28-5.26a26.72 26.72 0 0 1-6.8 9.36 7.92 7.92 0 0 0 .5 1.22l-3.71 2.38a8.89 8.89 0 0 1-.5-1.19 12 12 0 0 1-5.8 1.66c-3.17 0-5.25-2-5.25-5.36 0-5 3.82-8.89 8.93-11-.07-1.55-.07-3.13-.07-4.79-2.7.07-5.62.14-7.05.11l-.22-4.21h7.34c.07-1.55.11-3.35.18-4.86l5.65.43c-.07.36-.36.65-1 .72-.11 1-.18 2.41-.29 3.56A83.36 83.36 0 0 0 334.15 54l.4 4.36a100.52 100.52 0 0 1-13.46 1.22c0 1.26-.07 2.48-.07 3.67a20.46 20.46 0 0 1 5.4-.47 8.55 8.55 0 0 0 .29-1.62zm-13.35 13a51.91 51.91 0 0 1-.83-6.59c-2.84 1.4-4.79 3.6-4.79 6 0 2.05 1.55 2 2 1.94a7.27 7.27 0 0 0 3.62-1.39zm7.23-8.57a14.36 14.36 0 0 0-4 .5 45.43 45.43 0 0 0 .47 4.9 18.92 18.92 0 0 0 3.53-5.4z"/><path class="cls-1" d="M343.73 64a28.72 28.72 0 0 0 3.6-.86 56.61 56.61 0 0 1 12.74-2.34c5 0 9.68 2.59 9.68 8.67 0 8.24-7.42 11.12-17.93 11.91a26.42 26.42 0 0 0-1.3-3.92c8.71-.54 14.69-2.74 14.69-7.67 0-3.6-2.52-5.15-5.62-5.15h-.22a39.36 39.36 0 0 0-11.12 2.52c-.72.25-1.58.61-2.27.83a1.41 1.41 0 0 1-.79.72zm57.88.47a1.22 1.22 0 0 1-.36 0 1.57 1.57 0 0 1-.83-.22c-10.83 2.92-18.9 6.8-18.86 10.66 0 2.7 2.84 3.78 7.81 3.78a85.45 85.45 0 0 0 12.78-1l.43 4.61c-4.14.54-11.05.68-13.1.68-7.06 0-12.6-1.73-12.6-7.92 0-3.78 3.38-6.95 8.71-9.83-1.33-2.59-1.73-6.59-1.69-14.36l6.41.5c0 .54-.4.83-1.19.94v2.92a26.14 26.14 0 0 0 .83 8c3.06-1.37 6.52-2.66 10.19-3.92zm14.51-9.29a1.07 1.07 0 0 1-.94.61 56.36 56.36 0 0 0-.94 9.9c0 7.92 2.3 10.76 4.32 10.76 1.22 0 2.74-3.6 3.53-6.59a23.52 23.52 0 0 0 3.67 2.88c-1.73 5.9-4.07 8.64-7.38 8.64-5.58 0-8.31-6.95-8.67-12.81-.07-1.3-.14-2.7-.14-4.18a84.17 84.17 0 0 1 .65-10.29zm20.12 17.39c-1.08-6.48-4.07-10.33-8.5-13l2.84-3.38A20 20 0 0 1 441 71zm10.27-9.4c5.58-1.51 12.42-3 15.3-3 4.93 0 9.18 2.48 9.14 8.85 0 7-5.22 11.59-15.15 14.58a24.41 24.41 0 0 0-3.06-4c8.53-2.09 13.17-5.9 13.17-10.37 0-2.88-1.44-4.72-4.36-4.72-3.1 0-7.88 1.15-12.53 3 0 .36-.4.76-.76.9zm5.87-12.27a62.92 62.92 0 0 1 14.25 2.38l-1.22 4.57a60.43 60.43 0 0 0-14.18-2.63zm40.49 13.75h-9.65v19.44h-4.28V51.51h13.93zm-4-10h-5.62v1.91h5.62zm-5.62 6.91h5.62v-2.09h-5.62zm26.38-10v27.38c0 4.43-1.8 5.15-8.57 5.15a16.12 16.12 0 0 0-.94-3.38h-9v1.87h-3.92V66.85h14v12.88h2c1.91 0 2.12 0 2.12-.86V64.72h-9.9V51.51zM497.09 70h-6v2.2h6zm-6 7.52h6v-2.25h-6zm14.18-22.89h-5.79v1.91h5.79zm-5.79 7h5.79v-2.16h-5.79zm16.65-7.09c1.12 0 2.77 0 3.78-.11 4.14-.29 19.69-1.26 25.77-1.55l.07 4.86c-3.2-.11-5 .18-7.81 2.2-4 2.63-8.86 7.6-8.86 11.7s3.64 6.48 11.52 7.31l-2.23 4.5c-10.22-1.22-14.25-5.54-14.25-11.77 0-4.39 4-10.08 9.43-13.86-4.46.4-12.78 1-16.09 1.4-.07.29-.54.54-.86.61zm24 8.57a24.11 24.11 0 0 1 4.44 4.89l-2.12 1.69a24.91 24.91 0 0 0-4.25-4.93zm4.28-3.2a20.35 20.35 0 0 1 4.39 4.82l-2.09 1.66a25.51 25.51 0 0 0-4.28-4.9zm17.84-8.04c-.07.43-.4.72-1.08.83-.32 4.79-.68 13.21-.68 18.5 0 4.61 2.34 6.77 6.19 6.77 3.56 0 7.52-1.84 11.63-5.94a30.41 30.41 0 0 0 2.63 4.07c-4.5 4.46-9.25 6.55-14.29 6.55-8 0-11.09-4.36-11.09-11.45 0-4.82.25-15.26.5-19.62zm44.42 7.78a45.17 45.17 0 0 1-9.86 1.76 110.21 110.21 0 0 1-6.19 21.71l-4.68-1.66a71.3 71.3 0 0 0 6.16-19.8h-5.91l-.07-4.28c1.15.07 3 .07 4.75.07h1.83c.29-2.09.54-4.57.72-6.66l5.87.5c0 .43-.47.76-1 .86-.18 1.3-.47 3.24-.72 4.86a36.81 36.81 0 0 0 8.24-1.84zm9.54 22.82c-1.12.07-2.38.11-3.67.11a36.35 36.35 0 0 1-7.63-.65c-3.2-.76-4.79-3-4.75-5.47a8.42 8.42 0 0 1 2.3-5.33l3.85 1.4a5 5 0 0 0-1.66 3.17c0 2 1.84 2.48 7.34 2.48 1.44 0 3-.07 4.28-.18zM602.6 64.33a44.73 44.73 0 0 1 12.85-1.76v4.32a42 42 0 0 0-11.88 1.33zM632.34 79a5 5 0 1 1-5-5 5.05 5.05 0 0 1 5 5zm-1.62 0a3.4 3.4 0 1 0-3.42 3.38 3.4 3.4 0 0 0 3.42-3.38z"/><path class="cls-4" d="M81.65 83.47a18.68 18.68 0 0 1 .46-4.22 15.49 15.49 0 0 1 1.39-3.74A20.21 20.21 0 0 1 85.85 72a36.1 36.1 0 0 1 3.29-3.43L91.92 66a15.42 15.42 0 0 0 1.85-1.87 7.92 7.92 0 0 0 1.08-1.73 6.47 6.47 0 0 0 .5-1.87 19.78 19.78 0 0 0 .12-2.3q0-4.22-3.36-4.22a3.13 3.13 0 0 0-3.19 2 6.81 6.81 0 0 0-.53 2.11q-.12 1.2-.12 2.54h-6.62v-1.3q0-4.75 2.54-7.3t8-2.54q5.18 0 7.68 2.4t2.5 6.86a15.3 15.3 0 0 1-.29 3 11.56 11.56 0 0 1-.91 2.71A12.52 12.52 0 0 1 99.55 67a23.76 23.76 0 0 1-2.45 2.52l-3.84 3.58a14.38 14.38 0 0 0-2.4 2.71 7.86 7.86 0 0 0-1.1 2.28h12.82v5.38zm25.2-22.65a18.39 18.39 0 0 1 1.3-5.78 9.16 9.16 0 0 1 3.19-4 10.12 10.12 0 0 1 5.93-1.51 13 13 0 0 1 5.16.89 7.14 7.14 0 0 1 3.26 2.86 13.8 13.8 0 0 1 1.73 5.11 49.37 49.37 0 0 1 .5 7.66q0 3.55-.24 6.82a18.41 18.41 0 0 1-1.3 5.78 8.71 8.71 0 0 1-3.19 4 10.51 10.51 0 0 1-5.93 1.35 14.05 14.05 0 0 1-5.14-.82 6.7 6.7 0 0 1-3.29-2.78 13.79 13.79 0 0 1-1.73-5.11 49.35 49.35 0 0 1-.5-7.66q.01-3.55.25-6.81zm6.84 13.56a12.64 12.64 0 0 0 .6 3.22 3 3 0 0 0 1.15 1.61 3.5 3.5 0 0 0 1.82.43 3 3 0 0 0 1.87-.55 3.63 3.63 0 0 0 1.13-1.87 16.68 16.68 0 0 0 .58-3.53q.17-2.21.17-5.47v-3.7q0-3.22-.17-5.26a12.71 12.71 0 0 0-.6-3.22 3 3 0 0 0-1.15-1.61 3.5 3.5 0 0 0-1.82-.43 3 3 0 0 0-1.87.55 3.64 3.64 0 0 0-1.13 1.87 16.6 16.6 0 0 0-.58 3.53q-.17 2.21-.17 5.47v3.7q0 3.22.17 5.26z"/></g></g></svg>