<svg xmlns="http://www.w3.org/2000/svg" viewBox="0 0 57.28 24.57"><defs><style>.cls-1{fill:#b8d200}</style></defs><title>txt_1977</title><g id="レイヤー_2" data-name="レイヤー 2"><path class="cls-1" d="M5.41 7.46H0v-3.2c3.1 0 5.7-.86 6.59-4.16h3.3v24H5.41zm20.67 7.42c0 7.65-2.18 9.7-6.91 9.7-3.52 0-6-1.6-5.92-5.41h4.16c0 .8.13 2 2 1.89 2.53 0 2.27-3 2.34-4.48V15a4.09 4.09 0 0 1-3.52 1.6c-3.81 0-5.44-2.59-5.44-7.52 0-6 1.47-9.12 6.66-9.12 5.34 0 6.75 3.49 6.69 9.12zM19.3 3.52c-2.34 0-2.08 2.21-2.08 5.28 0 1.73-.22 4.32 2.18 4.32 2.21 0 2.21-2.34 2.21-4.32.02-2.98.09-5.5-2.31-5.28zM27.78.48h13.5v3.23a46.1 46.1 0 0 0-4.48 11.62 42.86 42.86 0 0 0-1.41 8.77h-4.61a49.79 49.79 0 0 1 3.81-14.66A34.83 34.83 0 0 1 37.34 4h-9.56zm16 0h13.5v3.23a46.1 46.1 0 0 0-4.48 11.62 42.86 42.86 0 0 0-1.41 8.77h-4.61a49.79 49.79 0 0 1 3.81-14.66A34.83 34.83 0 0 1 53.34 4h-9.56z" id="HISTORY2"/></g></svg>