<svg xmlns="http://www.w3.org/2000/svg" viewBox="0 0 58.08 24.57"><defs><style>.cls-1{fill:#b8d200}</style></defs><title>txt_1996</title><g id="レイヤー_2" data-name="レイヤー 2"><path class="cls-1" d="M5.41 7.46H0v-3.2c3.1 0 5.7-.86 6.59-4.16h3.3v24H5.41zm20.67 7.42c0 7.65-2.18 9.7-6.91 9.7-3.52 0-6-1.6-5.92-5.41h4.16c0 .8.13 2 2 1.89 2.53 0 2.27-3 2.34-4.48V15a4.1 4.1 0 0 1-3.52 1.6c-3.81 0-5.44-2.59-5.44-7.52 0-6 1.47-9.12 6.66-9.12 5.34 0 6.75 3.49 6.69 9.12zM19.29 3.52c-2.34 0-2.08 2.21-2.08 5.28 0 1.73-.22 4.32 2.18 4.32 2.21 0 2.21-2.34 2.21-4.32.03-2.98.1-5.5-2.31-5.28zm22.79 11.36c0 7.65-2.18 9.7-6.91 9.7-3.52 0-6-1.6-5.92-5.41h4.16c0 .8.13 2 2 1.89 2.53 0 2.27-3 2.34-4.48V15a4.1 4.1 0 0 1-3.52 1.6c-3.81 0-5.44-2.59-5.44-7.52 0-6 1.47-9.12 6.66-9.12 5.34 0 6.75 3.49 6.69 9.12zM35.29 3.52c-2.34 0-2.08 2.21-2.08 5.28 0 1.73-.22 4.32 2.18 4.32 2.21 0 2.21-2.34 2.21-4.32.03-2.98.1-5.5-2.31-5.28zm9.45 6.18c0-7.7 2.2-9.7 6.94-9.7 3.52 0 6 1.6 5.92 5.41h-4.16c0-.8-.1-2-1.92-1.89-2.53.19-2.3 3-2.37 4.48v1.54a4.1 4.1 0 0 1 3.52-1.6c3.81 0 5.41 2.59 5.41 7.52 0 6-1.44 9.12-6.62 9.12-5.34 0-6.78-3.49-6.72-9.12zm6.78 11.36c2.34 0 2.08-2.21 2.08-5.28 0-1.73.22-4.32-2.18-4.32-2.21 0-2.21 2.33-2.21 4.32-.03 2.97-.09 5.5 2.31 5.27z" id="HISTORY4"/></g></svg>