<svg xmlns="http://www.w3.org/2000/svg" viewBox="0 0 57.44 24.57"><defs><style>.cls-1{fill:#b8d200}</style></defs><title>txt_1986</title><g id="レイヤー_2" data-name="レイヤー 2"><path class="cls-1" d="M5.41 7.46H0v-3.2c3.1 0 5.7-.86 6.59-4.16h3.3v24H5.41zm20.67 7.42c0 7.65-2.18 9.7-6.91 9.7-3.52 0-6-1.6-5.92-5.41h4.16c0 .8.13 2 2 1.89 2.53 0 2.27-3 2.34-4.48V15a4.09 4.09 0 0 1-3.52 1.6c-3.81 0-5.44-2.59-5.44-7.52 0-6 1.47-9.12 6.66-9.12 5.34 0 6.75 3.49 6.69 9.12zM19.3 3.52c-2.34 0-2.08 2.21-2.08 5.28 0 1.73-.22 4.32 2.18 4.32 2.21 0 2.21-2.34 2.21-4.32.02-2.98.09-5.5-2.31-5.28zm9.31 2.02C28.61 3 30.27 0 34.82 0s6.11 2.11 6.11 6.18c0 2.53-.58 4-3 5v.06c2.75.58 3.58 2.56 3.58 6 0 5.31-2.5 7.29-6.56 7.29-5.09 0-6.85-2.43-6.85-7.26 0-3.55.93-5.12 3.36-6.21-1.96-.98-2.85-2.13-2.85-5.52zm6.21 15.52c2.18-.16 2.18-2 2.18-4 0-2.27-.1-4.22-2.24-4.22-2.34 0-2.21 2-2.21 4.61-.01 2.01.06 3.55 2.27 3.6zm2-14.85c0-1.82-.77-2.69-1.92-2.69-1.73 0-2.08 1.38-2.08 3 0 1.44.19 3.1 2 3.1s1.95-1.97 1.95-3.41zM44.1 9.7C44.1 2 46.3 0 51 0c3.52 0 6 1.6 5.92 5.41H52.8c0-.8-.1-2-1.92-1.89-2.53.19-2.3 3-2.37 4.48v1.54A4.09 4.09 0 0 1 52 7.94c3.81 0 5.41 2.59 5.41 7.52 0 6-1.44 9.12-6.62 9.12-5.34 0-6.78-3.49-6.72-9.12zm6.78 11.36C53.22 21 53 18.85 53 15.78c0-1.73.22-4.32-2.18-4.32-2.21 0-2.21 2.33-2.21 4.32-.07 2.97-.13 5.5 2.27 5.27z" id="HISTORY3"/></g></svg>