<svg xmlns="http://www.w3.org/2000/svg" viewBox="0 0 252.67 34.02"><defs><style>.cls-1{font-size:12.4px;fill:#fff;font-family:KozGoStd-Bold,KozGoStd Bold-83pv-RKSJ-H;font-weight:700}.cls-2{letter-spacing:.06em}.cls-3,.cls-4{letter-spacing:.04em}.cls-5{letter-spacing:-.01em}.cls-6{letter-spacing:.02em}.cls-7{letter-spacing:.03em}.cls-8{letter-spacing:.01em}.cls-9{letter-spacing:-.31em}.cls-10{letter-spacing:.06em}.cls-11{letter-spacing:-.04em}.cls-12{letter-spacing:-.02em}.cls-13{letter-spacing:-.06em}.cls-14{letter-spacing:-.12em}.cls-15{letter-spacing:-.32em}.cls-16{letter-spacing:.01em}.cls-17{letter-spacing:.05em}.cls-18{fill:none;stroke:#fff;stroke-linecap:round;stroke-linejoin:round;stroke-width:1.5px}</style></defs><g id="レイヤー_2" data-name="レイヤー 2"><g id="main_hover" data-name="main hover"><text class="cls-1" transform="matrix(.97 0 0 1 30.27 10.91)"><tspan class="cls-2">若い子の成<tspan class="cls-3" x="65.72" y="0">長を</tspan><tspan x="91.51" y="0">手助</tspan><tspan class="cls-4" x="117.8" y="0">け</tspan><tspan class="cls-5" x="130.7" y="0">す</tspan><tspan class="cls-6" x="142.98" y="0">る</tspan><tspan class="cls-7" x="155.62" y="0">の</tspan><tspan class="cls-8" x="168.4" y="0">も</tspan><tspan x="180.92" y="0">仕事</tspan><tspan class="cls-9" x="207.21" y="0">。</tspan></tspan><tspan class="cls-3" x="-.25" y="18.9">そ</tspan><tspan class="cls-7" x="12.65" y="18.9">れ</tspan><tspan class="cls-10" x="25.42" y="18.9">で成</tspan><tspan class="cls-11" x="51.71" y="18.9">長</tspan><tspan class="cls-12" x="63.61" y="18.9">し</tspan><tspan class="cls-13" x="75.77" y="18.9">て</tspan><tspan class="cls-14" x="87.42" y="18.9">く</tspan><tspan class="cls-2" x="98.33" y="18.9">れ</tspan><tspan class="cls-5" x="111.48" y="18.9">た</tspan><tspan x="123.76" y="18.9">ら</tspan><tspan class="cls-15" x="136.16" y="18.9">、</tspan><tspan class="cls-11" x="144.65" y="18.9">嬉</tspan><tspan class="cls-16" x="156.55" y="18.9">し</tspan><tspan class="cls-3" x="169.08" y="18.9">い</tspan><tspan class="cls-6" x="181.98" y="18.9">ん</tspan><tspan class="cls-10" x="194.62" y="18.9">で</tspan><tspan class="cls-17" x="207.77" y="18.9">す</tspan><tspan class="cls-15" x="220.79" y="18.9">。</tspan></text><path class="cls-18" d="M11.33 30.11l9.39-13.84-9.39-13.84M.75 30.11l9.39-13.84L.75 2.43"/></g></g></svg>