<svg xmlns="http://www.w3.org/2000/svg" width="381.76" height="49.06" viewBox="0 0 381.76 49.06"><defs><style>.cls-1{fill:none;stroke:#fff;stroke-linecap:round;stroke-linejoin:round;stroke-width:2.5px}.cls-2{fill:#fff}</style></defs><title>アセット 1</title><g id="レイヤー_2" data-name="レイヤー 2"><g id="CT_01_hover"><path class="cls-1" d="M18.05 47.52l14.9-21.97-14.9-21.98M1.25 47.52l14.9-21.97L1.25 3.57"/><path class="cls-2" d="M66.28 4.6h1.08v.7c-.14 8.64-.26 11.58-.82 12.42s-1.24 1.06-3.28 1a5.66 5.66 0 0 0-.56-2.08c.62.06 1.14.08 1.46.08a.59.59 0 0 0 .58-.36c.34-.54.48-2.92.6-9.74h-1c0 3.24-.08 8.8-3.12 12.3a8.2 8.2 0 0 0-1.68-1.26c-2 .26-3.86.48-5.18.62a.43.43 0 0 1-.34.32l-.74-2.2 3.14-.22V15h-2.68v-1.76h2.62v-1h-2.58v-6h2.6v-.8h-2.82V3.66h2.82v-.74c-.78.08-1.58.12-2.32.16a6.65 6.65 0 0 0-.42-1.32c-.34 1.06-.72 2.1-1.14 3.14l.68.2a.56.56 0 0 1-.52.34v13.48h-2.14V9a17.71 17.71 0 0 1-1.26 1.92 26.23 26.23 0 0 0-.92-2.56A26.38 26.38 0 0 0 51.82.08l2.56.82a.5.5 0 0 1-.54.24l-.1.3a48.54 48.54 0 0 0 6.2-.88l1.36 1.72c-.08.06-.1.06-.44.06-.7.14-1.54.26-2.46.38v.94h2.88v.94h1V.08l2.52.14c0 .18-.16.3-.5.34v4zm-11 3.12v.9h1.24v-.9zm0 2.22v.9h1.24v-.9zm2.86-1.32h1.36v-.9h-1.32zm0 2.22h1.36v-.9h-1.32zm2.94 4.06a21.93 21.93 0 0 0 1.14-7.84v-.4H61.2V5.44h-2.8v.84h2.7v6h-2.72v1h2.74zm-2.7 1.1l2.34-.2a6 6 0 0 0 .36-.82h-2.7zm27.56-8a28 28 0 0 1-5.54 1 7 7 0 0 0 2.94 2.48l-1.4 2a4.88 4.88 0 0 0-3.1-.86 6.79 6.79 0 0 0-1.1.08l-.6-1.84h1.78a8.35 8.35 0 0 1-1.08-1.56c-1.46.1-3 .14-4.3.14h-3.66v-2.1h2.66c1.54 0 3.08 0 4.62-.1-.16-.48-.44-1.24-.6-1.94-.66.06-1.54.08-2.3.08H71.1V3.26c1.06.06 2.12.06 3 .06.6 0 1.4 0 2-.06-.16-.82-.3-1.9-.42-2.84l3.18.06c0 .24-.2.42-.54.48.06.64.14 1.44.26 2.12a22.73 22.73 0 0 0 5-1l.48 2.14a25.87 25.87 0 0 1-5.1.94c.18.68.36 1.44.52 1.94a27.19 27.19 0 0 0 5.94-1.28zM82.4 18.08a30.57 30.57 0 0 1-3.18.14H77.7c-3.46 0-5.86-1.22-5.86-3.52A4.19 4.19 0 0 1 74 11.48L75.68 13a2.08 2.08 0 0 0-1.28 1.54c0 1.38 2.3 1.44 3.72 1.44a42.87 42.87 0 0 0 4.4-.22zM100.9 4a2.82 2.82 0 0 1 .4 0 4.31 4.31 0 0 1 4.5 4.32c0 2.88-2 4.48-4.8 4.48a6.14 6.14 0 0 1-3.8-1.4c.2-.52.44-1.44.62-2.1a5.06 5.06 0 0 0 3 1.2 2.1 2.1 0 0 0 2.32-2.18c0-.84-.5-2-2.52-2a18.38 18.38 0 0 0-5.48 1.38c1.06 3.56 2.28 7.54 2.92 10.24l-2.74.58c-.48-2.7-1.64-6.8-2.56-9.92-1.14.4-2.68.96-3.76 1.4a.61.61 0 0 1-.38.46l-1-2.64c1.14-.36 3-.94 4.44-1.46-.54-1.78-1-3.42-1.5-4.8L93.88 1c0 .26-.12.36-.44.52.28 1 .66 2.44 1.12 4a31.24 31.24 0 0 1 4.66-1.32 18.94 18.94 0 0 0-3.14-2.3L97.7.36a15.48 15.48 0 0 1 4.06 2.88zm7.1-.76c1.26 0 3-.06 4.58-.1.94 0 2.36-.08 3.8-.12 0-.3 0-1.92-.12-2.82l3.3.16a.64.64 0 0 1-.56.44v2.16c2.62-.08 5.24-.14 6.32-.16v2.36h-2.2c-1.2 0-2.62 0-4.1.06l.12 3.56a7.21 7.21 0 0 1 .3 2.28 7 7 0 0 1-.42 2.64 9.21 9.21 0 0 1-5.66 5.12 12.41 12.41 0 0 0-1.86-2c2.16-.74 3.8-1.78 4.5-3a1.78 1.78 0 0 1-1.1.38 3.58 3.58 0 0 1-3.56-3.64 3.85 3.85 0 0 1 3.86-3.88 3.1 3.1 0 0 1 1.3.3c0-.2 0-1.3-.06-1.7-1.48 0-8.08.26-8.4.28zm8.86 7.24c0-.44 0-1.84-1.52-1.84a1.75 1.75 0 0 0-1.72 1.88 1.68 1.68 0 0 0 1.64 1.72 1.6 1.6 0 0 0 1.6-1.76zm14.88-7.66a.59.59 0 0 1-.52.34 31.33 31.33 0 0 0-.52 5.5c0 4.4 1.28 6 2.4 6 .68 0 1.52-2 2-3.66a13.07 13.07 0 0 0 2 1.6c-1 3.28-2.26 4.8-4.1 4.8-3.1 0-4.62-3.86-4.82-7.12 0-.72-.08-1.5-.08-2.32a46.73 46.73 0 0 1 .36-5.72zm11.18 9.66a9.53 9.53 0 0 0-4.72-7.2l1.58-1.88a11.12 11.12 0 0 1 5.78 8.2zm11.16 0l.24 2c-2.2.58-4.52 1.18-6 1.54a.47.47 0 0 1-.36.36l-.68-2.5c.7-.14 1.58-.3 2.52-.5V9.34h-2V7.22h2V3.58h-2.2V1.46h6.52v2.12h-2.18v3.64h1.86v2.12h-1.86v3.6zm10.26.68l1.86 1.42a.47.47 0 0 1-.34.12.68.68 0 0 1-.2 0c-.48.28-1.28.74-1.94 1.06a9.67 9.67 0 0 0 2.62 1.24 9 9 0 0 0-1.5 1.88 10.36 10.36 0 0 1-4.9-4.36v4.34h-2.28v-3a19.72 19.72 0 0 1-3.86 2 11.16 11.16 0 0 0-1.38-1.7 18.89 18.89 0 0 0 5.88-3h-3.12V8.48h9.76v4.68zm-10.52-7.3h12.58v1.92h-12.58zm11.66-5.2v4.52H154.7V.66zm-7.64 2.92v-1.3h-1.22v1.3zm-.56 6.72v1h5.44v-1zm3.38-6.72v-1.3h-1.28v1.3zm.6 9.58a8.59 8.59 0 0 0 1.2 1.5 16.11 16.11 0 0 0 1.84-1.5zm2.22-9.58v-1.3h-1.3v1.3zm9.06 8.42l1.9-.62c.14.66.26 1.32.4 2.1-2 .84-4.16 1.68-5.58 2.22a.46.46 0 0 1-.3.38l-1.06-2.66c.66-.18 1.5-.42 2.4-.7V7.06h-2V4.8h2V.2l2.76.16c0 .2-.16.3-.52.36V4.8h1.78v2.26h-1.78zm7.56 2.14c0 .16-.2.3-.5.32-.56 2-1.44 3.54-5.4 4.52a6.93 6.93 0 0 0-1.3-2c3.4-.58 4.14-1.54 4.46-3.1zM187 4.9v1.94h-12.5V4.9h2.72a9.1 9.1 0 0 0-.54-1.46l.78-.16H175V1.42h4.4V0l2.88.14c0 .2-.16.32-.52.4v.88h4.78v1.86h-2.2l.7.18c0 .14-.22.22-.48.22-.18.36-.44.8-.68 1.22zm-3.5 11.3c0 .5.06.56.4.56h.9c.34 0 .42-.2.48-1.72a6.1 6.1 0 0 0 2 .84c-.22 2.32-.78 2.92-2.18 2.92h-1.58c-1.9 0-2.28-.66-2.28-2.56v-2.56h-5.62V7.6h10.26v6.08H184a.72.72 0 0 1-.48.22zm-5.64-7.14v.88h5.64v-.88zm0 2.26v.92h5.64v-.92zm3.9-6.46a12.24 12.24 0 0 0 .56-1.58h-3.4a6.68 6.68 0 0 1 .58 1.58h-.18 2.56zM202.68 8a.68.68 0 0 1-.2 0 .88.88 0 0 1-.46-.12c-6 1.62-10.5 3.78-10.48 5.92 0 1.5 1.58 2.1 4.34 2.1a47.46 47.46 0 0 0 7.1-.54l.24 2.56c-2.3.3-6.14.38-7.28.38-3.92 0-7-1-7-4.4 0-2.1 1.88-3.86 4.84-5.46-.74-1.44-1-3.66-.94-8l3.56.28c0 .3-.22.46-.66.52v1.62a14.52 14.52 0 0 0 .46 4.42c1.7-.76 3.62-1.48 5.66-2.18zm17.52-.7l1.78 1a.68.68 0 0 1-.38.32 14.19 14.19 0 0 1-4.6 6.1 23.69 23.69 0 0 0 7.18 1.84 10.76 10.76 0 0 0-1.54 2.34 21.49 21.49 0 0 1-8.06-2.62 26 26 0 0 1-8 2.58 9.25 9.25 0 0 0-1.32-2.32 27.53 27.53 0 0 0 7.18-1.84 15.4 15.4 0 0 1-3.4-4.36l1.8-.62H207V7.38h6.34V5h-7.52V2.66h7.52V0l3.06.16c0 .2-.18.32-.56.4v2.1h7.64V5h-7.64v2.38h3.9zm-8.86 2.44a10.78 10.78 0 0 0 3.4 3.72 10.68 10.68 0 0 0 3.54-3.72zM234 11.1a4.73 4.73 0 0 1 1.66-.34 1.8 1.8 0 0 1 1.82 1.9v1.62c0 1.52.84 1.52 1.88 1.52a17.32 17.32 0 0 0 2.82-.24v.92a15.5 15.5 0 0 0 .06 1.58c-.84.06-1.88.12-2.84.12a14.12 14.12 0 0 1-1.74-.08 2.58 2.58 0 0 1-2.6-2.54v-1.78c0-.5-.28-1-.82-1a5.33 5.33 0 0 0-3.3 1.62c-1 1-3.06 3-3.62 3.72a22.43 22.43 0 0 0-1.9-2c2-1.9 7.44-6.92 9.06-8.48-1.3.12-4.78.32-6.82.46-.12.18-.16.24-.32.24l-.2-2.7c2.72-.08 7.74-.26 9.86-.44l.36-.22 1.92 1.78a.71.71 0 0 1-.52.16c-1.28 1-3.12 2.64-4.74 4.12zm3.78-7a46 46 0 0 0-8.2-1.28l.6-2.34a43.94 43.94 0 0 1 8.24 1.2zm5.52-1.64c.62 0 1.54 0 2.1-.06 2.3-.16 10.94-.7 14.32-.86v2.7a5.91 5.91 0 0 0-4.34 1.22c-2.2 1.46-4.92 4.22-4.92 6.5s2 3.6 6.4 4.06l-1.24 2.5c-5.68-.68-7.92-3.08-7.92-6.54 0-2.44 2.24-5.6 5.24-7.7-2.3.14-7.1.58-8.94.78 0 .16-.3.3-.48.34zm28.76 16.26a57.45 57.45 0 0 0-7.7-7.08c-1.2-.94-1.48-1.5-1.48-2.48a2.51 2.51 0 0 1 .94-1.94c2-1.86 5.58-5.4 7.12-7L273.8 2a.83.83 0 0 1-.78.22c-1.84 1.7-4.66 4.16-6.3 5.68-.44.44-.9.84-.9 1.12s.5.72 1.22 1.22a63.18 63.18 0 0 1 7.58 6.46zm5.1-14.46a28.87 28.87 0 0 0 3.58-.26c0-.32.12-3.48.12-3.56l3.26.22c0 .2-.2.36-.56.42-.1.84-.2 1.8-.26 2.54l.86.36A15.25 15.25 0 0 0 283 6.54c2.1-1.94 4.12-2.88 5.56-2.88 2 0 3.18 1.38 3.18 3.84v.72a51.53 51.53 0 0 0-.32 5.18c0 1 .1 1.52.74 1.52a5.66 5.66 0 0 0 2.48-1.34c0 .66.16 2.28.24 2.8a6.35 6.35 0 0 1-3.18 1.2c-2.16 0-2.88-1.2-2.88-3.74 0-.26 0-2 .3-5.18v-.62c0-1.22-.44-1.78-1.18-1.78-1.18 0-3.14 1.16-5 3.2v8.74h-2.48v-6.56a17.93 17.93 0 0 1-3.12 3.7L276.26 13a18.06 18.06 0 0 0 4.32-5.22V6.42a24.3 24.3 0 0 1-3.42.34zM303 8.38a10.55 10.55 0 0 1 3.82-.74c3 0 5.14 1.86 5.14 5 0 3.58-3.12 5.66-7.48 5.66-2.58 0-4.4-1.18-4.4-3.2 0-1.62 1.64-2.94 3.52-2.94a4 4 0 0 1 4.06 3.16 2.89 2.89 0 0 0 1.66-2.66c0-1.72-1.42-2.82-3.44-2.82a10.11 10.11 0 0 0-6.66 2.48c-.48.44-1.28 1.24-1.8 1.82l-1.78-1.78c1.42-1.42 6.46-6.2 9.14-8.68-1 .14-4.44.32-6 .42a.74.74 0 0 1-.48.3l-.22-2.82c2.56 0 8.2-.22 9.52-.44l.3-.14 1.62 2a1 1 0 0 1-.58.22c-1 .76-4.26 3.64-5.9 5.1zm1.06 7.74a7.41 7.41 0 0 0 1.24-.12 2 2 0 0 0-1.88-1.82c-.66 0-1.26.34-1.26.92 0 .9 1.26 1.02 1.92 1.02zm20.08-.66h8.56v2.42h-18.38v-2.42h7.24V.26l3.16.18c0 .2-.18.34-.58.4V6h7.14v2.48h-7.14zM352 1.22V15.9c0 2.68-1.14 3-5 3a9 9 0 0 0-.8-2.62c.64 0 1.32.06 1.86.06 1.4 0 1.48 0 1.48-.48V3.5h-13.9V1.22zm-4.4 3.7V7h-11.9V4.92zm-9.5 3.62h7.64v7h-6.42v1.58H337V8.54zm5.28 4.86v-2.8h-4.06v2.8zm17.48 2.68a2.8 2.8 0 1 1-2.8-2.8 2.81 2.81 0 0 1 2.8 2.8zm-.9 0a1.89 1.89 0 1 0-1.9 1.88 1.89 1.89 0 0 0 1.94-1.88zM67.14 40.38H60.6a19.29 19.29 0 0 0 7.08 5.4 11 11 0 0 0-1.82 2.14 21.66 21.66 0 0 1-6.5-5.52v6.48H56.8v-6.24A22 22 0 0 1 50.32 48a12.69 12.69 0 0 0-1.78-2.1 19.69 19.69 0 0 0 7.14-5.54h-6.54V38h7.66v-2.58h-6.14V33h6.14v-3l3.1.16c0 .2-.18.32-.54.4V33h6.32v2.38h-6.32V38h7.78zm20.6.7H81.5a18.39 18.39 0 0 0 6.8 5.06 11.64 11.64 0 0 0-1.78 2.16A20.69 20.69 0 0 1 80 42.82v6h-2.56V43a21.43 21.43 0 0 1-6.54 5.24 11.79 11.79 0 0 0-1.78-2.1A19.14 19.14 0 0 0 76 41.08h-6.32v-2.3h3.8a14.63 14.63 0 0 0-1.5-3.4l2.16-.8a14.69 14.69 0 0 1 1.72 3.54l-1.7.66h3.28V34.5h-6.8v-2.3h6.8V30l3.1.18c0 .18-.18.32-.56.38v1.64h7v2.3h-3.4l2.66 1a.6.6 0 0 1-.58.22 23.24 23.24 0 0 1-1.82 3.1h3.9zM80 34.5v4.28h3.14l-1.52-.62a21.46 21.46 0 0 0 1.8-3.66zm27.08 5a.47.47 0 0 1-.16 0 .48.48 0 0 1-.28-.1c-1.5.44-3.48 1.08-5 1.64v2.92l-2.52.18a20.61 20.61 0 0 0 .12-2.14c-1.56.78-2.7 1.8-2.7 2.56s1.1 1.24 3.36 1.24a44.93 44.93 0 0 0 5-.22v2.32c-1 .12-2.76.14-5 .14-3.86 0-5.78-.86-5.78-3.34 0-1.6 2.08-3.42 4.9-4.86-.06-.58-.36-1.12-1-1.12-1.32 0-2.72.68-4.36 2.54-.48.56-1.22 1.34-2.08 2.18l-1.78-1.72a22.76 22.76 0 0 0 2.44-2.32 12.2 12.2 0 0 0 2.24-4.18h-3.86V33c1.12.06 2.56.06 3.44.06h1.06a26.21 26.21 0 0 0 .42-2.64l3.06.3a.53.53 0 0 1-.5.38c-.1.64-.26 1.24-.42 1.86a22.31 22.31 0 0 0 6.08-1.1l.4 2.36a30.47 30.47 0 0 1-7.14 1 12 12 0 0 1-1 2.34 4.71 4.71 0 0 1 2.74-1 2.59 2.59 0 0 1 2.48 2.34c1.54-.66 3.42-1.34 4.86-1.92zm10.24 3.26c0 .18-.2.32-.52.36-.5 2.76-1.36 4.76-6.62 5.82a7.67 7.67 0 0 0-1.3-2.14c4.56-.7 5.14-2 5.44-4.32zm4.36 2.94c0 .66.12.76.88.76h2.1c.7 0 .82-.36.92-2.72a7 7 0 0 0 2.2 1c-.26 3.2-.9 4-2.9 4h-2.66c-2.4 0-3-.72-3-3V42h-7.48V30.64H125V42h-3.28zm-7.6-13.08v1.24h8.44v-1.24zm0 3.06v1.26h8.44v-1.26zm0 3.1v1.28h8.44v-1.28zm22.06-.2l.28 2c-.72.24-1.44.46-2.14.7v4.94c0 2.18-.8 2.64-3.86 2.64a8.31 8.31 0 0 0-.66-2.3h1.14c1.06 0 1.1 0 1.1-.38V42l-1.7.5a.45.45 0 0 1-.34.38l-.62-2.66c.74-.14 1.66-.36 2.66-.62v-3.5h-2.4v-2.2h2.4V30l2.8.14c0 .2-.16.32-.52.38v3.38h2v2.22h-2v2.94zm12.22 1.88h-4.14v1.92h3.44v6.46h-2.16v-.56h-4.68v.58h-2.06v-6.48H142v-1.92h-3.08c-.24 2.92-.86 6.14-2.38 8.4a8.56 8.56 0 0 0-1.9-1.34c2-3 2.18-7.38 2.18-10.56v-6.14h11.06v5.78H139v1.84h3v-1.82l2.78.16c0 .18-.16.3-.52.34v1.32h4.14zm-2.78-7.6H139v1.7h6.56zm-.08 13.52v-2h-4.68v2zm12.72-5.28a4.73 4.73 0 0 1 1.66-.34 1.8 1.8 0 0 1 1.82 1.9v1.62c0 1.52.84 1.52 1.88 1.52a17.32 17.32 0 0 0 2.82-.24v.92a15.5 15.5 0 0 0 .06 1.58c-.84.06-1.88.12-2.84.12a14.12 14.12 0 0 1-1.74-.08 2.58 2.58 0 0 1-2.6-2.54v-1.78c0-.5-.28-1-.82-1a5.33 5.33 0 0 0-3.3 1.62c-1 1-3.06 3-3.62 3.72a22.43 22.43 0 0 0-1.9-2c2-1.9 7.44-6.92 9.06-8.48-1.3.12-4.78.32-6.82.46-.12.18-.16.24-.32.24l-.2-2.7c2.72-.08 7.74-.26 9.86-.44l.36-.22 1.92 1.78a.71.71 0 0 1-.5.24c-1.28 1-3.12 2.64-4.74 4.12zm3.78-7a46 46 0 0 0-8.2-1.28l.6-2.34a43.94 43.94 0 0 1 8.24 1.2zm5.5-1.64c.62 0 1.54 0 2.1-.06 2.3-.16 10.94-.7 14.32-.86v2.7a5.91 5.91 0 0 0-4.34 1.22c-2.2 1.46-4.92 4.22-4.92 6.5s2 3.6 6.4 4.06l-1.24 2.5c-5.68-.68-7.92-3.08-7.92-6.54 0-2.44 2.24-5.6 5.24-7.7-2.3.14-7.1.58-8.94.78 0 .16-.3.3-.48.34zm20.2 10.28A41.62 41.62 0 0 1 192 47l-2 1.88a47.43 47.43 0 0 0-4.12-4.5zm23.86-7.2a43.87 43.87 0 0 0 .88 5.7 20.4 20.4 0 0 0 2-4.58l2.76.78c0 .18-.24.3-.56.28a23.77 23.77 0 0 1-3.26 6.44c.58 1.46 1.26 2.36 2 2.36.5 0 .78-1.06.9-3.6a5.8 5.8 0 0 0 1.94 1.36c-.4 3.72-1.18 4.62-3 4.62-1.4 0-2.54-1-3.44-2.72a16.83 16.83 0 0 1-3.42 2.76 15.14 15.14 0 0 0-1.58-1.88 14.36 14.36 0 0 0 4-3.3 37.47 37.47 0 0 1-1.5-8.22h-6v2h4.96v.72c-.08 4.52-.2 6.32-.66 6.94s-1.18.92-3.7.86a5.62 5.62 0 0 0-.66-2.22c.74.06 1.42.08 1.74.08a.72.72 0 0 0 .6-.24c.22-.28.3-1.32.36-4h-2.8c-.08 2.92-.54 6.74-2.38 9.16a9.5 9.5 0 0 0-1.88-1.58c1.74-2.34 1.88-5.78 1.88-8.38v-5.64H209c-.06-1.06-.1-2.14-.1-3.2l3 .16c0 .22-.2.34-.58.4v2.64h3.36a20.7 20.7 0 0 0-2.48-1.8l1.5-1.4a17.58 17.58 0 0 1 3.1 2.18l-1 1h1.74v2.3zm24.36 6.1L237.7 43a.68.68 0 0 1-.6.12 33.27 33.27 0 0 1-3.28 1.88 13.34 13.34 0 0 0 4.68 1.72 10 10 0 0 0-1.5 2.18 11.9 11.9 0 0 1-8.92-7.26h-2.34v4.28c1.38-.18 2.84-.36 4.24-.56l.1 2c-3 .52-6.08 1-8.1 1.32a.43.43 0 0 1-.34.34l-.88-2.46 2.5-.28v-4.6h-3.36V39.5h3.36v-8.8H236v2h-10.28v1.06h9.74v1.86h-9.74v1h9.74v1.86h-9.74v1h12.4v2.14zm-5.36 0a9 9 0 0 0 1.6 2.08 28.17 28.17 0 0 0 3.06-2.08zm9.64-9.18c.62 0 1.54 0 2.1-.06 2.3-.16 10.94-.7 14.32-.86v2.7a5.91 5.91 0 0 0-4.34 1.22c-2.2 1.46-4.92 4.22-4.92 6.5s2 3.6 6.4 4.06l-1.24 2.5c-5.68-.68-7.92-3.08-7.92-6.54 0-2.44 2.24-5.6 5.24-7.7-2.48.22-7.1.58-8.94.78 0 .16-.3.3-.48.34zm13.36 4.76a13.38 13.38 0 0 1 2.44 2.7l-1.18.94a13.83 13.83 0 0 0-2.36-2.74zm2.38-1.78a11.33 11.33 0 0 1 2.44 2.68l-1.16.92a14.15 14.15 0 0 0-2.38-2.72zm20.3 2.56a28 28 0 0 1-5.54 1 7 7 0 0 0 2.94 2.48l-1.4 2a4.88 4.88 0 0 0-3.1-.86 6.79 6.79 0 0 0-1.1.08l-.6-1.84h1.78a8.35 8.35 0 0 1-1.08-1.56c-1.46.1-3 .14-4.3.14h-3.66v-2.1h2.66c1.54 0 3.08 0 4.62-.1-.14-.48-.4-1.28-.56-1.94-.66.06-1.54.08-2.3.08h-3.16v-2.12c1.06.06 2.12.06 3 .06.6 0 1.4 0 2-.06-.16-.82-.3-1.9-.42-2.84l3.18.06c0 .24-.2.42-.54.48.06.64.14 1.44.26 2.12a22.73 22.73 0 0 0 5-1l.48 2.14a25.87 25.87 0 0 1-5.1.94c.18.68.36 1.44.52 1.94a27.19 27.19 0 0 0 5.94-1.28zm-3.54 10.08a30.57 30.57 0 0 1-3.18.14H268c-3.46 0-5.86-1.22-5.86-3.52a4.19 4.19 0 0 1 2.18-3.2L266 43a2.08 2.08 0 0 0-1.28 1.54c0 1.38 2.3 1.44 3.72 1.44a42.87 42.87 0 0 0 4.4-.22zm12.22-9.7a10.55 10.55 0 0 1 3.82-.74c3 0 5.14 1.86 5.14 5 0 3.58-3.12 5.66-7.48 5.66-2.58 0-4.4-1.18-4.4-3.2 0-1.62 1.64-2.94 3.52-2.94a4 4 0 0 1 4.06 3.16 2.89 2.89 0 0 0 1.66-2.66c0-1.72-1.42-2.82-3.44-2.82a10.11 10.11 0 0 0-6.66 2.48c-.48.44-1.28 1.24-1.8 1.82l-1.78-1.78c1.42-1.42 6.46-6.2 9.14-8.68-1 .14-4.44.32-6 .42a.74.74 0 0 1-.48.3l-.22-2.82c2.56 0 8.2-.22 9.52-.44l.3-.14 1.62 2a1 1 0 0 1-.58.22c-1 .76-4.26 3.64-5.9 5.1zm1.08 7.74a7.41 7.41 0 0 0 1.2-.12 2 2 0 0 0-1.88-1.82c-.66 0-1.26.34-1.26.92 0 .9 1.26 1.02 1.94 1.02zm28.82-5.98h-8.14c-.18.34-.36.66-.56 1h7.08l1.28.2a5.86 5.86 0 0 1-.1.58c-.28 4-.62 5.66-1.16 6.26s-1.16.74-2.54.74h-.84a4.59 4.59 0 0 0-.5-1.82 10.39 10.39 0 0 1-1.68 2 7.82 7.82 0 0 0-1.72-1.36 10.67 10.67 0 0 0 3.3-4.68h-1.14a15.91 15.91 0 0 1-4.54 5.24 8.33 8.33 0 0 0-1.56-1.46 12 12 0 0 0 4-3.84h-1.3a12.7 12.7 0 0 1-2.5 2.18 14.1 14.1 0 0 0-1.5-1.38 3.24 3.24 0 0 0 .36-.2c-1.5.7-2.94 1.34-4 1.8a.43.43 0 0 1-.3.4l-1-2.62c.68-.22 1.54-.54 2.48-.88v-5.82h-2.06v-2.26h2.06V30l2.74.16c0 .2-.16.3-.5.36v3.68h1.84v2.26h-1.84v4.94l1.68-.66s0 .08.36 1.62a10.61 10.61 0 0 0 1.76-2.24H302v-2h12.86zm-1.4-9.64v6.82h-9.56V30.5zm-2.22 2.62v-1H306v1zm0 2.54v-1H306v1zm0 7.36a17.16 17.16 0 0 1-1.82 3.98 13.6 13.6 0 0 0 1.38.06.63.63 0 0 0 .58-.24c.28-.3.54-1.32.74-3.76zm14.22-1.42h-5.5c-.12 2.46-.56 5.34-1.8 7.3a10.55 10.55 0 0 0-1.9-1.44c1.34-2.16 1.46-5.3 1.46-7.64V34.7h7.74zm.52-10.6v2.16h-9.18V31zm-2.84 5.88H320v2.62h3.14zm12.5 0v2.3h-1.92v9.72h-2.38v-9.74h-2.36c-.16 3.1-.9 7-3.6 9.66a6.3 6.3 0 0 0-1.78-1.62c2.8-2.82 3.08-6.74 3.08-9.72V32l1.42.34a23.6 23.6 0 0 0 5.22-2.08l2.22 1.88c-.12.12-.32.12-.56.12a37.67 37.67 0 0 1-6 2v2.62zm1.6-4.42c.62 0 1.54 0 2.1-.06 2.3-.16 10.94-.7 14.32-.86v2.7a5.91 5.91 0 0 0-4.34 1.22c-2.2 1.46-4.92 4.22-4.92 6.5s2 3.6 6.4 4.06l-1.24 2.5c-5.68-.68-7.92-3.08-7.92-6.54 0-2.44 2.24-5.6 5.24-7.7-2.48.22-7.1.58-8.94.78 0 .16-.3.3-.48.34zm13.36 4.76a13.38 13.38 0 0 1 2.44 2.7l-1.18.94a13.83 13.83 0 0 0-2.36-2.74zm2.38-1.78a11.33 11.33 0 0 1 2.44 2.68l-1.16.92a14.15 14.15 0 0 0-2.38-2.72zm3.96-2.2c1.26 0 3-.06 4.58-.1.94 0 2.36-.08 3.8-.12 0-.3 0-1.92-.12-2.82l3.3.16a.64.64 0 0 1-.54.44v2.16c2.62-.08 5.24-.14 6.32-.16v2.36h-2.2c-1.2 0-2.62 0-4.1.06l.12 3.56a7.21 7.21 0 0 1 .3 2.28 7 7 0 0 1-.42 2.64 9.21 9.21 0 0 1-5.66 5.12 12.41 12.41 0 0 0-1.86-2c2.16-.74 3.8-1.78 4.5-3a1.78 1.78 0 0 1-1.1.38 3.58 3.58 0 0 1-3.56-3.64 3.85 3.85 0 0 1 3.86-3.88 3.1 3.1 0 0 1 1.3.3c0-.2 0-1.3-.06-1.7-1.48 0-8.08.26-8.4.28zm8.86 7.24c0-.44 0-1.84-1.52-1.84a1.75 1.75 0 0 0-1.72 1.88 1.68 1.68 0 0 0 1.64 1.72 1.6 1.6 0 0 0 1.6-1.76zm16 5.6a2.8 2.8 0 1 1-2.8-2.8 2.81 2.81 0 0 1 2.8 2.8zm-.9 0A1.89 1.89 0 1 0 379 48a1.89 1.89 0 0 0 1.86-1.92z"/></g></g></svg>