<svg xmlns="http://www.w3.org/2000/svg" viewBox="0 0 57.02 24.57"><defs><style>.cls-1{fill:#b8d200}</style></defs><title>txt_2017</title><g id="レイヤー_2" data-name="レイヤー 2"><path class="cls-1" d="M0 24.1A35.13 35.13 0 0 1 .38 20c.29-1.66 1.47-3.84 4.22-6.75L6.78 11C8.22 9.41 9 8.64 9 6.37s-.87-2.85-2.15-2.85A2 2 0 0 0 4.77 4.7a9.32 9.32 0 0 0-.35 3.4H.22v-.68C.22 5.31.13-.06 7 0c3.78 0 6.43 2.37 6.43 6.21a8.86 8.86 0 0 1-2.85 6.56L7.1 16.42c-.93 1-2.3 2.53-2.34 4.16h8.35v3.52zM15.87 6.88c0-5.09 2.43-6.88 6.5-6.88s6.46 1.79 6.46 6.88v10.78c0 5.09-2.43 6.91-6.5 6.91s-6.46-1.82-6.46-6.91zm4.48 10.78c-.13 2.69.8 3.39 2 3.39s2.18-.7 2-3.39V6.88c.13-2.66-.86-3.36-2-3.36s-2.08.7-2 3.36zm16.16-10.2H31.1v-3.2c3.1 0 5.7-.86 6.59-4.16H41v24h-4.49zM43.52.48H57v3.23a46.06 46.06 0 0 0-4.48 11.62 42.79 42.79 0 0 0-1.41 8.77h-4.58a49.76 49.76 0 0 1 3.81-14.66A34.79 34.79 0 0 1 53.09 4h-9.57z" id="HISTORY6"/></g></svg>