<svg xmlns="http://www.w3.org/2000/svg" viewBox="0 0 473.42 115.13"><defs><style>.cls-1{fill:#fff;stroke:#323232;stroke-miterlimit:10;stroke-width:6px}.cls-2{fill:#4b4b4b}.cls-3{fill:#323232}.cls-4{fill:none}</style></defs><title>txt_openmap</title><g id="contents"><rect class="cls-1" x="3.94" y="4" width="465.84" height="107.5" rx="22.53"/><path class="cls-2" d="M94.31 27.6a21.23 21.23 0 0 0-21.23 21.24c0 11.73 18.89 41.29 21.23 41.29s21.24-29.56 21.24-41.29A21.24 21.24 0 0 0 94.31 27.6zm0 29.36a8.13 8.13 0 1 1 8.13-8.12A8.13 8.13 0 0 1 94.31 57z"/><path class="cls-3" d="M177.53 47.56a1.25 1.25 0 0 1-.83.65c-4.1 6.07-11.13 12.92-17.76 17.85a84.66 84.66 0 0 1 8.74 8.14l-4 3.5a94.11 94.11 0 0 0-20.89-17.12l3.21-3.31a88.78 88.78 0 0 1 9.34 6.12 66.88 66.88 0 0 0 14.17-13.8h-31.69v-4.37H173l.69-.37zm12.37 4.23a58 58 0 0 1 3.36 9.85l-3.59 1a47.19 47.19 0 0 0-3.27-9.8zm27.09.79a1.08 1.08 0 0 1-1.05.5c-3.68 13.48-10.63 21.63-21.44 26a20.21 20.21 0 0 0-2.49-3c10.35-4 17-11.41 20.2-25.07zm-16-2.81A59.44 59.44 0 0 1 203.15 60l-3.73.78a63.84 63.84 0 0 0-2.21-10.26zM226 45h29l.32-.18 4.19 3a2.1 2.1 0 0 1-.69.56c-4 17.2-11.83 25.85-25.95 31.28A25.47 25.47 0 0 0 230 75.9c12.93-4.74 20.66-13 23.33-26.45H226zm35.14-8a5 5 0 1 1-5 5 5 5 0 0 1 5.01-4.93zm3.32 5a3.34 3.34 0 1 0-3.32 3.36 3.36 3.36 0 0 0 3.33-3.27zm45.64 17.06a.54.54 0 0 1-.28 0 1.54 1.54 0 0 1-.78-.23c-3.45 1.06-8.23 2.71-11.87 4.19.09 1 .14 2.16.14 3.45s-.05 2.62-.14 4.14l-4.64.32a48.44 48.44 0 0 0 .18-6.12C288.39 67 285 69.69 285 71.94s2.85 3.41 8.6 3.41a102 102 0 0 0 11.51-.55v4.28c-2.57.27-6.58.36-11.59.36-8.83 0-13-2-13-7.27 0-3.86 5.06-7.91 11.73-11.31-.23-2.07-1.15-3.41-2.76-3.41-3.22 0-6.58 1.75-10.49 6.17-1.2 1.33-2.94 3.13-5 5l-3.17-3.13a53.08 53.08 0 0 0 6.07-6 31.7 31.7 0 0 0 5.1-9.9h-9.52v-4.14c2.71.09 6 .13 7.91.13h2.81c.41-2 .78-3.91 1.1-6.35l5.8.64c-.09.46-.51.74-1.11.83-.32 1.66-.69 3.18-1.1 4.69a56.18 56.18 0 0 0 14.86-2.62l.78 4.37c-5.06 1.57-11.73 2.16-16.84 2.35a26.18 26.18 0 0 1-2.77 6.51h.08a11.47 11.47 0 0 1 6.85-2.58c2.86 0 5 2 5.66 5.66 3.73-1.65 8.28-3.35 11.83-4.73zm26.45-2.94h-13.11v25.21h-4.28V40.11h17.39zm-4.1-12.74h-9v3.12h9zm-9 9.52h9v-3.41h-9zm27.28 17.48h-5.8v10.08H341V70.38h-5.7c-.46 3-2 7.68-6.12 10.44a13.8 13.8 0 0 0-2.81-2.57 11.58 11.58 0 0 0 5.11-7.87h-5.28v-3.63h5.47v-4.42H327v-3.5h22.8v3.5h-4.88v4.42h5.8zm-15.28-3.63H341v-4.42h-5.57zm22.5-26.64V76c0 4.37-1.56 5.33-9.38 5.24a13.88 13.88 0 0 0-1.39-4.32h3.41c2.76 0 3.08 0 3.08-1V56.21h-13.49v-16.1zm-4.28 3.27h-9.29v3.12h9.29zm-9.3 9.62h9.29v-3.5h-9.29zm46.32 27.92a137.92 137.92 0 0 0-17.8-16.66c-2.58-2-3.32-3.31-3.32-5.24 0-1.43.65-2.76 2.31-4.33 4.41-4.09 12.46-11.91 16.42-16l5.29 3.45a1.45 1.45 0 0 1-1.15.5 2.24 2.24 0 0 1-.51 0c-4.41 4.14-11.22 10.12-15 13.62-1.11 1-2.07 1.93-2.07 2.62s1 1.7 2.66 2.9a145.69 145.69 0 0 1 17.76 15.73z"/><path class="cls-4" d="M0 0h473.42v115.13H0z"/></g></svg>