<svg xmlns="http://www.w3.org/2000/svg" viewBox="0 0 250.74 34.26"><defs><style>.cls-1{font-size:12.6px;fill:#fff;font-family:KozGoStd-Bold,KozGoStd Bold-83pv-RKSJ-H;font-weight:700}.cls-2{letter-spacing:.08em}.cls-3{letter-spacing:-.01em}.cls-4{letter-spacing:.06em}.cls-5{letter-spacing:.02em}.cls-6{letter-spacing:-.29em}.cls-7{letter-spacing:-.02em}.cls-8{letter-spacing:.04em}.cls-9{letter-spacing:.08em}.cls-10{letter-spacing:.04em}.cls-11{letter-spacing:-.01em}.cls-12{letter-spacing:.06em}.cls-13{letter-spacing:.07em}.cls-14{letter-spacing:.01em}.cls-15{letter-spacing:-.09em}.cls-16{letter-spacing:-.03em}.cls-17{letter-spacing:.05em}.cls-18{letter-spacing:.03em}.cls-19{letter-spacing:0}.cls-20{fill:none;stroke:#fff;stroke-linecap:round;stroke-linejoin:round;stroke-width:1.5px}</style></defs><g id="レイヤー_2" data-name="レイヤー 2"><g id="main_hover" data-name="main hover"><text class="cls-1" transform="matrix(.97 0 0 1 30.27 11.09)"><tspan class="cls-2">仕事は</tspan><tspan class="cls-3" x="40.82" y="0">違う</tspan><tspan class="cls-4" x="65.77" y="0">け</tspan><tspan x="79.13" y="0">れ</tspan><tspan class="cls-5" x="91.73" y="0">ど</tspan><tspan class="cls-6" x="104.58" y="0">、</tspan><tspan class="cls-7" x="113.46" y="0">同</tspan><tspan class="cls-8" x="125.81" y="0">じ</tspan><tspan class="cls-9" x="138.91" y="0">店</tspan><tspan class="cls-10" x="152.52" y="0">の</tspan><tspan class="cls-11" x="165.62" y="0">メ</tspan><tspan class="cls-12" x="178.1" y="0">ン</tspan><tspan class="cls-13" x="191.45" y="0">バー</tspan><tspan class="cls-6" x="218.42" y="0">。</tspan><tspan x="-1.01" y="18.9">ど</tspan><tspan class="cls-13" x="11.59" y="18.9">ん</tspan><tspan class="cls-14" x="25.07" y="18.9">な</tspan><tspan class="cls-15" x="37.8" y="18.9">こ</tspan><tspan class="cls-16" x="49.27" y="18.9">と</tspan><tspan class="cls-17" x="61.49" y="18.9">で</tspan><tspan class="cls-18" x="74.72" y="18.9">も</tspan><tspan class="cls-7" x="87.69" y="18.9">頼</tspan><tspan class="cls-19" x="100.04" y="18.9">っ</tspan><tspan class="cls-8" x="112.64" y="18.9">て</tspan><tspan class="cls-9" x="125.75" y="18.9">いい</tspan><tspan class="cls-6" x="152.96" y="18.9">。</tspan></text><path class="cls-20" d="M11.33 30.29l9.39-13.85L11.33 2.6M.75 30.29l9.39-13.85L.75 2.6"/></g></g></svg>