<svg xmlns="http://www.w3.org/2000/svg" viewBox="0 0 984.18 95.45"><defs><style>.cls-1,.cls-8{fill:none}.cls-2{clip-path:url(#clip-path)}.cls-3,.cls-9{fill:#b8d200}.cls-3,.cls-4,.cls-5,.cls-7{opacity:.14}.cls-4,.cls-6{fill:#e73a69}.cls-7{fill:#f18f26}.cls-11,.cls-8{stroke:#b8d200;stroke-miterlimit:10}.cls-8{stroke-linecap:round;stroke-width:4px}.cls-10,.cls-11{fill:#fff}.cls-11{stroke-width:.2px}</style><clipPath id="clip-path"><path class="cls-1" d="M-268.08-1022.63h1278.86v902.98H-268.08z"/></clipPath></defs><title>アートボード 14</title><g class="cls-2" id="bg"><circle class="cls-3" cx="257.85" cy="46.55" r="16.64" transform="rotate(-45 257.85 46.545)"/><circle class="cls-4" cx="301.61" cy="103.73" r="16.64" transform="rotate(-80.77 301.61 103.735)"/><g class="cls-5"><path class="cls-6" d="M185.79 125.82c1.29-1.92 1.5-4.22 1.71-6.44a14.49 14.49 0 0 1 .76-4.17 14.64 14.64 0 0 1 2.36-3.4c1.45-1.73 2.94-3.52 3.4-5.84s-.24-4.42-.89-6.53a14.94 14.94 0 0 1-.91-4.21 14.94 14.94 0 0 1 .91-4.21c.65-2.11 1.33-4.29.89-6.53s-2-4.11-3.4-5.84a14.44 14.44 0 0 1-2.36-3.4 8 8 0 0 1-.46-1.64c-.13-.76-.2-1.58-.27-2.43-.2-2.22-.39-4.52-1.67-6.45a6.51 6.51 0 0 0-.55-.72 12 12 0 0 0-3.58-2.74l-18.15 20.31-.23-.19a27.13 27.13 0 0 1-6.56 35.08l8.58 26.05a10.77 10.77 0 0 0 4.89-1.51c2-1.29 3-3.34 4.08-5.31a14.48 14.48 0 0 1 2.29-3.52 9.77 9.77 0 0 1 2-1.42h.18c.53-.31 1.1-.61 1.68-.92 1.96-1.01 4.01-2.08 5.3-4.02zm-41.95 22.37a17.61 17.61 0 0 0 4.89 1.06l-8.86-26.91a27.79 27.79 0 0 1-5.47-.58 27.17 27.17 0 0 1-21.34-22.66l-25.43-5.3a6.79 6.79 0 0 1 .1 1 15.23 15.23 0 0 1-.93 4.2c-.67 2.11-1.36 4.29-.93 6.53a6.47 6.47 0 0 0 .38 1.32 15.37 15.37 0 0 0 3.17 5 18.9 18.9 0 0 1 2.13 2.9v.07a15 15 0 0 1 .74 4.17c.19 2.22.39 4.52 1.67 6.45l.24.38c1.3 1.94 3.35 3 5.33 4.05.65.34 1.28.67 1.86 1h.25a8 8 0 0 1 1.12.91 14.43 14.43 0 0 1 2.25 3.55c1 2 2.1 4 4 5.35s4.21 1.52 6.43 1.74a14.8 14.8 0 0 1 4.16.78 14.8 14.8 0 0 1 3.39 2.39c1.72 1.45 3.5 3 5.82 3.43s4.42-.22 6.54-.86a14.86 14.86 0 0 1 4.21-.89 15.31 15.31 0 0 1 4.28.92zm-20.27-56.44a16.73 16.73 0 1 0 19.79-13 16.74 16.74 0 0 0-19.79 13zm12.24-49.62c-2.11-.66-4.29-1.34-6.53-.9s-4.11 2-5.84 3.4A14.5 14.5 0 0 1 120 47a14.84 14.84 0 0 1-4.16.75c-2.23.21-4.52.42-6.45 1.71s-3 3.35-4.05 5.33a14.42 14.42 0 0 1-2.27 3.53 6.69 6.69 0 0 1-1 .81c-.52.3-1.08.59-1.65.89-2 1-4.85 2.28-6.15 4.21s-1.52 4.21-1.74 6.43a14.74 14.74 0 0 1-.78 4.16 8.41 8.41 0 0 1-.81 1.4l25.48 5.31a27.16 27.16 0 0 1 29-12.94 26.52 26.52 0 0 1 4.58 1.35l19-21.3a18.31 18.31 0 0 0-4.83-.89A14.85 14.85 0 0 1 160 47a14.71 14.71 0 0 1-3.4-2.37c-1.73-1.45-3.52-2.94-5.84-3.4s-4.42.24-6.53.9A15.25 15.25 0 0 1 140 43a15.25 15.25 0 0 1-4.19-.87z"/></g><path class="cls-7" d="M395.59 71.68A138.33 138.33 0 1 0 559.24-35.51 138.32 138.32 0 0 0 395.59 71.68zm157.6-78.14A108.35 108.35 0 0 1 589.4 8.25l-39.57 44.29a50.9 50.9 0 0 0-62.9 21.75l-57.85-12.06A108.67 108.67 0 0 1 553.19-6.46zM524.6 130.65a31.4 31.4 0 1 1 37.14-24.34 31.41 31.41 0 0 1-37.14 24.34zM422.45 95.17l58.09 12.12a51.12 51.12 0 0 0 50.32 43.61l18.48 56.1A108.71 108.71 0 0 1 422.45 95.17zm214.93 26.92a108.57 108.57 0 0 1-56.19 74.2l-18.57-56.4A50.95 50.95 0 0 0 574.94 74l.42.35L614.6 30.5a108.49 108.49 0 0 1 22.78 91.59z"/><circle class="cls-4" cx="697.49" cy="13.34" r="23.05" transform="rotate(-45 697.495 13.338)"/><circle class="cls-3" cx="996.75" cy="46.55" r="16.64" transform="rotate(-45 996.749 46.543)"/><g class="cls-5"><path class="cls-6" d="M924.7 125.82c1.29-1.92 1.5-4.22 1.7-6.44a14.84 14.84 0 0 1 .76-4.17 14.71 14.71 0 0 1 2.37-3.4c1.44-1.73 2.94-3.52 3.39-5.84s-.23-4.42-.89-6.53a14.94 14.94 0 0 1-.91-4.21A14.94 14.94 0 0 1 932 91c.66-2.11 1.34-4.29.89-6.53s-1.95-4.11-3.39-5.84a14.5 14.5 0 0 1-2.37-3.4 7.44 7.44 0 0 1-.45-1.64c-.13-.76-.21-1.58-.28-2.43-.19-2.22-.39-4.52-1.67-6.45a8 8 0 0 0-.54-.72 12 12 0 0 0-3.59-2.74l-18.12 20.33-.22-.19a27.14 27.14 0 0 1-6.57 35.08l8.58 26.05a10.77 10.77 0 0 0 4.89-1.51c2-1.29 3-3.34 4.08-5.31a14.78 14.78 0 0 1 2.29-3.52 9.85 9.85 0 0 1 2-1.42h.17c.53-.31 1.1-.61 1.69-.92 1.96-1.01 4.01-2.08 5.31-4.02zm-41.96 22.37a17.77 17.77 0 0 0 4.89 1.06l-8.86-26.91a27.62 27.62 0 0 1-5.46-.58A27.16 27.16 0 0 1 852 99.1l-25.43-5.3a8.5 8.5 0 0 1 .09 1 14.88 14.88 0 0 1-.93 4.2c-.67 2.11-1.36 4.29-.93 6.53a8 8 0 0 0 .38 1.32 15.37 15.37 0 0 0 3.17 5 17.66 17.66 0 0 1 2.13 2.9v.07a14.64 14.64 0 0 1 .74 4.17c.19 2.22.39 4.52 1.67 6.45.07.13.15.25.23.38 1.3 1.94 3.35 3 5.34 4.05.65.34 1.28.67 1.86 1h.24a8.8 8.8 0 0 1 1.13.91 15 15 0 0 1 2.25 3.55c1 2 2.09 4 4 5.35s4.21 1.52 6.43 1.74a14.74 14.74 0 0 1 4.16.78 14.38 14.38 0 0 1 3.39 2.39c1.73 1.45 3.51 3 5.82 3.43s4.42-.22 6.54-.86a14.86 14.86 0 0 1 4.21-.89 15.23 15.23 0 0 1 4.25.92zm-20.27-56.44a16.73 16.73 0 1 0 19.79-13 16.74 16.74 0 0 0-19.79 13zm12.25-49.62c-2.12-.66-4.3-1.34-6.53-.9s-4.11 2-5.84 3.4A14.71 14.71 0 0 1 859 47a15 15 0 0 1-4.17.75c-2.22.21-4.52.42-6.44 1.71s-3 3.35-4.06 5.33a14.7 14.7 0 0 1-2.33 3.53 6.79 6.79 0 0 1-1 .81c-.52.3-1.08.59-1.65.89-2 1-4.84 2.28-6.15 4.21s-1.52 4.21-1.74 6.43a14.74 14.74 0 0 1-.78 4.16 7.76 7.76 0 0 1-.81 1.4l25.48 5.31a27.18 27.18 0 0 1 29-12.94 26.68 26.68 0 0 1 4.48 1.35l19-21.3a18.31 18.31 0 0 0-4.83-.89 14.92 14.92 0 0 1-4.1-.75 14.71 14.71 0 0 1-3.4-2.37c-1.73-1.45-3.52-2.94-5.84-3.4s-4.42.24-6.53.9a10.27 10.27 0 0 1-8.41 0z"/></g></g><g id="header"><path class="cls-8" d="M2.47 92.68l977.93.36"/><path class="cls-9" d="M956.87 87.86l-35.91-.61.99-20.69 32.7.56 2.22 20.74z"/><path class="cls-9" d="M962.61 87.96l-41.65-.71.85-12.34 40.17.69.63 12.36z"/><path class="cls-10" d="M927.93 91a4.26 4.26 0 1 1 .07 0z"/><path class="cls-9" d="M928 82.7h.07a4 4 0 0 1-.07 8.05h-.07a4 4 0 0 1 .07-8.05m0-.37a4.42 4.42 0 0 0-4.4 4.33 4.4 4.4 0 0 0 4.33 4.47h.07a4.43 4.43 0 0 0 4.41-4.32 4.41 4.41 0 0 0-4.33-4.48z"/><path class="cls-10" d="M954.42 91.4a4.22 4.22 0 0 1-4.14-4.29 4.22 4.22 0 1 1 4.21 4.29z"/><path class="cls-9" d="M954.49 83.16h.07a4 4 0 0 1-.07 8h-.07a4 4 0 0 1 .07-8m0-.38a4.41 4.41 0 0 0-.07 8.81h.07a4.41 4.41 0 0 0 .08-8.81z"/><path class="cls-11" d="M962.69 82.95l-1.88-.67.05-3.22 1.91-.61-.08 4.5z"/><path class="cls-10" d="M937.84 73.9l-.05-3.99 10.57.18.46 4-10.98-.19zm13.14.23l-.52-4 2.5.04.43 4-2.41-.04zm-26.56-.46l.17-3.98 11.43.19v3.99l-11.6-.2z"/><path class="cls-9" d="M2.45 72.63V2.06h37.07v10.35h-23.9V30.2h22v10.35h-22v21.73h23.9v10.35zM79.79 2.06H93.9L78.66 72.63h-17.6L45.44 2.06h14.12l8.28 45.26c.75 4 1.22 8 1.6 12 .18 1.88.56 3.86.56 5.84h.19a57.78 57.78 0 0 1 .56-5.84c.38-4 .85-8.09 1.6-12zm22.01 70.57V2.06h37.07v10.35H115V30.2h22v10.35h-22v21.73h23.9v10.35zm78.94-70.57h13.17v70.57h-13.74l-10.25-25.12a239.07 239.07 0 0 1-9.41-28h-.19c.47 5.83 1 13 1.41 20.13s.66 14.12.66 19.76v13.23h-13.17V2.06h13.64l10.26 25.69a236.48 236.48 0 0 1 9.41 28h.19c-.48-6.4-.95-13.27-1.32-20s-.66-13.55-.66-19.86zm21.17 0h43.94v10.35h-15.34v60.22h-13.17V12.41h-15.43zm89.32 44.68a1.12 1.12 0 0 1-1.06.36 89.48 89.48 0 0 1-9 7.56c.36.09.73.26 1.06.36a1 1 0 0 1-1 .63V73h-4.43V57.38a96.86 96.86 0 0 1-11 6.22 15.08 15.08 0 0 0-2.53-3.22C272 56.52 282 49.6 287 43.68zm4.13 13.04c2.42-2.46 7-7.65 9.14-10.05a4.7 4.7 0 0 1 3.36-1.73 5.86 5.86 0 0 1 3.56 1.76 159.45 159.45 0 0 1 15.44 16.66l-3.56 3.43a150.13 150.13 0 0 0-13.81-16.23c-.7-.63-1.1-1-1.49-1s-.77.4-1.37 1c-1.13 1.33-5.15 6.22-7.25 8.62a1.31 1.31 0 0 1-.43 1.16zM318.31 46a28.21 28.21 0 0 1 4 4.56l-2 1.59a27.81 27.81 0 0 0-3.9-4.65zm4.09-3a25.87 25.87 0 0 1 4 4.49l-2 1.59a32.72 32.72 0 0 0-3.89-4.55zm10.98 2.84a43.07 43.07 0 0 1 9.74 4.39L340.93 54a48.9 48.9 0 0 0-9.52-4.55zm-1.14 22.52c11.21-3.46 18.93-10 22.79-19.13a24.61 24.61 0 0 0 3.89 2.46c-4.12 9.09-12.07 16.17-23.08 20.06a1.19 1.19 0 0 1-.57.87zM387 62.31a94 94 0 0 0-10.41-5v15.57h-4.46V43.64l5.46.27c0 .4-.3.73-1 .83v9.38l.83-1.13a104.49 104.49 0 0 1 11.94 5.22zm21.32-14.14v3.16h-13.14v-3.16zm-1.23 13.9v10.18h-7v1.3h-3.4V62.07zm-10.32-6.18v-3h10.35v3zm0 4.55v-3h10.35v3zm10.28-16.76v3h-10.14v-3zm-3.42 21.55h-3.56v3.86h3.56zm23-2.46v3.63h-7.31V74h-4v-7.6h-7.49v-3.63h7.49v-3.39h-5.69v-3.59h5.69v-3.23H409v-3.63h3a24 24 0 0 0-2-5l3.23-1.2a21.81 21.81 0 0 1 2.39 5.52l-1.6.63h6.29l-1.36-.56a36 36 0 0 0 2.43-5.82l4.27 1.5a.88.88 0 0 1-.9.37 45.22 45.22 0 0 1-2.33 4.52h3.69v3.63h-6.78v3.23h5.95v3.59h-5.95v3.39zm15.68-17.43h16.07v28.14h-3.7v-1.39h-8.81v1.69h-3.56v-5.19c-.93.34-1.9.67-3.06 1.1a40.68 40.68 0 0 0-2-6.59l3-1a47.29 47.29 0 0 1 2.06 6v-7.52l-2.59 1.19a13.78 13.78 0 0 0-.47-1.56l-2.16.13V74h-3.53V63.24c-.1.2-.33.33-.73.3a28.51 28.51 0 0 1-1.93 7.95 24.22 24.22 0 0 0-2.79-1.4 28.23 28.23 0 0 0 1.63-7.82l3.82.9v-2.59c-1.49.1-2.86.16-4 .2a.68.68 0 0 1-.59.49l-.8-4h2.52c.54-.66 1.07-1.36 1.6-2.09a28.39 28.39 0 0 0-4-4.56l1.89-2.73.73.63a38.81 38.81 0 0 0 2.57-5.88l4 1.63a.94.94 0 0 1-.9.33 59.8 59.8 0 0 1-3.43 6.15 14.23 14.23 0 0 1 1.2 1.43c1.2-1.93 2.33-3.89 3.16-5.58l3.83 1.73a1.15 1.15 0 0 1-1 .36 78.63 78.63 0 0 1-6.05 8.52h3.66c-.4-.89-.87-1.76-1.33-2.56l2.89-1.3a33.73 33.73 0 0 1 2.76 5.46zm6.15 3.66h-2.59v7.85h2.59zm-2.59 11.48v7.95h2.59v-7.92zm8.81-3.63V49H452v7.85zM452 68.46h2.72v-7.95H452z"/><path class="cls-1" d="M0 0h984.18v95.45H0z"/></g></svg>