<svg xmlns="http://www.w3.org/2000/svg" viewBox="0 0 384.76 49.36"><defs><style>.cls-1{fill:#fff}.cls-2{fill:none;stroke:#fff;stroke-linecap:round;stroke-linejoin:round;stroke-width:2.5px}</style></defs><title>txt_crosstalk02</title><g id="レイヤー_2" data-name="レイヤー 2"><g id="CT_01_hover"><path class="cls-1" d="M63.4 7.78l1.72.7a.68.68 0 0 1-.28.34 14.37 14.37 0 0 1-3.26 6.12 17.57 17.57 0 0 0 6 2 10.15 10.15 0 0 0-1.64 2.36 17 17 0 0 1-6.3-2.6 18.26 18.26 0 0 1-5.3 2.64 10.38 10.38 0 0 0-1.42-2.12 14.79 14.79 0 0 0 4.76-2.18 15.35 15.35 0 0 1-2.48-3.4 18.35 18.35 0 0 1-4.7 7 7.39 7.39 0 0 0-1.92-1.86c3.32-2.84 5-6.82 5.64-11h-5V3.44h5.3c.1-1 .14-2 .14-3l3.1.1c0 .26-.24.42-.58.46 0 .8-.06 1.6-.14 2.42h10.08v2.4H56.7c-.1.68-.24 1.36-.38 2H63zM57 10.2a11.07 11.07 0 0 0 2.52 3.24 12 12 0 0 0 2.12-3.24zm18-1.92v6.46c1.2 2 3.4 2 7.08 2 2.38 0 5.24-.06 7.16-.22a10.68 10.68 0 0 0-.76 2.34c-1.52.08-3.72.12-5.74.12-4.62 0-6.92 0-8.74-2.3-.8.78-1.64 1.54-2.36 2.14 0 .24-.06.32-.26.42l-1.18-2.52a30.75 30.75 0 0 0 2.5-1.84V10.5h-2.28V8.28zM72.34 1a17.14 17.14 0 0 1 3.18 3.2l-2 1.5a16.36 16.36 0 0 0-3-3.34zm6.4 7a6.94 6.94 0 0 0-.62-1.62l.48-.12h-2.92v-1.7H81v-.92h-4V2h4V.44l2.94.16c0 .2-.18.32-.54.4v1h4.18v1.64H83.4v.92h5.42v1.68h-2.54l.54.16c-.06.2-.26.24-.5.22-.22.4-.5.9-.8 1.36h3.1v1.66H83.4v.8h4.44v1.62H83.4v.88h5.24v1.7H83.4v1.46H81v-1.46h-5v-1.7h5v-.88h-4.2v-1.62H81v-.8h-5V8zm4.78 0l-.16-.06c.22-.48.48-1.12.68-1.68h-3.66A5.13 5.13 0 0 1 81 7.94h-.18zm22.36.42a.7.7 0 0 1-.2 0 .87.87 0 0 1-.46-.12c-6 1.62-10.5 3.78-10.48 5.92 0 1.5 1.58 2.1 4.34 2.1a47.37 47.37 0 0 0 7.1-.54l.24 2.56a72.89 72.89 0 0 1-7.28.38c-3.92 0-7-1-7-4.4 0-2.1 1.88-3.86 4.84-5.46-.74-1.44-1-3.66-.94-8l3.56.28c0 .3-.22.46-.66.52v1.62a14.53 14.53 0 0 0 .46 4.42c1.68-.7 3.6-1.44 5.6-2.14zm14.54 3.76a37.94 37.94 0 0 1-4.2.22c0 .44-.06.82-.06 1.2 0 2.34 1.5 2.7 3.22 2.7a8.79 8.79 0 0 0 2.5-.36 1.82 1.82 0 0 0 1.38-1.9 5.55 5.55 0 0 0-1.44-3.32 20.08 20.08 0 0 0 2.34-.8 8.17 8.17 0 0 1 1.78 4.56c0 4.18-5.32 4.18-6.56 4.18-3.9 0-5.68-1.42-5.68-5.16a9.14 9.14 0 0 1 .06-1.18c-1.48-.12-4.18-.32-4.18-2.62a3.6 3.6 0 0 1 1.62-2.76l1.94.82c-.76.48-1.24 1.08-1.24 1.52 0 .72 1.2.78 2 .82.12-1.1.22-2.32.36-3.6a12.84 12.84 0 0 1-3.88-.94l.52-2.32a12.32 12.32 0 0 0 3.62 1c.14-1.12.28-2.28.38-3.28l3.36.4c0 .26-.3.42-.72.48-.14.7-.3 1.64-.44 2.6h1.34c.74 0 1.56 0 2.22-.08l-.12 2.32c-.52 0-1.2.06-1.88.06h-1.9c-.16 1.2-.28 2.38-.4 3.48a31.88 31.88 0 0 0 4-.3zm10.08 1a41.56 41.56 0 0 1 4.32 4.26l-2.06 1.88a47.41 47.41 0 0 0-4.12-4.5zm18.1-.12c.84.54 2.64 1.88 3.08 2.26l-1.34 1.84a22.62 22.62 0 0 0-1.74-1.84v4h-2.3V15.6a13.21 13.21 0 0 1-2.48 2.88 8.3 8.3 0 0 0-1.32-1.82 11.19 11.19 0 0 0 3.24-3.92H143v-2h3.32v-1.6h-3.54v-2h2a10.13 10.13 0 0 0-.6-2.48l1.84-.4a8.32 8.32 0 0 1 .7 2.48l-1.62.4h4l-1.1-.38c.22-.72.52-1.74.68-2.5h-5.5v-2h3.16V.46l2.8.14c0 .2-.16.32-.5.38v1.3h3.14v2h-2.58l1.92.5c-.08.16-.22.24-.5.24a20.94 20.94 0 0 1-.86 2.14h2.1v2h-4.16l1.4.06c0 .2-.16.3-.5.36v1.16h3.12v2h-3.12zm7.5.54c0 .18-.2.28-.48.32-.42 2-1.06 4.08-3.9 5.46a6.74 6.74 0 0 0-1.38-1.8 4.7 4.7 0 0 0 3.08-4.26zm2.76 2.86c0 .56 0 .62.26.62h.54c.28 0 .36-.26.4-2.42a6.06 6.06 0 0 0 2 .88c-.2 2.86-.74 3.6-2.1 3.6h-1.18c-1.74 0-2.08-.66-2.08-2.66V12.9h-4.2V1.2h8.26v11.7h-1.9zm-4.22-13.18v1.24h3.86V3.28zm0 3.12v1.26h3.86V6.4zm0 3.12v1.28h3.86V9.52zm28.44-.26v2.4h-8v4.86c0 2.26-.82 2.9-5.48 2.84a10.15 10.15 0 0 0-1-2.48c1.4.06 3 .06 3.42.06s.56-.1.56-.46v-4.82h-8v-2.4h8v-3.2h1.16A21.51 21.51 0 0 0 176.66 4h-10V1.68h12.64l.42-.14 2.16 1.36a.72.72 0 0 1-.54.28A32.45 32.45 0 0 1 175.08 8v1.3zM200 8.42a.7.7 0 0 1-.2 0 .87.87 0 0 1-.46-.12c-6 1.62-10.5 3.78-10.48 5.92 0 1.5 1.58 2.1 4.34 2.1a47.37 47.37 0 0 0 7.1-.54l.24 2.56a72.89 72.89 0 0 1-7.28.38c-3.92 0-7-1-7-4.4 0-2.1 1.88-3.86 4.84-5.46-.74-1.44-1-3.66-.94-8l3.56.28c0 .3-.22.46-.66.52v1.62a14.53 14.53 0 0 0 .46 4.42c1.7-.76 3.62-1.48 5.66-2.18zm14.52 3.76a37.94 37.94 0 0 1-4.2.22c0 .44-.06.82-.06 1.2 0 2.34 1.5 2.7 3.22 2.7a8.79 8.79 0 0 0 2.5-.36 1.82 1.82 0 0 0 1.38-1.9 5.55 5.55 0 0 0-1.44-3.32 20.08 20.08 0 0 0 2.34-.8 8.17 8.17 0 0 1 1.74 4.56c0 4.18-5.32 4.18-6.56 4.18-3.9 0-5.68-1.42-5.68-5.16a9.14 9.14 0 0 1 .06-1.18c-1.48-.12-4.18-.32-4.18-2.62a3.6 3.6 0 0 1 1.62-2.76l1.94.82c-.76.48-1.24 1.08-1.24 1.52 0 .72 1.2.78 2 .82.12-1.1.22-2.32.36-3.6a12.84 12.84 0 0 1-3.88-.94l.56-2.32a12.32 12.32 0 0 0 3.62 1c.14-1.12.28-2.28.38-3.28l3.36.4c0 .26-.3.42-.72.48-.14.7-.3 1.64-.44 2.6h1.34c.74 0 1.56 0 2.22-.08l-.12 2.32c-.52 0-1.2.06-1.88.06h-1.9c-.16 1.2-.28 2.38-.4 3.48a31.88 31.88 0 0 0 4-.3zm22.86-6.74a45.61 45.61 0 0 1-7.9 1.06 19.35 19.35 0 0 1-.74 3.84 9.59 9.59 0 0 1 5-1.64c2.76 0 4.8 1.4 4.8 4.46 0 4.12-3.82 5.6-10.66 5.74a12.68 12.68 0 0 0-.74-2.28c5.66-.14 8.82-1 8.82-3.4 0-1.44-.88-2.26-2.66-2.26a7 7 0 0 0-5.46 2.84l-2.44-1.06c.6-.66 1.34-3.14 1.6-6.2h-4.3V4.1h4.5c.08-1 .1-2.26.08-3.38l3.22.28c-.06.34-.3.44-.6.48 0 .86-.1 1.78-.16 2.56A37.72 37.72 0 0 0 237 2.92zm13.04-3.98c0 .28-.3.38-.66.42-.18 1-.48 2.7-.7 3.86.52-.06 1.24-.12 1.64-.12C254 5.6 255 7.92 255 11c-.08 4.42-1.32 7.56-4.38 7.56A6.21 6.21 0 0 1 247 17a12.19 12.19 0 0 0 .84-2.16 5 5 0 0 0 2.68 1.2c.84 0 1.24-.68 1.56-1.82a15.23 15.23 0 0 0 .42-3.28c0-2-.62-3-2-3a15.45 15.45 0 0 0-1.92.14 45.57 45.57 0 0 1-3.7 10.44l-2.32-1.14a34.76 34.76 0 0 0 3.46-9c-.72.12-2.16.32-3 .48l-.22-2.48 3.72-.42c.26-1.46.52-3.14.7-4.82zm5.06 2.94a10.19 10.19 0 0 0-2.32-2.78l1.18-.82a11.62 11.62 0 0 1 2.38 2.76zm2.64 8a12.57 12.57 0 0 0-3.32-6.58l2.12-1.32a13.49 13.49 0 0 1 3.82 7zm.5-8.82a11.16 11.16 0 0 0-2.3-2.78l1.16-.8a10.48 10.48 0 0 1 2.38 2.76zm5.1 4.12a46.14 46.14 0 0 1 8.5-1.7c2.74 0 5.1 1.38 5.08 4.92 0 3.88-2.9 6.44-8.42 8.1a13.63 13.63 0 0 0-1.7-2.2c4.74-1.16 7.32-3.28 7.32-5.76 0-1.6-.8-2.62-2.42-2.62a21.84 21.84 0 0 0-7 1.64c0 .2-.22.42-.42.5zM267 .88a34.94 34.94 0 0 1 7.9 1.32l-.68 2.54a33.63 33.63 0 0 0-7.88-1.46zm18.48 1.34a.63.63 0 0 1-.54.4 42.17 42.17 0 0 0-1.06 7.7c0 .86 0 1.8.1 2.62.34-.74 1-2.14 1.54-3.06l1.48 1.86a22.21 22.21 0 0 0-2 3.48 2.49 2.49 0 0 0-.24 1.06 3.5 3.5 0 0 0 .08.74l-2.46.4a24.49 24.49 0 0 1-.92-7 53.75 53.75 0 0 1 .86-8.6zm2.24 4.1c1.1 0 3.44 0 4.72-.14-.1-2.32-.24-4.62-.34-5.18l3.32.1a.72.72 0 0 1-.6.56c0 .94.08 2.7.14 4.38a21.68 21.68 0 0 0 3.42-.56l.22 2.46a28.78 28.78 0 0 1-3.6.46v1.32c0 4.18-1 7.28-4.72 9.3a14.46 14.46 0 0 0-2-1.72c3.5-1.78 4.2-4.2 4.2-7.34V8.52c-1.22.08-3.16.12-4.72.12zm14.34-1.62a28.78 28.78 0 0 0 3.58-.22c0-.32.12-3.48.12-3.56l3.26.22c0 .2-.2.36-.56.42-.1.84-.2 1.8-.26 2.54l.86.36A15.14 15.14 0 0 0 307.94 7c2.06-2 4.12-2.9 5.56-2.9 2 0 3.18 1.38 3.18 3.84v.72a51.58 51.58 0 0 0-.32 5.18c0 1 .1 1.52.74 1.52a5.66 5.66 0 0 0 2.44-1.36c0 .66.16 2.28.24 2.8a6.35 6.35 0 0 1-3.18 1.2c-2.16 0-2.88-1.2-2.88-3.74 0-.26 0-2 .3-5.18v-.62c0-1.22-.44-1.78-1.18-1.78-1.18 0-3.14 1.16-5 3.2v8.74h-2.48v-6.56a17.9 17.9 0 0 1-3.12 3.7l-1.16-2.38a18.06 18.06 0 0 0 4.32-5.22V6.8a24.29 24.29 0 0 1-3.42.34zm34.12 3.72a.7.7 0 0 1-.2 0 .87.87 0 0 1-.46-.12c-6 1.62-10.5 3.78-10.48 5.92 0 1.5 1.58 2.1 4.34 2.1a47.38 47.38 0 0 0 7.1-.54l.24 2.56a72.89 72.89 0 0 1-7.28.38c-3.92 0-7-1-7-4.4 0-2.1 1.88-3.86 4.84-5.46-.74-1.44-1-3.66-.94-8l3.56.28c0 .3-.22.46-.66.52v1.62a14.53 14.53 0 0 0 .46 4.42c1.7-.76 3.62-1.48 5.66-2.18zM333.62 1A12.63 12.63 0 0 1 336 3.86l-1.3.94a12.81 12.81 0 0 0-2.24-2.86zm2.92-1a11.18 11.18 0 0 1 2.34 2.82l-1.24.9A12.71 12.71 0 0 0 335.4.94zm9.22 16.52a2.8 2.8 0 1 1-2.8-2.8 2.81 2.81 0 0 1 2.8 2.8zm-.9 0A1.89 1.89 0 1 0 343 18.4a1.89 1.89 0 0 0 1.86-1.88zM66.72 31.4v15.16c0 2.4-1 2.78-4.6 2.78a8.17 8.17 0 0 0-.8-2.38c.68 0 1.38.06 1.9.06 1 0 1.14 0 1.14-.48V33.68H51.92v15.64H49.6V31.4zm-3.58 3.68v2h-10v-2zm-1 10.24h-5.9v1.36H54v-8.12h8.1zm-2.22-4.78h-3.68v2.8h3.68zm15.6-9.06c0 .24-.22.4-.6.46-.18 2.66-.38 7.34-.38 10.28 0 2.56 1.3 3.76 3.44 3.76 2 0 4.18-1 6.46-3.3a16.89 16.89 0 0 0 1.46 2.26 11.09 11.09 0 0 1-7.9 3.64c-4.44 0-6.16-2.42-6.16-6.36 0-2.68.14-8.48.28-10.9zm4.82 2a16.24 16.24 0 0 1 2.48 2.68l-1.16 1a16.13 16.13 0 0 0-2.42-2.7zm2.56-1.92a17.11 17.11 0 0 1 2.52 2.62l-1.18 1a17.35 17.35 0 0 0-2.4-2.66zm15.76 17.6A57.42 57.42 0 0 0 91 42.08c-1.2-.94-1.48-1.5-1.48-2.48a2.52 2.52 0 0 1 .94-1.94c2-1.86 5.58-5.4 7.12-7l2.86 1.84a.83.83 0 0 1-.78.22c-1.84 1.7-4.66 4.16-6.3 5.68-.44.44-.9.84-.9 1.12s.5.72 1.22 1.22a63.2 63.2 0 0 1 7.58 6.46zM108.54 35a.56.56 0 0 1-.52.34c-.24 2.78-.46 4.38-.82 4.9a12.91 12.91 0 0 1 6.5-2c2.92 0 5.12 1.62 5.1 4.6 0 3.82-2.9 5.68-10.9 6a12.66 12.66 0 0 0-.92-2.32c6.66-.26 9.08-1.24 9.1-3.62 0-1.42-1-2.38-2.78-2.38-2.48 0-5.56 1.2-6.72 3l-2.32-1c.42-.32 1.14-4.2 1.18-7.86zm-.4-4.22a34.77 34.77 0 0 1 7.7 1.58l-.84 2.5a33.76 33.76 0 0 0-7.62-1.7zm18.4 2.48a.6.6 0 0 1-.52.34 31.35 31.35 0 0 0-.52 5.5c0 4.4 1.28 6 2.4 6 .68 0 1.52-2 2-3.66a13.06 13.06 0 0 0 2 1.6c-1 3.28-2.26 4.8-4.1 4.8-3.1 0-4.62-3.86-4.82-7.12 0-.72-.08-1.5-.08-2.32a46.9 46.9 0 0 1 .36-5.72zm11.18 9.66a9.53 9.53 0 0 0-4.72-7.2l1.58-1.88a11.12 11.12 0 0 1 5.78 8.2zm10.5-4.64v6.36c1.24 2 3.66 2 7.16 2 2.3 0 5-.06 6.88-.22a12.84 12.84 0 0 0-.76 2.44c-1.5.14-3.56.14-5.5.14-4.48 0-6.88 0-8.82-2.3-.88.78-1.78 1.56-2.54 2.16a.36.36 0 0 1-.28.4l-1.22-2.64a26.89 26.89 0 0 0 2.76-1.88V40.5h-2.34v-2.22zm-2.88-7.36a15.34 15.34 0 0 1 3.38 3l-1.9 1.6a15.53 15.53 0 0 0-3.26-3.2zm10.8 7.6h-3c-.18 2.42-.82 5.34-2.84 7.38a5.91 5.91 0 0 0-1.72-1.66c2.06-2.18 2.3-5.18 2.3-7.52V32.2l1.46.26a30.73 30.73 0 0 0 6.54-2l2.16 1.86a.83.83 0 0 1-.56.12 42.89 42.89 0 0 1-7.28 1.9v1.96h8.66v2.22h-3.38V46h-2.38zm19.12 10.64a57.42 57.42 0 0 0-7.7-7.08c-1.2-.94-1.48-1.5-1.48-2.48a2.52 2.52 0 0 1 .94-1.94c2-1.86 5.58-5.4 7.12-7l2.86 1.82a.83.83 0 0 1-.78.22c-1.84 1.7-4.66 4.16-6.3 5.68-.44.44-.9.84-.9 1.12s.5.72 1.22 1.22a63.2 63.2 0 0 1 7.58 6.46zm5.24-16.26c.62 0 1.54 0 2.1-.06 2.3-.16 10.94-.7 14.32-.86v2.7a5.91 5.91 0 0 0-4.34 1.22c-2.2 1.46-4.92 4.22-4.92 6.5s2 3.6 6.4 4.06l-1.2 2.54c-5.68-.68-7.92-3.08-7.92-6.54 0-2.44 2.24-5.6 5.24-7.7-2.3.14-7.1.58-8.94.78 0 .16-.3.3-.48.34zm21.2 10.28a41.65 41.65 0 0 1 4.3 4.26l-2 1.88a47.41 47.41 0 0 0-4.12-4.5zm17.98-1.66c.84.74 2.64 2.52 3.08 3l-1.4 1.86a26 26 0 0 0-1.76-2.44v5.4h-2.14v-4.9a15.66 15.66 0 0 1-2.7 3.7 11.51 11.51 0 0 0-1-2.2 15.18 15.18 0 0 0 3.24-4.42h-2.36v-5.46h2.8V34.8h-3.22v-2.12h3.22v-2.24l2.64.16c0 .18-.16.28-.5.34v1.74h3.2v2.12h-3.2v1.26h3v5.46zm-3.26-3.72v2h1.2v-2zm4.28 2v-2h-1.26v2zm6.64 6.86a.61.61 0 0 1-.36.14 13.09 13.09 0 0 1-4 2.52 16.07 16.07 0 0 0-1.56-1.52 11.91 11.91 0 0 0 3.9-2.4zm4.76-11.9v10.6h-8.42V34.72h2.52c.1-.46.2-1 .28-1.42H223v-2.06h9.8v2.06h-4c-.12.44-.26.94-.42 1.42zm-2.26 3V36.5h-4v1.24zm0 2.92V39.4h-4v1.26zm0 2.92v-1.28h-4v1.26zm1.48 5.78a25.31 25.31 0 0 0-3.16-2.74l1.76-1.1a25.76 25.76 0 0 1 3.28 2.62zm5.14-14.68a28.78 28.78 0 0 0 3.58-.22c0-.32.12-3.48.12-3.56l3.26.22c0 .2-.2.36-.56.42-.1.84-.2 1.8-.26 2.54l.86.36a15.14 15.14 0 0 0-1.12 2.54c2.1-1.94 4.12-2.88 5.56-2.88 2 0 3.18 1.38 3.18 3.84v.72a51.58 51.58 0 0 0-.32 5.18c0 1 .1 1.52.74 1.52a5.66 5.66 0 0 0 2.44-1.38c0 .66.16 2.28.24 2.8A6.35 6.35 0 0 1 251 48c-2.16 0-2.88-1.2-2.88-3.74 0-.26 0-2 .3-5.18v-.62c0-1.22-.44-1.78-1.18-1.78-1.18 0-3.14 1.16-5 3.2v8.74h-2.48v-6.56a17.9 17.9 0 0 1-3.12 3.7l-1.16-2.38a18.06 18.06 0 0 0 4.32-5.22V36.8a24.29 24.29 0 0 1-3.42.34zm26.86 4.12a10.56 10.56 0 0 1 3.82-.74c3 0 5.14 1.86 5.14 5 0 3.58-3.12 5.66-7.48 5.66-2.58 0-4.4-1.18-4.4-3.2 0-1.62 1.64-2.94 3.52-2.94a4 4 0 0 1 4.08 3.16 2.88 2.88 0 0 0 1.66-2.66c0-1.72-1.42-2.82-3.44-2.82a10.11 10.11 0 0 0-6.66 2.48c-.48.44-1.28 1.24-1.8 1.82L256 42.8c1.42-1.42 6.46-6.2 9.14-8.68-1 .14-4.44.32-6 .42a.75.75 0 0 1-.48.3l-.3-2.84c2.56 0 8.2-.22 9.52-.44l.3-.14 1.62 2a1 1 0 0 1-.58.22c-1 .76-4.26 3.64-5.9 5.1zm1.06 7.74a7.46 7.46 0 0 0 1.22-.12 2 2 0 0 0-1.88-1.82c-.66 0-1.26.34-1.26.92 0 .94 1.26 1.02 1.92 1.02zm19.74-8.5h-5.44v11.26h-2.34v-18.1h7.78zm-2.26-5.18h-3.18v1h3.18zm-3.18 3.52h3.18v-1h-3.18zm14.68-5.18v15.56c0 2-.7 2.54-3.62 2.54a7.43 7.43 0 0 0-.48-1.88 8 8 0 0 0-.6 1 6.94 6.94 0 0 1-3.82-2.58 7.71 7.71 0 0 1-4.06 2.56 7.16 7.16 0 0 0-1.4-1.54c2.28-.6 3.34-1.5 3.82-2.38h-3.46v-1.78h3.82v-1.06H280V40h1.56a8.86 8.86 0 0 0-.66-1.3l1.84-.52a7 7 0 0 1 1 1.82h2a13.41 13.41 0 0 0 .78-1.88h-1.08v-6.9zm-3.52 13.24h-3.74a6.05 6.05 0 0 0 3.84 2.22c-.12.12-.26.26-.4.42 1.46.06 1.46 0 1.46-.34V38.1h-4.28l2.18.74c-.06.14-.24.2-.5.2-.16.28-.38.62-.6.94h1.8v1.68h-3.9v1.06h4.14zM291 32.88h-3.28v1H291zm-3.28 2.48v1.08H291v-1.08zm11.5 3.82a20.59 20.59 0 0 1-1.6 2.14 22 22 0 0 0-1.1-2.44 25.28 25.28 0 0 0 4.36-8.36l2.64.9a.49.49 0 0 1-.56.22c-.46 1.22-1 2.46-1.56 3.66l.68.22c0 .16-.2.3-.52.34v13.5h-2.34zm8 5.26a.42.42 0 0 1-.48.2 21.15 21.15 0 0 1-2.72 3.9 14.52 14.52 0 0 0-1.8-1.18 13.79 13.79 0 0 0 2.46-3.72zm6.32-6.44a20.89 20.89 0 0 1 2.72 4.68l-2.16.92a12.66 12.66 0 0 0-.48-1.22l-3.5.18v6.74h-2.38v-6.62c-1.66.08-3.16.14-4.36.18a.4.4 0 0 1-.38.3l-.66-2.54 3.64-.06c.24-.22.48-.44.72-.68a29.16 29.16 0 0 0-3.72-2.8l1.4-1.56 1 .64c.46-.6.92-1.3 1.34-2l-3.12.28a7.24 7.24 0 0 0-.64-1.92 63.88 63.88 0 0 0 10.32-1.68l1.66 2a.7.7 0 0 1-.32.06.88.88 0 0 1-.22 0 49.5 49.5 0 0 1-4.9.9l.46.26a.65.65 0 0 1-.58.18 30.12 30.12 0 0 1-2.4 3 13.9 13.9 0 0 1 1.26 1 35.18 35.18 0 0 0 3-3.72l2.46 1.22c-.08.14-.32.2-.6.2a47.82 47.82 0 0 1-4.18 4.58l3.64-.08a18.87 18.87 0 0 0-1-1.62zm-.48 5.52a19.79 19.79 0 0 1 2.6 3.8c-.76.4-1.42.74-2.1 1.06a18.76 18.76 0 0 0-2.46-3.94c1.9-.86 1.9-.88 1.96-.9zM327 31.46c0 .28-.3.38-.66.42-.18 1-.48 2.7-.7 3.86.52-.06 1.24-.12 1.64-.12 3.3 0 4.32 2.3 4.32 5.42-.08 4.42-1.32 7.56-4.38 7.56a6.21 6.21 0 0 1-3.6-1.64 12.19 12.19 0 0 0 .84-2.16 5 5 0 0 0 2.68 1.2c.84 0 1.24-.68 1.56-1.82a15.23 15.23 0 0 0 .42-3.28c0-2-.62-3-2-3a15.45 15.45 0 0 0-1.92.14 45.57 45.57 0 0 1-3.7 10.44l-2.32-1.14a34.76 34.76 0 0 0 3.46-9c-.72.12-2.16.32-3 .48l-.22-2.48 3.72-.42c.26-1.46.52-3.14.7-4.82zm5.06 2.94a10.19 10.19 0 0 0-2.32-2.78l1.18-.82a11.62 11.62 0 0 1 2.38 2.76zm2.64 8a12.57 12.57 0 0 0-3.32-6.58l2.12-1.32a13.49 13.49 0 0 1 3.82 7zm.5-8.82a11.16 11.16 0 0 0-2.3-2.78l1.16-.8a10.48 10.48 0 0 1 2.38 2.76zm18.02 3.64c-.06.22-.12.44-.16.66 2.9.8 4.18 2.82 4.18 5.06 0 3.2-2.4 5.36-7.54 6a9.3 9.3 0 0 0-1-2c3.6-.4 6-1.6 6-3.92a3 3 0 0 0-2.38-2.92 14.86 14.86 0 0 1-3.78 5.2 4.32 4.32 0 0 0 .28.68l-2.06 1.32a5 5 0 0 1-.28-.66 6.64 6.64 0 0 1-3.22.92 2.75 2.75 0 0 1-2.92-3c0-2.76 2.12-4.94 5-6.1V35.8c-1.5 0-3.12.08-3.92.06l-.12-2.34h4.08c0-.86.06-1.86.1-2.7l3.14.24c0 .2-.2.36-.54.4-.06.58-.1 1.34-.16 2a46.2 46.2 0 0 0 7.14-.84l.22 2.42a56 56 0 0 1-7.48.68v2a11.35 11.35 0 0 1 3-.26 4.75 4.75 0 0 0 .16-.9zm-7.42 7.2a28.91 28.91 0 0 1-.46-3.66c-1.58.78-2.66 2-2.66 3.34 0 1.14.86 1.1 1.12 1.08a4 4 0 0 0 2-.76zm4-4.74a8 8 0 0 0-2.22.28 25.19 25.19 0 0 0 .26 2.72 10.52 10.52 0 0 0 2-3zm17.32-.86a10.56 10.56 0 0 1 3.82-.74c3 0 5.14 1.86 5.14 5 0 3.58-3.12 5.66-7.48 5.66-2.58 0-4.4-1.18-4.4-3.2 0-1.62 1.64-2.94 3.52-2.94a4 4 0 0 1 4.06 3.16 2.88 2.88 0 0 0 1.66-2.66c0-1.72-1.42-2.82-3.44-2.82a10.11 10.11 0 0 0-6.66 2.48c-.48.44-1.28 1.24-1.8 1.82l-1.78-1.78c1.42-1.42 6.46-6.2 9.14-8.68-1 .14-4.44.32-6 .42a.75.75 0 0 1-.48.3l-.26-2.84c2.56 0 8.2-.22 9.52-.44l.3-.14 1.62 2a1 1 0 0 1-.58.22c-1 .76-4.26 3.64-5.9 5.1zm1.06 7.74a7.46 7.46 0 0 0 1.22-.12 2 2 0 0 0-1.88-1.82c-.66 0-1.26.34-1.26.92 0 .94 1.26 1.02 1.92 1.02zm16.58-.04a2.8 2.8 0 1 1-2.8-2.8 2.81 2.81 0 0 1 2.8 2.8zm-.9 0A1.89 1.89 0 1 0 382 48.4a1.89 1.89 0 0 0 1.86-1.88z"/><path class="cls-2" d="M18.05 47.96l14.9-21.98-14.9-21.97M1.25 47.96l14.9-21.98L1.25 4.01"/></g></g></svg>